G04 #@! TF.GenerationSoftware,KiCad,Pcbnew,6.0.0-rc1-unknown-5edf350~66~ubuntu18.10.1*
G04 #@! TF.CreationDate,2019-02-07T09:33:03-05:00
G04 #@! TF.ProjectId,Pack,5061636b-2e6b-4696-9361-645f70636258,rev?*
G04 #@! TF.SameCoordinates,Original*
G04 #@! TF.FileFunction,Legend,Bot*
G04 #@! TF.FilePolarity,Positive*
%FSLAX46Y46*%
G04 Gerber Fmt 4.6, Leading zero omitted, Abs format (unit mm)*
G04 Created by KiCad (PCBNEW 6.0.0-rc1-unknown-5edf350~66~ubuntu18.10.1) date 2019-02-07 09:33:03*
%MOMM*%
%LPD*%
G04 APERTURE LIST*
%ADD10C,0.150000*%
%ADD11C,0.300000*%
%ADD12C,0.120000*%
G04 APERTURE END LIST*
D10*
X15842976Y-18232142D02*
X15890595Y-18279761D01*
X16033452Y-18327380D01*
X16128690Y-18327380D01*
X16271547Y-18279761D01*
X16366785Y-18184523D01*
X16414404Y-18089285D01*
X16462023Y-17898809D01*
X16462023Y-17755952D01*
X16414404Y-17565476D01*
X16366785Y-17470238D01*
X16271547Y-17375000D01*
X16128690Y-17327380D01*
X16033452Y-17327380D01*
X15890595Y-17375000D01*
X15842976Y-17422619D01*
X15223928Y-17327380D02*
X15128690Y-17327380D01*
X15033452Y-17375000D01*
X14985833Y-17422619D01*
X14938214Y-17517857D01*
X14890595Y-17708333D01*
X14890595Y-17946428D01*
X14938214Y-18136904D01*
X14985833Y-18232142D01*
X15033452Y-18279761D01*
X15128690Y-18327380D01*
X15223928Y-18327380D01*
X15319166Y-18279761D01*
X15366785Y-18232142D01*
X15414404Y-18136904D01*
X15462023Y-17946428D01*
X15462023Y-17708333D01*
X15414404Y-17517857D01*
X15366785Y-17422619D01*
X15319166Y-17375000D01*
X15223928Y-17327380D01*
X15842976Y-19882142D02*
X15890595Y-19929761D01*
X16033452Y-19977380D01*
X16128690Y-19977380D01*
X16271547Y-19929761D01*
X16366785Y-19834523D01*
X16414404Y-19739285D01*
X16462023Y-19548809D01*
X16462023Y-19405952D01*
X16414404Y-19215476D01*
X16366785Y-19120238D01*
X16271547Y-19025000D01*
X16128690Y-18977380D01*
X16033452Y-18977380D01*
X15890595Y-19025000D01*
X15842976Y-19072619D01*
X15509642Y-18977380D02*
X14890595Y-18977380D01*
X15223928Y-19358333D01*
X15081071Y-19358333D01*
X14985833Y-19405952D01*
X14938214Y-19453571D01*
X14890595Y-19548809D01*
X14890595Y-19786904D01*
X14938214Y-19882142D01*
X14985833Y-19929761D01*
X15081071Y-19977380D01*
X15366785Y-19977380D01*
X15462023Y-19929761D01*
X15509642Y-19882142D01*
X15842976Y-21532142D02*
X15890595Y-21579761D01*
X16033452Y-21627380D01*
X16128690Y-21627380D01*
X16271547Y-21579761D01*
X16366785Y-21484523D01*
X16414404Y-21389285D01*
X16462023Y-21198809D01*
X16462023Y-21055952D01*
X16414404Y-20865476D01*
X16366785Y-20770238D01*
X16271547Y-20675000D01*
X16128690Y-20627380D01*
X16033452Y-20627380D01*
X15890595Y-20675000D01*
X15842976Y-20722619D01*
X14985833Y-20627380D02*
X15176309Y-20627380D01*
X15271547Y-20675000D01*
X15319166Y-20722619D01*
X15414404Y-20865476D01*
X15462023Y-21055952D01*
X15462023Y-21436904D01*
X15414404Y-21532142D01*
X15366785Y-21579761D01*
X15271547Y-21627380D01*
X15081071Y-21627380D01*
X14985833Y-21579761D01*
X14938214Y-21532142D01*
X14890595Y-21436904D01*
X14890595Y-21198809D01*
X14938214Y-21103571D01*
X14985833Y-21055952D01*
X15081071Y-21008333D01*
X15271547Y-21008333D01*
X15366785Y-21055952D01*
X15414404Y-21103571D01*
X15462023Y-21198809D01*
X15842976Y-23182142D02*
X15890595Y-23229761D01*
X16033452Y-23277380D01*
X16128690Y-23277380D01*
X16271547Y-23229761D01*
X16366785Y-23134523D01*
X16414404Y-23039285D01*
X16462023Y-22848809D01*
X16462023Y-22705952D01*
X16414404Y-22515476D01*
X16366785Y-22420238D01*
X16271547Y-22325000D01*
X16128690Y-22277380D01*
X16033452Y-22277380D01*
X15890595Y-22325000D01*
X15842976Y-22372619D01*
X15366785Y-23277380D02*
X15176309Y-23277380D01*
X15081071Y-23229761D01*
X15033452Y-23182142D01*
X14938214Y-23039285D01*
X14890595Y-22848809D01*
X14890595Y-22467857D01*
X14938214Y-22372619D01*
X14985833Y-22325000D01*
X15081071Y-22277380D01*
X15271547Y-22277380D01*
X15366785Y-22325000D01*
X15414404Y-22372619D01*
X15462023Y-22467857D01*
X15462023Y-22705952D01*
X15414404Y-22801190D01*
X15366785Y-22848809D01*
X15271547Y-22896428D01*
X15081071Y-22896428D01*
X14985833Y-22848809D01*
X14938214Y-22801190D01*
X14890595Y-22705952D01*
X15842976Y-24832142D02*
X15890595Y-24879761D01*
X16033452Y-24927380D01*
X16128690Y-24927380D01*
X16271547Y-24879761D01*
X16366785Y-24784523D01*
X16414404Y-24689285D01*
X16462023Y-24498809D01*
X16462023Y-24355952D01*
X16414404Y-24165476D01*
X16366785Y-24070238D01*
X16271547Y-23975000D01*
X16128690Y-23927380D01*
X16033452Y-23927380D01*
X15890595Y-23975000D01*
X15842976Y-24022619D01*
X14890595Y-24927380D02*
X15462023Y-24927380D01*
X15176309Y-24927380D02*
X15176309Y-23927380D01*
X15271547Y-24070238D01*
X15366785Y-24165476D01*
X15462023Y-24213095D01*
X14509642Y-24022619D02*
X14462023Y-23975000D01*
X14366785Y-23927380D01*
X14128690Y-23927380D01*
X14033452Y-23975000D01*
X13985833Y-24022619D01*
X13938214Y-24117857D01*
X13938214Y-24213095D01*
X13985833Y-24355952D01*
X14557261Y-24927380D01*
X13938214Y-24927380D01*
X15842976Y-26482142D02*
X15890595Y-26529761D01*
X16033452Y-26577380D01*
X16128690Y-26577380D01*
X16271547Y-26529761D01*
X16366785Y-26434523D01*
X16414404Y-26339285D01*
X16462023Y-26148809D01*
X16462023Y-26005952D01*
X16414404Y-25815476D01*
X16366785Y-25720238D01*
X16271547Y-25625000D01*
X16128690Y-25577380D01*
X16033452Y-25577380D01*
X15890595Y-25625000D01*
X15842976Y-25672619D01*
X14890595Y-26577380D02*
X15462023Y-26577380D01*
X15176309Y-26577380D02*
X15176309Y-25577380D01*
X15271547Y-25720238D01*
X15366785Y-25815476D01*
X15462023Y-25863095D01*
X13985833Y-25577380D02*
X14462023Y-25577380D01*
X14509642Y-26053571D01*
X14462023Y-26005952D01*
X14366785Y-25958333D01*
X14128690Y-25958333D01*
X14033452Y-26005952D01*
X13985833Y-26053571D01*
X13938214Y-26148809D01*
X13938214Y-26386904D01*
X13985833Y-26482142D01*
X14033452Y-26529761D01*
X14128690Y-26577380D01*
X14366785Y-26577380D01*
X14462023Y-26529761D01*
X14509642Y-26482142D01*
D11*
X34957142Y-28471190D02*
X34957142Y-29137857D01*
X36004761Y-29423571D02*
X36004761Y-28471190D01*
X34004761Y-28471190D01*
X34004761Y-29423571D01*
X36004761Y-30280714D02*
X34004761Y-30280714D01*
X36004761Y-31423571D01*
X34004761Y-31423571D01*
X36004761Y-32375952D02*
X34004761Y-32375952D01*
X36004761Y-33518809D01*
X34004761Y-33518809D01*
X34004761Y-34852142D02*
X34004761Y-35233095D01*
X34100000Y-35423571D01*
X34290476Y-35614047D01*
X34671428Y-35709285D01*
X35338095Y-35709285D01*
X35719047Y-35614047D01*
X35909523Y-35423571D01*
X36004761Y-35233095D01*
X36004761Y-34852142D01*
X35909523Y-34661666D01*
X35719047Y-34471190D01*
X35338095Y-34375952D01*
X34671428Y-34375952D01*
X34290476Y-34471190D01*
X34100000Y-34661666D01*
X34004761Y-34852142D01*
X36004761Y-36566428D02*
X34004761Y-36566428D01*
X36004761Y-37518809D02*
X34004761Y-37518809D01*
X34004761Y-37995000D01*
X34100000Y-38280714D01*
X34290476Y-38471190D01*
X34480952Y-38566428D01*
X34861904Y-38661666D01*
X35147619Y-38661666D01*
X35528571Y-38566428D01*
X35719047Y-38471190D01*
X35909523Y-38280714D01*
X36004761Y-37995000D01*
X36004761Y-37518809D01*
D10*
X36052380Y-39735595D02*
X35052380Y-39735595D01*
X36052380Y-40164166D02*
X35528571Y-40164166D01*
X35433333Y-40116547D01*
X35385714Y-40021309D01*
X35385714Y-39878452D01*
X35433333Y-39783214D01*
X35480952Y-39735595D01*
X35385714Y-40497500D02*
X35385714Y-40878452D01*
X35052380Y-40640357D02*
X35909523Y-40640357D01*
X36004761Y-40687976D01*
X36052380Y-40783214D01*
X36052380Y-40878452D01*
X35385714Y-41068928D02*
X35385714Y-41449880D01*
X35052380Y-41211785D02*
X35909523Y-41211785D01*
X36004761Y-41259404D01*
X36052380Y-41354642D01*
X36052380Y-41449880D01*
X35385714Y-41783214D02*
X36385714Y-41783214D01*
X35433333Y-41783214D02*
X35385714Y-41878452D01*
X35385714Y-42068928D01*
X35433333Y-42164166D01*
X35480952Y-42211785D01*
X35576190Y-42259404D01*
X35861904Y-42259404D01*
X35957142Y-42211785D01*
X36004761Y-42164166D01*
X36052380Y-42068928D01*
X36052380Y-41878452D01*
X36004761Y-41783214D01*
X36004761Y-42640357D02*
X36052380Y-42735595D01*
X36052380Y-42926071D01*
X36004761Y-43021309D01*
X35909523Y-43068928D01*
X35861904Y-43068928D01*
X35766666Y-43021309D01*
X35719047Y-42926071D01*
X35719047Y-42783214D01*
X35671428Y-42687976D01*
X35576190Y-42640357D01*
X35528571Y-42640357D01*
X35433333Y-42687976D01*
X35385714Y-42783214D01*
X35385714Y-42926071D01*
X35433333Y-43021309D01*
X35957142Y-43497500D02*
X36004761Y-43545119D01*
X36052380Y-43497500D01*
X36004761Y-43449880D01*
X35957142Y-43497500D01*
X36052380Y-43497500D01*
X35433333Y-43497500D02*
X35480952Y-43545119D01*
X35528571Y-43497500D01*
X35480952Y-43449880D01*
X35433333Y-43497500D01*
X35528571Y-43497500D01*
X35004761Y-44687976D02*
X36290476Y-43830833D01*
X35004761Y-45735595D02*
X36290476Y-44878452D01*
X35385714Y-46497500D02*
X36195238Y-46497500D01*
X36290476Y-46449880D01*
X36338095Y-46402261D01*
X36385714Y-46307023D01*
X36385714Y-46164166D01*
X36338095Y-46068928D01*
X36004761Y-46497500D02*
X36052380Y-46402261D01*
X36052380Y-46211785D01*
X36004761Y-46116547D01*
X35957142Y-46068928D01*
X35861904Y-46021309D01*
X35576190Y-46021309D01*
X35480952Y-46068928D01*
X35433333Y-46116547D01*
X35385714Y-46211785D01*
X35385714Y-46402261D01*
X35433333Y-46497500D01*
X36052380Y-46973690D02*
X35385714Y-46973690D01*
X35052380Y-46973690D02*
X35100000Y-46926071D01*
X35147619Y-46973690D01*
X35100000Y-47021309D01*
X35052380Y-46973690D01*
X35147619Y-46973690D01*
X35385714Y-47307023D02*
X35385714Y-47687976D01*
X35052380Y-47449880D02*
X35909523Y-47449880D01*
X36004761Y-47497500D01*
X36052380Y-47592738D01*
X36052380Y-47687976D01*
X36052380Y-48021309D02*
X35052380Y-48021309D01*
X36052380Y-48449880D02*
X35528571Y-48449880D01*
X35433333Y-48402261D01*
X35385714Y-48307023D01*
X35385714Y-48164166D01*
X35433333Y-48068928D01*
X35480952Y-48021309D01*
X35385714Y-49354642D02*
X36052380Y-49354642D01*
X35385714Y-48926071D02*
X35909523Y-48926071D01*
X36004761Y-48973690D01*
X36052380Y-49068928D01*
X36052380Y-49211785D01*
X36004761Y-49307023D01*
X35957142Y-49354642D01*
X36052380Y-49830833D02*
X35052380Y-49830833D01*
X35433333Y-49830833D02*
X35385714Y-49926071D01*
X35385714Y-50116547D01*
X35433333Y-50211785D01*
X35480952Y-50259404D01*
X35576190Y-50307023D01*
X35861904Y-50307023D01*
X35957142Y-50259404D01*
X36004761Y-50211785D01*
X36052380Y-50116547D01*
X36052380Y-49926071D01*
X36004761Y-49830833D01*
X35957142Y-50735595D02*
X36004761Y-50783214D01*
X36052380Y-50735595D01*
X36004761Y-50687976D01*
X35957142Y-50735595D01*
X36052380Y-50735595D01*
X36004761Y-51640357D02*
X36052380Y-51545119D01*
X36052380Y-51354642D01*
X36004761Y-51259404D01*
X35957142Y-51211785D01*
X35861904Y-51164166D01*
X35576190Y-51164166D01*
X35480952Y-51211785D01*
X35433333Y-51259404D01*
X35385714Y-51354642D01*
X35385714Y-51545119D01*
X35433333Y-51640357D01*
X36052380Y-52211785D02*
X36004761Y-52116547D01*
X35957142Y-52068928D01*
X35861904Y-52021309D01*
X35576190Y-52021309D01*
X35480952Y-52068928D01*
X35433333Y-52116547D01*
X35385714Y-52211785D01*
X35385714Y-52354642D01*
X35433333Y-52449880D01*
X35480952Y-52497500D01*
X35576190Y-52545119D01*
X35861904Y-52545119D01*
X35957142Y-52497500D01*
X36004761Y-52449880D01*
X36052380Y-52354642D01*
X36052380Y-52211785D01*
X36052380Y-52973690D02*
X35385714Y-52973690D01*
X35480952Y-52973690D02*
X35433333Y-53021309D01*
X35385714Y-53116547D01*
X35385714Y-53259404D01*
X35433333Y-53354642D01*
X35528571Y-53402261D01*
X36052380Y-53402261D01*
X35528571Y-53402261D02*
X35433333Y-53449880D01*
X35385714Y-53545119D01*
X35385714Y-53687976D01*
X35433333Y-53783214D01*
X35528571Y-53830833D01*
X36052380Y-53830833D01*
X35004761Y-55021309D02*
X36290476Y-54164166D01*
X35528571Y-55354642D02*
X35528571Y-55687976D01*
X36052380Y-55830833D02*
X36052380Y-55354642D01*
X35052380Y-55354642D01*
X35052380Y-55830833D01*
X35385714Y-56259404D02*
X36052380Y-56259404D01*
X35480952Y-56259404D02*
X35433333Y-56307023D01*
X35385714Y-56402261D01*
X35385714Y-56545119D01*
X35433333Y-56640357D01*
X35528571Y-56687976D01*
X36052380Y-56687976D01*
X35385714Y-57164166D02*
X36052380Y-57164166D01*
X35480952Y-57164166D02*
X35433333Y-57211785D01*
X35385714Y-57307023D01*
X35385714Y-57449880D01*
X35433333Y-57545119D01*
X35528571Y-57592738D01*
X36052380Y-57592738D01*
X36052380Y-58211785D02*
X36004761Y-58116547D01*
X35957142Y-58068928D01*
X35861904Y-58021309D01*
X35576190Y-58021309D01*
X35480952Y-58068928D01*
X35433333Y-58116547D01*
X35385714Y-58211785D01*
X35385714Y-58354642D01*
X35433333Y-58449880D01*
X35480952Y-58497499D01*
X35576190Y-58545119D01*
X35861904Y-58545119D01*
X35957142Y-58497499D01*
X36004761Y-58449880D01*
X36052380Y-58354642D01*
X36052380Y-58211785D01*
X36052380Y-58973690D02*
X35385714Y-58973690D01*
X35052380Y-58973690D02*
X35100000Y-58926071D01*
X35147619Y-58973690D01*
X35100000Y-59021309D01*
X35052380Y-58973690D01*
X35147619Y-58973690D01*
X36052380Y-59878452D02*
X35052380Y-59878452D01*
X36004761Y-59878452D02*
X36052380Y-59783214D01*
X36052380Y-59592738D01*
X36004761Y-59497499D01*
X35957142Y-59449880D01*
X35861904Y-59402261D01*
X35576190Y-59402261D01*
X35480952Y-59449880D01*
X35433333Y-59497499D01*
X35385714Y-59592738D01*
X35385714Y-59783214D01*
X35433333Y-59878452D01*
X36052380Y-60354642D02*
X35052380Y-60354642D01*
X35766666Y-60687976D01*
X35052380Y-61021309D01*
X36052380Y-61021309D01*
X36004761Y-61878452D02*
X36052380Y-61783214D01*
X36052380Y-61592738D01*
X36004761Y-61497499D01*
X35909523Y-61449880D01*
X35528571Y-61449880D01*
X35433333Y-61497499D01*
X35385714Y-61592738D01*
X35385714Y-61783214D01*
X35433333Y-61878452D01*
X35528571Y-61926071D01*
X35623809Y-61926071D01*
X35719047Y-61449880D01*
X35004761Y-63068928D02*
X36290476Y-62211785D01*
X35528571Y-63402261D02*
X35528571Y-63735595D01*
X36052380Y-63878452D02*
X36052380Y-63402261D01*
X35052380Y-63402261D01*
X35052380Y-63878452D01*
X36052380Y-64307023D02*
X35052380Y-64307023D01*
X36052380Y-64878452D01*
X35052380Y-64878452D01*
X36052380Y-65354642D02*
X35052380Y-65354642D01*
X36052380Y-65926071D01*
X35052380Y-65926071D01*
X35052380Y-66592738D02*
X35052380Y-66783214D01*
X35100000Y-66878452D01*
X35195238Y-66973690D01*
X35385714Y-67021309D01*
X35719047Y-67021309D01*
X35909523Y-66973690D01*
X36004761Y-66878452D01*
X36052380Y-66783214D01*
X36052380Y-66592738D01*
X36004761Y-66497499D01*
X35909523Y-66402261D01*
X35719047Y-66354642D01*
X35385714Y-66354642D01*
X35195238Y-66402261D01*
X35100000Y-66497499D01*
X35052380Y-66592738D01*
X36052380Y-67449880D02*
X35052380Y-67449880D01*
X36052380Y-67926071D02*
X35052380Y-67926071D01*
X35052380Y-68164166D01*
X35100000Y-68307023D01*
X35195238Y-68402261D01*
X35290476Y-68449880D01*
X35480952Y-68497499D01*
X35623809Y-68497499D01*
X35814285Y-68449880D01*
X35909523Y-68402261D01*
X36004761Y-68307023D01*
X36052380Y-68164166D01*
X36052380Y-67926071D01*
X35671428Y-68926071D02*
X35671428Y-69687976D01*
X36052380Y-70164166D02*
X35052380Y-70164166D01*
X35052380Y-70545119D01*
X35100000Y-70640357D01*
X35147619Y-70687976D01*
X35242857Y-70735595D01*
X35385714Y-70735595D01*
X35480952Y-70687976D01*
X35528571Y-70640357D01*
X35576190Y-70545119D01*
X35576190Y-70164166D01*
X35766666Y-71116547D02*
X35766666Y-71592738D01*
X36052380Y-71021309D02*
X35052380Y-71354642D01*
X36052380Y-71687976D01*
X35957142Y-72592738D02*
X36004761Y-72545119D01*
X36052380Y-72402261D01*
X36052380Y-72307023D01*
X36004761Y-72164166D01*
X35909523Y-72068928D01*
X35814285Y-72021309D01*
X35623809Y-71973690D01*
X35480952Y-71973690D01*
X35290476Y-72021309D01*
X35195238Y-72068928D01*
X35100000Y-72164166D01*
X35052380Y-72307023D01*
X35052380Y-72402261D01*
X35100000Y-72545119D01*
X35147619Y-72592738D01*
X36052380Y-73021309D02*
X35052380Y-73021309D01*
X36052380Y-73592738D02*
X35480952Y-73164166D01*
X35052380Y-73592738D02*
X35623809Y-73021309D01*
X6092976Y-29232142D02*
X6140595Y-29279761D01*
X6283452Y-29327380D01*
X6378690Y-29327380D01*
X6521547Y-29279761D01*
X6616785Y-29184523D01*
X6664404Y-29089285D01*
X6712023Y-28898809D01*
X6712023Y-28755952D01*
X6664404Y-28565476D01*
X6616785Y-28470238D01*
X6521547Y-28375000D01*
X6378690Y-28327380D01*
X6283452Y-28327380D01*
X6140595Y-28375000D01*
X6092976Y-28422619D01*
X5712023Y-28422619D02*
X5664404Y-28375000D01*
X5569166Y-28327380D01*
X5331071Y-28327380D01*
X5235833Y-28375000D01*
X5188214Y-28422619D01*
X5140595Y-28517857D01*
X5140595Y-28613095D01*
X5188214Y-28755952D01*
X5759642Y-29327380D01*
X5140595Y-29327380D01*
X6092976Y-30882142D02*
X6140595Y-30929761D01*
X6283452Y-30977380D01*
X6378690Y-30977380D01*
X6521547Y-30929761D01*
X6616785Y-30834523D01*
X6664404Y-30739285D01*
X6712023Y-30548809D01*
X6712023Y-30405952D01*
X6664404Y-30215476D01*
X6616785Y-30120238D01*
X6521547Y-30025000D01*
X6378690Y-29977380D01*
X6283452Y-29977380D01*
X6140595Y-30025000D01*
X6092976Y-30072619D01*
X5188214Y-29977380D02*
X5664404Y-29977380D01*
X5712023Y-30453571D01*
X5664404Y-30405952D01*
X5569166Y-30358333D01*
X5331071Y-30358333D01*
X5235833Y-30405952D01*
X5188214Y-30453571D01*
X5140595Y-30548809D01*
X5140595Y-30786904D01*
X5188214Y-30882142D01*
X5235833Y-30929761D01*
X5331071Y-30977380D01*
X5569166Y-30977380D01*
X5664404Y-30929761D01*
X5712023Y-30882142D01*
X6092976Y-32532142D02*
X6140595Y-32579761D01*
X6283452Y-32627380D01*
X6378690Y-32627380D01*
X6521547Y-32579761D01*
X6616785Y-32484523D01*
X6664404Y-32389285D01*
X6712023Y-32198809D01*
X6712023Y-32055952D01*
X6664404Y-31865476D01*
X6616785Y-31770238D01*
X6521547Y-31675000D01*
X6378690Y-31627380D01*
X6283452Y-31627380D01*
X6140595Y-31675000D01*
X6092976Y-31722619D01*
X5521547Y-32055952D02*
X5616785Y-32008333D01*
X5664404Y-31960714D01*
X5712023Y-31865476D01*
X5712023Y-31817857D01*
X5664404Y-31722619D01*
X5616785Y-31675000D01*
X5521547Y-31627380D01*
X5331071Y-31627380D01*
X5235833Y-31675000D01*
X5188214Y-31722619D01*
X5140595Y-31817857D01*
X5140595Y-31865476D01*
X5188214Y-31960714D01*
X5235833Y-32008333D01*
X5331071Y-32055952D01*
X5521547Y-32055952D01*
X5616785Y-32103571D01*
X5664404Y-32151190D01*
X5712023Y-32246428D01*
X5712023Y-32436904D01*
X5664404Y-32532142D01*
X5616785Y-32579761D01*
X5521547Y-32627380D01*
X5331071Y-32627380D01*
X5235833Y-32579761D01*
X5188214Y-32532142D01*
X5140595Y-32436904D01*
X5140595Y-32246428D01*
X5188214Y-32151190D01*
X5235833Y-32103571D01*
X5331071Y-32055952D01*
X6092976Y-34182142D02*
X6140595Y-34229761D01*
X6283452Y-34277380D01*
X6378690Y-34277380D01*
X6521547Y-34229761D01*
X6616785Y-34134523D01*
X6664404Y-34039285D01*
X6712023Y-33848809D01*
X6712023Y-33705952D01*
X6664404Y-33515476D01*
X6616785Y-33420238D01*
X6521547Y-33325000D01*
X6378690Y-33277380D01*
X6283452Y-33277380D01*
X6140595Y-33325000D01*
X6092976Y-33372619D01*
X5140595Y-34277380D02*
X5712023Y-34277380D01*
X5426309Y-34277380D02*
X5426309Y-33277380D01*
X5521547Y-33420238D01*
X5616785Y-33515476D01*
X5712023Y-33563095D01*
X4188214Y-34277380D02*
X4759642Y-34277380D01*
X4473928Y-34277380D02*
X4473928Y-33277380D01*
X4569166Y-33420238D01*
X4664404Y-33515476D01*
X4759642Y-33563095D01*
X6092976Y-35832142D02*
X6140595Y-35879761D01*
X6283452Y-35927380D01*
X6378690Y-35927380D01*
X6521547Y-35879761D01*
X6616785Y-35784523D01*
X6664404Y-35689285D01*
X6712023Y-35498809D01*
X6712023Y-35355952D01*
X6664404Y-35165476D01*
X6616785Y-35070238D01*
X6521547Y-34975000D01*
X6378690Y-34927380D01*
X6283452Y-34927380D01*
X6140595Y-34975000D01*
X6092976Y-35022619D01*
X5140595Y-35927380D02*
X5712023Y-35927380D01*
X5426309Y-35927380D02*
X5426309Y-34927380D01*
X5521547Y-35070238D01*
X5616785Y-35165476D01*
X5712023Y-35213095D01*
X4283452Y-35260714D02*
X4283452Y-35927380D01*
X4521547Y-34879761D02*
X4759642Y-35594047D01*
X4140595Y-35594047D01*
X6092976Y-37482142D02*
X6140595Y-37529761D01*
X6283452Y-37577380D01*
X6378690Y-37577380D01*
X6521547Y-37529761D01*
X6616785Y-37434523D01*
X6664404Y-37339285D01*
X6712023Y-37148809D01*
X6712023Y-37005952D01*
X6664404Y-36815476D01*
X6616785Y-36720238D01*
X6521547Y-36625000D01*
X6378690Y-36577380D01*
X6283452Y-36577380D01*
X6140595Y-36625000D01*
X6092976Y-36672619D01*
X5140595Y-37577380D02*
X5712023Y-37577380D01*
X5426309Y-37577380D02*
X5426309Y-36577380D01*
X5521547Y-36720238D01*
X5616785Y-36815476D01*
X5712023Y-36863095D01*
X4807261Y-36577380D02*
X4140595Y-36577380D01*
X4569166Y-37577380D01*
X5592976Y-62432142D02*
X5640595Y-62479761D01*
X5783452Y-62527380D01*
X5878690Y-62527380D01*
X6021547Y-62479761D01*
X6116785Y-62384523D01*
X6164404Y-62289285D01*
X6212023Y-62098809D01*
X6212023Y-61955952D01*
X6164404Y-61765476D01*
X6116785Y-61670238D01*
X6021547Y-61575000D01*
X5878690Y-61527380D01*
X5783452Y-61527380D01*
X5640595Y-61575000D01*
X5592976Y-61622619D01*
X4640595Y-62527380D02*
X5212023Y-62527380D01*
X4926309Y-62527380D02*
X4926309Y-61527380D01*
X5021547Y-61670238D01*
X5116785Y-61765476D01*
X5212023Y-61813095D01*
X5592976Y-64082142D02*
X5640595Y-64129761D01*
X5783452Y-64177380D01*
X5878690Y-64177380D01*
X6021547Y-64129761D01*
X6116785Y-64034523D01*
X6164404Y-63939285D01*
X6212023Y-63748809D01*
X6212023Y-63605952D01*
X6164404Y-63415476D01*
X6116785Y-63320238D01*
X6021547Y-63225000D01*
X5878690Y-63177380D01*
X5783452Y-63177380D01*
X5640595Y-63225000D01*
X5592976Y-63272619D01*
X4735833Y-63510714D02*
X4735833Y-64177380D01*
X4973928Y-63129761D02*
X5212023Y-63844047D01*
X4592976Y-63844047D01*
X5592976Y-65732142D02*
X5640595Y-65779761D01*
X5783452Y-65827380D01*
X5878690Y-65827380D01*
X6021547Y-65779761D01*
X6116785Y-65684523D01*
X6164404Y-65589285D01*
X6212023Y-65398809D01*
X6212023Y-65255952D01*
X6164404Y-65065476D01*
X6116785Y-64970238D01*
X6021547Y-64875000D01*
X5878690Y-64827380D01*
X5783452Y-64827380D01*
X5640595Y-64875000D01*
X5592976Y-64922619D01*
X5259642Y-64827380D02*
X4592976Y-64827380D01*
X5021547Y-65827380D01*
X5592976Y-67382142D02*
X5640595Y-67429761D01*
X5783452Y-67477380D01*
X5878690Y-67477380D01*
X6021547Y-67429761D01*
X6116785Y-67334523D01*
X6164404Y-67239285D01*
X6212023Y-67048809D01*
X6212023Y-66905952D01*
X6164404Y-66715476D01*
X6116785Y-66620238D01*
X6021547Y-66525000D01*
X5878690Y-66477380D01*
X5783452Y-66477380D01*
X5640595Y-66525000D01*
X5592976Y-66572619D01*
X4640595Y-67477380D02*
X5212023Y-67477380D01*
X4926309Y-67477380D02*
X4926309Y-66477380D01*
X5021547Y-66620238D01*
X5116785Y-66715476D01*
X5212023Y-66763095D01*
X4021547Y-66477380D02*
X3926309Y-66477380D01*
X3831071Y-66525000D01*
X3783452Y-66572619D01*
X3735833Y-66667857D01*
X3688214Y-66858333D01*
X3688214Y-67096428D01*
X3735833Y-67286904D01*
X3783452Y-67382142D01*
X3831071Y-67429761D01*
X3926309Y-67477380D01*
X4021547Y-67477380D01*
X4116785Y-67429761D01*
X4164404Y-67382142D01*
X4212023Y-67286904D01*
X4259642Y-67096428D01*
X4259642Y-66858333D01*
X4212023Y-66667857D01*
X4164404Y-66572619D01*
X4116785Y-66525000D01*
X4021547Y-66477380D01*
X5592976Y-69032142D02*
X5640595Y-69079761D01*
X5783452Y-69127380D01*
X5878690Y-69127380D01*
X6021547Y-69079761D01*
X6116785Y-68984523D01*
X6164404Y-68889285D01*
X6212023Y-68698809D01*
X6212023Y-68555952D01*
X6164404Y-68365476D01*
X6116785Y-68270238D01*
X6021547Y-68175000D01*
X5878690Y-68127380D01*
X5783452Y-68127380D01*
X5640595Y-68175000D01*
X5592976Y-68222619D01*
X4640595Y-69127380D02*
X5212023Y-69127380D01*
X4926309Y-69127380D02*
X4926309Y-68127380D01*
X5021547Y-68270238D01*
X5116785Y-68365476D01*
X5212023Y-68413095D01*
X4307261Y-68127380D02*
X3688214Y-68127380D01*
X4021547Y-68508333D01*
X3878690Y-68508333D01*
X3783452Y-68555952D01*
X3735833Y-68603571D01*
X3688214Y-68698809D01*
X3688214Y-68936904D01*
X3735833Y-69032142D01*
X3783452Y-69079761D01*
X3878690Y-69127380D01*
X4164404Y-69127380D01*
X4259642Y-69079761D01*
X4307261Y-69032142D01*
X5592976Y-70682142D02*
X5640595Y-70729761D01*
X5783452Y-70777380D01*
X5878690Y-70777380D01*
X6021547Y-70729761D01*
X6116785Y-70634523D01*
X6164404Y-70539285D01*
X6212023Y-70348809D01*
X6212023Y-70205952D01*
X6164404Y-70015476D01*
X6116785Y-69920238D01*
X6021547Y-69825000D01*
X5878690Y-69777380D01*
X5783452Y-69777380D01*
X5640595Y-69825000D01*
X5592976Y-69872619D01*
X4640595Y-70777380D02*
X5212023Y-70777380D01*
X4926309Y-70777380D02*
X4926309Y-69777380D01*
X5021547Y-69920238D01*
X5116785Y-70015476D01*
X5212023Y-70063095D01*
X3783452Y-69777380D02*
X3973928Y-69777380D01*
X4069166Y-69825000D01*
X4116785Y-69872619D01*
X4212023Y-70015476D01*
X4259642Y-70205952D01*
X4259642Y-70586904D01*
X4212023Y-70682142D01*
X4164404Y-70729761D01*
X4069166Y-70777380D01*
X3878690Y-70777380D01*
X3783452Y-70729761D01*
X3735833Y-70682142D01*
X3688214Y-70586904D01*
X3688214Y-70348809D01*
X3735833Y-70253571D01*
X3783452Y-70205952D01*
X3878690Y-70158333D01*
X4069166Y-70158333D01*
X4164404Y-70205952D01*
X4212023Y-70253571D01*
X4259642Y-70348809D01*
X25092976Y-81232142D02*
X25140595Y-81279761D01*
X25283452Y-81327380D01*
X25378690Y-81327380D01*
X25521547Y-81279761D01*
X25616785Y-81184523D01*
X25664404Y-81089285D01*
X25712023Y-80898809D01*
X25712023Y-80755952D01*
X25664404Y-80565476D01*
X25616785Y-80470238D01*
X25521547Y-80375000D01*
X25378690Y-80327380D01*
X25283452Y-80327380D01*
X25140595Y-80375000D01*
X25092976Y-80422619D01*
X24473928Y-80327380D02*
X24378690Y-80327380D01*
X24283452Y-80375000D01*
X24235833Y-80422619D01*
X24188214Y-80517857D01*
X24140595Y-80708333D01*
X24140595Y-80946428D01*
X24188214Y-81136904D01*
X24235833Y-81232142D01*
X24283452Y-81279761D01*
X24378690Y-81327380D01*
X24473928Y-81327380D01*
X24569166Y-81279761D01*
X24616785Y-81232142D01*
X24664404Y-81136904D01*
X24712023Y-80946428D01*
X24712023Y-80708333D01*
X24664404Y-80517857D01*
X24616785Y-80422619D01*
X24569166Y-80375000D01*
X24473928Y-80327380D01*
X25092976Y-82882142D02*
X25140595Y-82929761D01*
X25283452Y-82977380D01*
X25378690Y-82977380D01*
X25521547Y-82929761D01*
X25616785Y-82834523D01*
X25664404Y-82739285D01*
X25712023Y-82548809D01*
X25712023Y-82405952D01*
X25664404Y-82215476D01*
X25616785Y-82120238D01*
X25521547Y-82025000D01*
X25378690Y-81977380D01*
X25283452Y-81977380D01*
X25140595Y-82025000D01*
X25092976Y-82072619D01*
X24759642Y-81977380D02*
X24140595Y-81977380D01*
X24473928Y-82358333D01*
X24331071Y-82358333D01*
X24235833Y-82405952D01*
X24188214Y-82453571D01*
X24140595Y-82548809D01*
X24140595Y-82786904D01*
X24188214Y-82882142D01*
X24235833Y-82929761D01*
X24331071Y-82977380D01*
X24616785Y-82977380D01*
X24712023Y-82929761D01*
X24759642Y-82882142D01*
X25092976Y-84532142D02*
X25140595Y-84579761D01*
X25283452Y-84627380D01*
X25378690Y-84627380D01*
X25521547Y-84579761D01*
X25616785Y-84484523D01*
X25664404Y-84389285D01*
X25712023Y-84198809D01*
X25712023Y-84055952D01*
X25664404Y-83865476D01*
X25616785Y-83770238D01*
X25521547Y-83675000D01*
X25378690Y-83627380D01*
X25283452Y-83627380D01*
X25140595Y-83675000D01*
X25092976Y-83722619D01*
X24235833Y-83627380D02*
X24426309Y-83627380D01*
X24521547Y-83675000D01*
X24569166Y-83722619D01*
X24664404Y-83865476D01*
X24712023Y-84055952D01*
X24712023Y-84436904D01*
X24664404Y-84532142D01*
X24616785Y-84579761D01*
X24521547Y-84627380D01*
X24331071Y-84627380D01*
X24235833Y-84579761D01*
X24188214Y-84532142D01*
X24140595Y-84436904D01*
X24140595Y-84198809D01*
X24188214Y-84103571D01*
X24235833Y-84055952D01*
X24331071Y-84008333D01*
X24521547Y-84008333D01*
X24616785Y-84055952D01*
X24664404Y-84103571D01*
X24712023Y-84198809D01*
X25092976Y-86182142D02*
X25140595Y-86229761D01*
X25283452Y-86277380D01*
X25378690Y-86277380D01*
X25521547Y-86229761D01*
X25616785Y-86134523D01*
X25664404Y-86039285D01*
X25712023Y-85848809D01*
X25712023Y-85705952D01*
X25664404Y-85515476D01*
X25616785Y-85420238D01*
X25521547Y-85325000D01*
X25378690Y-85277380D01*
X25283452Y-85277380D01*
X25140595Y-85325000D01*
X25092976Y-85372619D01*
X24616785Y-86277380D02*
X24426309Y-86277380D01*
X24331071Y-86229761D01*
X24283452Y-86182142D01*
X24188214Y-86039285D01*
X24140595Y-85848809D01*
X24140595Y-85467857D01*
X24188214Y-85372619D01*
X24235833Y-85325000D01*
X24331071Y-85277380D01*
X24521547Y-85277380D01*
X24616785Y-85325000D01*
X24664404Y-85372619D01*
X24712023Y-85467857D01*
X24712023Y-85705952D01*
X24664404Y-85801190D01*
X24616785Y-85848809D01*
X24521547Y-85896428D01*
X24331071Y-85896428D01*
X24235833Y-85848809D01*
X24188214Y-85801190D01*
X24140595Y-85705952D01*
X25092976Y-87832142D02*
X25140595Y-87879761D01*
X25283452Y-87927380D01*
X25378690Y-87927380D01*
X25521547Y-87879761D01*
X25616785Y-87784523D01*
X25664404Y-87689285D01*
X25712023Y-87498809D01*
X25712023Y-87355952D01*
X25664404Y-87165476D01*
X25616785Y-87070238D01*
X25521547Y-86975000D01*
X25378690Y-86927380D01*
X25283452Y-86927380D01*
X25140595Y-86975000D01*
X25092976Y-87022619D01*
X24140595Y-87927380D02*
X24712023Y-87927380D01*
X24426309Y-87927380D02*
X24426309Y-86927380D01*
X24521547Y-87070238D01*
X24616785Y-87165476D01*
X24712023Y-87213095D01*
X23759642Y-87022619D02*
X23712023Y-86975000D01*
X23616785Y-86927380D01*
X23378690Y-86927380D01*
X23283452Y-86975000D01*
X23235833Y-87022619D01*
X23188214Y-87117857D01*
X23188214Y-87213095D01*
X23235833Y-87355952D01*
X23807261Y-87927380D01*
X23188214Y-87927380D01*
X25092976Y-89482142D02*
X25140595Y-89529761D01*
X25283452Y-89577380D01*
X25378690Y-89577380D01*
X25521547Y-89529761D01*
X25616785Y-89434523D01*
X25664404Y-89339285D01*
X25712023Y-89148809D01*
X25712023Y-89005952D01*
X25664404Y-88815476D01*
X25616785Y-88720238D01*
X25521547Y-88625000D01*
X25378690Y-88577380D01*
X25283452Y-88577380D01*
X25140595Y-88625000D01*
X25092976Y-88672619D01*
X24140595Y-89577380D02*
X24712023Y-89577380D01*
X24426309Y-89577380D02*
X24426309Y-88577380D01*
X24521547Y-88720238D01*
X24616785Y-88815476D01*
X24712023Y-88863095D01*
X23235833Y-88577380D02*
X23712023Y-88577380D01*
X23759642Y-89053571D01*
X23712023Y-89005952D01*
X23616785Y-88958333D01*
X23378690Y-88958333D01*
X23283452Y-89005952D01*
X23235833Y-89053571D01*
X23188214Y-89148809D01*
X23188214Y-89386904D01*
X23235833Y-89482142D01*
X23283452Y-89529761D01*
X23378690Y-89577380D01*
X23616785Y-89577380D01*
X23712023Y-89529761D01*
X23759642Y-89482142D01*
D12*
X46070000Y-10000000D02*
X46070000Y-8000000D01*
X43930000Y-8000000D02*
X43930000Y-10000000D01*
X99070000Y-35000000D02*
X99070000Y-33000000D01*
X96930000Y-33000000D02*
X96930000Y-35000000D01*
X14170000Y-13670000D02*
X16830000Y-13670000D01*
X14170000Y-13730000D02*
X14170000Y-13670000D01*
X16830000Y-13730000D02*
X16830000Y-13670000D01*
X14170000Y-13730000D02*
X16830000Y-13730000D01*
X14170000Y-15000000D02*
X14170000Y-16330000D01*
X14170000Y-16330000D02*
X15500000Y-16330000D01*
X8670000Y-30670000D02*
X11330000Y-30670000D01*
X8670000Y-30730000D02*
X8670000Y-30670000D01*
X11330000Y-30730000D02*
X11330000Y-30670000D01*
X8670000Y-30730000D02*
X11330000Y-30730000D01*
X8670000Y-32000000D02*
X8670000Y-33330000D01*
X8670000Y-33330000D02*
X10000000Y-33330000D01*
X8670000Y-64670000D02*
X11330000Y-64670000D01*
X8670000Y-64730000D02*
X8670000Y-64670000D01*
X11330000Y-64730000D02*
X11330000Y-64670000D01*
X8670000Y-64730000D02*
X11330000Y-64730000D01*
X8670000Y-66000000D02*
X8670000Y-67330000D01*
X8670000Y-67330000D02*
X10000000Y-67330000D01*
X23170000Y-90670000D02*
X25830000Y-90670000D01*
X23170000Y-90730000D02*
X23170000Y-90670000D01*
X25830000Y-90730000D02*
X25830000Y-90670000D01*
X23170000Y-90730000D02*
X25830000Y-90730000D01*
X23170000Y-92000000D02*
X23170000Y-93330000D01*
X23170000Y-93330000D02*
X24500000Y-93330000D01*
X6070000Y-10000000D02*
X6070000Y-8000000D01*
X3930000Y-8000000D02*
X3930000Y-10000000D01*
X6070000Y-48000000D02*
X6070000Y-46000000D01*
X3930000Y-46000000D02*
X3930000Y-48000000D01*
X16070000Y-81000000D02*
X16070000Y-79000000D01*
X13930000Y-79000000D02*
X13930000Y-81000000D01*
X16070000Y-9000000D02*
X16070000Y-7000000D01*
X13930000Y-7000000D02*
X13930000Y-9000000D01*
X21070000Y-35000000D02*
X21070000Y-33000000D01*
X18930000Y-33000000D02*
X18930000Y-35000000D01*
X21070000Y-68000000D02*
X21070000Y-66000000D01*
X18930000Y-66000000D02*
X18930000Y-68000000D01*
X26070000Y-10000000D02*
X26070000Y-8000000D01*
X23930000Y-8000000D02*
X23930000Y-10000000D01*
X26070000Y-48000000D02*
X26070000Y-46000000D01*
X23930000Y-46000000D02*
X23930000Y-48000000D01*
X36070000Y-81000000D02*
X36070000Y-79000000D01*
X33930000Y-79000000D02*
X33930000Y-81000000D01*
X36070000Y-9000000D02*
X36070000Y-7000000D01*
X33930000Y-7000000D02*
X33930000Y-9000000D01*
X41070000Y-35000000D02*
X41070000Y-33000000D01*
X38930000Y-33000000D02*
X38930000Y-35000000D01*
X41070000Y-68000000D02*
X41070000Y-66000000D01*
X38930000Y-66000000D02*
X38930000Y-68000000D01*
X46070000Y-48000000D02*
X46070000Y-46000000D01*
X43930000Y-46000000D02*
X43930000Y-48000000D01*
X56070000Y-81000000D02*
X56070000Y-79000000D01*
X53930000Y-79000000D02*
X53930000Y-81000000D01*
X56070000Y-9000000D02*
X56070000Y-7000000D01*
X53930000Y-7000000D02*
X53930000Y-9000000D01*
X61070000Y-35000000D02*
X61070000Y-33000000D01*
X58930000Y-33000000D02*
X58930000Y-35000000D01*
X61070000Y-68000000D02*
X61070000Y-66000000D01*
X58930000Y-66000000D02*
X58930000Y-68000000D01*
X66070000Y-10000000D02*
X66070000Y-8000000D01*
X63930000Y-8000000D02*
X63930000Y-10000000D01*
X66070000Y-48000000D02*
X66070000Y-46000000D01*
X63930000Y-46000000D02*
X63930000Y-48000000D01*
X76070000Y-81000000D02*
X76070000Y-79000000D01*
X73930000Y-79000000D02*
X73930000Y-81000000D01*
X76070000Y-9000000D02*
X76070000Y-7000000D01*
X73930000Y-7000000D02*
X73930000Y-9000000D01*
X81070000Y-35000000D02*
X81070000Y-33000000D01*
X78930000Y-33000000D02*
X78930000Y-35000000D01*
X81070000Y-68000000D02*
X81070000Y-66000000D01*
X78930000Y-66000000D02*
X78930000Y-68000000D01*
X86070000Y-10000000D02*
X86070000Y-8000000D01*
X83930000Y-8000000D02*
X83930000Y-10000000D01*
X86070000Y-48000000D02*
X86070000Y-46000000D01*
X83930000Y-46000000D02*
X83930000Y-48000000D01*
X96070000Y-81000000D02*
X96070000Y-79000000D01*
X93930000Y-79000000D02*
X93930000Y-81000000D01*
X96070000Y-9000000D02*
X96070000Y-7000000D01*
X93930000Y-7000000D02*
X93930000Y-9000000D01*
X99070000Y-68000000D02*
X99070000Y-66000000D01*
X96930000Y-66000000D02*
X96930000Y-68000000D01*
M02*
