G04 #@! TF.GenerationSoftware,KiCad,Pcbnew,5.1.0-unknown-c054944~86~ubuntu19.04.1*
G04 #@! TF.CreationDate,2019-05-13T16:05:13-04:00*
G04 #@! TF.ProjectId,pack,7061636b-2e6b-4696-9361-645f70636258,rev?*
G04 #@! TF.SameCoordinates,Original*
G04 #@! TF.FileFunction,Copper,L2,Bot*
G04 #@! TF.FilePolarity,Positive*
%FSLAX46Y46*%
G04 Gerber Fmt 4.6, Leading zero omitted, Abs format (unit mm)*
G04 Created by KiCad (PCBNEW 5.1.0-unknown-c054944~86~ubuntu19.04.1) date 2019-05-13 16:05:13*
%MOMM*%
%LPD*%
G04 APERTURE LIST*
%ADD10R,2.000000X2.600000*%
%ADD11O,2.000000X2.600000*%
%ADD12R,1.700000X1.700000*%
%ADD13O,1.700000X1.700000*%
%ADD14C,6.000000*%
%ADD15C,0.800000*%
%ADD16C,0.250000*%
%ADD17C,0.254000*%
G04 APERTURE END LIST*
D10*
X157500000Y-182500000D03*
D11*
X154960000Y-182500000D03*
X152420000Y-182500000D03*
X149880000Y-182500000D03*
X147340000Y-182500000D03*
X144800000Y-182500000D03*
X142260000Y-182500000D03*
X139720000Y-182500000D03*
X137180000Y-182500000D03*
X134640000Y-182500000D03*
X132100000Y-182500000D03*
X129560000Y-182500000D03*
X127020000Y-182500000D03*
D12*
X102000000Y-188000000D03*
D13*
X104540000Y-188000000D03*
X107080000Y-188000000D03*
X109620000Y-188000000D03*
D14*
X244500000Y-61077000D03*
X244500000Y-95718000D03*
X244500000Y-130359000D03*
X244500000Y-165000000D03*
X244500000Y-26436000D03*
X5500000Y-113048000D03*
X5500000Y-78407000D03*
X5500000Y-43766000D03*
X5500000Y-9125000D03*
X5500000Y-147689000D03*
D10*
X84100000Y-188000000D03*
D11*
X86640000Y-188000000D03*
X89180000Y-188000000D03*
X91720000Y-188000000D03*
D12*
X127000000Y-188000000D03*
D13*
X129540000Y-188000000D03*
X132080000Y-188000000D03*
X134620000Y-188000000D03*
X137160000Y-188000000D03*
X139700000Y-188000000D03*
X142240000Y-188000000D03*
X144780000Y-188000000D03*
X147320000Y-188000000D03*
X149860000Y-188000000D03*
X152400000Y-188000000D03*
X154940000Y-188000000D03*
X157480000Y-188000000D03*
D15*
X106908000Y-178586000D03*
X107924000Y-178586000D03*
X123328000Y-180086000D03*
X123328000Y-181610000D03*
X123328000Y-183388000D03*
X123328000Y-184912000D03*
X123328000Y-186436000D03*
X123328000Y-188214000D03*
X123328000Y-189738000D03*
X123410400Y-178479600D03*
X25800000Y-141400000D03*
X83996279Y-174721599D03*
X55270400Y-123667600D03*
X102934194Y-173100000D03*
X96100000Y-173100000D03*
X85775800Y-106866000D03*
X104300000Y-173100000D03*
X116442080Y-172975065D03*
X118350000Y-88800000D03*
X145542000Y-71943000D03*
X117408032Y-173233830D03*
X227134000Y-20197000D03*
X116079600Y-189679600D03*
X207772000Y-37207000D03*
X116079600Y-188079600D03*
X177292000Y-54117000D03*
X116079600Y-186479600D03*
X148336000Y-71943000D03*
X116079600Y-184879600D03*
X116120402Y-183279600D03*
X115775000Y-89125000D03*
X88595200Y-106840600D03*
X116120400Y-181679600D03*
X56540400Y-123794600D03*
X116079600Y-180079600D03*
X28400000Y-141800000D03*
X115974946Y-178479600D03*
X103352000Y-178586000D03*
X104876000Y-178585996D03*
X174498000Y-54117000D03*
X119301375Y-173675058D03*
X205486000Y-37207000D03*
X119400000Y-175800000D03*
X224340000Y-19943000D03*
X122273651Y-175549989D03*
D16*
X76500000Y-161636410D02*
X76500000Y-167225320D01*
X71663590Y-156800000D02*
X76500000Y-161636410D01*
X25800000Y-152100000D02*
X30500000Y-156800000D01*
X30500000Y-156800000D02*
X71663590Y-156800000D01*
X83596280Y-174321600D02*
X83996279Y-174721599D01*
X25800000Y-141400000D02*
X25800000Y-152100000D01*
X76500000Y-167225320D02*
X83596280Y-174321600D01*
X55270400Y-134773811D02*
X55270400Y-124942600D01*
X84243201Y-140835811D02*
X61332400Y-140835811D01*
X96088200Y-173088200D02*
X96088200Y-162409010D01*
X96088200Y-162409010D02*
X88043589Y-154364400D01*
X96100000Y-173100000D02*
X96088200Y-173088200D01*
X55270400Y-124942600D02*
X55270400Y-123667600D01*
X88043589Y-154364400D02*
X88043589Y-144636199D01*
X61332400Y-140835811D02*
X55270400Y-134773811D01*
X88043589Y-144636199D02*
X84243201Y-140835811D01*
X85775800Y-118516400D02*
X85775800Y-108966000D01*
X95732600Y-128473200D02*
X85775800Y-118516400D01*
X95732600Y-134747000D02*
X95732600Y-128473200D01*
X105660167Y-144674567D02*
X95732600Y-134747000D01*
X99900000Y-171300000D02*
X97000000Y-168400000D01*
X97000000Y-168400000D02*
X97000000Y-160276600D01*
X97000000Y-160276600D02*
X105660167Y-151616433D01*
X105660167Y-151616433D02*
X105660167Y-144674567D01*
X102500000Y-171300000D02*
X104300000Y-173100000D01*
X99900000Y-171300000D02*
X102500000Y-171300000D01*
X85775800Y-108966000D02*
X85775800Y-106866000D01*
X107010200Y-150949379D02*
X107010200Y-144527411D01*
X116324811Y-127067600D02*
X106781601Y-117524391D01*
X107010200Y-144527411D02*
X116324811Y-135212800D01*
X118350000Y-96584800D02*
X118350000Y-89365685D01*
X106781601Y-117524391D02*
X106781601Y-108153199D01*
X106781601Y-108153199D02*
X118350000Y-96584800D01*
X116442080Y-160381259D02*
X107010200Y-150949379D01*
X116442080Y-172975065D02*
X116442080Y-160381259D01*
X118350000Y-89365685D02*
X118350000Y-88800000D01*
X116324811Y-135212800D02*
X116324811Y-127067600D01*
X145542000Y-74168000D02*
X145542000Y-71943000D01*
X126803989Y-143452010D02*
X137414000Y-132842000D01*
X117408032Y-160721968D02*
X126803989Y-151326011D01*
X126803989Y-151326011D02*
X126803989Y-143452010D01*
X117408032Y-173233830D02*
X117408032Y-160721968D01*
X137414000Y-125476000D02*
X146869989Y-116020011D01*
X137414000Y-132842000D02*
X137414000Y-125476000D01*
X146869989Y-109277989D02*
X136709989Y-99117989D01*
X136709989Y-92777600D02*
X145542000Y-83945589D01*
X146869989Y-116020011D02*
X146869989Y-109277989D01*
X136709989Y-99117989D02*
X136709989Y-92777600D01*
X145542000Y-83945589D02*
X145542000Y-74168000D01*
X220100000Y-20975000D02*
X226356000Y-20975000D01*
X197046011Y-133536400D02*
X197046011Y-125916399D01*
X197046011Y-125916399D02*
X206698011Y-116264400D01*
X177546000Y-161290000D02*
X186886011Y-151949990D01*
X216916000Y-91568410D02*
X226764011Y-81720400D01*
X226356000Y-20975000D02*
X227134000Y-20197000D01*
X226764011Y-73094011D02*
X217678000Y-64008000D01*
X116079600Y-189679600D02*
X119500000Y-186259200D01*
X119500000Y-186259200D02*
X119500000Y-179396642D01*
X186886011Y-143696399D02*
X197046011Y-133536400D01*
X177546000Y-167514411D02*
X177546000Y-161290000D01*
X217678000Y-32129590D02*
X217678000Y-23397000D01*
X119500000Y-179396642D02*
X123396642Y-175500000D01*
X169560411Y-175500000D02*
X177546000Y-167514411D01*
X123396642Y-175500000D02*
X169560411Y-175500000D01*
X206698011Y-116264400D02*
X206698011Y-109152399D01*
X206698011Y-109152399D02*
X216916000Y-98934410D01*
X216916000Y-98934410D02*
X216916000Y-91568410D01*
X226764011Y-81720400D02*
X226764011Y-73094011D01*
X226510010Y-48446401D02*
X226510010Y-40961599D01*
X217678000Y-64008000D02*
X217678000Y-57278411D01*
X186886011Y-151949990D02*
X186886011Y-143696399D01*
X226510010Y-40961599D02*
X217678000Y-32129590D01*
X217678000Y-57278411D02*
X226510010Y-48446401D01*
X217678000Y-23397000D02*
X220100000Y-20975000D01*
X207772000Y-48131589D02*
X207772000Y-40132000D01*
X206952011Y-82228400D02*
X206952011Y-73971989D01*
X207772000Y-40132000D02*
X207772000Y-37207000D01*
X196850000Y-92330410D02*
X206952011Y-82228400D01*
X186886011Y-109277989D02*
X196850000Y-99314000D01*
X186886011Y-116264400D02*
X186886011Y-109277989D01*
X206952011Y-73971989D02*
X216777978Y-64146022D01*
X150140432Y-174599978D02*
X156972000Y-167768410D01*
X166878000Y-151512410D02*
X166878000Y-144146411D01*
X196850000Y-99314000D02*
X196850000Y-92330410D01*
X119033056Y-177466944D02*
X121900022Y-174599978D01*
X116079600Y-188079600D02*
X119033056Y-185126144D01*
X216777978Y-57137567D02*
X207772000Y-48131589D01*
X176980011Y-126170399D02*
X186886011Y-116264400D01*
X119033056Y-185126144D02*
X119033056Y-177466944D01*
X156972000Y-167768410D02*
X156972000Y-161418410D01*
X121900022Y-174599978D02*
X150140432Y-174599978D01*
X156972000Y-161418410D02*
X166878000Y-151512410D01*
X166878000Y-144146411D02*
X176980011Y-134044400D01*
X216777978Y-64146022D02*
X216777978Y-57137567D01*
X176980011Y-134044400D02*
X176980011Y-126170399D01*
X177292000Y-56642000D02*
X177292000Y-54117000D01*
X177292000Y-63882410D02*
X177292000Y-56642000D01*
X166820011Y-74354399D02*
X177292000Y-63882410D01*
X166820011Y-82363601D02*
X166820011Y-74354399D01*
X176726011Y-98992400D02*
X176726011Y-92269600D01*
X167132000Y-108586411D02*
X176726011Y-98992400D01*
X167132000Y-116206410D02*
X167132000Y-108586411D01*
X120427040Y-173699956D02*
X131990455Y-173699956D01*
X136594011Y-160968399D02*
X146754011Y-150808400D01*
X118583045Y-175543951D02*
X120427040Y-173699956D01*
X176726011Y-92269600D02*
X166820011Y-82363601D01*
X116079600Y-186479600D02*
X118583045Y-183976155D01*
X118583045Y-183976155D02*
X118583045Y-175543951D01*
X155898011Y-133536400D02*
X155898011Y-127440399D01*
X131990455Y-173699956D02*
X136594011Y-169096400D01*
X146754011Y-150808400D02*
X146754011Y-142680399D01*
X136594011Y-169096400D02*
X136594011Y-160968399D01*
X146754011Y-142680399D02*
X155898011Y-133536400D01*
X155898011Y-127440399D02*
X167132000Y-116206410D01*
X137160000Y-92964000D02*
X148336000Y-81788000D01*
X137160000Y-98931589D02*
X137160000Y-92964000D01*
X118100000Y-160792000D02*
X127254000Y-151638000D01*
X118100000Y-172852794D02*
X118100000Y-160792000D01*
X137922000Y-132970410D02*
X137922000Y-125730000D01*
X147320000Y-116332000D02*
X147320000Y-109091589D01*
X116079600Y-184879600D02*
X118133034Y-182826166D01*
X148336000Y-81788000D02*
X148336000Y-74168000D01*
X137922000Y-125730000D02*
X147320000Y-116332000D01*
X118133034Y-182826166D02*
X118133034Y-172885828D01*
X148336000Y-74168000D02*
X148336000Y-71943000D01*
X118133034Y-172885828D02*
X118100000Y-172852794D01*
X127254000Y-151638000D02*
X127254000Y-143638410D01*
X127254000Y-143638410D02*
X137922000Y-132970410D01*
X147320000Y-109091589D02*
X137160000Y-98931589D01*
X115646199Y-174196021D02*
X115627989Y-174214231D01*
X115646199Y-160274000D02*
X115646199Y-174196021D01*
X116520401Y-182879601D02*
X116120402Y-183279600D01*
X117599978Y-176424889D02*
X117599978Y-181800024D01*
X115646199Y-174196021D02*
X115646199Y-174471110D01*
X117599978Y-181800024D02*
X116520401Y-182879601D01*
X115646199Y-174471110D02*
X117599978Y-176424889D01*
X115874800Y-127254000D02*
X106331590Y-117710791D01*
X115775000Y-98397800D02*
X115775000Y-89690685D01*
X106331590Y-117710791D02*
X106331590Y-107841210D01*
X106560189Y-144341011D02*
X115874800Y-135026400D01*
X106331590Y-107841210D02*
X115775000Y-98397800D01*
X115874800Y-135026400D02*
X115874800Y-127254000D01*
X115775000Y-89690685D02*
X115775000Y-89125000D01*
X106560189Y-151135779D02*
X106560189Y-144341011D01*
X115646200Y-160221789D02*
X106560189Y-151135779D01*
X115196188Y-160408189D02*
X115196188Y-174009621D01*
X115196188Y-174009621D02*
X115177978Y-174027831D01*
X96182611Y-128008811D02*
X96182611Y-134409611D01*
X96182611Y-134409611D02*
X106110178Y-144337178D01*
X88595200Y-120421400D02*
X96182611Y-128008811D01*
X106110178Y-144337178D02*
X106110178Y-151322179D01*
X88595200Y-108940600D02*
X88595200Y-120421400D01*
X106110178Y-151322179D02*
X115196188Y-160408189D01*
X115177980Y-174777980D02*
X117149967Y-176749967D01*
X115177980Y-174027830D02*
X115177980Y-174777980D01*
X117149967Y-180650033D02*
X116520399Y-181279601D01*
X115196188Y-174009621D02*
X115177980Y-174027830D01*
X117149967Y-176749967D02*
X117149967Y-180650033D01*
X116520399Y-181279601D02*
X116120400Y-181679600D01*
X88595200Y-108940600D02*
X88595200Y-106840600D01*
X56540400Y-125069600D02*
X56540400Y-123794600D01*
X56540400Y-135407400D02*
X56540400Y-125069600D01*
X99700000Y-175300000D02*
X96549989Y-172149989D01*
X61518800Y-140385800D02*
X56540400Y-135407400D01*
X88493600Y-144449800D02*
X84429600Y-140385800D01*
X116079600Y-180079600D02*
X116699956Y-179459244D01*
X116699956Y-176963545D02*
X115036411Y-175300000D01*
X115036411Y-175300000D02*
X99700000Y-175300000D01*
X116699956Y-179459244D02*
X116699956Y-176963545D01*
X88493600Y-154178000D02*
X88493600Y-144449800D01*
X96549989Y-162234389D02*
X88493600Y-154178000D01*
X96549989Y-172149989D02*
X96549989Y-162234389D01*
X84429600Y-140385800D02*
X61518800Y-140385800D01*
X50000000Y-156300000D02*
X49836410Y-156300000D01*
X27550011Y-152950011D02*
X30900000Y-156300000D01*
X28400000Y-141800000D02*
X27550011Y-142649989D01*
X30900000Y-156300000D02*
X50000000Y-156300000D01*
X27550011Y-142649989D02*
X27550011Y-152950011D01*
X116000000Y-178454546D02*
X115974946Y-178479600D01*
X116000000Y-176900000D02*
X116000000Y-178454546D01*
X115200000Y-176100000D02*
X116000000Y-176900000D01*
X71800000Y-156300000D02*
X77000000Y-161500000D01*
X50000000Y-156300000D02*
X71800000Y-156300000D01*
X86400000Y-176100000D02*
X115200000Y-176100000D01*
X77000000Y-161500000D02*
X77000000Y-166700000D01*
X77000000Y-166700000D02*
X86400000Y-176100000D01*
X104540000Y-179774000D02*
X103352000Y-178586000D01*
X104540000Y-188000000D02*
X104540000Y-179774000D01*
X86640000Y-189712000D02*
X86614000Y-189738000D01*
X104540000Y-189960000D02*
X104540000Y-188000000D01*
X103000000Y-191500000D02*
X104540000Y-189960000D01*
X86640000Y-188100000D02*
X86640000Y-189712000D01*
X86614000Y-190714000D02*
X87400000Y-191500000D01*
X86614000Y-189738000D02*
X86614000Y-190714000D01*
X87400000Y-191500000D02*
X103000000Y-191500000D01*
X105492000Y-179201996D02*
X104876000Y-178585996D01*
X107080000Y-180789996D02*
X105492000Y-179201996D01*
X107080000Y-188000000D02*
X107080000Y-180789996D01*
X174897999Y-57041999D02*
X174498000Y-56642000D01*
X166370000Y-74167999D02*
X174897999Y-65640000D01*
X174498000Y-56642000D02*
X174498000Y-54117000D01*
X136144000Y-168910000D02*
X136144000Y-160781999D01*
X136144000Y-160781999D02*
X146304000Y-150622000D01*
X119726488Y-173249945D02*
X131804055Y-173249945D01*
X131804055Y-173249945D02*
X136144000Y-168910000D01*
X155448000Y-133350000D02*
X155448000Y-127253999D01*
X174897999Y-65640000D02*
X174897999Y-57041999D01*
X146304000Y-150622000D02*
X146304000Y-142493999D01*
X166370000Y-82550001D02*
X166370000Y-74167999D01*
X176276000Y-98806000D02*
X176276000Y-92456000D01*
X146304000Y-142493999D02*
X155448000Y-133350000D01*
X119301375Y-173675058D02*
X119726488Y-173249945D01*
X155448000Y-127253999D02*
X166681989Y-116020010D01*
X166681989Y-116020010D02*
X166681989Y-108400011D01*
X176276000Y-92456000D02*
X166370000Y-82550001D01*
X166681989Y-108400011D02*
X176276000Y-98806000D01*
X205486000Y-46482000D02*
X205486000Y-40132000D01*
X216327967Y-57323967D02*
X205486000Y-46482000D01*
X216327967Y-63834033D02*
X216327967Y-57323967D01*
X206502000Y-73660000D02*
X216327967Y-63834033D01*
X206502000Y-82042000D02*
X206502000Y-73660000D01*
X196399989Y-99127600D02*
X196399989Y-92144010D01*
X186436000Y-109091589D02*
X196399989Y-99127600D01*
X149954033Y-174149967D02*
X156464000Y-167640000D01*
X196399989Y-92144010D02*
X206502000Y-82042000D01*
X156464000Y-167640000D02*
X156464000Y-161290000D01*
X156464000Y-161290000D02*
X166370000Y-151384000D01*
X119400000Y-175800000D02*
X121050033Y-174149967D01*
X186436000Y-116078000D02*
X186436000Y-109091589D01*
X166370000Y-151384000D02*
X166370000Y-144018000D01*
X176530000Y-125983999D02*
X186436000Y-116078000D01*
X166370000Y-144018000D02*
X176530000Y-133858000D01*
X205486000Y-40132000D02*
X205486000Y-37207000D01*
X121050033Y-174149967D02*
X149954033Y-174149967D01*
X176530000Y-133858000D02*
X176530000Y-125983999D01*
X217170000Y-22155000D02*
X219382000Y-19943000D01*
X226059999Y-48260001D02*
X226059999Y-41147999D01*
X217170000Y-32258000D02*
X217170000Y-22155000D01*
X217227989Y-64194400D02*
X217227989Y-57092011D01*
X226314000Y-73280411D02*
X217227989Y-64194400D01*
X216408000Y-91440000D02*
X226314000Y-81534000D01*
X217227989Y-57092011D02*
X226059999Y-48260001D01*
X216408000Y-98806000D02*
X216408000Y-91440000D01*
X122273651Y-175549989D02*
X122773651Y-175049989D01*
X196596000Y-133350000D02*
X196596000Y-125729999D01*
X219382000Y-19943000D02*
X224340000Y-19943000D01*
X177038000Y-167386000D02*
X177038000Y-161161590D01*
X226059999Y-41147999D02*
X217170000Y-32258000D01*
X186436000Y-151763590D02*
X186436000Y-143509999D01*
X177038000Y-161161590D02*
X186436000Y-151763590D01*
X169374011Y-175049989D02*
X177038000Y-167386000D01*
X122773651Y-175049989D02*
X169374011Y-175049989D01*
X186436000Y-143509999D02*
X196596000Y-133350000D01*
X206248000Y-116078000D02*
X206248000Y-108965999D01*
X206248000Y-108965999D02*
X216408000Y-98806000D01*
X226314000Y-81534000D02*
X226314000Y-73280411D01*
X196596000Y-125729999D02*
X206248000Y-116078000D01*
D17*
G36*
X82969279Y-174758088D02*
G01*
X82969279Y-174822750D01*
X83008746Y-175021164D01*
X83086164Y-175208066D01*
X83198556Y-175376273D01*
X83341605Y-175519322D01*
X83509812Y-175631714D01*
X83696714Y-175709132D01*
X83895128Y-175748599D01*
X84097430Y-175748599D01*
X84295844Y-175709132D01*
X84482746Y-175631714D01*
X84650953Y-175519322D01*
X84703393Y-175466882D01*
X85842136Y-176605625D01*
X85865683Y-176634317D01*
X85894374Y-176657863D01*
X85980189Y-176728290D01*
X86020745Y-176749967D01*
X86110830Y-176798118D01*
X86252582Y-176841119D01*
X86363062Y-176852000D01*
X86363064Y-176852000D01*
X86399999Y-176855638D01*
X86436935Y-176852000D01*
X114888512Y-176852000D01*
X115248000Y-177211489D01*
X115248001Y-177754148D01*
X115177223Y-177824926D01*
X115064831Y-177993133D01*
X114987413Y-178180035D01*
X114947946Y-178378449D01*
X114947946Y-178580751D01*
X114987413Y-178779165D01*
X115064831Y-178966067D01*
X115177223Y-179134274D01*
X115320272Y-179277323D01*
X115385737Y-179321066D01*
X115281877Y-179424926D01*
X115169485Y-179593133D01*
X115092067Y-179780035D01*
X115052600Y-179978449D01*
X115052600Y-180180751D01*
X115092067Y-180379165D01*
X115169485Y-180566067D01*
X115281877Y-180734274D01*
X115424926Y-180877323D01*
X115452114Y-180895489D01*
X115322677Y-181024926D01*
X115210285Y-181193133D01*
X115132867Y-181380035D01*
X115093400Y-181578449D01*
X115093400Y-181780751D01*
X115132867Y-181979165D01*
X115210285Y-182166067D01*
X115322677Y-182334274D01*
X115465726Y-182477323D01*
X115469135Y-182479601D01*
X115465728Y-182481877D01*
X115322679Y-182624926D01*
X115210287Y-182793133D01*
X115132869Y-182980035D01*
X115093402Y-183178449D01*
X115093402Y-183380751D01*
X115132869Y-183579165D01*
X115210287Y-183766067D01*
X115322679Y-183934274D01*
X115452115Y-184063710D01*
X115424926Y-184081877D01*
X115281877Y-184224926D01*
X115169485Y-184393133D01*
X115092067Y-184580035D01*
X115052600Y-184778449D01*
X115052600Y-184980751D01*
X115092067Y-185179165D01*
X115169485Y-185366067D01*
X115281877Y-185534274D01*
X115424926Y-185677323D01*
X115428334Y-185679600D01*
X115424926Y-185681877D01*
X115281877Y-185824926D01*
X115169485Y-185993133D01*
X115092067Y-186180035D01*
X115052600Y-186378449D01*
X115052600Y-186580751D01*
X115092067Y-186779165D01*
X115169485Y-186966067D01*
X115281877Y-187134274D01*
X115424926Y-187277323D01*
X115428334Y-187279600D01*
X115424926Y-187281877D01*
X115281877Y-187424926D01*
X115169485Y-187593133D01*
X115092067Y-187780035D01*
X115052600Y-187978449D01*
X115052600Y-188180751D01*
X115092067Y-188379165D01*
X115169485Y-188566067D01*
X115281877Y-188734274D01*
X115424926Y-188877323D01*
X115428334Y-188879600D01*
X115424926Y-188881877D01*
X115281877Y-189024926D01*
X115169485Y-189193133D01*
X115092067Y-189380035D01*
X115052600Y-189578449D01*
X115052600Y-189780751D01*
X115092067Y-189979165D01*
X115169485Y-190166067D01*
X115281877Y-190334274D01*
X115424926Y-190477323D01*
X115593133Y-190589715D01*
X115780035Y-190667133D01*
X115978449Y-190706600D01*
X116180751Y-190706600D01*
X116379165Y-190667133D01*
X116566067Y-190589715D01*
X116734274Y-190477323D01*
X116877323Y-190334274D01*
X116989715Y-190166067D01*
X117067133Y-189979165D01*
X117106600Y-189780751D01*
X117106600Y-189716088D01*
X120005627Y-186817062D01*
X120034317Y-186793517D01*
X120107372Y-186704499D01*
X120128290Y-186679011D01*
X120180810Y-186580751D01*
X120198118Y-186548370D01*
X120241119Y-186406618D01*
X120252000Y-186296138D01*
X120252000Y-186296136D01*
X120255638Y-186259201D01*
X120252000Y-186222265D01*
X120252000Y-179708130D01*
X123571000Y-176389131D01*
X123571000Y-191373000D01*
X104190488Y-191373000D01*
X105045627Y-190517862D01*
X105074317Y-190494317D01*
X105168290Y-190379810D01*
X105238118Y-190249170D01*
X105281119Y-190107418D01*
X105292000Y-189996938D01*
X105292000Y-189996936D01*
X105295638Y-189960000D01*
X105292000Y-189923065D01*
X105292000Y-189272799D01*
X105364547Y-189234022D01*
X105589450Y-189049450D01*
X105774022Y-188824547D01*
X105810000Y-188757237D01*
X105845978Y-188824547D01*
X106030550Y-189049450D01*
X106255453Y-189234022D01*
X106512042Y-189371172D01*
X106790457Y-189455629D01*
X107007444Y-189477000D01*
X107152556Y-189477000D01*
X107369543Y-189455629D01*
X107647958Y-189371172D01*
X107904547Y-189234022D01*
X108129450Y-189049450D01*
X108314022Y-188824547D01*
X108350420Y-188756451D01*
X108424822Y-188881355D01*
X108619731Y-189097588D01*
X108853080Y-189271641D01*
X109115901Y-189396825D01*
X109263110Y-189441476D01*
X109493000Y-189320155D01*
X109493000Y-188127000D01*
X109747000Y-188127000D01*
X109747000Y-189320155D01*
X109976890Y-189441476D01*
X110124099Y-189396825D01*
X110386920Y-189271641D01*
X110620269Y-189097588D01*
X110815178Y-188881355D01*
X110964157Y-188631252D01*
X111061481Y-188356891D01*
X110940814Y-188127000D01*
X109747000Y-188127000D01*
X109493000Y-188127000D01*
X109473000Y-188127000D01*
X109473000Y-187873000D01*
X109493000Y-187873000D01*
X109493000Y-186679845D01*
X109747000Y-186679845D01*
X109747000Y-187873000D01*
X110940814Y-187873000D01*
X111061481Y-187643109D01*
X110964157Y-187368748D01*
X110815178Y-187118645D01*
X110620269Y-186902412D01*
X110386920Y-186728359D01*
X110124099Y-186603175D01*
X109976890Y-186558524D01*
X109747000Y-186679845D01*
X109493000Y-186679845D01*
X109263110Y-186558524D01*
X109115901Y-186603175D01*
X108853080Y-186728359D01*
X108619731Y-186902412D01*
X108424822Y-187118645D01*
X108350420Y-187243549D01*
X108314022Y-187175453D01*
X108129450Y-186950550D01*
X107904547Y-186765978D01*
X107832000Y-186727201D01*
X107832000Y-180826931D01*
X107835638Y-180789995D01*
X107827551Y-180707890D01*
X107821119Y-180642578D01*
X107778118Y-180500826D01*
X107725450Y-180402290D01*
X107708290Y-180370185D01*
X107637863Y-180284370D01*
X107614317Y-180255679D01*
X107585626Y-180232133D01*
X105997625Y-178644133D01*
X105903000Y-178549508D01*
X105903000Y-178484845D01*
X105863533Y-178286431D01*
X105786115Y-178099529D01*
X105673723Y-177931322D01*
X105530674Y-177788273D01*
X105362467Y-177675881D01*
X105175565Y-177598463D01*
X104977151Y-177558996D01*
X104774849Y-177558996D01*
X104576435Y-177598463D01*
X104389533Y-177675881D01*
X104221326Y-177788273D01*
X104113998Y-177895601D01*
X104006674Y-177788277D01*
X103838467Y-177675885D01*
X103651565Y-177598467D01*
X103453151Y-177559000D01*
X103250849Y-177559000D01*
X103052435Y-177598467D01*
X102865533Y-177675885D01*
X102697326Y-177788277D01*
X102554277Y-177931326D01*
X102441885Y-178099533D01*
X102364467Y-178286435D01*
X102325000Y-178484849D01*
X102325000Y-178687151D01*
X102364467Y-178885565D01*
X102441885Y-179072467D01*
X102554277Y-179240674D01*
X102697326Y-179383723D01*
X102865533Y-179496115D01*
X103052435Y-179573533D01*
X103250849Y-179613000D01*
X103315512Y-179613000D01*
X103788001Y-180085489D01*
X103788000Y-186727201D01*
X103715453Y-186765978D01*
X103490550Y-186950550D01*
X103457081Y-186991332D01*
X103432075Y-186908897D01*
X103373853Y-186799972D01*
X103295501Y-186704499D01*
X103200028Y-186626147D01*
X103091103Y-186567925D01*
X102972913Y-186532073D01*
X102850000Y-186519967D01*
X101150000Y-186519967D01*
X101027087Y-186532073D01*
X100908897Y-186567925D01*
X100799972Y-186626147D01*
X100704499Y-186704499D01*
X100626147Y-186799972D01*
X100567925Y-186908897D01*
X100532073Y-187027087D01*
X100519967Y-187150000D01*
X100519967Y-188850000D01*
X100532073Y-188972913D01*
X100567925Y-189091103D01*
X100626147Y-189200028D01*
X100704499Y-189295501D01*
X100799972Y-189373853D01*
X100908897Y-189432075D01*
X101027087Y-189467927D01*
X101150000Y-189480033D01*
X102850000Y-189480033D01*
X102972913Y-189467927D01*
X103091103Y-189432075D01*
X103200028Y-189373853D01*
X103295501Y-189295501D01*
X103373853Y-189200028D01*
X103432075Y-189091103D01*
X103457081Y-189008668D01*
X103490550Y-189049450D01*
X103715453Y-189234022D01*
X103788000Y-189272799D01*
X103788000Y-189648511D01*
X102688512Y-190748000D01*
X87711489Y-190748000D01*
X87366000Y-190402512D01*
X87366000Y-189909258D01*
X87381119Y-189859418D01*
X87392000Y-189748938D01*
X87392000Y-189748935D01*
X87392629Y-189742547D01*
X87548286Y-189659346D01*
X87796029Y-189456029D01*
X87910000Y-189317155D01*
X88023971Y-189456029D01*
X88271715Y-189659346D01*
X88554363Y-189810425D01*
X88861053Y-189903458D01*
X89180000Y-189934872D01*
X89498948Y-189903458D01*
X89805638Y-189810425D01*
X90088286Y-189659346D01*
X90336029Y-189456029D01*
X90442705Y-189326043D01*
X90653683Y-189545922D01*
X90917239Y-189730010D01*
X91211645Y-189859144D01*
X91339566Y-189890124D01*
X91593000Y-189770777D01*
X91593000Y-188127000D01*
X91847000Y-188127000D01*
X91847000Y-189770777D01*
X92100434Y-189890124D01*
X92228355Y-189859144D01*
X92522761Y-189730010D01*
X92786317Y-189545922D01*
X93008895Y-189313954D01*
X93181942Y-189043020D01*
X93298807Y-188743532D01*
X93355000Y-188427000D01*
X93355000Y-188127000D01*
X91847000Y-188127000D01*
X91593000Y-188127000D01*
X91573000Y-188127000D01*
X91573000Y-187873000D01*
X91593000Y-187873000D01*
X91593000Y-186229223D01*
X91847000Y-186229223D01*
X91847000Y-187873000D01*
X93355000Y-187873000D01*
X93355000Y-187573000D01*
X93298807Y-187256468D01*
X93181942Y-186956980D01*
X93008895Y-186686046D01*
X92786317Y-186454078D01*
X92522761Y-186269990D01*
X92228355Y-186140856D01*
X92100434Y-186109876D01*
X91847000Y-186229223D01*
X91593000Y-186229223D01*
X91339566Y-186109876D01*
X91211645Y-186140856D01*
X90917239Y-186269990D01*
X90653683Y-186454078D01*
X90442705Y-186673957D01*
X90336029Y-186543971D01*
X90088285Y-186340654D01*
X89805637Y-186189575D01*
X89498947Y-186096542D01*
X89180000Y-186065128D01*
X88861052Y-186096542D01*
X88554362Y-186189575D01*
X88271714Y-186340654D01*
X88023971Y-186543971D01*
X87910000Y-186682846D01*
X87796029Y-186543971D01*
X87548285Y-186340654D01*
X87265637Y-186189575D01*
X86958947Y-186096542D01*
X86640000Y-186065128D01*
X86321052Y-186096542D01*
X86014362Y-186189575D01*
X85731714Y-186340654D01*
X85653279Y-186405024D01*
X85623853Y-186349972D01*
X85545501Y-186254499D01*
X85450028Y-186176147D01*
X85341103Y-186117925D01*
X85222913Y-186082073D01*
X85100000Y-186069967D01*
X83100000Y-186069967D01*
X82977087Y-186082073D01*
X82858897Y-186117925D01*
X82749972Y-186176147D01*
X82654499Y-186254499D01*
X82576147Y-186349972D01*
X82517925Y-186458897D01*
X82482073Y-186577087D01*
X82469967Y-186700000D01*
X82469967Y-189300000D01*
X82482073Y-189422913D01*
X82517925Y-189541103D01*
X82576147Y-189650028D01*
X82654499Y-189745501D01*
X82749972Y-189823853D01*
X82858897Y-189882075D01*
X82977087Y-189917927D01*
X83100000Y-189930033D01*
X85100000Y-189930033D01*
X85222913Y-189917927D01*
X85341103Y-189882075D01*
X85450028Y-189823853D01*
X85545501Y-189745501D01*
X85623853Y-189650028D01*
X85653279Y-189594976D01*
X85731715Y-189659346D01*
X85859387Y-189727589D01*
X85858362Y-189738000D01*
X85862000Y-189774936D01*
X85862001Y-190677055D01*
X85858362Y-190714000D01*
X85872882Y-190861417D01*
X85915882Y-191003169D01*
X85985710Y-191133810D01*
X86048919Y-191210830D01*
X86079684Y-191248317D01*
X86108375Y-191271863D01*
X86209512Y-191373000D01*
X80627000Y-191373000D01*
X80627000Y-174142400D01*
X82353591Y-174142400D01*
X82969279Y-174758088D01*
X82969279Y-174758088D01*
G37*
X82969279Y-174758088D02*
X82969279Y-174822750D01*
X83008746Y-175021164D01*
X83086164Y-175208066D01*
X83198556Y-175376273D01*
X83341605Y-175519322D01*
X83509812Y-175631714D01*
X83696714Y-175709132D01*
X83895128Y-175748599D01*
X84097430Y-175748599D01*
X84295844Y-175709132D01*
X84482746Y-175631714D01*
X84650953Y-175519322D01*
X84703393Y-175466882D01*
X85842136Y-176605625D01*
X85865683Y-176634317D01*
X85894374Y-176657863D01*
X85980189Y-176728290D01*
X86020745Y-176749967D01*
X86110830Y-176798118D01*
X86252582Y-176841119D01*
X86363062Y-176852000D01*
X86363064Y-176852000D01*
X86399999Y-176855638D01*
X86436935Y-176852000D01*
X114888512Y-176852000D01*
X115248000Y-177211489D01*
X115248001Y-177754148D01*
X115177223Y-177824926D01*
X115064831Y-177993133D01*
X114987413Y-178180035D01*
X114947946Y-178378449D01*
X114947946Y-178580751D01*
X114987413Y-178779165D01*
X115064831Y-178966067D01*
X115177223Y-179134274D01*
X115320272Y-179277323D01*
X115385737Y-179321066D01*
X115281877Y-179424926D01*
X115169485Y-179593133D01*
X115092067Y-179780035D01*
X115052600Y-179978449D01*
X115052600Y-180180751D01*
X115092067Y-180379165D01*
X115169485Y-180566067D01*
X115281877Y-180734274D01*
X115424926Y-180877323D01*
X115452114Y-180895489D01*
X115322677Y-181024926D01*
X115210285Y-181193133D01*
X115132867Y-181380035D01*
X115093400Y-181578449D01*
X115093400Y-181780751D01*
X115132867Y-181979165D01*
X115210285Y-182166067D01*
X115322677Y-182334274D01*
X115465726Y-182477323D01*
X115469135Y-182479601D01*
X115465728Y-182481877D01*
X115322679Y-182624926D01*
X115210287Y-182793133D01*
X115132869Y-182980035D01*
X115093402Y-183178449D01*
X115093402Y-183380751D01*
X115132869Y-183579165D01*
X115210287Y-183766067D01*
X115322679Y-183934274D01*
X115452115Y-184063710D01*
X115424926Y-184081877D01*
X115281877Y-184224926D01*
X115169485Y-184393133D01*
X115092067Y-184580035D01*
X115052600Y-184778449D01*
X115052600Y-184980751D01*
X115092067Y-185179165D01*
X115169485Y-185366067D01*
X115281877Y-185534274D01*
X115424926Y-185677323D01*
X115428334Y-185679600D01*
X115424926Y-185681877D01*
X115281877Y-185824926D01*
X115169485Y-185993133D01*
X115092067Y-186180035D01*
X115052600Y-186378449D01*
X115052600Y-186580751D01*
X115092067Y-186779165D01*
X115169485Y-186966067D01*
X115281877Y-187134274D01*
X115424926Y-187277323D01*
X115428334Y-187279600D01*
X115424926Y-187281877D01*
X115281877Y-187424926D01*
X115169485Y-187593133D01*
X115092067Y-187780035D01*
X115052600Y-187978449D01*
X115052600Y-188180751D01*
X115092067Y-188379165D01*
X115169485Y-188566067D01*
X115281877Y-188734274D01*
X115424926Y-188877323D01*
X115428334Y-188879600D01*
X115424926Y-188881877D01*
X115281877Y-189024926D01*
X115169485Y-189193133D01*
X115092067Y-189380035D01*
X115052600Y-189578449D01*
X115052600Y-189780751D01*
X115092067Y-189979165D01*
X115169485Y-190166067D01*
X115281877Y-190334274D01*
X115424926Y-190477323D01*
X115593133Y-190589715D01*
X115780035Y-190667133D01*
X115978449Y-190706600D01*
X116180751Y-190706600D01*
X116379165Y-190667133D01*
X116566067Y-190589715D01*
X116734274Y-190477323D01*
X116877323Y-190334274D01*
X116989715Y-190166067D01*
X117067133Y-189979165D01*
X117106600Y-189780751D01*
X117106600Y-189716088D01*
X120005627Y-186817062D01*
X120034317Y-186793517D01*
X120107372Y-186704499D01*
X120128290Y-186679011D01*
X120180810Y-186580751D01*
X120198118Y-186548370D01*
X120241119Y-186406618D01*
X120252000Y-186296138D01*
X120252000Y-186296136D01*
X120255638Y-186259201D01*
X120252000Y-186222265D01*
X120252000Y-179708130D01*
X123571000Y-176389131D01*
X123571000Y-191373000D01*
X104190488Y-191373000D01*
X105045627Y-190517862D01*
X105074317Y-190494317D01*
X105168290Y-190379810D01*
X105238118Y-190249170D01*
X105281119Y-190107418D01*
X105292000Y-189996938D01*
X105292000Y-189996936D01*
X105295638Y-189960000D01*
X105292000Y-189923065D01*
X105292000Y-189272799D01*
X105364547Y-189234022D01*
X105589450Y-189049450D01*
X105774022Y-188824547D01*
X105810000Y-188757237D01*
X105845978Y-188824547D01*
X106030550Y-189049450D01*
X106255453Y-189234022D01*
X106512042Y-189371172D01*
X106790457Y-189455629D01*
X107007444Y-189477000D01*
X107152556Y-189477000D01*
X107369543Y-189455629D01*
X107647958Y-189371172D01*
X107904547Y-189234022D01*
X108129450Y-189049450D01*
X108314022Y-188824547D01*
X108350420Y-188756451D01*
X108424822Y-188881355D01*
X108619731Y-189097588D01*
X108853080Y-189271641D01*
X109115901Y-189396825D01*
X109263110Y-189441476D01*
X109493000Y-189320155D01*
X109493000Y-188127000D01*
X109747000Y-188127000D01*
X109747000Y-189320155D01*
X109976890Y-189441476D01*
X110124099Y-189396825D01*
X110386920Y-189271641D01*
X110620269Y-189097588D01*
X110815178Y-188881355D01*
X110964157Y-188631252D01*
X111061481Y-188356891D01*
X110940814Y-188127000D01*
X109747000Y-188127000D01*
X109493000Y-188127000D01*
X109473000Y-188127000D01*
X109473000Y-187873000D01*
X109493000Y-187873000D01*
X109493000Y-186679845D01*
X109747000Y-186679845D01*
X109747000Y-187873000D01*
X110940814Y-187873000D01*
X111061481Y-187643109D01*
X110964157Y-187368748D01*
X110815178Y-187118645D01*
X110620269Y-186902412D01*
X110386920Y-186728359D01*
X110124099Y-186603175D01*
X109976890Y-186558524D01*
X109747000Y-186679845D01*
X109493000Y-186679845D01*
X109263110Y-186558524D01*
X109115901Y-186603175D01*
X108853080Y-186728359D01*
X108619731Y-186902412D01*
X108424822Y-187118645D01*
X108350420Y-187243549D01*
X108314022Y-187175453D01*
X108129450Y-186950550D01*
X107904547Y-186765978D01*
X107832000Y-186727201D01*
X107832000Y-180826931D01*
X107835638Y-180789995D01*
X107827551Y-180707890D01*
X107821119Y-180642578D01*
X107778118Y-180500826D01*
X107725450Y-180402290D01*
X107708290Y-180370185D01*
X107637863Y-180284370D01*
X107614317Y-180255679D01*
X107585626Y-180232133D01*
X105997625Y-178644133D01*
X105903000Y-178549508D01*
X105903000Y-178484845D01*
X105863533Y-178286431D01*
X105786115Y-178099529D01*
X105673723Y-177931322D01*
X105530674Y-177788273D01*
X105362467Y-177675881D01*
X105175565Y-177598463D01*
X104977151Y-177558996D01*
X104774849Y-177558996D01*
X104576435Y-177598463D01*
X104389533Y-177675881D01*
X104221326Y-177788273D01*
X104113998Y-177895601D01*
X104006674Y-177788277D01*
X103838467Y-177675885D01*
X103651565Y-177598467D01*
X103453151Y-177559000D01*
X103250849Y-177559000D01*
X103052435Y-177598467D01*
X102865533Y-177675885D01*
X102697326Y-177788277D01*
X102554277Y-177931326D01*
X102441885Y-178099533D01*
X102364467Y-178286435D01*
X102325000Y-178484849D01*
X102325000Y-178687151D01*
X102364467Y-178885565D01*
X102441885Y-179072467D01*
X102554277Y-179240674D01*
X102697326Y-179383723D01*
X102865533Y-179496115D01*
X103052435Y-179573533D01*
X103250849Y-179613000D01*
X103315512Y-179613000D01*
X103788001Y-180085489D01*
X103788000Y-186727201D01*
X103715453Y-186765978D01*
X103490550Y-186950550D01*
X103457081Y-186991332D01*
X103432075Y-186908897D01*
X103373853Y-186799972D01*
X103295501Y-186704499D01*
X103200028Y-186626147D01*
X103091103Y-186567925D01*
X102972913Y-186532073D01*
X102850000Y-186519967D01*
X101150000Y-186519967D01*
X101027087Y-186532073D01*
X100908897Y-186567925D01*
X100799972Y-186626147D01*
X100704499Y-186704499D01*
X100626147Y-186799972D01*
X100567925Y-186908897D01*
X100532073Y-187027087D01*
X100519967Y-187150000D01*
X100519967Y-188850000D01*
X100532073Y-188972913D01*
X100567925Y-189091103D01*
X100626147Y-189200028D01*
X100704499Y-189295501D01*
X100799972Y-189373853D01*
X100908897Y-189432075D01*
X101027087Y-189467927D01*
X101150000Y-189480033D01*
X102850000Y-189480033D01*
X102972913Y-189467927D01*
X103091103Y-189432075D01*
X103200028Y-189373853D01*
X103295501Y-189295501D01*
X103373853Y-189200028D01*
X103432075Y-189091103D01*
X103457081Y-189008668D01*
X103490550Y-189049450D01*
X103715453Y-189234022D01*
X103788000Y-189272799D01*
X103788000Y-189648511D01*
X102688512Y-190748000D01*
X87711489Y-190748000D01*
X87366000Y-190402512D01*
X87366000Y-189909258D01*
X87381119Y-189859418D01*
X87392000Y-189748938D01*
X87392000Y-189748935D01*
X87392629Y-189742547D01*
X87548286Y-189659346D01*
X87796029Y-189456029D01*
X87910000Y-189317155D01*
X88023971Y-189456029D01*
X88271715Y-189659346D01*
X88554363Y-189810425D01*
X88861053Y-189903458D01*
X89180000Y-189934872D01*
X89498948Y-189903458D01*
X89805638Y-189810425D01*
X90088286Y-189659346D01*
X90336029Y-189456029D01*
X90442705Y-189326043D01*
X90653683Y-189545922D01*
X90917239Y-189730010D01*
X91211645Y-189859144D01*
X91339566Y-189890124D01*
X91593000Y-189770777D01*
X91593000Y-188127000D01*
X91847000Y-188127000D01*
X91847000Y-189770777D01*
X92100434Y-189890124D01*
X92228355Y-189859144D01*
X92522761Y-189730010D01*
X92786317Y-189545922D01*
X93008895Y-189313954D01*
X93181942Y-189043020D01*
X93298807Y-188743532D01*
X93355000Y-188427000D01*
X93355000Y-188127000D01*
X91847000Y-188127000D01*
X91593000Y-188127000D01*
X91573000Y-188127000D01*
X91573000Y-187873000D01*
X91593000Y-187873000D01*
X91593000Y-186229223D01*
X91847000Y-186229223D01*
X91847000Y-187873000D01*
X93355000Y-187873000D01*
X93355000Y-187573000D01*
X93298807Y-187256468D01*
X93181942Y-186956980D01*
X93008895Y-186686046D01*
X92786317Y-186454078D01*
X92522761Y-186269990D01*
X92228355Y-186140856D01*
X92100434Y-186109876D01*
X91847000Y-186229223D01*
X91593000Y-186229223D01*
X91339566Y-186109876D01*
X91211645Y-186140856D01*
X90917239Y-186269990D01*
X90653683Y-186454078D01*
X90442705Y-186673957D01*
X90336029Y-186543971D01*
X90088285Y-186340654D01*
X89805637Y-186189575D01*
X89498947Y-186096542D01*
X89180000Y-186065128D01*
X88861052Y-186096542D01*
X88554362Y-186189575D01*
X88271714Y-186340654D01*
X88023971Y-186543971D01*
X87910000Y-186682846D01*
X87796029Y-186543971D01*
X87548285Y-186340654D01*
X87265637Y-186189575D01*
X86958947Y-186096542D01*
X86640000Y-186065128D01*
X86321052Y-186096542D01*
X86014362Y-186189575D01*
X85731714Y-186340654D01*
X85653279Y-186405024D01*
X85623853Y-186349972D01*
X85545501Y-186254499D01*
X85450028Y-186176147D01*
X85341103Y-186117925D01*
X85222913Y-186082073D01*
X85100000Y-186069967D01*
X83100000Y-186069967D01*
X82977087Y-186082073D01*
X82858897Y-186117925D01*
X82749972Y-186176147D01*
X82654499Y-186254499D01*
X82576147Y-186349972D01*
X82517925Y-186458897D01*
X82482073Y-186577087D01*
X82469967Y-186700000D01*
X82469967Y-189300000D01*
X82482073Y-189422913D01*
X82517925Y-189541103D01*
X82576147Y-189650028D01*
X82654499Y-189745501D01*
X82749972Y-189823853D01*
X82858897Y-189882075D01*
X82977087Y-189917927D01*
X83100000Y-189930033D01*
X85100000Y-189930033D01*
X85222913Y-189917927D01*
X85341103Y-189882075D01*
X85450028Y-189823853D01*
X85545501Y-189745501D01*
X85623853Y-189650028D01*
X85653279Y-189594976D01*
X85731715Y-189659346D01*
X85859387Y-189727589D01*
X85858362Y-189738000D01*
X85862000Y-189774936D01*
X85862001Y-190677055D01*
X85858362Y-190714000D01*
X85872882Y-190861417D01*
X85915882Y-191003169D01*
X85985710Y-191133810D01*
X86048919Y-191210830D01*
X86079684Y-191248317D01*
X86108375Y-191271863D01*
X86209512Y-191373000D01*
X80627000Y-191373000D01*
X80627000Y-174142400D01*
X82353591Y-174142400D01*
X82969279Y-174758088D01*
M02*
