G04 #@! TF.GenerationSoftware,KiCad,Pcbnew,(5.1.0-1152-gc9ccd8a64)*
G04 #@! TF.CreationDate,2019-07-16T09:28:44-04:00*
G04 #@! TF.ProjectId,Pack,5061636b-2e6b-4696-9361-645f70636258,rev?*
G04 #@! TF.SameCoordinates,Original*
G04 #@! TF.FileFunction,Legend,Top*
G04 #@! TF.FilePolarity,Positive*
%FSLAX46Y46*%
G04 Gerber Fmt 4.6, Leading zero omitted, Abs format (unit mm)*
G04 Created by KiCad (PCBNEW (5.1.0-1152-gc9ccd8a64)) date 2019-07-16 09:28:44*
%MOMM*%
%LPD*%
G04 APERTURE LIST*
%ADD10C,0.150000*%
%ADD11C,0.120000*%
G04 APERTURE END LIST*
D10*
X100371000Y-176243400D02*
X95971000Y-176243400D01*
X101946000Y-181768400D02*
X95971000Y-181768400D01*
D11*
X158870000Y-181520000D02*
X158870000Y-175520000D01*
X158870000Y-175520000D02*
X125650000Y-175520000D01*
X125650000Y-175520000D02*
X125650000Y-181520000D01*
X125650000Y-181520000D02*
X158870000Y-181520000D01*
X157500000Y-175520000D02*
X157500000Y-176520000D01*
X157500000Y-176520000D02*
X152420000Y-176520000D01*
X152420000Y-176520000D02*
X152420000Y-175520000D01*
X157500000Y-176520000D02*
X157250000Y-176950000D01*
X157250000Y-176950000D02*
X152420000Y-176950000D01*
X152420000Y-176950000D02*
X152420000Y-176520000D01*
X157250000Y-175520000D02*
X157250000Y-176520000D01*
X127020000Y-175520000D02*
X127020000Y-176520000D01*
X127020000Y-176520000D02*
X132100000Y-176520000D01*
X132100000Y-176520000D02*
X132100000Y-175520000D01*
X127020000Y-176520000D02*
X127270000Y-176950000D01*
X127270000Y-176950000D02*
X132100000Y-176950000D01*
X132100000Y-176950000D02*
X132100000Y-176520000D01*
X127270000Y-175520000D02*
X127270000Y-176520000D01*
X158300000Y-181520000D02*
X158300000Y-180900000D01*
X158300000Y-180900000D02*
X156700000Y-180900000D01*
X156700000Y-180900000D02*
X156700000Y-181520000D01*
X155760000Y-181520000D02*
X155760000Y-180900000D01*
X155760000Y-180900000D02*
X154160000Y-180900000D01*
X154160000Y-180900000D02*
X154160000Y-181520000D01*
X153220000Y-181520000D02*
X153220000Y-180900000D01*
X153220000Y-180900000D02*
X151620000Y-180900000D01*
X151620000Y-180900000D02*
X151620000Y-181520000D01*
X150680000Y-181520000D02*
X150680000Y-180900000D01*
X150680000Y-180900000D02*
X149080000Y-180900000D01*
X149080000Y-180900000D02*
X149080000Y-181520000D01*
X148140000Y-181520000D02*
X148140000Y-180900000D01*
X148140000Y-180900000D02*
X146540000Y-180900000D01*
X146540000Y-180900000D02*
X146540000Y-181520000D01*
X145600000Y-181520000D02*
X145600000Y-180900000D01*
X145600000Y-180900000D02*
X144000000Y-180900000D01*
X144000000Y-180900000D02*
X144000000Y-181520000D01*
X143060000Y-181520000D02*
X143060000Y-180900000D01*
X143060000Y-180900000D02*
X141460000Y-180900000D01*
X141460000Y-180900000D02*
X141460000Y-181520000D01*
X140520000Y-181520000D02*
X140520000Y-180900000D01*
X140520000Y-180900000D02*
X138920000Y-180900000D01*
X138920000Y-180900000D02*
X138920000Y-181520000D01*
X137980000Y-181520000D02*
X137980000Y-180900000D01*
X137980000Y-180900000D02*
X136380000Y-180900000D01*
X136380000Y-180900000D02*
X136380000Y-181520000D01*
X135440000Y-181520000D02*
X135440000Y-180900000D01*
X135440000Y-180900000D02*
X133840000Y-180900000D01*
X133840000Y-180900000D02*
X133840000Y-181520000D01*
X132900000Y-181520000D02*
X132900000Y-180900000D01*
X132900000Y-180900000D02*
X131300000Y-180900000D01*
X131300000Y-180900000D02*
X131300000Y-181520000D01*
X130360000Y-181520000D02*
X130360000Y-180900000D01*
X130360000Y-180900000D02*
X128760000Y-180900000D01*
X128760000Y-180900000D02*
X128760000Y-181520000D01*
X127820000Y-181520000D02*
X127820000Y-180900000D01*
X127820000Y-180900000D02*
X126220000Y-180900000D01*
X126220000Y-180900000D02*
X126220000Y-181520000D01*
X110950000Y-185330000D02*
X110950000Y-182670000D01*
X103270000Y-185330000D02*
X110950000Y-185330000D01*
X103270000Y-182670000D02*
X110950000Y-182670000D01*
X103270000Y-185330000D02*
X103270000Y-182670000D01*
X102000000Y-185330000D02*
X100670000Y-185330000D01*
X100670000Y-185330000D02*
X100670000Y-184000000D01*
X98688400Y-183743400D02*
X97988400Y-183743400D01*
X97988400Y-182543400D02*
X98688400Y-182543400D01*
X98688400Y-185143400D02*
X97988400Y-185143400D01*
X97988400Y-183943400D02*
X98688400Y-183943400D01*
X221453000Y-21377800D02*
X220253000Y-21377800D01*
X220253000Y-19617800D02*
X221453000Y-19617800D01*
X192319200Y-38167200D02*
X191119200Y-38167200D01*
X191119200Y-36407200D02*
X192319200Y-36407200D01*
X163083800Y-55159800D02*
X161883800Y-55159800D01*
X161883800Y-53399800D02*
X163083800Y-53399800D01*
X104972400Y-178976400D02*
X104972400Y-179976400D01*
X103612400Y-179976400D02*
X103612400Y-178976400D01*
X98671000Y-186735000D02*
X97671000Y-186735000D01*
X97671000Y-185375000D02*
X98671000Y-185375000D01*
X114144200Y-174613000D02*
X113144200Y-174613000D01*
X113144200Y-173253000D02*
X114144200Y-173253000D01*
X114144200Y-176213000D02*
X113144200Y-176213000D01*
X113144200Y-174853000D02*
X114144200Y-174853000D01*
X114144200Y-177813000D02*
X113144200Y-177813000D01*
X113144200Y-176453000D02*
X114144200Y-176453000D01*
X114144200Y-179413000D02*
X113144200Y-179413000D01*
X113144200Y-178053000D02*
X114144200Y-178053000D01*
X114144200Y-181013000D02*
X113144200Y-181013000D01*
X113144200Y-179653000D02*
X114144200Y-179653000D01*
X114144200Y-182613000D02*
X113144200Y-182613000D01*
X113144200Y-181253000D02*
X114144200Y-181253000D01*
X114144200Y-184213000D02*
X113144200Y-184213000D01*
X113144200Y-182853000D02*
X114144200Y-182853000D01*
X114144200Y-185813000D02*
X113144200Y-185813000D01*
X113144200Y-184453000D02*
X114144200Y-184453000D01*
X82730000Y-180980000D02*
X82730000Y-186980000D01*
X82730000Y-186980000D02*
X93090000Y-186980000D01*
X93090000Y-186980000D02*
X93090000Y-180980000D01*
X93090000Y-180980000D02*
X82730000Y-180980000D01*
X84100000Y-186980000D02*
X84100000Y-185980000D01*
X84100000Y-185980000D02*
X91720000Y-185980000D01*
X91720000Y-185980000D02*
X91720000Y-186980000D01*
X84100000Y-185980000D02*
X84350000Y-185550000D01*
X84350000Y-185550000D02*
X91470000Y-185550000D01*
X91470000Y-185550000D02*
X91720000Y-185980000D01*
X84350000Y-186980000D02*
X84350000Y-185980000D01*
X91470000Y-186980000D02*
X91470000Y-185980000D01*
X83300000Y-180980000D02*
X83300000Y-181600000D01*
X83300000Y-181600000D02*
X84900000Y-181600000D01*
X84900000Y-181600000D02*
X84900000Y-180980000D01*
X85840000Y-180980000D02*
X85840000Y-181600000D01*
X85840000Y-181600000D02*
X87440000Y-181600000D01*
X87440000Y-181600000D02*
X87440000Y-180980000D01*
X88380000Y-180980000D02*
X88380000Y-181600000D01*
X88380000Y-181600000D02*
X89980000Y-181600000D01*
X89980000Y-181600000D02*
X89980000Y-180980000D01*
X90920000Y-180980000D02*
X90920000Y-181600000D01*
X90920000Y-181600000D02*
X92520000Y-181600000D01*
X92520000Y-181600000D02*
X92520000Y-180980000D01*
X106562600Y-179801000D02*
X106562600Y-179101000D01*
X107762600Y-179101000D02*
X107762600Y-179801000D01*
X105165600Y-179801000D02*
X105165600Y-179101000D01*
X106365600Y-179101000D02*
X106365600Y-179801000D01*
X120893200Y-173333000D02*
X121593200Y-173333000D01*
X121593200Y-174533000D02*
X120893200Y-174533000D01*
X120893200Y-174933000D02*
X121593200Y-174933000D01*
X121593200Y-176133000D02*
X120893200Y-176133000D01*
X120893200Y-176533000D02*
X121593200Y-176533000D01*
X121593200Y-177733000D02*
X120893200Y-177733000D01*
X120893200Y-178133000D02*
X121593200Y-178133000D01*
X121593200Y-179333000D02*
X120893200Y-179333000D01*
X120893200Y-179633000D02*
X121593200Y-179633000D01*
X121593200Y-180833000D02*
X120893200Y-180833000D01*
X120893200Y-181333000D02*
X121593200Y-181333000D01*
X121593200Y-182533000D02*
X120893200Y-182533000D01*
X120893200Y-182933000D02*
X121593200Y-182933000D01*
X121593200Y-184133000D02*
X120893200Y-184133000D01*
X120893200Y-184533000D02*
X121593200Y-184533000D01*
X121593200Y-185733000D02*
X120893200Y-185733000D01*
X158810000Y-185330000D02*
X158810000Y-182670000D01*
X128270000Y-185330000D02*
X158810000Y-185330000D01*
X128270000Y-182670000D02*
X158810000Y-182670000D01*
X128270000Y-185330000D02*
X128270000Y-182670000D01*
X127000000Y-185330000D02*
X125670000Y-185330000D01*
X125670000Y-185330000D02*
X125670000Y-184000000D01*
X133797600Y-72177800D02*
X132597600Y-72177800D01*
X132597600Y-70417800D02*
X133797600Y-70417800D01*
X104689200Y-89094200D02*
X103489200Y-89094200D01*
X103489200Y-87334200D02*
X104689200Y-87334200D01*
X94630800Y-105934400D02*
X93430800Y-105934400D01*
X93430800Y-104174400D02*
X94630800Y-104174400D01*
X46015200Y-122673000D02*
X44815200Y-122673000D01*
X44815200Y-120913000D02*
X46015200Y-120913000D01*
X26431800Y-155870800D02*
X25231800Y-155870800D01*
X25231800Y-154110800D02*
X26431800Y-154110800D01*
D10*
X97561495Y-175194980D02*
X97561495Y-176004504D01*
X97609114Y-176099742D01*
X97656733Y-176147361D01*
X97751971Y-176194980D01*
X97942447Y-176194980D01*
X98037685Y-176147361D01*
X98085304Y-176099742D01*
X98132923Y-176004504D01*
X98132923Y-175194980D01*
X99132923Y-176194980D02*
X98561495Y-176194980D01*
X98847209Y-176194980D02*
X98847209Y-175194980D01*
X98751971Y-175337838D01*
X98656733Y-175433076D01*
X98561495Y-175480695D01*
X73830371Y-44743904D02*
X73877990Y-44601047D01*
X73925609Y-44553428D01*
X74020847Y-44505809D01*
X74163704Y-44505809D01*
X74258942Y-44553428D01*
X74306561Y-44601047D01*
X74354180Y-44696285D01*
X74354180Y-45077238D01*
X73354180Y-45077238D01*
X73354180Y-44743904D01*
X73401800Y-44648666D01*
X73449419Y-44601047D01*
X73544657Y-44553428D01*
X73639895Y-44553428D01*
X73735133Y-44601047D01*
X73782752Y-44648666D01*
X73830371Y-44743904D01*
X73830371Y-45077238D01*
X73354180Y-44220095D02*
X73354180Y-43648666D01*
X74354180Y-43934380D02*
X73354180Y-43934380D01*
X73354180Y-43410571D02*
X73354180Y-42791523D01*
X73735133Y-43124857D01*
X73735133Y-42982000D01*
X73782752Y-42886761D01*
X73830371Y-42839142D01*
X73925609Y-42791523D01*
X74163704Y-42791523D01*
X74258942Y-42839142D01*
X74306561Y-42886761D01*
X74354180Y-42982000D01*
X74354180Y-43267714D01*
X74306561Y-43362952D01*
X74258942Y-43410571D01*
X73687514Y-41934380D02*
X74354180Y-41934380D01*
X73306561Y-42172476D02*
X74020847Y-42410571D01*
X74020847Y-41791523D01*
X156166666Y-182452380D02*
X156166666Y-183166666D01*
X156119047Y-183309523D01*
X156023809Y-183404761D01*
X155880952Y-183452380D01*
X155785714Y-183452380D01*
X156547619Y-182452380D02*
X157166666Y-182452380D01*
X156833333Y-182833333D01*
X156976190Y-182833333D01*
X157071428Y-182880952D01*
X157119047Y-182928571D01*
X157166666Y-183023809D01*
X157166666Y-183261904D01*
X157119047Y-183357142D01*
X157071428Y-183404761D01*
X156976190Y-183452380D01*
X156690476Y-183452380D01*
X156595238Y-183404761D01*
X156547619Y-183357142D01*
X99122380Y-184333333D02*
X99836666Y-184333333D01*
X99979523Y-184380952D01*
X100074761Y-184476190D01*
X100122380Y-184619047D01*
X100122380Y-184714285D01*
X99455714Y-183428571D02*
X100122380Y-183428571D01*
X99074761Y-183666666D02*
X99789047Y-183904761D01*
X99789047Y-183285714D01*
X94429342Y-183465742D02*
X94381723Y-183513361D01*
X94238866Y-183560980D01*
X94143628Y-183560980D01*
X94000771Y-183513361D01*
X93905533Y-183418123D01*
X93857914Y-183322885D01*
X93810295Y-183132409D01*
X93810295Y-182989552D01*
X93857914Y-182799076D01*
X93905533Y-182703838D01*
X94000771Y-182608600D01*
X94143628Y-182560980D01*
X94238866Y-182560980D01*
X94381723Y-182608600D01*
X94429342Y-182656219D01*
X95381723Y-183560980D02*
X94810295Y-183560980D01*
X95096009Y-183560980D02*
X95096009Y-182560980D01*
X95000771Y-182703838D01*
X94905533Y-182799076D01*
X94810295Y-182846695D01*
X95762676Y-182656219D02*
X95810295Y-182608600D01*
X95905533Y-182560980D01*
X96143628Y-182560980D01*
X96238866Y-182608600D01*
X96286485Y-182656219D01*
X96334104Y-182751457D01*
X96334104Y-182846695D01*
X96286485Y-182989552D01*
X95715057Y-183560980D01*
X96334104Y-183560980D01*
X94429342Y-184964342D02*
X94381723Y-185011961D01*
X94238866Y-185059580D01*
X94143628Y-185059580D01*
X94000771Y-185011961D01*
X93905533Y-184916723D01*
X93857914Y-184821485D01*
X93810295Y-184631009D01*
X93810295Y-184488152D01*
X93857914Y-184297676D01*
X93905533Y-184202438D01*
X94000771Y-184107200D01*
X94143628Y-184059580D01*
X94238866Y-184059580D01*
X94381723Y-184107200D01*
X94429342Y-184154819D01*
X95381723Y-185059580D02*
X94810295Y-185059580D01*
X95096009Y-185059580D02*
X95096009Y-184059580D01*
X95000771Y-184202438D01*
X94905533Y-184297676D01*
X94810295Y-184345295D01*
X96334104Y-185059580D02*
X95762676Y-185059580D01*
X96048390Y-185059580D02*
X96048390Y-184059580D01*
X95953152Y-184202438D01*
X95857914Y-184297676D01*
X95762676Y-184345295D01*
X219567285Y-18250180D02*
X220138714Y-18250180D01*
X219853000Y-19250180D02*
X219853000Y-18250180D01*
X220472047Y-19250180D02*
X220472047Y-18250180D01*
X220472047Y-18726371D02*
X221043476Y-18726371D01*
X221043476Y-19250180D02*
X221043476Y-18250180D01*
X221662523Y-18678752D02*
X221567285Y-18631133D01*
X221519666Y-18583514D01*
X221472047Y-18488276D01*
X221472047Y-18440657D01*
X221519666Y-18345419D01*
X221567285Y-18297800D01*
X221662523Y-18250180D01*
X221853000Y-18250180D01*
X221948238Y-18297800D01*
X221995857Y-18345419D01*
X222043476Y-18440657D01*
X222043476Y-18488276D01*
X221995857Y-18583514D01*
X221948238Y-18631133D01*
X221853000Y-18678752D01*
X221662523Y-18678752D01*
X221567285Y-18726371D01*
X221519666Y-18773990D01*
X221472047Y-18869228D01*
X221472047Y-19059704D01*
X221519666Y-19154942D01*
X221567285Y-19202561D01*
X221662523Y-19250180D01*
X221853000Y-19250180D01*
X221948238Y-19202561D01*
X221995857Y-19154942D01*
X222043476Y-19059704D01*
X222043476Y-18869228D01*
X221995857Y-18773990D01*
X221948238Y-18726371D01*
X221853000Y-18678752D01*
X190433485Y-35039580D02*
X191004914Y-35039580D01*
X190719200Y-36039580D02*
X190719200Y-35039580D01*
X191338247Y-36039580D02*
X191338247Y-35039580D01*
X191338247Y-35515771D02*
X191909676Y-35515771D01*
X191909676Y-36039580D02*
X191909676Y-35039580D01*
X192290628Y-35039580D02*
X192957295Y-35039580D01*
X192528723Y-36039580D01*
X161198085Y-52032180D02*
X161769514Y-52032180D01*
X161483800Y-53032180D02*
X161483800Y-52032180D01*
X162102847Y-53032180D02*
X162102847Y-52032180D01*
X162102847Y-52508371D02*
X162674276Y-52508371D01*
X162674276Y-53032180D02*
X162674276Y-52032180D01*
X163579038Y-52032180D02*
X163388561Y-52032180D01*
X163293323Y-52079800D01*
X163245704Y-52127419D01*
X163150466Y-52270276D01*
X163102847Y-52460752D01*
X163102847Y-52841704D01*
X163150466Y-52936942D01*
X163198085Y-52984561D01*
X163293323Y-53032180D01*
X163483800Y-53032180D01*
X163579038Y-52984561D01*
X163626657Y-52936942D01*
X163674276Y-52841704D01*
X163674276Y-52603609D01*
X163626657Y-52508371D01*
X163579038Y-52460752D01*
X163483800Y-52413133D01*
X163293323Y-52413133D01*
X163198085Y-52460752D01*
X163150466Y-52508371D01*
X163102847Y-52603609D01*
X103873419Y-175376342D02*
X104349609Y-175043009D01*
X103873419Y-174804914D02*
X104873419Y-174804914D01*
X104873419Y-175185866D01*
X104825800Y-175281104D01*
X104778180Y-175328723D01*
X104682942Y-175376342D01*
X104540085Y-175376342D01*
X104444847Y-175328723D01*
X104397228Y-175281104D01*
X104349609Y-175185866D01*
X104349609Y-174804914D01*
X103873419Y-176328723D02*
X103873419Y-175757295D01*
X103873419Y-176043009D02*
X104873419Y-176043009D01*
X104730561Y-175947771D01*
X104635323Y-175852533D01*
X104587704Y-175757295D01*
X104873419Y-176947771D02*
X104873419Y-177043009D01*
X104825800Y-177138247D01*
X104778180Y-177185866D01*
X104682942Y-177233485D01*
X104492466Y-177281104D01*
X104254371Y-177281104D01*
X104063895Y-177233485D01*
X103968657Y-177185866D01*
X103921038Y-177138247D01*
X103873419Y-177043009D01*
X103873419Y-176947771D01*
X103921038Y-176852533D01*
X103968657Y-176804914D01*
X104063895Y-176757295D01*
X104254371Y-176709676D01*
X104492466Y-176709676D01*
X104682942Y-176757295D01*
X104778180Y-176804914D01*
X104825800Y-176852533D01*
X104873419Y-176947771D01*
X95083333Y-186507380D02*
X94750000Y-186031190D01*
X94511904Y-186507380D02*
X94511904Y-185507380D01*
X94892857Y-185507380D01*
X94988095Y-185555000D01*
X95035714Y-185602619D01*
X95083333Y-185697857D01*
X95083333Y-185840714D01*
X95035714Y-185935952D01*
X94988095Y-185983571D01*
X94892857Y-186031190D01*
X94511904Y-186031190D01*
X95559523Y-186507380D02*
X95750000Y-186507380D01*
X95845238Y-186459761D01*
X95892857Y-186412142D01*
X95988095Y-186269285D01*
X96035714Y-186078809D01*
X96035714Y-185697857D01*
X95988095Y-185602619D01*
X95940476Y-185555000D01*
X95845238Y-185507380D01*
X95654761Y-185507380D01*
X95559523Y-185555000D01*
X95511904Y-185602619D01*
X95464285Y-185697857D01*
X95464285Y-185935952D01*
X95511904Y-186031190D01*
X95559523Y-186078809D01*
X95654761Y-186126428D01*
X95845238Y-186126428D01*
X95940476Y-186078809D01*
X95988095Y-186031190D01*
X96035714Y-185935952D01*
X116385733Y-174405780D02*
X116052400Y-173929590D01*
X115814304Y-174405780D02*
X115814304Y-173405780D01*
X116195257Y-173405780D01*
X116290495Y-173453400D01*
X116338114Y-173501019D01*
X116385733Y-173596257D01*
X116385733Y-173739114D01*
X116338114Y-173834352D01*
X116290495Y-173881971D01*
X116195257Y-173929590D01*
X115814304Y-173929590D01*
X116957161Y-173834352D02*
X116861923Y-173786733D01*
X116814304Y-173739114D01*
X116766685Y-173643876D01*
X116766685Y-173596257D01*
X116814304Y-173501019D01*
X116861923Y-173453400D01*
X116957161Y-173405780D01*
X117147638Y-173405780D01*
X117242876Y-173453400D01*
X117290495Y-173501019D01*
X117338114Y-173596257D01*
X117338114Y-173643876D01*
X117290495Y-173739114D01*
X117242876Y-173786733D01*
X117147638Y-173834352D01*
X116957161Y-173834352D01*
X116861923Y-173881971D01*
X116814304Y-173929590D01*
X116766685Y-174024828D01*
X116766685Y-174215304D01*
X116814304Y-174310542D01*
X116861923Y-174358161D01*
X116957161Y-174405780D01*
X117147638Y-174405780D01*
X117242876Y-174358161D01*
X117290495Y-174310542D01*
X117338114Y-174215304D01*
X117338114Y-174024828D01*
X117290495Y-173929590D01*
X117242876Y-173881971D01*
X117147638Y-173834352D01*
X116385733Y-175985380D02*
X116052400Y-175509190D01*
X115814304Y-175985380D02*
X115814304Y-174985380D01*
X116195257Y-174985380D01*
X116290495Y-175033000D01*
X116338114Y-175080619D01*
X116385733Y-175175857D01*
X116385733Y-175318714D01*
X116338114Y-175413952D01*
X116290495Y-175461571D01*
X116195257Y-175509190D01*
X115814304Y-175509190D01*
X116719066Y-174985380D02*
X117385733Y-174985380D01*
X116957161Y-175985380D01*
X116385733Y-177605780D02*
X116052400Y-177129590D01*
X115814304Y-177605780D02*
X115814304Y-176605780D01*
X116195257Y-176605780D01*
X116290495Y-176653400D01*
X116338114Y-176701019D01*
X116385733Y-176796257D01*
X116385733Y-176939114D01*
X116338114Y-177034352D01*
X116290495Y-177081971D01*
X116195257Y-177129590D01*
X115814304Y-177129590D01*
X117242876Y-176605780D02*
X117052400Y-176605780D01*
X116957161Y-176653400D01*
X116909542Y-176701019D01*
X116814304Y-176843876D01*
X116766685Y-177034352D01*
X116766685Y-177415304D01*
X116814304Y-177510542D01*
X116861923Y-177558161D01*
X116957161Y-177605780D01*
X117147638Y-177605780D01*
X117242876Y-177558161D01*
X117290495Y-177510542D01*
X117338114Y-177415304D01*
X117338114Y-177177209D01*
X117290495Y-177081971D01*
X117242876Y-177034352D01*
X117147638Y-176986733D01*
X116957161Y-176986733D01*
X116861923Y-177034352D01*
X116814304Y-177081971D01*
X116766685Y-177177209D01*
X116385733Y-179185380D02*
X116052400Y-178709190D01*
X115814304Y-179185380D02*
X115814304Y-178185380D01*
X116195257Y-178185380D01*
X116290495Y-178233000D01*
X116338114Y-178280619D01*
X116385733Y-178375857D01*
X116385733Y-178518714D01*
X116338114Y-178613952D01*
X116290495Y-178661571D01*
X116195257Y-178709190D01*
X115814304Y-178709190D01*
X117290495Y-178185380D02*
X116814304Y-178185380D01*
X116766685Y-178661571D01*
X116814304Y-178613952D01*
X116909542Y-178566333D01*
X117147638Y-178566333D01*
X117242876Y-178613952D01*
X117290495Y-178661571D01*
X117338114Y-178756809D01*
X117338114Y-178994904D01*
X117290495Y-179090142D01*
X117242876Y-179137761D01*
X117147638Y-179185380D01*
X116909542Y-179185380D01*
X116814304Y-179137761D01*
X116766685Y-179090142D01*
X116385733Y-180785380D02*
X116052400Y-180309190D01*
X115814304Y-180785380D02*
X115814304Y-179785380D01*
X116195257Y-179785380D01*
X116290495Y-179833000D01*
X116338114Y-179880619D01*
X116385733Y-179975857D01*
X116385733Y-180118714D01*
X116338114Y-180213952D01*
X116290495Y-180261571D01*
X116195257Y-180309190D01*
X115814304Y-180309190D01*
X117242876Y-180118714D02*
X117242876Y-180785380D01*
X117004780Y-179737761D02*
X116766685Y-180452047D01*
X117385733Y-180452047D01*
X116385733Y-182405780D02*
X116052400Y-181929590D01*
X115814304Y-182405780D02*
X115814304Y-181405780D01*
X116195257Y-181405780D01*
X116290495Y-181453400D01*
X116338114Y-181501019D01*
X116385733Y-181596257D01*
X116385733Y-181739114D01*
X116338114Y-181834352D01*
X116290495Y-181881971D01*
X116195257Y-181929590D01*
X115814304Y-181929590D01*
X116719066Y-181405780D02*
X117338114Y-181405780D01*
X117004780Y-181786733D01*
X117147638Y-181786733D01*
X117242876Y-181834352D01*
X117290495Y-181881971D01*
X117338114Y-181977209D01*
X117338114Y-182215304D01*
X117290495Y-182310542D01*
X117242876Y-182358161D01*
X117147638Y-182405780D01*
X116861923Y-182405780D01*
X116766685Y-182358161D01*
X116719066Y-182310542D01*
X116385733Y-183985380D02*
X116052400Y-183509190D01*
X115814304Y-183985380D02*
X115814304Y-182985380D01*
X116195257Y-182985380D01*
X116290495Y-183033000D01*
X116338114Y-183080619D01*
X116385733Y-183175857D01*
X116385733Y-183318714D01*
X116338114Y-183413952D01*
X116290495Y-183461571D01*
X116195257Y-183509190D01*
X115814304Y-183509190D01*
X116766685Y-183080619D02*
X116814304Y-183033000D01*
X116909542Y-182985380D01*
X117147638Y-182985380D01*
X117242876Y-183033000D01*
X117290495Y-183080619D01*
X117338114Y-183175857D01*
X117338114Y-183271095D01*
X117290495Y-183413952D01*
X116719066Y-183985380D01*
X117338114Y-183985380D01*
X116385733Y-185585380D02*
X116052400Y-185109190D01*
X115814304Y-185585380D02*
X115814304Y-184585380D01*
X116195257Y-184585380D01*
X116290495Y-184633000D01*
X116338114Y-184680619D01*
X116385733Y-184775857D01*
X116385733Y-184918714D01*
X116338114Y-185013952D01*
X116290495Y-185061571D01*
X116195257Y-185109190D01*
X115814304Y-185109190D01*
X117338114Y-185585380D02*
X116766685Y-185585380D01*
X117052400Y-185585380D02*
X117052400Y-184585380D01*
X116957161Y-184728238D01*
X116861923Y-184823476D01*
X116766685Y-184871095D01*
X84766666Y-178952380D02*
X84766666Y-179666666D01*
X84719047Y-179809523D01*
X84623809Y-179904761D01*
X84480952Y-179952380D01*
X84385714Y-179952380D01*
X85195238Y-179047619D02*
X85242857Y-179000000D01*
X85338095Y-178952380D01*
X85576190Y-178952380D01*
X85671428Y-179000000D01*
X85719047Y-179047619D01*
X85766666Y-179142857D01*
X85766666Y-179238095D01*
X85719047Y-179380952D01*
X85147619Y-179952380D01*
X85766666Y-179952380D01*
X106840257Y-175277942D02*
X106792638Y-175230323D01*
X106745019Y-175087466D01*
X106745019Y-174992228D01*
X106792638Y-174849371D01*
X106887876Y-174754133D01*
X106983114Y-174706514D01*
X107173590Y-174658895D01*
X107316447Y-174658895D01*
X107506923Y-174706514D01*
X107602161Y-174754133D01*
X107697400Y-174849371D01*
X107745019Y-174992228D01*
X107745019Y-175087466D01*
X107697400Y-175230323D01*
X107649780Y-175277942D01*
X106745019Y-176230323D02*
X106745019Y-175658895D01*
X106745019Y-175944609D02*
X107745019Y-175944609D01*
X107602161Y-175849371D01*
X107506923Y-175754133D01*
X107459304Y-175658895D01*
X107745019Y-176849371D02*
X107745019Y-176944609D01*
X107697400Y-177039847D01*
X107649780Y-177087466D01*
X107554542Y-177135085D01*
X107364066Y-177182704D01*
X107125971Y-177182704D01*
X106935495Y-177135085D01*
X106840257Y-177087466D01*
X106792638Y-177039847D01*
X106745019Y-176944609D01*
X106745019Y-176849371D01*
X106792638Y-176754133D01*
X106840257Y-176706514D01*
X106935495Y-176658895D01*
X107125971Y-176611276D01*
X107364066Y-176611276D01*
X107554542Y-176658895D01*
X107649780Y-176706514D01*
X107697400Y-176754133D01*
X107745019Y-176849371D01*
X105446257Y-176389133D02*
X105398638Y-176341514D01*
X105351019Y-176198657D01*
X105351019Y-176103419D01*
X105398638Y-175960561D01*
X105493876Y-175865323D01*
X105589114Y-175817704D01*
X105779590Y-175770085D01*
X105922447Y-175770085D01*
X106112923Y-175817704D01*
X106208161Y-175865323D01*
X106303400Y-175960561D01*
X106351019Y-176103419D01*
X106351019Y-176198657D01*
X106303400Y-176341514D01*
X106255780Y-176389133D01*
X105351019Y-176865323D02*
X105351019Y-177055800D01*
X105398638Y-177151038D01*
X105446257Y-177198657D01*
X105589114Y-177293895D01*
X105779590Y-177341514D01*
X106160542Y-177341514D01*
X106255780Y-177293895D01*
X106303400Y-177246276D01*
X106351019Y-177151038D01*
X106351019Y-176960561D01*
X106303400Y-176865323D01*
X106255780Y-176817704D01*
X106160542Y-176770085D01*
X105922447Y-176770085D01*
X105827209Y-176817704D01*
X105779590Y-176865323D01*
X105731971Y-176960561D01*
X105731971Y-177151038D01*
X105779590Y-177246276D01*
X105827209Y-177293895D01*
X105922447Y-177341514D01*
X124076533Y-174290142D02*
X124028914Y-174337761D01*
X123886057Y-174385380D01*
X123790819Y-174385380D01*
X123647961Y-174337761D01*
X123552723Y-174242523D01*
X123505104Y-174147285D01*
X123457485Y-173956809D01*
X123457485Y-173813952D01*
X123505104Y-173623476D01*
X123552723Y-173528238D01*
X123647961Y-173433000D01*
X123790819Y-173385380D01*
X123886057Y-173385380D01*
X124028914Y-173433000D01*
X124076533Y-173480619D01*
X124647961Y-173813952D02*
X124552723Y-173766333D01*
X124505104Y-173718714D01*
X124457485Y-173623476D01*
X124457485Y-173575857D01*
X124505104Y-173480619D01*
X124552723Y-173433000D01*
X124647961Y-173385380D01*
X124838438Y-173385380D01*
X124933676Y-173433000D01*
X124981295Y-173480619D01*
X125028914Y-173575857D01*
X125028914Y-173623476D01*
X124981295Y-173718714D01*
X124933676Y-173766333D01*
X124838438Y-173813952D01*
X124647961Y-173813952D01*
X124552723Y-173861571D01*
X124505104Y-173909190D01*
X124457485Y-174004428D01*
X124457485Y-174194904D01*
X124505104Y-174290142D01*
X124552723Y-174337761D01*
X124647961Y-174385380D01*
X124838438Y-174385380D01*
X124933676Y-174337761D01*
X124981295Y-174290142D01*
X125028914Y-174194904D01*
X125028914Y-174004428D01*
X124981295Y-173909190D01*
X124933676Y-173861571D01*
X124838438Y-173813952D01*
X124076533Y-175890142D02*
X124028914Y-175937761D01*
X123886057Y-175985380D01*
X123790819Y-175985380D01*
X123647961Y-175937761D01*
X123552723Y-175842523D01*
X123505104Y-175747285D01*
X123457485Y-175556809D01*
X123457485Y-175413952D01*
X123505104Y-175223476D01*
X123552723Y-175128238D01*
X123647961Y-175033000D01*
X123790819Y-174985380D01*
X123886057Y-174985380D01*
X124028914Y-175033000D01*
X124076533Y-175080619D01*
X124409866Y-174985380D02*
X125076533Y-174985380D01*
X124647961Y-175985380D01*
X124076533Y-177490142D02*
X124028914Y-177537761D01*
X123886057Y-177585380D01*
X123790819Y-177585380D01*
X123647961Y-177537761D01*
X123552723Y-177442523D01*
X123505104Y-177347285D01*
X123457485Y-177156809D01*
X123457485Y-177013952D01*
X123505104Y-176823476D01*
X123552723Y-176728238D01*
X123647961Y-176633000D01*
X123790819Y-176585380D01*
X123886057Y-176585380D01*
X124028914Y-176633000D01*
X124076533Y-176680619D01*
X124933676Y-176585380D02*
X124743200Y-176585380D01*
X124647961Y-176633000D01*
X124600342Y-176680619D01*
X124505104Y-176823476D01*
X124457485Y-177013952D01*
X124457485Y-177394904D01*
X124505104Y-177490142D01*
X124552723Y-177537761D01*
X124647961Y-177585380D01*
X124838438Y-177585380D01*
X124933676Y-177537761D01*
X124981295Y-177490142D01*
X125028914Y-177394904D01*
X125028914Y-177156809D01*
X124981295Y-177061571D01*
X124933676Y-177013952D01*
X124838438Y-176966333D01*
X124647961Y-176966333D01*
X124552723Y-177013952D01*
X124505104Y-177061571D01*
X124457485Y-177156809D01*
X124076533Y-179090142D02*
X124028914Y-179137761D01*
X123886057Y-179185380D01*
X123790819Y-179185380D01*
X123647961Y-179137761D01*
X123552723Y-179042523D01*
X123505104Y-178947285D01*
X123457485Y-178756809D01*
X123457485Y-178613952D01*
X123505104Y-178423476D01*
X123552723Y-178328238D01*
X123647961Y-178233000D01*
X123790819Y-178185380D01*
X123886057Y-178185380D01*
X124028914Y-178233000D01*
X124076533Y-178280619D01*
X124981295Y-178185380D02*
X124505104Y-178185380D01*
X124457485Y-178661571D01*
X124505104Y-178613952D01*
X124600342Y-178566333D01*
X124838438Y-178566333D01*
X124933676Y-178613952D01*
X124981295Y-178661571D01*
X125028914Y-178756809D01*
X125028914Y-178994904D01*
X124981295Y-179090142D01*
X124933676Y-179137761D01*
X124838438Y-179185380D01*
X124600342Y-179185380D01*
X124505104Y-179137761D01*
X124457485Y-179090142D01*
X124076533Y-180590142D02*
X124028914Y-180637761D01*
X123886057Y-180685380D01*
X123790819Y-180685380D01*
X123647961Y-180637761D01*
X123552723Y-180542523D01*
X123505104Y-180447285D01*
X123457485Y-180256809D01*
X123457485Y-180113952D01*
X123505104Y-179923476D01*
X123552723Y-179828238D01*
X123647961Y-179733000D01*
X123790819Y-179685380D01*
X123886057Y-179685380D01*
X124028914Y-179733000D01*
X124076533Y-179780619D01*
X124933676Y-180018714D02*
X124933676Y-180685380D01*
X124695580Y-179637761D02*
X124457485Y-180352047D01*
X125076533Y-180352047D01*
X124076533Y-182290142D02*
X124028914Y-182337761D01*
X123886057Y-182385380D01*
X123790819Y-182385380D01*
X123647961Y-182337761D01*
X123552723Y-182242523D01*
X123505104Y-182147285D01*
X123457485Y-181956809D01*
X123457485Y-181813952D01*
X123505104Y-181623476D01*
X123552723Y-181528238D01*
X123647961Y-181433000D01*
X123790819Y-181385380D01*
X123886057Y-181385380D01*
X124028914Y-181433000D01*
X124076533Y-181480619D01*
X124409866Y-181385380D02*
X125028914Y-181385380D01*
X124695580Y-181766333D01*
X124838438Y-181766333D01*
X124933676Y-181813952D01*
X124981295Y-181861571D01*
X125028914Y-181956809D01*
X125028914Y-182194904D01*
X124981295Y-182290142D01*
X124933676Y-182337761D01*
X124838438Y-182385380D01*
X124552723Y-182385380D01*
X124457485Y-182337761D01*
X124409866Y-182290142D01*
X124076533Y-183890142D02*
X124028914Y-183937761D01*
X123886057Y-183985380D01*
X123790819Y-183985380D01*
X123647961Y-183937761D01*
X123552723Y-183842523D01*
X123505104Y-183747285D01*
X123457485Y-183556809D01*
X123457485Y-183413952D01*
X123505104Y-183223476D01*
X123552723Y-183128238D01*
X123647961Y-183033000D01*
X123790819Y-182985380D01*
X123886057Y-182985380D01*
X124028914Y-183033000D01*
X124076533Y-183080619D01*
X124457485Y-183080619D02*
X124505104Y-183033000D01*
X124600342Y-182985380D01*
X124838438Y-182985380D01*
X124933676Y-183033000D01*
X124981295Y-183080619D01*
X125028914Y-183175857D01*
X125028914Y-183271095D01*
X124981295Y-183413952D01*
X124409866Y-183985380D01*
X125028914Y-183985380D01*
X123976533Y-185590142D02*
X123928914Y-185637761D01*
X123786057Y-185685380D01*
X123690819Y-185685380D01*
X123547961Y-185637761D01*
X123452723Y-185542523D01*
X123405104Y-185447285D01*
X123357485Y-185256809D01*
X123357485Y-185113952D01*
X123405104Y-184923476D01*
X123452723Y-184828238D01*
X123547961Y-184733000D01*
X123690819Y-184685380D01*
X123786057Y-184685380D01*
X123928914Y-184733000D01*
X123976533Y-184780619D01*
X124928914Y-185685380D02*
X124357485Y-185685380D01*
X124643200Y-185685380D02*
X124643200Y-184685380D01*
X124547961Y-184828238D01*
X124452723Y-184923476D01*
X124357485Y-184971095D01*
X131911885Y-69050180D02*
X132483314Y-69050180D01*
X132197600Y-70050180D02*
X132197600Y-69050180D01*
X132816647Y-70050180D02*
X132816647Y-69050180D01*
X132816647Y-69526371D02*
X133388076Y-69526371D01*
X133388076Y-70050180D02*
X133388076Y-69050180D01*
X134340457Y-69050180D02*
X133864266Y-69050180D01*
X133816647Y-69526371D01*
X133864266Y-69478752D01*
X133959504Y-69431133D01*
X134197600Y-69431133D01*
X134292838Y-69478752D01*
X134340457Y-69526371D01*
X134388076Y-69621609D01*
X134388076Y-69859704D01*
X134340457Y-69954942D01*
X134292838Y-70002561D01*
X134197600Y-70050180D01*
X133959504Y-70050180D01*
X133864266Y-70002561D01*
X133816647Y-69954942D01*
X102803485Y-86015580D02*
X103374914Y-86015580D01*
X103089200Y-87015580D02*
X103089200Y-86015580D01*
X103708247Y-87015580D02*
X103708247Y-86015580D01*
X103708247Y-86491771D02*
X104279676Y-86491771D01*
X104279676Y-87015580D02*
X104279676Y-86015580D01*
X105184438Y-86348914D02*
X105184438Y-87015580D01*
X104946342Y-85967961D02*
X104708247Y-86682247D01*
X105327295Y-86682247D01*
X92745085Y-102806780D02*
X93316514Y-102806780D01*
X93030800Y-103806780D02*
X93030800Y-102806780D01*
X93649847Y-103806780D02*
X93649847Y-102806780D01*
X93649847Y-103282971D02*
X94221276Y-103282971D01*
X94221276Y-103806780D02*
X94221276Y-102806780D01*
X94602228Y-102806780D02*
X95221276Y-102806780D01*
X94887942Y-103187733D01*
X95030800Y-103187733D01*
X95126038Y-103235352D01*
X95173657Y-103282971D01*
X95221276Y-103378209D01*
X95221276Y-103616304D01*
X95173657Y-103711542D01*
X95126038Y-103759161D01*
X95030800Y-103806780D01*
X94745085Y-103806780D01*
X94649847Y-103759161D01*
X94602228Y-103711542D01*
X44129485Y-119545380D02*
X44700914Y-119545380D01*
X44415200Y-120545380D02*
X44415200Y-119545380D01*
X45034247Y-120545380D02*
X45034247Y-119545380D01*
X45034247Y-120021571D02*
X45605676Y-120021571D01*
X45605676Y-120545380D02*
X45605676Y-119545380D01*
X46034247Y-119640619D02*
X46081866Y-119593000D01*
X46177104Y-119545380D01*
X46415200Y-119545380D01*
X46510438Y-119593000D01*
X46558057Y-119640619D01*
X46605676Y-119735857D01*
X46605676Y-119831095D01*
X46558057Y-119973952D01*
X45986628Y-120545380D01*
X46605676Y-120545380D01*
X24546085Y-152743180D02*
X25117514Y-152743180D01*
X24831800Y-153743180D02*
X24831800Y-152743180D01*
X25450847Y-153743180D02*
X25450847Y-152743180D01*
X25450847Y-153219371D02*
X26022276Y-153219371D01*
X26022276Y-153743180D02*
X26022276Y-152743180D01*
X27022276Y-153743180D02*
X26450847Y-153743180D01*
X26736561Y-153743180D02*
X26736561Y-152743180D01*
X26641323Y-152886038D01*
X26546085Y-152981276D01*
X26450847Y-153028895D01*
M02*
