G04 #@! TF.GenerationSoftware,KiCad,Pcbnew,6.0.0-rc1-unknown-5edf350~66~ubuntu18.10.1*
G04 #@! TF.CreationDate,2019-02-07T09:33:03-05:00
G04 #@! TF.ProjectId,Pack,5061636b-2e6b-4696-9361-645f70636258,rev?*
G04 #@! TF.SameCoordinates,Original*
G04 #@! TF.FileFunction,Soldermask,Top*
G04 #@! TF.FilePolarity,Negative*
%FSLAX46Y46*%
G04 Gerber Fmt 4.6, Leading zero omitted, Abs format (unit mm)*
G04 Created by KiCad (PCBNEW 6.0.0-rc1-unknown-5edf350~66~ubuntu18.10.1) date 2019-02-07 09:33:03*
%MOMM*%
%LPD*%
G04 APERTURE LIST*
%ADD10C,0.100000*%
G04 APERTURE END LIST*
D10*
G36*
X20889943Y-92025248D02*
G01*
X21445189Y-92255238D01*
X21693347Y-92421052D01*
X21944899Y-92589134D01*
X22369866Y-93014101D01*
X22369867Y-93014103D01*
X22703762Y-93513811D01*
X22933752Y-94069057D01*
X23051000Y-94658501D01*
X23051000Y-95259499D01*
X22933752Y-95848943D01*
X22703762Y-96404189D01*
X22703761Y-96404190D01*
X22369866Y-96903899D01*
X21944899Y-97328866D01*
X21693347Y-97496948D01*
X21445189Y-97662762D01*
X20889943Y-97892752D01*
X20300499Y-98010000D01*
X19699501Y-98010000D01*
X19110057Y-97892752D01*
X18554811Y-97662762D01*
X18306653Y-97496948D01*
X18055101Y-97328866D01*
X17630134Y-96903899D01*
X17296239Y-96404190D01*
X17296238Y-96404189D01*
X17066248Y-95848943D01*
X16949000Y-95259499D01*
X16949000Y-94658501D01*
X17066248Y-94069057D01*
X17296238Y-93513811D01*
X17630133Y-93014103D01*
X17630134Y-93014101D01*
X18055101Y-92589134D01*
X18306653Y-92421052D01*
X18554811Y-92255238D01*
X19110057Y-92025248D01*
X19699501Y-91908000D01*
X20300499Y-91908000D01*
X20889943Y-92025248D01*
X20889943Y-92025248D01*
G37*
G36*
X40889943Y-92025248D02*
G01*
X41445189Y-92255238D01*
X41693347Y-92421052D01*
X41944899Y-92589134D01*
X42369866Y-93014101D01*
X42369867Y-93014103D01*
X42703762Y-93513811D01*
X42933752Y-94069057D01*
X43051000Y-94658501D01*
X43051000Y-95259499D01*
X42933752Y-95848943D01*
X42703762Y-96404189D01*
X42703761Y-96404190D01*
X42369866Y-96903899D01*
X41944899Y-97328866D01*
X41693347Y-97496948D01*
X41445189Y-97662762D01*
X40889943Y-97892752D01*
X40300499Y-98010000D01*
X39699501Y-98010000D01*
X39110057Y-97892752D01*
X38554811Y-97662762D01*
X38306653Y-97496948D01*
X38055101Y-97328866D01*
X37630134Y-96903899D01*
X37296239Y-96404190D01*
X37296238Y-96404189D01*
X37066248Y-95848943D01*
X36949000Y-95259499D01*
X36949000Y-94658501D01*
X37066248Y-94069057D01*
X37296238Y-93513811D01*
X37630133Y-93014103D01*
X37630134Y-93014101D01*
X38055101Y-92589134D01*
X38306653Y-92421052D01*
X38554811Y-92255238D01*
X39110057Y-92025248D01*
X39699501Y-91908000D01*
X40300499Y-91908000D01*
X40889943Y-92025248D01*
X40889943Y-92025248D01*
G37*
G36*
X60889943Y-92025248D02*
G01*
X61445189Y-92255238D01*
X61693347Y-92421052D01*
X61944899Y-92589134D01*
X62369866Y-93014101D01*
X62369867Y-93014103D01*
X62703762Y-93513811D01*
X62933752Y-94069057D01*
X63051000Y-94658501D01*
X63051000Y-95259499D01*
X62933752Y-95848943D01*
X62703762Y-96404189D01*
X62703761Y-96404190D01*
X62369866Y-96903899D01*
X61944899Y-97328866D01*
X61693347Y-97496948D01*
X61445189Y-97662762D01*
X60889943Y-97892752D01*
X60300499Y-98010000D01*
X59699501Y-98010000D01*
X59110057Y-97892752D01*
X58554811Y-97662762D01*
X58306653Y-97496948D01*
X58055101Y-97328866D01*
X57630134Y-96903899D01*
X57296239Y-96404190D01*
X57296238Y-96404189D01*
X57066248Y-95848943D01*
X56949000Y-95259499D01*
X56949000Y-94658501D01*
X57066248Y-94069057D01*
X57296238Y-93513811D01*
X57630133Y-93014103D01*
X57630134Y-93014101D01*
X58055101Y-92589134D01*
X58306653Y-92421052D01*
X58554811Y-92255238D01*
X59110057Y-92025248D01*
X59699501Y-91908000D01*
X60300499Y-91908000D01*
X60889943Y-92025248D01*
X60889943Y-92025248D01*
G37*
G36*
X100889943Y-92025248D02*
G01*
X101445189Y-92255238D01*
X101693347Y-92421052D01*
X101944899Y-92589134D01*
X102369866Y-93014101D01*
X102369867Y-93014103D01*
X102703762Y-93513811D01*
X102933752Y-94069057D01*
X103051000Y-94658501D01*
X103051000Y-95259499D01*
X102933752Y-95848943D01*
X102703762Y-96404189D01*
X102703761Y-96404190D01*
X102369866Y-96903899D01*
X101944899Y-97328866D01*
X101693347Y-97496948D01*
X101445189Y-97662762D01*
X100889943Y-97892752D01*
X100300499Y-98010000D01*
X99699501Y-98010000D01*
X99110057Y-97892752D01*
X98554811Y-97662762D01*
X98306653Y-97496948D01*
X98055101Y-97328866D01*
X97630134Y-96903899D01*
X97296239Y-96404190D01*
X97296238Y-96404189D01*
X97066248Y-95848943D01*
X96949000Y-95259499D01*
X96949000Y-94658501D01*
X97066248Y-94069057D01*
X97296238Y-93513811D01*
X97630133Y-93014103D01*
X97630134Y-93014101D01*
X98055101Y-92589134D01*
X98306653Y-92421052D01*
X98554811Y-92255238D01*
X99110057Y-92025248D01*
X99699501Y-91908000D01*
X100300499Y-91908000D01*
X100889943Y-92025248D01*
X100889943Y-92025248D01*
G37*
G36*
X889943Y-92025248D02*
G01*
X1445189Y-92255238D01*
X1693347Y-92421052D01*
X1944899Y-92589134D01*
X2369866Y-93014101D01*
X2369867Y-93014103D01*
X2703762Y-93513811D01*
X2933752Y-94069057D01*
X3051000Y-94658501D01*
X3051000Y-95259499D01*
X2933752Y-95848943D01*
X2703762Y-96404189D01*
X2703761Y-96404190D01*
X2369866Y-96903899D01*
X1944899Y-97328866D01*
X1693347Y-97496948D01*
X1445189Y-97662762D01*
X889943Y-97892752D01*
X300499Y-98010000D01*
X-300499Y-98010000D01*
X-889943Y-97892752D01*
X-1445189Y-97662762D01*
X-1693347Y-97496948D01*
X-1944899Y-97328866D01*
X-2369866Y-96903899D01*
X-2703761Y-96404190D01*
X-2703762Y-96404189D01*
X-2933752Y-95848943D01*
X-3051000Y-95259499D01*
X-3051000Y-94658501D01*
X-2933752Y-94069057D01*
X-2703762Y-93513811D01*
X-2369867Y-93014103D01*
X-2369866Y-93014101D01*
X-1944899Y-92589134D01*
X-1693347Y-92421052D01*
X-1445189Y-92255238D01*
X-889943Y-92025248D01*
X-300499Y-91908000D01*
X300499Y-91908000D01*
X889943Y-92025248D01*
X889943Y-92025248D01*
G37*
G36*
X80889943Y-92025248D02*
G01*
X81445189Y-92255238D01*
X81693347Y-92421052D01*
X81944899Y-92589134D01*
X82369866Y-93014101D01*
X82369867Y-93014103D01*
X82703762Y-93513811D01*
X82933752Y-94069057D01*
X83051000Y-94658501D01*
X83051000Y-95259499D01*
X82933752Y-95848943D01*
X82703762Y-96404189D01*
X82703761Y-96404190D01*
X82369866Y-96903899D01*
X81944899Y-97328866D01*
X81693347Y-97496948D01*
X81445189Y-97662762D01*
X80889943Y-97892752D01*
X80300499Y-98010000D01*
X79699501Y-98010000D01*
X79110057Y-97892752D01*
X78554811Y-97662762D01*
X78306653Y-97496948D01*
X78055101Y-97328866D01*
X77630134Y-96903899D01*
X77296239Y-96404190D01*
X77296238Y-96404189D01*
X77066248Y-95848943D01*
X76949000Y-95259499D01*
X76949000Y-94658501D01*
X77066248Y-94069057D01*
X77296238Y-93513811D01*
X77630133Y-93014103D01*
X77630134Y-93014101D01*
X78055101Y-92589134D01*
X78306653Y-92421052D01*
X78554811Y-92255238D01*
X79110057Y-92025248D01*
X79699501Y-91908000D01*
X80300499Y-91908000D01*
X80889943Y-92025248D01*
X80889943Y-92025248D01*
G37*
G36*
X30334696Y-87532992D02*
G01*
X30947519Y-87654890D01*
X30968938Y-87661388D01*
X31546206Y-87900500D01*
X31565951Y-87911054D01*
X32085480Y-88258192D01*
X32102785Y-88272393D01*
X32544607Y-88714215D01*
X32558808Y-88731520D01*
X32905946Y-89251049D01*
X32916500Y-89270794D01*
X33155612Y-89848062D01*
X33162110Y-89869481D01*
X33284008Y-90482304D01*
X33286202Y-90504584D01*
X33286202Y-91129416D01*
X33284008Y-91151696D01*
X33162110Y-91764519D01*
X33155612Y-91785938D01*
X32916500Y-92363206D01*
X32905946Y-92382951D01*
X32572918Y-92881363D01*
X32561367Y-92902974D01*
X32554254Y-92926423D01*
X32551852Y-92950809D01*
X32551852Y-95810860D01*
X32550263Y-95826999D01*
X32547348Y-95836608D01*
X32542610Y-95845472D01*
X32536237Y-95853237D01*
X32528472Y-95859610D01*
X32519608Y-95864348D01*
X32509999Y-95867263D01*
X32493860Y-95868852D01*
X27506140Y-95868852D01*
X27490001Y-95867263D01*
X27480392Y-95864348D01*
X27471528Y-95859610D01*
X27463763Y-95853237D01*
X27457390Y-95845472D01*
X27452652Y-95836608D01*
X27449737Y-95826999D01*
X27448148Y-95810860D01*
X27448148Y-92950809D01*
X27445746Y-92926423D01*
X27438633Y-92902974D01*
X27427082Y-92881363D01*
X27094054Y-92382951D01*
X27083500Y-92363206D01*
X26844388Y-91785938D01*
X26837890Y-91764519D01*
X26715992Y-91151696D01*
X26713798Y-91129416D01*
X26713798Y-90504584D01*
X26715992Y-90482304D01*
X26837890Y-89869481D01*
X26844388Y-89848062D01*
X27083500Y-89270794D01*
X27094054Y-89251049D01*
X27441192Y-88731520D01*
X27455393Y-88714215D01*
X27897215Y-88272393D01*
X27914520Y-88258192D01*
X28434049Y-87911054D01*
X28453794Y-87900500D01*
X29031062Y-87661388D01*
X29052481Y-87654890D01*
X29665304Y-87532992D01*
X29687584Y-87530798D01*
X30312416Y-87530798D01*
X30334696Y-87532992D01*
X30334696Y-87532992D01*
G37*
G36*
X70334696Y-87532992D02*
G01*
X70947519Y-87654890D01*
X70968938Y-87661388D01*
X71546206Y-87900500D01*
X71565951Y-87911054D01*
X72085480Y-88258192D01*
X72102785Y-88272393D01*
X72544607Y-88714215D01*
X72558808Y-88731520D01*
X72905946Y-89251049D01*
X72916500Y-89270794D01*
X73155612Y-89848062D01*
X73162110Y-89869481D01*
X73284008Y-90482304D01*
X73286202Y-90504584D01*
X73286202Y-91129416D01*
X73284008Y-91151696D01*
X73162110Y-91764519D01*
X73155612Y-91785938D01*
X72916500Y-92363206D01*
X72905946Y-92382951D01*
X72572918Y-92881363D01*
X72561367Y-92902974D01*
X72554254Y-92926423D01*
X72551852Y-92950809D01*
X72551852Y-95810860D01*
X72550263Y-95826999D01*
X72547348Y-95836608D01*
X72542610Y-95845472D01*
X72536237Y-95853237D01*
X72528472Y-95859610D01*
X72519608Y-95864348D01*
X72509999Y-95867263D01*
X72493860Y-95868852D01*
X67506140Y-95868852D01*
X67490001Y-95867263D01*
X67480392Y-95864348D01*
X67471528Y-95859610D01*
X67463763Y-95853237D01*
X67457390Y-95845472D01*
X67452652Y-95836608D01*
X67449737Y-95826999D01*
X67448148Y-95810860D01*
X67448148Y-92950809D01*
X67445746Y-92926423D01*
X67438633Y-92902974D01*
X67427082Y-92881363D01*
X67094054Y-92382951D01*
X67083500Y-92363206D01*
X66844388Y-91785938D01*
X66837890Y-91764519D01*
X66715992Y-91151696D01*
X66713798Y-91129416D01*
X66713798Y-90504584D01*
X66715992Y-90482304D01*
X66837890Y-89869481D01*
X66844388Y-89848062D01*
X67083500Y-89270794D01*
X67094054Y-89251049D01*
X67441192Y-88731520D01*
X67455393Y-88714215D01*
X67897215Y-88272393D01*
X67914520Y-88258192D01*
X68434049Y-87911054D01*
X68453794Y-87900500D01*
X69031062Y-87661388D01*
X69052481Y-87654890D01*
X69665304Y-87532992D01*
X69687584Y-87530798D01*
X70312416Y-87530798D01*
X70334696Y-87532992D01*
X70334696Y-87532992D01*
G37*
G36*
X90334696Y-87532992D02*
G01*
X90947519Y-87654890D01*
X90968938Y-87661388D01*
X91546206Y-87900500D01*
X91565951Y-87911054D01*
X92085480Y-88258192D01*
X92102785Y-88272393D01*
X92544607Y-88714215D01*
X92558808Y-88731520D01*
X92905946Y-89251049D01*
X92916500Y-89270794D01*
X93155612Y-89848062D01*
X93162110Y-89869481D01*
X93284008Y-90482304D01*
X93286202Y-90504584D01*
X93286202Y-91129416D01*
X93284008Y-91151696D01*
X93162110Y-91764519D01*
X93155612Y-91785938D01*
X92916500Y-92363206D01*
X92905946Y-92382951D01*
X92572918Y-92881363D01*
X92561367Y-92902974D01*
X92554254Y-92926423D01*
X92551852Y-92950809D01*
X92551852Y-95810860D01*
X92550263Y-95826999D01*
X92547348Y-95836608D01*
X92542610Y-95845472D01*
X92536237Y-95853237D01*
X92528472Y-95859610D01*
X92519608Y-95864348D01*
X92509999Y-95867263D01*
X92493860Y-95868852D01*
X87506140Y-95868852D01*
X87490001Y-95867263D01*
X87480392Y-95864348D01*
X87471528Y-95859610D01*
X87463763Y-95853237D01*
X87457390Y-95845472D01*
X87452652Y-95836608D01*
X87449737Y-95826999D01*
X87448148Y-95810860D01*
X87448148Y-92950809D01*
X87445746Y-92926423D01*
X87438633Y-92902974D01*
X87427082Y-92881363D01*
X87094054Y-92382951D01*
X87083500Y-92363206D01*
X86844388Y-91785938D01*
X86837890Y-91764519D01*
X86715992Y-91151696D01*
X86713798Y-91129416D01*
X86713798Y-90504584D01*
X86715992Y-90482304D01*
X86837890Y-89869481D01*
X86844388Y-89848062D01*
X87083500Y-89270794D01*
X87094054Y-89251049D01*
X87441192Y-88731520D01*
X87455393Y-88714215D01*
X87897215Y-88272393D01*
X87914520Y-88258192D01*
X88434049Y-87911054D01*
X88453794Y-87900500D01*
X89031062Y-87661388D01*
X89052481Y-87654890D01*
X89665304Y-87532992D01*
X89687584Y-87530798D01*
X90312416Y-87530798D01*
X90334696Y-87532992D01*
X90334696Y-87532992D01*
G37*
G36*
X50334696Y-87532992D02*
G01*
X50947519Y-87654890D01*
X50968938Y-87661388D01*
X51546206Y-87900500D01*
X51565951Y-87911054D01*
X52085480Y-88258192D01*
X52102785Y-88272393D01*
X52544607Y-88714215D01*
X52558808Y-88731520D01*
X52905946Y-89251049D01*
X52916500Y-89270794D01*
X53155612Y-89848062D01*
X53162110Y-89869481D01*
X53284008Y-90482304D01*
X53286202Y-90504584D01*
X53286202Y-91129416D01*
X53284008Y-91151696D01*
X53162110Y-91764519D01*
X53155612Y-91785938D01*
X52916500Y-92363206D01*
X52905946Y-92382951D01*
X52572918Y-92881363D01*
X52561367Y-92902974D01*
X52554254Y-92926423D01*
X52551852Y-92950809D01*
X52551852Y-95810860D01*
X52550263Y-95826999D01*
X52547348Y-95836608D01*
X52542610Y-95845472D01*
X52536237Y-95853237D01*
X52528472Y-95859610D01*
X52519608Y-95864348D01*
X52509999Y-95867263D01*
X52493860Y-95868852D01*
X47506140Y-95868852D01*
X47490001Y-95867263D01*
X47480392Y-95864348D01*
X47471528Y-95859610D01*
X47463763Y-95853237D01*
X47457390Y-95845472D01*
X47452652Y-95836608D01*
X47449737Y-95826999D01*
X47448148Y-95810860D01*
X47448148Y-92950809D01*
X47445746Y-92926423D01*
X47438633Y-92902974D01*
X47427082Y-92881363D01*
X47094054Y-92382951D01*
X47083500Y-92363206D01*
X46844388Y-91785938D01*
X46837890Y-91764519D01*
X46715992Y-91151696D01*
X46713798Y-91129416D01*
X46713798Y-90504584D01*
X46715992Y-90482304D01*
X46837890Y-89869481D01*
X46844388Y-89848062D01*
X47083500Y-89270794D01*
X47094054Y-89251049D01*
X47441192Y-88731520D01*
X47455393Y-88714215D01*
X47897215Y-88272393D01*
X47914520Y-88258192D01*
X48434049Y-87911054D01*
X48453794Y-87900500D01*
X49031062Y-87661388D01*
X49052481Y-87654890D01*
X49665304Y-87532992D01*
X49687584Y-87530798D01*
X50312416Y-87530798D01*
X50334696Y-87532992D01*
X50334696Y-87532992D01*
G37*
G36*
X10334696Y-87532992D02*
G01*
X10947519Y-87654890D01*
X10968938Y-87661388D01*
X11546206Y-87900500D01*
X11565951Y-87911054D01*
X12085480Y-88258192D01*
X12102785Y-88272393D01*
X12544607Y-88714215D01*
X12558808Y-88731520D01*
X12905946Y-89251049D01*
X12916500Y-89270794D01*
X13155612Y-89848062D01*
X13162110Y-89869481D01*
X13284008Y-90482304D01*
X13286202Y-90504584D01*
X13286202Y-91129416D01*
X13284008Y-91151696D01*
X13162110Y-91764519D01*
X13155612Y-91785938D01*
X12916500Y-92363206D01*
X12905946Y-92382951D01*
X12572918Y-92881363D01*
X12561367Y-92902974D01*
X12554254Y-92926423D01*
X12551852Y-92950809D01*
X12551852Y-95810860D01*
X12550263Y-95826999D01*
X12547348Y-95836608D01*
X12542610Y-95845472D01*
X12536237Y-95853237D01*
X12528472Y-95859610D01*
X12519608Y-95864348D01*
X12509999Y-95867263D01*
X12493860Y-95868852D01*
X7506140Y-95868852D01*
X7490001Y-95867263D01*
X7480392Y-95864348D01*
X7471528Y-95859610D01*
X7463763Y-95853237D01*
X7457390Y-95845472D01*
X7452652Y-95836608D01*
X7449737Y-95826999D01*
X7448148Y-95810860D01*
X7448148Y-92950809D01*
X7445746Y-92926423D01*
X7438633Y-92902974D01*
X7427082Y-92881363D01*
X7094054Y-92382951D01*
X7083500Y-92363206D01*
X6844388Y-91785938D01*
X6837890Y-91764519D01*
X6715992Y-91151696D01*
X6713798Y-91129416D01*
X6713798Y-90504584D01*
X6715992Y-90482304D01*
X6837890Y-89869481D01*
X6844388Y-89848062D01*
X7083500Y-89270794D01*
X7094054Y-89251049D01*
X7441192Y-88731520D01*
X7455393Y-88714215D01*
X7897215Y-88272393D01*
X7914520Y-88258192D01*
X8434049Y-87911054D01*
X8453794Y-87900500D01*
X9031062Y-87661388D01*
X9052481Y-87654890D01*
X9665304Y-87532992D01*
X9687584Y-87530798D01*
X10312416Y-87530798D01*
X10334696Y-87532992D01*
X10334696Y-87532992D01*
G37*
G36*
X25401000Y-92901000D02*
G01*
X23599000Y-92901000D01*
X23599000Y-91099000D01*
X25401000Y-91099000D01*
X25401000Y-92901000D01*
X25401000Y-92901000D01*
G37*
G36*
X60889943Y-83372248D02*
G01*
X61445189Y-83602238D01*
X61445190Y-83602239D01*
X61944899Y-83936134D01*
X62369866Y-84361101D01*
X62369867Y-84361103D01*
X62703762Y-84860811D01*
X62933752Y-85416057D01*
X63051000Y-86005501D01*
X63051000Y-86606499D01*
X62933752Y-87195943D01*
X62703762Y-87751189D01*
X62703761Y-87751190D01*
X62369866Y-88250899D01*
X61944899Y-88675866D01*
X61880367Y-88718985D01*
X61445189Y-89009762D01*
X60889943Y-89239752D01*
X60300499Y-89357000D01*
X59699501Y-89357000D01*
X59110057Y-89239752D01*
X58554811Y-89009762D01*
X58119633Y-88718985D01*
X58055101Y-88675866D01*
X57630134Y-88250899D01*
X57296239Y-87751190D01*
X57296238Y-87751189D01*
X57066248Y-87195943D01*
X56949000Y-86606499D01*
X56949000Y-86005501D01*
X57066248Y-85416057D01*
X57296238Y-84860811D01*
X57630133Y-84361103D01*
X57630134Y-84361101D01*
X58055101Y-83936134D01*
X58554810Y-83602239D01*
X58554811Y-83602238D01*
X59110057Y-83372248D01*
X59699501Y-83255000D01*
X60300499Y-83255000D01*
X60889943Y-83372248D01*
X60889943Y-83372248D01*
G37*
G36*
X100889943Y-83372248D02*
G01*
X101445189Y-83602238D01*
X101445190Y-83602239D01*
X101944899Y-83936134D01*
X102369866Y-84361101D01*
X102369867Y-84361103D01*
X102703762Y-84860811D01*
X102933752Y-85416057D01*
X103051000Y-86005501D01*
X103051000Y-86606499D01*
X102933752Y-87195943D01*
X102703762Y-87751189D01*
X102703761Y-87751190D01*
X102369866Y-88250899D01*
X101944899Y-88675866D01*
X101880367Y-88718985D01*
X101445189Y-89009762D01*
X100889943Y-89239752D01*
X100300499Y-89357000D01*
X99699501Y-89357000D01*
X99110057Y-89239752D01*
X98554811Y-89009762D01*
X98119633Y-88718985D01*
X98055101Y-88675866D01*
X97630134Y-88250899D01*
X97296239Y-87751190D01*
X97296238Y-87751189D01*
X97066248Y-87195943D01*
X96949000Y-86606499D01*
X96949000Y-86005501D01*
X97066248Y-85416057D01*
X97296238Y-84860811D01*
X97630133Y-84361103D01*
X97630134Y-84361101D01*
X98055101Y-83936134D01*
X98554810Y-83602239D01*
X98554811Y-83602238D01*
X99110057Y-83372248D01*
X99699501Y-83255000D01*
X100300499Y-83255000D01*
X100889943Y-83372248D01*
X100889943Y-83372248D01*
G37*
G36*
X889943Y-83372248D02*
G01*
X1445189Y-83602238D01*
X1445190Y-83602239D01*
X1944899Y-83936134D01*
X2369866Y-84361101D01*
X2369867Y-84361103D01*
X2703762Y-84860811D01*
X2933752Y-85416057D01*
X3051000Y-86005501D01*
X3051000Y-86606499D01*
X2933752Y-87195943D01*
X2703762Y-87751189D01*
X2703761Y-87751190D01*
X2369866Y-88250899D01*
X1944899Y-88675866D01*
X1880367Y-88718985D01*
X1445189Y-89009762D01*
X889943Y-89239752D01*
X300499Y-89357000D01*
X-300499Y-89357000D01*
X-889943Y-89239752D01*
X-1445189Y-89009762D01*
X-1880367Y-88718985D01*
X-1944899Y-88675866D01*
X-2369866Y-88250899D01*
X-2703761Y-87751190D01*
X-2703762Y-87751189D01*
X-2933752Y-87195943D01*
X-3051000Y-86606499D01*
X-3051000Y-86005501D01*
X-2933752Y-85416057D01*
X-2703762Y-84860811D01*
X-2369867Y-84361103D01*
X-2369866Y-84361101D01*
X-1944899Y-83936134D01*
X-1445190Y-83602239D01*
X-1445189Y-83602238D01*
X-889943Y-83372248D01*
X-300499Y-83255000D01*
X300499Y-83255000D01*
X889943Y-83372248D01*
X889943Y-83372248D01*
G37*
G36*
X80889943Y-83372248D02*
G01*
X81445189Y-83602238D01*
X81445190Y-83602239D01*
X81944899Y-83936134D01*
X82369866Y-84361101D01*
X82369867Y-84361103D01*
X82703762Y-84860811D01*
X82933752Y-85416057D01*
X83051000Y-86005501D01*
X83051000Y-86606499D01*
X82933752Y-87195943D01*
X82703762Y-87751189D01*
X82703761Y-87751190D01*
X82369866Y-88250899D01*
X81944899Y-88675866D01*
X81880367Y-88718985D01*
X81445189Y-89009762D01*
X80889943Y-89239752D01*
X80300499Y-89357000D01*
X79699501Y-89357000D01*
X79110057Y-89239752D01*
X78554811Y-89009762D01*
X78119633Y-88718985D01*
X78055101Y-88675866D01*
X77630134Y-88250899D01*
X77296239Y-87751190D01*
X77296238Y-87751189D01*
X77066248Y-87195943D01*
X76949000Y-86606499D01*
X76949000Y-86005501D01*
X77066248Y-85416057D01*
X77296238Y-84860811D01*
X77630133Y-84361103D01*
X77630134Y-84361101D01*
X78055101Y-83936134D01*
X78554810Y-83602239D01*
X78554811Y-83602238D01*
X79110057Y-83372248D01*
X79699501Y-83255000D01*
X80300499Y-83255000D01*
X80889943Y-83372248D01*
X80889943Y-83372248D01*
G37*
G36*
X20889943Y-83372248D02*
G01*
X21445189Y-83602238D01*
X21445190Y-83602239D01*
X21944899Y-83936134D01*
X22369866Y-84361101D01*
X22369867Y-84361103D01*
X22703762Y-84860811D01*
X22933752Y-85416057D01*
X23051000Y-86005501D01*
X23051000Y-86606499D01*
X22933752Y-87195943D01*
X22703762Y-87751189D01*
X22703761Y-87751190D01*
X22369866Y-88250899D01*
X21944899Y-88675866D01*
X21880367Y-88718985D01*
X21445189Y-89009762D01*
X20889943Y-89239752D01*
X20300499Y-89357000D01*
X19699501Y-89357000D01*
X19110057Y-89239752D01*
X18554811Y-89009762D01*
X18119633Y-88718985D01*
X18055101Y-88675866D01*
X17630134Y-88250899D01*
X17296239Y-87751190D01*
X17296238Y-87751189D01*
X17066248Y-87195943D01*
X16949000Y-86606499D01*
X16949000Y-86005501D01*
X17066248Y-85416057D01*
X17296238Y-84860811D01*
X17630133Y-84361103D01*
X17630134Y-84361101D01*
X18055101Y-83936134D01*
X18554810Y-83602239D01*
X18554811Y-83602238D01*
X19110057Y-83372248D01*
X19699501Y-83255000D01*
X20300499Y-83255000D01*
X20889943Y-83372248D01*
X20889943Y-83372248D01*
G37*
G36*
X40889943Y-83372248D02*
G01*
X41445189Y-83602238D01*
X41445190Y-83602239D01*
X41944899Y-83936134D01*
X42369866Y-84361101D01*
X42369867Y-84361103D01*
X42703762Y-84860811D01*
X42933752Y-85416057D01*
X43051000Y-86005501D01*
X43051000Y-86606499D01*
X42933752Y-87195943D01*
X42703762Y-87751189D01*
X42703761Y-87751190D01*
X42369866Y-88250899D01*
X41944899Y-88675866D01*
X41880367Y-88718985D01*
X41445189Y-89009762D01*
X40889943Y-89239752D01*
X40300499Y-89357000D01*
X39699501Y-89357000D01*
X39110057Y-89239752D01*
X38554811Y-89009762D01*
X38119633Y-88718985D01*
X38055101Y-88675866D01*
X37630134Y-88250899D01*
X37296239Y-87751190D01*
X37296238Y-87751189D01*
X37066248Y-87195943D01*
X36949000Y-86606499D01*
X36949000Y-86005501D01*
X37066248Y-85416057D01*
X37296238Y-84860811D01*
X37630133Y-84361103D01*
X37630134Y-84361101D01*
X38055101Y-83936134D01*
X38554810Y-83602239D01*
X38554811Y-83602238D01*
X39110057Y-83372248D01*
X39699501Y-83255000D01*
X40300499Y-83255000D01*
X40889943Y-83372248D01*
X40889943Y-83372248D01*
G37*
G36*
X70889943Y-77427248D02*
G01*
X71445189Y-77657238D01*
X71445190Y-77657239D01*
X71944899Y-77991134D01*
X72369866Y-78416101D01*
X72369867Y-78416103D01*
X72703762Y-78915811D01*
X72933752Y-79471057D01*
X73051000Y-80060501D01*
X73051000Y-80661499D01*
X72933752Y-81250943D01*
X72703762Y-81806189D01*
X72703761Y-81806190D01*
X72369866Y-82305899D01*
X71944899Y-82730866D01*
X71693347Y-82898948D01*
X71445189Y-83064762D01*
X70889943Y-83294752D01*
X70300499Y-83412000D01*
X69699501Y-83412000D01*
X69110057Y-83294752D01*
X68554811Y-83064762D01*
X68306653Y-82898948D01*
X68055101Y-82730866D01*
X67630134Y-82305899D01*
X67296239Y-81806190D01*
X67296238Y-81806189D01*
X67066248Y-81250943D01*
X66949000Y-80661499D01*
X66949000Y-80060501D01*
X67066248Y-79471057D01*
X67296238Y-78915811D01*
X67630133Y-78416103D01*
X67630134Y-78416101D01*
X68055101Y-77991134D01*
X68554810Y-77657239D01*
X68554811Y-77657238D01*
X69110057Y-77427248D01*
X69699501Y-77310000D01*
X70300499Y-77310000D01*
X70889943Y-77427248D01*
X70889943Y-77427248D01*
G37*
G36*
X10889943Y-77427248D02*
G01*
X11445189Y-77657238D01*
X11445190Y-77657239D01*
X11944899Y-77991134D01*
X12369866Y-78416101D01*
X12369867Y-78416103D01*
X12703762Y-78915811D01*
X12933752Y-79471057D01*
X13051000Y-80060501D01*
X13051000Y-80661499D01*
X12933752Y-81250943D01*
X12703762Y-81806189D01*
X12703761Y-81806190D01*
X12369866Y-82305899D01*
X11944899Y-82730866D01*
X11693347Y-82898948D01*
X11445189Y-83064762D01*
X10889943Y-83294752D01*
X10300499Y-83412000D01*
X9699501Y-83412000D01*
X9110057Y-83294752D01*
X8554811Y-83064762D01*
X8306653Y-82898948D01*
X8055101Y-82730866D01*
X7630134Y-82305899D01*
X7296239Y-81806190D01*
X7296238Y-81806189D01*
X7066248Y-81250943D01*
X6949000Y-80661499D01*
X6949000Y-80060501D01*
X7066248Y-79471057D01*
X7296238Y-78915811D01*
X7630133Y-78416103D01*
X7630134Y-78416101D01*
X8055101Y-77991134D01*
X8554810Y-77657239D01*
X8554811Y-77657238D01*
X9110057Y-77427248D01*
X9699501Y-77310000D01*
X10300499Y-77310000D01*
X10889943Y-77427248D01*
X10889943Y-77427248D01*
G37*
G36*
X30889943Y-77427248D02*
G01*
X31445189Y-77657238D01*
X31445190Y-77657239D01*
X31944899Y-77991134D01*
X32369866Y-78416101D01*
X32369867Y-78416103D01*
X32703762Y-78915811D01*
X32933752Y-79471057D01*
X33051000Y-80060501D01*
X33051000Y-80661499D01*
X32933752Y-81250943D01*
X32703762Y-81806189D01*
X32703761Y-81806190D01*
X32369866Y-82305899D01*
X31944899Y-82730866D01*
X31693347Y-82898948D01*
X31445189Y-83064762D01*
X30889943Y-83294752D01*
X30300499Y-83412000D01*
X29699501Y-83412000D01*
X29110057Y-83294752D01*
X28554811Y-83064762D01*
X28306653Y-82898948D01*
X28055101Y-82730866D01*
X27630134Y-82305899D01*
X27296239Y-81806190D01*
X27296238Y-81806189D01*
X27066248Y-81250943D01*
X26949000Y-80661499D01*
X26949000Y-80060501D01*
X27066248Y-79471057D01*
X27296238Y-78915811D01*
X27630133Y-78416103D01*
X27630134Y-78416101D01*
X28055101Y-77991134D01*
X28554810Y-77657239D01*
X28554811Y-77657238D01*
X29110057Y-77427248D01*
X29699501Y-77310000D01*
X30300499Y-77310000D01*
X30889943Y-77427248D01*
X30889943Y-77427248D01*
G37*
G36*
X50889943Y-77427248D02*
G01*
X51445189Y-77657238D01*
X51445190Y-77657239D01*
X51944899Y-77991134D01*
X52369866Y-78416101D01*
X52369867Y-78416103D01*
X52703762Y-78915811D01*
X52933752Y-79471057D01*
X53051000Y-80060501D01*
X53051000Y-80661499D01*
X52933752Y-81250943D01*
X52703762Y-81806189D01*
X52703761Y-81806190D01*
X52369866Y-82305899D01*
X51944899Y-82730866D01*
X51693347Y-82898948D01*
X51445189Y-83064762D01*
X50889943Y-83294752D01*
X50300499Y-83412000D01*
X49699501Y-83412000D01*
X49110057Y-83294752D01*
X48554811Y-83064762D01*
X48306653Y-82898948D01*
X48055101Y-82730866D01*
X47630134Y-82305899D01*
X47296239Y-81806190D01*
X47296238Y-81806189D01*
X47066248Y-81250943D01*
X46949000Y-80661499D01*
X46949000Y-80060501D01*
X47066248Y-79471057D01*
X47296238Y-78915811D01*
X47630133Y-78416103D01*
X47630134Y-78416101D01*
X48055101Y-77991134D01*
X48554810Y-77657239D01*
X48554811Y-77657238D01*
X49110057Y-77427248D01*
X49699501Y-77310000D01*
X50300499Y-77310000D01*
X50889943Y-77427248D01*
X50889943Y-77427248D01*
G37*
G36*
X90889943Y-77427248D02*
G01*
X91445189Y-77657238D01*
X91445190Y-77657239D01*
X91944899Y-77991134D01*
X92369866Y-78416101D01*
X92369867Y-78416103D01*
X92703762Y-78915811D01*
X92933752Y-79471057D01*
X93051000Y-80060501D01*
X93051000Y-80661499D01*
X92933752Y-81250943D01*
X92703762Y-81806189D01*
X92703761Y-81806190D01*
X92369866Y-82305899D01*
X91944899Y-82730866D01*
X91693347Y-82898948D01*
X91445189Y-83064762D01*
X90889943Y-83294752D01*
X90300499Y-83412000D01*
X89699501Y-83412000D01*
X89110057Y-83294752D01*
X88554811Y-83064762D01*
X88306653Y-82898948D01*
X88055101Y-82730866D01*
X87630134Y-82305899D01*
X87296239Y-81806190D01*
X87296238Y-81806189D01*
X87066248Y-81250943D01*
X86949000Y-80661499D01*
X86949000Y-80060501D01*
X87066248Y-79471057D01*
X87296238Y-78915811D01*
X87630133Y-78416103D01*
X87630134Y-78416101D01*
X88055101Y-77991134D01*
X88554810Y-77657239D01*
X88554811Y-77657238D01*
X89110057Y-77427248D01*
X89699501Y-77310000D01*
X90300499Y-77310000D01*
X90889943Y-77427248D01*
X90889943Y-77427248D01*
G37*
G36*
X62509999Y-70799737D02*
G01*
X62519608Y-70802652D01*
X62528472Y-70807390D01*
X62536237Y-70813763D01*
X62542610Y-70821528D01*
X62547348Y-70830392D01*
X62550263Y-70840001D01*
X62551852Y-70856140D01*
X62551852Y-73716191D01*
X62554254Y-73740577D01*
X62561367Y-73764026D01*
X62572918Y-73785637D01*
X62905946Y-74284049D01*
X62916500Y-74303794D01*
X63155612Y-74881062D01*
X63162110Y-74902481D01*
X63284008Y-75515304D01*
X63286202Y-75537584D01*
X63286202Y-76162416D01*
X63284008Y-76184696D01*
X63162110Y-76797519D01*
X63155612Y-76818938D01*
X62916500Y-77396206D01*
X62905946Y-77415951D01*
X62558808Y-77935480D01*
X62544607Y-77952785D01*
X62102785Y-78394607D01*
X62085480Y-78408808D01*
X61565951Y-78755946D01*
X61546206Y-78766500D01*
X60968938Y-79005612D01*
X60947519Y-79012110D01*
X60334696Y-79134008D01*
X60312416Y-79136202D01*
X59687584Y-79136202D01*
X59665304Y-79134008D01*
X59052481Y-79012110D01*
X59031062Y-79005612D01*
X58453794Y-78766500D01*
X58434049Y-78755946D01*
X57914520Y-78408808D01*
X57897215Y-78394607D01*
X57455393Y-77952785D01*
X57441192Y-77935480D01*
X57094054Y-77415951D01*
X57083500Y-77396206D01*
X56844388Y-76818938D01*
X56837890Y-76797519D01*
X56715992Y-76184696D01*
X56713798Y-76162416D01*
X56713798Y-75537584D01*
X56715992Y-75515304D01*
X56837890Y-74902481D01*
X56844388Y-74881062D01*
X57083500Y-74303794D01*
X57094054Y-74284049D01*
X57427082Y-73785637D01*
X57438633Y-73764026D01*
X57445746Y-73740577D01*
X57448148Y-73716191D01*
X57448148Y-70856140D01*
X57449737Y-70840001D01*
X57452652Y-70830392D01*
X57457390Y-70821528D01*
X57463763Y-70813763D01*
X57471528Y-70807390D01*
X57480392Y-70802652D01*
X57490001Y-70799737D01*
X57506140Y-70798148D01*
X62493860Y-70798148D01*
X62509999Y-70799737D01*
X62509999Y-70799737D01*
G37*
G36*
X22509999Y-70799737D02*
G01*
X22519608Y-70802652D01*
X22528472Y-70807390D01*
X22536237Y-70813763D01*
X22542610Y-70821528D01*
X22547348Y-70830392D01*
X22550263Y-70840001D01*
X22551852Y-70856140D01*
X22551852Y-73716191D01*
X22554254Y-73740577D01*
X22561367Y-73764026D01*
X22572918Y-73785637D01*
X22905946Y-74284049D01*
X22916500Y-74303794D01*
X23155612Y-74881062D01*
X23162110Y-74902481D01*
X23284008Y-75515304D01*
X23286202Y-75537584D01*
X23286202Y-76162416D01*
X23284008Y-76184696D01*
X23162110Y-76797519D01*
X23155612Y-76818938D01*
X22916500Y-77396206D01*
X22905946Y-77415951D01*
X22558808Y-77935480D01*
X22544607Y-77952785D01*
X22102785Y-78394607D01*
X22085480Y-78408808D01*
X21565951Y-78755946D01*
X21546206Y-78766500D01*
X20968938Y-79005612D01*
X20947519Y-79012110D01*
X20334696Y-79134008D01*
X20312416Y-79136202D01*
X19687584Y-79136202D01*
X19665304Y-79134008D01*
X19052481Y-79012110D01*
X19031062Y-79005612D01*
X18453794Y-78766500D01*
X18434049Y-78755946D01*
X17914520Y-78408808D01*
X17897215Y-78394607D01*
X17455393Y-77952785D01*
X17441192Y-77935480D01*
X17094054Y-77415951D01*
X17083500Y-77396206D01*
X16844388Y-76818938D01*
X16837890Y-76797519D01*
X16715992Y-76184696D01*
X16713798Y-76162416D01*
X16713798Y-75537584D01*
X16715992Y-75515304D01*
X16837890Y-74902481D01*
X16844388Y-74881062D01*
X17083500Y-74303794D01*
X17094054Y-74284049D01*
X17427082Y-73785637D01*
X17438633Y-73764026D01*
X17445746Y-73740577D01*
X17448148Y-73716191D01*
X17448148Y-70856140D01*
X17449737Y-70840001D01*
X17452652Y-70830392D01*
X17457390Y-70821528D01*
X17463763Y-70813763D01*
X17471528Y-70807390D01*
X17480392Y-70802652D01*
X17490001Y-70799737D01*
X17506140Y-70798148D01*
X22493860Y-70798148D01*
X22509999Y-70799737D01*
X22509999Y-70799737D01*
G37*
G36*
X42509999Y-70799737D02*
G01*
X42519608Y-70802652D01*
X42528472Y-70807390D01*
X42536237Y-70813763D01*
X42542610Y-70821528D01*
X42547348Y-70830392D01*
X42550263Y-70840001D01*
X42551852Y-70856140D01*
X42551852Y-73716191D01*
X42554254Y-73740577D01*
X42561367Y-73764026D01*
X42572918Y-73785637D01*
X42905946Y-74284049D01*
X42916500Y-74303794D01*
X43155612Y-74881062D01*
X43162110Y-74902481D01*
X43284008Y-75515304D01*
X43286202Y-75537584D01*
X43286202Y-76162416D01*
X43284008Y-76184696D01*
X43162110Y-76797519D01*
X43155612Y-76818938D01*
X42916500Y-77396206D01*
X42905946Y-77415951D01*
X42558808Y-77935480D01*
X42544607Y-77952785D01*
X42102785Y-78394607D01*
X42085480Y-78408808D01*
X41565951Y-78755946D01*
X41546206Y-78766500D01*
X40968938Y-79005612D01*
X40947519Y-79012110D01*
X40334696Y-79134008D01*
X40312416Y-79136202D01*
X39687584Y-79136202D01*
X39665304Y-79134008D01*
X39052481Y-79012110D01*
X39031062Y-79005612D01*
X38453794Y-78766500D01*
X38434049Y-78755946D01*
X37914520Y-78408808D01*
X37897215Y-78394607D01*
X37455393Y-77952785D01*
X37441192Y-77935480D01*
X37094054Y-77415951D01*
X37083500Y-77396206D01*
X36844388Y-76818938D01*
X36837890Y-76797519D01*
X36715992Y-76184696D01*
X36713798Y-76162416D01*
X36713798Y-75537584D01*
X36715992Y-75515304D01*
X36837890Y-74902481D01*
X36844388Y-74881062D01*
X37083500Y-74303794D01*
X37094054Y-74284049D01*
X37427082Y-73785637D01*
X37438633Y-73764026D01*
X37445746Y-73740577D01*
X37448148Y-73716191D01*
X37448148Y-70856140D01*
X37449737Y-70840001D01*
X37452652Y-70830392D01*
X37457390Y-70821528D01*
X37463763Y-70813763D01*
X37471528Y-70807390D01*
X37480392Y-70802652D01*
X37490001Y-70799737D01*
X37506140Y-70798148D01*
X42493860Y-70798148D01*
X42509999Y-70799737D01*
X42509999Y-70799737D01*
G37*
G36*
X82509999Y-70799737D02*
G01*
X82519608Y-70802652D01*
X82528472Y-70807390D01*
X82536237Y-70813763D01*
X82542610Y-70821528D01*
X82547348Y-70830392D01*
X82550263Y-70840001D01*
X82551852Y-70856140D01*
X82551852Y-73716191D01*
X82554254Y-73740577D01*
X82561367Y-73764026D01*
X82572918Y-73785637D01*
X82905946Y-74284049D01*
X82916500Y-74303794D01*
X83155612Y-74881062D01*
X83162110Y-74902481D01*
X83284008Y-75515304D01*
X83286202Y-75537584D01*
X83286202Y-76162416D01*
X83284008Y-76184696D01*
X83162110Y-76797519D01*
X83155612Y-76818938D01*
X82916500Y-77396206D01*
X82905946Y-77415951D01*
X82558808Y-77935480D01*
X82544607Y-77952785D01*
X82102785Y-78394607D01*
X82085480Y-78408808D01*
X81565951Y-78755946D01*
X81546206Y-78766500D01*
X80968938Y-79005612D01*
X80947519Y-79012110D01*
X80334696Y-79134008D01*
X80312416Y-79136202D01*
X79687584Y-79136202D01*
X79665304Y-79134008D01*
X79052481Y-79012110D01*
X79031062Y-79005612D01*
X78453794Y-78766500D01*
X78434049Y-78755946D01*
X77914520Y-78408808D01*
X77897215Y-78394607D01*
X77455393Y-77952785D01*
X77441192Y-77935480D01*
X77094054Y-77415951D01*
X77083500Y-77396206D01*
X76844388Y-76818938D01*
X76837890Y-76797519D01*
X76715992Y-76184696D01*
X76713798Y-76162416D01*
X76713798Y-75537584D01*
X76715992Y-75515304D01*
X76837890Y-74902481D01*
X76844388Y-74881062D01*
X77083500Y-74303794D01*
X77094054Y-74284049D01*
X77427082Y-73785637D01*
X77438633Y-73764026D01*
X77445746Y-73740577D01*
X77448148Y-73716191D01*
X77448148Y-70856140D01*
X77449737Y-70840001D01*
X77452652Y-70830392D01*
X77457390Y-70821528D01*
X77463763Y-70813763D01*
X77471528Y-70807390D01*
X77480392Y-70802652D01*
X77490001Y-70799737D01*
X77506140Y-70798148D01*
X82493860Y-70798148D01*
X82509999Y-70799737D01*
X82509999Y-70799737D01*
G37*
G36*
X102509999Y-70799737D02*
G01*
X102519608Y-70802652D01*
X102528472Y-70807390D01*
X102536237Y-70813763D01*
X102542610Y-70821528D01*
X102547348Y-70830392D01*
X102550263Y-70840001D01*
X102551852Y-70856140D01*
X102551852Y-73716191D01*
X102554254Y-73740577D01*
X102561367Y-73764026D01*
X102572918Y-73785637D01*
X102905946Y-74284049D01*
X102916500Y-74303794D01*
X103155612Y-74881062D01*
X103162110Y-74902481D01*
X103284008Y-75515304D01*
X103286202Y-75537584D01*
X103286202Y-76162416D01*
X103284008Y-76184696D01*
X103162110Y-76797519D01*
X103155612Y-76818938D01*
X102916500Y-77396206D01*
X102905946Y-77415951D01*
X102558808Y-77935480D01*
X102544607Y-77952785D01*
X102102785Y-78394607D01*
X102085480Y-78408808D01*
X101565951Y-78755946D01*
X101546206Y-78766500D01*
X100968938Y-79005612D01*
X100947519Y-79012110D01*
X100334696Y-79134008D01*
X100312416Y-79136202D01*
X99687584Y-79136202D01*
X99665304Y-79134008D01*
X99052481Y-79012110D01*
X99031062Y-79005612D01*
X98453794Y-78766500D01*
X98434049Y-78755946D01*
X97914520Y-78408808D01*
X97897215Y-78394607D01*
X97455393Y-77952785D01*
X97441192Y-77935480D01*
X97094054Y-77415951D01*
X97083500Y-77396206D01*
X96844388Y-76818938D01*
X96837890Y-76797519D01*
X96715992Y-76184696D01*
X96713798Y-76162416D01*
X96713798Y-75537584D01*
X96715992Y-75515304D01*
X96837890Y-74902481D01*
X96844388Y-74881062D01*
X97083500Y-74303794D01*
X97094054Y-74284049D01*
X97427082Y-73785637D01*
X97438633Y-73764026D01*
X97445746Y-73740577D01*
X97448148Y-73716191D01*
X97448148Y-70856140D01*
X97449737Y-70840001D01*
X97452652Y-70830392D01*
X97457390Y-70821528D01*
X97463763Y-70813763D01*
X97471528Y-70807390D01*
X97480392Y-70802652D01*
X97490001Y-70799737D01*
X97506140Y-70798148D01*
X102493860Y-70798148D01*
X102509999Y-70799737D01*
X102509999Y-70799737D01*
G37*
G36*
X2509999Y-70799737D02*
G01*
X2519608Y-70802652D01*
X2528472Y-70807390D01*
X2536237Y-70813763D01*
X2542610Y-70821528D01*
X2547348Y-70830392D01*
X2550263Y-70840001D01*
X2551852Y-70856140D01*
X2551852Y-73716191D01*
X2554254Y-73740577D01*
X2561367Y-73764026D01*
X2572918Y-73785637D01*
X2905946Y-74284049D01*
X2916500Y-74303794D01*
X3155612Y-74881062D01*
X3162110Y-74902481D01*
X3284008Y-75515304D01*
X3286202Y-75537584D01*
X3286202Y-76162416D01*
X3284008Y-76184696D01*
X3162110Y-76797519D01*
X3155612Y-76818938D01*
X2916500Y-77396206D01*
X2905946Y-77415951D01*
X2558808Y-77935480D01*
X2544607Y-77952785D01*
X2102785Y-78394607D01*
X2085480Y-78408808D01*
X1565951Y-78755946D01*
X1546206Y-78766500D01*
X968938Y-79005612D01*
X947519Y-79012110D01*
X334696Y-79134008D01*
X312416Y-79136202D01*
X-312416Y-79136202D01*
X-334696Y-79134008D01*
X-947519Y-79012110D01*
X-968938Y-79005612D01*
X-1546206Y-78766500D01*
X-1565951Y-78755946D01*
X-2085480Y-78408808D01*
X-2102785Y-78394607D01*
X-2544607Y-77952785D01*
X-2558808Y-77935480D01*
X-2905946Y-77415951D01*
X-2916500Y-77396206D01*
X-3155612Y-76818938D01*
X-3162110Y-76797519D01*
X-3284008Y-76184696D01*
X-3286202Y-76162416D01*
X-3286202Y-75537584D01*
X-3284008Y-75515304D01*
X-3162110Y-74902481D01*
X-3155612Y-74881062D01*
X-2916500Y-74303794D01*
X-2905946Y-74284049D01*
X-2572918Y-73785637D01*
X-2561367Y-73764026D01*
X-2554254Y-73740577D01*
X-2551852Y-73716191D01*
X-2551852Y-70856140D01*
X-2550263Y-70840001D01*
X-2547348Y-70830392D01*
X-2542610Y-70821528D01*
X-2536237Y-70813763D01*
X-2528472Y-70807390D01*
X-2519608Y-70802652D01*
X-2509999Y-70799737D01*
X-2493860Y-70798148D01*
X2493860Y-70798148D01*
X2509999Y-70799737D01*
X2509999Y-70799737D01*
G37*
G36*
X90889943Y-68774248D02*
G01*
X91445189Y-69004238D01*
X91445190Y-69004239D01*
X91944899Y-69338134D01*
X92369866Y-69763101D01*
X92369867Y-69763103D01*
X92703762Y-70262811D01*
X92933752Y-70818057D01*
X93051000Y-71407501D01*
X93051000Y-72008499D01*
X92933752Y-72597943D01*
X92703762Y-73153189D01*
X92703761Y-73153190D01*
X92369866Y-73652899D01*
X91944899Y-74077866D01*
X91693347Y-74245948D01*
X91445189Y-74411762D01*
X90889943Y-74641752D01*
X90300499Y-74759000D01*
X89699501Y-74759000D01*
X89110057Y-74641752D01*
X88554811Y-74411762D01*
X88306653Y-74245948D01*
X88055101Y-74077866D01*
X87630134Y-73652899D01*
X87296239Y-73153190D01*
X87296238Y-73153189D01*
X87066248Y-72597943D01*
X86949000Y-72008499D01*
X86949000Y-71407501D01*
X87066248Y-70818057D01*
X87296238Y-70262811D01*
X87630133Y-69763103D01*
X87630134Y-69763101D01*
X88055101Y-69338134D01*
X88554810Y-69004239D01*
X88554811Y-69004238D01*
X89110057Y-68774248D01*
X89699501Y-68657000D01*
X90300499Y-68657000D01*
X90889943Y-68774248D01*
X90889943Y-68774248D01*
G37*
G36*
X10889943Y-68774248D02*
G01*
X11445189Y-69004238D01*
X11445190Y-69004239D01*
X11944899Y-69338134D01*
X12369866Y-69763101D01*
X12369867Y-69763103D01*
X12703762Y-70262811D01*
X12933752Y-70818057D01*
X13051000Y-71407501D01*
X13051000Y-72008499D01*
X12933752Y-72597943D01*
X12703762Y-73153189D01*
X12703761Y-73153190D01*
X12369866Y-73652899D01*
X11944899Y-74077866D01*
X11693347Y-74245948D01*
X11445189Y-74411762D01*
X10889943Y-74641752D01*
X10300499Y-74759000D01*
X9699501Y-74759000D01*
X9110057Y-74641752D01*
X8554811Y-74411762D01*
X8306653Y-74245948D01*
X8055101Y-74077866D01*
X7630134Y-73652899D01*
X7296239Y-73153190D01*
X7296238Y-73153189D01*
X7066248Y-72597943D01*
X6949000Y-72008499D01*
X6949000Y-71407501D01*
X7066248Y-70818057D01*
X7296238Y-70262811D01*
X7630133Y-69763103D01*
X7630134Y-69763101D01*
X8055101Y-69338134D01*
X8554810Y-69004239D01*
X8554811Y-69004238D01*
X9110057Y-68774248D01*
X9699501Y-68657000D01*
X10300499Y-68657000D01*
X10889943Y-68774248D01*
X10889943Y-68774248D01*
G37*
G36*
X30889943Y-68774248D02*
G01*
X31445189Y-69004238D01*
X31445190Y-69004239D01*
X31944899Y-69338134D01*
X32369866Y-69763101D01*
X32369867Y-69763103D01*
X32703762Y-70262811D01*
X32933752Y-70818057D01*
X33051000Y-71407501D01*
X33051000Y-72008499D01*
X32933752Y-72597943D01*
X32703762Y-73153189D01*
X32703761Y-73153190D01*
X32369866Y-73652899D01*
X31944899Y-74077866D01*
X31693347Y-74245948D01*
X31445189Y-74411762D01*
X30889943Y-74641752D01*
X30300499Y-74759000D01*
X29699501Y-74759000D01*
X29110057Y-74641752D01*
X28554811Y-74411762D01*
X28306653Y-74245948D01*
X28055101Y-74077866D01*
X27630134Y-73652899D01*
X27296239Y-73153190D01*
X27296238Y-73153189D01*
X27066248Y-72597943D01*
X26949000Y-72008499D01*
X26949000Y-71407501D01*
X27066248Y-70818057D01*
X27296238Y-70262811D01*
X27630133Y-69763103D01*
X27630134Y-69763101D01*
X28055101Y-69338134D01*
X28554810Y-69004239D01*
X28554811Y-69004238D01*
X29110057Y-68774248D01*
X29699501Y-68657000D01*
X30300499Y-68657000D01*
X30889943Y-68774248D01*
X30889943Y-68774248D01*
G37*
G36*
X50889943Y-68774248D02*
G01*
X51445189Y-69004238D01*
X51445190Y-69004239D01*
X51944899Y-69338134D01*
X52369866Y-69763101D01*
X52369867Y-69763103D01*
X52703762Y-70262811D01*
X52933752Y-70818057D01*
X53051000Y-71407501D01*
X53051000Y-72008499D01*
X52933752Y-72597943D01*
X52703762Y-73153189D01*
X52703761Y-73153190D01*
X52369866Y-73652899D01*
X51944899Y-74077866D01*
X51693347Y-74245948D01*
X51445189Y-74411762D01*
X50889943Y-74641752D01*
X50300499Y-74759000D01*
X49699501Y-74759000D01*
X49110057Y-74641752D01*
X48554811Y-74411762D01*
X48306653Y-74245948D01*
X48055101Y-74077866D01*
X47630134Y-73652899D01*
X47296239Y-73153190D01*
X47296238Y-73153189D01*
X47066248Y-72597943D01*
X46949000Y-72008499D01*
X46949000Y-71407501D01*
X47066248Y-70818057D01*
X47296238Y-70262811D01*
X47630133Y-69763103D01*
X47630134Y-69763101D01*
X48055101Y-69338134D01*
X48554810Y-69004239D01*
X48554811Y-69004238D01*
X49110057Y-68774248D01*
X49699501Y-68657000D01*
X50300499Y-68657000D01*
X50889943Y-68774248D01*
X50889943Y-68774248D01*
G37*
G36*
X70889943Y-68774248D02*
G01*
X71445189Y-69004238D01*
X71445190Y-69004239D01*
X71944899Y-69338134D01*
X72369866Y-69763101D01*
X72369867Y-69763103D01*
X72703762Y-70262811D01*
X72933752Y-70818057D01*
X73051000Y-71407501D01*
X73051000Y-72008499D01*
X72933752Y-72597943D01*
X72703762Y-73153189D01*
X72703761Y-73153190D01*
X72369866Y-73652899D01*
X71944899Y-74077866D01*
X71693347Y-74245948D01*
X71445189Y-74411762D01*
X70889943Y-74641752D01*
X70300499Y-74759000D01*
X69699501Y-74759000D01*
X69110057Y-74641752D01*
X68554811Y-74411762D01*
X68306653Y-74245948D01*
X68055101Y-74077866D01*
X67630134Y-73652899D01*
X67296239Y-73153190D01*
X67296238Y-73153189D01*
X67066248Y-72597943D01*
X66949000Y-72008499D01*
X66949000Y-71407501D01*
X67066248Y-70818057D01*
X67296238Y-70262811D01*
X67630133Y-69763103D01*
X67630134Y-69763101D01*
X68055101Y-69338134D01*
X68554810Y-69004239D01*
X68554811Y-69004238D01*
X69110057Y-68774248D01*
X69699501Y-68657000D01*
X70300499Y-68657000D01*
X70889943Y-68774248D01*
X70889943Y-68774248D01*
G37*
G36*
X10901000Y-66901000D02*
G01*
X9099000Y-66901000D01*
X9099000Y-65099000D01*
X10901000Y-65099000D01*
X10901000Y-66901000D01*
X10901000Y-66901000D01*
G37*
G36*
X68570443Y-64855519D02*
G01*
X68636627Y-64862037D01*
X68806466Y-64913557D01*
X68962991Y-64997222D01*
X68998729Y-65026552D01*
X69100186Y-65109814D01*
X69180369Y-65207519D01*
X69212778Y-65247009D01*
X69296443Y-65403534D01*
X69347963Y-65573373D01*
X69365359Y-65750000D01*
X69347963Y-65926627D01*
X69296443Y-66096466D01*
X69212778Y-66252991D01*
X69183448Y-66288729D01*
X69100186Y-66390186D01*
X68998729Y-66473448D01*
X68962991Y-66502778D01*
X68806466Y-66586443D01*
X68636627Y-66637963D01*
X68570442Y-66644482D01*
X68504260Y-66651000D01*
X68415740Y-66651000D01*
X68349558Y-66644482D01*
X68283373Y-66637963D01*
X68113534Y-66586443D01*
X67957009Y-66502778D01*
X67921271Y-66473448D01*
X67819814Y-66390186D01*
X67736552Y-66288729D01*
X67707222Y-66252991D01*
X67623557Y-66096466D01*
X67572037Y-65926627D01*
X67554641Y-65750000D01*
X67572037Y-65573373D01*
X67623557Y-65403534D01*
X67707222Y-65247009D01*
X67739631Y-65207519D01*
X67819814Y-65109814D01*
X67921271Y-65026552D01*
X67957009Y-64997222D01*
X68113534Y-64913557D01*
X68283373Y-64862037D01*
X68349557Y-64855519D01*
X68415740Y-64849000D01*
X68504260Y-64849000D01*
X68570443Y-64855519D01*
X68570443Y-64855519D01*
G37*
G36*
X71901000Y-66651000D02*
G01*
X70099000Y-66651000D01*
X70099000Y-64849000D01*
X71901000Y-64849000D01*
X71901000Y-66651000D01*
X71901000Y-66651000D01*
G37*
G36*
X92996823Y-64911313D02*
G01*
X93157242Y-64959976D01*
X93224361Y-64995852D01*
X93305078Y-65038996D01*
X93434659Y-65145341D01*
X93541004Y-65274922D01*
X93541005Y-65274924D01*
X93620024Y-65422758D01*
X93668687Y-65583177D01*
X93685117Y-65750000D01*
X93668687Y-65916823D01*
X93620024Y-66077242D01*
X93579477Y-66153100D01*
X93541004Y-66225078D01*
X93434659Y-66354659D01*
X93305078Y-66461004D01*
X93305076Y-66461005D01*
X93157242Y-66540024D01*
X92996823Y-66588687D01*
X92871804Y-66601000D01*
X92788196Y-66601000D01*
X92663177Y-66588687D01*
X92502758Y-66540024D01*
X92354924Y-66461005D01*
X92354922Y-66461004D01*
X92225341Y-66354659D01*
X92118996Y-66225078D01*
X92080523Y-66153100D01*
X92039976Y-66077242D01*
X91991313Y-65916823D01*
X91974883Y-65750000D01*
X91991313Y-65583177D01*
X92039976Y-65422758D01*
X92118995Y-65274924D01*
X92118996Y-65274922D01*
X92225341Y-65145341D01*
X92354922Y-65038996D01*
X92435639Y-64995852D01*
X92502758Y-64959976D01*
X92663177Y-64911313D01*
X92788196Y-64899000D01*
X92871804Y-64899000D01*
X92996823Y-64911313D01*
X92996823Y-64911313D01*
G37*
G36*
X87998228Y-64931703D02*
G01*
X88153100Y-64995853D01*
X88292481Y-65088985D01*
X88411015Y-65207519D01*
X88504147Y-65346900D01*
X88568297Y-65501772D01*
X88601000Y-65666184D01*
X88601000Y-65833816D01*
X88568297Y-65998228D01*
X88504147Y-66153100D01*
X88411015Y-66292481D01*
X88292481Y-66411015D01*
X88153100Y-66504147D01*
X87998228Y-66568297D01*
X87833816Y-66601000D01*
X87666184Y-66601000D01*
X87501772Y-66568297D01*
X87346900Y-66504147D01*
X87207519Y-66411015D01*
X87088985Y-66292481D01*
X86995853Y-66153100D01*
X86931703Y-65998228D01*
X86899000Y-65833816D01*
X86899000Y-65666184D01*
X86931703Y-65501772D01*
X86995853Y-65346900D01*
X87088985Y-65207519D01*
X87207519Y-65088985D01*
X87346900Y-64995853D01*
X87501772Y-64931703D01*
X87666184Y-64899000D01*
X87833816Y-64899000D01*
X87998228Y-64931703D01*
X87998228Y-64931703D01*
G37*
G36*
X889943Y-58692248D02*
G01*
X1445189Y-58922238D01*
X1693347Y-59088052D01*
X1944899Y-59256134D01*
X2369866Y-59681101D01*
X2369867Y-59681103D01*
X2703762Y-60180811D01*
X2933752Y-60736057D01*
X3051000Y-61325501D01*
X3051000Y-61926499D01*
X2933752Y-62515943D01*
X2703762Y-63071189D01*
X2703761Y-63071190D01*
X2369866Y-63570899D01*
X1944899Y-63995866D01*
X1693347Y-64163948D01*
X1445189Y-64329762D01*
X889943Y-64559752D01*
X300499Y-64677000D01*
X-300499Y-64677000D01*
X-889943Y-64559752D01*
X-1445189Y-64329762D01*
X-1693347Y-64163948D01*
X-1944899Y-63995866D01*
X-2369866Y-63570899D01*
X-2703761Y-63071190D01*
X-2703762Y-63071189D01*
X-2933752Y-62515943D01*
X-3051000Y-61926499D01*
X-3051000Y-61325501D01*
X-2933752Y-60736057D01*
X-2703762Y-60180811D01*
X-2369867Y-59681103D01*
X-2369866Y-59681101D01*
X-1944899Y-59256134D01*
X-1693347Y-59088052D01*
X-1445189Y-58922238D01*
X-889943Y-58692248D01*
X-300499Y-58575000D01*
X300499Y-58575000D01*
X889943Y-58692248D01*
X889943Y-58692248D01*
G37*
G36*
X100889943Y-58692248D02*
G01*
X101445189Y-58922238D01*
X101693347Y-59088052D01*
X101944899Y-59256134D01*
X102369866Y-59681101D01*
X102369867Y-59681103D01*
X102703762Y-60180811D01*
X102933752Y-60736057D01*
X103051000Y-61325501D01*
X103051000Y-61926499D01*
X102933752Y-62515943D01*
X102703762Y-63071189D01*
X102703761Y-63071190D01*
X102369866Y-63570899D01*
X101944899Y-63995866D01*
X101693347Y-64163948D01*
X101445189Y-64329762D01*
X100889943Y-64559752D01*
X100300499Y-64677000D01*
X99699501Y-64677000D01*
X99110057Y-64559752D01*
X98554811Y-64329762D01*
X98306653Y-64163948D01*
X98055101Y-63995866D01*
X97630134Y-63570899D01*
X97296239Y-63071190D01*
X97296238Y-63071189D01*
X97066248Y-62515943D01*
X96949000Y-61926499D01*
X96949000Y-61325501D01*
X97066248Y-60736057D01*
X97296238Y-60180811D01*
X97630133Y-59681103D01*
X97630134Y-59681101D01*
X98055101Y-59256134D01*
X98306653Y-59088052D01*
X98554811Y-58922238D01*
X99110057Y-58692248D01*
X99699501Y-58575000D01*
X100300499Y-58575000D01*
X100889943Y-58692248D01*
X100889943Y-58692248D01*
G37*
G36*
X80889943Y-58692248D02*
G01*
X81445189Y-58922238D01*
X81693347Y-59088052D01*
X81944899Y-59256134D01*
X82369866Y-59681101D01*
X82369867Y-59681103D01*
X82703762Y-60180811D01*
X82933752Y-60736057D01*
X83051000Y-61325501D01*
X83051000Y-61926499D01*
X82933752Y-62515943D01*
X82703762Y-63071189D01*
X82703761Y-63071190D01*
X82369866Y-63570899D01*
X81944899Y-63995866D01*
X81693347Y-64163948D01*
X81445189Y-64329762D01*
X80889943Y-64559752D01*
X80300499Y-64677000D01*
X79699501Y-64677000D01*
X79110057Y-64559752D01*
X78554811Y-64329762D01*
X78306653Y-64163948D01*
X78055101Y-63995866D01*
X77630134Y-63570899D01*
X77296239Y-63071190D01*
X77296238Y-63071189D01*
X77066248Y-62515943D01*
X76949000Y-61926499D01*
X76949000Y-61325501D01*
X77066248Y-60736057D01*
X77296238Y-60180811D01*
X77630133Y-59681103D01*
X77630134Y-59681101D01*
X78055101Y-59256134D01*
X78306653Y-59088052D01*
X78554811Y-58922238D01*
X79110057Y-58692248D01*
X79699501Y-58575000D01*
X80300499Y-58575000D01*
X80889943Y-58692248D01*
X80889943Y-58692248D01*
G37*
G36*
X20889943Y-58692248D02*
G01*
X21445189Y-58922238D01*
X21693347Y-59088052D01*
X21944899Y-59256134D01*
X22369866Y-59681101D01*
X22369867Y-59681103D01*
X22703762Y-60180811D01*
X22933752Y-60736057D01*
X23051000Y-61325501D01*
X23051000Y-61926499D01*
X22933752Y-62515943D01*
X22703762Y-63071189D01*
X22703761Y-63071190D01*
X22369866Y-63570899D01*
X21944899Y-63995866D01*
X21693347Y-64163948D01*
X21445189Y-64329762D01*
X20889943Y-64559752D01*
X20300499Y-64677000D01*
X19699501Y-64677000D01*
X19110057Y-64559752D01*
X18554811Y-64329762D01*
X18306653Y-64163948D01*
X18055101Y-63995866D01*
X17630134Y-63570899D01*
X17296239Y-63071190D01*
X17296238Y-63071189D01*
X17066248Y-62515943D01*
X16949000Y-61926499D01*
X16949000Y-61325501D01*
X17066248Y-60736057D01*
X17296238Y-60180811D01*
X17630133Y-59681103D01*
X17630134Y-59681101D01*
X18055101Y-59256134D01*
X18306653Y-59088052D01*
X18554811Y-58922238D01*
X19110057Y-58692248D01*
X19699501Y-58575000D01*
X20300499Y-58575000D01*
X20889943Y-58692248D01*
X20889943Y-58692248D01*
G37*
G36*
X60889943Y-58692248D02*
G01*
X61445189Y-58922238D01*
X61693347Y-59088052D01*
X61944899Y-59256134D01*
X62369866Y-59681101D01*
X62369867Y-59681103D01*
X62703762Y-60180811D01*
X62933752Y-60736057D01*
X63051000Y-61325501D01*
X63051000Y-61926499D01*
X62933752Y-62515943D01*
X62703762Y-63071189D01*
X62703761Y-63071190D01*
X62369866Y-63570899D01*
X61944899Y-63995866D01*
X61693347Y-64163948D01*
X61445189Y-64329762D01*
X60889943Y-64559752D01*
X60300499Y-64677000D01*
X59699501Y-64677000D01*
X59110057Y-64559752D01*
X58554811Y-64329762D01*
X58306653Y-64163948D01*
X58055101Y-63995866D01*
X57630134Y-63570899D01*
X57296239Y-63071190D01*
X57296238Y-63071189D01*
X57066248Y-62515943D01*
X56949000Y-61926499D01*
X56949000Y-61325501D01*
X57066248Y-60736057D01*
X57296238Y-60180811D01*
X57630133Y-59681103D01*
X57630134Y-59681101D01*
X58055101Y-59256134D01*
X58306653Y-59088052D01*
X58554811Y-58922238D01*
X59110057Y-58692248D01*
X59699501Y-58575000D01*
X60300499Y-58575000D01*
X60889943Y-58692248D01*
X60889943Y-58692248D01*
G37*
G36*
X40889943Y-58692248D02*
G01*
X41445189Y-58922238D01*
X41693347Y-59088052D01*
X41944899Y-59256134D01*
X42369866Y-59681101D01*
X42369867Y-59681103D01*
X42703762Y-60180811D01*
X42933752Y-60736057D01*
X43051000Y-61325501D01*
X43051000Y-61926499D01*
X42933752Y-62515943D01*
X42703762Y-63071189D01*
X42703761Y-63071190D01*
X42369866Y-63570899D01*
X41944899Y-63995866D01*
X41693347Y-64163948D01*
X41445189Y-64329762D01*
X40889943Y-64559752D01*
X40300499Y-64677000D01*
X39699501Y-64677000D01*
X39110057Y-64559752D01*
X38554811Y-64329762D01*
X38306653Y-64163948D01*
X38055101Y-63995866D01*
X37630134Y-63570899D01*
X37296239Y-63071190D01*
X37296238Y-63071189D01*
X37066248Y-62515943D01*
X36949000Y-61926499D01*
X36949000Y-61325501D01*
X37066248Y-60736057D01*
X37296238Y-60180811D01*
X37630133Y-59681103D01*
X37630134Y-59681101D01*
X38055101Y-59256134D01*
X38306653Y-59088052D01*
X38554811Y-58922238D01*
X39110057Y-58692248D01*
X39699501Y-58575000D01*
X40300499Y-58575000D01*
X40889943Y-58692248D01*
X40889943Y-58692248D01*
G37*
G36*
X90334696Y-54199992D02*
G01*
X90947519Y-54321890D01*
X90968938Y-54328388D01*
X91546206Y-54567500D01*
X91565951Y-54578054D01*
X92085480Y-54925192D01*
X92102785Y-54939393D01*
X92544607Y-55381215D01*
X92558808Y-55398520D01*
X92905946Y-55918049D01*
X92916500Y-55937794D01*
X93155612Y-56515062D01*
X93162110Y-56536481D01*
X93284008Y-57149304D01*
X93286202Y-57171584D01*
X93286202Y-57796416D01*
X93284008Y-57818696D01*
X93162110Y-58431519D01*
X93155612Y-58452938D01*
X92916500Y-59030206D01*
X92905946Y-59049951D01*
X92572918Y-59548363D01*
X92561367Y-59569974D01*
X92554254Y-59593423D01*
X92551852Y-59617809D01*
X92551852Y-62477860D01*
X92550263Y-62493999D01*
X92547348Y-62503608D01*
X92542610Y-62512472D01*
X92536237Y-62520237D01*
X92528472Y-62526610D01*
X92519608Y-62531348D01*
X92509999Y-62534263D01*
X92493860Y-62535852D01*
X87506140Y-62535852D01*
X87490001Y-62534263D01*
X87480392Y-62531348D01*
X87471528Y-62526610D01*
X87463763Y-62520237D01*
X87457390Y-62512472D01*
X87452652Y-62503608D01*
X87449737Y-62493999D01*
X87448148Y-62477860D01*
X87448148Y-59617809D01*
X87445746Y-59593423D01*
X87438633Y-59569974D01*
X87427082Y-59548363D01*
X87094054Y-59049951D01*
X87083500Y-59030206D01*
X86844388Y-58452938D01*
X86837890Y-58431519D01*
X86715992Y-57818696D01*
X86713798Y-57796416D01*
X86713798Y-57171584D01*
X86715992Y-57149304D01*
X86837890Y-56536481D01*
X86844388Y-56515062D01*
X87083500Y-55937794D01*
X87094054Y-55918049D01*
X87441192Y-55398520D01*
X87455393Y-55381215D01*
X87897215Y-54939393D01*
X87914520Y-54925192D01*
X88434049Y-54578054D01*
X88453794Y-54567500D01*
X89031062Y-54328388D01*
X89052481Y-54321890D01*
X89665304Y-54199992D01*
X89687584Y-54197798D01*
X90312416Y-54197798D01*
X90334696Y-54199992D01*
X90334696Y-54199992D01*
G37*
G36*
X70334696Y-54199992D02*
G01*
X70947519Y-54321890D01*
X70968938Y-54328388D01*
X71546206Y-54567500D01*
X71565951Y-54578054D01*
X72085480Y-54925192D01*
X72102785Y-54939393D01*
X72544607Y-55381215D01*
X72558808Y-55398520D01*
X72905946Y-55918049D01*
X72916500Y-55937794D01*
X73155612Y-56515062D01*
X73162110Y-56536481D01*
X73284008Y-57149304D01*
X73286202Y-57171584D01*
X73286202Y-57796416D01*
X73284008Y-57818696D01*
X73162110Y-58431519D01*
X73155612Y-58452938D01*
X72916500Y-59030206D01*
X72905946Y-59049951D01*
X72572918Y-59548363D01*
X72561367Y-59569974D01*
X72554254Y-59593423D01*
X72551852Y-59617809D01*
X72551852Y-62477860D01*
X72550263Y-62493999D01*
X72547348Y-62503608D01*
X72542610Y-62512472D01*
X72536237Y-62520237D01*
X72528472Y-62526610D01*
X72519608Y-62531348D01*
X72509999Y-62534263D01*
X72493860Y-62535852D01*
X67506140Y-62535852D01*
X67490001Y-62534263D01*
X67480392Y-62531348D01*
X67471528Y-62526610D01*
X67463763Y-62520237D01*
X67457390Y-62512472D01*
X67452652Y-62503608D01*
X67449737Y-62493999D01*
X67448148Y-62477860D01*
X67448148Y-59617809D01*
X67445746Y-59593423D01*
X67438633Y-59569974D01*
X67427082Y-59548363D01*
X67094054Y-59049951D01*
X67083500Y-59030206D01*
X66844388Y-58452938D01*
X66837890Y-58431519D01*
X66715992Y-57818696D01*
X66713798Y-57796416D01*
X66713798Y-57171584D01*
X66715992Y-57149304D01*
X66837890Y-56536481D01*
X66844388Y-56515062D01*
X67083500Y-55937794D01*
X67094054Y-55918049D01*
X67441192Y-55398520D01*
X67455393Y-55381215D01*
X67897215Y-54939393D01*
X67914520Y-54925192D01*
X68434049Y-54578054D01*
X68453794Y-54567500D01*
X69031062Y-54328388D01*
X69052481Y-54321890D01*
X69665304Y-54199992D01*
X69687584Y-54197798D01*
X70312416Y-54197798D01*
X70334696Y-54199992D01*
X70334696Y-54199992D01*
G37*
G36*
X50334696Y-54199992D02*
G01*
X50947519Y-54321890D01*
X50968938Y-54328388D01*
X51546206Y-54567500D01*
X51565951Y-54578054D01*
X52085480Y-54925192D01*
X52102785Y-54939393D01*
X52544607Y-55381215D01*
X52558808Y-55398520D01*
X52905946Y-55918049D01*
X52916500Y-55937794D01*
X53155612Y-56515062D01*
X53162110Y-56536481D01*
X53284008Y-57149304D01*
X53286202Y-57171584D01*
X53286202Y-57796416D01*
X53284008Y-57818696D01*
X53162110Y-58431519D01*
X53155612Y-58452938D01*
X52916500Y-59030206D01*
X52905946Y-59049951D01*
X52572918Y-59548363D01*
X52561367Y-59569974D01*
X52554254Y-59593423D01*
X52551852Y-59617809D01*
X52551852Y-62477860D01*
X52550263Y-62493999D01*
X52547348Y-62503608D01*
X52542610Y-62512472D01*
X52536237Y-62520237D01*
X52528472Y-62526610D01*
X52519608Y-62531348D01*
X52509999Y-62534263D01*
X52493860Y-62535852D01*
X47506140Y-62535852D01*
X47490001Y-62534263D01*
X47480392Y-62531348D01*
X47471528Y-62526610D01*
X47463763Y-62520237D01*
X47457390Y-62512472D01*
X47452652Y-62503608D01*
X47449737Y-62493999D01*
X47448148Y-62477860D01*
X47448148Y-59617809D01*
X47445746Y-59593423D01*
X47438633Y-59569974D01*
X47427082Y-59548363D01*
X47094054Y-59049951D01*
X47083500Y-59030206D01*
X46844388Y-58452938D01*
X46837890Y-58431519D01*
X46715992Y-57818696D01*
X46713798Y-57796416D01*
X46713798Y-57171584D01*
X46715992Y-57149304D01*
X46837890Y-56536481D01*
X46844388Y-56515062D01*
X47083500Y-55937794D01*
X47094054Y-55918049D01*
X47441192Y-55398520D01*
X47455393Y-55381215D01*
X47897215Y-54939393D01*
X47914520Y-54925192D01*
X48434049Y-54578054D01*
X48453794Y-54567500D01*
X49031062Y-54328388D01*
X49052481Y-54321890D01*
X49665304Y-54199992D01*
X49687584Y-54197798D01*
X50312416Y-54197798D01*
X50334696Y-54199992D01*
X50334696Y-54199992D01*
G37*
G36*
X30334696Y-54199992D02*
G01*
X30947519Y-54321890D01*
X30968938Y-54328388D01*
X31546206Y-54567500D01*
X31565951Y-54578054D01*
X32085480Y-54925192D01*
X32102785Y-54939393D01*
X32544607Y-55381215D01*
X32558808Y-55398520D01*
X32905946Y-55918049D01*
X32916500Y-55937794D01*
X33155612Y-56515062D01*
X33162110Y-56536481D01*
X33284008Y-57149304D01*
X33286202Y-57171584D01*
X33286202Y-57796416D01*
X33284008Y-57818696D01*
X33162110Y-58431519D01*
X33155612Y-58452938D01*
X32916500Y-59030206D01*
X32905946Y-59049951D01*
X32572918Y-59548363D01*
X32561367Y-59569974D01*
X32554254Y-59593423D01*
X32551852Y-59617809D01*
X32551852Y-62477860D01*
X32550263Y-62493999D01*
X32547348Y-62503608D01*
X32542610Y-62512472D01*
X32536237Y-62520237D01*
X32528472Y-62526610D01*
X32519608Y-62531348D01*
X32509999Y-62534263D01*
X32493860Y-62535852D01*
X27506140Y-62535852D01*
X27490001Y-62534263D01*
X27480392Y-62531348D01*
X27471528Y-62526610D01*
X27463763Y-62520237D01*
X27457390Y-62512472D01*
X27452652Y-62503608D01*
X27449737Y-62493999D01*
X27448148Y-62477860D01*
X27448148Y-59617809D01*
X27445746Y-59593423D01*
X27438633Y-59569974D01*
X27427082Y-59548363D01*
X27094054Y-59049951D01*
X27083500Y-59030206D01*
X26844388Y-58452938D01*
X26837890Y-58431519D01*
X26715992Y-57818696D01*
X26713798Y-57796416D01*
X26713798Y-57171584D01*
X26715992Y-57149304D01*
X26837890Y-56536481D01*
X26844388Y-56515062D01*
X27083500Y-55937794D01*
X27094054Y-55918049D01*
X27441192Y-55398520D01*
X27455393Y-55381215D01*
X27897215Y-54939393D01*
X27914520Y-54925192D01*
X28434049Y-54578054D01*
X28453794Y-54567500D01*
X29031062Y-54328388D01*
X29052481Y-54321890D01*
X29665304Y-54199992D01*
X29687584Y-54197798D01*
X30312416Y-54197798D01*
X30334696Y-54199992D01*
X30334696Y-54199992D01*
G37*
G36*
X10334696Y-54199992D02*
G01*
X10947519Y-54321890D01*
X10968938Y-54328388D01*
X11546206Y-54567500D01*
X11565951Y-54578054D01*
X12085480Y-54925192D01*
X12102785Y-54939393D01*
X12544607Y-55381215D01*
X12558808Y-55398520D01*
X12905946Y-55918049D01*
X12916500Y-55937794D01*
X13155612Y-56515062D01*
X13162110Y-56536481D01*
X13284008Y-57149304D01*
X13286202Y-57171584D01*
X13286202Y-57796416D01*
X13284008Y-57818696D01*
X13162110Y-58431519D01*
X13155612Y-58452938D01*
X12916500Y-59030206D01*
X12905946Y-59049951D01*
X12572918Y-59548363D01*
X12561367Y-59569974D01*
X12554254Y-59593423D01*
X12551852Y-59617809D01*
X12551852Y-62477860D01*
X12550263Y-62493999D01*
X12547348Y-62503608D01*
X12542610Y-62512472D01*
X12536237Y-62520237D01*
X12528472Y-62526610D01*
X12519608Y-62531348D01*
X12509999Y-62534263D01*
X12493860Y-62535852D01*
X7506140Y-62535852D01*
X7490001Y-62534263D01*
X7480392Y-62531348D01*
X7471528Y-62526610D01*
X7463763Y-62520237D01*
X7457390Y-62512472D01*
X7452652Y-62503608D01*
X7449737Y-62493999D01*
X7448148Y-62477860D01*
X7448148Y-59617809D01*
X7445746Y-59593423D01*
X7438633Y-59569974D01*
X7427082Y-59548363D01*
X7094054Y-59049951D01*
X7083500Y-59030206D01*
X6844388Y-58452938D01*
X6837890Y-58431519D01*
X6715992Y-57818696D01*
X6713798Y-57796416D01*
X6713798Y-57171584D01*
X6715992Y-57149304D01*
X6837890Y-56536481D01*
X6844388Y-56515062D01*
X7083500Y-55937794D01*
X7094054Y-55918049D01*
X7441192Y-55398520D01*
X7455393Y-55381215D01*
X7897215Y-54939393D01*
X7914520Y-54925192D01*
X8434049Y-54578054D01*
X8453794Y-54567500D01*
X9031062Y-54328388D01*
X9052481Y-54321890D01*
X9665304Y-54199992D01*
X9687584Y-54197798D01*
X10312416Y-54197798D01*
X10334696Y-54199992D01*
X10334696Y-54199992D01*
G37*
G36*
X60889943Y-50039248D02*
G01*
X61445189Y-50269238D01*
X61445190Y-50269239D01*
X61944899Y-50603134D01*
X62369866Y-51028101D01*
X62369867Y-51028103D01*
X62703762Y-51527811D01*
X62933752Y-52083057D01*
X63051000Y-52672501D01*
X63051000Y-53273499D01*
X62933752Y-53862943D01*
X62703762Y-54418189D01*
X62703761Y-54418190D01*
X62369866Y-54917899D01*
X61944899Y-55342866D01*
X61880367Y-55385985D01*
X61445189Y-55676762D01*
X60889943Y-55906752D01*
X60300499Y-56024000D01*
X59699501Y-56024000D01*
X59110057Y-55906752D01*
X58554811Y-55676762D01*
X58119633Y-55385985D01*
X58055101Y-55342866D01*
X57630134Y-54917899D01*
X57296239Y-54418190D01*
X57296238Y-54418189D01*
X57066248Y-53862943D01*
X56949000Y-53273499D01*
X56949000Y-52672501D01*
X57066248Y-52083057D01*
X57296238Y-51527811D01*
X57630133Y-51028103D01*
X57630134Y-51028101D01*
X58055101Y-50603134D01*
X58554810Y-50269239D01*
X58554811Y-50269238D01*
X59110057Y-50039248D01*
X59699501Y-49922000D01*
X60300499Y-49922000D01*
X60889943Y-50039248D01*
X60889943Y-50039248D01*
G37*
G36*
X80889943Y-50039248D02*
G01*
X81445189Y-50269238D01*
X81445190Y-50269239D01*
X81944899Y-50603134D01*
X82369866Y-51028101D01*
X82369867Y-51028103D01*
X82703762Y-51527811D01*
X82933752Y-52083057D01*
X83051000Y-52672501D01*
X83051000Y-53273499D01*
X82933752Y-53862943D01*
X82703762Y-54418189D01*
X82703761Y-54418190D01*
X82369866Y-54917899D01*
X81944899Y-55342866D01*
X81880367Y-55385985D01*
X81445189Y-55676762D01*
X80889943Y-55906752D01*
X80300499Y-56024000D01*
X79699501Y-56024000D01*
X79110057Y-55906752D01*
X78554811Y-55676762D01*
X78119633Y-55385985D01*
X78055101Y-55342866D01*
X77630134Y-54917899D01*
X77296239Y-54418190D01*
X77296238Y-54418189D01*
X77066248Y-53862943D01*
X76949000Y-53273499D01*
X76949000Y-52672501D01*
X77066248Y-52083057D01*
X77296238Y-51527811D01*
X77630133Y-51028103D01*
X77630134Y-51028101D01*
X78055101Y-50603134D01*
X78554810Y-50269239D01*
X78554811Y-50269238D01*
X79110057Y-50039248D01*
X79699501Y-49922000D01*
X80300499Y-49922000D01*
X80889943Y-50039248D01*
X80889943Y-50039248D01*
G37*
G36*
X40889943Y-50039248D02*
G01*
X41445189Y-50269238D01*
X41445190Y-50269239D01*
X41944899Y-50603134D01*
X42369866Y-51028101D01*
X42369867Y-51028103D01*
X42703762Y-51527811D01*
X42933752Y-52083057D01*
X43051000Y-52672501D01*
X43051000Y-53273499D01*
X42933752Y-53862943D01*
X42703762Y-54418189D01*
X42703761Y-54418190D01*
X42369866Y-54917899D01*
X41944899Y-55342866D01*
X41880367Y-55385985D01*
X41445189Y-55676762D01*
X40889943Y-55906752D01*
X40300499Y-56024000D01*
X39699501Y-56024000D01*
X39110057Y-55906752D01*
X38554811Y-55676762D01*
X38119633Y-55385985D01*
X38055101Y-55342866D01*
X37630134Y-54917899D01*
X37296239Y-54418190D01*
X37296238Y-54418189D01*
X37066248Y-53862943D01*
X36949000Y-53273499D01*
X36949000Y-52672501D01*
X37066248Y-52083057D01*
X37296238Y-51527811D01*
X37630133Y-51028103D01*
X37630134Y-51028101D01*
X38055101Y-50603134D01*
X38554810Y-50269239D01*
X38554811Y-50269238D01*
X39110057Y-50039248D01*
X39699501Y-49922000D01*
X40300499Y-49922000D01*
X40889943Y-50039248D01*
X40889943Y-50039248D01*
G37*
G36*
X20889943Y-50039248D02*
G01*
X21445189Y-50269238D01*
X21445190Y-50269239D01*
X21944899Y-50603134D01*
X22369866Y-51028101D01*
X22369867Y-51028103D01*
X22703762Y-51527811D01*
X22933752Y-52083057D01*
X23051000Y-52672501D01*
X23051000Y-53273499D01*
X22933752Y-53862943D01*
X22703762Y-54418189D01*
X22703761Y-54418190D01*
X22369866Y-54917899D01*
X21944899Y-55342866D01*
X21880367Y-55385985D01*
X21445189Y-55676762D01*
X20889943Y-55906752D01*
X20300499Y-56024000D01*
X19699501Y-56024000D01*
X19110057Y-55906752D01*
X18554811Y-55676762D01*
X18119633Y-55385985D01*
X18055101Y-55342866D01*
X17630134Y-54917899D01*
X17296239Y-54418190D01*
X17296238Y-54418189D01*
X17066248Y-53862943D01*
X16949000Y-53273499D01*
X16949000Y-52672501D01*
X17066248Y-52083057D01*
X17296238Y-51527811D01*
X17630133Y-51028103D01*
X17630134Y-51028101D01*
X18055101Y-50603134D01*
X18554810Y-50269239D01*
X18554811Y-50269238D01*
X19110057Y-50039248D01*
X19699501Y-49922000D01*
X20300499Y-49922000D01*
X20889943Y-50039248D01*
X20889943Y-50039248D01*
G37*
G36*
X100889943Y-50039248D02*
G01*
X101445189Y-50269238D01*
X101445190Y-50269239D01*
X101944899Y-50603134D01*
X102369866Y-51028101D01*
X102369867Y-51028103D01*
X102703762Y-51527811D01*
X102933752Y-52083057D01*
X103051000Y-52672501D01*
X103051000Y-53273499D01*
X102933752Y-53862943D01*
X102703762Y-54418189D01*
X102703761Y-54418190D01*
X102369866Y-54917899D01*
X101944899Y-55342866D01*
X101880367Y-55385985D01*
X101445189Y-55676762D01*
X100889943Y-55906752D01*
X100300499Y-56024000D01*
X99699501Y-56024000D01*
X99110057Y-55906752D01*
X98554811Y-55676762D01*
X98119633Y-55385985D01*
X98055101Y-55342866D01*
X97630134Y-54917899D01*
X97296239Y-54418190D01*
X97296238Y-54418189D01*
X97066248Y-53862943D01*
X96949000Y-53273499D01*
X96949000Y-52672501D01*
X97066248Y-52083057D01*
X97296238Y-51527811D01*
X97630133Y-51028103D01*
X97630134Y-51028101D01*
X98055101Y-50603134D01*
X98554810Y-50269239D01*
X98554811Y-50269238D01*
X99110057Y-50039248D01*
X99699501Y-49922000D01*
X100300499Y-49922000D01*
X100889943Y-50039248D01*
X100889943Y-50039248D01*
G37*
G36*
X889943Y-50039248D02*
G01*
X1445189Y-50269238D01*
X1445190Y-50269239D01*
X1944899Y-50603134D01*
X2369866Y-51028101D01*
X2369867Y-51028103D01*
X2703762Y-51527811D01*
X2933752Y-52083057D01*
X3051000Y-52672501D01*
X3051000Y-53273499D01*
X2933752Y-53862943D01*
X2703762Y-54418189D01*
X2703761Y-54418190D01*
X2369866Y-54917899D01*
X1944899Y-55342866D01*
X1880367Y-55385985D01*
X1445189Y-55676762D01*
X889943Y-55906752D01*
X300499Y-56024000D01*
X-300499Y-56024000D01*
X-889943Y-55906752D01*
X-1445189Y-55676762D01*
X-1880367Y-55385985D01*
X-1944899Y-55342866D01*
X-2369866Y-54917899D01*
X-2703761Y-54418190D01*
X-2703762Y-54418189D01*
X-2933752Y-53862943D01*
X-3051000Y-53273499D01*
X-3051000Y-52672501D01*
X-2933752Y-52083057D01*
X-2703762Y-51527811D01*
X-2369867Y-51028103D01*
X-2369866Y-51028101D01*
X-1944899Y-50603134D01*
X-1445190Y-50269239D01*
X-1445189Y-50269238D01*
X-889943Y-50039248D01*
X-300499Y-49922000D01*
X300499Y-49922000D01*
X889943Y-50039248D01*
X889943Y-50039248D01*
G37*
G36*
X30889943Y-44094248D02*
G01*
X31445189Y-44324238D01*
X31445190Y-44324239D01*
X31944899Y-44658134D01*
X32369866Y-45083101D01*
X32369867Y-45083103D01*
X32703762Y-45582811D01*
X32933752Y-46138057D01*
X33051000Y-46727501D01*
X33051000Y-47328499D01*
X32933752Y-47917943D01*
X32703762Y-48473189D01*
X32703761Y-48473190D01*
X32369866Y-48972899D01*
X31944899Y-49397866D01*
X31693347Y-49565948D01*
X31445189Y-49731762D01*
X30889943Y-49961752D01*
X30300499Y-50079000D01*
X29699501Y-50079000D01*
X29110057Y-49961752D01*
X28554811Y-49731762D01*
X28306653Y-49565948D01*
X28055101Y-49397866D01*
X27630134Y-48972899D01*
X27296239Y-48473190D01*
X27296238Y-48473189D01*
X27066248Y-47917943D01*
X26949000Y-47328499D01*
X26949000Y-46727501D01*
X27066248Y-46138057D01*
X27296238Y-45582811D01*
X27630133Y-45083103D01*
X27630134Y-45083101D01*
X28055101Y-44658134D01*
X28554810Y-44324239D01*
X28554811Y-44324238D01*
X29110057Y-44094248D01*
X29699501Y-43977000D01*
X30300499Y-43977000D01*
X30889943Y-44094248D01*
X30889943Y-44094248D01*
G37*
G36*
X50889943Y-44094248D02*
G01*
X51445189Y-44324238D01*
X51445190Y-44324239D01*
X51944899Y-44658134D01*
X52369866Y-45083101D01*
X52369867Y-45083103D01*
X52703762Y-45582811D01*
X52933752Y-46138057D01*
X53051000Y-46727501D01*
X53051000Y-47328499D01*
X52933752Y-47917943D01*
X52703762Y-48473189D01*
X52703761Y-48473190D01*
X52369866Y-48972899D01*
X51944899Y-49397866D01*
X51693347Y-49565948D01*
X51445189Y-49731762D01*
X50889943Y-49961752D01*
X50300499Y-50079000D01*
X49699501Y-50079000D01*
X49110057Y-49961752D01*
X48554811Y-49731762D01*
X48306653Y-49565948D01*
X48055101Y-49397866D01*
X47630134Y-48972899D01*
X47296239Y-48473190D01*
X47296238Y-48473189D01*
X47066248Y-47917943D01*
X46949000Y-47328499D01*
X46949000Y-46727501D01*
X47066248Y-46138057D01*
X47296238Y-45582811D01*
X47630133Y-45083103D01*
X47630134Y-45083101D01*
X48055101Y-44658134D01*
X48554810Y-44324239D01*
X48554811Y-44324238D01*
X49110057Y-44094248D01*
X49699501Y-43977000D01*
X50300499Y-43977000D01*
X50889943Y-44094248D01*
X50889943Y-44094248D01*
G37*
G36*
X90889943Y-44094248D02*
G01*
X91445189Y-44324238D01*
X91445190Y-44324239D01*
X91944899Y-44658134D01*
X92369866Y-45083101D01*
X92369867Y-45083103D01*
X92703762Y-45582811D01*
X92933752Y-46138057D01*
X93051000Y-46727501D01*
X93051000Y-47328499D01*
X92933752Y-47917943D01*
X92703762Y-48473189D01*
X92703761Y-48473190D01*
X92369866Y-48972899D01*
X91944899Y-49397866D01*
X91693347Y-49565948D01*
X91445189Y-49731762D01*
X90889943Y-49961752D01*
X90300499Y-50079000D01*
X89699501Y-50079000D01*
X89110057Y-49961752D01*
X88554811Y-49731762D01*
X88306653Y-49565948D01*
X88055101Y-49397866D01*
X87630134Y-48972899D01*
X87296239Y-48473190D01*
X87296238Y-48473189D01*
X87066248Y-47917943D01*
X86949000Y-47328499D01*
X86949000Y-46727501D01*
X87066248Y-46138057D01*
X87296238Y-45582811D01*
X87630133Y-45083103D01*
X87630134Y-45083101D01*
X88055101Y-44658134D01*
X88554810Y-44324239D01*
X88554811Y-44324238D01*
X89110057Y-44094248D01*
X89699501Y-43977000D01*
X90300499Y-43977000D01*
X90889943Y-44094248D01*
X90889943Y-44094248D01*
G37*
G36*
X70889943Y-44094248D02*
G01*
X71445189Y-44324238D01*
X71445190Y-44324239D01*
X71944899Y-44658134D01*
X72369866Y-45083101D01*
X72369867Y-45083103D01*
X72703762Y-45582811D01*
X72933752Y-46138057D01*
X73051000Y-46727501D01*
X73051000Y-47328499D01*
X72933752Y-47917943D01*
X72703762Y-48473189D01*
X72703761Y-48473190D01*
X72369866Y-48972899D01*
X71944899Y-49397866D01*
X71693347Y-49565948D01*
X71445189Y-49731762D01*
X70889943Y-49961752D01*
X70300499Y-50079000D01*
X69699501Y-50079000D01*
X69110057Y-49961752D01*
X68554811Y-49731762D01*
X68306653Y-49565948D01*
X68055101Y-49397866D01*
X67630134Y-48972899D01*
X67296239Y-48473190D01*
X67296238Y-48473189D01*
X67066248Y-47917943D01*
X66949000Y-47328499D01*
X66949000Y-46727501D01*
X67066248Y-46138057D01*
X67296238Y-45582811D01*
X67630133Y-45083103D01*
X67630134Y-45083101D01*
X68055101Y-44658134D01*
X68554810Y-44324239D01*
X68554811Y-44324238D01*
X69110057Y-44094248D01*
X69699501Y-43977000D01*
X70300499Y-43977000D01*
X70889943Y-44094248D01*
X70889943Y-44094248D01*
G37*
G36*
X10889943Y-44094248D02*
G01*
X11445189Y-44324238D01*
X11445190Y-44324239D01*
X11944899Y-44658134D01*
X12369866Y-45083101D01*
X12369867Y-45083103D01*
X12703762Y-45582811D01*
X12933752Y-46138057D01*
X13051000Y-46727501D01*
X13051000Y-47328499D01*
X12933752Y-47917943D01*
X12703762Y-48473189D01*
X12703761Y-48473190D01*
X12369866Y-48972899D01*
X11944899Y-49397866D01*
X11693347Y-49565948D01*
X11445189Y-49731762D01*
X10889943Y-49961752D01*
X10300499Y-50079000D01*
X9699501Y-50079000D01*
X9110057Y-49961752D01*
X8554811Y-49731762D01*
X8306653Y-49565948D01*
X8055101Y-49397866D01*
X7630134Y-48972899D01*
X7296239Y-48473190D01*
X7296238Y-48473189D01*
X7066248Y-47917943D01*
X6949000Y-47328499D01*
X6949000Y-46727501D01*
X7066248Y-46138057D01*
X7296238Y-45582811D01*
X7630133Y-45083103D01*
X7630134Y-45083101D01*
X8055101Y-44658134D01*
X8554810Y-44324239D01*
X8554811Y-44324238D01*
X9110057Y-44094248D01*
X9699501Y-43977000D01*
X10300499Y-43977000D01*
X10889943Y-44094248D01*
X10889943Y-44094248D01*
G37*
G36*
X102509999Y-37466737D02*
G01*
X102519608Y-37469652D01*
X102528472Y-37474390D01*
X102536237Y-37480763D01*
X102542610Y-37488528D01*
X102547348Y-37497392D01*
X102550263Y-37507001D01*
X102551852Y-37523140D01*
X102551852Y-40383191D01*
X102554254Y-40407577D01*
X102561367Y-40431026D01*
X102572918Y-40452637D01*
X102905946Y-40951049D01*
X102916500Y-40970794D01*
X103155612Y-41548062D01*
X103162110Y-41569481D01*
X103284008Y-42182304D01*
X103286202Y-42204584D01*
X103286202Y-42829416D01*
X103284008Y-42851696D01*
X103162110Y-43464519D01*
X103155612Y-43485938D01*
X102916500Y-44063206D01*
X102905946Y-44082951D01*
X102558808Y-44602480D01*
X102544607Y-44619785D01*
X102102785Y-45061607D01*
X102085480Y-45075808D01*
X101565951Y-45422946D01*
X101546206Y-45433500D01*
X100968938Y-45672612D01*
X100947519Y-45679110D01*
X100334696Y-45801008D01*
X100312416Y-45803202D01*
X99687584Y-45803202D01*
X99665304Y-45801008D01*
X99052481Y-45679110D01*
X99031062Y-45672612D01*
X98453794Y-45433500D01*
X98434049Y-45422946D01*
X97914520Y-45075808D01*
X97897215Y-45061607D01*
X97455393Y-44619785D01*
X97441192Y-44602480D01*
X97094054Y-44082951D01*
X97083500Y-44063206D01*
X96844388Y-43485938D01*
X96837890Y-43464519D01*
X96715992Y-42851696D01*
X96713798Y-42829416D01*
X96713798Y-42204584D01*
X96715992Y-42182304D01*
X96837890Y-41569481D01*
X96844388Y-41548062D01*
X97083500Y-40970794D01*
X97094054Y-40951049D01*
X97427082Y-40452637D01*
X97438633Y-40431026D01*
X97445746Y-40407577D01*
X97448148Y-40383191D01*
X97448148Y-37523140D01*
X97449737Y-37507001D01*
X97452652Y-37497392D01*
X97457390Y-37488528D01*
X97463763Y-37480763D01*
X97471528Y-37474390D01*
X97480392Y-37469652D01*
X97490001Y-37466737D01*
X97506140Y-37465148D01*
X102493860Y-37465148D01*
X102509999Y-37466737D01*
X102509999Y-37466737D01*
G37*
G36*
X82509999Y-37466737D02*
G01*
X82519608Y-37469652D01*
X82528472Y-37474390D01*
X82536237Y-37480763D01*
X82542610Y-37488528D01*
X82547348Y-37497392D01*
X82550263Y-37507001D01*
X82551852Y-37523140D01*
X82551852Y-40383191D01*
X82554254Y-40407577D01*
X82561367Y-40431026D01*
X82572918Y-40452637D01*
X82905946Y-40951049D01*
X82916500Y-40970794D01*
X83155612Y-41548062D01*
X83162110Y-41569481D01*
X83284008Y-42182304D01*
X83286202Y-42204584D01*
X83286202Y-42829416D01*
X83284008Y-42851696D01*
X83162110Y-43464519D01*
X83155612Y-43485938D01*
X82916500Y-44063206D01*
X82905946Y-44082951D01*
X82558808Y-44602480D01*
X82544607Y-44619785D01*
X82102785Y-45061607D01*
X82085480Y-45075808D01*
X81565951Y-45422946D01*
X81546206Y-45433500D01*
X80968938Y-45672612D01*
X80947519Y-45679110D01*
X80334696Y-45801008D01*
X80312416Y-45803202D01*
X79687584Y-45803202D01*
X79665304Y-45801008D01*
X79052481Y-45679110D01*
X79031062Y-45672612D01*
X78453794Y-45433500D01*
X78434049Y-45422946D01*
X77914520Y-45075808D01*
X77897215Y-45061607D01*
X77455393Y-44619785D01*
X77441192Y-44602480D01*
X77094054Y-44082951D01*
X77083500Y-44063206D01*
X76844388Y-43485938D01*
X76837890Y-43464519D01*
X76715992Y-42851696D01*
X76713798Y-42829416D01*
X76713798Y-42204584D01*
X76715992Y-42182304D01*
X76837890Y-41569481D01*
X76844388Y-41548062D01*
X77083500Y-40970794D01*
X77094054Y-40951049D01*
X77427082Y-40452637D01*
X77438633Y-40431026D01*
X77445746Y-40407577D01*
X77448148Y-40383191D01*
X77448148Y-37523140D01*
X77449737Y-37507001D01*
X77452652Y-37497392D01*
X77457390Y-37488528D01*
X77463763Y-37480763D01*
X77471528Y-37474390D01*
X77480392Y-37469652D01*
X77490001Y-37466737D01*
X77506140Y-37465148D01*
X82493860Y-37465148D01*
X82509999Y-37466737D01*
X82509999Y-37466737D01*
G37*
G36*
X62509999Y-37466737D02*
G01*
X62519608Y-37469652D01*
X62528472Y-37474390D01*
X62536237Y-37480763D01*
X62542610Y-37488528D01*
X62547348Y-37497392D01*
X62550263Y-37507001D01*
X62551852Y-37523140D01*
X62551852Y-40383191D01*
X62554254Y-40407577D01*
X62561367Y-40431026D01*
X62572918Y-40452637D01*
X62905946Y-40951049D01*
X62916500Y-40970794D01*
X63155612Y-41548062D01*
X63162110Y-41569481D01*
X63284008Y-42182304D01*
X63286202Y-42204584D01*
X63286202Y-42829416D01*
X63284008Y-42851696D01*
X63162110Y-43464519D01*
X63155612Y-43485938D01*
X62916500Y-44063206D01*
X62905946Y-44082951D01*
X62558808Y-44602480D01*
X62544607Y-44619785D01*
X62102785Y-45061607D01*
X62085480Y-45075808D01*
X61565951Y-45422946D01*
X61546206Y-45433500D01*
X60968938Y-45672612D01*
X60947519Y-45679110D01*
X60334696Y-45801008D01*
X60312416Y-45803202D01*
X59687584Y-45803202D01*
X59665304Y-45801008D01*
X59052481Y-45679110D01*
X59031062Y-45672612D01*
X58453794Y-45433500D01*
X58434049Y-45422946D01*
X57914520Y-45075808D01*
X57897215Y-45061607D01*
X57455393Y-44619785D01*
X57441192Y-44602480D01*
X57094054Y-44082951D01*
X57083500Y-44063206D01*
X56844388Y-43485938D01*
X56837890Y-43464519D01*
X56715992Y-42851696D01*
X56713798Y-42829416D01*
X56713798Y-42204584D01*
X56715992Y-42182304D01*
X56837890Y-41569481D01*
X56844388Y-41548062D01*
X57083500Y-40970794D01*
X57094054Y-40951049D01*
X57427082Y-40452637D01*
X57438633Y-40431026D01*
X57445746Y-40407577D01*
X57448148Y-40383191D01*
X57448148Y-37523140D01*
X57449737Y-37507001D01*
X57452652Y-37497392D01*
X57457390Y-37488528D01*
X57463763Y-37480763D01*
X57471528Y-37474390D01*
X57480392Y-37469652D01*
X57490001Y-37466737D01*
X57506140Y-37465148D01*
X62493860Y-37465148D01*
X62509999Y-37466737D01*
X62509999Y-37466737D01*
G37*
G36*
X42509999Y-37466737D02*
G01*
X42519608Y-37469652D01*
X42528472Y-37474390D01*
X42536237Y-37480763D01*
X42542610Y-37488528D01*
X42547348Y-37497392D01*
X42550263Y-37507001D01*
X42551852Y-37523140D01*
X42551852Y-40383191D01*
X42554254Y-40407577D01*
X42561367Y-40431026D01*
X42572918Y-40452637D01*
X42905946Y-40951049D01*
X42916500Y-40970794D01*
X43155612Y-41548062D01*
X43162110Y-41569481D01*
X43284008Y-42182304D01*
X43286202Y-42204584D01*
X43286202Y-42829416D01*
X43284008Y-42851696D01*
X43162110Y-43464519D01*
X43155612Y-43485938D01*
X42916500Y-44063206D01*
X42905946Y-44082951D01*
X42558808Y-44602480D01*
X42544607Y-44619785D01*
X42102785Y-45061607D01*
X42085480Y-45075808D01*
X41565951Y-45422946D01*
X41546206Y-45433500D01*
X40968938Y-45672612D01*
X40947519Y-45679110D01*
X40334696Y-45801008D01*
X40312416Y-45803202D01*
X39687584Y-45803202D01*
X39665304Y-45801008D01*
X39052481Y-45679110D01*
X39031062Y-45672612D01*
X38453794Y-45433500D01*
X38434049Y-45422946D01*
X37914520Y-45075808D01*
X37897215Y-45061607D01*
X37455393Y-44619785D01*
X37441192Y-44602480D01*
X37094054Y-44082951D01*
X37083500Y-44063206D01*
X36844388Y-43485938D01*
X36837890Y-43464519D01*
X36715992Y-42851696D01*
X36713798Y-42829416D01*
X36713798Y-42204584D01*
X36715992Y-42182304D01*
X36837890Y-41569481D01*
X36844388Y-41548062D01*
X37083500Y-40970794D01*
X37094054Y-40951049D01*
X37427082Y-40452637D01*
X37438633Y-40431026D01*
X37445746Y-40407577D01*
X37448148Y-40383191D01*
X37448148Y-37523140D01*
X37449737Y-37507001D01*
X37452652Y-37497392D01*
X37457390Y-37488528D01*
X37463763Y-37480763D01*
X37471528Y-37474390D01*
X37480392Y-37469652D01*
X37490001Y-37466737D01*
X37506140Y-37465148D01*
X42493860Y-37465148D01*
X42509999Y-37466737D01*
X42509999Y-37466737D01*
G37*
G36*
X2509999Y-37466737D02*
G01*
X2519608Y-37469652D01*
X2528472Y-37474390D01*
X2536237Y-37480763D01*
X2542610Y-37488528D01*
X2547348Y-37497392D01*
X2550263Y-37507001D01*
X2551852Y-37523140D01*
X2551852Y-40383191D01*
X2554254Y-40407577D01*
X2561367Y-40431026D01*
X2572918Y-40452637D01*
X2905946Y-40951049D01*
X2916500Y-40970794D01*
X3155612Y-41548062D01*
X3162110Y-41569481D01*
X3284008Y-42182304D01*
X3286202Y-42204584D01*
X3286202Y-42829416D01*
X3284008Y-42851696D01*
X3162110Y-43464519D01*
X3155612Y-43485938D01*
X2916500Y-44063206D01*
X2905946Y-44082951D01*
X2558808Y-44602480D01*
X2544607Y-44619785D01*
X2102785Y-45061607D01*
X2085480Y-45075808D01*
X1565951Y-45422946D01*
X1546206Y-45433500D01*
X968938Y-45672612D01*
X947519Y-45679110D01*
X334696Y-45801008D01*
X312416Y-45803202D01*
X-312416Y-45803202D01*
X-334696Y-45801008D01*
X-947519Y-45679110D01*
X-968938Y-45672612D01*
X-1546206Y-45433500D01*
X-1565951Y-45422946D01*
X-2085480Y-45075808D01*
X-2102785Y-45061607D01*
X-2544607Y-44619785D01*
X-2558808Y-44602480D01*
X-2905946Y-44082951D01*
X-2916500Y-44063206D01*
X-3155612Y-43485938D01*
X-3162110Y-43464519D01*
X-3284008Y-42851696D01*
X-3286202Y-42829416D01*
X-3286202Y-42204584D01*
X-3284008Y-42182304D01*
X-3162110Y-41569481D01*
X-3155612Y-41548062D01*
X-2916500Y-40970794D01*
X-2905946Y-40951049D01*
X-2572918Y-40452637D01*
X-2561367Y-40431026D01*
X-2554254Y-40407577D01*
X-2551852Y-40383191D01*
X-2551852Y-37523140D01*
X-2550263Y-37507001D01*
X-2547348Y-37497392D01*
X-2542610Y-37488528D01*
X-2536237Y-37480763D01*
X-2528472Y-37474390D01*
X-2519608Y-37469652D01*
X-2509999Y-37466737D01*
X-2493860Y-37465148D01*
X2493860Y-37465148D01*
X2509999Y-37466737D01*
X2509999Y-37466737D01*
G37*
G36*
X22509999Y-37466737D02*
G01*
X22519608Y-37469652D01*
X22528472Y-37474390D01*
X22536237Y-37480763D01*
X22542610Y-37488528D01*
X22547348Y-37497392D01*
X22550263Y-37507001D01*
X22551852Y-37523140D01*
X22551852Y-40383191D01*
X22554254Y-40407577D01*
X22561367Y-40431026D01*
X22572918Y-40452637D01*
X22905946Y-40951049D01*
X22916500Y-40970794D01*
X23155612Y-41548062D01*
X23162110Y-41569481D01*
X23284008Y-42182304D01*
X23286202Y-42204584D01*
X23286202Y-42829416D01*
X23284008Y-42851696D01*
X23162110Y-43464519D01*
X23155612Y-43485938D01*
X22916500Y-44063206D01*
X22905946Y-44082951D01*
X22558808Y-44602480D01*
X22544607Y-44619785D01*
X22102785Y-45061607D01*
X22085480Y-45075808D01*
X21565951Y-45422946D01*
X21546206Y-45433500D01*
X20968938Y-45672612D01*
X20947519Y-45679110D01*
X20334696Y-45801008D01*
X20312416Y-45803202D01*
X19687584Y-45803202D01*
X19665304Y-45801008D01*
X19052481Y-45679110D01*
X19031062Y-45672612D01*
X18453794Y-45433500D01*
X18434049Y-45422946D01*
X17914520Y-45075808D01*
X17897215Y-45061607D01*
X17455393Y-44619785D01*
X17441192Y-44602480D01*
X17094054Y-44082951D01*
X17083500Y-44063206D01*
X16844388Y-43485938D01*
X16837890Y-43464519D01*
X16715992Y-42851696D01*
X16713798Y-42829416D01*
X16713798Y-42204584D01*
X16715992Y-42182304D01*
X16837890Y-41569481D01*
X16844388Y-41548062D01*
X17083500Y-40970794D01*
X17094054Y-40951049D01*
X17427082Y-40452637D01*
X17438633Y-40431026D01*
X17445746Y-40407577D01*
X17448148Y-40383191D01*
X17448148Y-37523140D01*
X17449737Y-37507001D01*
X17452652Y-37497392D01*
X17457390Y-37488528D01*
X17463763Y-37480763D01*
X17471528Y-37474390D01*
X17480392Y-37469652D01*
X17490001Y-37466737D01*
X17506140Y-37465148D01*
X22493860Y-37465148D01*
X22509999Y-37466737D01*
X22509999Y-37466737D01*
G37*
G36*
X10889943Y-35441248D02*
G01*
X11445189Y-35671238D01*
X11445190Y-35671239D01*
X11944899Y-36005134D01*
X12369866Y-36430101D01*
X12369867Y-36430103D01*
X12703762Y-36929811D01*
X12933752Y-37485057D01*
X13051000Y-38074501D01*
X13051000Y-38675499D01*
X12933752Y-39264943D01*
X12703762Y-39820189D01*
X12703761Y-39820190D01*
X12369866Y-40319899D01*
X11944899Y-40744866D01*
X11693347Y-40912948D01*
X11445189Y-41078762D01*
X10889943Y-41308752D01*
X10300499Y-41426000D01*
X9699501Y-41426000D01*
X9110057Y-41308752D01*
X8554811Y-41078762D01*
X8306653Y-40912948D01*
X8055101Y-40744866D01*
X7630134Y-40319899D01*
X7296239Y-39820190D01*
X7296238Y-39820189D01*
X7066248Y-39264943D01*
X6949000Y-38675499D01*
X6949000Y-38074501D01*
X7066248Y-37485057D01*
X7296238Y-36929811D01*
X7630133Y-36430103D01*
X7630134Y-36430101D01*
X8055101Y-36005134D01*
X8554810Y-35671239D01*
X8554811Y-35671238D01*
X9110057Y-35441248D01*
X9699501Y-35324000D01*
X10300499Y-35324000D01*
X10889943Y-35441248D01*
X10889943Y-35441248D01*
G37*
G36*
X30889943Y-35441248D02*
G01*
X31445189Y-35671238D01*
X31445190Y-35671239D01*
X31944899Y-36005134D01*
X32369866Y-36430101D01*
X32369867Y-36430103D01*
X32703762Y-36929811D01*
X32933752Y-37485057D01*
X33051000Y-38074501D01*
X33051000Y-38675499D01*
X32933752Y-39264943D01*
X32703762Y-39820189D01*
X32703761Y-39820190D01*
X32369866Y-40319899D01*
X31944899Y-40744866D01*
X31693347Y-40912948D01*
X31445189Y-41078762D01*
X30889943Y-41308752D01*
X30300499Y-41426000D01*
X29699501Y-41426000D01*
X29110057Y-41308752D01*
X28554811Y-41078762D01*
X28306653Y-40912948D01*
X28055101Y-40744866D01*
X27630134Y-40319899D01*
X27296239Y-39820190D01*
X27296238Y-39820189D01*
X27066248Y-39264943D01*
X26949000Y-38675499D01*
X26949000Y-38074501D01*
X27066248Y-37485057D01*
X27296238Y-36929811D01*
X27630133Y-36430103D01*
X27630134Y-36430101D01*
X28055101Y-36005134D01*
X28554810Y-35671239D01*
X28554811Y-35671238D01*
X29110057Y-35441248D01*
X29699501Y-35324000D01*
X30300499Y-35324000D01*
X30889943Y-35441248D01*
X30889943Y-35441248D01*
G37*
G36*
X50889943Y-35441248D02*
G01*
X51445189Y-35671238D01*
X51445190Y-35671239D01*
X51944899Y-36005134D01*
X52369866Y-36430101D01*
X52369867Y-36430103D01*
X52703762Y-36929811D01*
X52933752Y-37485057D01*
X53051000Y-38074501D01*
X53051000Y-38675499D01*
X52933752Y-39264943D01*
X52703762Y-39820189D01*
X52703761Y-39820190D01*
X52369866Y-40319899D01*
X51944899Y-40744866D01*
X51693347Y-40912948D01*
X51445189Y-41078762D01*
X50889943Y-41308752D01*
X50300499Y-41426000D01*
X49699501Y-41426000D01*
X49110057Y-41308752D01*
X48554811Y-41078762D01*
X48306653Y-40912948D01*
X48055101Y-40744866D01*
X47630134Y-40319899D01*
X47296239Y-39820190D01*
X47296238Y-39820189D01*
X47066248Y-39264943D01*
X46949000Y-38675499D01*
X46949000Y-38074501D01*
X47066248Y-37485057D01*
X47296238Y-36929811D01*
X47630133Y-36430103D01*
X47630134Y-36430101D01*
X48055101Y-36005134D01*
X48554810Y-35671239D01*
X48554811Y-35671238D01*
X49110057Y-35441248D01*
X49699501Y-35324000D01*
X50300499Y-35324000D01*
X50889943Y-35441248D01*
X50889943Y-35441248D01*
G37*
G36*
X90889943Y-35441248D02*
G01*
X91445189Y-35671238D01*
X91445190Y-35671239D01*
X91944899Y-36005134D01*
X92369866Y-36430101D01*
X92369867Y-36430103D01*
X92703762Y-36929811D01*
X92933752Y-37485057D01*
X93051000Y-38074501D01*
X93051000Y-38675499D01*
X92933752Y-39264943D01*
X92703762Y-39820189D01*
X92703761Y-39820190D01*
X92369866Y-40319899D01*
X91944899Y-40744866D01*
X91693347Y-40912948D01*
X91445189Y-41078762D01*
X90889943Y-41308752D01*
X90300499Y-41426000D01*
X89699501Y-41426000D01*
X89110057Y-41308752D01*
X88554811Y-41078762D01*
X88306653Y-40912948D01*
X88055101Y-40744866D01*
X87630134Y-40319899D01*
X87296239Y-39820190D01*
X87296238Y-39820189D01*
X87066248Y-39264943D01*
X86949000Y-38675499D01*
X86949000Y-38074501D01*
X87066248Y-37485057D01*
X87296238Y-36929811D01*
X87630133Y-36430103D01*
X87630134Y-36430101D01*
X88055101Y-36005134D01*
X88554810Y-35671239D01*
X88554811Y-35671238D01*
X89110057Y-35441248D01*
X89699501Y-35324000D01*
X90300499Y-35324000D01*
X90889943Y-35441248D01*
X90889943Y-35441248D01*
G37*
G36*
X70889943Y-35441248D02*
G01*
X71445189Y-35671238D01*
X71445190Y-35671239D01*
X71944899Y-36005134D01*
X72369866Y-36430101D01*
X72369867Y-36430103D01*
X72703762Y-36929811D01*
X72933752Y-37485057D01*
X73051000Y-38074501D01*
X73051000Y-38675499D01*
X72933752Y-39264943D01*
X72703762Y-39820189D01*
X72703761Y-39820190D01*
X72369866Y-40319899D01*
X71944899Y-40744866D01*
X71693347Y-40912948D01*
X71445189Y-41078762D01*
X70889943Y-41308752D01*
X70300499Y-41426000D01*
X69699501Y-41426000D01*
X69110057Y-41308752D01*
X68554811Y-41078762D01*
X68306653Y-40912948D01*
X68055101Y-40744866D01*
X67630134Y-40319899D01*
X67296239Y-39820190D01*
X67296238Y-39820189D01*
X67066248Y-39264943D01*
X66949000Y-38675499D01*
X66949000Y-38074501D01*
X67066248Y-37485057D01*
X67296238Y-36929811D01*
X67630133Y-36430103D01*
X67630134Y-36430101D01*
X68055101Y-36005134D01*
X68554810Y-35671239D01*
X68554811Y-35671238D01*
X69110057Y-35441248D01*
X69699501Y-35324000D01*
X70300499Y-35324000D01*
X70889943Y-35441248D01*
X70889943Y-35441248D01*
G37*
G36*
X68820442Y-31355518D02*
G01*
X68886627Y-31362037D01*
X69056466Y-31413557D01*
X69212991Y-31497222D01*
X69248729Y-31526552D01*
X69350186Y-31609814D01*
X69430369Y-31707519D01*
X69462778Y-31747009D01*
X69546443Y-31903534D01*
X69597963Y-32073373D01*
X69615359Y-32250000D01*
X69597963Y-32426627D01*
X69546443Y-32596466D01*
X69462778Y-32752991D01*
X69433448Y-32788729D01*
X69350186Y-32890186D01*
X69248729Y-32973448D01*
X69212991Y-33002778D01*
X69056466Y-33086443D01*
X68886627Y-33137963D01*
X68820443Y-33144481D01*
X68754260Y-33151000D01*
X68665740Y-33151000D01*
X68599557Y-33144481D01*
X68533373Y-33137963D01*
X68363534Y-33086443D01*
X68207009Y-33002778D01*
X68171271Y-32973448D01*
X68069814Y-32890186D01*
X67986552Y-32788729D01*
X67957222Y-32752991D01*
X67873557Y-32596466D01*
X67822037Y-32426627D01*
X67804641Y-32250000D01*
X67822037Y-32073373D01*
X67873557Y-31903534D01*
X67957222Y-31747009D01*
X67989631Y-31707519D01*
X68069814Y-31609814D01*
X68171271Y-31526552D01*
X68207009Y-31497222D01*
X68363534Y-31413557D01*
X68533373Y-31362037D01*
X68599558Y-31355518D01*
X68665740Y-31349000D01*
X68754260Y-31349000D01*
X68820442Y-31355518D01*
X68820442Y-31355518D01*
G37*
G36*
X72151000Y-33151000D02*
G01*
X70349000Y-33151000D01*
X70349000Y-31349000D01*
X72151000Y-31349000D01*
X72151000Y-33151000D01*
X72151000Y-33151000D01*
G37*
G36*
X93246823Y-31411313D02*
G01*
X93407242Y-31459976D01*
X93474361Y-31495852D01*
X93555078Y-31538996D01*
X93684659Y-31645341D01*
X93791004Y-31774922D01*
X93791005Y-31774924D01*
X93870024Y-31922758D01*
X93918687Y-32083177D01*
X93935117Y-32250000D01*
X93918687Y-32416823D01*
X93870024Y-32577242D01*
X93829477Y-32653100D01*
X93791004Y-32725078D01*
X93684659Y-32854659D01*
X93555078Y-32961004D01*
X93555076Y-32961005D01*
X93407242Y-33040024D01*
X93246823Y-33088687D01*
X93121804Y-33101000D01*
X93038196Y-33101000D01*
X92913177Y-33088687D01*
X92752758Y-33040024D01*
X92604924Y-32961005D01*
X92604922Y-32961004D01*
X92475341Y-32854659D01*
X92368996Y-32725078D01*
X92330523Y-32653100D01*
X92289976Y-32577242D01*
X92241313Y-32416823D01*
X92224883Y-32250000D01*
X92241313Y-32083177D01*
X92289976Y-31922758D01*
X92368995Y-31774924D01*
X92368996Y-31774922D01*
X92475341Y-31645341D01*
X92604922Y-31538996D01*
X92685639Y-31495852D01*
X92752758Y-31459976D01*
X92913177Y-31411313D01*
X93038196Y-31399000D01*
X93121804Y-31399000D01*
X93246823Y-31411313D01*
X93246823Y-31411313D01*
G37*
G36*
X88248228Y-31431703D02*
G01*
X88403100Y-31495853D01*
X88542481Y-31588985D01*
X88661015Y-31707519D01*
X88754147Y-31846900D01*
X88818297Y-32001772D01*
X88851000Y-32166184D01*
X88851000Y-32333816D01*
X88818297Y-32498228D01*
X88754147Y-32653100D01*
X88661015Y-32792481D01*
X88542481Y-32911015D01*
X88403100Y-33004147D01*
X88248228Y-33068297D01*
X88083816Y-33101000D01*
X87916184Y-33101000D01*
X87751772Y-33068297D01*
X87596900Y-33004147D01*
X87457519Y-32911015D01*
X87338985Y-32792481D01*
X87245853Y-32653100D01*
X87181703Y-32498228D01*
X87149000Y-32333816D01*
X87149000Y-32166184D01*
X87181703Y-32001772D01*
X87245853Y-31846900D01*
X87338985Y-31707519D01*
X87457519Y-31588985D01*
X87596900Y-31495853D01*
X87751772Y-31431703D01*
X87916184Y-31399000D01*
X88083816Y-31399000D01*
X88248228Y-31431703D01*
X88248228Y-31431703D01*
G37*
G36*
X10901000Y-32901000D02*
G01*
X9099000Y-32901000D01*
X9099000Y-31099000D01*
X10901000Y-31099000D01*
X10901000Y-32901000D01*
X10901000Y-32901000D01*
G37*
G36*
X100889943Y-25359248D02*
G01*
X101445189Y-25589238D01*
X101693347Y-25755052D01*
X101944899Y-25923134D01*
X102369866Y-26348101D01*
X102369867Y-26348103D01*
X102703762Y-26847811D01*
X102933752Y-27403057D01*
X103051000Y-27992501D01*
X103051000Y-28593499D01*
X102933752Y-29182943D01*
X102703762Y-29738189D01*
X102703761Y-29738190D01*
X102369866Y-30237899D01*
X101944899Y-30662866D01*
X101693347Y-30830948D01*
X101445189Y-30996762D01*
X100889943Y-31226752D01*
X100300499Y-31344000D01*
X99699501Y-31344000D01*
X99110057Y-31226752D01*
X98554811Y-30996762D01*
X98306653Y-30830948D01*
X98055101Y-30662866D01*
X97630134Y-30237899D01*
X97296239Y-29738190D01*
X97296238Y-29738189D01*
X97066248Y-29182943D01*
X96949000Y-28593499D01*
X96949000Y-27992501D01*
X97066248Y-27403057D01*
X97296238Y-26847811D01*
X97630133Y-26348103D01*
X97630134Y-26348101D01*
X98055101Y-25923134D01*
X98306653Y-25755052D01*
X98554811Y-25589238D01*
X99110057Y-25359248D01*
X99699501Y-25242000D01*
X100300499Y-25242000D01*
X100889943Y-25359248D01*
X100889943Y-25359248D01*
G37*
G36*
X40889943Y-25359248D02*
G01*
X41445189Y-25589238D01*
X41693347Y-25755052D01*
X41944899Y-25923134D01*
X42369866Y-26348101D01*
X42369867Y-26348103D01*
X42703762Y-26847811D01*
X42933752Y-27403057D01*
X43051000Y-27992501D01*
X43051000Y-28593499D01*
X42933752Y-29182943D01*
X42703762Y-29738189D01*
X42703761Y-29738190D01*
X42369866Y-30237899D01*
X41944899Y-30662866D01*
X41693347Y-30830948D01*
X41445189Y-30996762D01*
X40889943Y-31226752D01*
X40300499Y-31344000D01*
X39699501Y-31344000D01*
X39110057Y-31226752D01*
X38554811Y-30996762D01*
X38306653Y-30830948D01*
X38055101Y-30662866D01*
X37630134Y-30237899D01*
X37296239Y-29738190D01*
X37296238Y-29738189D01*
X37066248Y-29182943D01*
X36949000Y-28593499D01*
X36949000Y-27992501D01*
X37066248Y-27403057D01*
X37296238Y-26847811D01*
X37630133Y-26348103D01*
X37630134Y-26348101D01*
X38055101Y-25923134D01*
X38306653Y-25755052D01*
X38554811Y-25589238D01*
X39110057Y-25359248D01*
X39699501Y-25242000D01*
X40300499Y-25242000D01*
X40889943Y-25359248D01*
X40889943Y-25359248D01*
G37*
G36*
X889943Y-25359248D02*
G01*
X1445189Y-25589238D01*
X1693347Y-25755052D01*
X1944899Y-25923134D01*
X2369866Y-26348101D01*
X2369867Y-26348103D01*
X2703762Y-26847811D01*
X2933752Y-27403057D01*
X3051000Y-27992501D01*
X3051000Y-28593499D01*
X2933752Y-29182943D01*
X2703762Y-29738189D01*
X2703761Y-29738190D01*
X2369866Y-30237899D01*
X1944899Y-30662866D01*
X1693347Y-30830948D01*
X1445189Y-30996762D01*
X889943Y-31226752D01*
X300499Y-31344000D01*
X-300499Y-31344000D01*
X-889943Y-31226752D01*
X-1445189Y-30996762D01*
X-1693347Y-30830948D01*
X-1944899Y-30662866D01*
X-2369866Y-30237899D01*
X-2703761Y-29738190D01*
X-2703762Y-29738189D01*
X-2933752Y-29182943D01*
X-3051000Y-28593499D01*
X-3051000Y-27992501D01*
X-2933752Y-27403057D01*
X-2703762Y-26847811D01*
X-2369867Y-26348103D01*
X-2369866Y-26348101D01*
X-1944899Y-25923134D01*
X-1693347Y-25755052D01*
X-1445189Y-25589238D01*
X-889943Y-25359248D01*
X-300499Y-25242000D01*
X300499Y-25242000D01*
X889943Y-25359248D01*
X889943Y-25359248D01*
G37*
G36*
X20889943Y-25359248D02*
G01*
X21445189Y-25589238D01*
X21693347Y-25755052D01*
X21944899Y-25923134D01*
X22369866Y-26348101D01*
X22369867Y-26348103D01*
X22703762Y-26847811D01*
X22933752Y-27403057D01*
X23051000Y-27992501D01*
X23051000Y-28593499D01*
X22933752Y-29182943D01*
X22703762Y-29738189D01*
X22703761Y-29738190D01*
X22369866Y-30237899D01*
X21944899Y-30662866D01*
X21693347Y-30830948D01*
X21445189Y-30996762D01*
X20889943Y-31226752D01*
X20300499Y-31344000D01*
X19699501Y-31344000D01*
X19110057Y-31226752D01*
X18554811Y-30996762D01*
X18306653Y-30830948D01*
X18055101Y-30662866D01*
X17630134Y-30237899D01*
X17296239Y-29738190D01*
X17296238Y-29738189D01*
X17066248Y-29182943D01*
X16949000Y-28593499D01*
X16949000Y-27992501D01*
X17066248Y-27403057D01*
X17296238Y-26847811D01*
X17630133Y-26348103D01*
X17630134Y-26348101D01*
X18055101Y-25923134D01*
X18306653Y-25755052D01*
X18554811Y-25589238D01*
X19110057Y-25359248D01*
X19699501Y-25242000D01*
X20300499Y-25242000D01*
X20889943Y-25359248D01*
X20889943Y-25359248D01*
G37*
G36*
X60889943Y-25359248D02*
G01*
X61445189Y-25589238D01*
X61693347Y-25755052D01*
X61944899Y-25923134D01*
X62369866Y-26348101D01*
X62369867Y-26348103D01*
X62703762Y-26847811D01*
X62933752Y-27403057D01*
X63051000Y-27992501D01*
X63051000Y-28593499D01*
X62933752Y-29182943D01*
X62703762Y-29738189D01*
X62703761Y-29738190D01*
X62369866Y-30237899D01*
X61944899Y-30662866D01*
X61693347Y-30830948D01*
X61445189Y-30996762D01*
X60889943Y-31226752D01*
X60300499Y-31344000D01*
X59699501Y-31344000D01*
X59110057Y-31226752D01*
X58554811Y-30996762D01*
X58306653Y-30830948D01*
X58055101Y-30662866D01*
X57630134Y-30237899D01*
X57296239Y-29738190D01*
X57296238Y-29738189D01*
X57066248Y-29182943D01*
X56949000Y-28593499D01*
X56949000Y-27992501D01*
X57066248Y-27403057D01*
X57296238Y-26847811D01*
X57630133Y-26348103D01*
X57630134Y-26348101D01*
X58055101Y-25923134D01*
X58306653Y-25755052D01*
X58554811Y-25589238D01*
X59110057Y-25359248D01*
X59699501Y-25242000D01*
X60300499Y-25242000D01*
X60889943Y-25359248D01*
X60889943Y-25359248D01*
G37*
G36*
X80889943Y-25359248D02*
G01*
X81445189Y-25589238D01*
X81693347Y-25755052D01*
X81944899Y-25923134D01*
X82369866Y-26348101D01*
X82369867Y-26348103D01*
X82703762Y-26847811D01*
X82933752Y-27403057D01*
X83051000Y-27992501D01*
X83051000Y-28593499D01*
X82933752Y-29182943D01*
X82703762Y-29738189D01*
X82703761Y-29738190D01*
X82369866Y-30237899D01*
X81944899Y-30662866D01*
X81693347Y-30830948D01*
X81445189Y-30996762D01*
X80889943Y-31226752D01*
X80300499Y-31344000D01*
X79699501Y-31344000D01*
X79110057Y-31226752D01*
X78554811Y-30996762D01*
X78306653Y-30830948D01*
X78055101Y-30662866D01*
X77630134Y-30237899D01*
X77296239Y-29738190D01*
X77296238Y-29738189D01*
X77066248Y-29182943D01*
X76949000Y-28593499D01*
X76949000Y-27992501D01*
X77066248Y-27403057D01*
X77296238Y-26847811D01*
X77630133Y-26348103D01*
X77630134Y-26348101D01*
X78055101Y-25923134D01*
X78306653Y-25755052D01*
X78554811Y-25589238D01*
X79110057Y-25359248D01*
X79699501Y-25242000D01*
X80300499Y-25242000D01*
X80889943Y-25359248D01*
X80889943Y-25359248D01*
G37*
G36*
X10334696Y-20866992D02*
G01*
X10947519Y-20988890D01*
X10968938Y-20995388D01*
X11546206Y-21234500D01*
X11565951Y-21245054D01*
X12085480Y-21592192D01*
X12102785Y-21606393D01*
X12544607Y-22048215D01*
X12558808Y-22065520D01*
X12905946Y-22585049D01*
X12916500Y-22604794D01*
X13155612Y-23182062D01*
X13162110Y-23203481D01*
X13284008Y-23816304D01*
X13286202Y-23838584D01*
X13286202Y-24463416D01*
X13284008Y-24485696D01*
X13162110Y-25098519D01*
X13155612Y-25119938D01*
X12916500Y-25697206D01*
X12905946Y-25716951D01*
X12572918Y-26215363D01*
X12561367Y-26236974D01*
X12554254Y-26260423D01*
X12551852Y-26284809D01*
X12551852Y-29144860D01*
X12550263Y-29160999D01*
X12547348Y-29170608D01*
X12542610Y-29179472D01*
X12536237Y-29187237D01*
X12528472Y-29193610D01*
X12519608Y-29198348D01*
X12509999Y-29201263D01*
X12493860Y-29202852D01*
X7506140Y-29202852D01*
X7490001Y-29201263D01*
X7480392Y-29198348D01*
X7471528Y-29193610D01*
X7463763Y-29187237D01*
X7457390Y-29179472D01*
X7452652Y-29170608D01*
X7449737Y-29160999D01*
X7448148Y-29144860D01*
X7448148Y-26284809D01*
X7445746Y-26260423D01*
X7438633Y-26236974D01*
X7427082Y-26215363D01*
X7094054Y-25716951D01*
X7083500Y-25697206D01*
X6844388Y-25119938D01*
X6837890Y-25098519D01*
X6715992Y-24485696D01*
X6713798Y-24463416D01*
X6713798Y-23838584D01*
X6715992Y-23816304D01*
X6837890Y-23203481D01*
X6844388Y-23182062D01*
X7083500Y-22604794D01*
X7094054Y-22585049D01*
X7441192Y-22065520D01*
X7455393Y-22048215D01*
X7897215Y-21606393D01*
X7914520Y-21592192D01*
X8434049Y-21245054D01*
X8453794Y-21234500D01*
X9031062Y-20995388D01*
X9052481Y-20988890D01*
X9665304Y-20866992D01*
X9687584Y-20864798D01*
X10312416Y-20864798D01*
X10334696Y-20866992D01*
X10334696Y-20866992D01*
G37*
G36*
X90334696Y-20866992D02*
G01*
X90947519Y-20988890D01*
X90968938Y-20995388D01*
X91546206Y-21234500D01*
X91565951Y-21245054D01*
X92085480Y-21592192D01*
X92102785Y-21606393D01*
X92544607Y-22048215D01*
X92558808Y-22065520D01*
X92905946Y-22585049D01*
X92916500Y-22604794D01*
X93155612Y-23182062D01*
X93162110Y-23203481D01*
X93284008Y-23816304D01*
X93286202Y-23838584D01*
X93286202Y-24463416D01*
X93284008Y-24485696D01*
X93162110Y-25098519D01*
X93155612Y-25119938D01*
X92916500Y-25697206D01*
X92905946Y-25716951D01*
X92572918Y-26215363D01*
X92561367Y-26236974D01*
X92554254Y-26260423D01*
X92551852Y-26284809D01*
X92551852Y-29144860D01*
X92550263Y-29160999D01*
X92547348Y-29170608D01*
X92542610Y-29179472D01*
X92536237Y-29187237D01*
X92528472Y-29193610D01*
X92519608Y-29198348D01*
X92509999Y-29201263D01*
X92493860Y-29202852D01*
X87506140Y-29202852D01*
X87490001Y-29201263D01*
X87480392Y-29198348D01*
X87471528Y-29193610D01*
X87463763Y-29187237D01*
X87457390Y-29179472D01*
X87452652Y-29170608D01*
X87449737Y-29160999D01*
X87448148Y-29144860D01*
X87448148Y-26284809D01*
X87445746Y-26260423D01*
X87438633Y-26236974D01*
X87427082Y-26215363D01*
X87094054Y-25716951D01*
X87083500Y-25697206D01*
X86844388Y-25119938D01*
X86837890Y-25098519D01*
X86715992Y-24485696D01*
X86713798Y-24463416D01*
X86713798Y-23838584D01*
X86715992Y-23816304D01*
X86837890Y-23203481D01*
X86844388Y-23182062D01*
X87083500Y-22604794D01*
X87094054Y-22585049D01*
X87441192Y-22065520D01*
X87455393Y-22048215D01*
X87897215Y-21606393D01*
X87914520Y-21592192D01*
X88434049Y-21245054D01*
X88453794Y-21234500D01*
X89031062Y-20995388D01*
X89052481Y-20988890D01*
X89665304Y-20866992D01*
X89687584Y-20864798D01*
X90312416Y-20864798D01*
X90334696Y-20866992D01*
X90334696Y-20866992D01*
G37*
G36*
X70334696Y-20866992D02*
G01*
X70947519Y-20988890D01*
X70968938Y-20995388D01*
X71546206Y-21234500D01*
X71565951Y-21245054D01*
X72085480Y-21592192D01*
X72102785Y-21606393D01*
X72544607Y-22048215D01*
X72558808Y-22065520D01*
X72905946Y-22585049D01*
X72916500Y-22604794D01*
X73155612Y-23182062D01*
X73162110Y-23203481D01*
X73284008Y-23816304D01*
X73286202Y-23838584D01*
X73286202Y-24463416D01*
X73284008Y-24485696D01*
X73162110Y-25098519D01*
X73155612Y-25119938D01*
X72916500Y-25697206D01*
X72905946Y-25716951D01*
X72572918Y-26215363D01*
X72561367Y-26236974D01*
X72554254Y-26260423D01*
X72551852Y-26284809D01*
X72551852Y-29144860D01*
X72550263Y-29160999D01*
X72547348Y-29170608D01*
X72542610Y-29179472D01*
X72536237Y-29187237D01*
X72528472Y-29193610D01*
X72519608Y-29198348D01*
X72509999Y-29201263D01*
X72493860Y-29202852D01*
X67506140Y-29202852D01*
X67490001Y-29201263D01*
X67480392Y-29198348D01*
X67471528Y-29193610D01*
X67463763Y-29187237D01*
X67457390Y-29179472D01*
X67452652Y-29170608D01*
X67449737Y-29160999D01*
X67448148Y-29144860D01*
X67448148Y-26284809D01*
X67445746Y-26260423D01*
X67438633Y-26236974D01*
X67427082Y-26215363D01*
X67094054Y-25716951D01*
X67083500Y-25697206D01*
X66844388Y-25119938D01*
X66837890Y-25098519D01*
X66715992Y-24485696D01*
X66713798Y-24463416D01*
X66713798Y-23838584D01*
X66715992Y-23816304D01*
X66837890Y-23203481D01*
X66844388Y-23182062D01*
X67083500Y-22604794D01*
X67094054Y-22585049D01*
X67441192Y-22065520D01*
X67455393Y-22048215D01*
X67897215Y-21606393D01*
X67914520Y-21592192D01*
X68434049Y-21245054D01*
X68453794Y-21234500D01*
X69031062Y-20995388D01*
X69052481Y-20988890D01*
X69665304Y-20866992D01*
X69687584Y-20864798D01*
X70312416Y-20864798D01*
X70334696Y-20866992D01*
X70334696Y-20866992D01*
G37*
G36*
X50334696Y-20866992D02*
G01*
X50947519Y-20988890D01*
X50968938Y-20995388D01*
X51546206Y-21234500D01*
X51565951Y-21245054D01*
X52085480Y-21592192D01*
X52102785Y-21606393D01*
X52544607Y-22048215D01*
X52558808Y-22065520D01*
X52905946Y-22585049D01*
X52916500Y-22604794D01*
X53155612Y-23182062D01*
X53162110Y-23203481D01*
X53284008Y-23816304D01*
X53286202Y-23838584D01*
X53286202Y-24463416D01*
X53284008Y-24485696D01*
X53162110Y-25098519D01*
X53155612Y-25119938D01*
X52916500Y-25697206D01*
X52905946Y-25716951D01*
X52572918Y-26215363D01*
X52561367Y-26236974D01*
X52554254Y-26260423D01*
X52551852Y-26284809D01*
X52551852Y-29144860D01*
X52550263Y-29160999D01*
X52547348Y-29170608D01*
X52542610Y-29179472D01*
X52536237Y-29187237D01*
X52528472Y-29193610D01*
X52519608Y-29198348D01*
X52509999Y-29201263D01*
X52493860Y-29202852D01*
X47506140Y-29202852D01*
X47490001Y-29201263D01*
X47480392Y-29198348D01*
X47471528Y-29193610D01*
X47463763Y-29187237D01*
X47457390Y-29179472D01*
X47452652Y-29170608D01*
X47449737Y-29160999D01*
X47448148Y-29144860D01*
X47448148Y-26284809D01*
X47445746Y-26260423D01*
X47438633Y-26236974D01*
X47427082Y-26215363D01*
X47094054Y-25716951D01*
X47083500Y-25697206D01*
X46844388Y-25119938D01*
X46837890Y-25098519D01*
X46715992Y-24485696D01*
X46713798Y-24463416D01*
X46713798Y-23838584D01*
X46715992Y-23816304D01*
X46837890Y-23203481D01*
X46844388Y-23182062D01*
X47083500Y-22604794D01*
X47094054Y-22585049D01*
X47441192Y-22065520D01*
X47455393Y-22048215D01*
X47897215Y-21606393D01*
X47914520Y-21592192D01*
X48434049Y-21245054D01*
X48453794Y-21234500D01*
X49031062Y-20995388D01*
X49052481Y-20988890D01*
X49665304Y-20866992D01*
X49687584Y-20864798D01*
X50312416Y-20864798D01*
X50334696Y-20866992D01*
X50334696Y-20866992D01*
G37*
G36*
X30334696Y-20866992D02*
G01*
X30947519Y-20988890D01*
X30968938Y-20995388D01*
X31546206Y-21234500D01*
X31565951Y-21245054D01*
X32085480Y-21592192D01*
X32102785Y-21606393D01*
X32544607Y-22048215D01*
X32558808Y-22065520D01*
X32905946Y-22585049D01*
X32916500Y-22604794D01*
X33155612Y-23182062D01*
X33162110Y-23203481D01*
X33284008Y-23816304D01*
X33286202Y-23838584D01*
X33286202Y-24463416D01*
X33284008Y-24485696D01*
X33162110Y-25098519D01*
X33155612Y-25119938D01*
X32916500Y-25697206D01*
X32905946Y-25716951D01*
X32572918Y-26215363D01*
X32561367Y-26236974D01*
X32554254Y-26260423D01*
X32551852Y-26284809D01*
X32551852Y-29144860D01*
X32550263Y-29160999D01*
X32547348Y-29170608D01*
X32542610Y-29179472D01*
X32536237Y-29187237D01*
X32528472Y-29193610D01*
X32519608Y-29198348D01*
X32509999Y-29201263D01*
X32493860Y-29202852D01*
X27506140Y-29202852D01*
X27490001Y-29201263D01*
X27480392Y-29198348D01*
X27471528Y-29193610D01*
X27463763Y-29187237D01*
X27457390Y-29179472D01*
X27452652Y-29170608D01*
X27449737Y-29160999D01*
X27448148Y-29144860D01*
X27448148Y-26284809D01*
X27445746Y-26260423D01*
X27438633Y-26236974D01*
X27427082Y-26215363D01*
X27094054Y-25716951D01*
X27083500Y-25697206D01*
X26844388Y-25119938D01*
X26837890Y-25098519D01*
X26715992Y-24485696D01*
X26713798Y-24463416D01*
X26713798Y-23838584D01*
X26715992Y-23816304D01*
X26837890Y-23203481D01*
X26844388Y-23182062D01*
X27083500Y-22604794D01*
X27094054Y-22585049D01*
X27441192Y-22065520D01*
X27455393Y-22048215D01*
X27897215Y-21606393D01*
X27914520Y-21592192D01*
X28434049Y-21245054D01*
X28453794Y-21234500D01*
X29031062Y-20995388D01*
X29052481Y-20988890D01*
X29665304Y-20866992D01*
X29687584Y-20864798D01*
X30312416Y-20864798D01*
X30334696Y-20866992D01*
X30334696Y-20866992D01*
G37*
G36*
X40889943Y-16706248D02*
G01*
X41445189Y-16936238D01*
X41445190Y-16936239D01*
X41944899Y-17270134D01*
X42369866Y-17695101D01*
X42369867Y-17695103D01*
X42703762Y-18194811D01*
X42933752Y-18750057D01*
X43051000Y-19339501D01*
X43051000Y-19940499D01*
X42933752Y-20529943D01*
X42703762Y-21085189D01*
X42703761Y-21085190D01*
X42369866Y-21584899D01*
X41944899Y-22009866D01*
X41880367Y-22052985D01*
X41445189Y-22343762D01*
X40889943Y-22573752D01*
X40300499Y-22691000D01*
X39699501Y-22691000D01*
X39110057Y-22573752D01*
X38554811Y-22343762D01*
X38119633Y-22052985D01*
X38055101Y-22009866D01*
X37630134Y-21584899D01*
X37296239Y-21085190D01*
X37296238Y-21085189D01*
X37066248Y-20529943D01*
X36949000Y-19940499D01*
X36949000Y-19339501D01*
X37066248Y-18750057D01*
X37296238Y-18194811D01*
X37630133Y-17695103D01*
X37630134Y-17695101D01*
X38055101Y-17270134D01*
X38554810Y-16936239D01*
X38554811Y-16936238D01*
X39110057Y-16706248D01*
X39699501Y-16589000D01*
X40300499Y-16589000D01*
X40889943Y-16706248D01*
X40889943Y-16706248D01*
G37*
G36*
X80889943Y-16706248D02*
G01*
X81445189Y-16936238D01*
X81445190Y-16936239D01*
X81944899Y-17270134D01*
X82369866Y-17695101D01*
X82369867Y-17695103D01*
X82703762Y-18194811D01*
X82933752Y-18750057D01*
X83051000Y-19339501D01*
X83051000Y-19940499D01*
X82933752Y-20529943D01*
X82703762Y-21085189D01*
X82703761Y-21085190D01*
X82369866Y-21584899D01*
X81944899Y-22009866D01*
X81880367Y-22052985D01*
X81445189Y-22343762D01*
X80889943Y-22573752D01*
X80300499Y-22691000D01*
X79699501Y-22691000D01*
X79110057Y-22573752D01*
X78554811Y-22343762D01*
X78119633Y-22052985D01*
X78055101Y-22009866D01*
X77630134Y-21584899D01*
X77296239Y-21085190D01*
X77296238Y-21085189D01*
X77066248Y-20529943D01*
X76949000Y-19940499D01*
X76949000Y-19339501D01*
X77066248Y-18750057D01*
X77296238Y-18194811D01*
X77630133Y-17695103D01*
X77630134Y-17695101D01*
X78055101Y-17270134D01*
X78554810Y-16936239D01*
X78554811Y-16936238D01*
X79110057Y-16706248D01*
X79699501Y-16589000D01*
X80300499Y-16589000D01*
X80889943Y-16706248D01*
X80889943Y-16706248D01*
G37*
G36*
X889943Y-16706248D02*
G01*
X1445189Y-16936238D01*
X1445190Y-16936239D01*
X1944899Y-17270134D01*
X2369866Y-17695101D01*
X2369867Y-17695103D01*
X2703762Y-18194811D01*
X2933752Y-18750057D01*
X3051000Y-19339501D01*
X3051000Y-19940499D01*
X2933752Y-20529943D01*
X2703762Y-21085189D01*
X2703761Y-21085190D01*
X2369866Y-21584899D01*
X1944899Y-22009866D01*
X1880367Y-22052985D01*
X1445189Y-22343762D01*
X889943Y-22573752D01*
X300499Y-22691000D01*
X-300499Y-22691000D01*
X-889943Y-22573752D01*
X-1445189Y-22343762D01*
X-1880367Y-22052985D01*
X-1944899Y-22009866D01*
X-2369866Y-21584899D01*
X-2703761Y-21085190D01*
X-2703762Y-21085189D01*
X-2933752Y-20529943D01*
X-3051000Y-19940499D01*
X-3051000Y-19339501D01*
X-2933752Y-18750057D01*
X-2703762Y-18194811D01*
X-2369867Y-17695103D01*
X-2369866Y-17695101D01*
X-1944899Y-17270134D01*
X-1445190Y-16936239D01*
X-1445189Y-16936238D01*
X-889943Y-16706248D01*
X-300499Y-16589000D01*
X300499Y-16589000D01*
X889943Y-16706248D01*
X889943Y-16706248D01*
G37*
G36*
X60889943Y-16706248D02*
G01*
X61445189Y-16936238D01*
X61445190Y-16936239D01*
X61944899Y-17270134D01*
X62369866Y-17695101D01*
X62369867Y-17695103D01*
X62703762Y-18194811D01*
X62933752Y-18750057D01*
X63051000Y-19339501D01*
X63051000Y-19940499D01*
X62933752Y-20529943D01*
X62703762Y-21085189D01*
X62703761Y-21085190D01*
X62369866Y-21584899D01*
X61944899Y-22009866D01*
X61880367Y-22052985D01*
X61445189Y-22343762D01*
X60889943Y-22573752D01*
X60300499Y-22691000D01*
X59699501Y-22691000D01*
X59110057Y-22573752D01*
X58554811Y-22343762D01*
X58119633Y-22052985D01*
X58055101Y-22009866D01*
X57630134Y-21584899D01*
X57296239Y-21085190D01*
X57296238Y-21085189D01*
X57066248Y-20529943D01*
X56949000Y-19940499D01*
X56949000Y-19339501D01*
X57066248Y-18750057D01*
X57296238Y-18194811D01*
X57630133Y-17695103D01*
X57630134Y-17695101D01*
X58055101Y-17270134D01*
X58554810Y-16936239D01*
X58554811Y-16936238D01*
X59110057Y-16706248D01*
X59699501Y-16589000D01*
X60300499Y-16589000D01*
X60889943Y-16706248D01*
X60889943Y-16706248D01*
G37*
G36*
X20889943Y-16706248D02*
G01*
X21445189Y-16936238D01*
X21445190Y-16936239D01*
X21944899Y-17270134D01*
X22369866Y-17695101D01*
X22369867Y-17695103D01*
X22703762Y-18194811D01*
X22933752Y-18750057D01*
X23051000Y-19339501D01*
X23051000Y-19940499D01*
X22933752Y-20529943D01*
X22703762Y-21085189D01*
X22703761Y-21085190D01*
X22369866Y-21584899D01*
X21944899Y-22009866D01*
X21880367Y-22052985D01*
X21445189Y-22343762D01*
X20889943Y-22573752D01*
X20300499Y-22691000D01*
X19699501Y-22691000D01*
X19110057Y-22573752D01*
X18554811Y-22343762D01*
X18119633Y-22052985D01*
X18055101Y-22009866D01*
X17630134Y-21584899D01*
X17296239Y-21085190D01*
X17296238Y-21085189D01*
X17066248Y-20529943D01*
X16949000Y-19940499D01*
X16949000Y-19339501D01*
X17066248Y-18750057D01*
X17296238Y-18194811D01*
X17630133Y-17695103D01*
X17630134Y-17695101D01*
X18055101Y-17270134D01*
X18554810Y-16936239D01*
X18554811Y-16936238D01*
X19110057Y-16706248D01*
X19699501Y-16589000D01*
X20300499Y-16589000D01*
X20889943Y-16706248D01*
X20889943Y-16706248D01*
G37*
G36*
X100889943Y-16706248D02*
G01*
X101445189Y-16936238D01*
X101445190Y-16936239D01*
X101944899Y-17270134D01*
X102369866Y-17695101D01*
X102369867Y-17695103D01*
X102703762Y-18194811D01*
X102933752Y-18750057D01*
X103051000Y-19339501D01*
X103051000Y-19940499D01*
X102933752Y-20529943D01*
X102703762Y-21085189D01*
X102703761Y-21085190D01*
X102369866Y-21584899D01*
X101944899Y-22009866D01*
X101880367Y-22052985D01*
X101445189Y-22343762D01*
X100889943Y-22573752D01*
X100300499Y-22691000D01*
X99699501Y-22691000D01*
X99110057Y-22573752D01*
X98554811Y-22343762D01*
X98119633Y-22052985D01*
X98055101Y-22009866D01*
X97630134Y-21584899D01*
X97296239Y-21085190D01*
X97296238Y-21085189D01*
X97066248Y-20529943D01*
X96949000Y-19940499D01*
X96949000Y-19339501D01*
X97066248Y-18750057D01*
X97296238Y-18194811D01*
X97630133Y-17695103D01*
X97630134Y-17695101D01*
X98055101Y-17270134D01*
X98554810Y-16936239D01*
X98554811Y-16936238D01*
X99110057Y-16706248D01*
X99699501Y-16589000D01*
X100300499Y-16589000D01*
X100889943Y-16706248D01*
X100889943Y-16706248D01*
G37*
G36*
X90889943Y-10761248D02*
G01*
X91445189Y-10991238D01*
X91445190Y-10991239D01*
X91944899Y-11325134D01*
X92369866Y-11750101D01*
X92369867Y-11750103D01*
X92703762Y-12249811D01*
X92933752Y-12805057D01*
X93051000Y-13394501D01*
X93051000Y-13995499D01*
X92933752Y-14584943D01*
X92703762Y-15140189D01*
X92703761Y-15140190D01*
X92369866Y-15639899D01*
X91944899Y-16064866D01*
X91693347Y-16232948D01*
X91445189Y-16398762D01*
X90889943Y-16628752D01*
X90300499Y-16746000D01*
X89699501Y-16746000D01*
X89110057Y-16628752D01*
X88554811Y-16398762D01*
X88306653Y-16232948D01*
X88055101Y-16064866D01*
X87630134Y-15639899D01*
X87296239Y-15140190D01*
X87296238Y-15140189D01*
X87066248Y-14584943D01*
X86949000Y-13995499D01*
X86949000Y-13394501D01*
X87066248Y-12805057D01*
X87296238Y-12249811D01*
X87630133Y-11750103D01*
X87630134Y-11750101D01*
X88055101Y-11325134D01*
X88554810Y-10991239D01*
X88554811Y-10991238D01*
X89110057Y-10761248D01*
X89699501Y-10644000D01*
X90300499Y-10644000D01*
X90889943Y-10761248D01*
X90889943Y-10761248D01*
G37*
G36*
X70889943Y-10761248D02*
G01*
X71445189Y-10991238D01*
X71445190Y-10991239D01*
X71944899Y-11325134D01*
X72369866Y-11750101D01*
X72369867Y-11750103D01*
X72703762Y-12249811D01*
X72933752Y-12805057D01*
X73051000Y-13394501D01*
X73051000Y-13995499D01*
X72933752Y-14584943D01*
X72703762Y-15140189D01*
X72703761Y-15140190D01*
X72369866Y-15639899D01*
X71944899Y-16064866D01*
X71693347Y-16232948D01*
X71445189Y-16398762D01*
X70889943Y-16628752D01*
X70300499Y-16746000D01*
X69699501Y-16746000D01*
X69110057Y-16628752D01*
X68554811Y-16398762D01*
X68306653Y-16232948D01*
X68055101Y-16064866D01*
X67630134Y-15639899D01*
X67296239Y-15140190D01*
X67296238Y-15140189D01*
X67066248Y-14584943D01*
X66949000Y-13995499D01*
X66949000Y-13394501D01*
X67066248Y-12805057D01*
X67296238Y-12249811D01*
X67630133Y-11750103D01*
X67630134Y-11750101D01*
X68055101Y-11325134D01*
X68554810Y-10991239D01*
X68554811Y-10991238D01*
X69110057Y-10761248D01*
X69699501Y-10644000D01*
X70300499Y-10644000D01*
X70889943Y-10761248D01*
X70889943Y-10761248D01*
G37*
G36*
X30889943Y-10761248D02*
G01*
X31445189Y-10991238D01*
X31445190Y-10991239D01*
X31944899Y-11325134D01*
X32369866Y-11750101D01*
X32369867Y-11750103D01*
X32703762Y-12249811D01*
X32933752Y-12805057D01*
X33051000Y-13394501D01*
X33051000Y-13995499D01*
X32933752Y-14584943D01*
X32703762Y-15140189D01*
X32703761Y-15140190D01*
X32369866Y-15639899D01*
X31944899Y-16064866D01*
X31693347Y-16232948D01*
X31445189Y-16398762D01*
X30889943Y-16628752D01*
X30300499Y-16746000D01*
X29699501Y-16746000D01*
X29110057Y-16628752D01*
X28554811Y-16398762D01*
X28306653Y-16232948D01*
X28055101Y-16064866D01*
X27630134Y-15639899D01*
X27296239Y-15140190D01*
X27296238Y-15140189D01*
X27066248Y-14584943D01*
X26949000Y-13995499D01*
X26949000Y-13394501D01*
X27066248Y-12805057D01*
X27296238Y-12249811D01*
X27630133Y-11750103D01*
X27630134Y-11750101D01*
X28055101Y-11325134D01*
X28554810Y-10991239D01*
X28554811Y-10991238D01*
X29110057Y-10761248D01*
X29699501Y-10644000D01*
X30300499Y-10644000D01*
X30889943Y-10761248D01*
X30889943Y-10761248D01*
G37*
G36*
X10889943Y-10761248D02*
G01*
X11445189Y-10991238D01*
X11445190Y-10991239D01*
X11944899Y-11325134D01*
X12369866Y-11750101D01*
X12369867Y-11750103D01*
X12703762Y-12249811D01*
X12933752Y-12805057D01*
X13051000Y-13394501D01*
X13051000Y-13995499D01*
X12933752Y-14584943D01*
X12703762Y-15140189D01*
X12703761Y-15140190D01*
X12369866Y-15639899D01*
X11944899Y-16064866D01*
X11693347Y-16232948D01*
X11445189Y-16398762D01*
X10889943Y-16628752D01*
X10300499Y-16746000D01*
X9699501Y-16746000D01*
X9110057Y-16628752D01*
X8554811Y-16398762D01*
X8306653Y-16232948D01*
X8055101Y-16064866D01*
X7630134Y-15639899D01*
X7296239Y-15140190D01*
X7296238Y-15140189D01*
X7066248Y-14584943D01*
X6949000Y-13995499D01*
X6949000Y-13394501D01*
X7066248Y-12805057D01*
X7296238Y-12249811D01*
X7630133Y-11750103D01*
X7630134Y-11750101D01*
X8055101Y-11325134D01*
X8554810Y-10991239D01*
X8554811Y-10991238D01*
X9110057Y-10761248D01*
X9699501Y-10644000D01*
X10300499Y-10644000D01*
X10889943Y-10761248D01*
X10889943Y-10761248D01*
G37*
G36*
X50889943Y-10761248D02*
G01*
X51445189Y-10991238D01*
X51445190Y-10991239D01*
X51944899Y-11325134D01*
X52369866Y-11750101D01*
X52369867Y-11750103D01*
X52703762Y-12249811D01*
X52933752Y-12805057D01*
X53051000Y-13394501D01*
X53051000Y-13995499D01*
X52933752Y-14584943D01*
X52703762Y-15140189D01*
X52703761Y-15140190D01*
X52369866Y-15639899D01*
X51944899Y-16064866D01*
X51693347Y-16232948D01*
X51445189Y-16398762D01*
X50889943Y-16628752D01*
X50300499Y-16746000D01*
X49699501Y-16746000D01*
X49110057Y-16628752D01*
X48554811Y-16398762D01*
X48306653Y-16232948D01*
X48055101Y-16064866D01*
X47630134Y-15639899D01*
X47296239Y-15140190D01*
X47296238Y-15140189D01*
X47066248Y-14584943D01*
X46949000Y-13995499D01*
X46949000Y-13394501D01*
X47066248Y-12805057D01*
X47296238Y-12249811D01*
X47630133Y-11750103D01*
X47630134Y-11750101D01*
X48055101Y-11325134D01*
X48554810Y-10991239D01*
X48554811Y-10991238D01*
X49110057Y-10761248D01*
X49699501Y-10644000D01*
X50300499Y-10644000D01*
X50889943Y-10761248D01*
X50889943Y-10761248D01*
G37*
G36*
X16401000Y-15901000D02*
G01*
X14599000Y-15901000D01*
X14599000Y-14099000D01*
X16401000Y-14099000D01*
X16401000Y-15901000D01*
X16401000Y-15901000D01*
G37*
G36*
X62509999Y-4133737D02*
G01*
X62519608Y-4136652D01*
X62528472Y-4141390D01*
X62536237Y-4147763D01*
X62542610Y-4155528D01*
X62547348Y-4164392D01*
X62550263Y-4174001D01*
X62551852Y-4190140D01*
X62551852Y-7050191D01*
X62554254Y-7074577D01*
X62561367Y-7098026D01*
X62572918Y-7119637D01*
X62905946Y-7618049D01*
X62916500Y-7637794D01*
X63155612Y-8215062D01*
X63162110Y-8236481D01*
X63284008Y-8849304D01*
X63286202Y-8871584D01*
X63286202Y-9496416D01*
X63284008Y-9518696D01*
X63162110Y-10131519D01*
X63155612Y-10152938D01*
X62916500Y-10730206D01*
X62905946Y-10749951D01*
X62558808Y-11269480D01*
X62544607Y-11286785D01*
X62102785Y-11728607D01*
X62085480Y-11742808D01*
X61565951Y-12089946D01*
X61546206Y-12100500D01*
X60968938Y-12339612D01*
X60947519Y-12346110D01*
X60334696Y-12468008D01*
X60312416Y-12470202D01*
X59687584Y-12470202D01*
X59665304Y-12468008D01*
X59052481Y-12346110D01*
X59031062Y-12339612D01*
X58453794Y-12100500D01*
X58434049Y-12089946D01*
X57914520Y-11742808D01*
X57897215Y-11728607D01*
X57455393Y-11286785D01*
X57441192Y-11269480D01*
X57094054Y-10749951D01*
X57083500Y-10730206D01*
X56844388Y-10152938D01*
X56837890Y-10131519D01*
X56715992Y-9518696D01*
X56713798Y-9496416D01*
X56713798Y-8871584D01*
X56715992Y-8849304D01*
X56837890Y-8236481D01*
X56844388Y-8215062D01*
X57083500Y-7637794D01*
X57094054Y-7618049D01*
X57427082Y-7119637D01*
X57438633Y-7098026D01*
X57445746Y-7074577D01*
X57448148Y-7050191D01*
X57448148Y-4190140D01*
X57449737Y-4174001D01*
X57452652Y-4164392D01*
X57457390Y-4155528D01*
X57463763Y-4147763D01*
X57471528Y-4141390D01*
X57480392Y-4136652D01*
X57490001Y-4133737D01*
X57506140Y-4132148D01*
X62493860Y-4132148D01*
X62509999Y-4133737D01*
X62509999Y-4133737D01*
G37*
G36*
X42509999Y-4133737D02*
G01*
X42519608Y-4136652D01*
X42528472Y-4141390D01*
X42536237Y-4147763D01*
X42542610Y-4155528D01*
X42547348Y-4164392D01*
X42550263Y-4174001D01*
X42551852Y-4190140D01*
X42551852Y-7050191D01*
X42554254Y-7074577D01*
X42561367Y-7098026D01*
X42572918Y-7119637D01*
X42905946Y-7618049D01*
X42916500Y-7637794D01*
X43155612Y-8215062D01*
X43162110Y-8236481D01*
X43284008Y-8849304D01*
X43286202Y-8871584D01*
X43286202Y-9496416D01*
X43284008Y-9518696D01*
X43162110Y-10131519D01*
X43155612Y-10152938D01*
X42916500Y-10730206D01*
X42905946Y-10749951D01*
X42558808Y-11269480D01*
X42544607Y-11286785D01*
X42102785Y-11728607D01*
X42085480Y-11742808D01*
X41565951Y-12089946D01*
X41546206Y-12100500D01*
X40968938Y-12339612D01*
X40947519Y-12346110D01*
X40334696Y-12468008D01*
X40312416Y-12470202D01*
X39687584Y-12470202D01*
X39665304Y-12468008D01*
X39052481Y-12346110D01*
X39031062Y-12339612D01*
X38453794Y-12100500D01*
X38434049Y-12089946D01*
X37914520Y-11742808D01*
X37897215Y-11728607D01*
X37455393Y-11286785D01*
X37441192Y-11269480D01*
X37094054Y-10749951D01*
X37083500Y-10730206D01*
X36844388Y-10152938D01*
X36837890Y-10131519D01*
X36715992Y-9518696D01*
X36713798Y-9496416D01*
X36713798Y-8871584D01*
X36715992Y-8849304D01*
X36837890Y-8236481D01*
X36844388Y-8215062D01*
X37083500Y-7637794D01*
X37094054Y-7618049D01*
X37427082Y-7119637D01*
X37438633Y-7098026D01*
X37445746Y-7074577D01*
X37448148Y-7050191D01*
X37448148Y-4190140D01*
X37449737Y-4174001D01*
X37452652Y-4164392D01*
X37457390Y-4155528D01*
X37463763Y-4147763D01*
X37471528Y-4141390D01*
X37480392Y-4136652D01*
X37490001Y-4133737D01*
X37506140Y-4132148D01*
X42493860Y-4132148D01*
X42509999Y-4133737D01*
X42509999Y-4133737D01*
G37*
G36*
X22509999Y-4133737D02*
G01*
X22519608Y-4136652D01*
X22528472Y-4141390D01*
X22536237Y-4147763D01*
X22542610Y-4155528D01*
X22547348Y-4164392D01*
X22550263Y-4174001D01*
X22551852Y-4190140D01*
X22551852Y-7050191D01*
X22554254Y-7074577D01*
X22561367Y-7098026D01*
X22572918Y-7119637D01*
X22905946Y-7618049D01*
X22916500Y-7637794D01*
X23155612Y-8215062D01*
X23162110Y-8236481D01*
X23284008Y-8849304D01*
X23286202Y-8871584D01*
X23286202Y-9496416D01*
X23284008Y-9518696D01*
X23162110Y-10131519D01*
X23155612Y-10152938D01*
X22916500Y-10730206D01*
X22905946Y-10749951D01*
X22558808Y-11269480D01*
X22544607Y-11286785D01*
X22102785Y-11728607D01*
X22085480Y-11742808D01*
X21565951Y-12089946D01*
X21546206Y-12100500D01*
X20968938Y-12339612D01*
X20947519Y-12346110D01*
X20334696Y-12468008D01*
X20312416Y-12470202D01*
X19687584Y-12470202D01*
X19665304Y-12468008D01*
X19052481Y-12346110D01*
X19031062Y-12339612D01*
X18453794Y-12100500D01*
X18434049Y-12089946D01*
X17914520Y-11742808D01*
X17897215Y-11728607D01*
X17455393Y-11286785D01*
X17441192Y-11269480D01*
X17094054Y-10749951D01*
X17083500Y-10730206D01*
X16844388Y-10152938D01*
X16837890Y-10131519D01*
X16715992Y-9518696D01*
X16713798Y-9496416D01*
X16713798Y-8871584D01*
X16715992Y-8849304D01*
X16837890Y-8236481D01*
X16844388Y-8215062D01*
X17083500Y-7637794D01*
X17094054Y-7618049D01*
X17427082Y-7119637D01*
X17438633Y-7098026D01*
X17445746Y-7074577D01*
X17448148Y-7050191D01*
X17448148Y-4190140D01*
X17449737Y-4174001D01*
X17452652Y-4164392D01*
X17457390Y-4155528D01*
X17463763Y-4147763D01*
X17471528Y-4141390D01*
X17480392Y-4136652D01*
X17490001Y-4133737D01*
X17506140Y-4132148D01*
X22493860Y-4132148D01*
X22509999Y-4133737D01*
X22509999Y-4133737D01*
G37*
G36*
X82509999Y-4133737D02*
G01*
X82519608Y-4136652D01*
X82528472Y-4141390D01*
X82536237Y-4147763D01*
X82542610Y-4155528D01*
X82547348Y-4164392D01*
X82550263Y-4174001D01*
X82551852Y-4190140D01*
X82551852Y-7050191D01*
X82554254Y-7074577D01*
X82561367Y-7098026D01*
X82572918Y-7119637D01*
X82905946Y-7618049D01*
X82916500Y-7637794D01*
X83155612Y-8215062D01*
X83162110Y-8236481D01*
X83284008Y-8849304D01*
X83286202Y-8871584D01*
X83286202Y-9496416D01*
X83284008Y-9518696D01*
X83162110Y-10131519D01*
X83155612Y-10152938D01*
X82916500Y-10730206D01*
X82905946Y-10749951D01*
X82558808Y-11269480D01*
X82544607Y-11286785D01*
X82102785Y-11728607D01*
X82085480Y-11742808D01*
X81565951Y-12089946D01*
X81546206Y-12100500D01*
X80968938Y-12339612D01*
X80947519Y-12346110D01*
X80334696Y-12468008D01*
X80312416Y-12470202D01*
X79687584Y-12470202D01*
X79665304Y-12468008D01*
X79052481Y-12346110D01*
X79031062Y-12339612D01*
X78453794Y-12100500D01*
X78434049Y-12089946D01*
X77914520Y-11742808D01*
X77897215Y-11728607D01*
X77455393Y-11286785D01*
X77441192Y-11269480D01*
X77094054Y-10749951D01*
X77083500Y-10730206D01*
X76844388Y-10152938D01*
X76837890Y-10131519D01*
X76715992Y-9518696D01*
X76713798Y-9496416D01*
X76713798Y-8871584D01*
X76715992Y-8849304D01*
X76837890Y-8236481D01*
X76844388Y-8215062D01*
X77083500Y-7637794D01*
X77094054Y-7618049D01*
X77427082Y-7119637D01*
X77438633Y-7098026D01*
X77445746Y-7074577D01*
X77448148Y-7050191D01*
X77448148Y-4190140D01*
X77449737Y-4174001D01*
X77452652Y-4164392D01*
X77457390Y-4155528D01*
X77463763Y-4147763D01*
X77471528Y-4141390D01*
X77480392Y-4136652D01*
X77490001Y-4133737D01*
X77506140Y-4132148D01*
X82493860Y-4132148D01*
X82509999Y-4133737D01*
X82509999Y-4133737D01*
G37*
G36*
X102509999Y-4133737D02*
G01*
X102519608Y-4136652D01*
X102528472Y-4141390D01*
X102536237Y-4147763D01*
X102542610Y-4155528D01*
X102547348Y-4164392D01*
X102550263Y-4174001D01*
X102551852Y-4190140D01*
X102551852Y-7050191D01*
X102554254Y-7074577D01*
X102561367Y-7098026D01*
X102572918Y-7119637D01*
X102905946Y-7618049D01*
X102916500Y-7637794D01*
X103155612Y-8215062D01*
X103162110Y-8236481D01*
X103284008Y-8849304D01*
X103286202Y-8871584D01*
X103286202Y-9496416D01*
X103284008Y-9518696D01*
X103162110Y-10131519D01*
X103155612Y-10152938D01*
X102916500Y-10730206D01*
X102905946Y-10749951D01*
X102558808Y-11269480D01*
X102544607Y-11286785D01*
X102102785Y-11728607D01*
X102085480Y-11742808D01*
X101565951Y-12089946D01*
X101546206Y-12100500D01*
X100968938Y-12339612D01*
X100947519Y-12346110D01*
X100334696Y-12468008D01*
X100312416Y-12470202D01*
X99687584Y-12470202D01*
X99665304Y-12468008D01*
X99052481Y-12346110D01*
X99031062Y-12339612D01*
X98453794Y-12100500D01*
X98434049Y-12089946D01*
X97914520Y-11742808D01*
X97897215Y-11728607D01*
X97455393Y-11286785D01*
X97441192Y-11269480D01*
X97094054Y-10749951D01*
X97083500Y-10730206D01*
X96844388Y-10152938D01*
X96837890Y-10131519D01*
X96715992Y-9518696D01*
X96713798Y-9496416D01*
X96713798Y-8871584D01*
X96715992Y-8849304D01*
X96837890Y-8236481D01*
X96844388Y-8215062D01*
X97083500Y-7637794D01*
X97094054Y-7618049D01*
X97427082Y-7119637D01*
X97438633Y-7098026D01*
X97445746Y-7074577D01*
X97448148Y-7050191D01*
X97448148Y-4190140D01*
X97449737Y-4174001D01*
X97452652Y-4164392D01*
X97457390Y-4155528D01*
X97463763Y-4147763D01*
X97471528Y-4141390D01*
X97480392Y-4136652D01*
X97490001Y-4133737D01*
X97506140Y-4132148D01*
X102493860Y-4132148D01*
X102509999Y-4133737D01*
X102509999Y-4133737D01*
G37*
G36*
X2509999Y-4133737D02*
G01*
X2519608Y-4136652D01*
X2528472Y-4141390D01*
X2536237Y-4147763D01*
X2542610Y-4155528D01*
X2547348Y-4164392D01*
X2550263Y-4174001D01*
X2551852Y-4190140D01*
X2551852Y-7050191D01*
X2554254Y-7074577D01*
X2561367Y-7098026D01*
X2572918Y-7119637D01*
X2905946Y-7618049D01*
X2916500Y-7637794D01*
X3155612Y-8215062D01*
X3162110Y-8236481D01*
X3284008Y-8849304D01*
X3286202Y-8871584D01*
X3286202Y-9496416D01*
X3284008Y-9518696D01*
X3162110Y-10131519D01*
X3155612Y-10152938D01*
X2916500Y-10730206D01*
X2905946Y-10749951D01*
X2558808Y-11269480D01*
X2544607Y-11286785D01*
X2102785Y-11728607D01*
X2085480Y-11742808D01*
X1565951Y-12089946D01*
X1546206Y-12100500D01*
X968938Y-12339612D01*
X947519Y-12346110D01*
X334696Y-12468008D01*
X312416Y-12470202D01*
X-312416Y-12470202D01*
X-334696Y-12468008D01*
X-947519Y-12346110D01*
X-968938Y-12339612D01*
X-1546206Y-12100500D01*
X-1565951Y-12089946D01*
X-2085480Y-11742808D01*
X-2102785Y-11728607D01*
X-2544607Y-11286785D01*
X-2558808Y-11269480D01*
X-2905946Y-10749951D01*
X-2916500Y-10730206D01*
X-3155612Y-10152938D01*
X-3162110Y-10131519D01*
X-3284008Y-9518696D01*
X-3286202Y-9496416D01*
X-3286202Y-8871584D01*
X-3284008Y-8849304D01*
X-3162110Y-8236481D01*
X-3155612Y-8215062D01*
X-2916500Y-7637794D01*
X-2905946Y-7618049D01*
X-2572918Y-7119637D01*
X-2561367Y-7098026D01*
X-2554254Y-7074577D01*
X-2551852Y-7050191D01*
X-2551852Y-4190140D01*
X-2550263Y-4174001D01*
X-2547348Y-4164392D01*
X-2542610Y-4155528D01*
X-2536237Y-4147763D01*
X-2528472Y-4141390D01*
X-2519608Y-4136652D01*
X-2509999Y-4133737D01*
X-2493860Y-4132148D01*
X2493860Y-4132148D01*
X2509999Y-4133737D01*
X2509999Y-4133737D01*
G37*
G36*
X50889943Y-2108248D02*
G01*
X51445189Y-2338238D01*
X51445190Y-2338239D01*
X51944899Y-2672134D01*
X52369866Y-3097101D01*
X52369867Y-3097103D01*
X52703762Y-3596811D01*
X52933752Y-4152057D01*
X53051000Y-4741501D01*
X53051000Y-5342499D01*
X52933752Y-5931943D01*
X52703762Y-6487189D01*
X52703761Y-6487190D01*
X52369866Y-6986899D01*
X51944899Y-7411866D01*
X51693347Y-7579948D01*
X51445189Y-7745762D01*
X50889943Y-7975752D01*
X50300499Y-8093000D01*
X49699501Y-8093000D01*
X49110057Y-7975752D01*
X48554811Y-7745762D01*
X48306653Y-7579948D01*
X48055101Y-7411866D01*
X47630134Y-6986899D01*
X47296239Y-6487190D01*
X47296238Y-6487189D01*
X47066248Y-5931943D01*
X46949000Y-5342499D01*
X46949000Y-4741501D01*
X47066248Y-4152057D01*
X47296238Y-3596811D01*
X47630133Y-3097103D01*
X47630134Y-3097101D01*
X48055101Y-2672134D01*
X48554810Y-2338239D01*
X48554811Y-2338238D01*
X49110057Y-2108248D01*
X49699501Y-1991000D01*
X50300499Y-1991000D01*
X50889943Y-2108248D01*
X50889943Y-2108248D01*
G37*
G36*
X30889943Y-2108248D02*
G01*
X31445189Y-2338238D01*
X31445190Y-2338239D01*
X31944899Y-2672134D01*
X32369866Y-3097101D01*
X32369867Y-3097103D01*
X32703762Y-3596811D01*
X32933752Y-4152057D01*
X33051000Y-4741501D01*
X33051000Y-5342499D01*
X32933752Y-5931943D01*
X32703762Y-6487189D01*
X32703761Y-6487190D01*
X32369866Y-6986899D01*
X31944899Y-7411866D01*
X31693347Y-7579948D01*
X31445189Y-7745762D01*
X30889943Y-7975752D01*
X30300499Y-8093000D01*
X29699501Y-8093000D01*
X29110057Y-7975752D01*
X28554811Y-7745762D01*
X28306653Y-7579948D01*
X28055101Y-7411866D01*
X27630134Y-6986899D01*
X27296239Y-6487190D01*
X27296238Y-6487189D01*
X27066248Y-5931943D01*
X26949000Y-5342499D01*
X26949000Y-4741501D01*
X27066248Y-4152057D01*
X27296238Y-3596811D01*
X27630133Y-3097103D01*
X27630134Y-3097101D01*
X28055101Y-2672134D01*
X28554810Y-2338239D01*
X28554811Y-2338238D01*
X29110057Y-2108248D01*
X29699501Y-1991000D01*
X30300499Y-1991000D01*
X30889943Y-2108248D01*
X30889943Y-2108248D01*
G37*
G36*
X70889943Y-2108248D02*
G01*
X71445189Y-2338238D01*
X71445190Y-2338239D01*
X71944899Y-2672134D01*
X72369866Y-3097101D01*
X72369867Y-3097103D01*
X72703762Y-3596811D01*
X72933752Y-4152057D01*
X73051000Y-4741501D01*
X73051000Y-5342499D01*
X72933752Y-5931943D01*
X72703762Y-6487189D01*
X72703761Y-6487190D01*
X72369866Y-6986899D01*
X71944899Y-7411866D01*
X71693347Y-7579948D01*
X71445189Y-7745762D01*
X70889943Y-7975752D01*
X70300499Y-8093000D01*
X69699501Y-8093000D01*
X69110057Y-7975752D01*
X68554811Y-7745762D01*
X68306653Y-7579948D01*
X68055101Y-7411866D01*
X67630134Y-6986899D01*
X67296239Y-6487190D01*
X67296238Y-6487189D01*
X67066248Y-5931943D01*
X66949000Y-5342499D01*
X66949000Y-4741501D01*
X67066248Y-4152057D01*
X67296238Y-3596811D01*
X67630133Y-3097103D01*
X67630134Y-3097101D01*
X68055101Y-2672134D01*
X68554810Y-2338239D01*
X68554811Y-2338238D01*
X69110057Y-2108248D01*
X69699501Y-1991000D01*
X70300499Y-1991000D01*
X70889943Y-2108248D01*
X70889943Y-2108248D01*
G37*
G36*
X90889943Y-2108248D02*
G01*
X91445189Y-2338238D01*
X91445190Y-2338239D01*
X91944899Y-2672134D01*
X92369866Y-3097101D01*
X92369867Y-3097103D01*
X92703762Y-3596811D01*
X92933752Y-4152057D01*
X93051000Y-4741501D01*
X93051000Y-5342499D01*
X92933752Y-5931943D01*
X92703762Y-6487189D01*
X92703761Y-6487190D01*
X92369866Y-6986899D01*
X91944899Y-7411866D01*
X91693347Y-7579948D01*
X91445189Y-7745762D01*
X90889943Y-7975752D01*
X90300499Y-8093000D01*
X89699501Y-8093000D01*
X89110057Y-7975752D01*
X88554811Y-7745762D01*
X88306653Y-7579948D01*
X88055101Y-7411866D01*
X87630134Y-6986899D01*
X87296239Y-6487190D01*
X87296238Y-6487189D01*
X87066248Y-5931943D01*
X86949000Y-5342499D01*
X86949000Y-4741501D01*
X87066248Y-4152057D01*
X87296238Y-3596811D01*
X87630133Y-3097103D01*
X87630134Y-3097101D01*
X88055101Y-2672134D01*
X88554810Y-2338239D01*
X88554811Y-2338238D01*
X89110057Y-2108248D01*
X89699501Y-1991000D01*
X90300499Y-1991000D01*
X90889943Y-2108248D01*
X90889943Y-2108248D01*
G37*
G36*
X10889943Y-2108248D02*
G01*
X11445189Y-2338238D01*
X11445190Y-2338239D01*
X11944899Y-2672134D01*
X12369866Y-3097101D01*
X12369867Y-3097103D01*
X12703762Y-3596811D01*
X12933752Y-4152057D01*
X13051000Y-4741501D01*
X13051000Y-5342499D01*
X12933752Y-5931943D01*
X12703762Y-6487189D01*
X12703761Y-6487190D01*
X12369866Y-6986899D01*
X11944899Y-7411866D01*
X11693347Y-7579948D01*
X11445189Y-7745762D01*
X10889943Y-7975752D01*
X10300499Y-8093000D01*
X9699501Y-8093000D01*
X9110057Y-7975752D01*
X8554811Y-7745762D01*
X8306653Y-7579948D01*
X8055101Y-7411866D01*
X7630134Y-6986899D01*
X7296239Y-6487190D01*
X7296238Y-6487189D01*
X7066248Y-5931943D01*
X6949000Y-5342499D01*
X6949000Y-4741501D01*
X7066248Y-4152057D01*
X7296238Y-3596811D01*
X7630133Y-3097103D01*
X7630134Y-3097101D01*
X8055101Y-2672134D01*
X8554810Y-2338239D01*
X8554811Y-2338238D01*
X9110057Y-2108248D01*
X9699501Y-1991000D01*
X10300499Y-1991000D01*
X10889943Y-2108248D01*
X10889943Y-2108248D01*
G37*
M02*
