G04 #@! TF.GenerationSoftware,KiCad,Pcbnew,(5.1.0-1152-gc9ccd8a64)*
G04 #@! TF.CreationDate,2019-07-16T09:28:44-04:00*
G04 #@! TF.ProjectId,Pack,5061636b-2e6b-4696-9361-645f70636258,rev?*
G04 #@! TF.SameCoordinates,Original*
G04 #@! TF.FileFunction,Copper,L1,Top*
G04 #@! TF.FilePolarity,Positive*
%FSLAX46Y46*%
G04 Gerber Fmt 4.6, Leading zero omitted, Abs format (unit mm)*
G04 Created by KiCad (PCBNEW (5.1.0-1152-gc9ccd8a64)) date 2019-07-16 09:28:44*
%MOMM*%
%LPD*%
G04 APERTURE LIST*
%ADD10R,1.500000X0.450000*%
%ADD11C,5.250000*%
%ADD12R,5.000000X8.000000*%
%ADD13R,8.000000X5.000000*%
%ADD14C,6.000000*%
%ADD15R,14.000000X18.000000*%
%ADD16R,5.000000X170.000000*%
%ADD17R,2.000000X2.600000*%
%ADD18O,2.000000X2.600000*%
%ADD19R,1.700000X1.700000*%
%ADD20O,1.700000X1.700000*%
%ADD21R,1.200000X0.750000*%
%ADD22R,1.500000X1.300000*%
%ADD23R,0.900000X1.200000*%
%ADD24R,1.200000X0.900000*%
%ADD25R,0.750000X1.200000*%
%ADD26C,0.800000*%
%ADD27C,0.250000*%
%ADD28C,0.500000*%
%ADD29C,3.000000*%
%ADD30C,0.254000*%
G04 APERTURE END LIST*
D10*
X101121000Y-181243400D03*
X101121000Y-180593400D03*
X101121000Y-179943400D03*
X101121000Y-179293400D03*
X101121000Y-178643400D03*
X101121000Y-177993400D03*
X101121000Y-177343400D03*
X101121000Y-176693400D03*
X95221000Y-176693400D03*
X95221000Y-177343400D03*
X95221000Y-177993400D03*
X95221000Y-178643400D03*
X95221000Y-179293400D03*
X95221000Y-179943400D03*
X95221000Y-180593400D03*
X95221000Y-181243400D03*
D11*
X205750000Y-61861000D03*
X205750000Y-60861000D03*
X205750000Y-57861000D03*
X205750000Y-58861000D03*
X197250000Y-60861000D03*
X197250000Y-61861000D03*
X197250000Y-57861000D03*
X197250000Y-58861000D03*
D12*
X194250000Y-59861000D03*
X209750000Y-59861000D03*
D11*
X197250000Y-59861000D03*
X205750000Y-59861000D03*
X225250000Y-163183000D03*
X225250000Y-162183000D03*
X225250000Y-159183000D03*
X225250000Y-160183000D03*
X216750000Y-162183000D03*
X216750000Y-163183000D03*
X216750000Y-159183000D03*
X216750000Y-160183000D03*
D12*
X213750000Y-161183000D03*
X229250000Y-161183000D03*
D11*
X216750000Y-161183000D03*
X225250000Y-161183000D03*
X30250000Y-95635000D03*
X30250000Y-94635000D03*
X30250000Y-91635000D03*
X30250000Y-92635000D03*
X21750000Y-94635000D03*
X21750000Y-95635000D03*
X21750000Y-91635000D03*
X21750000Y-92635000D03*
D12*
X18750000Y-93635000D03*
X34250000Y-93635000D03*
D11*
X21750000Y-93635000D03*
X30250000Y-93635000D03*
X59500000Y-11200000D03*
X59500000Y-10200000D03*
X59500000Y-7200000D03*
X59500000Y-8200000D03*
X51000000Y-10200000D03*
X51000000Y-11200000D03*
X51000000Y-7200000D03*
X51000000Y-8200000D03*
D12*
X48000000Y-9200000D03*
X63500000Y-9200000D03*
D11*
X51000000Y-9200000D03*
X59500000Y-9200000D03*
X49750000Y-28087000D03*
X49750000Y-27087000D03*
X49750000Y-24087000D03*
X49750000Y-25087000D03*
X41250000Y-27087000D03*
X41250000Y-28087000D03*
X41250000Y-24087000D03*
X41250000Y-25087000D03*
D12*
X38250000Y-26087000D03*
X53750000Y-26087000D03*
D11*
X41250000Y-26087000D03*
X49750000Y-26087000D03*
X30250000Y-28087000D03*
X30250000Y-27087000D03*
X30250000Y-24087000D03*
X30250000Y-25087000D03*
X21750000Y-27087000D03*
X21750000Y-28087000D03*
X21750000Y-24087000D03*
X21750000Y-25087000D03*
D12*
X18750000Y-26087000D03*
X34250000Y-26087000D03*
D11*
X21750000Y-26087000D03*
X30250000Y-26087000D03*
X8750000Y-26446000D03*
X9750000Y-26446000D03*
X12750000Y-26446000D03*
X11750000Y-26446000D03*
X9750000Y-17946000D03*
X8750000Y-17946000D03*
X12750000Y-17946000D03*
X11750000Y-17946000D03*
D13*
X10750000Y-14946000D03*
X10750000Y-30446000D03*
D11*
X10750000Y-17946000D03*
X10750000Y-26446000D03*
X20500000Y-44974000D03*
X20500000Y-43974000D03*
X20500000Y-40974000D03*
X20500000Y-41974000D03*
X12000000Y-43974000D03*
X12000000Y-44974000D03*
X12000000Y-40974000D03*
X12000000Y-41974000D03*
D12*
X9000000Y-42974000D03*
X24500000Y-42974000D03*
D11*
X12000000Y-42974000D03*
X20500000Y-42974000D03*
X49750000Y-61861000D03*
X49750000Y-60861000D03*
X49750000Y-57861000D03*
X49750000Y-58861000D03*
X41250000Y-60861000D03*
X41250000Y-61861000D03*
X41250000Y-57861000D03*
X41250000Y-58861000D03*
D12*
X38250000Y-59861000D03*
X53750000Y-59861000D03*
D11*
X41250000Y-59861000D03*
X49750000Y-59861000D03*
X30250000Y-61861000D03*
X30250000Y-60861000D03*
X30250000Y-57861000D03*
X30250000Y-58861000D03*
X21750000Y-60861000D03*
X21750000Y-61861000D03*
X21750000Y-57861000D03*
X21750000Y-58861000D03*
D12*
X18750000Y-59861000D03*
X34250000Y-59861000D03*
D11*
X21750000Y-59861000D03*
X30250000Y-59861000D03*
X8750000Y-59861000D03*
X9750000Y-59861000D03*
X12750000Y-59861000D03*
X11750000Y-59861000D03*
X9750000Y-51361000D03*
X8750000Y-51361000D03*
X12750000Y-51361000D03*
X11750000Y-51361000D03*
D13*
X10750000Y-48361000D03*
X10750000Y-63861000D03*
D11*
X10750000Y-51361000D03*
X10750000Y-59861000D03*
X60000000Y-78748000D03*
X60000000Y-77748000D03*
X60000000Y-74748000D03*
X60000000Y-75748000D03*
X51500000Y-77748000D03*
X51500000Y-78748000D03*
X51500000Y-74748000D03*
X51500000Y-75748000D03*
D12*
X48500000Y-76748000D03*
X64000000Y-76748000D03*
D11*
X51500000Y-76748000D03*
X60000000Y-76748000D03*
X40000000Y-78748000D03*
X40000000Y-77748000D03*
X40000000Y-74748000D03*
X40000000Y-75748000D03*
X31500000Y-77748000D03*
X31500000Y-78748000D03*
X31500000Y-74748000D03*
X31500000Y-75748000D03*
D12*
X28500000Y-76748000D03*
X44000000Y-76748000D03*
D11*
X31500000Y-76748000D03*
X40000000Y-76748000D03*
X20500000Y-78748000D03*
X20500000Y-77748000D03*
X20500000Y-74748000D03*
X20500000Y-75748000D03*
X12000000Y-77748000D03*
X12000000Y-78748000D03*
X12000000Y-74748000D03*
X12000000Y-75748000D03*
D12*
X9000000Y-76748000D03*
X24500000Y-76748000D03*
D11*
X12000000Y-76748000D03*
X20500000Y-76748000D03*
X49750000Y-95635000D03*
X49750000Y-94635000D03*
X49750000Y-91635000D03*
X49750000Y-92635000D03*
X41250000Y-94635000D03*
X41250000Y-95635000D03*
X41250000Y-91635000D03*
X41250000Y-92635000D03*
D12*
X38250000Y-93635000D03*
X53750000Y-93635000D03*
D11*
X41250000Y-93635000D03*
X49750000Y-93635000D03*
X60000000Y-112522000D03*
X60000000Y-111522000D03*
X60000000Y-108522000D03*
X60000000Y-109522000D03*
X51500000Y-111522000D03*
X51500000Y-112522000D03*
X51500000Y-108522000D03*
X51500000Y-109522000D03*
D12*
X48500000Y-110522000D03*
X64000000Y-110522000D03*
D11*
X51500000Y-110522000D03*
X60000000Y-110522000D03*
X40000000Y-112522000D03*
X40000000Y-111522000D03*
X40000000Y-108522000D03*
X40000000Y-109522000D03*
X31500000Y-111522000D03*
X31500000Y-112522000D03*
X31500000Y-108522000D03*
X31500000Y-109522000D03*
D12*
X28500000Y-110522000D03*
X44000000Y-110522000D03*
D11*
X31500000Y-110522000D03*
X40000000Y-110522000D03*
X20500000Y-112522000D03*
X20500000Y-111522000D03*
X20500000Y-108522000D03*
X20500000Y-109522000D03*
X12000000Y-111522000D03*
X12000000Y-112522000D03*
X12000000Y-108522000D03*
X12000000Y-109522000D03*
D12*
X9000000Y-110522000D03*
X24500000Y-110522000D03*
D11*
X12000000Y-110522000D03*
X20500000Y-110522000D03*
X49750000Y-129409000D03*
X49750000Y-128409000D03*
X49750000Y-125409000D03*
X49750000Y-126409000D03*
X41250000Y-128409000D03*
X41250000Y-129409000D03*
X41250000Y-125409000D03*
X41250000Y-126409000D03*
D12*
X38250000Y-127409000D03*
X53750000Y-127409000D03*
D11*
X41250000Y-127409000D03*
X49750000Y-127409000D03*
X30250000Y-129409000D03*
X30250000Y-128409000D03*
X30250000Y-125409000D03*
X30250000Y-126409000D03*
X21750000Y-128409000D03*
X21750000Y-129409000D03*
X21750000Y-125409000D03*
X21750000Y-126409000D03*
D12*
X18750000Y-127409000D03*
X34250000Y-127409000D03*
D11*
X21750000Y-127409000D03*
X30250000Y-127409000D03*
X8750000Y-127409000D03*
X9750000Y-127409000D03*
X12750000Y-127409000D03*
X11750000Y-127409000D03*
X9750000Y-118909000D03*
X8750000Y-118909000D03*
X12750000Y-118909000D03*
X11750000Y-118909000D03*
D13*
X10750000Y-115909000D03*
X10750000Y-131409000D03*
D11*
X10750000Y-118909000D03*
X10750000Y-127409000D03*
X60000000Y-146296000D03*
X60000000Y-145296000D03*
X60000000Y-142296000D03*
X60000000Y-143296000D03*
X51500000Y-145296000D03*
X51500000Y-146296000D03*
X51500000Y-142296000D03*
X51500000Y-143296000D03*
D12*
X48500000Y-144296000D03*
X64000000Y-144296000D03*
D11*
X51500000Y-144296000D03*
X60000000Y-144296000D03*
X40000000Y-146296000D03*
X40000000Y-145296000D03*
X40000000Y-142296000D03*
X40000000Y-143296000D03*
X31500000Y-145296000D03*
X31500000Y-146296000D03*
X31500000Y-142296000D03*
X31500000Y-143296000D03*
D12*
X28500000Y-144296000D03*
X44000000Y-144296000D03*
D11*
X31500000Y-144296000D03*
X40000000Y-144296000D03*
X20500000Y-146296000D03*
X20500000Y-145296000D03*
X20500000Y-142296000D03*
X20500000Y-143296000D03*
X12000000Y-145296000D03*
X12000000Y-146296000D03*
X12000000Y-142296000D03*
X12000000Y-143296000D03*
D12*
X9000000Y-144296000D03*
X24500000Y-144296000D03*
D11*
X12000000Y-144296000D03*
X20500000Y-144296000D03*
X8750000Y-93635000D03*
X9750000Y-93635000D03*
X12750000Y-93635000D03*
X11750000Y-93635000D03*
X9750000Y-85135000D03*
X8750000Y-85135000D03*
X12750000Y-85135000D03*
X11750000Y-85135000D03*
D13*
X10750000Y-82135000D03*
X10750000Y-97635000D03*
D11*
X10750000Y-85135000D03*
X10750000Y-93635000D03*
X60000000Y-44974000D03*
X60000000Y-43974000D03*
X60000000Y-40974000D03*
X60000000Y-41974000D03*
X51500000Y-43974000D03*
X51500000Y-44974000D03*
X51500000Y-40974000D03*
X51500000Y-41974000D03*
D12*
X48500000Y-42974000D03*
X64000000Y-42974000D03*
D11*
X51500000Y-42974000D03*
X60000000Y-42974000D03*
X40000000Y-44974000D03*
X40000000Y-43974000D03*
X40000000Y-40974000D03*
X40000000Y-41974000D03*
X31500000Y-43974000D03*
X31500000Y-44974000D03*
X31500000Y-40974000D03*
X31500000Y-41974000D03*
D12*
X28500000Y-42974000D03*
X44000000Y-42974000D03*
D11*
X31500000Y-42974000D03*
X40000000Y-42974000D03*
X40000000Y-11200000D03*
X40000000Y-10200000D03*
X40000000Y-7200000D03*
X40000000Y-8200000D03*
X31500000Y-10200000D03*
X31500000Y-11200000D03*
X31500000Y-7200000D03*
X31500000Y-8200000D03*
D12*
X28500000Y-9200000D03*
X44000000Y-9200000D03*
D11*
X31500000Y-9200000D03*
X40000000Y-9200000D03*
X20500000Y-11200000D03*
X20500000Y-10200000D03*
X20500000Y-7200000D03*
X20500000Y-8200000D03*
X12000000Y-10200000D03*
X12000000Y-11200000D03*
X12000000Y-7200000D03*
X12000000Y-8200000D03*
D12*
X9000000Y-9200000D03*
X24500000Y-9200000D03*
D11*
X12000000Y-9200000D03*
X20500000Y-9200000D03*
X235000000Y-11200000D03*
X235000000Y-10200000D03*
X235000000Y-7200000D03*
X235000000Y-8200000D03*
X226500000Y-10200000D03*
X226500000Y-11200000D03*
X226500000Y-7200000D03*
X226500000Y-8200000D03*
D12*
X223500000Y-9200000D03*
X239000000Y-9200000D03*
D11*
X226500000Y-9200000D03*
X235000000Y-9200000D03*
X215500000Y-11200000D03*
X215500000Y-10200000D03*
X215500000Y-7200000D03*
X215500000Y-8200000D03*
X207000000Y-10200000D03*
X207000000Y-11200000D03*
X207000000Y-7200000D03*
X207000000Y-8200000D03*
D12*
X204000000Y-9200000D03*
X219500000Y-9200000D03*
D11*
X207000000Y-9200000D03*
X215500000Y-9200000D03*
X196000000Y-11200000D03*
X196000000Y-10200000D03*
X196000000Y-7200000D03*
X196000000Y-8200000D03*
X187500000Y-10200000D03*
X187500000Y-11200000D03*
X187500000Y-7200000D03*
X187500000Y-8200000D03*
D12*
X184500000Y-9200000D03*
X200000000Y-9200000D03*
D11*
X187500000Y-9200000D03*
X196000000Y-9200000D03*
X176500000Y-11200000D03*
X176500000Y-10200000D03*
X176500000Y-7200000D03*
X176500000Y-8200000D03*
X168000000Y-10200000D03*
X168000000Y-11200000D03*
X168000000Y-7200000D03*
X168000000Y-8200000D03*
D12*
X165000000Y-9200000D03*
X180500000Y-9200000D03*
D11*
X168000000Y-9200000D03*
X176500000Y-9200000D03*
X157000000Y-11200000D03*
X157000000Y-10200000D03*
X157000000Y-7200000D03*
X157000000Y-8200000D03*
X148500000Y-10200000D03*
X148500000Y-11200000D03*
X148500000Y-7200000D03*
X148500000Y-8200000D03*
D12*
X145500000Y-9200000D03*
X161000000Y-9200000D03*
D11*
X148500000Y-9200000D03*
X157000000Y-9200000D03*
X137500000Y-11200000D03*
X137500000Y-10200000D03*
X137500000Y-7200000D03*
X137500000Y-8200000D03*
X129000000Y-10200000D03*
X129000000Y-11200000D03*
X129000000Y-7200000D03*
X129000000Y-8200000D03*
D12*
X126000000Y-9200000D03*
X141500000Y-9200000D03*
D11*
X129000000Y-9200000D03*
X137500000Y-9200000D03*
X118000000Y-11200000D03*
X118000000Y-10200000D03*
X118000000Y-7200000D03*
X118000000Y-8200000D03*
X109500000Y-10200000D03*
X109500000Y-11200000D03*
X109500000Y-7200000D03*
X109500000Y-8200000D03*
D12*
X106500000Y-9200000D03*
X122000000Y-9200000D03*
D11*
X109500000Y-9200000D03*
X118000000Y-9200000D03*
X98500000Y-11200000D03*
X98500000Y-10200000D03*
X98500000Y-7200000D03*
X98500000Y-8200000D03*
X90000000Y-10200000D03*
X90000000Y-11200000D03*
X90000000Y-7200000D03*
X90000000Y-8200000D03*
D12*
X87000000Y-9200000D03*
X102500000Y-9200000D03*
D11*
X90000000Y-9200000D03*
X98500000Y-9200000D03*
X79000000Y-11200000D03*
X79000000Y-10200000D03*
X79000000Y-7200000D03*
X79000000Y-8200000D03*
X70500000Y-10200000D03*
X70500000Y-11200000D03*
X70500000Y-7200000D03*
X70500000Y-8200000D03*
D12*
X67500000Y-9200000D03*
X83000000Y-9200000D03*
D11*
X70500000Y-9200000D03*
X79000000Y-9200000D03*
X225250000Y-28087000D03*
X225250000Y-27087000D03*
X225250000Y-24087000D03*
X225250000Y-25087000D03*
X216750000Y-27087000D03*
X216750000Y-28087000D03*
X216750000Y-24087000D03*
X216750000Y-25087000D03*
D12*
X213750000Y-26087000D03*
X229250000Y-26087000D03*
D11*
X216750000Y-26087000D03*
X225250000Y-26087000D03*
X205750000Y-28087000D03*
X205750000Y-27087000D03*
X205750000Y-24087000D03*
X205750000Y-25087000D03*
X197250000Y-27087000D03*
X197250000Y-28087000D03*
X197250000Y-24087000D03*
X197250000Y-25087000D03*
D12*
X194250000Y-26087000D03*
X209750000Y-26087000D03*
D11*
X197250000Y-26087000D03*
X205750000Y-26087000D03*
X186250000Y-28087000D03*
X186250000Y-27087000D03*
X186250000Y-24087000D03*
X186250000Y-25087000D03*
X177750000Y-27087000D03*
X177750000Y-28087000D03*
X177750000Y-24087000D03*
X177750000Y-25087000D03*
D12*
X174750000Y-26087000D03*
X190250000Y-26087000D03*
D11*
X177750000Y-26087000D03*
X186250000Y-26087000D03*
X166750000Y-28087000D03*
X166750000Y-27087000D03*
X166750000Y-24087000D03*
X166750000Y-25087000D03*
X158250000Y-27087000D03*
X158250000Y-28087000D03*
X158250000Y-24087000D03*
X158250000Y-25087000D03*
D12*
X155250000Y-26087000D03*
X170750000Y-26087000D03*
D11*
X158250000Y-26087000D03*
X166750000Y-26087000D03*
X147250000Y-28087000D03*
X147250000Y-27087000D03*
X147250000Y-24087000D03*
X147250000Y-25087000D03*
X138750000Y-27087000D03*
X138750000Y-28087000D03*
X138750000Y-24087000D03*
X138750000Y-25087000D03*
D12*
X135750000Y-26087000D03*
X151250000Y-26087000D03*
D11*
X138750000Y-26087000D03*
X147250000Y-26087000D03*
X127750000Y-28087000D03*
X127750000Y-27087000D03*
X127750000Y-24087000D03*
X127750000Y-25087000D03*
X119250000Y-27087000D03*
X119250000Y-28087000D03*
X119250000Y-24087000D03*
X119250000Y-25087000D03*
D12*
X116250000Y-26087000D03*
X131750000Y-26087000D03*
D11*
X119250000Y-26087000D03*
X127750000Y-26087000D03*
X108250000Y-28087000D03*
X108250000Y-27087000D03*
X108250000Y-24087000D03*
X108250000Y-25087000D03*
X99750000Y-27087000D03*
X99750000Y-28087000D03*
X99750000Y-24087000D03*
X99750000Y-25087000D03*
D12*
X96750000Y-26087000D03*
X112250000Y-26087000D03*
D11*
X99750000Y-26087000D03*
X108250000Y-26087000D03*
X88750000Y-28087000D03*
X88750000Y-27087000D03*
X88750000Y-24087000D03*
X88750000Y-25087000D03*
X80250000Y-27087000D03*
X80250000Y-28087000D03*
X80250000Y-24087000D03*
X80250000Y-25087000D03*
D12*
X77250000Y-26087000D03*
X92750000Y-26087000D03*
D11*
X80250000Y-26087000D03*
X88750000Y-26087000D03*
X69250000Y-28087000D03*
X69250000Y-27087000D03*
X69250000Y-24087000D03*
X69250000Y-25087000D03*
X60750000Y-27087000D03*
X60750000Y-28087000D03*
X60750000Y-24087000D03*
X60750000Y-25087000D03*
D12*
X57750000Y-26087000D03*
X73250000Y-26087000D03*
D11*
X60750000Y-26087000D03*
X69250000Y-26087000D03*
X235000000Y-44974000D03*
X235000000Y-43974000D03*
X235000000Y-40974000D03*
X235000000Y-41974000D03*
X226500000Y-43974000D03*
X226500000Y-44974000D03*
X226500000Y-40974000D03*
X226500000Y-41974000D03*
D12*
X223500000Y-42974000D03*
X239000000Y-42974000D03*
D11*
X226500000Y-42974000D03*
X235000000Y-42974000D03*
X215500000Y-44974000D03*
X215500000Y-43974000D03*
X215500000Y-40974000D03*
X215500000Y-41974000D03*
X207000000Y-43974000D03*
X207000000Y-44974000D03*
X207000000Y-40974000D03*
X207000000Y-41974000D03*
D12*
X204000000Y-42974000D03*
X219500000Y-42974000D03*
D11*
X207000000Y-42974000D03*
X215500000Y-42974000D03*
X196000000Y-44974000D03*
X196000000Y-43974000D03*
X196000000Y-40974000D03*
X196000000Y-41974000D03*
X187500000Y-43974000D03*
X187500000Y-44974000D03*
X187500000Y-40974000D03*
X187500000Y-41974000D03*
D12*
X184500000Y-42974000D03*
X200000000Y-42974000D03*
D11*
X187500000Y-42974000D03*
X196000000Y-42974000D03*
X176500000Y-44974000D03*
X176500000Y-43974000D03*
X176500000Y-40974000D03*
X176500000Y-41974000D03*
X168000000Y-43974000D03*
X168000000Y-44974000D03*
X168000000Y-40974000D03*
X168000000Y-41974000D03*
D12*
X165000000Y-42974000D03*
X180500000Y-42974000D03*
D11*
X168000000Y-42974000D03*
X176500000Y-42974000D03*
X157000000Y-44974000D03*
X157000000Y-43974000D03*
X157000000Y-40974000D03*
X157000000Y-41974000D03*
X148500000Y-43974000D03*
X148500000Y-44974000D03*
X148500000Y-40974000D03*
X148500000Y-41974000D03*
D12*
X145500000Y-42974000D03*
X161000000Y-42974000D03*
D11*
X148500000Y-42974000D03*
X157000000Y-42974000D03*
X137500000Y-44974000D03*
X137500000Y-43974000D03*
X137500000Y-40974000D03*
X137500000Y-41974000D03*
X129000000Y-43974000D03*
X129000000Y-44974000D03*
X129000000Y-40974000D03*
X129000000Y-41974000D03*
D12*
X126000000Y-42974000D03*
X141500000Y-42974000D03*
D11*
X129000000Y-42974000D03*
X137500000Y-42974000D03*
X118000000Y-44974000D03*
X118000000Y-43974000D03*
X118000000Y-40974000D03*
X118000000Y-41974000D03*
X109500000Y-43974000D03*
X109500000Y-44974000D03*
X109500000Y-40974000D03*
X109500000Y-41974000D03*
D12*
X106500000Y-42974000D03*
X122000000Y-42974000D03*
D11*
X109500000Y-42974000D03*
X118000000Y-42974000D03*
X98500000Y-44974000D03*
X98500000Y-43974000D03*
X98500000Y-40974000D03*
X98500000Y-41974000D03*
X90000000Y-43974000D03*
X90000000Y-44974000D03*
X90000000Y-40974000D03*
X90000000Y-41974000D03*
D12*
X87000000Y-42974000D03*
X102500000Y-42974000D03*
D11*
X90000000Y-42974000D03*
X98500000Y-42974000D03*
X79000000Y-44974000D03*
X79000000Y-43974000D03*
X79000000Y-40974000D03*
X79000000Y-41974000D03*
X70500000Y-43974000D03*
X70500000Y-44974000D03*
X70500000Y-40974000D03*
X70500000Y-41974000D03*
D12*
X67500000Y-42974000D03*
X83000000Y-42974000D03*
D11*
X70500000Y-42974000D03*
X79000000Y-42974000D03*
X225250000Y-61861000D03*
X225250000Y-60861000D03*
X225250000Y-57861000D03*
X225250000Y-58861000D03*
X216750000Y-60861000D03*
X216750000Y-61861000D03*
X216750000Y-57861000D03*
X216750000Y-58861000D03*
D12*
X213750000Y-59861000D03*
X229250000Y-59861000D03*
D11*
X216750000Y-59861000D03*
X225250000Y-59861000D03*
X186250000Y-61861000D03*
X186250000Y-60861000D03*
X186250000Y-57861000D03*
X186250000Y-58861000D03*
X177750000Y-60861000D03*
X177750000Y-61861000D03*
X177750000Y-57861000D03*
X177750000Y-58861000D03*
D12*
X174750000Y-59861000D03*
X190250000Y-59861000D03*
D11*
X177750000Y-59861000D03*
X186250000Y-59861000D03*
X166750000Y-61861000D03*
X166750000Y-60861000D03*
X166750000Y-57861000D03*
X166750000Y-58861000D03*
X158250000Y-60861000D03*
X158250000Y-61861000D03*
X158250000Y-57861000D03*
X158250000Y-58861000D03*
D12*
X155250000Y-59861000D03*
X170750000Y-59861000D03*
D11*
X158250000Y-59861000D03*
X166750000Y-59861000D03*
X147250000Y-61861000D03*
X147250000Y-60861000D03*
X147250000Y-57861000D03*
X147250000Y-58861000D03*
X138750000Y-60861000D03*
X138750000Y-61861000D03*
X138750000Y-57861000D03*
X138750000Y-58861000D03*
D12*
X135750000Y-59861000D03*
X151250000Y-59861000D03*
D11*
X138750000Y-59861000D03*
X147250000Y-59861000D03*
X127750000Y-61861000D03*
X127750000Y-60861000D03*
X127750000Y-57861000D03*
X127750000Y-58861000D03*
X119250000Y-60861000D03*
X119250000Y-61861000D03*
X119250000Y-57861000D03*
X119250000Y-58861000D03*
D12*
X116250000Y-59861000D03*
X131750000Y-59861000D03*
D11*
X119250000Y-59861000D03*
X127750000Y-59861000D03*
X108250000Y-61861000D03*
X108250000Y-60861000D03*
X108250000Y-57861000D03*
X108250000Y-58861000D03*
X99750000Y-60861000D03*
X99750000Y-61861000D03*
X99750000Y-57861000D03*
X99750000Y-58861000D03*
D12*
X96750000Y-59861000D03*
X112250000Y-59861000D03*
D11*
X99750000Y-59861000D03*
X108250000Y-59861000D03*
X88750000Y-61861000D03*
X88750000Y-60861000D03*
X88750000Y-57861000D03*
X88750000Y-58861000D03*
X80250000Y-60861000D03*
X80250000Y-61861000D03*
X80250000Y-57861000D03*
X80250000Y-58861000D03*
D12*
X77250000Y-59861000D03*
X92750000Y-59861000D03*
D11*
X80250000Y-59861000D03*
X88750000Y-59861000D03*
X69250000Y-61861000D03*
X69250000Y-60861000D03*
X69250000Y-57861000D03*
X69250000Y-58861000D03*
X60750000Y-60861000D03*
X60750000Y-61861000D03*
X60750000Y-57861000D03*
X60750000Y-58861000D03*
D12*
X57750000Y-59861000D03*
X73250000Y-59861000D03*
D11*
X60750000Y-59861000D03*
X69250000Y-59861000D03*
X235000000Y-78748000D03*
X235000000Y-77748000D03*
X235000000Y-74748000D03*
X235000000Y-75748000D03*
X226500000Y-77748000D03*
X226500000Y-78748000D03*
X226500000Y-74748000D03*
X226500000Y-75748000D03*
D12*
X223500000Y-76748000D03*
X239000000Y-76748000D03*
D11*
X226500000Y-76748000D03*
X235000000Y-76748000D03*
X215500000Y-78748000D03*
X215500000Y-77748000D03*
X215500000Y-74748000D03*
X215500000Y-75748000D03*
X207000000Y-77748000D03*
X207000000Y-78748000D03*
X207000000Y-74748000D03*
X207000000Y-75748000D03*
D12*
X204000000Y-76748000D03*
X219500000Y-76748000D03*
D11*
X207000000Y-76748000D03*
X215500000Y-76748000D03*
X196000000Y-78748000D03*
X196000000Y-77748000D03*
X196000000Y-74748000D03*
X196000000Y-75748000D03*
X187500000Y-77748000D03*
X187500000Y-78748000D03*
X187500000Y-74748000D03*
X187500000Y-75748000D03*
D12*
X184500000Y-76748000D03*
X200000000Y-76748000D03*
D11*
X187500000Y-76748000D03*
X196000000Y-76748000D03*
X176500000Y-78748000D03*
X176500000Y-77748000D03*
X176500000Y-74748000D03*
X176500000Y-75748000D03*
X168000000Y-77748000D03*
X168000000Y-78748000D03*
X168000000Y-74748000D03*
X168000000Y-75748000D03*
D12*
X165000000Y-76748000D03*
X180500000Y-76748000D03*
D11*
X168000000Y-76748000D03*
X176500000Y-76748000D03*
X157000000Y-78748000D03*
X157000000Y-77748000D03*
X157000000Y-74748000D03*
X157000000Y-75748000D03*
X148500000Y-77748000D03*
X148500000Y-78748000D03*
X148500000Y-74748000D03*
X148500000Y-75748000D03*
D12*
X145500000Y-76748000D03*
X161000000Y-76748000D03*
D11*
X148500000Y-76748000D03*
X157000000Y-76748000D03*
X137500000Y-78748000D03*
X137500000Y-77748000D03*
X137500000Y-74748000D03*
X137500000Y-75748000D03*
X129000000Y-77748000D03*
X129000000Y-78748000D03*
X129000000Y-74748000D03*
X129000000Y-75748000D03*
D12*
X126000000Y-76748000D03*
X141500000Y-76748000D03*
D11*
X129000000Y-76748000D03*
X137500000Y-76748000D03*
X118000000Y-78748000D03*
X118000000Y-77748000D03*
X118000000Y-74748000D03*
X118000000Y-75748000D03*
X109500000Y-77748000D03*
X109500000Y-78748000D03*
X109500000Y-74748000D03*
X109500000Y-75748000D03*
D12*
X106500000Y-76748000D03*
X122000000Y-76748000D03*
D11*
X109500000Y-76748000D03*
X118000000Y-76748000D03*
X98500000Y-78748000D03*
X98500000Y-77748000D03*
X98500000Y-74748000D03*
X98500000Y-75748000D03*
X90000000Y-77748000D03*
X90000000Y-78748000D03*
X90000000Y-74748000D03*
X90000000Y-75748000D03*
D12*
X87000000Y-76748000D03*
X102500000Y-76748000D03*
D11*
X90000000Y-76748000D03*
X98500000Y-76748000D03*
X79000000Y-78748000D03*
X79000000Y-77748000D03*
X79000000Y-74748000D03*
X79000000Y-75748000D03*
X70500000Y-77748000D03*
X70500000Y-78748000D03*
X70500000Y-74748000D03*
X70500000Y-75748000D03*
D12*
X67500000Y-76748000D03*
X83000000Y-76748000D03*
D11*
X70500000Y-76748000D03*
X79000000Y-76748000D03*
X225250000Y-95635000D03*
X225250000Y-94635000D03*
X225250000Y-91635000D03*
X225250000Y-92635000D03*
X216750000Y-94635000D03*
X216750000Y-95635000D03*
X216750000Y-91635000D03*
X216750000Y-92635000D03*
D12*
X213750000Y-93635000D03*
X229250000Y-93635000D03*
D11*
X216750000Y-93635000D03*
X225250000Y-93635000D03*
X205750000Y-95635000D03*
X205750000Y-94635000D03*
X205750000Y-91635000D03*
X205750000Y-92635000D03*
X197250000Y-94635000D03*
X197250000Y-95635000D03*
X197250000Y-91635000D03*
X197250000Y-92635000D03*
D12*
X194250000Y-93635000D03*
X209750000Y-93635000D03*
D11*
X197250000Y-93635000D03*
X205750000Y-93635000D03*
X186250000Y-95635000D03*
X186250000Y-94635000D03*
X186250000Y-91635000D03*
X186250000Y-92635000D03*
X177750000Y-94635000D03*
X177750000Y-95635000D03*
X177750000Y-91635000D03*
X177750000Y-92635000D03*
D12*
X174750000Y-93635000D03*
X190250000Y-93635000D03*
D11*
X177750000Y-93635000D03*
X186250000Y-93635000D03*
X166750000Y-95635000D03*
X166750000Y-94635000D03*
X166750000Y-91635000D03*
X166750000Y-92635000D03*
X158250000Y-94635000D03*
X158250000Y-95635000D03*
X158250000Y-91635000D03*
X158250000Y-92635000D03*
D12*
X155250000Y-93635000D03*
X170750000Y-93635000D03*
D11*
X158250000Y-93635000D03*
X166750000Y-93635000D03*
X147250000Y-95635000D03*
X147250000Y-94635000D03*
X147250000Y-91635000D03*
X147250000Y-92635000D03*
X138750000Y-94635000D03*
X138750000Y-95635000D03*
X138750000Y-91635000D03*
X138750000Y-92635000D03*
D12*
X135750000Y-93635000D03*
X151250000Y-93635000D03*
D11*
X138750000Y-93635000D03*
X147250000Y-93635000D03*
X127750000Y-95635000D03*
X127750000Y-94635000D03*
X127750000Y-91635000D03*
X127750000Y-92635000D03*
X119250000Y-94635000D03*
X119250000Y-95635000D03*
X119250000Y-91635000D03*
X119250000Y-92635000D03*
D12*
X116250000Y-93635000D03*
X131750000Y-93635000D03*
D11*
X119250000Y-93635000D03*
X127750000Y-93635000D03*
X108250000Y-95635000D03*
X108250000Y-94635000D03*
X108250000Y-91635000D03*
X108250000Y-92635000D03*
X99750000Y-94635000D03*
X99750000Y-95635000D03*
X99750000Y-91635000D03*
X99750000Y-92635000D03*
D12*
X96750000Y-93635000D03*
X112250000Y-93635000D03*
D11*
X99750000Y-93635000D03*
X108250000Y-93635000D03*
X88750000Y-95635000D03*
X88750000Y-94635000D03*
X88750000Y-91635000D03*
X88750000Y-92635000D03*
X80250000Y-94635000D03*
X80250000Y-95635000D03*
X80250000Y-91635000D03*
X80250000Y-92635000D03*
D12*
X77250000Y-93635000D03*
X92750000Y-93635000D03*
D11*
X80250000Y-93635000D03*
X88750000Y-93635000D03*
X69250000Y-95635000D03*
X69250000Y-94635000D03*
X69250000Y-91635000D03*
X69250000Y-92635000D03*
X60750000Y-94635000D03*
X60750000Y-95635000D03*
X60750000Y-91635000D03*
X60750000Y-92635000D03*
D12*
X57750000Y-93635000D03*
X73250000Y-93635000D03*
D11*
X60750000Y-93635000D03*
X69250000Y-93635000D03*
X235000000Y-112522000D03*
X235000000Y-111522000D03*
X235000000Y-108522000D03*
X235000000Y-109522000D03*
X226500000Y-111522000D03*
X226500000Y-112522000D03*
X226500000Y-108522000D03*
X226500000Y-109522000D03*
D12*
X223500000Y-110522000D03*
X239000000Y-110522000D03*
D11*
X226500000Y-110522000D03*
X235000000Y-110522000D03*
X215500000Y-112522000D03*
X215500000Y-111522000D03*
X215500000Y-108522000D03*
X215500000Y-109522000D03*
X207000000Y-111522000D03*
X207000000Y-112522000D03*
X207000000Y-108522000D03*
X207000000Y-109522000D03*
D12*
X204000000Y-110522000D03*
X219500000Y-110522000D03*
D11*
X207000000Y-110522000D03*
X215500000Y-110522000D03*
X196000000Y-112522000D03*
X196000000Y-111522000D03*
X196000000Y-108522000D03*
X196000000Y-109522000D03*
X187500000Y-111522000D03*
X187500000Y-112522000D03*
X187500000Y-108522000D03*
X187500000Y-109522000D03*
D12*
X184500000Y-110522000D03*
X200000000Y-110522000D03*
D11*
X187500000Y-110522000D03*
X196000000Y-110522000D03*
X176500000Y-112522000D03*
X176500000Y-111522000D03*
X176500000Y-108522000D03*
X176500000Y-109522000D03*
X168000000Y-111522000D03*
X168000000Y-112522000D03*
X168000000Y-108522000D03*
X168000000Y-109522000D03*
D12*
X165000000Y-110522000D03*
X180500000Y-110522000D03*
D11*
X168000000Y-110522000D03*
X176500000Y-110522000D03*
X157000000Y-112522000D03*
X157000000Y-111522000D03*
X157000000Y-108522000D03*
X157000000Y-109522000D03*
X148500000Y-111522000D03*
X148500000Y-112522000D03*
X148500000Y-108522000D03*
X148500000Y-109522000D03*
D12*
X145500000Y-110522000D03*
X161000000Y-110522000D03*
D11*
X148500000Y-110522000D03*
X157000000Y-110522000D03*
X137500000Y-112522000D03*
X137500000Y-111522000D03*
X137500000Y-108522000D03*
X137500000Y-109522000D03*
X129000000Y-111522000D03*
X129000000Y-112522000D03*
X129000000Y-108522000D03*
X129000000Y-109522000D03*
D12*
X126000000Y-110522000D03*
X141500000Y-110522000D03*
D11*
X129000000Y-110522000D03*
X137500000Y-110522000D03*
X118000000Y-112522000D03*
X118000000Y-111522000D03*
X118000000Y-108522000D03*
X118000000Y-109522000D03*
X109500000Y-111522000D03*
X109500000Y-112522000D03*
X109500000Y-108522000D03*
X109500000Y-109522000D03*
D12*
X106500000Y-110522000D03*
X122000000Y-110522000D03*
D11*
X109500000Y-110522000D03*
X118000000Y-110522000D03*
X98500000Y-112522000D03*
X98500000Y-111522000D03*
X98500000Y-108522000D03*
X98500000Y-109522000D03*
X90000000Y-111522000D03*
X90000000Y-112522000D03*
X90000000Y-108522000D03*
X90000000Y-109522000D03*
D12*
X87000000Y-110522000D03*
X102500000Y-110522000D03*
D11*
X90000000Y-110522000D03*
X98500000Y-110522000D03*
X79000000Y-112522000D03*
X79000000Y-111522000D03*
X79000000Y-108522000D03*
X79000000Y-109522000D03*
X70500000Y-111522000D03*
X70500000Y-112522000D03*
X70500000Y-108522000D03*
X70500000Y-109522000D03*
D12*
X67500000Y-110522000D03*
X83000000Y-110522000D03*
D11*
X70500000Y-110522000D03*
X79000000Y-110522000D03*
X225250000Y-129409000D03*
X225250000Y-128409000D03*
X225250000Y-125409000D03*
X225250000Y-126409000D03*
X216750000Y-128409000D03*
X216750000Y-129409000D03*
X216750000Y-125409000D03*
X216750000Y-126409000D03*
D12*
X213750000Y-127409000D03*
X229250000Y-127409000D03*
D11*
X216750000Y-127409000D03*
X225250000Y-127409000D03*
X205750000Y-129409000D03*
X205750000Y-128409000D03*
X205750000Y-125409000D03*
X205750000Y-126409000D03*
X197250000Y-128409000D03*
X197250000Y-129409000D03*
X197250000Y-125409000D03*
X197250000Y-126409000D03*
D12*
X194250000Y-127409000D03*
X209750000Y-127409000D03*
D11*
X197250000Y-127409000D03*
X205750000Y-127409000D03*
X186250000Y-129409000D03*
X186250000Y-128409000D03*
X186250000Y-125409000D03*
X186250000Y-126409000D03*
X177750000Y-128409000D03*
X177750000Y-129409000D03*
X177750000Y-125409000D03*
X177750000Y-126409000D03*
D12*
X174750000Y-127409000D03*
X190250000Y-127409000D03*
D11*
X177750000Y-127409000D03*
X186250000Y-127409000D03*
X166750000Y-129409000D03*
X166750000Y-128409000D03*
X166750000Y-125409000D03*
X166750000Y-126409000D03*
X158250000Y-128409000D03*
X158250000Y-129409000D03*
X158250000Y-125409000D03*
X158250000Y-126409000D03*
D12*
X155250000Y-127409000D03*
X170750000Y-127409000D03*
D11*
X158250000Y-127409000D03*
X166750000Y-127409000D03*
X147250000Y-129409000D03*
X147250000Y-128409000D03*
X147250000Y-125409000D03*
X147250000Y-126409000D03*
X138750000Y-128409000D03*
X138750000Y-129409000D03*
X138750000Y-125409000D03*
X138750000Y-126409000D03*
D12*
X135750000Y-127409000D03*
X151250000Y-127409000D03*
D11*
X138750000Y-127409000D03*
X147250000Y-127409000D03*
X127750000Y-129409000D03*
X127750000Y-128409000D03*
X127750000Y-125409000D03*
X127750000Y-126409000D03*
X119250000Y-128409000D03*
X119250000Y-129409000D03*
X119250000Y-125409000D03*
X119250000Y-126409000D03*
D12*
X116250000Y-127409000D03*
X131750000Y-127409000D03*
D11*
X119250000Y-127409000D03*
X127750000Y-127409000D03*
X108250000Y-129409000D03*
X108250000Y-128409000D03*
X108250000Y-125409000D03*
X108250000Y-126409000D03*
X99750000Y-128409000D03*
X99750000Y-129409000D03*
X99750000Y-125409000D03*
X99750000Y-126409000D03*
D12*
X96750000Y-127409000D03*
X112250000Y-127409000D03*
D11*
X99750000Y-127409000D03*
X108250000Y-127409000D03*
X88750000Y-129409000D03*
X88750000Y-128409000D03*
X88750000Y-125409000D03*
X88750000Y-126409000D03*
X80250000Y-128409000D03*
X80250000Y-129409000D03*
X80250000Y-125409000D03*
X80250000Y-126409000D03*
D12*
X77250000Y-127409000D03*
X92750000Y-127409000D03*
D11*
X80250000Y-127409000D03*
X88750000Y-127409000D03*
X69250000Y-129409000D03*
X69250000Y-128409000D03*
X69250000Y-125409000D03*
X69250000Y-126409000D03*
X60750000Y-128409000D03*
X60750000Y-129409000D03*
X60750000Y-125409000D03*
X60750000Y-126409000D03*
D12*
X57750000Y-127409000D03*
X73250000Y-127409000D03*
D11*
X60750000Y-127409000D03*
X69250000Y-127409000D03*
X235000000Y-146296000D03*
X235000000Y-145296000D03*
X235000000Y-142296000D03*
X235000000Y-143296000D03*
X226500000Y-145296000D03*
X226500000Y-146296000D03*
X226500000Y-142296000D03*
X226500000Y-143296000D03*
D12*
X223500000Y-144296000D03*
X239000000Y-144296000D03*
D11*
X226500000Y-144296000D03*
X235000000Y-144296000D03*
X215500000Y-146296000D03*
X215500000Y-145296000D03*
X215500000Y-142296000D03*
X215500000Y-143296000D03*
X207000000Y-145296000D03*
X207000000Y-146296000D03*
X207000000Y-142296000D03*
X207000000Y-143296000D03*
D12*
X204000000Y-144296000D03*
X219500000Y-144296000D03*
D11*
X207000000Y-144296000D03*
X215500000Y-144296000D03*
X196000000Y-146296000D03*
X196000000Y-145296000D03*
X196000000Y-142296000D03*
X196000000Y-143296000D03*
X187500000Y-145296000D03*
X187500000Y-146296000D03*
X187500000Y-142296000D03*
X187500000Y-143296000D03*
D12*
X184500000Y-144296000D03*
X200000000Y-144296000D03*
D11*
X187500000Y-144296000D03*
X196000000Y-144296000D03*
X176500000Y-146296000D03*
X176500000Y-145296000D03*
X176500000Y-142296000D03*
X176500000Y-143296000D03*
X168000000Y-145296000D03*
X168000000Y-146296000D03*
X168000000Y-142296000D03*
X168000000Y-143296000D03*
D12*
X165000000Y-144296000D03*
X180500000Y-144296000D03*
D11*
X168000000Y-144296000D03*
X176500000Y-144296000D03*
X157000000Y-146296000D03*
X157000000Y-145296000D03*
X157000000Y-142296000D03*
X157000000Y-143296000D03*
X148500000Y-145296000D03*
X148500000Y-146296000D03*
X148500000Y-142296000D03*
X148500000Y-143296000D03*
D12*
X145500000Y-144296000D03*
X161000000Y-144296000D03*
D11*
X148500000Y-144296000D03*
X157000000Y-144296000D03*
X137500000Y-146296000D03*
X137500000Y-145296000D03*
X137500000Y-142296000D03*
X137500000Y-143296000D03*
X129000000Y-145296000D03*
X129000000Y-146296000D03*
X129000000Y-142296000D03*
X129000000Y-143296000D03*
D12*
X126000000Y-144296000D03*
X141500000Y-144296000D03*
D11*
X129000000Y-144296000D03*
X137500000Y-144296000D03*
X118000000Y-146296000D03*
X118000000Y-145296000D03*
X118000000Y-142296000D03*
X118000000Y-143296000D03*
X109500000Y-145296000D03*
X109500000Y-146296000D03*
X109500000Y-142296000D03*
X109500000Y-143296000D03*
D12*
X106500000Y-144296000D03*
X122000000Y-144296000D03*
D11*
X109500000Y-144296000D03*
X118000000Y-144296000D03*
X98500000Y-146296000D03*
X98500000Y-145296000D03*
X98500000Y-142296000D03*
X98500000Y-143296000D03*
X90000000Y-145296000D03*
X90000000Y-146296000D03*
X90000000Y-142296000D03*
X90000000Y-143296000D03*
D12*
X87000000Y-144296000D03*
X102500000Y-144296000D03*
D11*
X90000000Y-144296000D03*
X98500000Y-144296000D03*
X79000000Y-146296000D03*
X79000000Y-145296000D03*
X79000000Y-142296000D03*
X79000000Y-143296000D03*
X70500000Y-145296000D03*
X70500000Y-146296000D03*
X70500000Y-142296000D03*
X70500000Y-143296000D03*
D12*
X67500000Y-144296000D03*
X83000000Y-144296000D03*
D11*
X70500000Y-144296000D03*
X79000000Y-144296000D03*
X205750000Y-163183000D03*
X205750000Y-162183000D03*
X205750000Y-159183000D03*
X205750000Y-160183000D03*
X197250000Y-162183000D03*
X197250000Y-163183000D03*
X197250000Y-159183000D03*
X197250000Y-160183000D03*
D12*
X194250000Y-161183000D03*
X209750000Y-161183000D03*
D11*
X197250000Y-161183000D03*
X205750000Y-161183000D03*
X186250000Y-163183000D03*
X186250000Y-162183000D03*
X186250000Y-159183000D03*
X186250000Y-160183000D03*
X177750000Y-162183000D03*
X177750000Y-163183000D03*
X177750000Y-159183000D03*
X177750000Y-160183000D03*
D12*
X174750000Y-161183000D03*
X190250000Y-161183000D03*
D11*
X177750000Y-161183000D03*
X186250000Y-161183000D03*
X166750000Y-163183000D03*
X166750000Y-162183000D03*
X166750000Y-159183000D03*
X166750000Y-160183000D03*
X158250000Y-162183000D03*
X158250000Y-163183000D03*
X158250000Y-159183000D03*
X158250000Y-160183000D03*
D12*
X155250000Y-161183000D03*
X170750000Y-161183000D03*
D11*
X158250000Y-161183000D03*
X166750000Y-161183000D03*
X147250000Y-163183000D03*
X147250000Y-162183000D03*
X147250000Y-159183000D03*
X147250000Y-160183000D03*
X138750000Y-162183000D03*
X138750000Y-163183000D03*
X138750000Y-159183000D03*
X138750000Y-160183000D03*
D12*
X135750000Y-161183000D03*
X151250000Y-161183000D03*
D11*
X138750000Y-161183000D03*
X147250000Y-161183000D03*
X127750000Y-163183000D03*
X127750000Y-162183000D03*
X127750000Y-159183000D03*
X127750000Y-160183000D03*
X119250000Y-162183000D03*
X119250000Y-163183000D03*
X119250000Y-159183000D03*
X119250000Y-160183000D03*
D12*
X116250000Y-161183000D03*
X131750000Y-161183000D03*
D11*
X119250000Y-161183000D03*
X127750000Y-161183000D03*
X108250000Y-163183000D03*
X108250000Y-162183000D03*
X108250000Y-159183000D03*
X108250000Y-160183000D03*
X99750000Y-162183000D03*
X99750000Y-163183000D03*
X99750000Y-159183000D03*
X99750000Y-160183000D03*
D12*
X96750000Y-161183000D03*
X112250000Y-161183000D03*
D11*
X99750000Y-161183000D03*
X108250000Y-161183000D03*
X88750000Y-163183000D03*
X88750000Y-162183000D03*
X88750000Y-159183000D03*
X88750000Y-160183000D03*
X80250000Y-162183000D03*
X80250000Y-163183000D03*
X80250000Y-159183000D03*
X80250000Y-160183000D03*
D12*
X77250000Y-161183000D03*
X92750000Y-161183000D03*
D11*
X80250000Y-161183000D03*
X88750000Y-161183000D03*
X69250000Y-163183000D03*
X69250000Y-162183000D03*
X69250000Y-159183000D03*
X69250000Y-160183000D03*
X60750000Y-162183000D03*
X60750000Y-163183000D03*
X60750000Y-159183000D03*
X60750000Y-160183000D03*
D12*
X57750000Y-161183000D03*
X73250000Y-161183000D03*
D11*
X60750000Y-161183000D03*
X69250000Y-161183000D03*
X49750000Y-163183000D03*
X49750000Y-162183000D03*
X49750000Y-159183000D03*
X49750000Y-160183000D03*
X41250000Y-162183000D03*
X41250000Y-163183000D03*
X41250000Y-159183000D03*
X41250000Y-160183000D03*
D12*
X38250000Y-161183000D03*
X53750000Y-161183000D03*
D11*
X41250000Y-161183000D03*
X49750000Y-161183000D03*
X30250000Y-163183000D03*
X30250000Y-162183000D03*
X30250000Y-159183000D03*
X30250000Y-160183000D03*
X21750000Y-162183000D03*
X21750000Y-163183000D03*
X21750000Y-159183000D03*
X21750000Y-160183000D03*
D12*
X18750000Y-161183000D03*
X34250000Y-161183000D03*
D11*
X21750000Y-161183000D03*
X30250000Y-161183000D03*
X8750000Y-161183000D03*
X9750000Y-161183000D03*
X12750000Y-161183000D03*
X11750000Y-161183000D03*
X9750000Y-152683000D03*
X8750000Y-152683000D03*
X12750000Y-152683000D03*
X11750000Y-152683000D03*
D13*
X10750000Y-149683000D03*
X10750000Y-165183000D03*
D11*
X10750000Y-152683000D03*
X10750000Y-161183000D03*
D14*
X240500000Y-59861000D03*
X240500000Y-93635000D03*
X240500000Y-127409000D03*
X240500000Y-161183000D03*
X240500000Y-26097000D03*
D15*
X239000000Y-161183000D03*
X239000000Y-127409000D03*
X239000000Y-93635000D03*
X239000000Y-26097000D03*
X239000000Y-59861000D03*
D16*
X243500000Y-85183000D03*
D14*
X5500000Y-110532000D03*
X5500000Y-76758000D03*
X5500000Y-42984000D03*
X5500000Y-9210000D03*
X5500000Y-144296000D03*
D15*
X7000000Y-9210000D03*
X7000000Y-42984000D03*
X7000000Y-76758000D03*
X7000000Y-144296000D03*
X7000000Y-110532000D03*
D16*
X2500000Y-85210000D03*
D17*
X157500000Y-178500000D03*
D18*
X154960000Y-178500000D03*
X152420000Y-178500000D03*
X149880000Y-178500000D03*
X147340000Y-178500000D03*
X144800000Y-178500000D03*
X142260000Y-178500000D03*
X139720000Y-178500000D03*
X137180000Y-178500000D03*
X134640000Y-178500000D03*
X132100000Y-178500000D03*
X129560000Y-178500000D03*
X127020000Y-178500000D03*
D19*
X102000000Y-184000000D03*
D20*
X104540000Y-184000000D03*
X107080000Y-184000000D03*
X109620000Y-184000000D03*
D21*
X99288400Y-183143400D03*
X97388400Y-183143400D03*
X99288400Y-184543400D03*
X97388400Y-184543400D03*
D22*
X219503000Y-20497800D03*
X222203000Y-20497800D03*
X190369200Y-37287200D03*
X193069200Y-37287200D03*
X161133800Y-54279800D03*
X163833800Y-54279800D03*
D23*
X104292400Y-180576400D03*
X104292400Y-178376400D03*
D24*
X97071000Y-186055000D03*
X99271000Y-186055000D03*
X112544200Y-173933000D03*
X114744200Y-173933000D03*
X112544200Y-175533000D03*
X114744200Y-175533000D03*
X112544200Y-177133000D03*
X114744200Y-177133000D03*
X112544200Y-178733000D03*
X114744200Y-178733000D03*
X112544200Y-180333000D03*
X114744200Y-180333000D03*
X112544200Y-181933000D03*
X114744200Y-181933000D03*
X112544200Y-183533000D03*
X114744200Y-183533000D03*
X112544200Y-185133000D03*
X114744200Y-185133000D03*
D17*
X84100000Y-184000000D03*
D18*
X86640000Y-184000000D03*
X89180000Y-184000000D03*
X91720000Y-184000000D03*
D25*
X107162600Y-180401000D03*
X107162600Y-178501000D03*
X105765600Y-180401000D03*
X105765600Y-178501000D03*
D21*
X120293200Y-173933000D03*
X122193200Y-173933000D03*
X120293200Y-175533000D03*
X122193200Y-175533000D03*
X120293200Y-177133000D03*
X122193200Y-177133000D03*
X120293200Y-178733000D03*
X122193200Y-178733000D03*
X120293200Y-180233000D03*
X122193200Y-180233000D03*
X120293200Y-181933000D03*
X122193200Y-181933000D03*
X120293200Y-183533000D03*
X122193200Y-183533000D03*
X120293200Y-185133000D03*
X122193200Y-185133000D03*
D19*
X127000000Y-184000000D03*
D20*
X129540000Y-184000000D03*
X132080000Y-184000000D03*
X134620000Y-184000000D03*
X137160000Y-184000000D03*
X139700000Y-184000000D03*
X142240000Y-184000000D03*
X144780000Y-184000000D03*
X147320000Y-184000000D03*
X149860000Y-184000000D03*
X152400000Y-184000000D03*
X154940000Y-184000000D03*
X157480000Y-184000000D03*
D22*
X131847600Y-71297800D03*
X134547600Y-71297800D03*
X102739200Y-88214200D03*
X105439200Y-88214200D03*
X92680800Y-105054400D03*
X95380800Y-105054400D03*
X44065200Y-121793000D03*
X46765200Y-121793000D03*
X24481800Y-154990800D03*
X27181800Y-154990800D03*
D26*
X169686204Y-172867514D03*
X169495583Y-173849190D03*
X150266400Y-173399179D03*
X172895253Y-172793661D03*
X172262800Y-173964600D03*
X118371335Y-181871335D03*
X103682800Y-176758600D03*
X122631200Y-186309000D03*
X121793032Y-186309000D03*
X86109892Y-172713379D03*
X95808800Y-184886600D03*
X95859600Y-183870600D03*
X118211600Y-185293000D03*
X118033800Y-177419000D03*
X118186200Y-183515000D03*
X116433600Y-180340000D03*
X98831400Y-176592390D03*
X98867224Y-179006840D03*
X98362716Y-178143420D03*
X97586676Y-177418410D03*
X102874738Y-177303590D03*
X116105821Y-176693990D03*
X116408200Y-175590200D03*
X116382800Y-173964600D03*
X87749677Y-170778998D03*
X85260465Y-174632335D03*
X90907527Y-173170579D03*
X88830421Y-172665767D03*
X88757011Y-170763143D03*
X92974571Y-181481599D03*
X93289530Y-179560472D03*
X93358251Y-180558120D03*
X93345000Y-178562000D03*
X133044556Y-172276610D03*
X134233660Y-172378210D03*
X148336000Y-172821600D03*
X105765600Y-177012600D03*
X107162600Y-177038000D03*
X100135384Y-172892324D03*
X101212581Y-172892324D03*
D27*
X162763200Y-123674010D02*
X162763200Y-131062589D01*
X172484211Y-140783600D02*
X172484211Y-147582599D01*
X182168800Y-62941199D02*
X191864411Y-72636810D01*
X162610800Y-90527011D02*
X162610800Y-97205800D01*
X191762811Y-106723610D02*
X191762811Y-114637389D01*
X163833800Y-55179800D02*
X162833800Y-56179800D01*
X191864411Y-148038389D02*
X182245000Y-157657800D01*
X163833800Y-54279800D02*
X163833800Y-55179800D01*
X182219600Y-97180400D02*
X191762811Y-106723610D01*
X193069200Y-37287200D02*
X193069200Y-38187200D01*
X191414400Y-80213200D02*
X181762400Y-89865200D01*
X191991411Y-39264989D02*
X191991411Y-46439800D01*
X176076899Y-167266189D02*
X171270229Y-172072859D01*
X191991411Y-46439800D02*
X182168800Y-56262410D01*
X172484211Y-147582599D02*
X162806811Y-157259999D01*
X182161611Y-124238589D02*
X182161611Y-130650410D01*
X181794989Y-157471400D02*
X181794989Y-164635611D01*
X182168800Y-56262410D02*
X182168800Y-62941199D01*
X182245000Y-157657800D02*
X182245000Y-164822011D01*
X182245000Y-164822011D02*
X179800822Y-167266189D01*
X171270229Y-172072859D02*
X171270229Y-172501816D01*
X162806811Y-164981600D02*
X154389232Y-173399179D01*
X162763200Y-131062589D02*
X172484211Y-140783600D01*
X191864411Y-80525189D02*
X182219600Y-90170000D01*
X162833800Y-63264389D02*
X172458811Y-72889400D01*
X191541400Y-46253400D02*
X181718789Y-56076010D01*
X191762811Y-114637389D02*
X182161611Y-124238589D01*
X191312800Y-114450989D02*
X181711600Y-124052189D01*
X181718789Y-63127599D02*
X191414400Y-72823210D01*
X181762400Y-89865200D02*
X181762400Y-97359610D01*
X181718789Y-56076010D02*
X181718789Y-63127599D01*
X191312800Y-106910010D02*
X191312800Y-114450989D01*
X191414400Y-72823210D02*
X191414400Y-80213200D01*
X181711600Y-124052189D02*
X181711600Y-130836810D01*
X191541400Y-39359400D02*
X191541400Y-46253400D01*
X181711600Y-130836810D02*
X191414400Y-140539610D01*
X171270229Y-172501816D02*
X169922855Y-173849190D01*
X179614422Y-166816178D02*
X175737540Y-166816178D01*
X172458811Y-80679000D02*
X162610800Y-90527011D01*
X181762400Y-97359610D02*
X191312800Y-106910010D01*
X179800822Y-167266189D02*
X176076899Y-167266189D01*
X181794989Y-164635611D02*
X179614422Y-166816178D01*
X193069200Y-38187200D02*
X191991411Y-39264989D01*
X191414400Y-147851989D02*
X181794989Y-157471400D01*
X190369200Y-38187200D02*
X191541400Y-39359400D01*
X191414400Y-140539610D02*
X191414400Y-147851989D01*
X190369200Y-37287200D02*
X190369200Y-38187200D01*
X170086203Y-172467515D02*
X169686204Y-172867514D01*
X172408011Y-114029200D02*
X162763200Y-123674010D01*
X191864411Y-140353210D02*
X191864411Y-148038389D01*
X150832085Y-173399179D02*
X150266400Y-173399179D01*
X154389232Y-173399179D02*
X150832085Y-173399179D01*
X162806811Y-157259999D02*
X162806811Y-164981600D01*
X182161611Y-130650410D02*
X191864411Y-140353210D01*
X162610800Y-97205800D02*
X172408011Y-107003011D01*
X182219600Y-90170000D02*
X182219600Y-97180400D01*
X175737540Y-166816178D02*
X170086203Y-172467515D01*
X172458811Y-72889400D02*
X172458811Y-80679000D01*
X172408011Y-107003011D02*
X172408011Y-114029200D01*
X169922855Y-173849190D02*
X169495583Y-173849190D01*
X162833800Y-56179800D02*
X162833800Y-63264389D01*
X191864411Y-72636810D02*
X191864411Y-80525189D01*
X219503000Y-21397800D02*
X220599000Y-22493800D01*
X220599000Y-22493800D02*
X220599000Y-29692600D01*
X230276400Y-39370000D02*
X230276400Y-46532800D01*
X230276400Y-46532800D02*
X220783989Y-56025210D01*
X220783989Y-56025210D02*
X220783989Y-63711800D01*
X220783989Y-63711800D02*
X230454200Y-73382011D01*
X230454200Y-80364190D02*
X220682389Y-90136000D01*
X220751400Y-123925189D02*
X220751400Y-130963811D01*
X220802200Y-157605589D02*
X220802200Y-164795200D01*
X230454200Y-73382011D02*
X230454200Y-80364190D01*
X216882432Y-168714968D02*
X177362854Y-168714968D01*
X160593000Y-176657000D02*
X158750000Y-178500000D01*
X158750000Y-178500000D02*
X157500000Y-178500000D01*
X219503000Y-20497800D02*
X219503000Y-21397800D01*
X170693643Y-176657000D02*
X160593000Y-176657000D01*
X177735653Y-169614990D02*
X170693643Y-176657000D01*
X220599000Y-29692600D02*
X230276400Y-39370000D01*
X173284161Y-172793661D02*
X172895253Y-172793661D01*
X220802200Y-164795200D02*
X216882432Y-168714968D01*
X230530400Y-147877390D02*
X220802200Y-157605589D01*
X220751400Y-130963811D02*
X230530400Y-140742811D01*
X177362854Y-168714968D02*
X173284161Y-172793661D01*
X230530400Y-140742811D02*
X230530400Y-147877390D01*
X220682389Y-90136000D02*
X220682389Y-97290600D01*
X230461389Y-114215201D02*
X220751400Y-123925189D01*
X230461389Y-107069600D02*
X230461389Y-114215201D01*
X220682389Y-97290600D02*
X230461389Y-107069600D01*
X240500000Y-161183000D02*
X232068010Y-169614990D01*
X232068010Y-169614990D02*
X177735653Y-169614990D01*
X114744200Y-181933000D02*
X118309670Y-181933000D01*
X118309670Y-181933000D02*
X118371335Y-181871335D01*
X118433000Y-181933000D02*
X118371335Y-181871335D01*
X120293200Y-181933000D02*
X118433000Y-181933000D01*
X162356800Y-164795200D02*
X154730399Y-172421601D01*
X171983400Y-147447000D02*
X162356800Y-157073599D01*
X162160789Y-97392200D02*
X171958000Y-107189411D01*
X162280600Y-131241800D02*
X171983400Y-140944600D01*
X162280600Y-123520200D02*
X162280600Y-131241800D01*
X171958000Y-113842800D02*
X162280600Y-123520200D01*
X161133800Y-54279800D02*
X161133800Y-55179800D01*
X171983400Y-140944600D02*
X171983400Y-147447000D01*
X162356800Y-157073599D02*
X162356800Y-164795200D01*
X162179000Y-56225000D02*
X162179000Y-63246000D01*
X162160789Y-90340611D02*
X162160789Y-97392200D01*
X171958000Y-107189411D02*
X171958000Y-113842800D01*
X172008800Y-73075800D02*
X172008800Y-80492600D01*
X162179000Y-63246000D02*
X172008800Y-73075800D01*
X161133800Y-55179800D02*
X162179000Y-56225000D01*
X172008800Y-80492600D02*
X162160789Y-90340611D01*
X154730399Y-172421601D02*
X148735999Y-172421601D01*
X148735999Y-172421601D02*
X148336000Y-172821600D01*
X101121000Y-176693400D02*
X103617600Y-176693400D01*
X103617600Y-176693400D02*
X103682800Y-176758600D01*
X157500000Y-178500000D02*
X157500000Y-183980000D01*
X157500000Y-183980000D02*
X157480000Y-184000000D01*
X154960000Y-178500000D02*
X154960000Y-183980000D01*
X154960000Y-183980000D02*
X154940000Y-184000000D01*
X152420000Y-178500000D02*
X152420000Y-183980000D01*
X152420000Y-183980000D02*
X152400000Y-184000000D01*
X149880000Y-178500000D02*
X149880000Y-183980000D01*
X149880000Y-183980000D02*
X149860000Y-184000000D01*
X147340000Y-178500000D02*
X147340000Y-183980000D01*
X147340000Y-183980000D02*
X147320000Y-184000000D01*
X144800000Y-178500000D02*
X144800000Y-183980000D01*
X144800000Y-183980000D02*
X144780000Y-184000000D01*
X142260000Y-178500000D02*
X142260000Y-183980000D01*
X142260000Y-183980000D02*
X142240000Y-184000000D01*
X139720000Y-178500000D02*
X139720000Y-183980000D01*
X139720000Y-183980000D02*
X139700000Y-184000000D01*
X137180000Y-178500000D02*
X137180000Y-183980000D01*
X137180000Y-183980000D02*
X137160000Y-184000000D01*
X134640000Y-178500000D02*
X134640000Y-183980000D01*
X134640000Y-183980000D02*
X134620000Y-184000000D01*
X132100000Y-178500000D02*
X132100000Y-183980000D01*
X132100000Y-183980000D02*
X132080000Y-184000000D01*
X129560000Y-178500000D02*
X129560000Y-183980000D01*
X129560000Y-183980000D02*
X129540000Y-184000000D01*
X127020000Y-178500000D02*
X127020000Y-183980000D01*
X127020000Y-183980000D02*
X127000000Y-184000000D01*
D28*
X122631200Y-186309000D02*
X122631200Y-185571000D01*
X122631200Y-185571000D02*
X122193200Y-185133000D01*
X121793032Y-186309000D02*
X121793032Y-185533168D01*
X121793032Y-185533168D02*
X122193200Y-185133000D01*
X122193200Y-183533000D02*
X122193200Y-185133000D01*
X122193200Y-181933000D02*
X122193200Y-183533000D01*
X122193200Y-180233000D02*
X122193200Y-181933000D01*
X122193200Y-178733000D02*
X122193200Y-180233000D01*
X122193200Y-177133000D02*
X122193200Y-178733000D01*
X122193200Y-175533000D02*
X122193200Y-177133000D01*
X122193200Y-173933000D02*
X122193200Y-175533000D01*
D27*
X99288400Y-184543400D02*
X99288400Y-186037600D01*
X99288400Y-186037600D02*
X99271000Y-186055000D01*
X99288400Y-183143400D02*
X99288400Y-184543400D01*
X100121000Y-181243400D02*
X99288400Y-182076000D01*
X101121000Y-181243400D02*
X100121000Y-181243400D01*
X99288400Y-182076000D02*
X99288400Y-182518400D01*
X99288400Y-182518400D02*
X99288400Y-183143400D01*
X96152000Y-184543400D02*
X95808800Y-184886600D01*
X97388400Y-184543400D02*
X96152000Y-184543400D01*
X96586800Y-183143400D02*
X95859600Y-183870600D01*
X97388400Y-183143400D02*
X96586800Y-183143400D01*
X101121000Y-180593400D02*
X97968400Y-180593400D01*
X90505010Y-185625010D02*
X89180000Y-184300000D01*
X89180000Y-184300000D02*
X89180000Y-184000000D01*
X101121000Y-179943400D02*
X97981990Y-179943400D01*
X92300380Y-185625010D02*
X90505010Y-185625010D01*
X97981990Y-179943400D02*
X92300380Y-185625010D01*
X97968400Y-180593400D02*
X92125800Y-186436000D01*
X92125800Y-186436000D02*
X87223600Y-186436000D01*
X87223600Y-186436000D02*
X86640000Y-185852400D01*
X86640000Y-185852400D02*
X86640000Y-184000000D01*
X118211600Y-185293000D02*
X114904200Y-185293000D01*
X114904200Y-185293000D02*
X114744200Y-185133000D01*
X118211600Y-185293000D02*
X120133200Y-185293000D01*
X120133200Y-185293000D02*
X120293200Y-185133000D01*
X116433600Y-180340000D02*
X120186200Y-180340000D01*
X120186200Y-180340000D02*
X120293200Y-180233000D01*
X116382800Y-173964600D02*
X120261600Y-173964600D01*
X120261600Y-173964600D02*
X120293200Y-173933000D01*
X116408200Y-175590200D02*
X120236000Y-175590200D01*
X120236000Y-175590200D02*
X120293200Y-175533000D01*
X119443200Y-177133000D02*
X119004190Y-176693990D01*
X120293200Y-177133000D02*
X119443200Y-177133000D01*
X119004190Y-176693990D02*
X116671506Y-176693990D01*
X120293200Y-178733000D02*
X119347800Y-178733000D01*
X118433799Y-177818999D02*
X118033800Y-177419000D01*
X119347800Y-178733000D02*
X118433799Y-177818999D01*
X116719800Y-178733000D02*
X117633801Y-177818999D01*
X117633801Y-177818999D02*
X118033800Y-177419000D01*
X114744200Y-178733000D02*
X116719800Y-178733000D01*
X116671506Y-176693990D02*
X116105821Y-176693990D01*
X118186200Y-183515000D02*
X114762200Y-183515000D01*
X114762200Y-183515000D02*
X114744200Y-183533000D01*
X118186200Y-183515000D02*
X120275200Y-183515000D01*
X120275200Y-183515000D02*
X120293200Y-183533000D01*
X116433600Y-180340000D02*
X114751200Y-180340000D01*
X114751200Y-180340000D02*
X114744200Y-180333000D01*
X95221000Y-176693400D02*
X98730390Y-176693400D01*
X98730390Y-176693400D02*
X98831400Y-176592390D01*
X97797031Y-178143420D02*
X98362716Y-178143420D01*
X96371020Y-178143420D02*
X97797031Y-178143420D01*
X95221000Y-178643400D02*
X96221000Y-178643400D01*
X98301539Y-179006840D02*
X98867224Y-179006840D01*
X95221000Y-177993400D02*
X96221000Y-177993400D01*
X96221000Y-178643400D02*
X96584440Y-179006840D01*
X96584440Y-179006840D02*
X98301539Y-179006840D01*
X96221000Y-177993400D02*
X96371020Y-178143420D01*
X97511666Y-177343400D02*
X97586676Y-177418410D01*
X95221000Y-177343400D02*
X97511666Y-177343400D01*
X101121000Y-177343400D02*
X102834928Y-177343400D01*
X102834928Y-177343400D02*
X102874738Y-177303590D01*
X115666811Y-177133000D02*
X115705822Y-177093989D01*
X114744200Y-177133000D02*
X115666811Y-177133000D01*
X115705822Y-177093989D02*
X116105821Y-176693990D01*
X116408200Y-175590200D02*
X114801400Y-175590200D01*
X114801400Y-175590200D02*
X114744200Y-175533000D01*
X116382800Y-173964600D02*
X114775800Y-173964600D01*
X114775800Y-173964600D02*
X114744200Y-173933000D01*
X27540357Y-168714968D02*
X80532276Y-168714968D01*
X82745534Y-172117404D02*
X84860466Y-174232336D01*
X84860466Y-174232336D02*
X85260465Y-174632335D01*
X82745534Y-170928226D02*
X82745534Y-172117404D01*
X80532276Y-168714968D02*
X82745534Y-170928226D01*
X24481800Y-155890800D02*
X25577800Y-156986800D01*
X24481800Y-154990800D02*
X24481800Y-155890800D01*
X25577800Y-166752411D02*
X27540357Y-168714968D01*
X25577800Y-156986800D02*
X25577800Y-166752411D01*
X93744999Y-178961999D02*
X93889599Y-178961999D01*
X93345000Y-178562000D02*
X93744999Y-178961999D01*
X93889599Y-178961999D02*
X94221000Y-179293400D01*
X94221000Y-179293400D02*
X95221000Y-179293400D01*
X93393531Y-180593400D02*
X93358251Y-180558120D01*
X95221000Y-180593400D02*
X93393531Y-180593400D01*
X93778455Y-181243400D02*
X93540256Y-181481599D01*
X93540256Y-181481599D02*
X92974571Y-181481599D01*
X95221000Y-181243400D02*
X93778455Y-181243400D01*
X95221000Y-179943400D02*
X94221000Y-179943400D01*
X94221000Y-179943400D02*
X93838072Y-179560472D01*
X93838072Y-179560472D02*
X93289530Y-179560472D01*
X131847600Y-71297800D02*
X131847600Y-72197800D01*
X130447135Y-169679189D02*
X132644557Y-171876611D01*
X123215400Y-123698000D02*
X123215400Y-131014611D01*
X123247989Y-97163600D02*
X132892800Y-106808411D01*
X131847600Y-72197800D02*
X132715000Y-73065200D01*
X123215400Y-164568011D02*
X128326578Y-169679189D01*
X132892800Y-114020600D02*
X123215400Y-123698000D01*
X132918200Y-148131390D02*
X123215400Y-157834189D01*
X132892800Y-106808411D02*
X132892800Y-114020600D01*
X132715000Y-73065200D02*
X132715000Y-80340200D01*
X132644557Y-171876611D02*
X133044556Y-172276610D01*
X132918200Y-140717410D02*
X132918200Y-148131390D01*
X132715000Y-80340200D02*
X123247989Y-89807210D01*
X123215400Y-157834189D02*
X123215400Y-164568011D01*
X128326578Y-169679189D02*
X130447135Y-169679189D01*
X123215400Y-131014611D02*
X132918200Y-140717410D01*
X123247989Y-89807210D02*
X123247989Y-97163600D01*
X170750000Y-168136800D02*
X164033200Y-174853600D01*
X170750000Y-161183000D02*
X170750000Y-168136800D01*
X164033200Y-174853600D02*
X152069800Y-174853600D01*
X152069800Y-174853600D02*
X149880000Y-177043400D01*
X149880000Y-177043400D02*
X149880000Y-178500000D01*
X104292400Y-180426400D02*
X104292400Y-180576400D01*
X103592400Y-179726400D02*
X104292400Y-180426400D01*
X103592400Y-178376400D02*
X104292400Y-178376400D01*
X102359400Y-178643400D02*
X103442400Y-179726400D01*
X102805196Y-178376400D02*
X103592400Y-178376400D01*
X101121000Y-177993400D02*
X102422196Y-177993400D01*
X102422196Y-177993400D02*
X102805196Y-178376400D01*
X103442400Y-179726400D02*
X103592400Y-179726400D01*
X101121000Y-178643400D02*
X102359400Y-178643400D01*
X105765600Y-178501000D02*
X105765600Y-177012600D01*
X105765600Y-178726000D02*
X105765600Y-178501000D01*
X105765600Y-178501000D02*
X105765600Y-178276000D01*
X107162600Y-178501000D02*
X107162600Y-177038000D01*
X99949000Y-179121400D02*
X100121000Y-179293400D01*
X99949000Y-177515400D02*
X99949000Y-179121400D01*
X100121000Y-179293400D02*
X101121000Y-179293400D01*
X101121000Y-177343400D02*
X100121000Y-177343400D01*
X100121000Y-177343400D02*
X99949000Y-177515400D01*
X101121000Y-177343400D02*
X101121000Y-176693400D01*
X102131001Y-180693399D02*
X103690001Y-182252399D01*
X103690001Y-182252399D02*
X103690001Y-183150001D01*
X101121000Y-180593400D02*
X101220999Y-180693399D01*
X103690001Y-183150001D02*
X104540000Y-184000000D01*
X101220999Y-180693399D02*
X102131001Y-180693399D01*
X102017413Y-179943400D02*
X104899012Y-182824999D01*
X104899012Y-182824999D02*
X105904999Y-182824999D01*
X105904999Y-182824999D02*
X106230001Y-183150001D01*
X106230001Y-183150001D02*
X107080000Y-184000000D01*
X101121000Y-179943400D02*
X102017413Y-179943400D01*
X114826600Y-174015400D02*
X114744200Y-173933000D01*
D29*
X38250000Y-86998000D02*
X48500000Y-76748000D01*
X38250000Y-93635000D02*
X38250000Y-100272000D01*
X38250000Y-127409000D02*
X38250000Y-120772000D01*
X38250000Y-93635000D02*
X38250000Y-86998000D01*
X38250000Y-100272000D02*
X48500000Y-110522000D01*
X38250000Y-120772000D02*
X48500000Y-110522000D01*
X38250000Y-59861000D02*
X38250000Y-53224000D01*
X38250000Y-59861000D02*
X38250000Y-66498000D01*
X38250000Y-53224000D02*
X48500000Y-42974000D01*
X38250000Y-66498000D02*
X48500000Y-76748000D01*
X38250000Y-26087000D02*
X38250000Y-32724000D01*
X38250000Y-26087000D02*
X38250000Y-18950000D01*
X38250000Y-32724000D02*
X48500000Y-42974000D01*
X38250000Y-18950000D02*
X48000000Y-9200000D01*
X38250000Y-127409000D02*
X38250000Y-134046000D01*
X38250000Y-161183000D02*
X38250000Y-154546000D01*
X38250000Y-154546000D02*
X48500000Y-144296000D01*
X38250000Y-134046000D02*
X48500000Y-144296000D01*
D27*
X151250000Y-165433000D02*
X147340000Y-169343000D01*
X151250000Y-161183000D02*
X151250000Y-165433000D01*
X147340000Y-169343000D02*
X147340000Y-176950000D01*
X147340000Y-176950000D02*
X147340000Y-178500000D01*
X144800000Y-175330800D02*
X135750000Y-166280800D01*
X144800000Y-178500000D02*
X144800000Y-175330800D01*
X135750000Y-166280800D02*
X135750000Y-161183000D01*
X57750000Y-161183000D02*
X57750000Y-165433000D01*
X57750000Y-165433000D02*
X58781913Y-166464913D01*
X58781913Y-166464913D02*
X64446487Y-166464913D01*
X64446487Y-166464913D02*
X64465199Y-166446201D01*
X64465199Y-166446201D02*
X64465200Y-166446203D01*
D29*
X10750000Y-165183000D02*
X14750000Y-165183000D01*
X14750000Y-165183000D02*
X18750000Y-161183000D01*
X10750000Y-131409000D02*
X14750000Y-131409000D01*
X14750000Y-131409000D02*
X18750000Y-127409000D01*
X10750000Y-97635000D02*
X14750000Y-97635000D01*
X14750000Y-97635000D02*
X18750000Y-93635000D01*
X10750000Y-30446000D02*
X14391000Y-30446000D01*
X14391000Y-30446000D02*
X18750000Y-26087000D01*
X10750000Y-63861000D02*
X14750000Y-63861000D01*
X14750000Y-63861000D02*
X18750000Y-59861000D01*
X18750000Y-18950000D02*
X28500000Y-9200000D01*
X18750000Y-26087000D02*
X18750000Y-18950000D01*
X57750000Y-18950000D02*
X67500000Y-9200000D01*
X57750000Y-26087000D02*
X57750000Y-18950000D01*
X77250000Y-18950000D02*
X87000000Y-9200000D01*
X77250000Y-26087000D02*
X77250000Y-18950000D01*
X96750000Y-18950000D02*
X106500000Y-9200000D01*
X96750000Y-26087000D02*
X96750000Y-18950000D01*
X116250000Y-18950000D02*
X126000000Y-9200000D01*
X116250000Y-26087000D02*
X116250000Y-18950000D01*
X135750000Y-18950000D02*
X145500000Y-9200000D01*
X135750000Y-26087000D02*
X135750000Y-18950000D01*
X155250000Y-18950000D02*
X165000000Y-9200000D01*
X155250000Y-26087000D02*
X155250000Y-18950000D01*
X174750000Y-18950000D02*
X184500000Y-9200000D01*
X174750000Y-26087000D02*
X174750000Y-18950000D01*
X194250000Y-18950000D02*
X204000000Y-9200000D01*
X194250000Y-26087000D02*
X194250000Y-18950000D01*
X213750000Y-18950000D02*
X223500000Y-9200000D01*
X213750000Y-26087000D02*
X213750000Y-18950000D01*
X18750000Y-33224000D02*
X28500000Y-42974000D01*
X18750000Y-26087000D02*
X18750000Y-33224000D01*
X57750000Y-33224000D02*
X67500000Y-42974000D01*
X57750000Y-26087000D02*
X57750000Y-33224000D01*
X77250000Y-33224000D02*
X87000000Y-42974000D01*
X77250000Y-26087000D02*
X77250000Y-33224000D01*
X96750000Y-33224000D02*
X106500000Y-42974000D01*
X96750000Y-26087000D02*
X96750000Y-33224000D01*
X116250000Y-33224000D02*
X126000000Y-42974000D01*
X116250000Y-26087000D02*
X116250000Y-33224000D01*
X135750000Y-33224000D02*
X145500000Y-42974000D01*
X135750000Y-26087000D02*
X135750000Y-33224000D01*
X155250000Y-33224000D02*
X165000000Y-42974000D01*
X155250000Y-26087000D02*
X155250000Y-33224000D01*
X174750000Y-33224000D02*
X184500000Y-42974000D01*
X174750000Y-26087000D02*
X174750000Y-33224000D01*
X194250000Y-33224000D02*
X204000000Y-42974000D01*
X194250000Y-26087000D02*
X194250000Y-33224000D01*
X213750000Y-33224000D02*
X223500000Y-42974000D01*
X213750000Y-26087000D02*
X213750000Y-33224000D01*
X213750000Y-52724000D02*
X223500000Y-42974000D01*
X213750000Y-59861000D02*
X213750000Y-52724000D01*
X194250000Y-52724000D02*
X204000000Y-42974000D01*
X194250000Y-59861000D02*
X194250000Y-52724000D01*
X184500000Y-44474000D02*
X184500000Y-42974000D01*
X174750000Y-54224000D02*
X184500000Y-44474000D01*
X174750000Y-59861000D02*
X174750000Y-54224000D01*
X155250000Y-52724000D02*
X165000000Y-42974000D01*
X155250000Y-59861000D02*
X155250000Y-52724000D01*
X135750000Y-52724000D02*
X145500000Y-42974000D01*
X135750000Y-59861000D02*
X135750000Y-52724000D01*
X116250000Y-52724000D02*
X126000000Y-42974000D01*
X116250000Y-59861000D02*
X116250000Y-52724000D01*
X96750000Y-52724000D02*
X106500000Y-42974000D01*
X96750000Y-59861000D02*
X96750000Y-52724000D01*
X77250000Y-52724000D02*
X87000000Y-42974000D01*
X77250000Y-59861000D02*
X77250000Y-52724000D01*
X57750000Y-52724000D02*
X67500000Y-42974000D01*
X57750000Y-59861000D02*
X57750000Y-52724000D01*
X18750000Y-52724000D02*
X28500000Y-42974000D01*
X18750000Y-59861000D02*
X18750000Y-52724000D01*
X18750000Y-66998000D02*
X28500000Y-76748000D01*
X18750000Y-59861000D02*
X18750000Y-66998000D01*
X57750000Y-66998000D02*
X67500000Y-76748000D01*
X57750000Y-59861000D02*
X57750000Y-66998000D01*
X77250000Y-66998000D02*
X87000000Y-76748000D01*
X77250000Y-59861000D02*
X77250000Y-66998000D01*
X96750000Y-66998000D02*
X106500000Y-76748000D01*
X96750000Y-59861000D02*
X96750000Y-66998000D01*
X116250000Y-66998000D02*
X126000000Y-76748000D01*
X116250000Y-59861000D02*
X116250000Y-66998000D01*
X135750000Y-66998000D02*
X145500000Y-76748000D01*
X135750000Y-59861000D02*
X135750000Y-66998000D01*
X155250000Y-66998000D02*
X165000000Y-76748000D01*
X155250000Y-59861000D02*
X155250000Y-66998000D01*
X174750000Y-66998000D02*
X184500000Y-76748000D01*
X174750000Y-59861000D02*
X174750000Y-66998000D01*
X194250000Y-66998000D02*
X204000000Y-76748000D01*
X194250000Y-59861000D02*
X194250000Y-66998000D01*
X213750000Y-66998000D02*
X223500000Y-76748000D01*
X213750000Y-59861000D02*
X213750000Y-66998000D01*
X213750000Y-86498000D02*
X223500000Y-76748000D01*
X213750000Y-93635000D02*
X213750000Y-86498000D01*
X194250000Y-86498000D02*
X204000000Y-76748000D01*
X194250000Y-93635000D02*
X194250000Y-86498000D01*
X174750000Y-86498000D02*
X184500000Y-76748000D01*
X174750000Y-93635000D02*
X174750000Y-86498000D01*
X155250000Y-86498000D02*
X165000000Y-76748000D01*
X155250000Y-93635000D02*
X155250000Y-86498000D01*
X135750000Y-86498000D02*
X145500000Y-76748000D01*
X135750000Y-93635000D02*
X135750000Y-86498000D01*
X126000000Y-78248000D02*
X126000000Y-76748000D01*
X116250000Y-87998000D02*
X126000000Y-78248000D01*
X116250000Y-93635000D02*
X116250000Y-87998000D01*
X96750000Y-86498000D02*
X106500000Y-76748000D01*
X96750000Y-93635000D02*
X96750000Y-86498000D01*
X77250000Y-86498000D02*
X87000000Y-76748000D01*
X77250000Y-93635000D02*
X77250000Y-86498000D01*
X57750000Y-86498000D02*
X67500000Y-76748000D01*
X57750000Y-93635000D02*
X57750000Y-86498000D01*
X18750000Y-86498000D02*
X28500000Y-76748000D01*
X18750000Y-93635000D02*
X18750000Y-86498000D01*
X18750000Y-100772000D02*
X28500000Y-110522000D01*
X18750000Y-93635000D02*
X18750000Y-100772000D01*
X57750000Y-100772000D02*
X67500000Y-110522000D01*
X57750000Y-93635000D02*
X57750000Y-100772000D01*
X77250000Y-100772000D02*
X87000000Y-110522000D01*
X77250000Y-93635000D02*
X77250000Y-100772000D01*
X96750000Y-100772000D02*
X106500000Y-110522000D01*
X96750000Y-93635000D02*
X96750000Y-100772000D01*
X116250000Y-100772000D02*
X126000000Y-110522000D01*
X116250000Y-93635000D02*
X116250000Y-100772000D01*
X135750000Y-100772000D02*
X145500000Y-110522000D01*
X135750000Y-93635000D02*
X135750000Y-100772000D01*
X155250000Y-100772000D02*
X165000000Y-110522000D01*
X155250000Y-93635000D02*
X155250000Y-100772000D01*
X174750000Y-100772000D02*
X184500000Y-110522000D01*
X174750000Y-93635000D02*
X174750000Y-100772000D01*
X194250000Y-100772000D02*
X204000000Y-110522000D01*
X194250000Y-93635000D02*
X194250000Y-100772000D01*
X213750000Y-100772000D02*
X223500000Y-110522000D01*
X213750000Y-93635000D02*
X213750000Y-100772000D01*
X18750000Y-120272000D02*
X28500000Y-110522000D01*
X18750000Y-127409000D02*
X18750000Y-120272000D01*
X67500000Y-112022000D02*
X67500000Y-110522000D01*
X57750000Y-121772000D02*
X67500000Y-112022000D01*
X57750000Y-127409000D02*
X57750000Y-121772000D01*
X77250000Y-120272000D02*
X87000000Y-110522000D01*
X77250000Y-127409000D02*
X77250000Y-120272000D01*
X96750000Y-120272000D02*
X106500000Y-110522000D01*
X96750000Y-127409000D02*
X96750000Y-120272000D01*
X116250000Y-120272000D02*
X126000000Y-110522000D01*
X116250000Y-127409000D02*
X116250000Y-120272000D01*
X135750000Y-120272000D02*
X145500000Y-110522000D01*
X135750000Y-127409000D02*
X135750000Y-120272000D01*
X155250000Y-120272000D02*
X165000000Y-110522000D01*
X155250000Y-127409000D02*
X155250000Y-120272000D01*
X174750000Y-120272000D02*
X184500000Y-110522000D01*
X174750000Y-127409000D02*
X174750000Y-120272000D01*
X194250000Y-120272000D02*
X204000000Y-110522000D01*
X194250000Y-127409000D02*
X194250000Y-120272000D01*
X213750000Y-120272000D02*
X223500000Y-110522000D01*
X213750000Y-127409000D02*
X213750000Y-120272000D01*
X213750000Y-134546000D02*
X223500000Y-144296000D01*
X213750000Y-127409000D02*
X213750000Y-134546000D01*
X194250000Y-134546000D02*
X204000000Y-144296000D01*
X194250000Y-127409000D02*
X194250000Y-134546000D01*
X174750000Y-134546000D02*
X184500000Y-144296000D01*
X174750000Y-127409000D02*
X174750000Y-134546000D01*
X155250000Y-134546000D02*
X165000000Y-144296000D01*
X155250000Y-127409000D02*
X155250000Y-134546000D01*
X135750000Y-134546000D02*
X145500000Y-144296000D01*
X135750000Y-127409000D02*
X135750000Y-134546000D01*
X116250000Y-134546000D02*
X126000000Y-144296000D01*
X116250000Y-127409000D02*
X116250000Y-134546000D01*
X96750000Y-134546000D02*
X106500000Y-144296000D01*
X96750000Y-127409000D02*
X96750000Y-134546000D01*
X77250000Y-134546000D02*
X87000000Y-144296000D01*
X77250000Y-127409000D02*
X77250000Y-134546000D01*
X57750000Y-134546000D02*
X67500000Y-144296000D01*
X57750000Y-127409000D02*
X57750000Y-134546000D01*
X18750000Y-134546000D02*
X28500000Y-144296000D01*
X18750000Y-127409000D02*
X18750000Y-134546000D01*
X18750000Y-154046000D02*
X28500000Y-144296000D01*
X18750000Y-161183000D02*
X18750000Y-154046000D01*
X57750000Y-154046000D02*
X67500000Y-144296000D01*
X57750000Y-161183000D02*
X57750000Y-154046000D01*
X77250000Y-154046000D02*
X87000000Y-144296000D01*
X77250000Y-161183000D02*
X77250000Y-154046000D01*
X96750000Y-154046000D02*
X106500000Y-144296000D01*
X96750000Y-161183000D02*
X96750000Y-154046000D01*
X116250000Y-154046000D02*
X126000000Y-144296000D01*
X116250000Y-161183000D02*
X116250000Y-154046000D01*
X135750000Y-154046000D02*
X145500000Y-144296000D01*
X135750000Y-161183000D02*
X135750000Y-154046000D01*
X155250000Y-154046000D02*
X165000000Y-144296000D01*
X155250000Y-161183000D02*
X155250000Y-154046000D01*
X174750000Y-154046000D02*
X184500000Y-144296000D01*
X174750000Y-161183000D02*
X174750000Y-154046000D01*
X194250000Y-154046000D02*
X204000000Y-144296000D01*
X194250000Y-161183000D02*
X194250000Y-154046000D01*
X213750000Y-154046000D02*
X223500000Y-144296000D01*
X213750000Y-161183000D02*
X213750000Y-154046000D01*
D27*
X127020000Y-176950000D02*
X127020000Y-178500000D01*
X110601246Y-172829266D02*
X122899266Y-172829266D01*
X81845512Y-172879112D02*
X84833789Y-175867389D01*
X81845512Y-171301026D02*
X81845512Y-172879112D01*
X80159476Y-169614990D02*
X81845512Y-171301026D01*
X5632590Y-169614990D02*
X80159476Y-169614990D01*
X2500000Y-85210000D02*
X2500000Y-166482400D01*
X85713845Y-173438389D02*
X89566713Y-173438389D01*
X88001858Y-171490746D02*
X88978011Y-171490746D01*
X132983233Y-174003233D02*
X137180000Y-178200000D01*
X81681124Y-166464913D02*
X87180824Y-171964613D01*
X37000000Y-161183000D02*
X43631946Y-167814946D01*
X88188258Y-171940757D02*
X91506572Y-171940757D01*
X87367224Y-171514602D02*
X87978002Y-171514602D01*
X77250000Y-162683000D02*
X75895200Y-164037800D01*
X127919233Y-171479233D02*
X134640000Y-178200000D01*
X83645556Y-170555426D02*
X83645556Y-171370100D01*
X109669246Y-170579211D02*
X129307033Y-170579211D01*
X106631123Y-173617334D02*
X109669246Y-170579211D01*
X139720000Y-178200000D02*
X139720000Y-178500000D01*
X88978011Y-171490746D02*
X89006551Y-171462206D01*
X132094642Y-174003233D02*
X132983233Y-174003233D01*
X96750000Y-170705331D02*
X99662003Y-173617334D01*
X113886411Y-148063789D02*
X104292400Y-157657800D01*
X99450201Y-174067345D02*
X106817523Y-174067345D01*
X96845062Y-171462206D02*
X99450201Y-174067345D01*
X137180000Y-178200000D02*
X137180000Y-178500000D01*
X109855646Y-171029222D02*
X129120633Y-171029222D01*
X106817523Y-174067345D02*
X109855646Y-171029222D01*
X113886411Y-140682000D02*
X113886411Y-148063789D01*
X132281042Y-173553222D02*
X135073222Y-173553222D01*
X43631946Y-167814946D02*
X80905076Y-167814946D01*
X101612580Y-172492325D02*
X101212581Y-172892324D01*
X122899266Y-172829266D02*
X127020000Y-176950000D01*
X107190323Y-174967367D02*
X110228446Y-171929244D01*
X129307033Y-170579211D02*
X132281042Y-173553222D01*
X34250000Y-161183000D02*
X37000000Y-161183000D01*
X105439200Y-88214200D02*
X105439200Y-89114200D01*
X105439200Y-89114200D02*
X104292400Y-90261000D01*
X107563123Y-175867389D02*
X110601246Y-172829266D01*
X87180824Y-171964613D02*
X88164402Y-171964613D01*
X104292400Y-90261000D02*
X104292400Y-96977200D01*
X104292400Y-96977200D02*
X113886411Y-106571210D01*
X90559525Y-172445577D02*
X91374981Y-172445577D01*
X113886411Y-106571210D02*
X113886411Y-114105400D01*
X110042046Y-171479233D02*
X127919233Y-171479233D01*
X104241600Y-131037190D02*
X113886411Y-140682000D01*
X77250000Y-161183000D02*
X77250000Y-162683000D01*
X104292400Y-157657800D02*
X104292400Y-169812505D01*
X94083171Y-174517356D02*
X107003923Y-174517356D01*
X135073222Y-173553222D02*
X139720000Y-178200000D01*
X104292400Y-169812505D02*
X101612580Y-172492325D01*
X125829244Y-171929244D02*
X132100000Y-178200000D01*
X89566713Y-173438389D02*
X90559525Y-172445577D01*
X107003923Y-174517356D02*
X110042046Y-171479233D01*
X99662003Y-173617334D02*
X106631123Y-173617334D01*
X104241600Y-123750211D02*
X104241600Y-131037190D01*
X96750000Y-161183000D02*
X96750000Y-170705331D01*
X129120633Y-171029222D02*
X132094642Y-174003233D01*
X89006551Y-171462206D02*
X96845062Y-171462206D01*
X84833789Y-175867389D02*
X107563123Y-175867389D01*
X81867524Y-166014902D02*
X87367224Y-171514602D01*
X113886411Y-114105400D02*
X104241600Y-123750211D01*
X76556102Y-166014902D02*
X81867524Y-166014902D01*
X75895200Y-165354000D02*
X76556102Y-166014902D01*
X75895200Y-164037800D02*
X75895200Y-165354000D01*
X134640000Y-178200000D02*
X134640000Y-178500000D01*
X91506572Y-171940757D02*
X94083171Y-174517356D01*
X87978002Y-171514602D02*
X88001858Y-171490746D01*
X88164402Y-171964613D02*
X88188258Y-171940757D01*
X64483911Y-166464913D02*
X81681124Y-166464913D01*
X132100000Y-178200000D02*
X132100000Y-178500000D01*
X2500000Y-166482400D02*
X5632590Y-169614990D01*
X110228446Y-171929244D02*
X125829244Y-171929244D01*
X93896771Y-174967367D02*
X107190323Y-174967367D01*
X91374981Y-172445577D02*
X93896771Y-174967367D01*
X83645556Y-171370100D02*
X85713845Y-173438389D01*
X80905076Y-167814946D02*
X83645556Y-170555426D01*
X64465199Y-166446201D02*
X64483911Y-166464913D01*
X129560000Y-178200000D02*
X129560000Y-178500000D01*
X123739255Y-172379255D02*
X129560000Y-178200000D01*
X107376723Y-175417378D02*
X110414846Y-172379255D01*
X85020188Y-175417378D02*
X107376723Y-175417378D01*
X18750000Y-161183000D02*
X18750000Y-167721000D01*
X18750000Y-167721000D02*
X20193979Y-169164979D01*
X20193979Y-169164979D02*
X80345876Y-169164979D01*
X80345876Y-169164979D02*
X82295523Y-171114626D01*
X82295523Y-171114626D02*
X82295523Y-172692713D01*
X110414846Y-172379255D02*
X123739255Y-172379255D01*
X82295523Y-172692713D02*
X85020188Y-175417378D01*
X137163211Y-173103211D02*
X142260000Y-178200000D01*
X116250000Y-167685000D02*
X118694200Y-170129200D01*
X116250000Y-161183000D02*
X116250000Y-167685000D01*
X142260000Y-178200000D02*
X142260000Y-178500000D01*
X118694200Y-170129200D02*
X129493433Y-170129200D01*
X129493433Y-170129200D02*
X129757044Y-170392812D01*
X129757044Y-170392812D02*
X132467441Y-173103211D01*
X132467441Y-173103211D02*
X137163211Y-173103211D01*
X155309200Y-175310800D02*
X152420000Y-178200000D01*
X170376587Y-174428413D02*
X169494200Y-175310800D01*
X169494200Y-175310800D02*
X155309200Y-175310800D01*
X170376587Y-174031868D02*
X170376587Y-174428413D01*
X190250000Y-166696200D02*
X189230000Y-167716200D01*
X189230000Y-167716200D02*
X176263299Y-167716200D01*
X176263299Y-167716200D02*
X171720240Y-172259259D01*
X190250000Y-161183000D02*
X190250000Y-166696200D01*
X171720240Y-172259259D02*
X171720240Y-172688216D01*
X152420000Y-178200000D02*
X152420000Y-178500000D01*
X171720240Y-172688216D02*
X170376587Y-174031868D01*
X157399189Y-175760811D02*
X154960000Y-178200000D01*
X169680599Y-175760811D02*
X157399189Y-175760811D01*
X154960000Y-178200000D02*
X154960000Y-178500000D01*
X170826598Y-174614812D02*
X169680599Y-175760811D01*
X170826598Y-174218268D02*
X170826598Y-174614812D01*
X209750000Y-165865200D02*
X207350243Y-168264957D01*
X209750000Y-161183000D02*
X209750000Y-165865200D01*
X207350243Y-168264957D02*
X176350953Y-168264957D01*
X176350953Y-168264957D02*
X172170251Y-172445659D01*
X172170251Y-172445659D02*
X172170251Y-172874615D01*
X172170251Y-172874615D02*
X170826598Y-174218268D01*
X90507528Y-173570578D02*
X90907527Y-173170579D01*
X90189706Y-173888400D02*
X90507528Y-173570578D01*
X85527445Y-173888400D02*
X90189706Y-173888400D01*
X83195545Y-171556500D02*
X85527445Y-173888400D01*
X26162000Y-156010600D02*
X26162000Y-166700200D01*
X27181800Y-154990800D02*
X26162000Y-156010600D01*
X26162000Y-166700200D02*
X27726757Y-168264957D01*
X27726757Y-168264957D02*
X80718676Y-168264957D01*
X80718676Y-168264957D02*
X83195545Y-170741826D01*
X83195545Y-170741826D02*
X83195545Y-171556500D01*
X88264736Y-172665767D02*
X88830421Y-172665767D01*
X47358534Y-166914924D02*
X81384441Y-166914924D01*
X45687411Y-165243801D02*
X47358534Y-166914924D01*
X81384441Y-166914924D02*
X87135284Y-172665767D01*
X45687411Y-157817389D02*
X45687411Y-165243801D01*
X55898211Y-147606590D02*
X45687411Y-157817389D01*
X55448200Y-140844410D02*
X55448200Y-147420190D01*
X55448200Y-147420190D02*
X45237400Y-157630989D01*
X45237400Y-157630989D02*
X45237400Y-165430201D01*
X85709893Y-172313380D02*
X86109892Y-172713379D01*
X47172134Y-167364935D02*
X81091476Y-167364935D01*
X45694600Y-122863600D02*
X45694600Y-130454399D01*
X81091476Y-167364935D02*
X85709893Y-171983352D01*
X45244589Y-130640799D02*
X55448200Y-140844410D01*
X85709893Y-171983352D02*
X85709893Y-172313380D01*
X45244589Y-123872389D02*
X45244589Y-130640799D01*
X45237400Y-165430201D02*
X47172134Y-167364935D01*
X44065200Y-122693000D02*
X45244589Y-123872389D01*
X44065200Y-121793000D02*
X44065200Y-122693000D01*
X45694600Y-130454399D02*
X55898211Y-140658010D01*
X87135284Y-172665767D02*
X88264736Y-172665767D01*
X46765200Y-121793000D02*
X45694600Y-122863600D01*
X55898211Y-140658010D02*
X55898211Y-147606590D01*
X87349678Y-170378999D02*
X87749677Y-170778998D01*
X84360589Y-167389910D02*
X87349678Y-170378999D01*
X84360589Y-157471400D02*
X84360589Y-167389910D01*
X93878400Y-147953590D02*
X84360589Y-157471400D01*
X84251800Y-131445001D02*
X93878400Y-141071600D01*
X93878400Y-141071600D02*
X93878400Y-147953590D01*
X93853000Y-107126600D02*
X93853000Y-113995200D01*
X92680800Y-105054400D02*
X92680800Y-105954400D01*
X84251800Y-123596400D02*
X84251800Y-131445001D01*
X93853000Y-113995200D02*
X84251800Y-123596400D01*
X92680800Y-105954400D02*
X93853000Y-107126600D01*
X88757011Y-170197458D02*
X88757011Y-170763143D01*
X87918840Y-169976800D02*
X88536353Y-169976800D01*
X84810600Y-166868560D02*
X87918840Y-169976800D01*
X84810600Y-157657800D02*
X84810600Y-166868560D01*
X94328411Y-148139990D02*
X84810600Y-157657800D01*
X94361000Y-106074200D02*
X94361000Y-114173000D01*
X88536353Y-169976800D02*
X88757011Y-170197458D01*
X95380800Y-105054400D02*
X94361000Y-106074200D01*
X94361000Y-114173000D02*
X84701811Y-123832189D01*
X84701811Y-123832189D02*
X84701811Y-131258601D01*
X84701811Y-131258601D02*
X94328411Y-140885200D01*
X94328411Y-140885200D02*
X94328411Y-148139990D01*
X100535383Y-172492325D02*
X100135384Y-172892324D01*
X113436400Y-140868400D02*
X113436400Y-147802600D01*
X103733600Y-131165600D02*
X113436400Y-140868400D01*
X113436400Y-147802600D02*
X103784400Y-157454600D01*
X103733600Y-89208600D02*
X103733600Y-97054810D01*
X102739200Y-88214200D02*
X103733600Y-89208600D01*
X103784400Y-157454600D02*
X103784400Y-169243308D01*
X103733600Y-97054810D02*
X113436400Y-106757610D01*
X113436400Y-106757610D02*
X113436400Y-113919000D01*
X113436400Y-113919000D02*
X103733600Y-123621800D01*
X103784400Y-169243308D02*
X100535383Y-172492325D01*
X103733600Y-123621800D02*
X103733600Y-131165600D01*
X131084628Y-169229178D02*
X133833661Y-171978211D01*
X123665411Y-164381611D02*
X128512978Y-169229178D01*
X123665411Y-158020589D02*
X123665411Y-164381611D01*
X128512978Y-169229178D02*
X131084628Y-169229178D01*
X133368211Y-140531010D02*
X133368211Y-148317790D01*
X123665411Y-130828211D02*
X133368211Y-140531010D01*
X133833661Y-171978211D02*
X134233660Y-172378210D01*
X123665411Y-123884400D02*
X123665411Y-130828211D01*
X133368211Y-148317790D02*
X123665411Y-158020589D01*
X133342811Y-114207000D02*
X123665411Y-123884400D01*
X133400800Y-72444600D02*
X133400800Y-80290810D01*
X133400800Y-80290810D02*
X123698000Y-89993610D01*
X123698000Y-89993610D02*
X123698000Y-96977200D01*
X123698000Y-96977200D02*
X133342811Y-106622011D01*
X134547600Y-71297800D02*
X133400800Y-72444600D01*
X133342811Y-106622011D02*
X133342811Y-114207000D01*
X172662799Y-173564601D02*
X172262800Y-173964600D01*
X177549253Y-169164979D02*
X173149631Y-173564601D01*
X217068832Y-169164979D02*
X177549253Y-169164979D01*
X221252211Y-164981600D02*
X217068832Y-169164979D01*
X221252211Y-157791989D02*
X221252211Y-164981600D01*
X173149631Y-173564601D02*
X172662799Y-173564601D01*
X230980411Y-148063790D02*
X221252211Y-157791989D01*
X222203000Y-20497800D02*
X221310200Y-21390600D01*
X230726411Y-46719200D02*
X221234000Y-56211610D01*
X230726411Y-39183600D02*
X230726411Y-46719200D01*
X221310200Y-29767389D02*
X230726411Y-39183600D01*
X221310200Y-21390600D02*
X221310200Y-29767389D01*
X221201411Y-130777411D02*
X230980411Y-140556411D01*
X221234000Y-63525400D02*
X230904211Y-73195611D01*
X230904211Y-80550590D02*
X221132400Y-90322400D01*
X230980411Y-140556411D02*
X230980411Y-148063790D01*
X221234000Y-56211610D02*
X221234000Y-63525400D01*
X230904211Y-73195611D02*
X230904211Y-80550590D01*
X221132400Y-90322400D02*
X221132400Y-97104200D01*
X221201411Y-124111589D02*
X221201411Y-130777411D01*
X221132400Y-97104200D02*
X230911400Y-106883200D01*
X230911400Y-106883200D02*
X230911400Y-114401601D01*
X230911400Y-114401601D02*
X221201411Y-124111589D01*
D30*
G36*
X81093512Y-171612515D02*
G01*
X81093513Y-172780123D01*
X81093513Y-172978101D01*
X81099729Y-173017347D01*
X81112030Y-173055206D01*
X81118257Y-173094521D01*
X81130537Y-173132313D01*
X81148605Y-173167772D01*
X81160907Y-173205636D01*
X81178947Y-173241041D01*
X81202347Y-173273248D01*
X81220417Y-173308713D01*
X81243772Y-173340860D01*
X81278986Y-173376074D01*
X81278989Y-173376078D01*
X84336822Y-176433912D01*
X84336830Y-176433919D01*
X84372041Y-176469130D01*
X84404187Y-176492485D01*
X84439655Y-176510557D01*
X84471860Y-176533955D01*
X84507264Y-176551994D01*
X84545122Y-176564294D01*
X84580589Y-176582366D01*
X84618379Y-176594644D01*
X84657696Y-176600871D01*
X84695554Y-176613172D01*
X84734799Y-176619388D01*
X84784593Y-176619388D01*
X84784605Y-176619389D01*
X93836287Y-176619389D01*
X93836287Y-176918400D01*
X93840614Y-176951270D01*
X93854596Y-177003451D01*
X93838216Y-177096347D01*
X93836287Y-177118400D01*
X93836287Y-177568400D01*
X93840614Y-177601270D01*
X93854596Y-177653451D01*
X93851893Y-177668778D01*
X93755887Y-177613349D01*
X93725257Y-177600661D01*
X93496357Y-177539327D01*
X93463487Y-177535000D01*
X93226513Y-177535000D01*
X93193643Y-177539327D01*
X92964743Y-177600661D01*
X92934113Y-177613349D01*
X92728887Y-177731836D01*
X92702584Y-177752018D01*
X92535018Y-177919584D01*
X92514836Y-177945887D01*
X92396349Y-178151113D01*
X92383661Y-178181743D01*
X92322327Y-178410643D01*
X92318000Y-178443513D01*
X92318000Y-178680487D01*
X92322327Y-178713357D01*
X92383661Y-178942257D01*
X92396349Y-178972887D01*
X92419622Y-179013197D01*
X92340879Y-179149585D01*
X92328191Y-179180215D01*
X92266857Y-179409115D01*
X92262530Y-179441985D01*
X92262530Y-179678959D01*
X92266857Y-179711829D01*
X92328191Y-179940729D01*
X92340879Y-179971359D01*
X92426010Y-180118810D01*
X92409600Y-180147233D01*
X92396912Y-180177863D01*
X92335578Y-180406763D01*
X92331251Y-180439633D01*
X92331251Y-180672521D01*
X92164589Y-180839183D01*
X92144407Y-180865486D01*
X92025920Y-181070712D01*
X92013232Y-181101342D01*
X91951898Y-181330242D01*
X91947571Y-181363112D01*
X91947571Y-181600086D01*
X91951898Y-181632956D01*
X92013232Y-181861856D01*
X92025920Y-181892486D01*
X92144407Y-182097712D01*
X92164589Y-182124015D01*
X92175950Y-182135376D01*
X92146875Y-182125080D01*
X92126752Y-182119763D01*
X91883916Y-182076508D01*
X91863197Y-182074549D01*
X91616559Y-182071535D01*
X91595797Y-182072987D01*
X91351977Y-182110297D01*
X91331731Y-182115121D01*
X91097279Y-182191752D01*
X91078093Y-182199817D01*
X90859305Y-182313711D01*
X90841694Y-182324801D01*
X90644445Y-182472899D01*
X90628881Y-182486717D01*
X90458470Y-182665044D01*
X90448885Y-182676881D01*
X90300435Y-182513737D01*
X90285214Y-182499543D01*
X90091643Y-182346670D01*
X90074308Y-182335153D01*
X89858368Y-182215948D01*
X89839385Y-182207417D01*
X89606875Y-182125080D01*
X89586752Y-182119763D01*
X89343916Y-182076508D01*
X89323197Y-182074549D01*
X89076559Y-182071535D01*
X89055797Y-182072987D01*
X88811977Y-182110297D01*
X88791731Y-182115121D01*
X88557279Y-182191752D01*
X88538093Y-182199817D01*
X88319305Y-182313711D01*
X88301694Y-182324801D01*
X88104445Y-182472899D01*
X88088881Y-182486717D01*
X87918470Y-182665044D01*
X87908885Y-182676881D01*
X87760435Y-182513737D01*
X87745214Y-182499543D01*
X87551643Y-182346670D01*
X87534308Y-182335153D01*
X87318368Y-182215948D01*
X87299385Y-182207417D01*
X87066875Y-182125080D01*
X87046752Y-182119763D01*
X86803916Y-182076508D01*
X86783197Y-182074549D01*
X86536559Y-182071535D01*
X86515797Y-182072987D01*
X86271977Y-182110297D01*
X86251731Y-182115121D01*
X86017279Y-182191752D01*
X85998093Y-182199817D01*
X85779305Y-182313711D01*
X85761694Y-182324801D01*
X85663743Y-182398344D01*
X85644016Y-182360448D01*
X85528862Y-182223212D01*
X85495074Y-182194861D01*
X85339927Y-182105287D01*
X85298480Y-182090201D01*
X85122053Y-182059092D01*
X85100000Y-182057163D01*
X84354000Y-182057163D01*
X84285339Y-182077324D01*
X84238477Y-182131405D01*
X84227000Y-182184163D01*
X84227000Y-185815837D01*
X84247161Y-185884498D01*
X84301242Y-185931360D01*
X84354000Y-185942837D01*
X85100000Y-185942837D01*
X85132870Y-185938510D01*
X85390789Y-185869401D01*
X85439553Y-185844016D01*
X85576788Y-185728862D01*
X85605139Y-185695074D01*
X85660280Y-185599566D01*
X85728357Y-185653330D01*
X85745692Y-185664847D01*
X85888000Y-185743405D01*
X85888000Y-185901583D01*
X85888001Y-185901595D01*
X85888001Y-185951389D01*
X85894217Y-185990634D01*
X85906518Y-186028492D01*
X85912745Y-186067809D01*
X85925023Y-186105599D01*
X85943095Y-186141066D01*
X85955395Y-186178924D01*
X85973434Y-186214328D01*
X85996832Y-186246533D01*
X86014904Y-186282001D01*
X86038259Y-186314147D01*
X86073477Y-186349365D01*
X86726633Y-187002522D01*
X86761852Y-187037741D01*
X86793998Y-187061096D01*
X86829466Y-187079168D01*
X86861671Y-187102566D01*
X86897073Y-187120604D01*
X86934931Y-187132905D01*
X86970402Y-187150978D01*
X87008189Y-187163255D01*
X87047501Y-187169482D01*
X87085365Y-187181784D01*
X87124609Y-187187999D01*
X87174404Y-187187999D01*
X87174416Y-187188000D01*
X92174984Y-187188000D01*
X92174996Y-187187999D01*
X92224789Y-187187999D01*
X92264035Y-187181783D01*
X92301887Y-187169484D01*
X92341210Y-187163256D01*
X92379000Y-187150977D01*
X92414469Y-187132904D01*
X92452324Y-187120605D01*
X92487729Y-187102565D01*
X92519932Y-187079168D01*
X92555401Y-187061096D01*
X92587548Y-187037741D01*
X93316289Y-186309000D01*
X95828163Y-186309000D01*
X95828163Y-186505000D01*
X95832490Y-186537870D01*
X95901599Y-186795789D01*
X95926984Y-186844553D01*
X96042138Y-186981788D01*
X96075926Y-187010139D01*
X96231073Y-187099713D01*
X96272520Y-187114799D01*
X96448947Y-187145908D01*
X96471000Y-187147837D01*
X96817000Y-187147837D01*
X96885661Y-187127676D01*
X96932523Y-187073595D01*
X96944000Y-187020837D01*
X96944000Y-186309000D01*
X96923839Y-186240339D01*
X96869758Y-186193477D01*
X96817000Y-186182000D01*
X95955163Y-186182000D01*
X95886502Y-186202161D01*
X95839640Y-186256242D01*
X95828163Y-186309000D01*
X93316289Y-186309000D01*
X94781800Y-184843489D01*
X94781800Y-185005087D01*
X94786127Y-185037957D01*
X94847461Y-185266857D01*
X94860149Y-185297487D01*
X94978636Y-185502713D01*
X94998818Y-185529016D01*
X95166384Y-185696582D01*
X95192687Y-185716764D01*
X95397913Y-185835251D01*
X95428543Y-185847939D01*
X95657443Y-185909273D01*
X95690313Y-185913600D01*
X95899032Y-185913600D01*
X95902405Y-185916523D01*
X95955163Y-185928000D01*
X97198000Y-185928000D01*
X97198000Y-187020837D01*
X97218161Y-187089498D01*
X97272242Y-187136360D01*
X97325000Y-187147837D01*
X97671000Y-187147837D01*
X97703870Y-187143510D01*
X97961789Y-187074401D01*
X98010553Y-187049016D01*
X98147788Y-186933862D01*
X98176139Y-186900074D01*
X98179350Y-186894513D01*
X98247360Y-186975565D01*
X98281148Y-187003916D01*
X98433852Y-187092079D01*
X98475299Y-187107165D01*
X98648947Y-187137784D01*
X98671000Y-187139713D01*
X99871000Y-187139713D01*
X99903870Y-187135386D01*
X100157727Y-187067365D01*
X100206491Y-187041980D01*
X100341565Y-186928640D01*
X100369916Y-186894852D01*
X100458079Y-186742148D01*
X100473165Y-186700701D01*
X100503784Y-186527053D01*
X100505713Y-186505000D01*
X100505713Y-185605000D01*
X100501386Y-185572130D01*
X100433365Y-185318274D01*
X100408787Y-185271062D01*
X100475479Y-185155548D01*
X100490565Y-185114101D01*
X100521184Y-184940453D01*
X100522595Y-184924316D01*
X100580599Y-185140789D01*
X100605984Y-185189553D01*
X100721138Y-185326788D01*
X100754926Y-185355139D01*
X100910073Y-185444713D01*
X100951520Y-185459799D01*
X101127947Y-185490908D01*
X101150000Y-185492837D01*
X101746000Y-185492837D01*
X101814661Y-185472676D01*
X101861523Y-185418595D01*
X101873000Y-185365837D01*
X101873000Y-184254000D01*
X101852839Y-184185339D01*
X101798758Y-184138477D01*
X101746000Y-184127000D01*
X100634163Y-184127000D01*
X100565502Y-184147161D01*
X100523113Y-184196080D01*
X100523113Y-184168400D01*
X100518786Y-184135530D01*
X100450765Y-183881674D01*
X100427957Y-183837860D01*
X100475479Y-183755548D01*
X100490565Y-183714101D01*
X100507163Y-183619970D01*
X100507163Y-183746000D01*
X100527324Y-183814661D01*
X100581405Y-183861523D01*
X100634163Y-183873000D01*
X101746000Y-183873000D01*
X101814661Y-183852839D01*
X101861523Y-183798758D01*
X101873000Y-183746000D01*
X101873000Y-182634163D01*
X101852839Y-182565502D01*
X101798758Y-182518640D01*
X101746000Y-182507163D01*
X101150000Y-182507163D01*
X101117130Y-182511490D01*
X100859212Y-182580599D01*
X100810448Y-182605984D01*
X100673212Y-182721138D01*
X100644861Y-182754926D01*
X100555287Y-182910073D01*
X100540201Y-182951520D01*
X100523113Y-183048430D01*
X100523113Y-182768400D01*
X100518786Y-182735530D01*
X100450765Y-182481674D01*
X100425380Y-182432911D01*
X100312040Y-182297836D01*
X100278252Y-182269484D01*
X100202272Y-182225617D01*
X100330039Y-182097850D01*
X100348947Y-182101184D01*
X100371000Y-182103113D01*
X101871000Y-182103113D01*
X101903870Y-182098786D01*
X102157727Y-182030765D01*
X102206491Y-182005380D01*
X102300560Y-181926447D01*
X102885591Y-182511479D01*
X102872053Y-182509092D01*
X102850000Y-182507163D01*
X102254000Y-182507163D01*
X102185339Y-182527324D01*
X102138477Y-182581405D01*
X102127000Y-182634163D01*
X102127000Y-185365837D01*
X102147161Y-185434498D01*
X102201242Y-185481360D01*
X102254000Y-185492837D01*
X102850000Y-185492837D01*
X102882870Y-185488510D01*
X103140789Y-185419401D01*
X103189553Y-185394016D01*
X103326788Y-185278862D01*
X103355139Y-185245074D01*
X103444713Y-185089927D01*
X103459799Y-185048480D01*
X103465778Y-185014571D01*
X103579120Y-185127913D01*
X103596079Y-185142142D01*
X103789578Y-185277632D01*
X103808750Y-185288701D01*
X104022837Y-185388531D01*
X104043639Y-185396103D01*
X104271810Y-185457241D01*
X104293611Y-185461085D01*
X104469998Y-185476517D01*
X104481067Y-185477000D01*
X104598933Y-185477000D01*
X104610002Y-185476517D01*
X104786389Y-185461085D01*
X104808190Y-185457241D01*
X105036361Y-185396103D01*
X105057163Y-185388531D01*
X105271250Y-185288701D01*
X105290422Y-185277632D01*
X105483921Y-185142142D01*
X105500880Y-185127913D01*
X105667913Y-184960880D01*
X105682142Y-184943921D01*
X105810000Y-184761322D01*
X105937858Y-184943921D01*
X105952087Y-184960880D01*
X106119120Y-185127913D01*
X106136079Y-185142142D01*
X106329578Y-185277632D01*
X106348750Y-185288701D01*
X106562837Y-185388531D01*
X106583639Y-185396103D01*
X106811810Y-185457241D01*
X106833611Y-185461085D01*
X107009998Y-185476517D01*
X107021067Y-185477000D01*
X107138933Y-185477000D01*
X107150002Y-185476517D01*
X107326389Y-185461085D01*
X107348190Y-185457241D01*
X107576361Y-185396103D01*
X107597163Y-185388531D01*
X107811250Y-185288701D01*
X107830422Y-185277632D01*
X108023921Y-185142142D01*
X108040880Y-185127913D01*
X108207913Y-184960880D01*
X108222142Y-184943921D01*
X108350000Y-184761322D01*
X108477858Y-184943921D01*
X108492087Y-184960880D01*
X108659120Y-185127913D01*
X108676079Y-185142142D01*
X108869578Y-185277632D01*
X108888750Y-185288701D01*
X109102837Y-185388531D01*
X109123639Y-185396103D01*
X109351810Y-185457241D01*
X109373611Y-185461085D01*
X109549998Y-185476517D01*
X109561067Y-185477000D01*
X109678933Y-185477000D01*
X109690002Y-185476517D01*
X109866389Y-185461085D01*
X109888190Y-185457241D01*
X110116361Y-185396103D01*
X110137163Y-185388531D01*
X110140446Y-185387000D01*
X111301363Y-185387000D01*
X111301363Y-185583000D01*
X111305690Y-185615870D01*
X111374799Y-185873789D01*
X111400184Y-185922553D01*
X111515338Y-186059788D01*
X111549126Y-186088139D01*
X111704273Y-186177713D01*
X111745720Y-186192799D01*
X111922147Y-186223908D01*
X111944200Y-186225837D01*
X112290200Y-186225837D01*
X112358861Y-186205676D01*
X112405723Y-186151595D01*
X112417200Y-186098837D01*
X112417200Y-185387000D01*
X112397039Y-185318339D01*
X112342958Y-185271477D01*
X112290200Y-185260000D01*
X111428363Y-185260000D01*
X111359702Y-185280161D01*
X111312840Y-185334242D01*
X111301363Y-185387000D01*
X110140446Y-185387000D01*
X110351250Y-185288701D01*
X110370422Y-185277632D01*
X110563921Y-185142142D01*
X110580880Y-185127913D01*
X110747913Y-184960880D01*
X110762142Y-184943921D01*
X110897632Y-184750422D01*
X110908701Y-184731250D01*
X111008531Y-184517163D01*
X111016103Y-184496361D01*
X111077241Y-184268190D01*
X111081085Y-184246389D01*
X111101673Y-184011069D01*
X111101673Y-183988931D01*
X111084007Y-183787000D01*
X111301363Y-183787000D01*
X111301363Y-183983000D01*
X111305690Y-184015870D01*
X111374799Y-184273789D01*
X111400184Y-184322553D01*
X111411371Y-184335886D01*
X111349487Y-184443073D01*
X111334401Y-184484520D01*
X111303292Y-184660947D01*
X111301363Y-184683000D01*
X111301363Y-184879000D01*
X111321524Y-184947661D01*
X111375605Y-184994523D01*
X111428363Y-185006000D01*
X112290200Y-185006000D01*
X112358861Y-184985839D01*
X112405723Y-184931758D01*
X112417200Y-184879000D01*
X112417200Y-183787000D01*
X112397039Y-183718339D01*
X112342958Y-183671477D01*
X112290200Y-183660000D01*
X111428363Y-183660000D01*
X111359702Y-183680161D01*
X111312840Y-183734242D01*
X111301363Y-183787000D01*
X111084007Y-183787000D01*
X111081085Y-183753611D01*
X111077241Y-183731810D01*
X111016103Y-183503639D01*
X111008531Y-183482837D01*
X110908701Y-183268750D01*
X110897632Y-183249578D01*
X110762142Y-183056079D01*
X110747913Y-183039120D01*
X110580880Y-182872087D01*
X110563921Y-182857858D01*
X110370422Y-182722368D01*
X110351250Y-182711299D01*
X110137163Y-182611469D01*
X110116361Y-182603897D01*
X109888190Y-182542759D01*
X109866389Y-182538915D01*
X109690002Y-182523483D01*
X109678933Y-182523000D01*
X109561067Y-182523000D01*
X109549998Y-182523483D01*
X109373611Y-182538915D01*
X109351810Y-182542759D01*
X109123639Y-182603897D01*
X109102837Y-182611469D01*
X108888750Y-182711299D01*
X108869578Y-182722368D01*
X108676079Y-182857858D01*
X108659120Y-182872087D01*
X108492087Y-183039120D01*
X108477858Y-183056079D01*
X108350000Y-183238678D01*
X108222142Y-183056079D01*
X108207913Y-183039120D01*
X108040880Y-182872087D01*
X108023921Y-182857858D01*
X107830422Y-182722368D01*
X107811250Y-182711299D01*
X107597163Y-182611469D01*
X107576361Y-182603897D01*
X107348190Y-182542759D01*
X107326389Y-182538915D01*
X107150002Y-182523483D01*
X107138933Y-182523000D01*
X107021067Y-182523000D01*
X107009998Y-182523483D01*
X106833611Y-182538915D01*
X106811810Y-182542759D01*
X106712781Y-182569294D01*
X106401965Y-182258477D01*
X106366747Y-182223259D01*
X106334600Y-182199903D01*
X106309276Y-182187000D01*
X111301363Y-182187000D01*
X111301363Y-182383000D01*
X111305690Y-182415870D01*
X111374799Y-182673789D01*
X111400184Y-182722553D01*
X111411371Y-182735886D01*
X111349487Y-182843073D01*
X111334401Y-182884520D01*
X111303292Y-183060947D01*
X111301363Y-183083000D01*
X111301363Y-183279000D01*
X111321524Y-183347661D01*
X111375605Y-183394523D01*
X111428363Y-183406000D01*
X112290200Y-183406000D01*
X112358861Y-183385839D01*
X112405723Y-183331758D01*
X112417200Y-183279000D01*
X112417200Y-182187000D01*
X112397039Y-182118339D01*
X112342958Y-182071477D01*
X112290200Y-182060000D01*
X111428363Y-182060000D01*
X111359702Y-182080161D01*
X111312840Y-182134242D01*
X111301363Y-182187000D01*
X106309276Y-182187000D01*
X106299131Y-182181831D01*
X106266928Y-182158434D01*
X106231523Y-182140394D01*
X106193668Y-182128095D01*
X106158199Y-182110022D01*
X106120409Y-182097743D01*
X106081086Y-182091515D01*
X106043234Y-182079216D01*
X106003988Y-182073000D01*
X105954195Y-182073000D01*
X105954183Y-182072999D01*
X105210501Y-182072999D01*
X104914978Y-181777476D01*
X105033189Y-181745801D01*
X105081953Y-181720416D01*
X105209035Y-181613782D01*
X105368547Y-181641908D01*
X105390600Y-181643837D01*
X105511600Y-181643837D01*
X105580261Y-181623676D01*
X105627123Y-181569595D01*
X105638600Y-181516837D01*
X105638600Y-180655000D01*
X105892600Y-180655000D01*
X105892600Y-181516837D01*
X105912761Y-181585498D01*
X105966842Y-181632360D01*
X106019600Y-181643837D01*
X106140600Y-181643837D01*
X106173470Y-181639510D01*
X106431389Y-181570401D01*
X106469484Y-181550570D01*
X106547673Y-181595713D01*
X106589120Y-181610799D01*
X106765547Y-181641908D01*
X106787600Y-181643837D01*
X106908600Y-181643837D01*
X106977261Y-181623676D01*
X107024123Y-181569595D01*
X107035600Y-181516837D01*
X107035600Y-180655000D01*
X107289600Y-180655000D01*
X107289600Y-181516837D01*
X107309761Y-181585498D01*
X107363842Y-181632360D01*
X107416600Y-181643837D01*
X107537600Y-181643837D01*
X107570470Y-181639510D01*
X107828389Y-181570401D01*
X107877153Y-181545016D01*
X108014388Y-181429862D01*
X108042739Y-181396074D01*
X108132313Y-181240927D01*
X108147399Y-181199480D01*
X108178508Y-181023053D01*
X108180437Y-181001000D01*
X108180437Y-180655000D01*
X108160471Y-180587000D01*
X111301363Y-180587000D01*
X111301363Y-180783000D01*
X111305690Y-180815870D01*
X111374799Y-181073789D01*
X111400184Y-181122553D01*
X111411371Y-181135886D01*
X111349487Y-181243073D01*
X111334401Y-181284520D01*
X111303292Y-181460947D01*
X111301363Y-181483000D01*
X111301363Y-181679000D01*
X111321524Y-181747661D01*
X111375605Y-181794523D01*
X111428363Y-181806000D01*
X112290200Y-181806000D01*
X112358861Y-181785839D01*
X112405723Y-181731758D01*
X112417200Y-181679000D01*
X112417200Y-180587000D01*
X112397039Y-180518339D01*
X112342958Y-180471477D01*
X112290200Y-180460000D01*
X111428363Y-180460000D01*
X111359702Y-180480161D01*
X111312840Y-180534242D01*
X111301363Y-180587000D01*
X108160471Y-180587000D01*
X108160276Y-180586339D01*
X108106195Y-180539477D01*
X108053437Y-180528000D01*
X107416600Y-180528000D01*
X107347939Y-180548161D01*
X107301077Y-180602242D01*
X107289600Y-180655000D01*
X107035600Y-180655000D01*
X107015439Y-180586339D01*
X106961358Y-180539477D01*
X106908600Y-180528000D01*
X106019600Y-180528000D01*
X105950939Y-180548161D01*
X105904077Y-180602242D01*
X105892600Y-180655000D01*
X105638600Y-180655000D01*
X105618439Y-180586339D01*
X105564358Y-180539477D01*
X105511600Y-180528000D01*
X105290400Y-180528000D01*
X105221739Y-180548161D01*
X105174877Y-180602242D01*
X105163400Y-180655000D01*
X105163400Y-180703400D01*
X104165400Y-180703400D01*
X104165400Y-180449400D01*
X104842600Y-180449400D01*
X104911261Y-180429239D01*
X104958123Y-180375158D01*
X104969600Y-180322400D01*
X104969600Y-180274000D01*
X108053437Y-180274000D01*
X108122098Y-180253839D01*
X108168960Y-180199758D01*
X108180437Y-180147000D01*
X108180437Y-179801000D01*
X108176110Y-179768130D01*
X108107001Y-179510212D01*
X108081616Y-179461448D01*
X108064956Y-179441593D01*
X108124679Y-179338148D01*
X108139765Y-179296701D01*
X108170384Y-179123053D01*
X108172313Y-179101000D01*
X108172313Y-178987000D01*
X111301363Y-178987000D01*
X111301363Y-179183000D01*
X111305690Y-179215870D01*
X111374799Y-179473789D01*
X111400184Y-179522553D01*
X111411371Y-179535886D01*
X111349487Y-179643073D01*
X111334401Y-179684520D01*
X111303292Y-179860947D01*
X111301363Y-179883000D01*
X111301363Y-180079000D01*
X111321524Y-180147661D01*
X111375605Y-180194523D01*
X111428363Y-180206000D01*
X112290200Y-180206000D01*
X112358861Y-180185839D01*
X112405723Y-180131758D01*
X112417200Y-180079000D01*
X112417200Y-178987000D01*
X112397039Y-178918339D01*
X112342958Y-178871477D01*
X112290200Y-178860000D01*
X111428363Y-178860000D01*
X111359702Y-178880161D01*
X111312840Y-178934242D01*
X111301363Y-178987000D01*
X108172313Y-178987000D01*
X108172313Y-177901000D01*
X108167986Y-177868130D01*
X108099965Y-177614274D01*
X108074580Y-177565510D01*
X108056416Y-177543863D01*
X108111251Y-177448887D01*
X108123939Y-177418257D01*
X108132314Y-177387000D01*
X111301363Y-177387000D01*
X111301363Y-177583000D01*
X111305690Y-177615870D01*
X111374799Y-177873789D01*
X111400184Y-177922553D01*
X111411371Y-177935886D01*
X111349487Y-178043073D01*
X111334401Y-178084520D01*
X111303292Y-178260947D01*
X111301363Y-178283000D01*
X111301363Y-178479000D01*
X111321524Y-178547661D01*
X111375605Y-178594523D01*
X111428363Y-178606000D01*
X112290200Y-178606000D01*
X112358861Y-178585839D01*
X112405723Y-178531758D01*
X112417200Y-178479000D01*
X112417200Y-177387000D01*
X112397039Y-177318339D01*
X112342958Y-177271477D01*
X112290200Y-177260000D01*
X111428363Y-177260000D01*
X111359702Y-177280161D01*
X111312840Y-177334242D01*
X111301363Y-177387000D01*
X108132314Y-177387000D01*
X108185273Y-177189357D01*
X108189600Y-177156487D01*
X108189600Y-176919513D01*
X108185273Y-176886643D01*
X108123939Y-176657743D01*
X108111251Y-176627113D01*
X108021467Y-176471603D01*
X108024871Y-176469130D01*
X108164864Y-176329137D01*
X108707001Y-175787000D01*
X111301363Y-175787000D01*
X111301363Y-175983000D01*
X111305690Y-176015870D01*
X111374799Y-176273789D01*
X111400184Y-176322553D01*
X111411371Y-176335886D01*
X111349487Y-176443073D01*
X111334401Y-176484520D01*
X111303292Y-176660947D01*
X111301363Y-176683000D01*
X111301363Y-176879000D01*
X111321524Y-176947661D01*
X111375605Y-176994523D01*
X111428363Y-177006000D01*
X112290200Y-177006000D01*
X112358861Y-176985839D01*
X112405723Y-176931758D01*
X112417200Y-176879000D01*
X112417200Y-175787000D01*
X112397039Y-175718339D01*
X112342958Y-175671477D01*
X112290200Y-175660000D01*
X111428363Y-175660000D01*
X111359702Y-175680161D01*
X111312840Y-175734242D01*
X111301363Y-175787000D01*
X108707001Y-175787000D01*
X110307001Y-174187000D01*
X111301363Y-174187000D01*
X111301363Y-174383000D01*
X111305690Y-174415870D01*
X111374799Y-174673789D01*
X111400184Y-174722553D01*
X111411371Y-174735886D01*
X111349487Y-174843073D01*
X111334401Y-174884520D01*
X111303292Y-175060947D01*
X111301363Y-175083000D01*
X111301363Y-175279000D01*
X111321524Y-175347661D01*
X111375605Y-175394523D01*
X111428363Y-175406000D01*
X112290200Y-175406000D01*
X112358861Y-175385839D01*
X112405723Y-175331758D01*
X112417200Y-175279000D01*
X112417200Y-174187000D01*
X112397039Y-174118339D01*
X112342958Y-174071477D01*
X112290200Y-174060000D01*
X111428363Y-174060000D01*
X111359702Y-174080161D01*
X111312840Y-174134242D01*
X111301363Y-174187000D01*
X110307001Y-174187000D01*
X110912736Y-173581266D01*
X111301363Y-173581266D01*
X111301363Y-173679000D01*
X111321524Y-173747661D01*
X111375605Y-173794523D01*
X111428363Y-173806000D01*
X112671200Y-173806000D01*
X112671200Y-186098837D01*
X112691361Y-186167498D01*
X112745442Y-186214360D01*
X112798200Y-186225837D01*
X113144200Y-186225837D01*
X113177070Y-186221510D01*
X113434989Y-186152401D01*
X113483753Y-186127016D01*
X113620988Y-186011862D01*
X113649339Y-185978074D01*
X113652550Y-185972513D01*
X113720560Y-186053565D01*
X113754348Y-186081916D01*
X113907052Y-186170079D01*
X113948499Y-186185165D01*
X114122147Y-186215784D01*
X114144200Y-186217713D01*
X115344200Y-186217713D01*
X115377070Y-186213386D01*
X115630927Y-186145365D01*
X115679691Y-186119980D01*
X115769049Y-186045000D01*
X117511202Y-186045000D01*
X117569184Y-186102982D01*
X117595487Y-186123164D01*
X117800713Y-186241651D01*
X117831343Y-186254339D01*
X118060243Y-186315673D01*
X118093113Y-186320000D01*
X118330087Y-186320000D01*
X118362957Y-186315673D01*
X118591857Y-186254339D01*
X118622487Y-186241651D01*
X118827713Y-186123164D01*
X118854016Y-186102982D01*
X118911998Y-186045000D01*
X119369312Y-186045000D01*
X119456052Y-186095079D01*
X119497499Y-186110165D01*
X119671147Y-186140784D01*
X119693200Y-186142713D01*
X120774361Y-186142713D01*
X120770360Y-186157643D01*
X120766032Y-186190513D01*
X120766032Y-186427487D01*
X120770359Y-186460357D01*
X120831693Y-186689257D01*
X120844381Y-186719887D01*
X120962868Y-186925113D01*
X120983050Y-186951416D01*
X121150616Y-187118982D01*
X121176919Y-187139164D01*
X121382145Y-187257651D01*
X121412775Y-187270339D01*
X121641675Y-187331673D01*
X121674545Y-187336000D01*
X121911519Y-187336000D01*
X121944389Y-187331673D01*
X122173289Y-187270339D01*
X122203919Y-187257651D01*
X122212116Y-187252918D01*
X122220313Y-187257651D01*
X122250943Y-187270339D01*
X122479843Y-187331673D01*
X122512713Y-187336000D01*
X122749687Y-187336000D01*
X122782557Y-187331673D01*
X123011457Y-187270339D01*
X123042087Y-187257651D01*
X123247313Y-187139164D01*
X123273616Y-187118982D01*
X123441182Y-186951416D01*
X123461364Y-186925113D01*
X123571142Y-186734972D01*
X123571071Y-187373000D01*
X80627000Y-187373000D01*
X80627000Y-184254000D01*
X82457163Y-184254000D01*
X82457163Y-185300000D01*
X82461490Y-185332870D01*
X82530599Y-185590789D01*
X82555984Y-185639553D01*
X82671138Y-185776788D01*
X82704926Y-185805139D01*
X82860073Y-185894713D01*
X82901520Y-185909799D01*
X83077947Y-185940908D01*
X83100000Y-185942837D01*
X83846000Y-185942837D01*
X83914661Y-185922676D01*
X83961523Y-185868595D01*
X83973000Y-185815837D01*
X83973000Y-184254000D01*
X83952839Y-184185339D01*
X83898758Y-184138477D01*
X83846000Y-184127000D01*
X82584163Y-184127000D01*
X82515502Y-184147161D01*
X82468640Y-184201242D01*
X82457163Y-184254000D01*
X80627000Y-184254000D01*
X80627000Y-182700000D01*
X82457163Y-182700000D01*
X82457163Y-183746000D01*
X82477324Y-183814661D01*
X82531405Y-183861523D01*
X82584163Y-183873000D01*
X83846000Y-183873000D01*
X83914661Y-183852839D01*
X83961523Y-183798758D01*
X83973000Y-183746000D01*
X83973000Y-182184163D01*
X83952839Y-182115502D01*
X83898758Y-182068640D01*
X83846000Y-182057163D01*
X83100000Y-182057163D01*
X83067130Y-182061490D01*
X82809212Y-182130599D01*
X82760448Y-182155984D01*
X82623212Y-182271138D01*
X82594861Y-182304926D01*
X82505287Y-182460073D01*
X82490201Y-182501520D01*
X82459092Y-182677947D01*
X82457163Y-182700000D01*
X80627000Y-182700000D01*
X80627000Y-171146002D01*
X81093512Y-171612515D01*
X81093512Y-171612515D01*
G37*
X81093512Y-171612515D02*
X81093513Y-172780123D01*
X81093513Y-172978101D01*
X81099729Y-173017347D01*
X81112030Y-173055206D01*
X81118257Y-173094521D01*
X81130537Y-173132313D01*
X81148605Y-173167772D01*
X81160907Y-173205636D01*
X81178947Y-173241041D01*
X81202347Y-173273248D01*
X81220417Y-173308713D01*
X81243772Y-173340860D01*
X81278986Y-173376074D01*
X81278989Y-173376078D01*
X84336822Y-176433912D01*
X84336830Y-176433919D01*
X84372041Y-176469130D01*
X84404187Y-176492485D01*
X84439655Y-176510557D01*
X84471860Y-176533955D01*
X84507264Y-176551994D01*
X84545122Y-176564294D01*
X84580589Y-176582366D01*
X84618379Y-176594644D01*
X84657696Y-176600871D01*
X84695554Y-176613172D01*
X84734799Y-176619388D01*
X84784593Y-176619388D01*
X84784605Y-176619389D01*
X93836287Y-176619389D01*
X93836287Y-176918400D01*
X93840614Y-176951270D01*
X93854596Y-177003451D01*
X93838216Y-177096347D01*
X93836287Y-177118400D01*
X93836287Y-177568400D01*
X93840614Y-177601270D01*
X93854596Y-177653451D01*
X93851893Y-177668778D01*
X93755887Y-177613349D01*
X93725257Y-177600661D01*
X93496357Y-177539327D01*
X93463487Y-177535000D01*
X93226513Y-177535000D01*
X93193643Y-177539327D01*
X92964743Y-177600661D01*
X92934113Y-177613349D01*
X92728887Y-177731836D01*
X92702584Y-177752018D01*
X92535018Y-177919584D01*
X92514836Y-177945887D01*
X92396349Y-178151113D01*
X92383661Y-178181743D01*
X92322327Y-178410643D01*
X92318000Y-178443513D01*
X92318000Y-178680487D01*
X92322327Y-178713357D01*
X92383661Y-178942257D01*
X92396349Y-178972887D01*
X92419622Y-179013197D01*
X92340879Y-179149585D01*
X92328191Y-179180215D01*
X92266857Y-179409115D01*
X92262530Y-179441985D01*
X92262530Y-179678959D01*
X92266857Y-179711829D01*
X92328191Y-179940729D01*
X92340879Y-179971359D01*
X92426010Y-180118810D01*
X92409600Y-180147233D01*
X92396912Y-180177863D01*
X92335578Y-180406763D01*
X92331251Y-180439633D01*
X92331251Y-180672521D01*
X92164589Y-180839183D01*
X92144407Y-180865486D01*
X92025920Y-181070712D01*
X92013232Y-181101342D01*
X91951898Y-181330242D01*
X91947571Y-181363112D01*
X91947571Y-181600086D01*
X91951898Y-181632956D01*
X92013232Y-181861856D01*
X92025920Y-181892486D01*
X92144407Y-182097712D01*
X92164589Y-182124015D01*
X92175950Y-182135376D01*
X92146875Y-182125080D01*
X92126752Y-182119763D01*
X91883916Y-182076508D01*
X91863197Y-182074549D01*
X91616559Y-182071535D01*
X91595797Y-182072987D01*
X91351977Y-182110297D01*
X91331731Y-182115121D01*
X91097279Y-182191752D01*
X91078093Y-182199817D01*
X90859305Y-182313711D01*
X90841694Y-182324801D01*
X90644445Y-182472899D01*
X90628881Y-182486717D01*
X90458470Y-182665044D01*
X90448885Y-182676881D01*
X90300435Y-182513737D01*
X90285214Y-182499543D01*
X90091643Y-182346670D01*
X90074308Y-182335153D01*
X89858368Y-182215948D01*
X89839385Y-182207417D01*
X89606875Y-182125080D01*
X89586752Y-182119763D01*
X89343916Y-182076508D01*
X89323197Y-182074549D01*
X89076559Y-182071535D01*
X89055797Y-182072987D01*
X88811977Y-182110297D01*
X88791731Y-182115121D01*
X88557279Y-182191752D01*
X88538093Y-182199817D01*
X88319305Y-182313711D01*
X88301694Y-182324801D01*
X88104445Y-182472899D01*
X88088881Y-182486717D01*
X87918470Y-182665044D01*
X87908885Y-182676881D01*
X87760435Y-182513737D01*
X87745214Y-182499543D01*
X87551643Y-182346670D01*
X87534308Y-182335153D01*
X87318368Y-182215948D01*
X87299385Y-182207417D01*
X87066875Y-182125080D01*
X87046752Y-182119763D01*
X86803916Y-182076508D01*
X86783197Y-182074549D01*
X86536559Y-182071535D01*
X86515797Y-182072987D01*
X86271977Y-182110297D01*
X86251731Y-182115121D01*
X86017279Y-182191752D01*
X85998093Y-182199817D01*
X85779305Y-182313711D01*
X85761694Y-182324801D01*
X85663743Y-182398344D01*
X85644016Y-182360448D01*
X85528862Y-182223212D01*
X85495074Y-182194861D01*
X85339927Y-182105287D01*
X85298480Y-182090201D01*
X85122053Y-182059092D01*
X85100000Y-182057163D01*
X84354000Y-182057163D01*
X84285339Y-182077324D01*
X84238477Y-182131405D01*
X84227000Y-182184163D01*
X84227000Y-185815837D01*
X84247161Y-185884498D01*
X84301242Y-185931360D01*
X84354000Y-185942837D01*
X85100000Y-185942837D01*
X85132870Y-185938510D01*
X85390789Y-185869401D01*
X85439553Y-185844016D01*
X85576788Y-185728862D01*
X85605139Y-185695074D01*
X85660280Y-185599566D01*
X85728357Y-185653330D01*
X85745692Y-185664847D01*
X85888000Y-185743405D01*
X85888000Y-185901583D01*
X85888001Y-185901595D01*
X85888001Y-185951389D01*
X85894217Y-185990634D01*
X85906518Y-186028492D01*
X85912745Y-186067809D01*
X85925023Y-186105599D01*
X85943095Y-186141066D01*
X85955395Y-186178924D01*
X85973434Y-186214328D01*
X85996832Y-186246533D01*
X86014904Y-186282001D01*
X86038259Y-186314147D01*
X86073477Y-186349365D01*
X86726633Y-187002522D01*
X86761852Y-187037741D01*
X86793998Y-187061096D01*
X86829466Y-187079168D01*
X86861671Y-187102566D01*
X86897073Y-187120604D01*
X86934931Y-187132905D01*
X86970402Y-187150978D01*
X87008189Y-187163255D01*
X87047501Y-187169482D01*
X87085365Y-187181784D01*
X87124609Y-187187999D01*
X87174404Y-187187999D01*
X87174416Y-187188000D01*
X92174984Y-187188000D01*
X92174996Y-187187999D01*
X92224789Y-187187999D01*
X92264035Y-187181783D01*
X92301887Y-187169484D01*
X92341210Y-187163256D01*
X92379000Y-187150977D01*
X92414469Y-187132904D01*
X92452324Y-187120605D01*
X92487729Y-187102565D01*
X92519932Y-187079168D01*
X92555401Y-187061096D01*
X92587548Y-187037741D01*
X93316289Y-186309000D01*
X95828163Y-186309000D01*
X95828163Y-186505000D01*
X95832490Y-186537870D01*
X95901599Y-186795789D01*
X95926984Y-186844553D01*
X96042138Y-186981788D01*
X96075926Y-187010139D01*
X96231073Y-187099713D01*
X96272520Y-187114799D01*
X96448947Y-187145908D01*
X96471000Y-187147837D01*
X96817000Y-187147837D01*
X96885661Y-187127676D01*
X96932523Y-187073595D01*
X96944000Y-187020837D01*
X96944000Y-186309000D01*
X96923839Y-186240339D01*
X96869758Y-186193477D01*
X96817000Y-186182000D01*
X95955163Y-186182000D01*
X95886502Y-186202161D01*
X95839640Y-186256242D01*
X95828163Y-186309000D01*
X93316289Y-186309000D01*
X94781800Y-184843489D01*
X94781800Y-185005087D01*
X94786127Y-185037957D01*
X94847461Y-185266857D01*
X94860149Y-185297487D01*
X94978636Y-185502713D01*
X94998818Y-185529016D01*
X95166384Y-185696582D01*
X95192687Y-185716764D01*
X95397913Y-185835251D01*
X95428543Y-185847939D01*
X95657443Y-185909273D01*
X95690313Y-185913600D01*
X95899032Y-185913600D01*
X95902405Y-185916523D01*
X95955163Y-185928000D01*
X97198000Y-185928000D01*
X97198000Y-187020837D01*
X97218161Y-187089498D01*
X97272242Y-187136360D01*
X97325000Y-187147837D01*
X97671000Y-187147837D01*
X97703870Y-187143510D01*
X97961789Y-187074401D01*
X98010553Y-187049016D01*
X98147788Y-186933862D01*
X98176139Y-186900074D01*
X98179350Y-186894513D01*
X98247360Y-186975565D01*
X98281148Y-187003916D01*
X98433852Y-187092079D01*
X98475299Y-187107165D01*
X98648947Y-187137784D01*
X98671000Y-187139713D01*
X99871000Y-187139713D01*
X99903870Y-187135386D01*
X100157727Y-187067365D01*
X100206491Y-187041980D01*
X100341565Y-186928640D01*
X100369916Y-186894852D01*
X100458079Y-186742148D01*
X100473165Y-186700701D01*
X100503784Y-186527053D01*
X100505713Y-186505000D01*
X100505713Y-185605000D01*
X100501386Y-185572130D01*
X100433365Y-185318274D01*
X100408787Y-185271062D01*
X100475479Y-185155548D01*
X100490565Y-185114101D01*
X100521184Y-184940453D01*
X100522595Y-184924316D01*
X100580599Y-185140789D01*
X100605984Y-185189553D01*
X100721138Y-185326788D01*
X100754926Y-185355139D01*
X100910073Y-185444713D01*
X100951520Y-185459799D01*
X101127947Y-185490908D01*
X101150000Y-185492837D01*
X101746000Y-185492837D01*
X101814661Y-185472676D01*
X101861523Y-185418595D01*
X101873000Y-185365837D01*
X101873000Y-184254000D01*
X101852839Y-184185339D01*
X101798758Y-184138477D01*
X101746000Y-184127000D01*
X100634163Y-184127000D01*
X100565502Y-184147161D01*
X100523113Y-184196080D01*
X100523113Y-184168400D01*
X100518786Y-184135530D01*
X100450765Y-183881674D01*
X100427957Y-183837860D01*
X100475479Y-183755548D01*
X100490565Y-183714101D01*
X100507163Y-183619970D01*
X100507163Y-183746000D01*
X100527324Y-183814661D01*
X100581405Y-183861523D01*
X100634163Y-183873000D01*
X101746000Y-183873000D01*
X101814661Y-183852839D01*
X101861523Y-183798758D01*
X101873000Y-183746000D01*
X101873000Y-182634163D01*
X101852839Y-182565502D01*
X101798758Y-182518640D01*
X101746000Y-182507163D01*
X101150000Y-182507163D01*
X101117130Y-182511490D01*
X100859212Y-182580599D01*
X100810448Y-182605984D01*
X100673212Y-182721138D01*
X100644861Y-182754926D01*
X100555287Y-182910073D01*
X100540201Y-182951520D01*
X100523113Y-183048430D01*
X100523113Y-182768400D01*
X100518786Y-182735530D01*
X100450765Y-182481674D01*
X100425380Y-182432911D01*
X100312040Y-182297836D01*
X100278252Y-182269484D01*
X100202272Y-182225617D01*
X100330039Y-182097850D01*
X100348947Y-182101184D01*
X100371000Y-182103113D01*
X101871000Y-182103113D01*
X101903870Y-182098786D01*
X102157727Y-182030765D01*
X102206491Y-182005380D01*
X102300560Y-181926447D01*
X102885591Y-182511479D01*
X102872053Y-182509092D01*
X102850000Y-182507163D01*
X102254000Y-182507163D01*
X102185339Y-182527324D01*
X102138477Y-182581405D01*
X102127000Y-182634163D01*
X102127000Y-185365837D01*
X102147161Y-185434498D01*
X102201242Y-185481360D01*
X102254000Y-185492837D01*
X102850000Y-185492837D01*
X102882870Y-185488510D01*
X103140789Y-185419401D01*
X103189553Y-185394016D01*
X103326788Y-185278862D01*
X103355139Y-185245074D01*
X103444713Y-185089927D01*
X103459799Y-185048480D01*
X103465778Y-185014571D01*
X103579120Y-185127913D01*
X103596079Y-185142142D01*
X103789578Y-185277632D01*
X103808750Y-185288701D01*
X104022837Y-185388531D01*
X104043639Y-185396103D01*
X104271810Y-185457241D01*
X104293611Y-185461085D01*
X104469998Y-185476517D01*
X104481067Y-185477000D01*
X104598933Y-185477000D01*
X104610002Y-185476517D01*
X104786389Y-185461085D01*
X104808190Y-185457241D01*
X105036361Y-185396103D01*
X105057163Y-185388531D01*
X105271250Y-185288701D01*
X105290422Y-185277632D01*
X105483921Y-185142142D01*
X105500880Y-185127913D01*
X105667913Y-184960880D01*
X105682142Y-184943921D01*
X105810000Y-184761322D01*
X105937858Y-184943921D01*
X105952087Y-184960880D01*
X106119120Y-185127913D01*
X106136079Y-185142142D01*
X106329578Y-185277632D01*
X106348750Y-185288701D01*
X106562837Y-185388531D01*
X106583639Y-185396103D01*
X106811810Y-185457241D01*
X106833611Y-185461085D01*
X107009998Y-185476517D01*
X107021067Y-185477000D01*
X107138933Y-185477000D01*
X107150002Y-185476517D01*
X107326389Y-185461085D01*
X107348190Y-185457241D01*
X107576361Y-185396103D01*
X107597163Y-185388531D01*
X107811250Y-185288701D01*
X107830422Y-185277632D01*
X108023921Y-185142142D01*
X108040880Y-185127913D01*
X108207913Y-184960880D01*
X108222142Y-184943921D01*
X108350000Y-184761322D01*
X108477858Y-184943921D01*
X108492087Y-184960880D01*
X108659120Y-185127913D01*
X108676079Y-185142142D01*
X108869578Y-185277632D01*
X108888750Y-185288701D01*
X109102837Y-185388531D01*
X109123639Y-185396103D01*
X109351810Y-185457241D01*
X109373611Y-185461085D01*
X109549998Y-185476517D01*
X109561067Y-185477000D01*
X109678933Y-185477000D01*
X109690002Y-185476517D01*
X109866389Y-185461085D01*
X109888190Y-185457241D01*
X110116361Y-185396103D01*
X110137163Y-185388531D01*
X110140446Y-185387000D01*
X111301363Y-185387000D01*
X111301363Y-185583000D01*
X111305690Y-185615870D01*
X111374799Y-185873789D01*
X111400184Y-185922553D01*
X111515338Y-186059788D01*
X111549126Y-186088139D01*
X111704273Y-186177713D01*
X111745720Y-186192799D01*
X111922147Y-186223908D01*
X111944200Y-186225837D01*
X112290200Y-186225837D01*
X112358861Y-186205676D01*
X112405723Y-186151595D01*
X112417200Y-186098837D01*
X112417200Y-185387000D01*
X112397039Y-185318339D01*
X112342958Y-185271477D01*
X112290200Y-185260000D01*
X111428363Y-185260000D01*
X111359702Y-185280161D01*
X111312840Y-185334242D01*
X111301363Y-185387000D01*
X110140446Y-185387000D01*
X110351250Y-185288701D01*
X110370422Y-185277632D01*
X110563921Y-185142142D01*
X110580880Y-185127913D01*
X110747913Y-184960880D01*
X110762142Y-184943921D01*
X110897632Y-184750422D01*
X110908701Y-184731250D01*
X111008531Y-184517163D01*
X111016103Y-184496361D01*
X111077241Y-184268190D01*
X111081085Y-184246389D01*
X111101673Y-184011069D01*
X111101673Y-183988931D01*
X111084007Y-183787000D01*
X111301363Y-183787000D01*
X111301363Y-183983000D01*
X111305690Y-184015870D01*
X111374799Y-184273789D01*
X111400184Y-184322553D01*
X111411371Y-184335886D01*
X111349487Y-184443073D01*
X111334401Y-184484520D01*
X111303292Y-184660947D01*
X111301363Y-184683000D01*
X111301363Y-184879000D01*
X111321524Y-184947661D01*
X111375605Y-184994523D01*
X111428363Y-185006000D01*
X112290200Y-185006000D01*
X112358861Y-184985839D01*
X112405723Y-184931758D01*
X112417200Y-184879000D01*
X112417200Y-183787000D01*
X112397039Y-183718339D01*
X112342958Y-183671477D01*
X112290200Y-183660000D01*
X111428363Y-183660000D01*
X111359702Y-183680161D01*
X111312840Y-183734242D01*
X111301363Y-183787000D01*
X111084007Y-183787000D01*
X111081085Y-183753611D01*
X111077241Y-183731810D01*
X111016103Y-183503639D01*
X111008531Y-183482837D01*
X110908701Y-183268750D01*
X110897632Y-183249578D01*
X110762142Y-183056079D01*
X110747913Y-183039120D01*
X110580880Y-182872087D01*
X110563921Y-182857858D01*
X110370422Y-182722368D01*
X110351250Y-182711299D01*
X110137163Y-182611469D01*
X110116361Y-182603897D01*
X109888190Y-182542759D01*
X109866389Y-182538915D01*
X109690002Y-182523483D01*
X109678933Y-182523000D01*
X109561067Y-182523000D01*
X109549998Y-182523483D01*
X109373611Y-182538915D01*
X109351810Y-182542759D01*
X109123639Y-182603897D01*
X109102837Y-182611469D01*
X108888750Y-182711299D01*
X108869578Y-182722368D01*
X108676079Y-182857858D01*
X108659120Y-182872087D01*
X108492087Y-183039120D01*
X108477858Y-183056079D01*
X108350000Y-183238678D01*
X108222142Y-183056079D01*
X108207913Y-183039120D01*
X108040880Y-182872087D01*
X108023921Y-182857858D01*
X107830422Y-182722368D01*
X107811250Y-182711299D01*
X107597163Y-182611469D01*
X107576361Y-182603897D01*
X107348190Y-182542759D01*
X107326389Y-182538915D01*
X107150002Y-182523483D01*
X107138933Y-182523000D01*
X107021067Y-182523000D01*
X107009998Y-182523483D01*
X106833611Y-182538915D01*
X106811810Y-182542759D01*
X106712781Y-182569294D01*
X106401965Y-182258477D01*
X106366747Y-182223259D01*
X106334600Y-182199903D01*
X106309276Y-182187000D01*
X111301363Y-182187000D01*
X111301363Y-182383000D01*
X111305690Y-182415870D01*
X111374799Y-182673789D01*
X111400184Y-182722553D01*
X111411371Y-182735886D01*
X111349487Y-182843073D01*
X111334401Y-182884520D01*
X111303292Y-183060947D01*
X111301363Y-183083000D01*
X111301363Y-183279000D01*
X111321524Y-183347661D01*
X111375605Y-183394523D01*
X111428363Y-183406000D01*
X112290200Y-183406000D01*
X112358861Y-183385839D01*
X112405723Y-183331758D01*
X112417200Y-183279000D01*
X112417200Y-182187000D01*
X112397039Y-182118339D01*
X112342958Y-182071477D01*
X112290200Y-182060000D01*
X111428363Y-182060000D01*
X111359702Y-182080161D01*
X111312840Y-182134242D01*
X111301363Y-182187000D01*
X106309276Y-182187000D01*
X106299131Y-182181831D01*
X106266928Y-182158434D01*
X106231523Y-182140394D01*
X106193668Y-182128095D01*
X106158199Y-182110022D01*
X106120409Y-182097743D01*
X106081086Y-182091515D01*
X106043234Y-182079216D01*
X106003988Y-182073000D01*
X105954195Y-182073000D01*
X105954183Y-182072999D01*
X105210501Y-182072999D01*
X104914978Y-181777476D01*
X105033189Y-181745801D01*
X105081953Y-181720416D01*
X105209035Y-181613782D01*
X105368547Y-181641908D01*
X105390600Y-181643837D01*
X105511600Y-181643837D01*
X105580261Y-181623676D01*
X105627123Y-181569595D01*
X105638600Y-181516837D01*
X105638600Y-180655000D01*
X105892600Y-180655000D01*
X105892600Y-181516837D01*
X105912761Y-181585498D01*
X105966842Y-181632360D01*
X106019600Y-181643837D01*
X106140600Y-181643837D01*
X106173470Y-181639510D01*
X106431389Y-181570401D01*
X106469484Y-181550570D01*
X106547673Y-181595713D01*
X106589120Y-181610799D01*
X106765547Y-181641908D01*
X106787600Y-181643837D01*
X106908600Y-181643837D01*
X106977261Y-181623676D01*
X107024123Y-181569595D01*
X107035600Y-181516837D01*
X107035600Y-180655000D01*
X107289600Y-180655000D01*
X107289600Y-181516837D01*
X107309761Y-181585498D01*
X107363842Y-181632360D01*
X107416600Y-181643837D01*
X107537600Y-181643837D01*
X107570470Y-181639510D01*
X107828389Y-181570401D01*
X107877153Y-181545016D01*
X108014388Y-181429862D01*
X108042739Y-181396074D01*
X108132313Y-181240927D01*
X108147399Y-181199480D01*
X108178508Y-181023053D01*
X108180437Y-181001000D01*
X108180437Y-180655000D01*
X108160471Y-180587000D01*
X111301363Y-180587000D01*
X111301363Y-180783000D01*
X111305690Y-180815870D01*
X111374799Y-181073789D01*
X111400184Y-181122553D01*
X111411371Y-181135886D01*
X111349487Y-181243073D01*
X111334401Y-181284520D01*
X111303292Y-181460947D01*
X111301363Y-181483000D01*
X111301363Y-181679000D01*
X111321524Y-181747661D01*
X111375605Y-181794523D01*
X111428363Y-181806000D01*
X112290200Y-181806000D01*
X112358861Y-181785839D01*
X112405723Y-181731758D01*
X112417200Y-181679000D01*
X112417200Y-180587000D01*
X112397039Y-180518339D01*
X112342958Y-180471477D01*
X112290200Y-180460000D01*
X111428363Y-180460000D01*
X111359702Y-180480161D01*
X111312840Y-180534242D01*
X111301363Y-180587000D01*
X108160471Y-180587000D01*
X108160276Y-180586339D01*
X108106195Y-180539477D01*
X108053437Y-180528000D01*
X107416600Y-180528000D01*
X107347939Y-180548161D01*
X107301077Y-180602242D01*
X107289600Y-180655000D01*
X107035600Y-180655000D01*
X107015439Y-180586339D01*
X106961358Y-180539477D01*
X106908600Y-180528000D01*
X106019600Y-180528000D01*
X105950939Y-180548161D01*
X105904077Y-180602242D01*
X105892600Y-180655000D01*
X105638600Y-180655000D01*
X105618439Y-180586339D01*
X105564358Y-180539477D01*
X105511600Y-180528000D01*
X105290400Y-180528000D01*
X105221739Y-180548161D01*
X105174877Y-180602242D01*
X105163400Y-180655000D01*
X105163400Y-180703400D01*
X104165400Y-180703400D01*
X104165400Y-180449400D01*
X104842600Y-180449400D01*
X104911261Y-180429239D01*
X104958123Y-180375158D01*
X104969600Y-180322400D01*
X104969600Y-180274000D01*
X108053437Y-180274000D01*
X108122098Y-180253839D01*
X108168960Y-180199758D01*
X108180437Y-180147000D01*
X108180437Y-179801000D01*
X108176110Y-179768130D01*
X108107001Y-179510212D01*
X108081616Y-179461448D01*
X108064956Y-179441593D01*
X108124679Y-179338148D01*
X108139765Y-179296701D01*
X108170384Y-179123053D01*
X108172313Y-179101000D01*
X108172313Y-178987000D01*
X111301363Y-178987000D01*
X111301363Y-179183000D01*
X111305690Y-179215870D01*
X111374799Y-179473789D01*
X111400184Y-179522553D01*
X111411371Y-179535886D01*
X111349487Y-179643073D01*
X111334401Y-179684520D01*
X111303292Y-179860947D01*
X111301363Y-179883000D01*
X111301363Y-180079000D01*
X111321524Y-180147661D01*
X111375605Y-180194523D01*
X111428363Y-180206000D01*
X112290200Y-180206000D01*
X112358861Y-180185839D01*
X112405723Y-180131758D01*
X112417200Y-180079000D01*
X112417200Y-178987000D01*
X112397039Y-178918339D01*
X112342958Y-178871477D01*
X112290200Y-178860000D01*
X111428363Y-178860000D01*
X111359702Y-178880161D01*
X111312840Y-178934242D01*
X111301363Y-178987000D01*
X108172313Y-178987000D01*
X108172313Y-177901000D01*
X108167986Y-177868130D01*
X108099965Y-177614274D01*
X108074580Y-177565510D01*
X108056416Y-177543863D01*
X108111251Y-177448887D01*
X108123939Y-177418257D01*
X108132314Y-177387000D01*
X111301363Y-177387000D01*
X111301363Y-177583000D01*
X111305690Y-177615870D01*
X111374799Y-177873789D01*
X111400184Y-177922553D01*
X111411371Y-177935886D01*
X111349487Y-178043073D01*
X111334401Y-178084520D01*
X111303292Y-178260947D01*
X111301363Y-178283000D01*
X111301363Y-178479000D01*
X111321524Y-178547661D01*
X111375605Y-178594523D01*
X111428363Y-178606000D01*
X112290200Y-178606000D01*
X112358861Y-178585839D01*
X112405723Y-178531758D01*
X112417200Y-178479000D01*
X112417200Y-177387000D01*
X112397039Y-177318339D01*
X112342958Y-177271477D01*
X112290200Y-177260000D01*
X111428363Y-177260000D01*
X111359702Y-177280161D01*
X111312840Y-177334242D01*
X111301363Y-177387000D01*
X108132314Y-177387000D01*
X108185273Y-177189357D01*
X108189600Y-177156487D01*
X108189600Y-176919513D01*
X108185273Y-176886643D01*
X108123939Y-176657743D01*
X108111251Y-176627113D01*
X108021467Y-176471603D01*
X108024871Y-176469130D01*
X108164864Y-176329137D01*
X108707001Y-175787000D01*
X111301363Y-175787000D01*
X111301363Y-175983000D01*
X111305690Y-176015870D01*
X111374799Y-176273789D01*
X111400184Y-176322553D01*
X111411371Y-176335886D01*
X111349487Y-176443073D01*
X111334401Y-176484520D01*
X111303292Y-176660947D01*
X111301363Y-176683000D01*
X111301363Y-176879000D01*
X111321524Y-176947661D01*
X111375605Y-176994523D01*
X111428363Y-177006000D01*
X112290200Y-177006000D01*
X112358861Y-176985839D01*
X112405723Y-176931758D01*
X112417200Y-176879000D01*
X112417200Y-175787000D01*
X112397039Y-175718339D01*
X112342958Y-175671477D01*
X112290200Y-175660000D01*
X111428363Y-175660000D01*
X111359702Y-175680161D01*
X111312840Y-175734242D01*
X111301363Y-175787000D01*
X108707001Y-175787000D01*
X110307001Y-174187000D01*
X111301363Y-174187000D01*
X111301363Y-174383000D01*
X111305690Y-174415870D01*
X111374799Y-174673789D01*
X111400184Y-174722553D01*
X111411371Y-174735886D01*
X111349487Y-174843073D01*
X111334401Y-174884520D01*
X111303292Y-175060947D01*
X111301363Y-175083000D01*
X111301363Y-175279000D01*
X111321524Y-175347661D01*
X111375605Y-175394523D01*
X111428363Y-175406000D01*
X112290200Y-175406000D01*
X112358861Y-175385839D01*
X112405723Y-175331758D01*
X112417200Y-175279000D01*
X112417200Y-174187000D01*
X112397039Y-174118339D01*
X112342958Y-174071477D01*
X112290200Y-174060000D01*
X111428363Y-174060000D01*
X111359702Y-174080161D01*
X111312840Y-174134242D01*
X111301363Y-174187000D01*
X110307001Y-174187000D01*
X110912736Y-173581266D01*
X111301363Y-173581266D01*
X111301363Y-173679000D01*
X111321524Y-173747661D01*
X111375605Y-173794523D01*
X111428363Y-173806000D01*
X112671200Y-173806000D01*
X112671200Y-186098837D01*
X112691361Y-186167498D01*
X112745442Y-186214360D01*
X112798200Y-186225837D01*
X113144200Y-186225837D01*
X113177070Y-186221510D01*
X113434989Y-186152401D01*
X113483753Y-186127016D01*
X113620988Y-186011862D01*
X113649339Y-185978074D01*
X113652550Y-185972513D01*
X113720560Y-186053565D01*
X113754348Y-186081916D01*
X113907052Y-186170079D01*
X113948499Y-186185165D01*
X114122147Y-186215784D01*
X114144200Y-186217713D01*
X115344200Y-186217713D01*
X115377070Y-186213386D01*
X115630927Y-186145365D01*
X115679691Y-186119980D01*
X115769049Y-186045000D01*
X117511202Y-186045000D01*
X117569184Y-186102982D01*
X117595487Y-186123164D01*
X117800713Y-186241651D01*
X117831343Y-186254339D01*
X118060243Y-186315673D01*
X118093113Y-186320000D01*
X118330087Y-186320000D01*
X118362957Y-186315673D01*
X118591857Y-186254339D01*
X118622487Y-186241651D01*
X118827713Y-186123164D01*
X118854016Y-186102982D01*
X118911998Y-186045000D01*
X119369312Y-186045000D01*
X119456052Y-186095079D01*
X119497499Y-186110165D01*
X119671147Y-186140784D01*
X119693200Y-186142713D01*
X120774361Y-186142713D01*
X120770360Y-186157643D01*
X120766032Y-186190513D01*
X120766032Y-186427487D01*
X120770359Y-186460357D01*
X120831693Y-186689257D01*
X120844381Y-186719887D01*
X120962868Y-186925113D01*
X120983050Y-186951416D01*
X121150616Y-187118982D01*
X121176919Y-187139164D01*
X121382145Y-187257651D01*
X121412775Y-187270339D01*
X121641675Y-187331673D01*
X121674545Y-187336000D01*
X121911519Y-187336000D01*
X121944389Y-187331673D01*
X122173289Y-187270339D01*
X122203919Y-187257651D01*
X122212116Y-187252918D01*
X122220313Y-187257651D01*
X122250943Y-187270339D01*
X122479843Y-187331673D01*
X122512713Y-187336000D01*
X122749687Y-187336000D01*
X122782557Y-187331673D01*
X123011457Y-187270339D01*
X123042087Y-187257651D01*
X123247313Y-187139164D01*
X123273616Y-187118982D01*
X123441182Y-186951416D01*
X123461364Y-186925113D01*
X123571142Y-186734972D01*
X123571071Y-187373000D01*
X80627000Y-187373000D01*
X80627000Y-184254000D01*
X82457163Y-184254000D01*
X82457163Y-185300000D01*
X82461490Y-185332870D01*
X82530599Y-185590789D01*
X82555984Y-185639553D01*
X82671138Y-185776788D01*
X82704926Y-185805139D01*
X82860073Y-185894713D01*
X82901520Y-185909799D01*
X83077947Y-185940908D01*
X83100000Y-185942837D01*
X83846000Y-185942837D01*
X83914661Y-185922676D01*
X83961523Y-185868595D01*
X83973000Y-185815837D01*
X83973000Y-184254000D01*
X83952839Y-184185339D01*
X83898758Y-184138477D01*
X83846000Y-184127000D01*
X82584163Y-184127000D01*
X82515502Y-184147161D01*
X82468640Y-184201242D01*
X82457163Y-184254000D01*
X80627000Y-184254000D01*
X80627000Y-182700000D01*
X82457163Y-182700000D01*
X82457163Y-183746000D01*
X82477324Y-183814661D01*
X82531405Y-183861523D01*
X82584163Y-183873000D01*
X83846000Y-183873000D01*
X83914661Y-183852839D01*
X83961523Y-183798758D01*
X83973000Y-183746000D01*
X83973000Y-182184163D01*
X83952839Y-182115502D01*
X83898758Y-182068640D01*
X83846000Y-182057163D01*
X83100000Y-182057163D01*
X83067130Y-182061490D01*
X82809212Y-182130599D01*
X82760448Y-182155984D01*
X82623212Y-182271138D01*
X82594861Y-182304926D01*
X82505287Y-182460073D01*
X82490201Y-182501520D01*
X82459092Y-182677947D01*
X82457163Y-182700000D01*
X80627000Y-182700000D01*
X80627000Y-171146002D01*
X81093512Y-171612515D01*
G36*
X102516529Y-179073305D02*
G01*
X102551996Y-179091377D01*
X102589786Y-179103655D01*
X102629103Y-179109882D01*
X102666961Y-179122183D01*
X102706206Y-179128399D01*
X102756000Y-179128399D01*
X102756012Y-179128400D01*
X103243935Y-179128400D01*
X103280035Y-179263127D01*
X103305420Y-179311891D01*
X103418760Y-179446965D01*
X103452116Y-179474953D01*
X103365612Y-179547538D01*
X103337261Y-179581326D01*
X103247687Y-179736473D01*
X103232601Y-179777920D01*
X103201492Y-179954347D01*
X103199563Y-179976400D01*
X103199563Y-180062061D01*
X102505713Y-179368211D01*
X102505713Y-179069791D01*
X102516529Y-179073305D01*
X102516529Y-179073305D01*
G37*
X102516529Y-179073305D02*
X102551996Y-179091377D01*
X102589786Y-179103655D01*
X102629103Y-179109882D01*
X102666961Y-179122183D01*
X102706206Y-179128399D01*
X102756000Y-179128399D01*
X102756012Y-179128400D01*
X103243935Y-179128400D01*
X103280035Y-179263127D01*
X103305420Y-179311891D01*
X103418760Y-179446965D01*
X103452116Y-179474953D01*
X103365612Y-179547538D01*
X103337261Y-179581326D01*
X103247687Y-179736473D01*
X103232601Y-179777920D01*
X103201492Y-179954347D01*
X103199563Y-179976400D01*
X103199563Y-180062061D01*
X102505713Y-179368211D01*
X102505713Y-179069791D01*
X102516529Y-179073305D01*
M02*
