G04 #@! TF.GenerationSoftware,KiCad,Pcbnew,(5.1.0-1152-gc9ccd8a64)*
G04 #@! TF.CreationDate,2019-07-22T10:45:47-04:00*
G04 #@! TF.ProjectId,pack,7061636b-2e6b-4696-9361-645f70636258,rev?*
G04 #@! TF.SameCoordinates,Original*
G04 #@! TF.FileFunction,Legend,Top*
G04 #@! TF.FilePolarity,Positive*
%FSLAX46Y46*%
G04 Gerber Fmt 4.6, Leading zero omitted, Abs format (unit mm)*
G04 Created by KiCad (PCBNEW (5.1.0-1152-gc9ccd8a64)) date 2019-07-22 10:45:47*
%MOMM*%
%LPD*%
G04 APERTURE LIST*
%ADD10C,0.010000*%
%ADD11C,0.120000*%
%ADD12C,0.150000*%
G04 APERTURE END LIST*
D10*
G36*
X132755664Y-81165688D02*
G01*
X132974455Y-81187029D01*
X133186768Y-81223442D01*
X133407747Y-81276625D01*
X133502724Y-81303196D01*
X133879630Y-81439136D01*
X134233093Y-81621050D01*
X134560517Y-81846335D01*
X134859305Y-82112388D01*
X135126862Y-82416605D01*
X135360589Y-82756383D01*
X135557892Y-83129118D01*
X135711365Y-83517745D01*
X135813082Y-83888655D01*
X135882451Y-84289218D01*
X135919536Y-84708317D01*
X135924403Y-85134836D01*
X135897116Y-85557659D01*
X135837740Y-85965667D01*
X135746339Y-86347745D01*
X135693915Y-86510719D01*
X135524299Y-86922864D01*
X135318787Y-87296479D01*
X135077977Y-87631033D01*
X134802470Y-87925989D01*
X134492865Y-88180816D01*
X134149761Y-88394978D01*
X133773758Y-88567942D01*
X133365454Y-88699174D01*
X133191098Y-88740315D01*
X133049113Y-88763606D01*
X132869163Y-88782752D01*
X132665304Y-88797222D01*
X132451594Y-88806483D01*
X132242090Y-88810005D01*
X132050848Y-88807255D01*
X131891924Y-88797703D01*
X131837868Y-88791489D01*
X131394855Y-88707015D01*
X130984768Y-88581255D01*
X130607706Y-88414282D01*
X130263770Y-88206166D01*
X129953058Y-87956978D01*
X129675670Y-87666788D01*
X129431705Y-87335667D01*
X129221263Y-86963686D01*
X129196762Y-86913149D01*
X129072636Y-86631068D01*
X128975683Y-86358788D01*
X128903138Y-86083895D01*
X128852235Y-85793976D01*
X128820208Y-85476616D01*
X128805194Y-85155687D01*
X128805183Y-85144627D01*
X130205594Y-85144627D01*
X130238719Y-85516501D01*
X130306372Y-85876341D01*
X130407826Y-86217009D01*
X130542351Y-86531367D01*
X130709220Y-86812274D01*
X130759581Y-86881269D01*
X130909881Y-87046364D01*
X131098681Y-87204361D01*
X131311675Y-87345686D01*
X131534558Y-87460766D01*
X131737242Y-87535576D01*
X132025582Y-87595380D01*
X132332608Y-87616834D01*
X132640373Y-87599695D01*
X132902547Y-87551232D01*
X133201035Y-87448181D01*
X133476183Y-87298876D01*
X133724825Y-87105925D01*
X133943796Y-86871934D01*
X134129928Y-86599512D01*
X134188292Y-86492524D01*
X134311766Y-86201782D01*
X134404678Y-85877476D01*
X134466884Y-85529281D01*
X134498238Y-85166868D01*
X134498593Y-84799911D01*
X134467804Y-84438081D01*
X134405726Y-84091051D01*
X134312212Y-83768494D01*
X134232307Y-83571773D01*
X134065805Y-83267756D01*
X133866987Y-83004408D01*
X133637931Y-82783090D01*
X133380717Y-82605162D01*
X133097424Y-82471983D01*
X132790133Y-82384914D01*
X132460921Y-82345314D01*
X132353268Y-82342889D01*
X132017908Y-82367406D01*
X131703324Y-82439754D01*
X131412107Y-82558131D01*
X131146849Y-82720731D01*
X130910142Y-82925750D01*
X130704577Y-83171385D01*
X130532746Y-83455832D01*
X130432947Y-83679582D01*
X130320675Y-84028198D01*
X130245844Y-84393337D01*
X130207726Y-84767860D01*
X130205594Y-85144627D01*
X128805183Y-85144627D01*
X128804772Y-84739884D01*
X128828221Y-84362697D01*
X128877411Y-84014672D01*
X128954216Y-83686359D01*
X129060506Y-83368306D01*
X129198154Y-83051060D01*
X129238038Y-82970066D01*
X129432510Y-82637831D01*
X129668167Y-82327174D01*
X129938281Y-82044653D01*
X130236125Y-81796824D01*
X130554973Y-81590246D01*
X130761099Y-81485375D01*
X131009564Y-81379700D01*
X131242638Y-81298679D01*
X131474317Y-81239244D01*
X131718595Y-81198325D01*
X131989467Y-81172852D01*
X132238068Y-81161432D01*
X132515249Y-81157721D01*
X132755664Y-81165688D01*
X132755664Y-81165688D01*
G37*
X132755664Y-81165688D02*
X132974455Y-81187029D01*
X133186768Y-81223442D01*
X133407747Y-81276625D01*
X133502724Y-81303196D01*
X133879630Y-81439136D01*
X134233093Y-81621050D01*
X134560517Y-81846335D01*
X134859305Y-82112388D01*
X135126862Y-82416605D01*
X135360589Y-82756383D01*
X135557892Y-83129118D01*
X135711365Y-83517745D01*
X135813082Y-83888655D01*
X135882451Y-84289218D01*
X135919536Y-84708317D01*
X135924403Y-85134836D01*
X135897116Y-85557659D01*
X135837740Y-85965667D01*
X135746339Y-86347745D01*
X135693915Y-86510719D01*
X135524299Y-86922864D01*
X135318787Y-87296479D01*
X135077977Y-87631033D01*
X134802470Y-87925989D01*
X134492865Y-88180816D01*
X134149761Y-88394978D01*
X133773758Y-88567942D01*
X133365454Y-88699174D01*
X133191098Y-88740315D01*
X133049113Y-88763606D01*
X132869163Y-88782752D01*
X132665304Y-88797222D01*
X132451594Y-88806483D01*
X132242090Y-88810005D01*
X132050848Y-88807255D01*
X131891924Y-88797703D01*
X131837868Y-88791489D01*
X131394855Y-88707015D01*
X130984768Y-88581255D01*
X130607706Y-88414282D01*
X130263770Y-88206166D01*
X129953058Y-87956978D01*
X129675670Y-87666788D01*
X129431705Y-87335667D01*
X129221263Y-86963686D01*
X129196762Y-86913149D01*
X129072636Y-86631068D01*
X128975683Y-86358788D01*
X128903138Y-86083895D01*
X128852235Y-85793976D01*
X128820208Y-85476616D01*
X128805194Y-85155687D01*
X128805183Y-85144627D01*
X130205594Y-85144627D01*
X130238719Y-85516501D01*
X130306372Y-85876341D01*
X130407826Y-86217009D01*
X130542351Y-86531367D01*
X130709220Y-86812274D01*
X130759581Y-86881269D01*
X130909881Y-87046364D01*
X131098681Y-87204361D01*
X131311675Y-87345686D01*
X131534558Y-87460766D01*
X131737242Y-87535576D01*
X132025582Y-87595380D01*
X132332608Y-87616834D01*
X132640373Y-87599695D01*
X132902547Y-87551232D01*
X133201035Y-87448181D01*
X133476183Y-87298876D01*
X133724825Y-87105925D01*
X133943796Y-86871934D01*
X134129928Y-86599512D01*
X134188292Y-86492524D01*
X134311766Y-86201782D01*
X134404678Y-85877476D01*
X134466884Y-85529281D01*
X134498238Y-85166868D01*
X134498593Y-84799911D01*
X134467804Y-84438081D01*
X134405726Y-84091051D01*
X134312212Y-83768494D01*
X134232307Y-83571773D01*
X134065805Y-83267756D01*
X133866987Y-83004408D01*
X133637931Y-82783090D01*
X133380717Y-82605162D01*
X133097424Y-82471983D01*
X132790133Y-82384914D01*
X132460921Y-82345314D01*
X132353268Y-82342889D01*
X132017908Y-82367406D01*
X131703324Y-82439754D01*
X131412107Y-82558131D01*
X131146849Y-82720731D01*
X130910142Y-82925750D01*
X130704577Y-83171385D01*
X130532746Y-83455832D01*
X130432947Y-83679582D01*
X130320675Y-84028198D01*
X130245844Y-84393337D01*
X130207726Y-84767860D01*
X130205594Y-85144627D01*
X128805183Y-85144627D01*
X128804772Y-84739884D01*
X128828221Y-84362697D01*
X128877411Y-84014672D01*
X128954216Y-83686359D01*
X129060506Y-83368306D01*
X129198154Y-83051060D01*
X129238038Y-82970066D01*
X129432510Y-82637831D01*
X129668167Y-82327174D01*
X129938281Y-82044653D01*
X130236125Y-81796824D01*
X130554973Y-81590246D01*
X130761099Y-81485375D01*
X131009564Y-81379700D01*
X131242638Y-81298679D01*
X131474317Y-81239244D01*
X131718595Y-81198325D01*
X131989467Y-81172852D01*
X132238068Y-81161432D01*
X132515249Y-81157721D01*
X132755664Y-81165688D01*
G36*
X142753243Y-81246997D02*
G01*
X143013176Y-81254722D01*
X143245603Y-81268684D01*
X143442496Y-81289189D01*
X143475806Y-81293937D01*
X143924914Y-81375917D01*
X144330348Y-81481396D01*
X144696804Y-81612544D01*
X145028978Y-81771535D01*
X145331565Y-81960542D01*
X145609263Y-82181737D01*
X145805959Y-82372085D01*
X146052904Y-82666169D01*
X146259150Y-82989492D01*
X146425318Y-83343634D01*
X146552031Y-83730176D01*
X146639911Y-84150698D01*
X146689579Y-84606781D01*
X146690392Y-84619550D01*
X146701283Y-85120354D01*
X146669733Y-85592378D01*
X146596112Y-86034873D01*
X146480792Y-86447088D01*
X146324142Y-86828274D01*
X146126534Y-87177682D01*
X145888339Y-87494561D01*
X145609926Y-87778163D01*
X145291668Y-88027737D01*
X144933934Y-88242534D01*
X144886500Y-88266881D01*
X144567831Y-88410632D01*
X144234836Y-88526456D01*
X143881229Y-88615552D01*
X143500722Y-88679121D01*
X143087026Y-88718365D01*
X142633856Y-88734484D01*
X142436781Y-88734699D01*
X142261611Y-88732980D01*
X142098080Y-88730725D01*
X141955828Y-88728118D01*
X141844497Y-88725342D01*
X141773728Y-88722581D01*
X141762634Y-88721847D01*
X141435302Y-88693959D01*
X141149916Y-88665777D01*
X140908813Y-88637590D01*
X140714333Y-88609690D01*
X140568816Y-88582369D01*
X140500563Y-88564743D01*
X140493990Y-88560689D01*
X140488069Y-88551014D01*
X140482766Y-88533093D01*
X140478047Y-88504299D01*
X140473879Y-88462008D01*
X140470227Y-88403594D01*
X140467058Y-88326432D01*
X140464337Y-88227895D01*
X140462031Y-88105360D01*
X140460105Y-87956200D01*
X140458527Y-87777790D01*
X140457261Y-87567505D01*
X140456274Y-87322719D01*
X140455532Y-87040806D01*
X140455001Y-86719142D01*
X140454647Y-86355100D01*
X140454437Y-85946056D01*
X140454335Y-85489384D01*
X140454309Y-84985969D01*
X140454336Y-84479386D01*
X140454437Y-84023039D01*
X140454649Y-83614304D01*
X140455004Y-83250555D01*
X140455536Y-82929166D01*
X140456279Y-82647514D01*
X140457057Y-82454777D01*
X141828711Y-82454777D01*
X141828711Y-87549756D01*
X142416796Y-87549601D01*
X142681037Y-87547067D01*
X142912526Y-87539813D01*
X143104699Y-87528136D01*
X143250990Y-87512333D01*
X143256084Y-87511576D01*
X143626071Y-87434301D01*
X143958805Y-87319603D01*
X144254343Y-87167419D01*
X144512742Y-86977684D01*
X144734058Y-86750332D01*
X144918346Y-86485300D01*
X145065663Y-86182523D01*
X145176065Y-85841935D01*
X145249608Y-85463473D01*
X145278611Y-85184200D01*
X145284114Y-84892750D01*
X145262398Y-84588197D01*
X145215912Y-84284447D01*
X145147106Y-83995407D01*
X145058431Y-83734986D01*
X145000572Y-83605961D01*
X144835914Y-83327668D01*
X144637733Y-83087772D01*
X144404772Y-82885458D01*
X144135771Y-82719907D01*
X143829471Y-82590302D01*
X143484616Y-82495826D01*
X143221023Y-82450350D01*
X143135183Y-82442191D01*
X143013051Y-82435335D01*
X142864335Y-82429865D01*
X142698742Y-82425866D01*
X142525979Y-82423420D01*
X142355754Y-82422613D01*
X142197773Y-82423527D01*
X142061745Y-82426247D01*
X141957377Y-82430857D01*
X141894376Y-82437440D01*
X141888180Y-82438840D01*
X141828711Y-82454777D01*
X140457057Y-82454777D01*
X140457267Y-82402972D01*
X140458535Y-82192915D01*
X140460115Y-82014719D01*
X140462043Y-81865757D01*
X140464351Y-81743406D01*
X140467075Y-81645039D01*
X140470247Y-81568032D01*
X140473901Y-81509759D01*
X140478073Y-81467595D01*
X140482794Y-81438916D01*
X140488101Y-81421095D01*
X140494026Y-81411508D01*
X140500563Y-81407541D01*
X140646825Y-81372930D01*
X140837827Y-81341797D01*
X141065540Y-81314449D01*
X141321938Y-81291191D01*
X141598994Y-81272331D01*
X141888679Y-81258175D01*
X142182967Y-81249030D01*
X142473831Y-81245201D01*
X142753243Y-81246997D01*
X142753243Y-81246997D01*
G37*
X142753243Y-81246997D02*
X143013176Y-81254722D01*
X143245603Y-81268684D01*
X143442496Y-81289189D01*
X143475806Y-81293937D01*
X143924914Y-81375917D01*
X144330348Y-81481396D01*
X144696804Y-81612544D01*
X145028978Y-81771535D01*
X145331565Y-81960542D01*
X145609263Y-82181737D01*
X145805959Y-82372085D01*
X146052904Y-82666169D01*
X146259150Y-82989492D01*
X146425318Y-83343634D01*
X146552031Y-83730176D01*
X146639911Y-84150698D01*
X146689579Y-84606781D01*
X146690392Y-84619550D01*
X146701283Y-85120354D01*
X146669733Y-85592378D01*
X146596112Y-86034873D01*
X146480792Y-86447088D01*
X146324142Y-86828274D01*
X146126534Y-87177682D01*
X145888339Y-87494561D01*
X145609926Y-87778163D01*
X145291668Y-88027737D01*
X144933934Y-88242534D01*
X144886500Y-88266881D01*
X144567831Y-88410632D01*
X144234836Y-88526456D01*
X143881229Y-88615552D01*
X143500722Y-88679121D01*
X143087026Y-88718365D01*
X142633856Y-88734484D01*
X142436781Y-88734699D01*
X142261611Y-88732980D01*
X142098080Y-88730725D01*
X141955828Y-88728118D01*
X141844497Y-88725342D01*
X141773728Y-88722581D01*
X141762634Y-88721847D01*
X141435302Y-88693959D01*
X141149916Y-88665777D01*
X140908813Y-88637590D01*
X140714333Y-88609690D01*
X140568816Y-88582369D01*
X140500563Y-88564743D01*
X140493990Y-88560689D01*
X140488069Y-88551014D01*
X140482766Y-88533093D01*
X140478047Y-88504299D01*
X140473879Y-88462008D01*
X140470227Y-88403594D01*
X140467058Y-88326432D01*
X140464337Y-88227895D01*
X140462031Y-88105360D01*
X140460105Y-87956200D01*
X140458527Y-87777790D01*
X140457261Y-87567505D01*
X140456274Y-87322719D01*
X140455532Y-87040806D01*
X140455001Y-86719142D01*
X140454647Y-86355100D01*
X140454437Y-85946056D01*
X140454335Y-85489384D01*
X140454309Y-84985969D01*
X140454336Y-84479386D01*
X140454437Y-84023039D01*
X140454649Y-83614304D01*
X140455004Y-83250555D01*
X140455536Y-82929166D01*
X140456279Y-82647514D01*
X140457057Y-82454777D01*
X141828711Y-82454777D01*
X141828711Y-87549756D01*
X142416796Y-87549601D01*
X142681037Y-87547067D01*
X142912526Y-87539813D01*
X143104699Y-87528136D01*
X143250990Y-87512333D01*
X143256084Y-87511576D01*
X143626071Y-87434301D01*
X143958805Y-87319603D01*
X144254343Y-87167419D01*
X144512742Y-86977684D01*
X144734058Y-86750332D01*
X144918346Y-86485300D01*
X145065663Y-86182523D01*
X145176065Y-85841935D01*
X145249608Y-85463473D01*
X145278611Y-85184200D01*
X145284114Y-84892750D01*
X145262398Y-84588197D01*
X145215912Y-84284447D01*
X145147106Y-83995407D01*
X145058431Y-83734986D01*
X145000572Y-83605961D01*
X144835914Y-83327668D01*
X144637733Y-83087772D01*
X144404772Y-82885458D01*
X144135771Y-82719907D01*
X143829471Y-82590302D01*
X143484616Y-82495826D01*
X143221023Y-82450350D01*
X143135183Y-82442191D01*
X143013051Y-82435335D01*
X142864335Y-82429865D01*
X142698742Y-82425866D01*
X142525979Y-82423420D01*
X142355754Y-82422613D01*
X142197773Y-82423527D01*
X142061745Y-82426247D01*
X141957377Y-82430857D01*
X141894376Y-82437440D01*
X141888180Y-82438840D01*
X141828711Y-82454777D01*
X140457057Y-82454777D01*
X140457267Y-82402972D01*
X140458535Y-82192915D01*
X140460115Y-82014719D01*
X140462043Y-81865757D01*
X140464351Y-81743406D01*
X140467075Y-81645039D01*
X140470247Y-81568032D01*
X140473901Y-81509759D01*
X140478073Y-81467595D01*
X140482794Y-81438916D01*
X140488101Y-81421095D01*
X140494026Y-81411508D01*
X140500563Y-81407541D01*
X140646825Y-81372930D01*
X140837827Y-81341797D01*
X141065540Y-81314449D01*
X141321938Y-81291191D01*
X141598994Y-81272331D01*
X141888679Y-81258175D01*
X142182967Y-81249030D01*
X142473831Y-81245201D01*
X142753243Y-81246997D01*
G36*
X111961905Y-82475043D02*
G01*
X108578763Y-82475043D01*
X108578763Y-84245906D01*
X111591874Y-84245906D01*
X111591874Y-85382431D01*
X108578763Y-85382431D01*
X108578763Y-87496895D01*
X112199783Y-87496895D01*
X112199783Y-88659850D01*
X107204361Y-88659850D01*
X107204361Y-81312087D01*
X111961905Y-81312087D01*
X111961905Y-82475043D01*
X111961905Y-82475043D01*
G37*
X111961905Y-82475043D02*
X108578763Y-82475043D01*
X108578763Y-84245906D01*
X111591874Y-84245906D01*
X111591874Y-85382431D01*
X108578763Y-85382431D01*
X108578763Y-87496895D01*
X112199783Y-87496895D01*
X112199783Y-88659850D01*
X107204361Y-88659850D01*
X107204361Y-81312087D01*
X111961905Y-81312087D01*
X111961905Y-82475043D01*
G36*
X114849019Y-81662295D02*
G01*
X115135059Y-81995909D01*
X115442674Y-82369816D01*
X115767511Y-82778242D01*
X116105217Y-83215413D01*
X116451440Y-83675556D01*
X116801825Y-84152898D01*
X117152021Y-84641664D01*
X117497674Y-85136082D01*
X117781890Y-85552369D01*
X118173144Y-86131985D01*
X118173144Y-81312087D01*
X119521114Y-81312087D01*
X119521114Y-88659850D01*
X118356858Y-88659850D01*
X118284824Y-88538603D01*
X118212112Y-88418507D01*
X118114922Y-88261433D01*
X117997842Y-88074557D01*
X117865457Y-87865054D01*
X117722356Y-87640101D01*
X117573124Y-87406875D01*
X117422348Y-87172550D01*
X117274616Y-86944304D01*
X117134514Y-86729311D01*
X117006629Y-86534749D01*
X116934999Y-86426796D01*
X116534787Y-85835700D01*
X116138331Y-85268531D01*
X115750049Y-84731397D01*
X115374354Y-84230410D01*
X115017260Y-83773670D01*
X114776786Y-83473233D01*
X114770048Y-86066542D01*
X114763311Y-88659850D01*
X113415599Y-88659850D01*
X113415599Y-81312087D01*
X114541236Y-81312087D01*
X114849019Y-81662295D01*
X114849019Y-81662295D01*
G37*
X114849019Y-81662295D02*
X115135059Y-81995909D01*
X115442674Y-82369816D01*
X115767511Y-82778242D01*
X116105217Y-83215413D01*
X116451440Y-83675556D01*
X116801825Y-84152898D01*
X117152021Y-84641664D01*
X117497674Y-85136082D01*
X117781890Y-85552369D01*
X118173144Y-86131985D01*
X118173144Y-81312087D01*
X119521114Y-81312087D01*
X119521114Y-88659850D01*
X118356858Y-88659850D01*
X118284824Y-88538603D01*
X118212112Y-88418507D01*
X118114922Y-88261433D01*
X117997842Y-88074557D01*
X117865457Y-87865054D01*
X117722356Y-87640101D01*
X117573124Y-87406875D01*
X117422348Y-87172550D01*
X117274616Y-86944304D01*
X117134514Y-86729311D01*
X117006629Y-86534749D01*
X116934999Y-86426796D01*
X116534787Y-85835700D01*
X116138331Y-85268531D01*
X115750049Y-84731397D01*
X115374354Y-84230410D01*
X115017260Y-83773670D01*
X114776786Y-83473233D01*
X114770048Y-86066542D01*
X114763311Y-88659850D01*
X113415599Y-88659850D01*
X113415599Y-81312087D01*
X114541236Y-81312087D01*
X114849019Y-81662295D01*
G36*
X122578873Y-81543357D02*
G01*
X122797971Y-81791475D01*
X123031094Y-82066607D01*
X123280851Y-82372011D01*
X123549846Y-82710946D01*
X123840687Y-83086668D01*
X124155980Y-83502437D01*
X124301100Y-83696186D01*
X124426440Y-83865594D01*
X124566373Y-84057327D01*
X124716888Y-84265679D01*
X124873979Y-84484949D01*
X125033634Y-84709431D01*
X125191846Y-84933424D01*
X125344606Y-85151222D01*
X125487904Y-85357123D01*
X125617732Y-85545422D01*
X125730081Y-85710417D01*
X125820941Y-85846404D01*
X125886305Y-85947679D01*
X125904599Y-85977503D01*
X125983445Y-86109278D01*
X125990193Y-83710683D01*
X125996940Y-81312087D01*
X127344632Y-81312087D01*
X127344632Y-88659850D01*
X126193838Y-88659850D01*
X126077180Y-88468227D01*
X125895790Y-88173817D01*
X125690452Y-87846689D01*
X125467886Y-87497179D01*
X125234812Y-87135625D01*
X124997949Y-86772365D01*
X124764019Y-86417736D01*
X124539741Y-86082075D01*
X124331834Y-85775720D01*
X124243029Y-85646739D01*
X124137222Y-85496064D01*
X124009540Y-85317778D01*
X123865258Y-85118959D01*
X123709653Y-84906687D01*
X123547998Y-84688039D01*
X123385570Y-84470095D01*
X123227643Y-84259935D01*
X123079493Y-84064637D01*
X122946395Y-83891279D01*
X122833625Y-83746942D01*
X122748286Y-83640918D01*
X122587087Y-83445607D01*
X122587087Y-88659850D01*
X121239117Y-88659850D01*
X121239117Y-81312087D01*
X122369921Y-81312087D01*
X122578873Y-81543357D01*
X122578873Y-81543357D01*
G37*
X122578873Y-81543357D02*
X122797971Y-81791475D01*
X123031094Y-82066607D01*
X123280851Y-82372011D01*
X123549846Y-82710946D01*
X123840687Y-83086668D01*
X124155980Y-83502437D01*
X124301100Y-83696186D01*
X124426440Y-83865594D01*
X124566373Y-84057327D01*
X124716888Y-84265679D01*
X124873979Y-84484949D01*
X125033634Y-84709431D01*
X125191846Y-84933424D01*
X125344606Y-85151222D01*
X125487904Y-85357123D01*
X125617732Y-85545422D01*
X125730081Y-85710417D01*
X125820941Y-85846404D01*
X125886305Y-85947679D01*
X125904599Y-85977503D01*
X125983445Y-86109278D01*
X125990193Y-83710683D01*
X125996940Y-81312087D01*
X127344632Y-81312087D01*
X127344632Y-88659850D01*
X126193838Y-88659850D01*
X126077180Y-88468227D01*
X125895790Y-88173817D01*
X125690452Y-87846689D01*
X125467886Y-87497179D01*
X125234812Y-87135625D01*
X124997949Y-86772365D01*
X124764019Y-86417736D01*
X124539741Y-86082075D01*
X124331834Y-85775720D01*
X124243029Y-85646739D01*
X124137222Y-85496064D01*
X124009540Y-85317778D01*
X123865258Y-85118959D01*
X123709653Y-84906687D01*
X123547998Y-84688039D01*
X123385570Y-84470095D01*
X123227643Y-84259935D01*
X123079493Y-84064637D01*
X122946395Y-83891279D01*
X122833625Y-83746942D01*
X122748286Y-83640918D01*
X122587087Y-83445607D01*
X122587087Y-88659850D01*
X121239117Y-88659850D01*
X121239117Y-81312087D01*
X122369921Y-81312087D01*
X122578873Y-81543357D01*
G36*
X138709876Y-88659850D02*
G01*
X137361905Y-88659850D01*
X137361905Y-81312087D01*
X138709876Y-81312087D01*
X138709876Y-88659850D01*
X138709876Y-88659850D01*
G37*
X138709876Y-88659850D02*
X137361905Y-88659850D01*
X137361905Y-81312087D01*
X138709876Y-81312087D01*
X138709876Y-88659850D01*
D11*
X103700000Y-185330000D02*
X103700000Y-182670000D01*
X96020000Y-185330000D02*
X103700000Y-185330000D01*
X96020000Y-182670000D02*
X103700000Y-182670000D01*
X96020000Y-185330000D02*
X96020000Y-182670000D01*
X94750000Y-185330000D02*
X93420000Y-185330000D01*
X93420000Y-185330000D02*
X93420000Y-184000000D01*
D12*
X97551600Y-176243400D02*
X93151600Y-176243400D01*
X99126600Y-181768400D02*
X93151600Y-181768400D01*
D11*
X151620000Y-181520000D02*
X151620000Y-175520000D01*
X151620000Y-175520000D02*
X118400000Y-175520000D01*
X118400000Y-175520000D02*
X118400000Y-181520000D01*
X118400000Y-181520000D02*
X151620000Y-181520000D01*
X150250000Y-175520000D02*
X150250000Y-176520000D01*
X150250000Y-176520000D02*
X145170000Y-176520000D01*
X145170000Y-176520000D02*
X145170000Y-175520000D01*
X150250000Y-176520000D02*
X150000000Y-176950000D01*
X150000000Y-176950000D02*
X145170000Y-176950000D01*
X145170000Y-176950000D02*
X145170000Y-176520000D01*
X150000000Y-175520000D02*
X150000000Y-176520000D01*
X119770000Y-175520000D02*
X119770000Y-176520000D01*
X119770000Y-176520000D02*
X124850000Y-176520000D01*
X124850000Y-176520000D02*
X124850000Y-175520000D01*
X119770000Y-176520000D02*
X120020000Y-176950000D01*
X120020000Y-176950000D02*
X124850000Y-176950000D01*
X124850000Y-176950000D02*
X124850000Y-176520000D01*
X120020000Y-175520000D02*
X120020000Y-176520000D01*
X151050000Y-181520000D02*
X151050000Y-180900000D01*
X151050000Y-180900000D02*
X149450000Y-180900000D01*
X149450000Y-180900000D02*
X149450000Y-181520000D01*
X148510000Y-181520000D02*
X148510000Y-180900000D01*
X148510000Y-180900000D02*
X146910000Y-180900000D01*
X146910000Y-180900000D02*
X146910000Y-181520000D01*
X145970000Y-181520000D02*
X145970000Y-180900000D01*
X145970000Y-180900000D02*
X144370000Y-180900000D01*
X144370000Y-180900000D02*
X144370000Y-181520000D01*
X143430000Y-181520000D02*
X143430000Y-180900000D01*
X143430000Y-180900000D02*
X141830000Y-180900000D01*
X141830000Y-180900000D02*
X141830000Y-181520000D01*
X140890000Y-181520000D02*
X140890000Y-180900000D01*
X140890000Y-180900000D02*
X139290000Y-180900000D01*
X139290000Y-180900000D02*
X139290000Y-181520000D01*
X138350000Y-181520000D02*
X138350000Y-180900000D01*
X138350000Y-180900000D02*
X136750000Y-180900000D01*
X136750000Y-180900000D02*
X136750000Y-181520000D01*
X135810000Y-181520000D02*
X135810000Y-180900000D01*
X135810000Y-180900000D02*
X134210000Y-180900000D01*
X134210000Y-180900000D02*
X134210000Y-181520000D01*
X133270000Y-181520000D02*
X133270000Y-180900000D01*
X133270000Y-180900000D02*
X131670000Y-180900000D01*
X131670000Y-180900000D02*
X131670000Y-181520000D01*
X130730000Y-181520000D02*
X130730000Y-180900000D01*
X130730000Y-180900000D02*
X129130000Y-180900000D01*
X129130000Y-180900000D02*
X129130000Y-181520000D01*
X128190000Y-181520000D02*
X128190000Y-180900000D01*
X128190000Y-180900000D02*
X126590000Y-180900000D01*
X126590000Y-180900000D02*
X126590000Y-181520000D01*
X125650000Y-181520000D02*
X125650000Y-180900000D01*
X125650000Y-180900000D02*
X124050000Y-180900000D01*
X124050000Y-180900000D02*
X124050000Y-181520000D01*
X123110000Y-181520000D02*
X123110000Y-180900000D01*
X123110000Y-180900000D02*
X121510000Y-180900000D01*
X121510000Y-180900000D02*
X121510000Y-181520000D01*
X120570000Y-181520000D02*
X120570000Y-180900000D01*
X120570000Y-180900000D02*
X118970000Y-180900000D01*
X118970000Y-180900000D02*
X118970000Y-181520000D01*
X90688400Y-183743400D02*
X89988400Y-183743400D01*
X89988400Y-182543400D02*
X90688400Y-182543400D01*
X90688400Y-185143400D02*
X89988400Y-185143400D01*
X89988400Y-183943400D02*
X90688400Y-183943400D01*
X221453000Y-21377800D02*
X220253000Y-21377800D01*
X220253000Y-19617800D02*
X221453000Y-19617800D01*
X192319200Y-38167200D02*
X191119200Y-38167200D01*
X191119200Y-36407200D02*
X192319200Y-36407200D01*
X163083800Y-55159800D02*
X161883800Y-55159800D01*
X161883800Y-53399800D02*
X163083800Y-53399800D01*
X102153000Y-178976400D02*
X102153000Y-179976400D01*
X100793000Y-179976400D02*
X100793000Y-178976400D01*
X90671000Y-186735000D02*
X89671000Y-186735000D01*
X89671000Y-185375000D02*
X90671000Y-185375000D01*
X108045400Y-175638400D02*
X107045400Y-175638400D01*
X107045400Y-174278400D02*
X108045400Y-174278400D01*
X108045400Y-177238400D02*
X107045400Y-177238400D01*
X107045400Y-175878400D02*
X108045400Y-175878400D01*
X108045400Y-178838400D02*
X107045400Y-178838400D01*
X107045400Y-177478400D02*
X108045400Y-177478400D01*
X108045400Y-180438400D02*
X107045400Y-180438400D01*
X107045400Y-179078400D02*
X108045400Y-179078400D01*
X108045400Y-182038400D02*
X107045400Y-182038400D01*
X107045400Y-180678400D02*
X108045400Y-180678400D01*
X108045400Y-183638400D02*
X107045400Y-183638400D01*
X107045400Y-182278400D02*
X108045400Y-182278400D01*
X108045400Y-185238400D02*
X107045400Y-185238400D01*
X107045400Y-183878400D02*
X108045400Y-183878400D01*
X108045400Y-186838400D02*
X107045400Y-186838400D01*
X107045400Y-185478400D02*
X108045400Y-185478400D01*
X86370000Y-187020000D02*
X86370000Y-181020000D01*
X86370000Y-181020000D02*
X76010000Y-181020000D01*
X76010000Y-181020000D02*
X76010000Y-187020000D01*
X76010000Y-187020000D02*
X86370000Y-187020000D01*
X85000000Y-181020000D02*
X85000000Y-182020000D01*
X85000000Y-182020000D02*
X77380000Y-182020000D01*
X77380000Y-182020000D02*
X77380000Y-181020000D01*
X85000000Y-182020000D02*
X84750000Y-182450000D01*
X84750000Y-182450000D02*
X77630000Y-182450000D01*
X77630000Y-182450000D02*
X77380000Y-182020000D01*
X84750000Y-181020000D02*
X84750000Y-182020000D01*
X77630000Y-181020000D02*
X77630000Y-182020000D01*
X85800000Y-187020000D02*
X85800000Y-186400000D01*
X85800000Y-186400000D02*
X84200000Y-186400000D01*
X84200000Y-186400000D02*
X84200000Y-187020000D01*
X83260000Y-187020000D02*
X83260000Y-186400000D01*
X83260000Y-186400000D02*
X81660000Y-186400000D01*
X81660000Y-186400000D02*
X81660000Y-187020000D01*
X80720000Y-187020000D02*
X80720000Y-186400000D01*
X80720000Y-186400000D02*
X79120000Y-186400000D01*
X79120000Y-186400000D02*
X79120000Y-187020000D01*
X78180000Y-187020000D02*
X78180000Y-186400000D01*
X78180000Y-186400000D02*
X76580000Y-186400000D01*
X76580000Y-186400000D02*
X76580000Y-187020000D01*
X103743200Y-179801000D02*
X103743200Y-179101000D01*
X104943200Y-179101000D02*
X104943200Y-179801000D01*
X102346200Y-179801000D02*
X102346200Y-179101000D01*
X103546200Y-179101000D02*
X103546200Y-179801000D01*
X112914800Y-174358400D02*
X113614800Y-174358400D01*
X113614800Y-175558400D02*
X112914800Y-175558400D01*
X112914800Y-175958400D02*
X113614800Y-175958400D01*
X113614800Y-177158400D02*
X112914800Y-177158400D01*
X112914800Y-177558400D02*
X113614800Y-177558400D01*
X113614800Y-178758400D02*
X112914800Y-178758400D01*
X112914800Y-179158400D02*
X113614800Y-179158400D01*
X113614800Y-180358400D02*
X112914800Y-180358400D01*
X112914800Y-180658400D02*
X113614800Y-180658400D01*
X113614800Y-181858400D02*
X112914800Y-181858400D01*
X112914800Y-182358400D02*
X113614800Y-182358400D01*
X113614800Y-183558400D02*
X112914800Y-183558400D01*
X112914800Y-183958400D02*
X113614800Y-183958400D01*
X113614800Y-185158400D02*
X112914800Y-185158400D01*
X112914800Y-185558400D02*
X113614800Y-185558400D01*
X113614800Y-186758400D02*
X112914800Y-186758400D01*
X118420000Y-185330000D02*
X118420000Y-184000000D01*
X119750000Y-185330000D02*
X118420000Y-185330000D01*
X121020000Y-185330000D02*
X121020000Y-182670000D01*
X121020000Y-182670000D02*
X151560000Y-182670000D01*
X121020000Y-185330000D02*
X151560000Y-185330000D01*
X151560000Y-185330000D02*
X151560000Y-182670000D01*
X133797600Y-72177800D02*
X132597600Y-72177800D01*
X132597600Y-70417800D02*
X133797600Y-70417800D01*
X104689200Y-89094200D02*
X103489200Y-89094200D01*
X103489200Y-87334200D02*
X104689200Y-87334200D01*
X94630800Y-105934400D02*
X93430800Y-105934400D01*
X93430800Y-104174400D02*
X94630800Y-104174400D01*
X46015200Y-122673000D02*
X44815200Y-122673000D01*
X44815200Y-120913000D02*
X46015200Y-120913000D01*
X26431800Y-155870800D02*
X25231800Y-155870800D01*
X25231800Y-154110800D02*
X26431800Y-154110800D01*
D12*
X73830371Y-44743904D02*
X73877990Y-44601047D01*
X73925609Y-44553428D01*
X74020847Y-44505809D01*
X74163704Y-44505809D01*
X74258942Y-44553428D01*
X74306561Y-44601047D01*
X74354180Y-44696285D01*
X74354180Y-45077238D01*
X73354180Y-45077238D01*
X73354180Y-44743904D01*
X73401800Y-44648666D01*
X73449419Y-44601047D01*
X73544657Y-44553428D01*
X73639895Y-44553428D01*
X73735133Y-44601047D01*
X73782752Y-44648666D01*
X73830371Y-44743904D01*
X73830371Y-45077238D01*
X73354180Y-44220095D02*
X73354180Y-43648666D01*
X74354180Y-43934380D02*
X73354180Y-43934380D01*
X73354180Y-43410571D02*
X73354180Y-42791523D01*
X73735133Y-43124857D01*
X73735133Y-42982000D01*
X73782752Y-42886761D01*
X73830371Y-42839142D01*
X73925609Y-42791523D01*
X74163704Y-42791523D01*
X74258942Y-42839142D01*
X74306561Y-42886761D01*
X74354180Y-42982000D01*
X74354180Y-43267714D01*
X74306561Y-43362952D01*
X74258942Y-43410571D01*
X73687514Y-41934380D02*
X74354180Y-41934380D01*
X73306561Y-42172476D02*
X74020847Y-42410571D01*
X74020847Y-41791523D01*
X98666666Y-186452380D02*
X98666666Y-187166666D01*
X98619047Y-187309523D01*
X98523809Y-187404761D01*
X98380952Y-187452380D01*
X98285714Y-187452380D01*
X99571428Y-186785714D02*
X99571428Y-187452380D01*
X99333333Y-186404761D02*
X99095238Y-187119047D01*
X99714285Y-187119047D01*
X94742095Y-175194980D02*
X94742095Y-176004504D01*
X94789714Y-176099742D01*
X94837333Y-176147361D01*
X94932571Y-176194980D01*
X95123047Y-176194980D01*
X95218285Y-176147361D01*
X95265904Y-176099742D01*
X95313523Y-176004504D01*
X95313523Y-175194980D01*
X96313523Y-176194980D02*
X95742095Y-176194980D01*
X96027809Y-176194980D02*
X96027809Y-175194980D01*
X95932571Y-175337838D01*
X95837333Y-175433076D01*
X95742095Y-175480695D01*
X148916666Y-182452380D02*
X148916666Y-183166666D01*
X148869047Y-183309523D01*
X148773809Y-183404761D01*
X148630952Y-183452380D01*
X148535714Y-183452380D01*
X149297619Y-182452380D02*
X149916666Y-182452380D01*
X149583333Y-182833333D01*
X149726190Y-182833333D01*
X149821428Y-182880952D01*
X149869047Y-182928571D01*
X149916666Y-183023809D01*
X149916666Y-183261904D01*
X149869047Y-183357142D01*
X149821428Y-183404761D01*
X149726190Y-183452380D01*
X149440476Y-183452380D01*
X149345238Y-183404761D01*
X149297619Y-183357142D01*
X89429342Y-178465742D02*
X89381723Y-178513361D01*
X89238866Y-178560980D01*
X89143628Y-178560980D01*
X89000771Y-178513361D01*
X88905533Y-178418123D01*
X88857914Y-178322885D01*
X88810295Y-178132409D01*
X88810295Y-177989552D01*
X88857914Y-177799076D01*
X88905533Y-177703838D01*
X89000771Y-177608600D01*
X89143628Y-177560980D01*
X89238866Y-177560980D01*
X89381723Y-177608600D01*
X89429342Y-177656219D01*
X90381723Y-178560980D02*
X89810295Y-178560980D01*
X90096009Y-178560980D02*
X90096009Y-177560980D01*
X90000771Y-177703838D01*
X89905533Y-177799076D01*
X89810295Y-177846695D01*
X90762676Y-177656219D02*
X90810295Y-177608600D01*
X90905533Y-177560980D01*
X91143628Y-177560980D01*
X91238866Y-177608600D01*
X91286485Y-177656219D01*
X91334104Y-177751457D01*
X91334104Y-177846695D01*
X91286485Y-177989552D01*
X90715057Y-178560980D01*
X91334104Y-178560980D01*
X89429342Y-179964342D02*
X89381723Y-180011961D01*
X89238866Y-180059580D01*
X89143628Y-180059580D01*
X89000771Y-180011961D01*
X88905533Y-179916723D01*
X88857914Y-179821485D01*
X88810295Y-179631009D01*
X88810295Y-179488152D01*
X88857914Y-179297676D01*
X88905533Y-179202438D01*
X89000771Y-179107200D01*
X89143628Y-179059580D01*
X89238866Y-179059580D01*
X89381723Y-179107200D01*
X89429342Y-179154819D01*
X90381723Y-180059580D02*
X89810295Y-180059580D01*
X90096009Y-180059580D02*
X90096009Y-179059580D01*
X90000771Y-179202438D01*
X89905533Y-179297676D01*
X89810295Y-179345295D01*
X91334104Y-180059580D02*
X90762676Y-180059580D01*
X91048390Y-180059580D02*
X91048390Y-179059580D01*
X90953152Y-179202438D01*
X90857914Y-179297676D01*
X90762676Y-179345295D01*
X219567285Y-18250180D02*
X220138714Y-18250180D01*
X219853000Y-19250180D02*
X219853000Y-18250180D01*
X220472047Y-19250180D02*
X220472047Y-18250180D01*
X220472047Y-18726371D02*
X221043476Y-18726371D01*
X221043476Y-19250180D02*
X221043476Y-18250180D01*
X221662523Y-18678752D02*
X221567285Y-18631133D01*
X221519666Y-18583514D01*
X221472047Y-18488276D01*
X221472047Y-18440657D01*
X221519666Y-18345419D01*
X221567285Y-18297800D01*
X221662523Y-18250180D01*
X221853000Y-18250180D01*
X221948238Y-18297800D01*
X221995857Y-18345419D01*
X222043476Y-18440657D01*
X222043476Y-18488276D01*
X221995857Y-18583514D01*
X221948238Y-18631133D01*
X221853000Y-18678752D01*
X221662523Y-18678752D01*
X221567285Y-18726371D01*
X221519666Y-18773990D01*
X221472047Y-18869228D01*
X221472047Y-19059704D01*
X221519666Y-19154942D01*
X221567285Y-19202561D01*
X221662523Y-19250180D01*
X221853000Y-19250180D01*
X221948238Y-19202561D01*
X221995857Y-19154942D01*
X222043476Y-19059704D01*
X222043476Y-18869228D01*
X221995857Y-18773990D01*
X221948238Y-18726371D01*
X221853000Y-18678752D01*
X190433485Y-35039580D02*
X191004914Y-35039580D01*
X190719200Y-36039580D02*
X190719200Y-35039580D01*
X191338247Y-36039580D02*
X191338247Y-35039580D01*
X191338247Y-35515771D02*
X191909676Y-35515771D01*
X191909676Y-36039580D02*
X191909676Y-35039580D01*
X192290628Y-35039580D02*
X192957295Y-35039580D01*
X192528723Y-36039580D01*
X161198085Y-52032180D02*
X161769514Y-52032180D01*
X161483800Y-53032180D02*
X161483800Y-52032180D01*
X162102847Y-53032180D02*
X162102847Y-52032180D01*
X162102847Y-52508371D02*
X162674276Y-52508371D01*
X162674276Y-53032180D02*
X162674276Y-52032180D01*
X163579038Y-52032180D02*
X163388561Y-52032180D01*
X163293323Y-52079800D01*
X163245704Y-52127419D01*
X163150466Y-52270276D01*
X163102847Y-52460752D01*
X163102847Y-52841704D01*
X163150466Y-52936942D01*
X163198085Y-52984561D01*
X163293323Y-53032180D01*
X163483800Y-53032180D01*
X163579038Y-52984561D01*
X163626657Y-52936942D01*
X163674276Y-52841704D01*
X163674276Y-52603609D01*
X163626657Y-52508371D01*
X163579038Y-52460752D01*
X163483800Y-52413133D01*
X163293323Y-52413133D01*
X163198085Y-52460752D01*
X163150466Y-52508371D01*
X163102847Y-52603609D01*
X101054019Y-175376342D02*
X101530209Y-175043009D01*
X101054019Y-174804914D02*
X102054019Y-174804914D01*
X102054019Y-175185866D01*
X102006400Y-175281104D01*
X101958780Y-175328723D01*
X101863542Y-175376342D01*
X101720685Y-175376342D01*
X101625447Y-175328723D01*
X101577828Y-175281104D01*
X101530209Y-175185866D01*
X101530209Y-174804914D01*
X101054019Y-176328723D02*
X101054019Y-175757295D01*
X101054019Y-176043009D02*
X102054019Y-176043009D01*
X101911161Y-175947771D01*
X101815923Y-175852533D01*
X101768304Y-175757295D01*
X102054019Y-176947771D02*
X102054019Y-177043009D01*
X102006400Y-177138247D01*
X101958780Y-177185866D01*
X101863542Y-177233485D01*
X101673066Y-177281104D01*
X101434971Y-177281104D01*
X101244495Y-177233485D01*
X101149257Y-177185866D01*
X101101638Y-177138247D01*
X101054019Y-177043009D01*
X101054019Y-176947771D01*
X101101638Y-176852533D01*
X101149257Y-176804914D01*
X101244495Y-176757295D01*
X101434971Y-176709676D01*
X101673066Y-176709676D01*
X101863542Y-176757295D01*
X101958780Y-176804914D01*
X102006400Y-176852533D01*
X102054019Y-176947771D01*
X90083333Y-181507380D02*
X89750000Y-181031190D01*
X89511904Y-181507380D02*
X89511904Y-180507380D01*
X89892857Y-180507380D01*
X89988095Y-180555000D01*
X90035714Y-180602619D01*
X90083333Y-180697857D01*
X90083333Y-180840714D01*
X90035714Y-180935952D01*
X89988095Y-180983571D01*
X89892857Y-181031190D01*
X89511904Y-181031190D01*
X90559523Y-181507380D02*
X90750000Y-181507380D01*
X90845238Y-181459761D01*
X90892857Y-181412142D01*
X90988095Y-181269285D01*
X91035714Y-181078809D01*
X91035714Y-180697857D01*
X90988095Y-180602619D01*
X90940476Y-180555000D01*
X90845238Y-180507380D01*
X90654761Y-180507380D01*
X90559523Y-180555000D01*
X90511904Y-180602619D01*
X90464285Y-180697857D01*
X90464285Y-180935952D01*
X90511904Y-181031190D01*
X90559523Y-181078809D01*
X90654761Y-181126428D01*
X90845238Y-181126428D01*
X90940476Y-181078809D01*
X90988095Y-181031190D01*
X91035714Y-180935952D01*
X110286933Y-175431180D02*
X109953600Y-174954990D01*
X109715504Y-175431180D02*
X109715504Y-174431180D01*
X110096457Y-174431180D01*
X110191695Y-174478800D01*
X110239314Y-174526419D01*
X110286933Y-174621657D01*
X110286933Y-174764514D01*
X110239314Y-174859752D01*
X110191695Y-174907371D01*
X110096457Y-174954990D01*
X109715504Y-174954990D01*
X110858361Y-174859752D02*
X110763123Y-174812133D01*
X110715504Y-174764514D01*
X110667885Y-174669276D01*
X110667885Y-174621657D01*
X110715504Y-174526419D01*
X110763123Y-174478800D01*
X110858361Y-174431180D01*
X111048838Y-174431180D01*
X111144076Y-174478800D01*
X111191695Y-174526419D01*
X111239314Y-174621657D01*
X111239314Y-174669276D01*
X111191695Y-174764514D01*
X111144076Y-174812133D01*
X111048838Y-174859752D01*
X110858361Y-174859752D01*
X110763123Y-174907371D01*
X110715504Y-174954990D01*
X110667885Y-175050228D01*
X110667885Y-175240704D01*
X110715504Y-175335942D01*
X110763123Y-175383561D01*
X110858361Y-175431180D01*
X111048838Y-175431180D01*
X111144076Y-175383561D01*
X111191695Y-175335942D01*
X111239314Y-175240704D01*
X111239314Y-175050228D01*
X111191695Y-174954990D01*
X111144076Y-174907371D01*
X111048838Y-174859752D01*
X110286933Y-177010780D02*
X109953600Y-176534590D01*
X109715504Y-177010780D02*
X109715504Y-176010780D01*
X110096457Y-176010780D01*
X110191695Y-176058400D01*
X110239314Y-176106019D01*
X110286933Y-176201257D01*
X110286933Y-176344114D01*
X110239314Y-176439352D01*
X110191695Y-176486971D01*
X110096457Y-176534590D01*
X109715504Y-176534590D01*
X110620266Y-176010780D02*
X111286933Y-176010780D01*
X110858361Y-177010780D01*
X110286933Y-178631180D02*
X109953600Y-178154990D01*
X109715504Y-178631180D02*
X109715504Y-177631180D01*
X110096457Y-177631180D01*
X110191695Y-177678800D01*
X110239314Y-177726419D01*
X110286933Y-177821657D01*
X110286933Y-177964514D01*
X110239314Y-178059752D01*
X110191695Y-178107371D01*
X110096457Y-178154990D01*
X109715504Y-178154990D01*
X111144076Y-177631180D02*
X110953600Y-177631180D01*
X110858361Y-177678800D01*
X110810742Y-177726419D01*
X110715504Y-177869276D01*
X110667885Y-178059752D01*
X110667885Y-178440704D01*
X110715504Y-178535942D01*
X110763123Y-178583561D01*
X110858361Y-178631180D01*
X111048838Y-178631180D01*
X111144076Y-178583561D01*
X111191695Y-178535942D01*
X111239314Y-178440704D01*
X111239314Y-178202609D01*
X111191695Y-178107371D01*
X111144076Y-178059752D01*
X111048838Y-178012133D01*
X110858361Y-178012133D01*
X110763123Y-178059752D01*
X110715504Y-178107371D01*
X110667885Y-178202609D01*
X110286933Y-180210780D02*
X109953600Y-179734590D01*
X109715504Y-180210780D02*
X109715504Y-179210780D01*
X110096457Y-179210780D01*
X110191695Y-179258400D01*
X110239314Y-179306019D01*
X110286933Y-179401257D01*
X110286933Y-179544114D01*
X110239314Y-179639352D01*
X110191695Y-179686971D01*
X110096457Y-179734590D01*
X109715504Y-179734590D01*
X111191695Y-179210780D02*
X110715504Y-179210780D01*
X110667885Y-179686971D01*
X110715504Y-179639352D01*
X110810742Y-179591733D01*
X111048838Y-179591733D01*
X111144076Y-179639352D01*
X111191695Y-179686971D01*
X111239314Y-179782209D01*
X111239314Y-180020304D01*
X111191695Y-180115542D01*
X111144076Y-180163161D01*
X111048838Y-180210780D01*
X110810742Y-180210780D01*
X110715504Y-180163161D01*
X110667885Y-180115542D01*
X110286933Y-181810780D02*
X109953600Y-181334590D01*
X109715504Y-181810780D02*
X109715504Y-180810780D01*
X110096457Y-180810780D01*
X110191695Y-180858400D01*
X110239314Y-180906019D01*
X110286933Y-181001257D01*
X110286933Y-181144114D01*
X110239314Y-181239352D01*
X110191695Y-181286971D01*
X110096457Y-181334590D01*
X109715504Y-181334590D01*
X111144076Y-181144114D02*
X111144076Y-181810780D01*
X110905980Y-180763161D02*
X110667885Y-181477447D01*
X111286933Y-181477447D01*
X110286933Y-183431180D02*
X109953600Y-182954990D01*
X109715504Y-183431180D02*
X109715504Y-182431180D01*
X110096457Y-182431180D01*
X110191695Y-182478800D01*
X110239314Y-182526419D01*
X110286933Y-182621657D01*
X110286933Y-182764514D01*
X110239314Y-182859752D01*
X110191695Y-182907371D01*
X110096457Y-182954990D01*
X109715504Y-182954990D01*
X110620266Y-182431180D02*
X111239314Y-182431180D01*
X110905980Y-182812133D01*
X111048838Y-182812133D01*
X111144076Y-182859752D01*
X111191695Y-182907371D01*
X111239314Y-183002609D01*
X111239314Y-183240704D01*
X111191695Y-183335942D01*
X111144076Y-183383561D01*
X111048838Y-183431180D01*
X110763123Y-183431180D01*
X110667885Y-183383561D01*
X110620266Y-183335942D01*
X110286933Y-185010780D02*
X109953600Y-184534590D01*
X109715504Y-185010780D02*
X109715504Y-184010780D01*
X110096457Y-184010780D01*
X110191695Y-184058400D01*
X110239314Y-184106019D01*
X110286933Y-184201257D01*
X110286933Y-184344114D01*
X110239314Y-184439352D01*
X110191695Y-184486971D01*
X110096457Y-184534590D01*
X109715504Y-184534590D01*
X110667885Y-184106019D02*
X110715504Y-184058400D01*
X110810742Y-184010780D01*
X111048838Y-184010780D01*
X111144076Y-184058400D01*
X111191695Y-184106019D01*
X111239314Y-184201257D01*
X111239314Y-184296495D01*
X111191695Y-184439352D01*
X110620266Y-185010780D01*
X111239314Y-185010780D01*
X110286933Y-186610780D02*
X109953600Y-186134590D01*
X109715504Y-186610780D02*
X109715504Y-185610780D01*
X110096457Y-185610780D01*
X110191695Y-185658400D01*
X110239314Y-185706019D01*
X110286933Y-185801257D01*
X110286933Y-185944114D01*
X110239314Y-186039352D01*
X110191695Y-186086971D01*
X110096457Y-186134590D01*
X109715504Y-186134590D01*
X111239314Y-186610780D02*
X110667885Y-186610780D01*
X110953600Y-186610780D02*
X110953600Y-185610780D01*
X110858361Y-185753638D01*
X110763123Y-185848876D01*
X110667885Y-185896495D01*
X83666666Y-187952380D02*
X83666666Y-188666666D01*
X83619047Y-188809523D01*
X83523809Y-188904761D01*
X83380952Y-188952380D01*
X83285714Y-188952380D01*
X84095238Y-188047619D02*
X84142857Y-188000000D01*
X84238095Y-187952380D01*
X84476190Y-187952380D01*
X84571428Y-188000000D01*
X84619047Y-188047619D01*
X84666666Y-188142857D01*
X84666666Y-188238095D01*
X84619047Y-188380952D01*
X84047619Y-188952380D01*
X84666666Y-188952380D01*
X104020857Y-175277942D02*
X103973238Y-175230323D01*
X103925619Y-175087466D01*
X103925619Y-174992228D01*
X103973238Y-174849371D01*
X104068476Y-174754133D01*
X104163714Y-174706514D01*
X104354190Y-174658895D01*
X104497047Y-174658895D01*
X104687523Y-174706514D01*
X104782761Y-174754133D01*
X104878000Y-174849371D01*
X104925619Y-174992228D01*
X104925619Y-175087466D01*
X104878000Y-175230323D01*
X104830380Y-175277942D01*
X103925619Y-176230323D02*
X103925619Y-175658895D01*
X103925619Y-175944609D02*
X104925619Y-175944609D01*
X104782761Y-175849371D01*
X104687523Y-175754133D01*
X104639904Y-175658895D01*
X104925619Y-176849371D02*
X104925619Y-176944609D01*
X104878000Y-177039847D01*
X104830380Y-177087466D01*
X104735142Y-177135085D01*
X104544666Y-177182704D01*
X104306571Y-177182704D01*
X104116095Y-177135085D01*
X104020857Y-177087466D01*
X103973238Y-177039847D01*
X103925619Y-176944609D01*
X103925619Y-176849371D01*
X103973238Y-176754133D01*
X104020857Y-176706514D01*
X104116095Y-176658895D01*
X104306571Y-176611276D01*
X104544666Y-176611276D01*
X104735142Y-176658895D01*
X104830380Y-176706514D01*
X104878000Y-176754133D01*
X104925619Y-176849371D01*
X102626857Y-176389133D02*
X102579238Y-176341514D01*
X102531619Y-176198657D01*
X102531619Y-176103419D01*
X102579238Y-175960561D01*
X102674476Y-175865323D01*
X102769714Y-175817704D01*
X102960190Y-175770085D01*
X103103047Y-175770085D01*
X103293523Y-175817704D01*
X103388761Y-175865323D01*
X103484000Y-175960561D01*
X103531619Y-176103419D01*
X103531619Y-176198657D01*
X103484000Y-176341514D01*
X103436380Y-176389133D01*
X102531619Y-176865323D02*
X102531619Y-177055800D01*
X102579238Y-177151038D01*
X102626857Y-177198657D01*
X102769714Y-177293895D01*
X102960190Y-177341514D01*
X103341142Y-177341514D01*
X103436380Y-177293895D01*
X103484000Y-177246276D01*
X103531619Y-177151038D01*
X103531619Y-176960561D01*
X103484000Y-176865323D01*
X103436380Y-176817704D01*
X103341142Y-176770085D01*
X103103047Y-176770085D01*
X103007809Y-176817704D01*
X102960190Y-176865323D01*
X102912571Y-176960561D01*
X102912571Y-177151038D01*
X102960190Y-177246276D01*
X103007809Y-177293895D01*
X103103047Y-177341514D01*
X116098133Y-175315542D02*
X116050514Y-175363161D01*
X115907657Y-175410780D01*
X115812419Y-175410780D01*
X115669561Y-175363161D01*
X115574323Y-175267923D01*
X115526704Y-175172685D01*
X115479085Y-174982209D01*
X115479085Y-174839352D01*
X115526704Y-174648876D01*
X115574323Y-174553638D01*
X115669561Y-174458400D01*
X115812419Y-174410780D01*
X115907657Y-174410780D01*
X116050514Y-174458400D01*
X116098133Y-174506019D01*
X116669561Y-174839352D02*
X116574323Y-174791733D01*
X116526704Y-174744114D01*
X116479085Y-174648876D01*
X116479085Y-174601257D01*
X116526704Y-174506019D01*
X116574323Y-174458400D01*
X116669561Y-174410780D01*
X116860038Y-174410780D01*
X116955276Y-174458400D01*
X117002895Y-174506019D01*
X117050514Y-174601257D01*
X117050514Y-174648876D01*
X117002895Y-174744114D01*
X116955276Y-174791733D01*
X116860038Y-174839352D01*
X116669561Y-174839352D01*
X116574323Y-174886971D01*
X116526704Y-174934590D01*
X116479085Y-175029828D01*
X116479085Y-175220304D01*
X116526704Y-175315542D01*
X116574323Y-175363161D01*
X116669561Y-175410780D01*
X116860038Y-175410780D01*
X116955276Y-175363161D01*
X117002895Y-175315542D01*
X117050514Y-175220304D01*
X117050514Y-175029828D01*
X117002895Y-174934590D01*
X116955276Y-174886971D01*
X116860038Y-174839352D01*
X116098133Y-176915542D02*
X116050514Y-176963161D01*
X115907657Y-177010780D01*
X115812419Y-177010780D01*
X115669561Y-176963161D01*
X115574323Y-176867923D01*
X115526704Y-176772685D01*
X115479085Y-176582209D01*
X115479085Y-176439352D01*
X115526704Y-176248876D01*
X115574323Y-176153638D01*
X115669561Y-176058400D01*
X115812419Y-176010780D01*
X115907657Y-176010780D01*
X116050514Y-176058400D01*
X116098133Y-176106019D01*
X116431466Y-176010780D02*
X117098133Y-176010780D01*
X116669561Y-177010780D01*
X116098133Y-178515542D02*
X116050514Y-178563161D01*
X115907657Y-178610780D01*
X115812419Y-178610780D01*
X115669561Y-178563161D01*
X115574323Y-178467923D01*
X115526704Y-178372685D01*
X115479085Y-178182209D01*
X115479085Y-178039352D01*
X115526704Y-177848876D01*
X115574323Y-177753638D01*
X115669561Y-177658400D01*
X115812419Y-177610780D01*
X115907657Y-177610780D01*
X116050514Y-177658400D01*
X116098133Y-177706019D01*
X116955276Y-177610780D02*
X116764800Y-177610780D01*
X116669561Y-177658400D01*
X116621942Y-177706019D01*
X116526704Y-177848876D01*
X116479085Y-178039352D01*
X116479085Y-178420304D01*
X116526704Y-178515542D01*
X116574323Y-178563161D01*
X116669561Y-178610780D01*
X116860038Y-178610780D01*
X116955276Y-178563161D01*
X117002895Y-178515542D01*
X117050514Y-178420304D01*
X117050514Y-178182209D01*
X117002895Y-178086971D01*
X116955276Y-178039352D01*
X116860038Y-177991733D01*
X116669561Y-177991733D01*
X116574323Y-178039352D01*
X116526704Y-178086971D01*
X116479085Y-178182209D01*
X116098133Y-180115542D02*
X116050514Y-180163161D01*
X115907657Y-180210780D01*
X115812419Y-180210780D01*
X115669561Y-180163161D01*
X115574323Y-180067923D01*
X115526704Y-179972685D01*
X115479085Y-179782209D01*
X115479085Y-179639352D01*
X115526704Y-179448876D01*
X115574323Y-179353638D01*
X115669561Y-179258400D01*
X115812419Y-179210780D01*
X115907657Y-179210780D01*
X116050514Y-179258400D01*
X116098133Y-179306019D01*
X117002895Y-179210780D02*
X116526704Y-179210780D01*
X116479085Y-179686971D01*
X116526704Y-179639352D01*
X116621942Y-179591733D01*
X116860038Y-179591733D01*
X116955276Y-179639352D01*
X117002895Y-179686971D01*
X117050514Y-179782209D01*
X117050514Y-180020304D01*
X117002895Y-180115542D01*
X116955276Y-180163161D01*
X116860038Y-180210780D01*
X116621942Y-180210780D01*
X116526704Y-180163161D01*
X116479085Y-180115542D01*
X116098133Y-181615542D02*
X116050514Y-181663161D01*
X115907657Y-181710780D01*
X115812419Y-181710780D01*
X115669561Y-181663161D01*
X115574323Y-181567923D01*
X115526704Y-181472685D01*
X115479085Y-181282209D01*
X115479085Y-181139352D01*
X115526704Y-180948876D01*
X115574323Y-180853638D01*
X115669561Y-180758400D01*
X115812419Y-180710780D01*
X115907657Y-180710780D01*
X116050514Y-180758400D01*
X116098133Y-180806019D01*
X116955276Y-181044114D02*
X116955276Y-181710780D01*
X116717180Y-180663161D02*
X116479085Y-181377447D01*
X117098133Y-181377447D01*
X116098133Y-183315542D02*
X116050514Y-183363161D01*
X115907657Y-183410780D01*
X115812419Y-183410780D01*
X115669561Y-183363161D01*
X115574323Y-183267923D01*
X115526704Y-183172685D01*
X115479085Y-182982209D01*
X115479085Y-182839352D01*
X115526704Y-182648876D01*
X115574323Y-182553638D01*
X115669561Y-182458400D01*
X115812419Y-182410780D01*
X115907657Y-182410780D01*
X116050514Y-182458400D01*
X116098133Y-182506019D01*
X116431466Y-182410780D02*
X117050514Y-182410780D01*
X116717180Y-182791733D01*
X116860038Y-182791733D01*
X116955276Y-182839352D01*
X117002895Y-182886971D01*
X117050514Y-182982209D01*
X117050514Y-183220304D01*
X117002895Y-183315542D01*
X116955276Y-183363161D01*
X116860038Y-183410780D01*
X116574323Y-183410780D01*
X116479085Y-183363161D01*
X116431466Y-183315542D01*
X116098133Y-184915542D02*
X116050514Y-184963161D01*
X115907657Y-185010780D01*
X115812419Y-185010780D01*
X115669561Y-184963161D01*
X115574323Y-184867923D01*
X115526704Y-184772685D01*
X115479085Y-184582209D01*
X115479085Y-184439352D01*
X115526704Y-184248876D01*
X115574323Y-184153638D01*
X115669561Y-184058400D01*
X115812419Y-184010780D01*
X115907657Y-184010780D01*
X116050514Y-184058400D01*
X116098133Y-184106019D01*
X116479085Y-184106019D02*
X116526704Y-184058400D01*
X116621942Y-184010780D01*
X116860038Y-184010780D01*
X116955276Y-184058400D01*
X117002895Y-184106019D01*
X117050514Y-184201257D01*
X117050514Y-184296495D01*
X117002895Y-184439352D01*
X116431466Y-185010780D01*
X117050514Y-185010780D01*
X115998133Y-186615542D02*
X115950514Y-186663161D01*
X115807657Y-186710780D01*
X115712419Y-186710780D01*
X115569561Y-186663161D01*
X115474323Y-186567923D01*
X115426704Y-186472685D01*
X115379085Y-186282209D01*
X115379085Y-186139352D01*
X115426704Y-185948876D01*
X115474323Y-185853638D01*
X115569561Y-185758400D01*
X115712419Y-185710780D01*
X115807657Y-185710780D01*
X115950514Y-185758400D01*
X115998133Y-185806019D01*
X116950514Y-186710780D02*
X116379085Y-186710780D01*
X116664800Y-186710780D02*
X116664800Y-185710780D01*
X116569561Y-185853638D01*
X116474323Y-185948876D01*
X116379085Y-185996495D01*
X131911885Y-69050180D02*
X132483314Y-69050180D01*
X132197600Y-70050180D02*
X132197600Y-69050180D01*
X132816647Y-70050180D02*
X132816647Y-69050180D01*
X132816647Y-69526371D02*
X133388076Y-69526371D01*
X133388076Y-70050180D02*
X133388076Y-69050180D01*
X134340457Y-69050180D02*
X133864266Y-69050180D01*
X133816647Y-69526371D01*
X133864266Y-69478752D01*
X133959504Y-69431133D01*
X134197600Y-69431133D01*
X134292838Y-69478752D01*
X134340457Y-69526371D01*
X134388076Y-69621609D01*
X134388076Y-69859704D01*
X134340457Y-69954942D01*
X134292838Y-70002561D01*
X134197600Y-70050180D01*
X133959504Y-70050180D01*
X133864266Y-70002561D01*
X133816647Y-69954942D01*
X102803485Y-86015580D02*
X103374914Y-86015580D01*
X103089200Y-87015580D02*
X103089200Y-86015580D01*
X103708247Y-87015580D02*
X103708247Y-86015580D01*
X103708247Y-86491771D02*
X104279676Y-86491771D01*
X104279676Y-87015580D02*
X104279676Y-86015580D01*
X105184438Y-86348914D02*
X105184438Y-87015580D01*
X104946342Y-85967961D02*
X104708247Y-86682247D01*
X105327295Y-86682247D01*
X92745085Y-102806780D02*
X93316514Y-102806780D01*
X93030800Y-103806780D02*
X93030800Y-102806780D01*
X93649847Y-103806780D02*
X93649847Y-102806780D01*
X93649847Y-103282971D02*
X94221276Y-103282971D01*
X94221276Y-103806780D02*
X94221276Y-102806780D01*
X94602228Y-102806780D02*
X95221276Y-102806780D01*
X94887942Y-103187733D01*
X95030800Y-103187733D01*
X95126038Y-103235352D01*
X95173657Y-103282971D01*
X95221276Y-103378209D01*
X95221276Y-103616304D01*
X95173657Y-103711542D01*
X95126038Y-103759161D01*
X95030800Y-103806780D01*
X94745085Y-103806780D01*
X94649847Y-103759161D01*
X94602228Y-103711542D01*
X44129485Y-119545380D02*
X44700914Y-119545380D01*
X44415200Y-120545380D02*
X44415200Y-119545380D01*
X45034247Y-120545380D02*
X45034247Y-119545380D01*
X45034247Y-120021571D02*
X45605676Y-120021571D01*
X45605676Y-120545380D02*
X45605676Y-119545380D01*
X46034247Y-119640619D02*
X46081866Y-119593000D01*
X46177104Y-119545380D01*
X46415200Y-119545380D01*
X46510438Y-119593000D01*
X46558057Y-119640619D01*
X46605676Y-119735857D01*
X46605676Y-119831095D01*
X46558057Y-119973952D01*
X45986628Y-120545380D01*
X46605676Y-120545380D01*
X24546085Y-152743180D02*
X25117514Y-152743180D01*
X24831800Y-153743180D02*
X24831800Y-152743180D01*
X25450847Y-153743180D02*
X25450847Y-152743180D01*
X25450847Y-153219371D02*
X26022276Y-153219371D01*
X26022276Y-153743180D02*
X26022276Y-152743180D01*
X27022276Y-153743180D02*
X26450847Y-153743180D01*
X26736561Y-153743180D02*
X26736561Y-152743180D01*
X26641323Y-152886038D01*
X26546085Y-152981276D01*
X26450847Y-153028895D01*
M02*
