G04 #@! TF.GenerationSoftware,KiCad,Pcbnew,(5.1.0-1152-gc9ccd8a64)*
G04 #@! TF.CreationDate,2019-07-22T10:45:48-04:00*
G04 #@! TF.ProjectId,pack,7061636b-2e6b-4696-9361-645f70636258,rev?*
G04 #@! TF.SameCoordinates,Original*
G04 #@! TF.FileFunction,Profile,NP*
%FSLAX46Y46*%
G04 Gerber Fmt 4.6, Leading zero omitted, Abs format (unit mm)*
G04 Created by KiCad (PCBNEW (5.1.0-1152-gc9ccd8a64)) date 2019-07-22 10:45:48*
%MOMM*%
%LPD*%
G04 APERTURE LIST*
%ADD10C,0.200000*%
%ADD11C,0.120000*%
G04 APERTURE END LIST*
D10*
X207750000Y-138668000D02*
G75*
G03X207750000Y-138668000I-2000000J0D01*
G01*
X129750000Y-138668000D02*
G75*
G03X129750000Y-138668000I-2000000J0D01*
G01*
X51750000Y-138668000D02*
G75*
G03X51750000Y-138668000I-2000000J0D01*
G01*
X207750000Y-104894000D02*
G75*
G03X207750000Y-104894000I-2000000J0D01*
G01*
X129750000Y-104894000D02*
G75*
G03X129750000Y-104894000I-2000000J0D01*
G01*
X51750000Y-104894000D02*
G75*
G03X51750000Y-104894000I-2000000J0D01*
G01*
X207750000Y-71120000D02*
G75*
G03X207750000Y-71120000I-2000000J0D01*
G01*
X129750000Y-71120000D02*
G75*
G03X129750000Y-71120000I-2000000J0D01*
G01*
X51750000Y-71120000D02*
G75*
G03X51750000Y-71120000I-2000000J0D01*
G01*
X207750000Y-37346000D02*
G75*
G03X207750000Y-37346000I-2000000J0D01*
G01*
X129750000Y-37346000D02*
G75*
G03X129750000Y-37346000I-2000000J0D01*
G01*
X51750000Y-37346000D02*
G75*
G03X51750000Y-37346000I-2000000J0D01*
G01*
D11*
X72750000Y-188000000D02*
X172750000Y-188000000D01*
X172750000Y-170000000D02*
X172750000Y-188000000D01*
X72750000Y-188000000D02*
X72750000Y-170000000D01*
X172750000Y-170000000D02*
X245500000Y-170000000D01*
X245500000Y0D02*
X245500000Y-170000000D01*
X0Y0D02*
X0Y-170000000D01*
X245500000Y0D02*
X0Y0D01*
X0Y-170000000D02*
X72750000Y-170000000D01*
M02*
