M48
; DRILL file {KiCad 6.0.0-rc1-unknown-5edf350~66~ubuntu18.10.1} date Thu 07 Feb 2019 09:33:16 AM EST
; FORMAT={2:4/ absolute / inch / suppress leading zeros}
; #@! TF.CreationDate,2019-02-07T09:33:16-05:00
; #@! TF.GenerationSoftware,Kicad,Pcbnew,6.0.0-rc1-unknown-5edf350~66~ubuntu18.10.1
FMAT,2
INCH,TZ
T1C0.0315
T2C0.0394
T3C0.1436
T4C0.2362
%
G90
G05
T1
X34646Y-12697
X36646Y-12697
X34547Y-25886
X36547Y-25886
T2
X6102Y-5906
X3937Y-25984
X27051Y-12697
X28051Y-12697
X26953Y-25886
X27953Y-25886
X3937Y-12598
X9646Y-36220
T3
X35433Y-15108
X35433Y-18515
X11811Y-1985
X11811Y-5392
X7874Y-33979
X7874Y-37385
X15748Y-7732
X15748Y-11139
X39370Y-7732
X39370Y-11139
X3937Y-28231
X3937Y-31638
X31496Y-20856
X31496Y-24262
X27559Y-1985
X27559Y-5392
X3937Y-15108
X3937Y-18515
X15748Y-20856
X15748Y-24262
X15748Y-33979
X15748Y-37385
X19685Y-28231
X19685Y-31638
X35433Y-1985
X35433Y-5392
X3937Y-1985
X3937Y-5392
X19685Y-1985
X19685Y-5392
X0Y-20856
X0Y-24262
X19685Y-15108
X19685Y-18515
X31496Y-33979
X31496Y-37385
X11811Y-15108
X11811Y-18515
X23622Y-20856
X23622Y-24262
X27559Y-28231
X27559Y-31638
X35433Y-28231
X35433Y-31638
X31496Y-7732
X31496Y-11139
X7874Y-20856
X7874Y-24262
X23622Y-7732
X23622Y-11139
X0Y-33979
X0Y-37385
X0Y-7732
X0Y-11139
X7874Y-7732
X7874Y-11139
X39370Y-33979
X39370Y-37385
X39370Y-20856
X39370Y-24262
X27559Y-15108
X27559Y-18515
X23622Y-33979
X23622Y-37385
X11811Y-28231
X11811Y-31638
T4
X11811Y-9508
X7874Y-29862
X15748Y-3616
X39370Y-3616
X3937Y-35755
X31496Y-16739
X27559Y-9508
X3937Y-22631
X15748Y-16739
X15748Y-29862
X19685Y-35755
X35433Y-9508
X3937Y-9508
X19685Y-9508
X0Y-16739
X19685Y-22631
X31496Y-29862
X11811Y-22631
X23622Y-16739
X27559Y-35755
X35433Y-35755
X31496Y-3616
X7874Y-16739
X23622Y-3616
X0Y-29862
X0Y-3616
X7874Y-3616
X39370Y-29862
X39370Y-16739
X27559Y-22631
X23622Y-29862
X11811Y-35755
X35433Y-22631
T0
M30
