M48
; DRILL file {KiCad 5.1.0-unknown-c054944~86~ubuntu19.04.1} date Mon 13 May 2019 04:05:16 PM EDT
; FORMAT={3:3/ absolute / metric / suppress leading zeros}
; #@! TF.CreationDate,2019-05-13T16:05:16-04:00
; #@! TF.GenerationSoftware,Kicad,Pcbnew,5.1.0-unknown-c054944~86~ubuntu19.04.1
FMAT,2
METRIC,TZ
T1C0.400
T2C1.000
T3C1.200
T4C5.000
T5C8.000
%
G90
G05
T1
X25800Y-141400
X28400Y-141800
X55270Y-123668
X56540Y-123795
X83996Y-174722
X85776Y-106866
X88595Y-106841
X96100Y-173100
X102934Y-173100
X103352Y-178586
X104300Y-173100
X104876Y-178586
X106908Y-178586
X107924Y-178586
X115775Y-89125
X115975Y-178480
X116080Y-180080
X116080Y-184880
X116080Y-186480
X116080Y-188080
X116080Y-189680
X116120Y-181680
X116120Y-183280
X116442Y-172975
X117408Y-173234
X118350Y-88800
X119301Y-173675
X119400Y-175800
X122274Y-175550
X123328Y-180086
X123328Y-181610
X123328Y-183388
X123328Y-184912
X123328Y-186436
X123328Y-188214
X123328Y-189738
X123410Y-178480
X145542Y-71943
X148336Y-71943
X174498Y-54117
X177292Y-54117
X205486Y-37207
X207772Y-37207
X224340Y-19943
X227134Y-20197
T2
X102000Y-188000
X104540Y-188000
X107080Y-188000
X109620Y-188000
X127000Y-188000
X129540Y-188000
X132080Y-188000
X134620Y-188000
X137160Y-188000
X139700Y-188000
X142240Y-188000
X144780Y-188000
X147320Y-188000
X149860Y-188000
X152400Y-188000
X154940Y-188000
X157480Y-188000
T3
X84100Y-188000
X86640Y-188000
X89180Y-188000
X91720Y-188000
X127020Y-182500
X129560Y-182500
X132100Y-182500
X134640Y-182500
X137180Y-182500
X139720Y-182500
X142260Y-182500
X144800Y-182500
X147340Y-182500
X149880Y-182500
X152420Y-182500
X154960Y-182500
X157500Y-182500
T4
X102000Y-59587
X102000Y-60087
X102000Y-61087
X102000Y-62087
X102000Y-62587
X8500Y-87728
X9000Y-87728
X10000Y-87728
X11000Y-87728
X11500Y-87728
X8500Y-157010
X9000Y-157010
X10000Y-157010
X11000Y-157010
X11500Y-157010
X112000Y-146189
X112000Y-146689
X112000Y-147689
X112000Y-148689
X112000Y-149189
X92000Y-111548
X92000Y-112048
X92000Y-113048
X92000Y-114048
X92000Y-114548
X162000Y-24946
X162000Y-25446
X162000Y-26446
X162000Y-27446
X162000Y-27946
X162000Y-128869
X162000Y-129369
X162000Y-130369
X162000Y-131369
X162000Y-131869
X122000Y-163510
X122000Y-164010
X122000Y-165010
X122000Y-166010
X122000Y-166510
X62000Y-163510
X62000Y-164010
X62000Y-165010
X62000Y-166010
X62000Y-166510
X182000Y-59587
X182000Y-60087
X182000Y-61087
X182000Y-62087
X182000Y-62587
X32000Y-7625
X32000Y-8125
X32000Y-9125
X32000Y-10125
X32000Y-10625
X212000Y-146189
X212000Y-146689
X212000Y-147689
X212000Y-148689
X212000Y-149189
X232000Y-111548
X232000Y-112048
X232000Y-113048
X232000Y-114048
X232000Y-114548
X152000Y-111548
X152000Y-112048
X152000Y-113048
X152000Y-114048
X152000Y-114548
X212000Y-76907
X212000Y-77407
X212000Y-78407
X212000Y-79407
X212000Y-79907
X92000Y-42266
X92000Y-42766
X92000Y-43766
X92000Y-44766
X92000Y-45266
X122000Y-24946
X122000Y-25446
X122000Y-26446
X122000Y-27446
X122000Y-27946
X22000Y-94228
X22000Y-94728
X22000Y-95728
X22000Y-96728
X22000Y-97228
X62000Y-94228
X62000Y-94728
X62000Y-95728
X62000Y-96728
X62000Y-97228
X62000Y-59587
X62000Y-60087
X62000Y-61087
X62000Y-62087
X62000Y-62587
X132000Y-7625
X132000Y-8125
X132000Y-9125
X132000Y-10125
X132000Y-10625
X202000Y-163510
X202000Y-164010
X202000Y-165010
X202000Y-166010
X202000Y-166510
X8500Y-122369
X9000Y-122369
X10000Y-122369
X11000Y-122369
X11500Y-122369
X172000Y-7625
X172000Y-8125
X172000Y-9125
X172000Y-10125
X172000Y-10625
X202000Y-128869
X202000Y-129369
X202000Y-130369
X202000Y-131369
X202000Y-131869
X152000Y-42266
X152000Y-42766
X152000Y-43766
X152000Y-44766
X152000Y-45266
X42000Y-94228
X42000Y-94728
X42000Y-95728
X42000Y-96728
X42000Y-97228
X32000Y-76907
X32000Y-77407
X32000Y-78407
X32000Y-79407
X32000Y-79907
X222000Y-128869
X222000Y-129369
X222000Y-130369
X222000Y-131369
X222000Y-131869
X112000Y-42266
X112000Y-42766
X112000Y-43766
X112000Y-44766
X112000Y-45266
X142000Y-163510
X142000Y-164010
X142000Y-165010
X142000Y-166010
X142000Y-166510
X232000Y-76907
X232000Y-77407
X232000Y-78407
X232000Y-79407
X232000Y-79907
X232000Y-7625
X232000Y-8125
X232000Y-9125
X232000Y-10125
X232000Y-10625
X192000Y-7625
X192000Y-8125
X192000Y-9125
X192000Y-10125
X192000Y-10625
X192000Y-76907
X192000Y-77407
X192000Y-78407
X192000Y-79407
X192000Y-79907
X52000Y-146189
X52000Y-146689
X52000Y-147689
X52000Y-148689
X52000Y-149189
X182000Y-24946
X182000Y-25446
X182000Y-26446
X182000Y-27446
X182000Y-27946
X22000Y-59587
X22000Y-60087
X22000Y-61087
X22000Y-62087
X22000Y-62587
X152000Y-76907
X152000Y-77407
X152000Y-78407
X152000Y-79407
X152000Y-79907
X112000Y-76907
X112000Y-77407
X112000Y-78407
X112000Y-79407
X112000Y-79907
X12000Y-146189
X12000Y-146689
X12000Y-147689
X12000Y-148689
X12000Y-149189
X8500Y-53087
X9000Y-53087
X10000Y-53087
X11000Y-53087
X11500Y-53087
X22000Y-128869
X22000Y-129369
X22000Y-130369
X22000Y-131369
X22000Y-131869
X12000Y-111548
X12000Y-112048
X12000Y-113048
X12000Y-114048
X12000Y-114548
X52000Y-7625
X52000Y-8125
X52000Y-9125
X52000Y-10125
X52000Y-10625
X62000Y-24946
X62000Y-25446
X62000Y-26446
X62000Y-27446
X62000Y-27946
X42000Y-163510
X42000Y-164010
X42000Y-165010
X42000Y-166010
X42000Y-166510
X122000Y-128869
X122000Y-129369
X122000Y-130369
X122000Y-131369
X122000Y-131869
X202000Y-94228
X202000Y-94728
X202000Y-95728
X202000Y-96728
X202000Y-97228
X52000Y-111548
X52000Y-112048
X52000Y-113048
X52000Y-114048
X52000Y-114548
X22000Y-24946
X22000Y-25446
X22000Y-26446
X22000Y-27446
X22000Y-27946
X5500Y-9125
X5500Y-43766
X5500Y-78407
X5500Y-113048
X5500Y-147689
X182000Y-163510
X182000Y-164010
X182000Y-165010
X182000Y-166010
X182000Y-166510
X162000Y-163510
X162000Y-164010
X162000Y-165010
X162000Y-166010
X162000Y-166510
X102000Y-128869
X102000Y-129369
X102000Y-130369
X102000Y-131369
X102000Y-131869
X92000Y-7625
X92000Y-8125
X92000Y-9125
X92000Y-10125
X92000Y-10625
X82000Y-59587
X82000Y-60087
X82000Y-61087
X82000Y-62087
X82000Y-62587
X222000Y-163510
X222000Y-164010
X222000Y-165010
X222000Y-166010
X222000Y-166510
X32000Y-146189
X32000Y-146689
X32000Y-147689
X32000Y-148689
X32000Y-149189
X92000Y-76907
X92000Y-77407
X92000Y-78407
X92000Y-79407
X92000Y-79907
X152000Y-146189
X152000Y-146689
X152000Y-147689
X152000Y-148689
X152000Y-149189
X122000Y-59587
X122000Y-60087
X122000Y-61087
X122000Y-62087
X122000Y-62587
X42000Y-128869
X42000Y-129369
X42000Y-130369
X42000Y-131369
X42000Y-131869
X12000Y-76907
X12000Y-77407
X12000Y-78407
X12000Y-79407
X12000Y-79907
X212000Y-111548
X212000Y-112048
X212000Y-113048
X212000Y-114048
X212000Y-114548
X142000Y-128869
X142000Y-129369
X142000Y-130369
X142000Y-131369
X142000Y-131869
X132000Y-76907
X132000Y-77407
X132000Y-78407
X132000Y-79407
X132000Y-79907
X102000Y-163510
X102000Y-164010
X102000Y-165010
X102000Y-166010
X102000Y-166510
X172000Y-111548
X172000Y-112048
X172000Y-113048
X172000Y-114048
X172000Y-114548
X172000Y-42266
X172000Y-42766
X172000Y-43766
X172000Y-44766
X172000Y-45266
X72000Y-111548
X72000Y-112048
X72000Y-113048
X72000Y-114048
X72000Y-114548
X142000Y-59587
X142000Y-60087
X142000Y-61087
X142000Y-62087
X142000Y-62587
X32000Y-42266
X32000Y-42766
X32000Y-43766
X32000Y-44766
X32000Y-45266
X142000Y-24946
X142000Y-25446
X142000Y-26446
X142000Y-27446
X142000Y-27946
X222000Y-59587
X222000Y-60087
X222000Y-61087
X222000Y-62087
X222000Y-62587
X92000Y-146189
X92000Y-146689
X92000Y-147689
X92000Y-148689
X92000Y-149189
X72000Y-76907
X72000Y-77407
X72000Y-78407
X72000Y-79407
X72000Y-79907
X222000Y-24946
X222000Y-25446
X222000Y-26446
X222000Y-27446
X222000Y-27946
X72000Y-146189
X72000Y-146689
X72000Y-147689
X72000Y-148689
X72000Y-149189
X12000Y-7625
X12000Y-8125
X12000Y-9125
X12000Y-10125
X12000Y-10625
X52000Y-42266
X52000Y-42766
X52000Y-43766
X52000Y-44766
X52000Y-45266
X82000Y-128869
X82000Y-129369
X82000Y-130369
X82000Y-131369
X82000Y-131869
X102000Y-94228
X102000Y-94728
X102000Y-95728
X102000Y-96728
X102000Y-97228
X32000Y-111548
X32000Y-112048
X32000Y-113048
X32000Y-114048
X32000Y-114548
X8500Y-18446
X9000Y-18446
X10000Y-18446
X11000Y-18446
X11500Y-18446
X82000Y-94228
X82000Y-94728
X82000Y-95728
X82000Y-96728
X82000Y-97228
X82000Y-163510
X82000Y-164010
X82000Y-165010
X82000Y-166010
X82000Y-166510
X244500Y-26436
X244500Y-61077
X244500Y-95718
X244500Y-130359
X244500Y-165000
X132000Y-146189
X132000Y-146689
X132000Y-147689
X132000Y-148689
X132000Y-149189
X192000Y-42266
X192000Y-42766
X192000Y-43766
X192000Y-44766
X192000Y-45266
X122000Y-94228
X122000Y-94728
X122000Y-95728
X122000Y-96728
X122000Y-97228
X152000Y-7625
X152000Y-8125
X152000Y-9125
X152000Y-10125
X152000Y-10625
X112000Y-7625
X112000Y-8125
X112000Y-9125
X112000Y-10125
X112000Y-10625
X52000Y-76907
X52000Y-77407
X52000Y-78407
X52000Y-79407
X52000Y-79907
X132000Y-111548
X132000Y-112048
X132000Y-113048
X132000Y-114048
X132000Y-114548
X162000Y-94228
X162000Y-94728
X162000Y-95728
X162000Y-96728
X162000Y-97228
X172000Y-76907
X172000Y-77407
X172000Y-78407
X172000Y-79407
X172000Y-79907
X172000Y-146189
X172000Y-146689
X172000Y-147689
X172000Y-148689
X172000Y-149189
X142000Y-94228
X142000Y-94728
X142000Y-95728
X142000Y-96728
X142000Y-97228
X232000Y-146189
X232000Y-146689
X232000Y-147689
X232000Y-148689
X232000Y-149189
X62000Y-128869
X62000Y-129369
X62000Y-130369
X62000Y-131369
X62000Y-131869
X222000Y-94228
X222000Y-94728
X222000Y-95728
X222000Y-96728
X222000Y-97228
X72000Y-42266
X72000Y-42766
X72000Y-43766
X72000Y-44766
X72000Y-45266
X182000Y-94228
X182000Y-94728
X182000Y-95728
X182000Y-96728
X182000Y-97228
X132000Y-42266
X132000Y-42766
X132000Y-43766
X132000Y-44766
X132000Y-45266
X212000Y-7625
X212000Y-8125
X212000Y-9125
X212000Y-10125
X212000Y-10625
X12000Y-42266
X12000Y-42766
X12000Y-43766
X12000Y-44766
X12000Y-45266
X202000Y-59587
X202000Y-60087
X202000Y-61087
X202000Y-62087
X202000Y-62587
X112000Y-111548
X112000Y-112048
X112000Y-113048
X112000Y-114048
X112000Y-114548
X102000Y-24946
X102000Y-25446
X102000Y-26446
X102000Y-27446
X102000Y-27946
X42000Y-59587
X42000Y-60087
X42000Y-61087
X42000Y-62087
X42000Y-62587
X42000Y-24946
X42000Y-25446
X42000Y-26446
X42000Y-27446
X42000Y-27946
X182000Y-128869
X182000Y-129369
X182000Y-130369
X182000Y-131369
X182000Y-131869
X162000Y-59587
X162000Y-60087
X162000Y-61087
X162000Y-62087
X162000Y-62587
X82000Y-24946
X82000Y-25446
X82000Y-26446
X82000Y-27446
X82000Y-27946
X192000Y-146189
X192000Y-146689
X192000Y-147689
X192000Y-148689
X192000Y-149189
X192000Y-111548
X192000Y-112048
X192000Y-113048
X192000Y-114048
X192000Y-114548
X232000Y-42266
X232000Y-42766
X232000Y-43766
X232000Y-44766
X232000Y-45266
X72000Y-7625
X72000Y-8125
X72000Y-9125
X72000Y-10125
X72000Y-10625
X22000Y-163510
X22000Y-164010
X22000Y-165010
X22000Y-166010
X22000Y-166510
X212000Y-42266
X212000Y-42766
X212000Y-43766
X212000Y-44766
X212000Y-45266
X202000Y-24946
X202000Y-25446
X202000Y-26446
X202000Y-27446
X202000Y-27946
T5
X100000Y-9125
X90000Y-61087
X230000Y-165010
X40000Y-147689
X100000Y-78407
X160000Y-147689
X130000Y-61087
X50000Y-130369
X20000Y-78407
X220000Y-113048
X150000Y-130369
X140000Y-78407
X110000Y-165010
X180000Y-113048
X180000Y-43766
X80000Y-113048
X150000Y-61087
X40000Y-43766
X150000Y-26446
X230000Y-61087
X100000Y-147689
X80000Y-78407
X230000Y-26446
X80000Y-147689
X20000Y-9125
X60000Y-43766
X90000Y-130369
X110000Y-95728
X40000Y-113048
X10000Y-26446
X90000Y-95728
X90000Y-165010
X140000Y-147689
X200000Y-43766
X130000Y-95728
X160000Y-9125
X120000Y-9125
X60000Y-78407
X140000Y-113048
X170000Y-95728
X180000Y-78407
X180000Y-147689
X150000Y-95728
X240000Y-147689
X70000Y-130369
X230000Y-95728
X80000Y-43766
X190000Y-95728
X140000Y-43766
X220000Y-9125
X20000Y-43766
X210000Y-61087
X120000Y-113048
X110000Y-26446
X50000Y-61087
X50000Y-26446
X190000Y-130369
X170000Y-61087
X90000Y-26446
X200000Y-147689
X200000Y-113048
X240000Y-43766
X80000Y-9125
X30000Y-165010
X220000Y-43766
X210000Y-26446
X110000Y-61087
X10000Y-95728
X10000Y-165010
X120000Y-147689
X100000Y-113048
X170000Y-26446
X170000Y-130369
X130000Y-165010
X70000Y-165010
X190000Y-61087
X40000Y-9125
X220000Y-147689
X240000Y-113048
X160000Y-113048
X220000Y-78407
X100000Y-43766
X130000Y-26446
X30000Y-95728
X70000Y-95728
X70000Y-61087
X140000Y-9125
X210000Y-165010
X10000Y-130369
X180000Y-9125
X210000Y-130369
X160000Y-43766
X50000Y-95728
X40000Y-78407
X230000Y-130369
X120000Y-43766
X150000Y-165010
X240000Y-78407
X240000Y-9125
X200000Y-9125
X200000Y-78407
X60000Y-147689
X190000Y-26446
X30000Y-61087
X160000Y-78407
X120000Y-78407
X20000Y-147689
X10000Y-61087
X30000Y-130369
X20000Y-113048
X60000Y-9125
X70000Y-26446
X50000Y-165010
X130000Y-130369
X210000Y-95728
X60000Y-113048
X30000Y-26446
X190000Y-165010
X170000Y-165010
X110000Y-130369
T0
M30
