G04 #@! TF.GenerationSoftware,KiCad,Pcbnew,6.0.0-rc1-unknown-55b5c71~66~ubuntu18.10.1*
G04 #@! TF.CreationDate,2019-02-02T07:43:02-05:00
G04 #@! TF.ProjectId,Pack,5061636b-2e6b-4696-9361-645f70636258,rev?*
G04 #@! TF.SameCoordinates,Original*
G04 #@! TF.FileFunction,Soldermask,Bot*
G04 #@! TF.FilePolarity,Negative*
%FSLAX46Y46*%
G04 Gerber Fmt 4.6, Leading zero omitted, Abs format (unit mm)*
G04 Created by KiCad (PCBNEW 6.0.0-rc1-unknown-55b5c71~66~ubuntu18.10.1) date 2019-02-02 07:43:02*
%MOMM*%
%LPD*%
G04 APERTURE LIST*
%ADD10C,0.100000*%
G04 APERTURE END LIST*
D10*
G36*
X90985401Y-85863054D02*
G01*
X91473322Y-85960107D01*
X92392546Y-86340862D01*
X93219825Y-86893632D01*
X93923368Y-87597175D01*
X94476138Y-88424454D01*
X94856893Y-89343678D01*
X95051000Y-90319520D01*
X95051000Y-91314480D01*
X94856893Y-92290322D01*
X94476138Y-93209546D01*
X93923368Y-94036825D01*
X93219825Y-94740368D01*
X92392546Y-95293138D01*
X91473322Y-95673893D01*
X90985401Y-95770946D01*
X90497481Y-95868000D01*
X89502519Y-95868000D01*
X89014599Y-95770947D01*
X88526678Y-95673893D01*
X87607454Y-95293138D01*
X86780175Y-94740368D01*
X86076632Y-94036825D01*
X85523862Y-93209546D01*
X85143107Y-92290322D01*
X84949000Y-91314480D01*
X84949000Y-90319520D01*
X85143107Y-89343678D01*
X85523862Y-88424454D01*
X86076632Y-87597175D01*
X86780175Y-86893632D01*
X87607454Y-86340862D01*
X88526678Y-85960107D01*
X89014599Y-85863054D01*
X89502519Y-85766000D01*
X90497481Y-85766000D01*
X90985401Y-85863054D01*
X90985401Y-85863054D01*
G37*
G36*
X70985401Y-85863054D02*
G01*
X71473322Y-85960107D01*
X72392546Y-86340862D01*
X73219825Y-86893632D01*
X73923368Y-87597175D01*
X74476138Y-88424454D01*
X74856893Y-89343678D01*
X75051000Y-90319520D01*
X75051000Y-91314480D01*
X74856893Y-92290322D01*
X74476138Y-93209546D01*
X73923368Y-94036825D01*
X73219825Y-94740368D01*
X72392546Y-95293138D01*
X71473322Y-95673893D01*
X70985401Y-95770946D01*
X70497481Y-95868000D01*
X69502519Y-95868000D01*
X69014599Y-95770947D01*
X68526678Y-95673893D01*
X67607454Y-95293138D01*
X66780175Y-94740368D01*
X66076632Y-94036825D01*
X65523862Y-93209546D01*
X65143107Y-92290322D01*
X64949000Y-91314480D01*
X64949000Y-90319520D01*
X65143107Y-89343678D01*
X65523862Y-88424454D01*
X66076632Y-87597175D01*
X66780175Y-86893632D01*
X67607454Y-86340862D01*
X68526678Y-85960107D01*
X69014599Y-85863054D01*
X69502519Y-85766000D01*
X70497481Y-85766000D01*
X70985401Y-85863054D01*
X70985401Y-85863054D01*
G37*
G36*
X50985401Y-85863054D02*
G01*
X51473322Y-85960107D01*
X52392546Y-86340862D01*
X53219825Y-86893632D01*
X53923368Y-87597175D01*
X54476138Y-88424454D01*
X54856893Y-89343678D01*
X55051000Y-90319520D01*
X55051000Y-91314480D01*
X54856893Y-92290322D01*
X54476138Y-93209546D01*
X53923368Y-94036825D01*
X53219825Y-94740368D01*
X52392546Y-95293138D01*
X51473322Y-95673893D01*
X50985401Y-95770947D01*
X50497481Y-95868000D01*
X49502519Y-95868000D01*
X49014599Y-95770947D01*
X48526678Y-95673893D01*
X47607454Y-95293138D01*
X46780175Y-94740368D01*
X46076632Y-94036825D01*
X45523862Y-93209546D01*
X45143107Y-92290322D01*
X44949000Y-91314480D01*
X44949000Y-90319520D01*
X45143107Y-89343678D01*
X45523862Y-88424454D01*
X46076632Y-87597175D01*
X46780175Y-86893632D01*
X47607454Y-86340862D01*
X48526678Y-85960107D01*
X49014599Y-85863054D01*
X49502519Y-85766000D01*
X50497481Y-85766000D01*
X50985401Y-85863054D01*
X50985401Y-85863054D01*
G37*
G36*
X10985401Y-85863054D02*
G01*
X11473322Y-85960107D01*
X12392546Y-86340862D01*
X13219825Y-86893632D01*
X13923368Y-87597175D01*
X14476138Y-88424454D01*
X14856893Y-89343678D01*
X15051000Y-90319520D01*
X15051000Y-91314480D01*
X14856893Y-92290322D01*
X14476138Y-93209546D01*
X13923368Y-94036825D01*
X13219825Y-94740368D01*
X12392546Y-95293138D01*
X11473322Y-95673893D01*
X10985401Y-95770947D01*
X10497481Y-95868000D01*
X9502519Y-95868000D01*
X9014599Y-95770947D01*
X8526678Y-95673893D01*
X7607454Y-95293138D01*
X6780175Y-94740368D01*
X6076632Y-94036825D01*
X5523862Y-93209546D01*
X5143107Y-92290322D01*
X4949000Y-91314480D01*
X4949000Y-90319520D01*
X5143107Y-89343678D01*
X5523862Y-88424454D01*
X6076632Y-87597175D01*
X6780175Y-86893632D01*
X7607454Y-86340862D01*
X8526678Y-85960107D01*
X9014599Y-85863054D01*
X9502519Y-85766000D01*
X10497481Y-85766000D01*
X10985401Y-85863054D01*
X10985401Y-85863054D01*
G37*
G36*
X30985401Y-85863054D02*
G01*
X31473322Y-85960107D01*
X32392546Y-86340862D01*
X33219825Y-86893632D01*
X33923368Y-87597175D01*
X34476138Y-88424454D01*
X34856893Y-89343678D01*
X35051000Y-90319520D01*
X35051000Y-91314480D01*
X34856893Y-92290322D01*
X34476138Y-93209546D01*
X33923368Y-94036825D01*
X33219825Y-94740368D01*
X32392546Y-95293138D01*
X31473322Y-95673893D01*
X30985401Y-95770947D01*
X30497481Y-95868000D01*
X29502519Y-95868000D01*
X29014599Y-95770947D01*
X28526678Y-95673893D01*
X27607454Y-95293138D01*
X26780175Y-94740368D01*
X26076632Y-94036825D01*
X25523862Y-93209546D01*
X25143107Y-92290322D01*
X24949000Y-91314480D01*
X24949000Y-90319520D01*
X25143107Y-89343678D01*
X25523862Y-88424454D01*
X26076632Y-87597175D01*
X26780175Y-86893632D01*
X27607454Y-86340862D01*
X28526678Y-85960107D01*
X29014599Y-85863054D01*
X29502519Y-85766000D01*
X30497481Y-85766000D01*
X30985401Y-85863054D01*
X30985401Y-85863054D01*
G37*
G36*
X41254554Y-82170284D02*
G01*
X42037286Y-82494502D01*
X42037288Y-82494503D01*
X42741728Y-82965195D01*
X43340805Y-83564272D01*
X43811497Y-84268712D01*
X43811498Y-84268714D01*
X44135716Y-85051446D01*
X44301000Y-85882387D01*
X44301000Y-86729613D01*
X44135716Y-87560554D01*
X44135715Y-87560556D01*
X43811497Y-88343288D01*
X43340805Y-89047728D01*
X42741728Y-89646805D01*
X42037288Y-90117497D01*
X42037287Y-90117498D01*
X42037286Y-90117498D01*
X41254554Y-90441716D01*
X40423613Y-90607000D01*
X39576387Y-90607000D01*
X38745446Y-90441716D01*
X37962714Y-90117498D01*
X37962713Y-90117498D01*
X37962712Y-90117497D01*
X37258272Y-89646805D01*
X36659195Y-89047728D01*
X36188503Y-88343288D01*
X35864285Y-87560556D01*
X35864284Y-87560554D01*
X35699000Y-86729613D01*
X35699000Y-85882387D01*
X35864284Y-85051446D01*
X36188502Y-84268714D01*
X36188503Y-84268712D01*
X36659195Y-83564272D01*
X37258272Y-82965195D01*
X37962712Y-82494503D01*
X37962714Y-82494502D01*
X38745446Y-82170284D01*
X39576387Y-82005000D01*
X40423613Y-82005000D01*
X41254554Y-82170284D01*
X41254554Y-82170284D01*
G37*
G36*
X101254554Y-82170284D02*
G01*
X102037286Y-82494502D01*
X102037288Y-82494503D01*
X102741728Y-82965195D01*
X103340805Y-83564272D01*
X103811497Y-84268712D01*
X103811498Y-84268714D01*
X104135716Y-85051446D01*
X104301000Y-85882387D01*
X104301000Y-86729613D01*
X104135716Y-87560554D01*
X104135715Y-87560556D01*
X103811497Y-88343288D01*
X103340805Y-89047728D01*
X102741728Y-89646805D01*
X102037288Y-90117497D01*
X102037287Y-90117498D01*
X102037286Y-90117498D01*
X101254554Y-90441716D01*
X100423613Y-90607000D01*
X99576387Y-90607000D01*
X98745446Y-90441716D01*
X97962714Y-90117498D01*
X97962713Y-90117498D01*
X97962712Y-90117497D01*
X97258272Y-89646805D01*
X96659195Y-89047728D01*
X96188503Y-88343288D01*
X95864285Y-87560556D01*
X95864284Y-87560554D01*
X95699000Y-86729613D01*
X95699000Y-85882387D01*
X95864284Y-85051446D01*
X96188502Y-84268714D01*
X96188503Y-84268712D01*
X96659195Y-83564272D01*
X97258272Y-82965195D01*
X97962712Y-82494503D01*
X97962714Y-82494502D01*
X98745446Y-82170284D01*
X99576387Y-82005000D01*
X100423613Y-82005000D01*
X101254554Y-82170284D01*
X101254554Y-82170284D01*
G37*
G36*
X1254554Y-82170284D02*
G01*
X2037286Y-82494502D01*
X2037288Y-82494503D01*
X2741728Y-82965195D01*
X3340805Y-83564272D01*
X3811497Y-84268712D01*
X3811498Y-84268714D01*
X4135716Y-85051446D01*
X4301000Y-85882387D01*
X4301000Y-86729613D01*
X4135716Y-87560554D01*
X4135715Y-87560556D01*
X3811497Y-88343288D01*
X3340805Y-89047728D01*
X2741728Y-89646805D01*
X2037288Y-90117497D01*
X2037287Y-90117498D01*
X2037286Y-90117498D01*
X1254554Y-90441716D01*
X423613Y-90607000D01*
X-423613Y-90607000D01*
X-1254554Y-90441716D01*
X-2037286Y-90117498D01*
X-2037287Y-90117498D01*
X-2037288Y-90117497D01*
X-2741728Y-89646805D01*
X-3340805Y-89047728D01*
X-3811497Y-88343288D01*
X-4135715Y-87560556D01*
X-4135716Y-87560554D01*
X-4301000Y-86729613D01*
X-4301000Y-85882387D01*
X-4135716Y-85051446D01*
X-3811498Y-84268714D01*
X-3811497Y-84268712D01*
X-3340805Y-83564272D01*
X-2741728Y-82965195D01*
X-2037288Y-82494503D01*
X-2037286Y-82494502D01*
X-1254554Y-82170284D01*
X-423613Y-82005000D01*
X423613Y-82005000D01*
X1254554Y-82170284D01*
X1254554Y-82170284D01*
G37*
G36*
X21254554Y-82170284D02*
G01*
X22037286Y-82494502D01*
X22037288Y-82494503D01*
X22741728Y-82965195D01*
X23340805Y-83564272D01*
X23811497Y-84268712D01*
X23811498Y-84268714D01*
X24135716Y-85051446D01*
X24301000Y-85882387D01*
X24301000Y-86729613D01*
X24135716Y-87560554D01*
X24135715Y-87560556D01*
X23811497Y-88343288D01*
X23340805Y-89047728D01*
X22741728Y-89646805D01*
X22037288Y-90117497D01*
X22037287Y-90117498D01*
X22037286Y-90117498D01*
X21254554Y-90441716D01*
X20423613Y-90607000D01*
X19576387Y-90607000D01*
X18745446Y-90441716D01*
X17962714Y-90117498D01*
X17962713Y-90117498D01*
X17962712Y-90117497D01*
X17258272Y-89646805D01*
X16659195Y-89047728D01*
X16188503Y-88343288D01*
X15864285Y-87560556D01*
X15864284Y-87560554D01*
X15699000Y-86729613D01*
X15699000Y-85882387D01*
X15864284Y-85051446D01*
X16188502Y-84268714D01*
X16188503Y-84268712D01*
X16659195Y-83564272D01*
X17258272Y-82965195D01*
X17962712Y-82494503D01*
X17962714Y-82494502D01*
X18745446Y-82170284D01*
X19576387Y-82005000D01*
X20423613Y-82005000D01*
X21254554Y-82170284D01*
X21254554Y-82170284D01*
G37*
G36*
X81254554Y-82170284D02*
G01*
X82037286Y-82494502D01*
X82037288Y-82494503D01*
X82741728Y-82965195D01*
X83340805Y-83564272D01*
X83811497Y-84268712D01*
X83811498Y-84268714D01*
X84135716Y-85051446D01*
X84301000Y-85882387D01*
X84301000Y-86729613D01*
X84135716Y-87560554D01*
X84135715Y-87560556D01*
X83811497Y-88343288D01*
X83340805Y-89047728D01*
X82741728Y-89646805D01*
X82037288Y-90117497D01*
X82037287Y-90117498D01*
X82037286Y-90117498D01*
X81254554Y-90441716D01*
X80423613Y-90607000D01*
X79576387Y-90607000D01*
X78745446Y-90441716D01*
X77962714Y-90117498D01*
X77962713Y-90117498D01*
X77962712Y-90117497D01*
X77258272Y-89646805D01*
X76659195Y-89047728D01*
X76188503Y-88343288D01*
X75864285Y-87560556D01*
X75864284Y-87560554D01*
X75699000Y-86729613D01*
X75699000Y-85882387D01*
X75864284Y-85051446D01*
X76188502Y-84268714D01*
X76188503Y-84268712D01*
X76659195Y-83564272D01*
X77258272Y-82965195D01*
X77962712Y-82494503D01*
X77962714Y-82494502D01*
X78745446Y-82170284D01*
X79576387Y-82005000D01*
X80423613Y-82005000D01*
X81254554Y-82170284D01*
X81254554Y-82170284D01*
G37*
G36*
X61254554Y-82170284D02*
G01*
X62037286Y-82494502D01*
X62037288Y-82494503D01*
X62741728Y-82965195D01*
X63340805Y-83564272D01*
X63811497Y-84268712D01*
X63811498Y-84268714D01*
X64135716Y-85051446D01*
X64301000Y-85882387D01*
X64301000Y-86729613D01*
X64135716Y-87560554D01*
X64135715Y-87560556D01*
X63811497Y-88343288D01*
X63340805Y-89047728D01*
X62741728Y-89646805D01*
X62037288Y-90117497D01*
X62037287Y-90117498D01*
X62037286Y-90117498D01*
X61254554Y-90441716D01*
X60423613Y-90607000D01*
X59576387Y-90607000D01*
X58745446Y-90441716D01*
X57962714Y-90117498D01*
X57962713Y-90117498D01*
X57962712Y-90117497D01*
X57258272Y-89646805D01*
X56659195Y-89047728D01*
X56188503Y-88343288D01*
X55864285Y-87560556D01*
X55864284Y-87560554D01*
X55699000Y-86729613D01*
X55699000Y-85882387D01*
X55864284Y-85051446D01*
X56188502Y-84268714D01*
X56188503Y-84268712D01*
X56659195Y-83564272D01*
X57258272Y-82965195D01*
X57962712Y-82494503D01*
X57962714Y-82494502D01*
X58745446Y-82170284D01*
X59576387Y-82005000D01*
X60423613Y-82005000D01*
X61254554Y-82170284D01*
X61254554Y-82170284D01*
G37*
G36*
X51254554Y-76225284D02*
G01*
X52037286Y-76549502D01*
X52037288Y-76549503D01*
X52741728Y-77020195D01*
X53340805Y-77619272D01*
X53811497Y-78323712D01*
X53811498Y-78323714D01*
X54135716Y-79106446D01*
X54301000Y-79937387D01*
X54301000Y-80784613D01*
X54135716Y-81615554D01*
X54135715Y-81615556D01*
X53811497Y-82398288D01*
X53340805Y-83102728D01*
X52741728Y-83701805D01*
X52037288Y-84172497D01*
X52037287Y-84172498D01*
X52037286Y-84172498D01*
X51254554Y-84496716D01*
X50423613Y-84662000D01*
X49576387Y-84662000D01*
X48745446Y-84496716D01*
X47962714Y-84172498D01*
X47962713Y-84172498D01*
X47962712Y-84172497D01*
X47258272Y-83701805D01*
X46659195Y-83102728D01*
X46188503Y-82398288D01*
X45864285Y-81615556D01*
X45864284Y-81615554D01*
X45699000Y-80784613D01*
X45699000Y-79937387D01*
X45864284Y-79106446D01*
X46188502Y-78323714D01*
X46188503Y-78323712D01*
X46659195Y-77619272D01*
X47258272Y-77020195D01*
X47962712Y-76549503D01*
X47962714Y-76549502D01*
X48745446Y-76225284D01*
X49576387Y-76060000D01*
X50423613Y-76060000D01*
X51254554Y-76225284D01*
X51254554Y-76225284D01*
G37*
G36*
X31254554Y-76225284D02*
G01*
X32037286Y-76549502D01*
X32037288Y-76549503D01*
X32741728Y-77020195D01*
X33340805Y-77619272D01*
X33811497Y-78323712D01*
X33811498Y-78323714D01*
X34135716Y-79106446D01*
X34301000Y-79937387D01*
X34301000Y-80784613D01*
X34135716Y-81615554D01*
X34135715Y-81615556D01*
X33811497Y-82398288D01*
X33340805Y-83102728D01*
X32741728Y-83701805D01*
X32037288Y-84172497D01*
X32037287Y-84172498D01*
X32037286Y-84172498D01*
X31254554Y-84496716D01*
X30423613Y-84662000D01*
X29576387Y-84662000D01*
X28745446Y-84496716D01*
X27962714Y-84172498D01*
X27962713Y-84172498D01*
X27962712Y-84172497D01*
X27258272Y-83701805D01*
X26659195Y-83102728D01*
X26188503Y-82398288D01*
X25864285Y-81615556D01*
X25864284Y-81615554D01*
X25699000Y-80784613D01*
X25699000Y-79937387D01*
X25864284Y-79106446D01*
X26188502Y-78323714D01*
X26188503Y-78323712D01*
X26659195Y-77619272D01*
X27258272Y-77020195D01*
X27962712Y-76549503D01*
X27962714Y-76549502D01*
X28745446Y-76225284D01*
X29576387Y-76060000D01*
X30423613Y-76060000D01*
X31254554Y-76225284D01*
X31254554Y-76225284D01*
G37*
G36*
X91254554Y-76225284D02*
G01*
X92037286Y-76549502D01*
X92037288Y-76549503D01*
X92741728Y-77020195D01*
X93340805Y-77619272D01*
X93811497Y-78323712D01*
X93811498Y-78323714D01*
X94135716Y-79106446D01*
X94301000Y-79937387D01*
X94301000Y-80784613D01*
X94135716Y-81615554D01*
X94135715Y-81615556D01*
X93811497Y-82398288D01*
X93340805Y-83102728D01*
X92741728Y-83701805D01*
X92037288Y-84172497D01*
X92037287Y-84172498D01*
X92037286Y-84172498D01*
X91254554Y-84496716D01*
X90423613Y-84662000D01*
X89576387Y-84662000D01*
X88745446Y-84496716D01*
X87962714Y-84172498D01*
X87962713Y-84172498D01*
X87962712Y-84172497D01*
X87258272Y-83701805D01*
X86659195Y-83102728D01*
X86188503Y-82398288D01*
X85864285Y-81615556D01*
X85864284Y-81615554D01*
X85699000Y-80784613D01*
X85699000Y-79937387D01*
X85864284Y-79106446D01*
X86188502Y-78323714D01*
X86188503Y-78323712D01*
X86659195Y-77619272D01*
X87258272Y-77020195D01*
X87962712Y-76549503D01*
X87962714Y-76549502D01*
X88745446Y-76225284D01*
X89576387Y-76060000D01*
X90423613Y-76060000D01*
X91254554Y-76225284D01*
X91254554Y-76225284D01*
G37*
G36*
X71254554Y-76225284D02*
G01*
X72037286Y-76549502D01*
X72037288Y-76549503D01*
X72741728Y-77020195D01*
X73340805Y-77619272D01*
X73811497Y-78323712D01*
X73811498Y-78323714D01*
X74135716Y-79106446D01*
X74301000Y-79937387D01*
X74301000Y-80784613D01*
X74135716Y-81615554D01*
X74135715Y-81615556D01*
X73811497Y-82398288D01*
X73340805Y-83102728D01*
X72741728Y-83701805D01*
X72037288Y-84172497D01*
X72037287Y-84172498D01*
X72037286Y-84172498D01*
X71254554Y-84496716D01*
X70423613Y-84662000D01*
X69576387Y-84662000D01*
X68745446Y-84496716D01*
X67962714Y-84172498D01*
X67962713Y-84172498D01*
X67962712Y-84172497D01*
X67258272Y-83701805D01*
X66659195Y-83102728D01*
X66188503Y-82398288D01*
X65864285Y-81615556D01*
X65864284Y-81615554D01*
X65699000Y-80784613D01*
X65699000Y-79937387D01*
X65864284Y-79106446D01*
X66188502Y-78323714D01*
X66188503Y-78323712D01*
X66659195Y-77619272D01*
X67258272Y-77020195D01*
X67962712Y-76549503D01*
X67962714Y-76549502D01*
X68745446Y-76225284D01*
X69576387Y-76060000D01*
X70423613Y-76060000D01*
X71254554Y-76225284D01*
X71254554Y-76225284D01*
G37*
G36*
X11254554Y-76225284D02*
G01*
X12037286Y-76549502D01*
X12037288Y-76549503D01*
X12741728Y-77020195D01*
X13340805Y-77619272D01*
X13811497Y-78323712D01*
X13811498Y-78323714D01*
X14135716Y-79106446D01*
X14301000Y-79937387D01*
X14301000Y-80784613D01*
X14135716Y-81615554D01*
X14135715Y-81615556D01*
X13811497Y-82398288D01*
X13340805Y-83102728D01*
X12741728Y-83701805D01*
X12037288Y-84172497D01*
X12037287Y-84172498D01*
X12037286Y-84172498D01*
X11254554Y-84496716D01*
X10423613Y-84662000D01*
X9576387Y-84662000D01*
X8745446Y-84496716D01*
X7962714Y-84172498D01*
X7962713Y-84172498D01*
X7962712Y-84172497D01*
X7258272Y-83701805D01*
X6659195Y-83102728D01*
X6188503Y-82398288D01*
X5864285Y-81615556D01*
X5864284Y-81615554D01*
X5699000Y-80784613D01*
X5699000Y-79937387D01*
X5864284Y-79106446D01*
X6188502Y-78323714D01*
X6188503Y-78323712D01*
X6659195Y-77619272D01*
X7258272Y-77020195D01*
X7962712Y-76549503D01*
X7962714Y-76549502D01*
X8745446Y-76225284D01*
X9576387Y-76060000D01*
X10423613Y-76060000D01*
X11254554Y-76225284D01*
X11254554Y-76225284D01*
G37*
G36*
X985401Y-70896054D02*
G01*
X1473322Y-70993107D01*
X2392546Y-71373862D01*
X3219825Y-71926632D01*
X3923368Y-72630175D01*
X4476138Y-73457454D01*
X4856893Y-74376678D01*
X5051000Y-75352520D01*
X5051000Y-76347480D01*
X4856893Y-77323322D01*
X4476138Y-78242546D01*
X3923368Y-79069825D01*
X3219825Y-79773368D01*
X2392546Y-80326138D01*
X1473322Y-80706893D01*
X1082602Y-80784612D01*
X497481Y-80901000D01*
X-497481Y-80901000D01*
X-1082602Y-80784612D01*
X-1473322Y-80706893D01*
X-2392546Y-80326138D01*
X-3219825Y-79773368D01*
X-3923368Y-79069825D01*
X-4476138Y-78242546D01*
X-4856893Y-77323322D01*
X-5051000Y-76347480D01*
X-5051000Y-75352520D01*
X-4856893Y-74376678D01*
X-4476138Y-73457454D01*
X-3923368Y-72630175D01*
X-3219825Y-71926632D01*
X-2392546Y-71373862D01*
X-1473322Y-70993107D01*
X-985401Y-70896054D01*
X-497481Y-70799000D01*
X497481Y-70799000D01*
X985401Y-70896054D01*
X985401Y-70896054D01*
G37*
G36*
X40985401Y-70896054D02*
G01*
X41473322Y-70993107D01*
X42392546Y-71373862D01*
X43219825Y-71926632D01*
X43923368Y-72630175D01*
X44476138Y-73457454D01*
X44856893Y-74376678D01*
X45051000Y-75352520D01*
X45051000Y-76347480D01*
X44856893Y-77323322D01*
X44476138Y-78242546D01*
X43923368Y-79069825D01*
X43219825Y-79773368D01*
X42392546Y-80326138D01*
X41473322Y-80706893D01*
X41082602Y-80784612D01*
X40497481Y-80901000D01*
X39502519Y-80901000D01*
X38917398Y-80784612D01*
X38526678Y-80706893D01*
X37607454Y-80326138D01*
X36780175Y-79773368D01*
X36076632Y-79069825D01*
X35523862Y-78242546D01*
X35143107Y-77323322D01*
X34949000Y-76347480D01*
X34949000Y-75352520D01*
X35143107Y-74376678D01*
X35523862Y-73457454D01*
X36076632Y-72630175D01*
X36780175Y-71926632D01*
X37607454Y-71373862D01*
X38526678Y-70993107D01*
X39014599Y-70896054D01*
X39502519Y-70799000D01*
X40497481Y-70799000D01*
X40985401Y-70896054D01*
X40985401Y-70896054D01*
G37*
G36*
X20985401Y-70896054D02*
G01*
X21473322Y-70993107D01*
X22392546Y-71373862D01*
X23219825Y-71926632D01*
X23923368Y-72630175D01*
X24476138Y-73457454D01*
X24856893Y-74376678D01*
X25051000Y-75352520D01*
X25051000Y-76347480D01*
X24856893Y-77323322D01*
X24476138Y-78242546D01*
X23923368Y-79069825D01*
X23219825Y-79773368D01*
X22392546Y-80326138D01*
X21473322Y-80706893D01*
X21082602Y-80784612D01*
X20497481Y-80901000D01*
X19502519Y-80901000D01*
X18917398Y-80784612D01*
X18526678Y-80706893D01*
X17607454Y-80326138D01*
X16780175Y-79773368D01*
X16076632Y-79069825D01*
X15523862Y-78242546D01*
X15143107Y-77323322D01*
X14949000Y-76347480D01*
X14949000Y-75352520D01*
X15143107Y-74376678D01*
X15523862Y-73457454D01*
X16076632Y-72630175D01*
X16780175Y-71926632D01*
X17607454Y-71373862D01*
X18526678Y-70993107D01*
X19014599Y-70896054D01*
X19502519Y-70799000D01*
X20497481Y-70799000D01*
X20985401Y-70896054D01*
X20985401Y-70896054D01*
G37*
G36*
X80985401Y-70896054D02*
G01*
X81473322Y-70993107D01*
X82392546Y-71373862D01*
X83219825Y-71926632D01*
X83923368Y-72630175D01*
X84476138Y-73457454D01*
X84856893Y-74376678D01*
X85051000Y-75352520D01*
X85051000Y-76347480D01*
X84856893Y-77323322D01*
X84476138Y-78242546D01*
X83923368Y-79069825D01*
X83219825Y-79773368D01*
X82392546Y-80326138D01*
X81473322Y-80706893D01*
X81082602Y-80784612D01*
X80497481Y-80901000D01*
X79502519Y-80901000D01*
X78917398Y-80784612D01*
X78526678Y-80706893D01*
X77607454Y-80326138D01*
X76780175Y-79773368D01*
X76076632Y-79069825D01*
X75523862Y-78242546D01*
X75143107Y-77323322D01*
X74949000Y-76347480D01*
X74949000Y-75352520D01*
X75143107Y-74376678D01*
X75523862Y-73457454D01*
X76076632Y-72630175D01*
X76780175Y-71926632D01*
X77607454Y-71373862D01*
X78526678Y-70993107D01*
X79014599Y-70896054D01*
X79502519Y-70799000D01*
X80497481Y-70799000D01*
X80985401Y-70896054D01*
X80985401Y-70896054D01*
G37*
G36*
X100985401Y-70896054D02*
G01*
X101473322Y-70993107D01*
X102392546Y-71373862D01*
X103219825Y-71926632D01*
X103923368Y-72630175D01*
X104476138Y-73457454D01*
X104856893Y-74376678D01*
X105051000Y-75352520D01*
X105051000Y-76347480D01*
X104856893Y-77323322D01*
X104476138Y-78242546D01*
X103923368Y-79069825D01*
X103219825Y-79773368D01*
X102392546Y-80326138D01*
X101473322Y-80706893D01*
X101082602Y-80784612D01*
X100497481Y-80901000D01*
X99502519Y-80901000D01*
X98917398Y-80784612D01*
X98526678Y-80706893D01*
X97607454Y-80326138D01*
X96780175Y-79773368D01*
X96076632Y-79069825D01*
X95523862Y-78242546D01*
X95143107Y-77323322D01*
X94949000Y-76347480D01*
X94949000Y-75352520D01*
X95143107Y-74376678D01*
X95523862Y-73457454D01*
X96076632Y-72630175D01*
X96780175Y-71926632D01*
X97607454Y-71373862D01*
X98526678Y-70993107D01*
X99014599Y-70896054D01*
X99502519Y-70799000D01*
X100497481Y-70799000D01*
X100985401Y-70896054D01*
X100985401Y-70896054D01*
G37*
G36*
X60985401Y-70896054D02*
G01*
X61473322Y-70993107D01*
X62392546Y-71373862D01*
X63219825Y-71926632D01*
X63923368Y-72630175D01*
X64476138Y-73457454D01*
X64856893Y-74376678D01*
X65051000Y-75352520D01*
X65051000Y-76347480D01*
X64856893Y-77323322D01*
X64476138Y-78242546D01*
X63923368Y-79069825D01*
X63219825Y-79773368D01*
X62392546Y-80326138D01*
X61473322Y-80706893D01*
X61082602Y-80784612D01*
X60497481Y-80901000D01*
X59502519Y-80901000D01*
X58917398Y-80784612D01*
X58526678Y-80706893D01*
X57607454Y-80326138D01*
X56780175Y-79773368D01*
X56076632Y-79069825D01*
X55523862Y-78242546D01*
X55143107Y-77323322D01*
X54949000Y-76347480D01*
X54949000Y-75352520D01*
X55143107Y-74376678D01*
X55523862Y-73457454D01*
X56076632Y-72630175D01*
X56780175Y-71926632D01*
X57607454Y-71373862D01*
X58526678Y-70993107D01*
X59014599Y-70896054D01*
X59502519Y-70799000D01*
X60497481Y-70799000D01*
X60985401Y-70896054D01*
X60985401Y-70896054D01*
G37*
G36*
X10901000Y-73901000D02*
G01*
X9099000Y-73901000D01*
X9099000Y-72099000D01*
X10901000Y-72099000D01*
X10901000Y-73901000D01*
X10901000Y-73901000D01*
G37*
G36*
X91650442Y-72105518D02*
G01*
X91716627Y-72112037D01*
X91886466Y-72163557D01*
X92042991Y-72247222D01*
X92078729Y-72276552D01*
X92180186Y-72359814D01*
X92263448Y-72461271D01*
X92292778Y-72497009D01*
X92376443Y-72653534D01*
X92427963Y-72823373D01*
X92445359Y-73000000D01*
X92427963Y-73176627D01*
X92376443Y-73346466D01*
X92292778Y-73502991D01*
X92263448Y-73538729D01*
X92180186Y-73640186D01*
X92078729Y-73723448D01*
X92042991Y-73752778D01*
X91886466Y-73836443D01*
X91716627Y-73887963D01*
X91650443Y-73894481D01*
X91584260Y-73901000D01*
X91495740Y-73901000D01*
X91429557Y-73894481D01*
X91363373Y-73887963D01*
X91193534Y-73836443D01*
X91037009Y-73752778D01*
X91001271Y-73723448D01*
X90899814Y-73640186D01*
X90816552Y-73538729D01*
X90787222Y-73502991D01*
X90703557Y-73346466D01*
X90652037Y-73176627D01*
X90634641Y-73000000D01*
X90652037Y-72823373D01*
X90703557Y-72653534D01*
X90787222Y-72497009D01*
X90816552Y-72461271D01*
X90899814Y-72359814D01*
X91001271Y-72276552D01*
X91037009Y-72247222D01*
X91193534Y-72163557D01*
X91363373Y-72112037D01*
X91429558Y-72105518D01*
X91495740Y-72099000D01*
X91584260Y-72099000D01*
X91650442Y-72105518D01*
X91650442Y-72105518D01*
G37*
G36*
X89901000Y-73901000D02*
G01*
X88099000Y-73901000D01*
X88099000Y-72099000D01*
X89901000Y-72099000D01*
X89901000Y-73901000D01*
X89901000Y-73901000D01*
G37*
G36*
X93246823Y-68161313D02*
G01*
X93407242Y-68209976D01*
X93474361Y-68245852D01*
X93555078Y-68288996D01*
X93684659Y-68395341D01*
X93791004Y-68524922D01*
X93791005Y-68524924D01*
X93870024Y-68672758D01*
X93918687Y-68833177D01*
X93935117Y-69000000D01*
X93918687Y-69166823D01*
X93870024Y-69327242D01*
X93829477Y-69403100D01*
X93791004Y-69475078D01*
X93684659Y-69604659D01*
X93555078Y-69711004D01*
X93555076Y-69711005D01*
X93407242Y-69790024D01*
X93246823Y-69838687D01*
X93121804Y-69851000D01*
X93038196Y-69851000D01*
X92913177Y-69838687D01*
X92752758Y-69790024D01*
X92604924Y-69711005D01*
X92604922Y-69711004D01*
X92475341Y-69604659D01*
X92368996Y-69475078D01*
X92330523Y-69403100D01*
X92289976Y-69327242D01*
X92241313Y-69166823D01*
X92224883Y-69000000D01*
X92241313Y-68833177D01*
X92289976Y-68672758D01*
X92368995Y-68524924D01*
X92368996Y-68524922D01*
X92475341Y-68395341D01*
X92604922Y-68288996D01*
X92685639Y-68245852D01*
X92752758Y-68209976D01*
X92913177Y-68161313D01*
X93038196Y-68149000D01*
X93121804Y-68149000D01*
X93246823Y-68161313D01*
X93246823Y-68161313D01*
G37*
G36*
X88248228Y-68181703D02*
G01*
X88403100Y-68245853D01*
X88542481Y-68338985D01*
X88661015Y-68457519D01*
X88754147Y-68596900D01*
X88818297Y-68751772D01*
X88851000Y-68916184D01*
X88851000Y-69083816D01*
X88818297Y-69248228D01*
X88754147Y-69403100D01*
X88661015Y-69542481D01*
X88542481Y-69661015D01*
X88403100Y-69754147D01*
X88248228Y-69818297D01*
X88083816Y-69851000D01*
X87916184Y-69851000D01*
X87751772Y-69818297D01*
X87596900Y-69754147D01*
X87457519Y-69661015D01*
X87338985Y-69542481D01*
X87245853Y-69403100D01*
X87181703Y-69248228D01*
X87149000Y-69083816D01*
X87149000Y-68916184D01*
X87181703Y-68751772D01*
X87245853Y-68596900D01*
X87338985Y-68457519D01*
X87457519Y-68338985D01*
X87596900Y-68245853D01*
X87751772Y-68181703D01*
X87916184Y-68149000D01*
X88083816Y-68149000D01*
X88248228Y-68181703D01*
X88248228Y-68181703D01*
G37*
G36*
X10901000Y-66901000D02*
G01*
X9099000Y-66901000D01*
X9099000Y-65099000D01*
X10901000Y-65099000D01*
X10901000Y-66901000D01*
X10901000Y-66901000D01*
G37*
G36*
X10985401Y-52530053D02*
G01*
X11473322Y-52627107D01*
X12392546Y-53007862D01*
X13219825Y-53560632D01*
X13923368Y-54264175D01*
X14476138Y-55091454D01*
X14856893Y-56010678D01*
X15051000Y-56986520D01*
X15051000Y-57981480D01*
X14856893Y-58957322D01*
X14476138Y-59876546D01*
X13923368Y-60703825D01*
X13219825Y-61407368D01*
X12392546Y-61960138D01*
X11473322Y-62340893D01*
X10985401Y-62437947D01*
X10497481Y-62535000D01*
X9502519Y-62535000D01*
X9014599Y-62437947D01*
X8526678Y-62340893D01*
X7607454Y-61960138D01*
X6780175Y-61407368D01*
X6076632Y-60703825D01*
X5523862Y-59876546D01*
X5143107Y-58957322D01*
X4949000Y-57981480D01*
X4949000Y-56986520D01*
X5143107Y-56010678D01*
X5523862Y-55091454D01*
X6076632Y-54264175D01*
X6780175Y-53560632D01*
X7607454Y-53007862D01*
X8526678Y-52627107D01*
X9014599Y-52530053D01*
X9502519Y-52433000D01*
X10497481Y-52433000D01*
X10985401Y-52530053D01*
X10985401Y-52530053D01*
G37*
G36*
X30985401Y-52530053D02*
G01*
X31473322Y-52627107D01*
X32392546Y-53007862D01*
X33219825Y-53560632D01*
X33923368Y-54264175D01*
X34476138Y-55091454D01*
X34856893Y-56010678D01*
X35051000Y-56986520D01*
X35051000Y-57981480D01*
X34856893Y-58957322D01*
X34476138Y-59876546D01*
X33923368Y-60703825D01*
X33219825Y-61407368D01*
X32392546Y-61960138D01*
X31473322Y-62340893D01*
X30985401Y-62437947D01*
X30497481Y-62535000D01*
X29502519Y-62535000D01*
X29014599Y-62437947D01*
X28526678Y-62340893D01*
X27607454Y-61960138D01*
X26780175Y-61407368D01*
X26076632Y-60703825D01*
X25523862Y-59876546D01*
X25143107Y-58957322D01*
X24949000Y-57981480D01*
X24949000Y-56986520D01*
X25143107Y-56010678D01*
X25523862Y-55091454D01*
X26076632Y-54264175D01*
X26780175Y-53560632D01*
X27607454Y-53007862D01*
X28526678Y-52627107D01*
X29014599Y-52530053D01*
X29502519Y-52433000D01*
X30497481Y-52433000D01*
X30985401Y-52530053D01*
X30985401Y-52530053D01*
G37*
G36*
X90985401Y-52530053D02*
G01*
X91473322Y-52627107D01*
X92392546Y-53007862D01*
X93219825Y-53560632D01*
X93923368Y-54264175D01*
X94476138Y-55091454D01*
X94856893Y-56010678D01*
X95051000Y-56986520D01*
X95051000Y-57981480D01*
X94856893Y-58957322D01*
X94476138Y-59876546D01*
X93923368Y-60703825D01*
X93219825Y-61407368D01*
X92392546Y-61960138D01*
X91473322Y-62340893D01*
X90985401Y-62437947D01*
X90497481Y-62535000D01*
X89502519Y-62535000D01*
X89014599Y-62437947D01*
X88526678Y-62340893D01*
X87607454Y-61960138D01*
X86780175Y-61407368D01*
X86076632Y-60703825D01*
X85523862Y-59876546D01*
X85143107Y-58957322D01*
X84949000Y-57981480D01*
X84949000Y-56986520D01*
X85143107Y-56010678D01*
X85523862Y-55091454D01*
X86076632Y-54264175D01*
X86780175Y-53560632D01*
X87607454Y-53007862D01*
X88526678Y-52627107D01*
X89014599Y-52530053D01*
X89502519Y-52433000D01*
X90497481Y-52433000D01*
X90985401Y-52530053D01*
X90985401Y-52530053D01*
G37*
G36*
X70985401Y-52530053D02*
G01*
X71473322Y-52627107D01*
X72392546Y-53007862D01*
X73219825Y-53560632D01*
X73923368Y-54264175D01*
X74476138Y-55091454D01*
X74856893Y-56010678D01*
X75051000Y-56986520D01*
X75051000Y-57981480D01*
X74856893Y-58957322D01*
X74476138Y-59876546D01*
X73923368Y-60703825D01*
X73219825Y-61407368D01*
X72392546Y-61960138D01*
X71473322Y-62340893D01*
X70985401Y-62437947D01*
X70497481Y-62535000D01*
X69502519Y-62535000D01*
X69014599Y-62437947D01*
X68526678Y-62340893D01*
X67607454Y-61960138D01*
X66780175Y-61407368D01*
X66076632Y-60703825D01*
X65523862Y-59876546D01*
X65143107Y-58957322D01*
X64949000Y-57981480D01*
X64949000Y-56986520D01*
X65143107Y-56010678D01*
X65523862Y-55091454D01*
X66076632Y-54264175D01*
X66780175Y-53560632D01*
X67607454Y-53007862D01*
X68526678Y-52627107D01*
X69014599Y-52530053D01*
X69502519Y-52433000D01*
X70497481Y-52433000D01*
X70985401Y-52530053D01*
X70985401Y-52530053D01*
G37*
G36*
X50985401Y-52530053D02*
G01*
X51473322Y-52627107D01*
X52392546Y-53007862D01*
X53219825Y-53560632D01*
X53923368Y-54264175D01*
X54476138Y-55091454D01*
X54856893Y-56010678D01*
X55051000Y-56986520D01*
X55051000Y-57981480D01*
X54856893Y-58957322D01*
X54476138Y-59876546D01*
X53923368Y-60703825D01*
X53219825Y-61407368D01*
X52392546Y-61960138D01*
X51473322Y-62340893D01*
X50985401Y-62437947D01*
X50497481Y-62535000D01*
X49502519Y-62535000D01*
X49014599Y-62437947D01*
X48526678Y-62340893D01*
X47607454Y-61960138D01*
X46780175Y-61407368D01*
X46076632Y-60703825D01*
X45523862Y-59876546D01*
X45143107Y-58957322D01*
X44949000Y-57981480D01*
X44949000Y-56986520D01*
X45143107Y-56010678D01*
X45523862Y-55091454D01*
X46076632Y-54264175D01*
X46780175Y-53560632D01*
X47607454Y-53007862D01*
X48526678Y-52627107D01*
X49014599Y-52530053D01*
X49502519Y-52433000D01*
X50497481Y-52433000D01*
X50985401Y-52530053D01*
X50985401Y-52530053D01*
G37*
G36*
X101254554Y-48837284D02*
G01*
X102037286Y-49161502D01*
X102037288Y-49161503D01*
X102741728Y-49632195D01*
X103340805Y-50231272D01*
X103811497Y-50935712D01*
X103811498Y-50935714D01*
X104135716Y-51718446D01*
X104301000Y-52549387D01*
X104301000Y-53396613D01*
X104135716Y-54227554D01*
X104135715Y-54227556D01*
X103811497Y-55010288D01*
X103340805Y-55714728D01*
X102741728Y-56313805D01*
X102037288Y-56784497D01*
X102037287Y-56784498D01*
X102037286Y-56784498D01*
X101254554Y-57108716D01*
X100423613Y-57274000D01*
X99576387Y-57274000D01*
X98745446Y-57108716D01*
X97962714Y-56784498D01*
X97962713Y-56784498D01*
X97962712Y-56784497D01*
X97258272Y-56313805D01*
X96659195Y-55714728D01*
X96188503Y-55010288D01*
X95864285Y-54227556D01*
X95864284Y-54227554D01*
X95699000Y-53396613D01*
X95699000Y-52549387D01*
X95864284Y-51718446D01*
X96188502Y-50935714D01*
X96188503Y-50935712D01*
X96659195Y-50231272D01*
X97258272Y-49632195D01*
X97962712Y-49161503D01*
X97962714Y-49161502D01*
X98745446Y-48837284D01*
X99576387Y-48672000D01*
X100423613Y-48672000D01*
X101254554Y-48837284D01*
X101254554Y-48837284D01*
G37*
G36*
X61254554Y-48837284D02*
G01*
X62037286Y-49161502D01*
X62037288Y-49161503D01*
X62741728Y-49632195D01*
X63340805Y-50231272D01*
X63811497Y-50935712D01*
X63811498Y-50935714D01*
X64135716Y-51718446D01*
X64301000Y-52549387D01*
X64301000Y-53396613D01*
X64135716Y-54227554D01*
X64135715Y-54227556D01*
X63811497Y-55010288D01*
X63340805Y-55714728D01*
X62741728Y-56313805D01*
X62037288Y-56784497D01*
X62037287Y-56784498D01*
X62037286Y-56784498D01*
X61254554Y-57108716D01*
X60423613Y-57274000D01*
X59576387Y-57274000D01*
X58745446Y-57108716D01*
X57962714Y-56784498D01*
X57962713Y-56784498D01*
X57962712Y-56784497D01*
X57258272Y-56313805D01*
X56659195Y-55714728D01*
X56188503Y-55010288D01*
X55864285Y-54227556D01*
X55864284Y-54227554D01*
X55699000Y-53396613D01*
X55699000Y-52549387D01*
X55864284Y-51718446D01*
X56188502Y-50935714D01*
X56188503Y-50935712D01*
X56659195Y-50231272D01*
X57258272Y-49632195D01*
X57962712Y-49161503D01*
X57962714Y-49161502D01*
X58745446Y-48837284D01*
X59576387Y-48672000D01*
X60423613Y-48672000D01*
X61254554Y-48837284D01*
X61254554Y-48837284D01*
G37*
G36*
X81254554Y-48837284D02*
G01*
X82037286Y-49161502D01*
X82037288Y-49161503D01*
X82741728Y-49632195D01*
X83340805Y-50231272D01*
X83811497Y-50935712D01*
X83811498Y-50935714D01*
X84135716Y-51718446D01*
X84301000Y-52549387D01*
X84301000Y-53396613D01*
X84135716Y-54227554D01*
X84135715Y-54227556D01*
X83811497Y-55010288D01*
X83340805Y-55714728D01*
X82741728Y-56313805D01*
X82037288Y-56784497D01*
X82037287Y-56784498D01*
X82037286Y-56784498D01*
X81254554Y-57108716D01*
X80423613Y-57274000D01*
X79576387Y-57274000D01*
X78745446Y-57108716D01*
X77962714Y-56784498D01*
X77962713Y-56784498D01*
X77962712Y-56784497D01*
X77258272Y-56313805D01*
X76659195Y-55714728D01*
X76188503Y-55010288D01*
X75864285Y-54227556D01*
X75864284Y-54227554D01*
X75699000Y-53396613D01*
X75699000Y-52549387D01*
X75864284Y-51718446D01*
X76188502Y-50935714D01*
X76188503Y-50935712D01*
X76659195Y-50231272D01*
X77258272Y-49632195D01*
X77962712Y-49161503D01*
X77962714Y-49161502D01*
X78745446Y-48837284D01*
X79576387Y-48672000D01*
X80423613Y-48672000D01*
X81254554Y-48837284D01*
X81254554Y-48837284D01*
G37*
G36*
X21254554Y-48837284D02*
G01*
X22037286Y-49161502D01*
X22037288Y-49161503D01*
X22741728Y-49632195D01*
X23340805Y-50231272D01*
X23811497Y-50935712D01*
X23811498Y-50935714D01*
X24135716Y-51718446D01*
X24301000Y-52549387D01*
X24301000Y-53396613D01*
X24135716Y-54227554D01*
X24135715Y-54227556D01*
X23811497Y-55010288D01*
X23340805Y-55714728D01*
X22741728Y-56313805D01*
X22037288Y-56784497D01*
X22037287Y-56784498D01*
X22037286Y-56784498D01*
X21254554Y-57108716D01*
X20423613Y-57274000D01*
X19576387Y-57274000D01*
X18745446Y-57108716D01*
X17962714Y-56784498D01*
X17962713Y-56784498D01*
X17962712Y-56784497D01*
X17258272Y-56313805D01*
X16659195Y-55714728D01*
X16188503Y-55010288D01*
X15864285Y-54227556D01*
X15864284Y-54227554D01*
X15699000Y-53396613D01*
X15699000Y-52549387D01*
X15864284Y-51718446D01*
X16188502Y-50935714D01*
X16188503Y-50935712D01*
X16659195Y-50231272D01*
X17258272Y-49632195D01*
X17962712Y-49161503D01*
X17962714Y-49161502D01*
X18745446Y-48837284D01*
X19576387Y-48672000D01*
X20423613Y-48672000D01*
X21254554Y-48837284D01*
X21254554Y-48837284D01*
G37*
G36*
X1254554Y-48837284D02*
G01*
X2037286Y-49161502D01*
X2037288Y-49161503D01*
X2741728Y-49632195D01*
X3340805Y-50231272D01*
X3811497Y-50935712D01*
X3811498Y-50935714D01*
X4135716Y-51718446D01*
X4301000Y-52549387D01*
X4301000Y-53396613D01*
X4135716Y-54227554D01*
X4135715Y-54227556D01*
X3811497Y-55010288D01*
X3340805Y-55714728D01*
X2741728Y-56313805D01*
X2037288Y-56784497D01*
X2037287Y-56784498D01*
X2037286Y-56784498D01*
X1254554Y-57108716D01*
X423613Y-57274000D01*
X-423613Y-57274000D01*
X-1254554Y-57108716D01*
X-2037286Y-56784498D01*
X-2037287Y-56784498D01*
X-2037288Y-56784497D01*
X-2741728Y-56313805D01*
X-3340805Y-55714728D01*
X-3811497Y-55010288D01*
X-4135715Y-54227556D01*
X-4135716Y-54227554D01*
X-4301000Y-53396613D01*
X-4301000Y-52549387D01*
X-4135716Y-51718446D01*
X-3811498Y-50935714D01*
X-3811497Y-50935712D01*
X-3340805Y-50231272D01*
X-2741728Y-49632195D01*
X-2037288Y-49161503D01*
X-2037286Y-49161502D01*
X-1254554Y-48837284D01*
X-423613Y-48672000D01*
X423613Y-48672000D01*
X1254554Y-48837284D01*
X1254554Y-48837284D01*
G37*
G36*
X41254554Y-48837284D02*
G01*
X42037286Y-49161502D01*
X42037288Y-49161503D01*
X42741728Y-49632195D01*
X43340805Y-50231272D01*
X43811497Y-50935712D01*
X43811498Y-50935714D01*
X44135716Y-51718446D01*
X44301000Y-52549387D01*
X44301000Y-53396613D01*
X44135716Y-54227554D01*
X44135715Y-54227556D01*
X43811497Y-55010288D01*
X43340805Y-55714728D01*
X42741728Y-56313805D01*
X42037288Y-56784497D01*
X42037287Y-56784498D01*
X42037286Y-56784498D01*
X41254554Y-57108716D01*
X40423613Y-57274000D01*
X39576387Y-57274000D01*
X38745446Y-57108716D01*
X37962714Y-56784498D01*
X37962713Y-56784498D01*
X37962712Y-56784497D01*
X37258272Y-56313805D01*
X36659195Y-55714728D01*
X36188503Y-55010288D01*
X35864285Y-54227556D01*
X35864284Y-54227554D01*
X35699000Y-53396613D01*
X35699000Y-52549387D01*
X35864284Y-51718446D01*
X36188502Y-50935714D01*
X36188503Y-50935712D01*
X36659195Y-50231272D01*
X37258272Y-49632195D01*
X37962712Y-49161503D01*
X37962714Y-49161502D01*
X38745446Y-48837284D01*
X39576387Y-48672000D01*
X40423613Y-48672000D01*
X41254554Y-48837284D01*
X41254554Y-48837284D01*
G37*
G36*
X71254554Y-42892284D02*
G01*
X72037286Y-43216502D01*
X72037288Y-43216503D01*
X72741728Y-43687195D01*
X73340805Y-44286272D01*
X73811497Y-44990712D01*
X73811498Y-44990714D01*
X74135716Y-45773446D01*
X74301000Y-46604387D01*
X74301000Y-47451613D01*
X74135716Y-48282554D01*
X74135715Y-48282556D01*
X73811497Y-49065288D01*
X73340805Y-49769728D01*
X72741728Y-50368805D01*
X72037288Y-50839497D01*
X72037287Y-50839498D01*
X72037286Y-50839498D01*
X71254554Y-51163716D01*
X70423613Y-51329000D01*
X69576387Y-51329000D01*
X68745446Y-51163716D01*
X67962714Y-50839498D01*
X67962713Y-50839498D01*
X67962712Y-50839497D01*
X67258272Y-50368805D01*
X66659195Y-49769728D01*
X66188503Y-49065288D01*
X65864285Y-48282556D01*
X65864284Y-48282554D01*
X65699000Y-47451613D01*
X65699000Y-46604387D01*
X65864284Y-45773446D01*
X66188502Y-44990714D01*
X66188503Y-44990712D01*
X66659195Y-44286272D01*
X67258272Y-43687195D01*
X67962712Y-43216503D01*
X67962714Y-43216502D01*
X68745446Y-42892284D01*
X69576387Y-42727000D01*
X70423613Y-42727000D01*
X71254554Y-42892284D01*
X71254554Y-42892284D01*
G37*
G36*
X91254554Y-42892284D02*
G01*
X92037286Y-43216502D01*
X92037288Y-43216503D01*
X92741728Y-43687195D01*
X93340805Y-44286272D01*
X93811497Y-44990712D01*
X93811498Y-44990714D01*
X94135716Y-45773446D01*
X94301000Y-46604387D01*
X94301000Y-47451613D01*
X94135716Y-48282554D01*
X94135715Y-48282556D01*
X93811497Y-49065288D01*
X93340805Y-49769728D01*
X92741728Y-50368805D01*
X92037288Y-50839497D01*
X92037287Y-50839498D01*
X92037286Y-50839498D01*
X91254554Y-51163716D01*
X90423613Y-51329000D01*
X89576387Y-51329000D01*
X88745446Y-51163716D01*
X87962714Y-50839498D01*
X87962713Y-50839498D01*
X87962712Y-50839497D01*
X87258272Y-50368805D01*
X86659195Y-49769728D01*
X86188503Y-49065288D01*
X85864285Y-48282556D01*
X85864284Y-48282554D01*
X85699000Y-47451613D01*
X85699000Y-46604387D01*
X85864284Y-45773446D01*
X86188502Y-44990714D01*
X86188503Y-44990712D01*
X86659195Y-44286272D01*
X87258272Y-43687195D01*
X87962712Y-43216503D01*
X87962714Y-43216502D01*
X88745446Y-42892284D01*
X89576387Y-42727000D01*
X90423613Y-42727000D01*
X91254554Y-42892284D01*
X91254554Y-42892284D01*
G37*
G36*
X11254554Y-42892284D02*
G01*
X12037286Y-43216502D01*
X12037288Y-43216503D01*
X12741728Y-43687195D01*
X13340805Y-44286272D01*
X13811497Y-44990712D01*
X13811498Y-44990714D01*
X14135716Y-45773446D01*
X14301000Y-46604387D01*
X14301000Y-47451613D01*
X14135716Y-48282554D01*
X14135715Y-48282556D01*
X13811497Y-49065288D01*
X13340805Y-49769728D01*
X12741728Y-50368805D01*
X12037288Y-50839497D01*
X12037287Y-50839498D01*
X12037286Y-50839498D01*
X11254554Y-51163716D01*
X10423613Y-51329000D01*
X9576387Y-51329000D01*
X8745446Y-51163716D01*
X7962714Y-50839498D01*
X7962713Y-50839498D01*
X7962712Y-50839497D01*
X7258272Y-50368805D01*
X6659195Y-49769728D01*
X6188503Y-49065288D01*
X5864285Y-48282556D01*
X5864284Y-48282554D01*
X5699000Y-47451613D01*
X5699000Y-46604387D01*
X5864284Y-45773446D01*
X6188502Y-44990714D01*
X6188503Y-44990712D01*
X6659195Y-44286272D01*
X7258272Y-43687195D01*
X7962712Y-43216503D01*
X7962714Y-43216502D01*
X8745446Y-42892284D01*
X9576387Y-42727000D01*
X10423613Y-42727000D01*
X11254554Y-42892284D01*
X11254554Y-42892284D01*
G37*
G36*
X31254554Y-42892284D02*
G01*
X32037286Y-43216502D01*
X32037288Y-43216503D01*
X32741728Y-43687195D01*
X33340805Y-44286272D01*
X33811497Y-44990712D01*
X33811498Y-44990714D01*
X34135716Y-45773446D01*
X34301000Y-46604387D01*
X34301000Y-47451613D01*
X34135716Y-48282554D01*
X34135715Y-48282556D01*
X33811497Y-49065288D01*
X33340805Y-49769728D01*
X32741728Y-50368805D01*
X32037288Y-50839497D01*
X32037287Y-50839498D01*
X32037286Y-50839498D01*
X31254554Y-51163716D01*
X30423613Y-51329000D01*
X29576387Y-51329000D01*
X28745446Y-51163716D01*
X27962714Y-50839498D01*
X27962713Y-50839498D01*
X27962712Y-50839497D01*
X27258272Y-50368805D01*
X26659195Y-49769728D01*
X26188503Y-49065288D01*
X25864285Y-48282556D01*
X25864284Y-48282554D01*
X25699000Y-47451613D01*
X25699000Y-46604387D01*
X25864284Y-45773446D01*
X26188502Y-44990714D01*
X26188503Y-44990712D01*
X26659195Y-44286272D01*
X27258272Y-43687195D01*
X27962712Y-43216503D01*
X27962714Y-43216502D01*
X28745446Y-42892284D01*
X29576387Y-42727000D01*
X30423613Y-42727000D01*
X31254554Y-42892284D01*
X31254554Y-42892284D01*
G37*
G36*
X51254554Y-42892284D02*
G01*
X52037286Y-43216502D01*
X52037288Y-43216503D01*
X52741728Y-43687195D01*
X53340805Y-44286272D01*
X53811497Y-44990712D01*
X53811498Y-44990714D01*
X54135716Y-45773446D01*
X54301000Y-46604387D01*
X54301000Y-47451613D01*
X54135716Y-48282554D01*
X54135715Y-48282556D01*
X53811497Y-49065288D01*
X53340805Y-49769728D01*
X52741728Y-50368805D01*
X52037288Y-50839497D01*
X52037287Y-50839498D01*
X52037286Y-50839498D01*
X51254554Y-51163716D01*
X50423613Y-51329000D01*
X49576387Y-51329000D01*
X48745446Y-51163716D01*
X47962714Y-50839498D01*
X47962713Y-50839498D01*
X47962712Y-50839497D01*
X47258272Y-50368805D01*
X46659195Y-49769728D01*
X46188503Y-49065288D01*
X45864285Y-48282556D01*
X45864284Y-48282554D01*
X45699000Y-47451613D01*
X45699000Y-46604387D01*
X45864284Y-45773446D01*
X46188502Y-44990714D01*
X46188503Y-44990712D01*
X46659195Y-44286272D01*
X47258272Y-43687195D01*
X47962712Y-43216503D01*
X47962714Y-43216502D01*
X48745446Y-42892284D01*
X49576387Y-42727000D01*
X50423613Y-42727000D01*
X51254554Y-42892284D01*
X51254554Y-42892284D01*
G37*
G36*
X40985401Y-37563054D02*
G01*
X41473322Y-37660107D01*
X42392546Y-38040862D01*
X43219825Y-38593632D01*
X43923368Y-39297175D01*
X44476138Y-40124454D01*
X44856893Y-41043678D01*
X45051000Y-42019520D01*
X45051000Y-43014480D01*
X44856893Y-43990322D01*
X44476138Y-44909546D01*
X43923368Y-45736825D01*
X43219825Y-46440368D01*
X42392546Y-46993138D01*
X41473322Y-47373893D01*
X41082602Y-47451612D01*
X40497481Y-47568000D01*
X39502519Y-47568000D01*
X38917398Y-47451612D01*
X38526678Y-47373893D01*
X37607454Y-46993138D01*
X36780175Y-46440368D01*
X36076632Y-45736825D01*
X35523862Y-44909546D01*
X35143107Y-43990322D01*
X34949000Y-43014480D01*
X34949000Y-42019520D01*
X35143107Y-41043678D01*
X35523862Y-40124454D01*
X36076632Y-39297175D01*
X36780175Y-38593632D01*
X37607454Y-38040862D01*
X38526678Y-37660107D01*
X39014599Y-37563054D01*
X39502519Y-37466000D01*
X40497481Y-37466000D01*
X40985401Y-37563054D01*
X40985401Y-37563054D01*
G37*
G36*
X80985401Y-37563054D02*
G01*
X81473322Y-37660107D01*
X82392546Y-38040862D01*
X83219825Y-38593632D01*
X83923368Y-39297175D01*
X84476138Y-40124454D01*
X84856893Y-41043678D01*
X85051000Y-42019520D01*
X85051000Y-43014480D01*
X84856893Y-43990322D01*
X84476138Y-44909546D01*
X83923368Y-45736825D01*
X83219825Y-46440368D01*
X82392546Y-46993138D01*
X81473322Y-47373893D01*
X81082602Y-47451612D01*
X80497481Y-47568000D01*
X79502519Y-47568000D01*
X78917398Y-47451612D01*
X78526678Y-47373893D01*
X77607454Y-46993138D01*
X76780175Y-46440368D01*
X76076632Y-45736825D01*
X75523862Y-44909546D01*
X75143107Y-43990322D01*
X74949000Y-43014480D01*
X74949000Y-42019520D01*
X75143107Y-41043678D01*
X75523862Y-40124454D01*
X76076632Y-39297175D01*
X76780175Y-38593632D01*
X77607454Y-38040862D01*
X78526678Y-37660107D01*
X79014599Y-37563054D01*
X79502519Y-37466000D01*
X80497481Y-37466000D01*
X80985401Y-37563054D01*
X80985401Y-37563054D01*
G37*
G36*
X985401Y-37563054D02*
G01*
X1473322Y-37660107D01*
X2392546Y-38040862D01*
X3219825Y-38593632D01*
X3923368Y-39297175D01*
X4476138Y-40124454D01*
X4856893Y-41043678D01*
X5051000Y-42019520D01*
X5051000Y-43014480D01*
X4856893Y-43990322D01*
X4476138Y-44909546D01*
X3923368Y-45736825D01*
X3219825Y-46440368D01*
X2392546Y-46993138D01*
X1473322Y-47373893D01*
X1082602Y-47451612D01*
X497481Y-47568000D01*
X-497481Y-47568000D01*
X-1082602Y-47451612D01*
X-1473322Y-47373893D01*
X-2392546Y-46993138D01*
X-3219825Y-46440368D01*
X-3923368Y-45736825D01*
X-4476138Y-44909546D01*
X-4856893Y-43990322D01*
X-5051000Y-43014480D01*
X-5051000Y-42019520D01*
X-4856893Y-41043678D01*
X-4476138Y-40124454D01*
X-3923368Y-39297175D01*
X-3219825Y-38593632D01*
X-2392546Y-38040862D01*
X-1473322Y-37660107D01*
X-985401Y-37563054D01*
X-497481Y-37466000D01*
X497481Y-37466000D01*
X985401Y-37563054D01*
X985401Y-37563054D01*
G37*
G36*
X20985401Y-37563054D02*
G01*
X21473322Y-37660107D01*
X22392546Y-38040862D01*
X23219825Y-38593632D01*
X23923368Y-39297175D01*
X24476138Y-40124454D01*
X24856893Y-41043678D01*
X25051000Y-42019520D01*
X25051000Y-43014480D01*
X24856893Y-43990322D01*
X24476138Y-44909546D01*
X23923368Y-45736825D01*
X23219825Y-46440368D01*
X22392546Y-46993138D01*
X21473322Y-47373893D01*
X21082602Y-47451612D01*
X20497481Y-47568000D01*
X19502519Y-47568000D01*
X18917398Y-47451612D01*
X18526678Y-47373893D01*
X17607454Y-46993138D01*
X16780175Y-46440368D01*
X16076632Y-45736825D01*
X15523862Y-44909546D01*
X15143107Y-43990322D01*
X14949000Y-43014480D01*
X14949000Y-42019520D01*
X15143107Y-41043678D01*
X15523862Y-40124454D01*
X16076632Y-39297175D01*
X16780175Y-38593632D01*
X17607454Y-38040862D01*
X18526678Y-37660107D01*
X19014599Y-37563054D01*
X19502519Y-37466000D01*
X20497481Y-37466000D01*
X20985401Y-37563054D01*
X20985401Y-37563054D01*
G37*
G36*
X60985401Y-37563054D02*
G01*
X61473322Y-37660107D01*
X62392546Y-38040862D01*
X63219825Y-38593632D01*
X63923368Y-39297175D01*
X64476138Y-40124454D01*
X64856893Y-41043678D01*
X65051000Y-42019520D01*
X65051000Y-43014480D01*
X64856893Y-43990322D01*
X64476138Y-44909546D01*
X63923368Y-45736825D01*
X63219825Y-46440368D01*
X62392546Y-46993138D01*
X61473322Y-47373893D01*
X61082602Y-47451612D01*
X60497481Y-47568000D01*
X59502519Y-47568000D01*
X58917398Y-47451612D01*
X58526678Y-47373893D01*
X57607454Y-46993138D01*
X56780175Y-46440368D01*
X56076632Y-45736825D01*
X55523862Y-44909546D01*
X55143107Y-43990322D01*
X54949000Y-43014480D01*
X54949000Y-42019520D01*
X55143107Y-41043678D01*
X55523862Y-40124454D01*
X56076632Y-39297175D01*
X56780175Y-38593632D01*
X57607454Y-38040862D01*
X58526678Y-37660107D01*
X59014599Y-37563054D01*
X59502519Y-37466000D01*
X60497481Y-37466000D01*
X60985401Y-37563054D01*
X60985401Y-37563054D01*
G37*
G36*
X100985401Y-37563054D02*
G01*
X101473322Y-37660107D01*
X102392546Y-38040862D01*
X103219825Y-38593632D01*
X103923368Y-39297175D01*
X104476138Y-40124454D01*
X104856893Y-41043678D01*
X105051000Y-42019520D01*
X105051000Y-43014480D01*
X104856893Y-43990322D01*
X104476138Y-44909546D01*
X103923368Y-45736825D01*
X103219825Y-46440368D01*
X102392546Y-46993138D01*
X101473322Y-47373893D01*
X101082602Y-47451612D01*
X100497481Y-47568000D01*
X99502519Y-47568000D01*
X98917398Y-47451612D01*
X98526678Y-47373893D01*
X97607454Y-46993138D01*
X96780175Y-46440368D01*
X96076632Y-45736825D01*
X95523862Y-44909546D01*
X95143107Y-43990322D01*
X94949000Y-43014480D01*
X94949000Y-42019520D01*
X95143107Y-41043678D01*
X95523862Y-40124454D01*
X96076632Y-39297175D01*
X96780175Y-38593632D01*
X97607454Y-38040862D01*
X98526678Y-37660107D01*
X99014599Y-37563054D01*
X99502519Y-37466000D01*
X100497481Y-37466000D01*
X100985401Y-37563054D01*
X100985401Y-37563054D01*
G37*
G36*
X91650443Y-38105519D02*
G01*
X91716627Y-38112037D01*
X91886466Y-38163557D01*
X92042991Y-38247222D01*
X92078729Y-38276552D01*
X92180186Y-38359814D01*
X92263448Y-38461271D01*
X92292778Y-38497009D01*
X92376443Y-38653534D01*
X92427963Y-38823373D01*
X92445359Y-39000000D01*
X92427963Y-39176627D01*
X92376443Y-39346466D01*
X92292778Y-39502991D01*
X92263448Y-39538729D01*
X92180186Y-39640186D01*
X92078729Y-39723448D01*
X92042991Y-39752778D01*
X91886466Y-39836443D01*
X91716627Y-39887963D01*
X91650442Y-39894482D01*
X91584260Y-39901000D01*
X91495740Y-39901000D01*
X91429558Y-39894482D01*
X91363373Y-39887963D01*
X91193534Y-39836443D01*
X91037009Y-39752778D01*
X91001271Y-39723448D01*
X90899814Y-39640186D01*
X90816552Y-39538729D01*
X90787222Y-39502991D01*
X90703557Y-39346466D01*
X90652037Y-39176627D01*
X90634641Y-39000000D01*
X90652037Y-38823373D01*
X90703557Y-38653534D01*
X90787222Y-38497009D01*
X90816552Y-38461271D01*
X90899814Y-38359814D01*
X91001271Y-38276552D01*
X91037009Y-38247222D01*
X91193534Y-38163557D01*
X91363373Y-38112037D01*
X91429557Y-38105519D01*
X91495740Y-38099000D01*
X91584260Y-38099000D01*
X91650443Y-38105519D01*
X91650443Y-38105519D01*
G37*
G36*
X89901000Y-39901000D02*
G01*
X88099000Y-39901000D01*
X88099000Y-38099000D01*
X89901000Y-38099000D01*
X89901000Y-39901000D01*
X89901000Y-39901000D01*
G37*
G36*
X10901000Y-38901000D02*
G01*
X9099000Y-38901000D01*
X9099000Y-37099000D01*
X10901000Y-37099000D01*
X10901000Y-38901000D01*
X10901000Y-38901000D01*
G37*
G36*
X93246823Y-34161313D02*
G01*
X93407242Y-34209976D01*
X93474361Y-34245852D01*
X93555078Y-34288996D01*
X93684659Y-34395341D01*
X93791004Y-34524922D01*
X93791005Y-34524924D01*
X93870024Y-34672758D01*
X93918687Y-34833177D01*
X93935117Y-35000000D01*
X93918687Y-35166823D01*
X93870024Y-35327242D01*
X93829477Y-35403100D01*
X93791004Y-35475078D01*
X93684659Y-35604659D01*
X93555078Y-35711004D01*
X93555076Y-35711005D01*
X93407242Y-35790024D01*
X93246823Y-35838687D01*
X93121804Y-35851000D01*
X93038196Y-35851000D01*
X92913177Y-35838687D01*
X92752758Y-35790024D01*
X92604924Y-35711005D01*
X92604922Y-35711004D01*
X92475341Y-35604659D01*
X92368996Y-35475078D01*
X92330523Y-35403100D01*
X92289976Y-35327242D01*
X92241313Y-35166823D01*
X92224883Y-35000000D01*
X92241313Y-34833177D01*
X92289976Y-34672758D01*
X92368995Y-34524924D01*
X92368996Y-34524922D01*
X92475341Y-34395341D01*
X92604922Y-34288996D01*
X92685639Y-34245852D01*
X92752758Y-34209976D01*
X92913177Y-34161313D01*
X93038196Y-34149000D01*
X93121804Y-34149000D01*
X93246823Y-34161313D01*
X93246823Y-34161313D01*
G37*
G36*
X88248228Y-34181703D02*
G01*
X88403100Y-34245853D01*
X88542481Y-34338985D01*
X88661015Y-34457519D01*
X88754147Y-34596900D01*
X88818297Y-34751772D01*
X88851000Y-34916184D01*
X88851000Y-35083816D01*
X88818297Y-35248228D01*
X88754147Y-35403100D01*
X88661015Y-35542481D01*
X88542481Y-35661015D01*
X88403100Y-35754147D01*
X88248228Y-35818297D01*
X88083816Y-35851000D01*
X87916184Y-35851000D01*
X87751772Y-35818297D01*
X87596900Y-35754147D01*
X87457519Y-35661015D01*
X87338985Y-35542481D01*
X87245853Y-35403100D01*
X87181703Y-35248228D01*
X87149000Y-35083816D01*
X87149000Y-34916184D01*
X87181703Y-34751772D01*
X87245853Y-34596900D01*
X87338985Y-34457519D01*
X87457519Y-34338985D01*
X87596900Y-34245853D01*
X87751772Y-34181703D01*
X87916184Y-34149000D01*
X88083816Y-34149000D01*
X88248228Y-34181703D01*
X88248228Y-34181703D01*
G37*
G36*
X30985401Y-19197053D02*
G01*
X31473322Y-19294107D01*
X32392546Y-19674862D01*
X33219825Y-20227632D01*
X33923368Y-20931175D01*
X34476138Y-21758454D01*
X34856893Y-22677678D01*
X35051000Y-23653520D01*
X35051000Y-24648480D01*
X34856893Y-25624322D01*
X34476138Y-26543546D01*
X33923368Y-27370825D01*
X33219825Y-28074368D01*
X32392546Y-28627138D01*
X31473322Y-29007893D01*
X30985401Y-29104946D01*
X30497481Y-29202000D01*
X29502519Y-29202000D01*
X29014599Y-29104946D01*
X28526678Y-29007893D01*
X27607454Y-28627138D01*
X26780175Y-28074368D01*
X26076632Y-27370825D01*
X25523862Y-26543546D01*
X25143107Y-25624322D01*
X24949000Y-24648480D01*
X24949000Y-23653520D01*
X25143107Y-22677678D01*
X25523862Y-21758454D01*
X26076632Y-20931175D01*
X26780175Y-20227632D01*
X27607454Y-19674862D01*
X28526678Y-19294107D01*
X29014599Y-19197053D01*
X29502519Y-19100000D01*
X30497481Y-19100000D01*
X30985401Y-19197053D01*
X30985401Y-19197053D01*
G37*
G36*
X70985401Y-19197053D02*
G01*
X71473322Y-19294107D01*
X72392546Y-19674862D01*
X73219825Y-20227632D01*
X73923368Y-20931175D01*
X74476138Y-21758454D01*
X74856893Y-22677678D01*
X75051000Y-23653520D01*
X75051000Y-24648480D01*
X74856893Y-25624322D01*
X74476138Y-26543546D01*
X73923368Y-27370825D01*
X73219825Y-28074368D01*
X72392546Y-28627138D01*
X71473322Y-29007893D01*
X70985401Y-29104946D01*
X70497481Y-29202000D01*
X69502519Y-29202000D01*
X69014599Y-29104946D01*
X68526678Y-29007893D01*
X67607454Y-28627138D01*
X66780175Y-28074368D01*
X66076632Y-27370825D01*
X65523862Y-26543546D01*
X65143107Y-25624322D01*
X64949000Y-24648480D01*
X64949000Y-23653520D01*
X65143107Y-22677678D01*
X65523862Y-21758454D01*
X66076632Y-20931175D01*
X66780175Y-20227632D01*
X67607454Y-19674862D01*
X68526678Y-19294107D01*
X69014599Y-19197053D01*
X69502519Y-19100000D01*
X70497481Y-19100000D01*
X70985401Y-19197053D01*
X70985401Y-19197053D01*
G37*
G36*
X10985401Y-19197053D02*
G01*
X11473322Y-19294107D01*
X12392546Y-19674862D01*
X13219825Y-20227632D01*
X13923368Y-20931175D01*
X14476138Y-21758454D01*
X14856893Y-22677678D01*
X15051000Y-23653520D01*
X15051000Y-24648480D01*
X14856893Y-25624322D01*
X14476138Y-26543546D01*
X13923368Y-27370825D01*
X13219825Y-28074368D01*
X12392546Y-28627138D01*
X11473322Y-29007893D01*
X10985401Y-29104946D01*
X10497481Y-29202000D01*
X9502519Y-29202000D01*
X9014599Y-29104946D01*
X8526678Y-29007893D01*
X7607454Y-28627138D01*
X6780175Y-28074368D01*
X6076632Y-27370825D01*
X5523862Y-26543546D01*
X5143107Y-25624322D01*
X4949000Y-24648480D01*
X4949000Y-23653520D01*
X5143107Y-22677678D01*
X5523862Y-21758454D01*
X6076632Y-20931175D01*
X6780175Y-20227632D01*
X7607454Y-19674862D01*
X8526678Y-19294107D01*
X9014599Y-19197053D01*
X9502519Y-19100000D01*
X10497481Y-19100000D01*
X10985401Y-19197053D01*
X10985401Y-19197053D01*
G37*
G36*
X90985401Y-19197053D02*
G01*
X91473322Y-19294107D01*
X92392546Y-19674862D01*
X93219825Y-20227632D01*
X93923368Y-20931175D01*
X94476138Y-21758454D01*
X94856893Y-22677678D01*
X95051000Y-23653520D01*
X95051000Y-24648480D01*
X94856893Y-25624322D01*
X94476138Y-26543546D01*
X93923368Y-27370825D01*
X93219825Y-28074368D01*
X92392546Y-28627138D01*
X91473322Y-29007893D01*
X90985401Y-29104946D01*
X90497481Y-29202000D01*
X89502519Y-29202000D01*
X89014599Y-29104946D01*
X88526678Y-29007893D01*
X87607454Y-28627138D01*
X86780175Y-28074368D01*
X86076632Y-27370825D01*
X85523862Y-26543546D01*
X85143107Y-25624322D01*
X84949000Y-24648480D01*
X84949000Y-23653520D01*
X85143107Y-22677678D01*
X85523862Y-21758454D01*
X86076632Y-20931175D01*
X86780175Y-20227632D01*
X87607454Y-19674862D01*
X88526678Y-19294107D01*
X89014599Y-19197053D01*
X89502519Y-19100000D01*
X90497481Y-19100000D01*
X90985401Y-19197053D01*
X90985401Y-19197053D01*
G37*
G36*
X50985401Y-19197053D02*
G01*
X51473322Y-19294107D01*
X52392546Y-19674862D01*
X53219825Y-20227632D01*
X53923368Y-20931175D01*
X54476138Y-21758454D01*
X54856893Y-22677678D01*
X55051000Y-23653520D01*
X55051000Y-24648480D01*
X54856893Y-25624322D01*
X54476138Y-26543546D01*
X53923368Y-27370825D01*
X53219825Y-28074368D01*
X52392546Y-28627138D01*
X51473322Y-29007893D01*
X50985401Y-29104946D01*
X50497481Y-29202000D01*
X49502519Y-29202000D01*
X49014599Y-29104946D01*
X48526678Y-29007893D01*
X47607454Y-28627138D01*
X46780175Y-28074368D01*
X46076632Y-27370825D01*
X45523862Y-26543546D01*
X45143107Y-25624322D01*
X44949000Y-24648480D01*
X44949000Y-23653520D01*
X45143107Y-22677678D01*
X45523862Y-21758454D01*
X46076632Y-20931175D01*
X46780175Y-20227632D01*
X47607454Y-19674862D01*
X48526678Y-19294107D01*
X49014599Y-19197053D01*
X49502519Y-19100000D01*
X50497481Y-19100000D01*
X50985401Y-19197053D01*
X50985401Y-19197053D01*
G37*
G36*
X21254554Y-15504284D02*
G01*
X22037286Y-15828502D01*
X22037288Y-15828503D01*
X22741728Y-16299195D01*
X23340805Y-16898272D01*
X23811497Y-17602712D01*
X23811498Y-17602714D01*
X24135716Y-18385446D01*
X24301000Y-19216387D01*
X24301000Y-20063613D01*
X24135716Y-20894554D01*
X24135715Y-20894556D01*
X23811497Y-21677288D01*
X23340805Y-22381728D01*
X22741728Y-22980805D01*
X22037288Y-23451497D01*
X22037287Y-23451498D01*
X22037286Y-23451498D01*
X21254554Y-23775716D01*
X20423613Y-23941000D01*
X19576387Y-23941000D01*
X18745446Y-23775716D01*
X17962714Y-23451498D01*
X17962713Y-23451498D01*
X17962712Y-23451497D01*
X17258272Y-22980805D01*
X16659195Y-22381728D01*
X16188503Y-21677288D01*
X15864285Y-20894556D01*
X15864284Y-20894554D01*
X15699000Y-20063613D01*
X15699000Y-19216387D01*
X15864284Y-18385446D01*
X16188502Y-17602714D01*
X16188503Y-17602712D01*
X16659195Y-16898272D01*
X17258272Y-16299195D01*
X17962712Y-15828503D01*
X17962714Y-15828502D01*
X18745446Y-15504284D01*
X19576387Y-15339000D01*
X20423613Y-15339000D01*
X21254554Y-15504284D01*
X21254554Y-15504284D01*
G37*
G36*
X41254554Y-15504284D02*
G01*
X42037286Y-15828502D01*
X42037288Y-15828503D01*
X42741728Y-16299195D01*
X43340805Y-16898272D01*
X43811497Y-17602712D01*
X43811498Y-17602714D01*
X44135716Y-18385446D01*
X44301000Y-19216387D01*
X44301000Y-20063613D01*
X44135716Y-20894554D01*
X44135715Y-20894556D01*
X43811497Y-21677288D01*
X43340805Y-22381728D01*
X42741728Y-22980805D01*
X42037288Y-23451497D01*
X42037287Y-23451498D01*
X42037286Y-23451498D01*
X41254554Y-23775716D01*
X40423613Y-23941000D01*
X39576387Y-23941000D01*
X38745446Y-23775716D01*
X37962714Y-23451498D01*
X37962713Y-23451498D01*
X37962712Y-23451497D01*
X37258272Y-22980805D01*
X36659195Y-22381728D01*
X36188503Y-21677288D01*
X35864285Y-20894556D01*
X35864284Y-20894554D01*
X35699000Y-20063613D01*
X35699000Y-19216387D01*
X35864284Y-18385446D01*
X36188502Y-17602714D01*
X36188503Y-17602712D01*
X36659195Y-16898272D01*
X37258272Y-16299195D01*
X37962712Y-15828503D01*
X37962714Y-15828502D01*
X38745446Y-15504284D01*
X39576387Y-15339000D01*
X40423613Y-15339000D01*
X41254554Y-15504284D01*
X41254554Y-15504284D01*
G37*
G36*
X1254554Y-15504284D02*
G01*
X2037286Y-15828502D01*
X2037288Y-15828503D01*
X2741728Y-16299195D01*
X3340805Y-16898272D01*
X3811497Y-17602712D01*
X3811498Y-17602714D01*
X4135716Y-18385446D01*
X4301000Y-19216387D01*
X4301000Y-20063613D01*
X4135716Y-20894554D01*
X4135715Y-20894556D01*
X3811497Y-21677288D01*
X3340805Y-22381728D01*
X2741728Y-22980805D01*
X2037288Y-23451497D01*
X2037287Y-23451498D01*
X2037286Y-23451498D01*
X1254554Y-23775716D01*
X423613Y-23941000D01*
X-423613Y-23941000D01*
X-1254554Y-23775716D01*
X-2037286Y-23451498D01*
X-2037287Y-23451498D01*
X-2037288Y-23451497D01*
X-2741728Y-22980805D01*
X-3340805Y-22381728D01*
X-3811497Y-21677288D01*
X-4135715Y-20894556D01*
X-4135716Y-20894554D01*
X-4301000Y-20063613D01*
X-4301000Y-19216387D01*
X-4135716Y-18385446D01*
X-3811498Y-17602714D01*
X-3811497Y-17602712D01*
X-3340805Y-16898272D01*
X-2741728Y-16299195D01*
X-2037288Y-15828503D01*
X-2037286Y-15828502D01*
X-1254554Y-15504284D01*
X-423613Y-15339000D01*
X423613Y-15339000D01*
X1254554Y-15504284D01*
X1254554Y-15504284D01*
G37*
G36*
X81254554Y-15504284D02*
G01*
X82037286Y-15828502D01*
X82037288Y-15828503D01*
X82741728Y-16299195D01*
X83340805Y-16898272D01*
X83811497Y-17602712D01*
X83811498Y-17602714D01*
X84135716Y-18385446D01*
X84301000Y-19216387D01*
X84301000Y-20063613D01*
X84135716Y-20894554D01*
X84135715Y-20894556D01*
X83811497Y-21677288D01*
X83340805Y-22381728D01*
X82741728Y-22980805D01*
X82037288Y-23451497D01*
X82037287Y-23451498D01*
X82037286Y-23451498D01*
X81254554Y-23775716D01*
X80423613Y-23941000D01*
X79576387Y-23941000D01*
X78745446Y-23775716D01*
X77962714Y-23451498D01*
X77962713Y-23451498D01*
X77962712Y-23451497D01*
X77258272Y-22980805D01*
X76659195Y-22381728D01*
X76188503Y-21677288D01*
X75864285Y-20894556D01*
X75864284Y-20894554D01*
X75699000Y-20063613D01*
X75699000Y-19216387D01*
X75864284Y-18385446D01*
X76188502Y-17602714D01*
X76188503Y-17602712D01*
X76659195Y-16898272D01*
X77258272Y-16299195D01*
X77962712Y-15828503D01*
X77962714Y-15828502D01*
X78745446Y-15504284D01*
X79576387Y-15339000D01*
X80423613Y-15339000D01*
X81254554Y-15504284D01*
X81254554Y-15504284D01*
G37*
G36*
X101254554Y-15504284D02*
G01*
X102037286Y-15828502D01*
X102037288Y-15828503D01*
X102741728Y-16299195D01*
X103340805Y-16898272D01*
X103811497Y-17602712D01*
X103811498Y-17602714D01*
X104135716Y-18385446D01*
X104301000Y-19216387D01*
X104301000Y-20063613D01*
X104135716Y-20894554D01*
X104135715Y-20894556D01*
X103811497Y-21677288D01*
X103340805Y-22381728D01*
X102741728Y-22980805D01*
X102037288Y-23451497D01*
X102037287Y-23451498D01*
X102037286Y-23451498D01*
X101254554Y-23775716D01*
X100423613Y-23941000D01*
X99576387Y-23941000D01*
X98745446Y-23775716D01*
X97962714Y-23451498D01*
X97962713Y-23451498D01*
X97962712Y-23451497D01*
X97258272Y-22980805D01*
X96659195Y-22381728D01*
X96188503Y-21677288D01*
X95864285Y-20894556D01*
X95864284Y-20894554D01*
X95699000Y-20063613D01*
X95699000Y-19216387D01*
X95864284Y-18385446D01*
X96188502Y-17602714D01*
X96188503Y-17602712D01*
X96659195Y-16898272D01*
X97258272Y-16299195D01*
X97962712Y-15828503D01*
X97962714Y-15828502D01*
X98745446Y-15504284D01*
X99576387Y-15339000D01*
X100423613Y-15339000D01*
X101254554Y-15504284D01*
X101254554Y-15504284D01*
G37*
G36*
X61254554Y-15504284D02*
G01*
X62037286Y-15828502D01*
X62037288Y-15828503D01*
X62741728Y-16299195D01*
X63340805Y-16898272D01*
X63811497Y-17602712D01*
X63811498Y-17602714D01*
X64135716Y-18385446D01*
X64301000Y-19216387D01*
X64301000Y-20063613D01*
X64135716Y-20894554D01*
X64135715Y-20894556D01*
X63811497Y-21677288D01*
X63340805Y-22381728D01*
X62741728Y-22980805D01*
X62037288Y-23451497D01*
X62037287Y-23451498D01*
X62037286Y-23451498D01*
X61254554Y-23775716D01*
X60423613Y-23941000D01*
X59576387Y-23941000D01*
X58745446Y-23775716D01*
X57962714Y-23451498D01*
X57962713Y-23451498D01*
X57962712Y-23451497D01*
X57258272Y-22980805D01*
X56659195Y-22381728D01*
X56188503Y-21677288D01*
X55864285Y-20894556D01*
X55864284Y-20894554D01*
X55699000Y-20063613D01*
X55699000Y-19216387D01*
X55864284Y-18385446D01*
X56188502Y-17602714D01*
X56188503Y-17602712D01*
X56659195Y-16898272D01*
X57258272Y-16299195D01*
X57962712Y-15828503D01*
X57962714Y-15828502D01*
X58745446Y-15504284D01*
X59576387Y-15339000D01*
X60423613Y-15339000D01*
X61254554Y-15504284D01*
X61254554Y-15504284D01*
G37*
G36*
X71254554Y-9559284D02*
G01*
X72037286Y-9883502D01*
X72037288Y-9883503D01*
X72741728Y-10354195D01*
X73340805Y-10953272D01*
X73811497Y-11657712D01*
X73811498Y-11657714D01*
X74135716Y-12440446D01*
X74301000Y-13271387D01*
X74301000Y-14118613D01*
X74135716Y-14949554D01*
X74135715Y-14949556D01*
X73811497Y-15732288D01*
X73340805Y-16436728D01*
X72741728Y-17035805D01*
X72037288Y-17506497D01*
X72037287Y-17506498D01*
X72037286Y-17506498D01*
X71254554Y-17830716D01*
X70423613Y-17996000D01*
X69576387Y-17996000D01*
X68745446Y-17830716D01*
X67962714Y-17506498D01*
X67962713Y-17506498D01*
X67962712Y-17506497D01*
X67258272Y-17035805D01*
X66659195Y-16436728D01*
X66188503Y-15732288D01*
X65864285Y-14949556D01*
X65864284Y-14949554D01*
X65699000Y-14118613D01*
X65699000Y-13271387D01*
X65864284Y-12440446D01*
X66188502Y-11657714D01*
X66188503Y-11657712D01*
X66659195Y-10953272D01*
X67258272Y-10354195D01*
X67962712Y-9883503D01*
X67962714Y-9883502D01*
X68745446Y-9559284D01*
X69576387Y-9394000D01*
X70423613Y-9394000D01*
X71254554Y-9559284D01*
X71254554Y-9559284D01*
G37*
G36*
X11254554Y-9559284D02*
G01*
X12037286Y-9883502D01*
X12037288Y-9883503D01*
X12741728Y-10354195D01*
X13340805Y-10953272D01*
X13811497Y-11657712D01*
X13811498Y-11657714D01*
X14135716Y-12440446D01*
X14301000Y-13271387D01*
X14301000Y-14118613D01*
X14135716Y-14949554D01*
X14135715Y-14949556D01*
X13811497Y-15732288D01*
X13340805Y-16436728D01*
X12741728Y-17035805D01*
X12037288Y-17506497D01*
X12037287Y-17506498D01*
X12037286Y-17506498D01*
X11254554Y-17830716D01*
X10423613Y-17996000D01*
X9576387Y-17996000D01*
X8745446Y-17830716D01*
X7962714Y-17506498D01*
X7962713Y-17506498D01*
X7962712Y-17506497D01*
X7258272Y-17035805D01*
X6659195Y-16436728D01*
X6188503Y-15732288D01*
X5864285Y-14949556D01*
X5864284Y-14949554D01*
X5699000Y-14118613D01*
X5699000Y-13271387D01*
X5864284Y-12440446D01*
X6188502Y-11657714D01*
X6188503Y-11657712D01*
X6659195Y-10953272D01*
X7258272Y-10354195D01*
X7962712Y-9883503D01*
X7962714Y-9883502D01*
X8745446Y-9559284D01*
X9576387Y-9394000D01*
X10423613Y-9394000D01*
X11254554Y-9559284D01*
X11254554Y-9559284D01*
G37*
G36*
X31254554Y-9559284D02*
G01*
X32037286Y-9883502D01*
X32037288Y-9883503D01*
X32741728Y-10354195D01*
X33340805Y-10953272D01*
X33811497Y-11657712D01*
X33811498Y-11657714D01*
X34135716Y-12440446D01*
X34301000Y-13271387D01*
X34301000Y-14118613D01*
X34135716Y-14949554D01*
X34135715Y-14949556D01*
X33811497Y-15732288D01*
X33340805Y-16436728D01*
X32741728Y-17035805D01*
X32037288Y-17506497D01*
X32037287Y-17506498D01*
X32037286Y-17506498D01*
X31254554Y-17830716D01*
X30423613Y-17996000D01*
X29576387Y-17996000D01*
X28745446Y-17830716D01*
X27962714Y-17506498D01*
X27962713Y-17506498D01*
X27962712Y-17506497D01*
X27258272Y-17035805D01*
X26659195Y-16436728D01*
X26188503Y-15732288D01*
X25864285Y-14949556D01*
X25864284Y-14949554D01*
X25699000Y-14118613D01*
X25699000Y-13271387D01*
X25864284Y-12440446D01*
X26188502Y-11657714D01*
X26188503Y-11657712D01*
X26659195Y-10953272D01*
X27258272Y-10354195D01*
X27962712Y-9883503D01*
X27962714Y-9883502D01*
X28745446Y-9559284D01*
X29576387Y-9394000D01*
X30423613Y-9394000D01*
X31254554Y-9559284D01*
X31254554Y-9559284D01*
G37*
G36*
X51254554Y-9559284D02*
G01*
X52037286Y-9883502D01*
X52037288Y-9883503D01*
X52741728Y-10354195D01*
X53340805Y-10953272D01*
X53811497Y-11657712D01*
X53811498Y-11657714D01*
X54135716Y-12440446D01*
X54301000Y-13271387D01*
X54301000Y-14118613D01*
X54135716Y-14949554D01*
X54135715Y-14949556D01*
X53811497Y-15732288D01*
X53340805Y-16436728D01*
X52741728Y-17035805D01*
X52037288Y-17506497D01*
X52037287Y-17506498D01*
X52037286Y-17506498D01*
X51254554Y-17830716D01*
X50423613Y-17996000D01*
X49576387Y-17996000D01*
X48745446Y-17830716D01*
X47962714Y-17506498D01*
X47962713Y-17506498D01*
X47962712Y-17506497D01*
X47258272Y-17035805D01*
X46659195Y-16436728D01*
X46188503Y-15732288D01*
X45864285Y-14949556D01*
X45864284Y-14949554D01*
X45699000Y-14118613D01*
X45699000Y-13271387D01*
X45864284Y-12440446D01*
X46188502Y-11657714D01*
X46188503Y-11657712D01*
X46659195Y-10953272D01*
X47258272Y-10354195D01*
X47962712Y-9883503D01*
X47962714Y-9883502D01*
X48745446Y-9559284D01*
X49576387Y-9394000D01*
X50423613Y-9394000D01*
X51254554Y-9559284D01*
X51254554Y-9559284D01*
G37*
G36*
X91254554Y-9559284D02*
G01*
X92037286Y-9883502D01*
X92037288Y-9883503D01*
X92741728Y-10354195D01*
X93340805Y-10953272D01*
X93811497Y-11657712D01*
X93811498Y-11657714D01*
X94135716Y-12440446D01*
X94301000Y-13271387D01*
X94301000Y-14118613D01*
X94135716Y-14949554D01*
X94135715Y-14949556D01*
X93811497Y-15732288D01*
X93340805Y-16436728D01*
X92741728Y-17035805D01*
X92037288Y-17506497D01*
X92037287Y-17506498D01*
X92037286Y-17506498D01*
X91254554Y-17830716D01*
X90423613Y-17996000D01*
X89576387Y-17996000D01*
X88745446Y-17830716D01*
X87962714Y-17506498D01*
X87962713Y-17506498D01*
X87962712Y-17506497D01*
X87258272Y-17035805D01*
X86659195Y-16436728D01*
X86188503Y-15732288D01*
X85864285Y-14949556D01*
X85864284Y-14949554D01*
X85699000Y-14118613D01*
X85699000Y-13271387D01*
X85864284Y-12440446D01*
X86188502Y-11657714D01*
X86188503Y-11657712D01*
X86659195Y-10953272D01*
X87258272Y-10354195D01*
X87962712Y-9883503D01*
X87962714Y-9883502D01*
X88745446Y-9559284D01*
X89576387Y-9394000D01*
X90423613Y-9394000D01*
X91254554Y-9559284D01*
X91254554Y-9559284D01*
G37*
G36*
X100985401Y-4230053D02*
G01*
X101473322Y-4327107D01*
X102392546Y-4707862D01*
X103219825Y-5260632D01*
X103923368Y-5964175D01*
X104476138Y-6791454D01*
X104856893Y-7710678D01*
X105051000Y-8686520D01*
X105051000Y-9681480D01*
X104856893Y-10657322D01*
X104476138Y-11576546D01*
X103923368Y-12403825D01*
X103219825Y-13107368D01*
X102392546Y-13660138D01*
X101473322Y-14040893D01*
X101082602Y-14118612D01*
X100497481Y-14235000D01*
X99502519Y-14235000D01*
X98917398Y-14118612D01*
X98526678Y-14040893D01*
X97607454Y-13660138D01*
X96780175Y-13107368D01*
X96076632Y-12403825D01*
X95523862Y-11576546D01*
X95143107Y-10657322D01*
X94949000Y-9681480D01*
X94949000Y-8686520D01*
X95143107Y-7710678D01*
X95523862Y-6791454D01*
X96076632Y-5964175D01*
X96780175Y-5260632D01*
X97607454Y-4707862D01*
X98526678Y-4327107D01*
X99014599Y-4230053D01*
X99502519Y-4133000D01*
X100497481Y-4133000D01*
X100985401Y-4230053D01*
X100985401Y-4230053D01*
G37*
G36*
X985401Y-4230054D02*
G01*
X1473322Y-4327107D01*
X2392546Y-4707862D01*
X3219825Y-5260632D01*
X3923368Y-5964175D01*
X4476138Y-6791454D01*
X4856893Y-7710678D01*
X5051000Y-8686520D01*
X5051000Y-9681480D01*
X4856893Y-10657322D01*
X4476138Y-11576546D01*
X3923368Y-12403825D01*
X3219825Y-13107368D01*
X2392546Y-13660138D01*
X1473322Y-14040893D01*
X1082602Y-14118612D01*
X497481Y-14235000D01*
X-497481Y-14235000D01*
X-1082602Y-14118612D01*
X-1473322Y-14040893D01*
X-2392546Y-13660138D01*
X-3219825Y-13107368D01*
X-3923368Y-12403825D01*
X-4476138Y-11576546D01*
X-4856893Y-10657322D01*
X-5051000Y-9681480D01*
X-5051000Y-8686520D01*
X-4856893Y-7710678D01*
X-4476138Y-6791454D01*
X-3923368Y-5964175D01*
X-3219825Y-5260632D01*
X-2392546Y-4707862D01*
X-1473322Y-4327107D01*
X-985401Y-4230054D01*
X-497481Y-4133000D01*
X497481Y-4133000D01*
X985401Y-4230054D01*
X985401Y-4230054D01*
G37*
G36*
X20985401Y-4230054D02*
G01*
X21473322Y-4327107D01*
X22392546Y-4707862D01*
X23219825Y-5260632D01*
X23923368Y-5964175D01*
X24476138Y-6791454D01*
X24856893Y-7710678D01*
X25051000Y-8686520D01*
X25051000Y-9681480D01*
X24856893Y-10657322D01*
X24476138Y-11576546D01*
X23923368Y-12403825D01*
X23219825Y-13107368D01*
X22392546Y-13660138D01*
X21473322Y-14040893D01*
X21082602Y-14118612D01*
X20497481Y-14235000D01*
X19502519Y-14235000D01*
X18917398Y-14118612D01*
X18526678Y-14040893D01*
X17607454Y-13660138D01*
X16780175Y-13107368D01*
X16076632Y-12403825D01*
X15523862Y-11576546D01*
X15143107Y-10657322D01*
X14949000Y-9681480D01*
X14949000Y-8686520D01*
X15143107Y-7710678D01*
X15523862Y-6791454D01*
X16076632Y-5964175D01*
X16780175Y-5260632D01*
X17607454Y-4707862D01*
X18526678Y-4327107D01*
X19014599Y-4230053D01*
X19502519Y-4133000D01*
X20497481Y-4133000D01*
X20985401Y-4230054D01*
X20985401Y-4230054D01*
G37*
G36*
X40985401Y-4230054D02*
G01*
X41473322Y-4327107D01*
X42392546Y-4707862D01*
X43219825Y-5260632D01*
X43923368Y-5964175D01*
X44476138Y-6791454D01*
X44856893Y-7710678D01*
X45051000Y-8686520D01*
X45051000Y-9681480D01*
X44856893Y-10657322D01*
X44476138Y-11576546D01*
X43923368Y-12403825D01*
X43219825Y-13107368D01*
X42392546Y-13660138D01*
X41473322Y-14040893D01*
X41082602Y-14118612D01*
X40497481Y-14235000D01*
X39502519Y-14235000D01*
X38917398Y-14118612D01*
X38526678Y-14040893D01*
X37607454Y-13660138D01*
X36780175Y-13107368D01*
X36076632Y-12403825D01*
X35523862Y-11576546D01*
X35143107Y-10657322D01*
X34949000Y-9681480D01*
X34949000Y-8686520D01*
X35143107Y-7710678D01*
X35523862Y-6791454D01*
X36076632Y-5964175D01*
X36780175Y-5260632D01*
X37607454Y-4707862D01*
X38526678Y-4327107D01*
X39014599Y-4230053D01*
X39502519Y-4133000D01*
X40497481Y-4133000D01*
X40985401Y-4230054D01*
X40985401Y-4230054D01*
G37*
G36*
X80985401Y-4230053D02*
G01*
X81473322Y-4327107D01*
X82392546Y-4707862D01*
X83219825Y-5260632D01*
X83923368Y-5964175D01*
X84476138Y-6791454D01*
X84856893Y-7710678D01*
X85051000Y-8686520D01*
X85051000Y-9681480D01*
X84856893Y-10657322D01*
X84476138Y-11576546D01*
X83923368Y-12403825D01*
X83219825Y-13107368D01*
X82392546Y-13660138D01*
X81473322Y-14040893D01*
X81082602Y-14118612D01*
X80497481Y-14235000D01*
X79502519Y-14235000D01*
X78917398Y-14118612D01*
X78526678Y-14040893D01*
X77607454Y-13660138D01*
X76780175Y-13107368D01*
X76076632Y-12403825D01*
X75523862Y-11576546D01*
X75143107Y-10657322D01*
X74949000Y-9681480D01*
X74949000Y-8686520D01*
X75143107Y-7710678D01*
X75523862Y-6791454D01*
X76076632Y-5964175D01*
X76780175Y-5260632D01*
X77607454Y-4707862D01*
X78526678Y-4327107D01*
X79014599Y-4230053D01*
X79502519Y-4133000D01*
X80497481Y-4133000D01*
X80985401Y-4230053D01*
X80985401Y-4230053D01*
G37*
G36*
X60985401Y-4230053D02*
G01*
X61473322Y-4327107D01*
X62392546Y-4707862D01*
X63219825Y-5260632D01*
X63923368Y-5964175D01*
X64476138Y-6791454D01*
X64856893Y-7710678D01*
X65051000Y-8686520D01*
X65051000Y-9681480D01*
X64856893Y-10657322D01*
X64476138Y-11576546D01*
X63923368Y-12403825D01*
X63219825Y-13107368D01*
X62392546Y-13660138D01*
X61473322Y-14040893D01*
X61082602Y-14118612D01*
X60497481Y-14235000D01*
X59502519Y-14235000D01*
X58917398Y-14118612D01*
X58526678Y-14040893D01*
X57607454Y-13660138D01*
X56780175Y-13107368D01*
X56076632Y-12403825D01*
X55523862Y-11576546D01*
X55143107Y-10657322D01*
X54949000Y-9681480D01*
X54949000Y-8686520D01*
X55143107Y-7710678D01*
X55523862Y-6791454D01*
X56076632Y-5964175D01*
X56780175Y-5260632D01*
X57607454Y-4707862D01*
X58526678Y-4327107D01*
X59014599Y-4230053D01*
X59502519Y-4133000D01*
X60497481Y-4133000D01*
X60985401Y-4230053D01*
X60985401Y-4230053D01*
G37*
G36*
X91650443Y-5105519D02*
G01*
X91716627Y-5112037D01*
X91886466Y-5163557D01*
X92042991Y-5247222D01*
X92059331Y-5260632D01*
X92180186Y-5359814D01*
X92263448Y-5461271D01*
X92292778Y-5497009D01*
X92376443Y-5653534D01*
X92427963Y-5823373D01*
X92445359Y-6000000D01*
X92427963Y-6176627D01*
X92376443Y-6346466D01*
X92292778Y-6502991D01*
X92263448Y-6538729D01*
X92180186Y-6640186D01*
X92078729Y-6723448D01*
X92042991Y-6752778D01*
X91886466Y-6836443D01*
X91716627Y-6887963D01*
X91650443Y-6894481D01*
X91584260Y-6901000D01*
X91495740Y-6901000D01*
X91429557Y-6894481D01*
X91363373Y-6887963D01*
X91193534Y-6836443D01*
X91037009Y-6752778D01*
X91001271Y-6723448D01*
X90899814Y-6640186D01*
X90816552Y-6538729D01*
X90787222Y-6502991D01*
X90703557Y-6346466D01*
X90652037Y-6176627D01*
X90634641Y-6000000D01*
X90652037Y-5823373D01*
X90703557Y-5653534D01*
X90787222Y-5497009D01*
X90816552Y-5461271D01*
X90899814Y-5359814D01*
X91020669Y-5260632D01*
X91037009Y-5247222D01*
X91193534Y-5163557D01*
X91363373Y-5112037D01*
X91429557Y-5105519D01*
X91495740Y-5099000D01*
X91584260Y-5099000D01*
X91650443Y-5105519D01*
X91650443Y-5105519D01*
G37*
G36*
X89901000Y-6901000D02*
G01*
X88099000Y-6901000D01*
X88099000Y-5099000D01*
X89901000Y-5099000D01*
X89901000Y-6901000D01*
X89901000Y-6901000D01*
G37*
G36*
X10901000Y-5901000D02*
G01*
X9099000Y-5901000D01*
X9099000Y-4099000D01*
X10901000Y-4099000D01*
X10901000Y-5901000D01*
X10901000Y-5901000D01*
G37*
G36*
X93130823Y-1447313D02*
G01*
X93291242Y-1495976D01*
X93358361Y-1531852D01*
X93439078Y-1574996D01*
X93568659Y-1681341D01*
X93675004Y-1810922D01*
X93675005Y-1810924D01*
X93754024Y-1958758D01*
X93802687Y-2119177D01*
X93819117Y-2286000D01*
X93802687Y-2452823D01*
X93754024Y-2613242D01*
X93713477Y-2689100D01*
X93675004Y-2761078D01*
X93568659Y-2890659D01*
X93439078Y-2997004D01*
X93439076Y-2997005D01*
X93291242Y-3076024D01*
X93130823Y-3124687D01*
X93005804Y-3137000D01*
X92922196Y-3137000D01*
X92797177Y-3124687D01*
X92636758Y-3076024D01*
X92488924Y-2997005D01*
X92488922Y-2997004D01*
X92359341Y-2890659D01*
X92252996Y-2761078D01*
X92214523Y-2689100D01*
X92173976Y-2613242D01*
X92125313Y-2452823D01*
X92108883Y-2286000D01*
X92125313Y-2119177D01*
X92173976Y-1958758D01*
X92252995Y-1810924D01*
X92252996Y-1810922D01*
X92359341Y-1681341D01*
X92488922Y-1574996D01*
X92569639Y-1531852D01*
X92636758Y-1495976D01*
X92797177Y-1447313D01*
X92922196Y-1435000D01*
X93005804Y-1435000D01*
X93130823Y-1447313D01*
X93130823Y-1447313D01*
G37*
G36*
X88132228Y-1467703D02*
G01*
X88287100Y-1531853D01*
X88426481Y-1624985D01*
X88545015Y-1743519D01*
X88638147Y-1882900D01*
X88702297Y-2037772D01*
X88735000Y-2202184D01*
X88735000Y-2369816D01*
X88702297Y-2534228D01*
X88638147Y-2689100D01*
X88545015Y-2828481D01*
X88426481Y-2947015D01*
X88287100Y-3040147D01*
X88132228Y-3104297D01*
X87967816Y-3137000D01*
X87800184Y-3137000D01*
X87635772Y-3104297D01*
X87480900Y-3040147D01*
X87341519Y-2947015D01*
X87222985Y-2828481D01*
X87129853Y-2689100D01*
X87065703Y-2534228D01*
X87033000Y-2369816D01*
X87033000Y-2202184D01*
X87065703Y-2037772D01*
X87129853Y-1882900D01*
X87222985Y-1743519D01*
X87341519Y-1624985D01*
X87480900Y-1531853D01*
X87635772Y-1467703D01*
X87800184Y-1435000D01*
X87967816Y-1435000D01*
X88132228Y-1467703D01*
X88132228Y-1467703D01*
G37*
M02*
