M48
; DRILL file {KiCad (5.1.0-1152-gc9ccd8a64)} date 2019-07-22 10:45:45 AM
; FORMAT={-:-/ absolute / inch / decimal}
; #@! TF.CreationDate,2019-07-22T10:45:45-04:00
; #@! TF.GenerationSoftware,Kicad,Pcbnew,(5.1.0-1152-gc9ccd8a64)
FMAT,2
INCH
T1C0.0157
T2C0.0394
T3C0.0472
T4C0.1969
%
G90
G05
T1
X3.1821Y-6.8027
X3.1893Y-6.8775
X3.412Y-6.717
X3.436Y-7.107
X3.4524Y-6.72
X3.457Y-7.279
X3.459Y-7.239
X3.4973Y-6.7979
X3.5062Y-7.0993
X3.539Y-7.026
X3.54Y-7.0693
X3.579Y-6.8177
X3.742Y-7.091
X3.762Y-7.0136
X3.762Y-7.053
X3.765Y-6.972
X3.9392Y-6.9805
X3.9423Y-6.8033
X3.971Y-6.9621
X3.9864Y-6.8033
X4.053Y-6.969
X4.108Y-6.97
X4.349Y-7.313
X4.35Y-7.215
X4.35Y-7.266
X4.351Y-7.161
X4.352Y-6.932
X4.353Y-6.882
X4.353Y-6.983
X4.353Y-7.034
X4.554Y-7.311
X4.554Y-7.345
X5.238Y-6.7825
X5.2848Y-6.7865
X5.84Y-6.804
X5.916Y-6.8267
X6.4797Y-6.7547
X6.527Y-6.755
X6.6193Y-6.8023
X6.6373Y-6.7593
T2
X4.7146Y-7.2441
X4.8146Y-7.2441
X4.9146Y-7.2441
X5.0146Y-7.2441
X5.1146Y-7.2441
X5.2146Y-7.2441
X5.3146Y-7.2441
X5.4146Y-7.2441
X5.5146Y-7.2441
X5.6146Y-7.2441
X5.7146Y-7.2441
X5.8146Y-7.2441
X5.9146Y-7.2441
X3.7303Y-7.2441
X3.8303Y-7.2441
X3.9303Y-7.2441
X4.0303Y-7.2441
T3
X4.7154Y-7.0276
X4.8154Y-7.0276
X4.9154Y-7.0276
X5.0154Y-7.0276
X5.1154Y-7.0276
X5.2154Y-7.0276
X5.3154Y-7.0276
X5.4154Y-7.0276
X5.6154Y-7.0276
X5.7154Y-7.0276
X5.8154Y-7.0276
X3.0465Y-7.2441
X5.9154Y-7.0276
X3.1465Y-7.2441
X3.2465Y-7.2441
X3.3465Y-7.2441
X5.5154Y-7.0276
T4
X3.9272Y-0.9483
X3.9272Y-0.9877
X3.9272Y-1.027
X3.9272Y-1.0664
X3.9272Y-1.1058
X4.2618Y-0.9483
X4.2618Y-0.9877
X4.2618Y-1.027
X4.2618Y-1.0664
X4.2618Y-1.1058
X4.311Y-1.6131
X4.311Y-1.6525
X4.311Y-1.6919
X4.311Y-1.7313
X4.311Y-1.7706
X4.6457Y-1.6525
X5.7972Y-1.027
X3.4941Y-3.7652
X6.2303Y-0.9483
X5.4626Y-0.9483
X5.4626Y-0.9877
X5.4626Y-1.027
X5.4626Y-1.0664
X5.4626Y-1.1058
X5.7972Y-0.9483
X5.7972Y-0.9877
X6.2303Y-0.9877
X6.2303Y-1.027
X6.565Y-1.027
X5.7972Y-1.0664
X5.7972Y-1.1058
X3.1594Y-3.6077
X3.1594Y-3.647
X3.1594Y-3.6864
X3.1594Y-3.7258
X3.1594Y-3.7652
X3.4941Y-3.6077
X3.4941Y-3.647
X3.4941Y-3.6864
X3.4941Y-3.7258
X4.6457Y-1.6131
X4.6457Y-1.6919
X4.6457Y-1.7313
X5.4626Y-4.9374
X5.4626Y-4.9767
X5.4626Y-5.0161
X5.4626Y-5.0555
X5.4626Y-5.0948
X5.7972Y-5.0161
X6.6142Y-0.3622
X4.6457Y-1.7706
X0.3445Y-4.6815
X0.3445Y-5.0161
X0.3839Y-4.6815
X0.3839Y-5.0161
X0.4626Y-4.6815
X0.4626Y-5.0161
X0.502Y-4.6815
X5.7972Y-4.9374
X5.7972Y-4.9767
X5.7972Y-5.0555
X0.4232Y-4.6815
X0.4232Y-5.0161
X5.7972Y-5.0948
X0.502Y-5.0161
X6.998Y-3.6077
X6.998Y-3.647
X6.998Y-3.6864
X6.9488Y-0.3622
X5.8465Y-0.2835
X5.8465Y-0.3228
X5.8465Y-0.3622
X5.8465Y-0.4016
X5.8465Y-0.4409
X6.1811Y-0.2835
X6.1811Y-0.3228
X6.1811Y-0.3622
X6.1811Y-0.4016
X6.1811Y-0.4409
X0.4724Y-0.2835
X0.4724Y-0.3228
X0.4724Y-0.3622
X0.4724Y-0.4016
X0.4724Y-0.4409
X0.8071Y-0.2835
X0.8071Y-0.3228
X0.8071Y-0.3622
X0.8071Y-0.4016
X0.8071Y-0.4409
X8.5335Y-5.0555
X6.2303Y-1.0664
X8.5335Y-4.9374
X8.5335Y-4.9767
X8.5335Y-5.0161
X8.5335Y-5.0948
X8.8681Y-5.0161
X8.1496Y-4.3119
X8.4843Y-4.2725
X8.4843Y-4.3119
X8.4843Y-4.3906
X8.4843Y-4.43
X6.998Y-3.7258
X8.8681Y-4.9767
X8.1496Y-4.2725
X6.2303Y-1.1058
X6.565Y-0.9483
X6.565Y-0.9877
X6.565Y-1.0664
X6.565Y-1.1058
X8.8681Y-4.9374
X8.8681Y-5.0555
X8.8681Y-5.0948
X1.1909Y-3.7652
X8.1496Y-4.43
X6.998Y-1.0664
X0.8563Y-3.647
X0.8563Y-3.6864
X1.1909Y-3.6864
X8.1496Y-4.3513
X8.1496Y-4.3906
X8.4843Y-4.3513
X0.8563Y-3.6077
X0.8563Y-3.7652
X6.998Y-0.9483
X6.998Y-0.9877
X6.998Y-1.027
X6.998Y-1.1058
X1.1909Y-3.7258
X7.3327Y-0.9483
X7.3327Y-0.9877
X7.3327Y-1.027
X7.3327Y-1.0664
X7.3327Y-1.1058
X0.8563Y-3.7258
X1.1909Y-3.6077
X1.1909Y-3.647
X9.4882Y-1.0274
X9.4882Y-2.3567
X9.4882Y-3.6864
X9.4882Y-5.0161
X9.4882Y-6.3458
X1.624Y-0.9483
X1.624Y-0.9877
X1.624Y-1.027
X1.624Y-1.0664
X1.624Y-1.1058
X1.9587Y-0.9483
X1.9587Y-0.9877
X1.9587Y-1.027
X1.9587Y-1.0664
X1.9587Y-1.1058
X5.0787Y-5.6022
X5.0787Y-5.6416
X5.0787Y-5.6809
X5.0787Y-5.7203
X5.0787Y-5.7597
X5.4134Y-5.6809
X6.998Y-2.278
X6.998Y-2.3174
X6.998Y-2.3567
X6.998Y-2.3961
X6.998Y-2.4355
X7.3327Y-2.278
X7.3327Y-2.3174
X7.3327Y-2.3567
X7.3327Y-2.3961
X5.0787Y-1.7313
X5.0787Y-1.7706
X5.4134Y-1.6525
X6.998Y-3.7652
X7.3327Y-2.4355
X5.0787Y-1.6131
X5.0787Y-1.6525
X5.0787Y-1.6919
X5.4134Y-1.6919
X2.7756Y-2.9428
X2.7756Y-2.9822
X2.7756Y-3.0216
X2.7756Y-3.0609
X2.7756Y-3.1003
X3.1102Y-2.9428
X3.1102Y-2.9822
X3.1102Y-3.0216
X3.1102Y-3.0609
X3.1102Y-3.1003
X7.3327Y-3.7652
X5.8465Y-5.6022
X7.3327Y-3.6077
X7.3327Y-3.647
X7.3327Y-3.6864
X7.3327Y-3.7258
X2.3917Y-2.278
X2.3917Y-2.3174
X2.3917Y-2.3567
X2.3917Y-2.3961
X2.3917Y-2.4355
X2.7264Y-2.278
X2.7264Y-2.3174
X2.7264Y-2.3567
X2.7264Y-2.3961
X2.7264Y-2.4355
X0.3445Y-6.0111
X0.3445Y-6.3458
X0.3839Y-6.0111
X0.3839Y-6.3458
X0.4232Y-6.0111
X0.4232Y-6.3458
X0.4626Y-6.0111
X0.4626Y-6.3458
X0.502Y-6.0111
X0.502Y-6.3458
X8.1496Y-2.9428
X8.1496Y-2.9822
X8.1496Y-3.0216
X8.1496Y-3.0609
X8.1496Y-3.1003
X8.4843Y-2.9822
X5.0295Y-2.4355
X8.4843Y-2.9428
X5.8465Y-5.7203
X8.4843Y-3.0609
X8.1496Y-5.6022
X8.1496Y-5.6416
X8.1496Y-5.6809
X8.1496Y-5.7203
X8.1496Y-5.7597
X6.1811Y-5.6022
X6.1811Y-5.7203
X6.1811Y-5.7597
X4.6949Y-2.278
X4.6949Y-2.3174
X4.6949Y-2.3567
X4.6949Y-2.3961
X4.6949Y-2.4355
X5.0295Y-2.278
X5.0295Y-2.3174
X5.0295Y-2.3567
X5.0295Y-2.3961
X8.4843Y-3.0216
X8.4843Y-3.1003
X5.8465Y-5.7597
X6.1811Y-5.6416
X8.4843Y-5.6809
X5.4134Y-5.6022
X5.4134Y-5.7203
X8.4843Y-5.6022
X8.4843Y-5.6416
X5.8465Y-5.6416
X5.8465Y-5.6809
X6.1811Y-5.6809
X5.4134Y-5.6416
X5.4134Y-1.7313
X5.4134Y-1.7706
X8.4843Y-5.7203
X8.4843Y-5.7597
X5.4134Y-1.6131
X6.565Y-4.9374
X9.252Y-4.2725
X6.2303Y-4.9374
X6.2303Y-4.9767
X6.2303Y-5.0161
X6.2303Y-5.0555
X6.2303Y-5.0948
X6.565Y-5.0161
X7.7165Y-5.6022
X7.7165Y-5.6416
X7.7165Y-5.7203
X7.7165Y-5.7597
X5.4134Y-5.7597
X7.3819Y-0.3622
X8.9173Y-4.2725
X8.9173Y-4.3119
X7.3819Y-0.2835
X8.9173Y-4.3513
X7.3819Y-0.3228
X8.9173Y-4.3906
X8.9173Y-4.43
X9.252Y-4.3119
X9.252Y-4.3513
X9.252Y-4.3906
X7.3819Y-0.4016
X7.3819Y-0.4409
X9.252Y-4.43
X6.565Y-4.9767
X6.565Y-5.0555
X6.565Y-5.0948
X7.3819Y-5.6022
X7.3819Y-5.6416
X7.3819Y-5.6809
X7.3819Y-5.7203
X7.3819Y-5.7597
X7.7165Y-5.6809
X7.7165Y-0.2835
X6.6142Y-0.2835
X6.6142Y-0.3228
X6.6142Y-0.4016
X6.6142Y-0.4409
X6.9488Y-0.2835
X6.9488Y-0.3228
X6.9488Y-0.4016
X6.9488Y-0.4409
X3.5433Y-5.6809
X6.6142Y-5.6022
X6.6142Y-5.6416
X6.6142Y-5.6809
X6.6142Y-5.7203
X3.5433Y-5.6022
X3.5433Y-5.6416
X6.6142Y-5.7597
X3.878Y-5.7597
X7.7165Y-0.3622
X3.878Y-5.6022
X3.878Y-5.6416
X3.878Y-5.6809
X3.878Y-5.7203
X7.7165Y-0.3228
X7.7165Y-0.4016
X7.7165Y-0.4409
X3.5433Y-5.7203
X3.5433Y-5.7597
X1.2402Y-5.6022
X1.2402Y-5.6416
X1.2402Y-5.6809
X1.2402Y-5.7203
X1.2402Y-5.7597
X1.5748Y-5.6022
X1.5748Y-5.6416
X1.5748Y-5.6809
X1.5748Y-5.7203
X1.5748Y-5.7597
X1.624Y-4.9374
X1.624Y-4.9767
X1.624Y-5.0161
X1.624Y-5.0555
X1.624Y-5.0948
X1.9587Y-4.9374
X1.9587Y-4.9767
X1.9587Y-5.0161
X1.9587Y-5.0555
X1.9587Y-5.0948
X8.5335Y-6.267
X8.5335Y-6.3064
X8.5335Y-6.3458
X8.5335Y-6.3852
X8.5335Y-6.4245
X8.8681Y-6.267
X8.8681Y-6.3064
X8.8681Y-6.3458
X8.8681Y-6.3852
X8.8681Y-6.4245
X0.8563Y-6.267
X0.8563Y-6.3064
X0.8563Y-6.3458
X0.8563Y-6.3852
X0.8563Y-6.4245
X1.1909Y-6.267
X1.1909Y-6.3064
X1.1909Y-6.3458
X1.1909Y-6.3852
X1.1909Y-6.4245
X1.624Y-6.267
X1.624Y-6.3064
X1.624Y-6.3458
X1.624Y-6.3852
X1.624Y-6.4245
X1.9587Y-6.267
X1.9587Y-6.3064
X1.9587Y-6.3458
X1.9587Y-6.3852
X1.9587Y-6.4245
X3.1594Y-4.9374
X3.1594Y-4.9767
X3.1594Y-5.0161
X3.1594Y-5.0555
X3.1594Y-5.0948
X3.4941Y-4.9374
X3.4941Y-4.9767
X3.4941Y-5.0161
X3.4941Y-5.0555
X3.4941Y-5.0948
X6.9488Y-5.6022
X6.9488Y-5.6416
X6.9488Y-5.6809
X6.9488Y-5.7203
X6.9488Y-5.7597
X6.1811Y-1.6919
X8.5335Y-2.3567
X5.8465Y-1.6131
X5.8465Y-1.6525
X5.8465Y-1.6919
X5.8465Y-1.7313
X5.8465Y-1.7706
X6.1811Y-1.6131
X6.1811Y-1.6525
X8.5335Y-2.278
X8.5335Y-2.3174
X8.5335Y-2.3961
X8.5335Y-2.4355
X6.1811Y-1.7313
X6.1811Y-1.7706
X6.6142Y-1.6131
X6.6142Y-1.6525
X6.6142Y-1.6919
X6.9488Y-1.6919
X5.0787Y-2.9428
X5.0787Y-2.9822
X5.0787Y-3.0216
X5.0787Y-3.0609
X5.0787Y-3.1003
X5.4134Y-3.0216
X8.1004Y-3.6077
X8.1004Y-3.647
X8.1004Y-3.7258
X8.1004Y-3.7652
X8.9173Y-3.0609
X8.9173Y-3.1003
X9.252Y-2.9428
X9.252Y-2.9822
X9.252Y-3.0609
X9.252Y-3.1003
X5.8465Y-4.2725
X5.8465Y-4.3119
X5.8465Y-4.3513
X5.8465Y-4.43
X6.1811Y-4.3513
X3.9272Y-6.267
X3.9272Y-6.3064
X3.9272Y-6.3458
X3.9272Y-6.3852
X3.9272Y-6.4245
X4.2618Y-6.267
X4.2618Y-6.3064
X4.2618Y-6.3458
X4.2618Y-6.3852
X4.2618Y-6.4245
X7.7657Y-4.9374
X7.7657Y-4.9767
X7.7657Y-5.0161
X7.7657Y-5.0555
X7.7657Y-5.0948
X8.1004Y-4.9374
X8.1004Y-5.0555
X8.1004Y-5.0948
X8.8681Y-2.3174
X8.8681Y-2.3567
X8.8681Y-2.3961
X8.1004Y-4.9767
X8.8681Y-2.278
X1.2402Y-0.2835
X8.8681Y-2.4355
X1.2402Y-1.6131
X1.2402Y-1.6525
X1.2402Y-1.6919
X1.2402Y-1.7313
X1.2402Y-1.7706
X1.5748Y-1.6131
X1.5748Y-1.6525
X1.5748Y-1.6919
X1.5748Y-1.7313
X1.5748Y-1.7706
X1.2402Y-0.3228
X1.2402Y-0.3622
X1.2402Y-0.4016
X1.2402Y-0.4409
X1.5748Y-0.2835
X1.5748Y-0.3228
X1.5748Y-0.3622
X1.5748Y-0.4016
X1.5748Y-0.4409
X5.4134Y-2.9428
X5.4134Y-2.9822
X5.4134Y-3.0609
X5.4134Y-3.1003
X8.9173Y-2.9428
X8.9173Y-2.9822
X8.9173Y-3.0216
X9.252Y-3.0216
X8.1004Y-5.0161
X3.5433Y-4.2725
X6.6142Y-1.7313
X3.5433Y-4.3119
X3.5433Y-4.3513
X3.5433Y-4.3906
X3.5433Y-4.43
X3.878Y-4.2725
X3.878Y-4.3119
X3.878Y-4.3513
X3.878Y-4.3906
X3.878Y-4.43
X8.1496Y-1.6131
X8.1496Y-1.7313
X8.1496Y-1.7706
X8.4843Y-1.6131
X8.4843Y-1.6525
X8.4843Y-1.7313
X8.4843Y-1.7706
X6.6142Y-1.7706
X6.9488Y-1.7706
X0.4724Y-4.2725
X0.4724Y-4.3119
X0.4724Y-4.3513
X0.4724Y-4.3906
X0.4724Y-4.43
X0.8071Y-4.2725
X0.8071Y-4.3119
X0.8071Y-4.3513
X7.7657Y-1.0664
X7.7657Y-1.1058
X8.1004Y-0.9483
X8.1004Y-0.9877
X8.1004Y-1.0664
X8.1004Y-1.1058
X6.9488Y-4.2725
X6.9488Y-4.3119
X6.9488Y-4.3906
X6.9488Y-4.43
X8.1496Y-1.6525
X6.9488Y-1.6131
X6.9488Y-1.6525
X6.9488Y-1.7313
X0.8071Y-4.3906
X0.8071Y-4.43
X4.311Y-0.2835
X4.311Y-0.3228
X4.311Y-0.3622
X2.3917Y-4.9374
X2.3917Y-4.9767
X2.3917Y-5.0161
X4.311Y-0.4016
X4.6457Y-0.2835
X4.6457Y-0.3228
X4.6457Y-0.3622
X4.6457Y-0.4016
X4.6457Y-0.4409
X7.7657Y-0.9483
X7.7657Y-0.9877
X7.7657Y-1.027
X8.1004Y-1.027
X8.1496Y-1.6919
X8.4843Y-1.6919
X1.624Y-3.6864
X1.624Y-3.7652
X4.311Y-0.4409
X8.1004Y-2.278
X2.3917Y-5.0948
X0.1772Y-5.6809
X1.624Y-3.7258
X2.3917Y-5.0555
X1.624Y-3.6077
X1.624Y-3.647
X7.7657Y-2.3174
X7.7657Y-2.3567
X2.7264Y-5.0555
X2.7264Y-5.0948
X1.9587Y-3.6077
X1.9587Y-3.647
X2.7264Y-4.9374
X1.9587Y-3.6864
X1.9587Y-3.7258
X1.9587Y-3.7652
X7.7657Y-2.278
X7.7657Y-2.3961
X7.7657Y-2.4355
X7.7657Y-3.7258
X6.1811Y-4.3906
X2.7264Y-4.9767
X8.1004Y-2.3174
X7.7657Y-3.6077
X7.7657Y-3.647
X7.7657Y-3.6864
X7.7657Y-3.7652
X8.1004Y-3.6864
X8.1004Y-2.3567
X8.1004Y-2.4355
X5.8465Y-4.3906
X6.1811Y-4.2725
X6.1811Y-4.3119
X6.1811Y-4.43
X6.6142Y-4.2725
X6.6142Y-4.3119
X6.6142Y-4.3513
X6.6142Y-4.3906
X6.6142Y-4.43
X6.9488Y-4.3513
X2.7264Y-5.0161
X0.1772Y-3.022
X0.1772Y-4.3517
X8.1004Y-2.3961
X8.1496Y-0.2835
X8.1496Y-0.3228
X8.1496Y-0.3622
X8.1496Y-0.4016
X8.1496Y-0.4409
X8.4843Y-0.2835
X8.4843Y-0.3228
X8.4843Y-0.3622
X8.4843Y-0.4016
X8.4843Y-0.4409
X2.0276Y-1.6131
X2.0276Y-1.6525
X2.0276Y-1.6919
X2.0276Y-1.7313
X2.0276Y-1.7706
X2.3622Y-1.6131
X2.3622Y-1.6525
X2.3622Y-1.6919
X2.3622Y-1.7313
X2.3622Y-1.7706
X0.1772Y-0.3626
X0.1772Y-1.6923
X2.3917Y-0.9483
X2.3917Y-0.9877
X2.3917Y-1.027
X2.3917Y-1.0664
X2.3917Y-1.1058
X2.7264Y-0.9483
X2.7264Y-0.9877
X2.7264Y-1.027
X2.7264Y-1.0664
X2.7264Y-1.1058
X2.0276Y-2.9428
X2.0276Y-2.9822
X2.0276Y-3.0216
X2.0276Y-3.0609
X2.0276Y-3.1003
X2.3622Y-2.9428
X2.3622Y-2.9822
X2.3622Y-3.0216
X2.3622Y-3.0609
X2.3622Y-3.1003
X3.1594Y-2.278
X3.1594Y-2.3174
X3.1594Y-2.3567
X3.1594Y-2.3961
X3.1594Y-2.4355
X8.5335Y-3.6077
X8.5335Y-3.647
X8.5335Y-3.6864
X8.5335Y-3.7258
X8.5335Y-3.7652
X8.8681Y-3.6077
X8.8681Y-3.647
X8.8681Y-3.6864
X8.8681Y-3.7258
X8.8681Y-3.7652
X0.8563Y-2.278
X0.8563Y-2.3174
X0.8563Y-2.3567
X1.1909Y-2.3567
X2.3917Y-3.6077
X2.3917Y-3.647
X2.3917Y-3.6864
X2.3917Y-3.7258
X2.3917Y-3.7652
X2.7264Y-3.6077
X2.7264Y-3.647
X2.7264Y-3.6864
X5.4626Y-2.278
X5.4626Y-2.3174
X5.4626Y-2.3567
X2.7264Y-3.7258
X2.7264Y-3.7652
X1.2402Y-2.9428
X1.2402Y-2.9822
X1.2402Y-3.0216
X1.2402Y-3.0609
X1.2402Y-3.1003
X1.5748Y-2.9428
X1.5748Y-2.9822
X1.5748Y-3.0216
X1.5748Y-3.0609
X5.4626Y-2.3961
X5.7972Y-2.278
X5.7972Y-2.3174
X5.7972Y-2.3567
X0.8563Y-2.3961
X5.4626Y-2.4355
X3.4941Y-2.3961
X3.4941Y-2.4355
X5.7972Y-2.4355
X3.4941Y-2.278
X3.4941Y-2.3174
X5.7972Y-2.3961
X3.4941Y-2.3567
X2.7756Y-0.2835
X2.7756Y-0.3228
X2.7756Y-0.3622
X2.7756Y-0.4016
X2.7756Y-0.4409
X3.1102Y-0.2835
X3.1102Y-0.3228
X3.1102Y-0.3622
X3.1102Y-0.4016
X3.1102Y-0.4409
X2.3917Y-6.267
X2.3917Y-6.3064
X2.3917Y-6.3458
X2.3917Y-6.3852
X2.3917Y-6.4245
X2.7264Y-6.267
X2.7264Y-6.3064
X2.7264Y-6.3458
X2.7264Y-6.3852
X2.7264Y-6.4245
X3.5433Y-3.1003
X1.1909Y-2.4355
X4.6949Y-6.267
X4.6949Y-6.3064
X4.6949Y-6.3458
X3.5433Y-2.9428
X3.5433Y-2.9822
X3.5433Y-3.0216
X1.1909Y-2.3961
X3.5433Y-3.0609
X4.6949Y-6.3852
X3.878Y-3.0216
X0.8563Y-2.4355
X1.1909Y-2.278
X1.1909Y-2.3174
X3.9272Y-4.9767
X4.6949Y-6.4245
X5.0295Y-6.3458
X0.3839Y-3.6864
X0.4232Y-3.3518
X3.878Y-2.9428
X3.878Y-3.0609
X0.3445Y-3.3518
X0.3839Y-3.3518
X3.878Y-3.1003
X5.0295Y-6.267
X5.0295Y-6.3064
X5.0295Y-6.3852
X5.0295Y-6.4245
X0.4232Y-3.6864
X0.4626Y-3.3518
X0.4626Y-3.6864
X0.502Y-3.3518
X0.502Y-3.6864
X0.4724Y-5.6022
X8.5335Y-0.9483
X8.5335Y-0.9877
X8.5335Y-1.027
X8.5335Y-1.0664
X8.5335Y-1.1058
X8.8681Y-0.9483
X8.8681Y-0.9877
X8.8681Y-1.027
X8.8681Y-1.0664
X8.8681Y-1.1058
X3.878Y-2.9822
X1.5748Y-3.1003
X0.3445Y-3.6864
X8.9173Y-5.6022
X8.9173Y-5.6416
X8.9173Y-5.6809
X8.9173Y-5.7203
X8.9173Y-5.7597
X9.252Y-5.6022
X9.252Y-5.6416
X9.252Y-5.6809
X9.252Y-5.7203
X9.252Y-5.7597
X2.0276Y-5.6022
X2.0276Y-5.6416
X2.0276Y-5.6809
X2.0276Y-5.7203
X2.0276Y-5.7597
X2.3622Y-5.6022
X2.3622Y-5.6416
X2.3622Y-5.6809
X2.3622Y-5.7203
X2.3622Y-5.7597
X0.4724Y-5.6416
X0.4724Y-5.6809
X0.4724Y-5.7203
X0.4724Y-5.7597
X0.8071Y-5.6022
X0.8071Y-5.6416
X0.8071Y-5.6809
X0.8071Y-5.7203
X0.8071Y-5.7597
X2.0079Y-0.2835
X2.0079Y-0.3228
X2.0079Y-0.3622
X2.0079Y-0.4016
X2.0079Y-0.4409
X2.3425Y-0.2835
X2.3425Y-0.3228
X2.3425Y-0.3622
X2.3425Y-0.4016
X2.3425Y-0.4409
X0.3445Y-2.0221
X0.3445Y-2.3567
X0.3839Y-2.0221
X0.3839Y-2.3567
X0.4232Y-2.0221
X0.4232Y-2.3567
X0.4626Y-2.0221
X0.4626Y-2.3567
X0.502Y-2.0221
X0.502Y-2.3567
X6.2303Y-2.278
X6.2303Y-2.3174
X6.2303Y-2.3567
X6.2303Y-2.3961
X6.2303Y-2.4355
X6.565Y-2.278
X6.565Y-2.3174
X6.565Y-2.3567
X6.565Y-2.3961
X6.565Y-2.4355
X3.9272Y-5.0161
X4.2618Y-5.0161
X7.3327Y-6.267
X1.9587Y-2.278
X1.9587Y-2.3961
X1.9587Y-2.4355
X6.1811Y-3.1003
X7.3327Y-6.3064
X7.3327Y-6.3852
X7.3327Y-6.4245
X1.624Y-2.278
X1.624Y-2.3961
X1.624Y-2.4355
X1.9587Y-2.3174
X3.1594Y-6.3458
X3.4941Y-6.3458
X7.3819Y-1.6131
X6.998Y-6.267
X6.998Y-6.3064
X6.998Y-6.3458
X6.998Y-6.3852
X6.998Y-6.4245
X7.3327Y-6.3458
X1.2402Y-4.2725
X4.6949Y-3.6077
X4.6949Y-3.647
X4.6949Y-3.6864
X4.6949Y-3.7258
X4.6949Y-3.7652
X5.0295Y-3.6077
X5.0295Y-3.647
X5.0295Y-3.6864
X5.0295Y-3.7258
X5.0295Y-3.7652
X2.7756Y-1.6131
X2.7756Y-1.6525
X2.7756Y-1.6919
X2.7756Y-1.7313
X2.7756Y-1.7706
X3.1102Y-1.6131
X3.1102Y-1.6525
X3.1102Y-1.6919
X3.1102Y-1.7313
X3.1102Y-1.7706
X1.624Y-2.3174
X1.624Y-2.3567
X1.9587Y-2.3567
X5.4626Y-3.6077
X5.4626Y-3.647
X5.4626Y-3.6864
X5.4626Y-3.7258
X5.4626Y-3.7652
X5.7972Y-3.647
X5.8465Y-2.9428
X5.8465Y-2.9822
X5.8465Y-3.0216
X5.8465Y-3.0609
X5.8465Y-3.1003
X6.1811Y-2.9428
X6.1811Y-2.9822
X6.1811Y-3.0216
X6.1811Y-3.0609
X7.3819Y-1.6525
X7.3819Y-1.6919
X7.3819Y-1.7313
X7.3819Y-1.7706
X7.7165Y-1.6131
X7.7165Y-1.6525
X7.7165Y-1.6919
X7.7165Y-1.7313
X7.7165Y-1.7706
X1.2402Y-4.3119
X5.7972Y-3.6864
X3.1594Y-6.267
X3.1594Y-6.3064
X3.1594Y-6.3852
X3.1594Y-6.4245
X3.4941Y-6.267
X3.4941Y-6.3064
X3.4941Y-6.3852
X3.4941Y-6.4245
X1.2402Y-4.3513
X1.2402Y-4.3906
X1.2402Y-4.43
X1.5748Y-4.2725
X1.5748Y-4.3119
X1.5748Y-4.3513
X1.5748Y-4.3906
X1.5748Y-4.43
X5.4626Y-6.267
X5.4626Y-6.3064
X5.4626Y-6.3458
X5.4626Y-6.3852
X5.4626Y-6.4245
X5.7972Y-6.267
X5.7972Y-6.3064
X5.7972Y-6.3458
X5.7972Y-6.3852
X5.7972Y-6.4245
X0.4724Y-2.9428
X0.4724Y-2.9822
X0.4724Y-3.0216
X0.4724Y-3.0609
X0.4724Y-3.1003
X0.8071Y-2.9428
X0.8071Y-2.9822
X0.8071Y-3.0216
X0.8071Y-3.0609
X0.8071Y-3.1003
X0.8563Y-4.9374
X0.8563Y-4.9767
X0.8563Y-5.0161
X0.8563Y-5.0555
X0.8563Y-5.0948
X1.1909Y-4.9374
X1.1909Y-4.9767
X1.1909Y-5.0161
X1.1909Y-5.0555
X1.1909Y-5.0948
X0.3445Y-0.7065
X0.3445Y-1.0412
X0.3839Y-0.7065
X0.3839Y-1.0412
X0.4232Y-0.7065
X0.4232Y-1.0412
X5.7972Y-3.7258
X5.7972Y-3.7652
X0.4626Y-0.7065
X0.4626Y-1.0412
X0.502Y-0.7065
X0.502Y-1.0412
X5.7972Y-3.6077
X4.2618Y-3.6077
X4.311Y-3.0609
X3.9272Y-3.6077
X3.9272Y-3.647
X3.9272Y-3.6864
X3.9272Y-3.7258
X3.9272Y-3.7652
X4.311Y-2.9428
X4.311Y-2.9822
X4.311Y-3.0216
X4.311Y-3.1003
X4.6457Y-2.9428
X4.2618Y-3.7258
X4.2618Y-3.7652
X4.6457Y-2.9822
X4.2618Y-3.647
X4.2618Y-3.6864
X3.9272Y-5.0948
X4.6457Y-3.0609
X4.6457Y-3.1003
X4.2618Y-2.3961
X4.2618Y-2.4355
X4.6457Y-3.0216
X3.9272Y-2.278
X3.9272Y-2.3174
X3.9272Y-2.3567
X3.9272Y-2.3961
X3.9272Y-2.4355
X4.2618Y-2.278
X4.2618Y-2.3174
X4.2618Y-2.3567
X3.9272Y-4.9374
X3.9272Y-5.0555
X4.2618Y-4.9374
X4.2618Y-4.9767
X4.2618Y-5.0555
X4.2618Y-5.0948
X3.1594Y-0.9483
X3.1594Y-0.9877
X3.1594Y-1.027
X3.1594Y-1.0664
X3.1594Y-1.1058
X3.4941Y-0.9483
X3.4941Y-0.9877
X3.4941Y-1.027
X3.4941Y-1.0664
X3.4941Y-1.1058
X8.9173Y-1.6131
X8.9173Y-1.6525
X8.9173Y-1.6919
X8.9173Y-1.7313
X8.9173Y-1.7706
X9.252Y-1.6131
X9.252Y-1.6525
X9.252Y-1.6919
X9.252Y-1.7313
X9.252Y-1.7706
X4.6949Y-0.9483
X4.6949Y-0.9877
X4.6949Y-1.027
X4.6949Y-1.0664
X4.6949Y-1.1058
X5.0295Y-0.9483
X5.0295Y-0.9877
X0.4724Y-1.6131
X0.4724Y-1.6525
X0.4724Y-1.6919
X0.4724Y-1.7313
X5.0295Y-1.027
X5.0295Y-1.0664
X5.0295Y-1.1058
X6.2303Y-3.6077
X6.2303Y-3.647
X6.2303Y-3.6864
X6.2303Y-3.7258
X6.2303Y-3.7652
X6.565Y-3.6077
X6.565Y-3.647
X6.565Y-3.6864
X6.565Y-3.7258
X6.565Y-3.7652
X6.6142Y-2.9428
X6.6142Y-2.9822
X6.6142Y-3.0216
X6.6142Y-3.0609
X6.6142Y-3.1003
X6.9488Y-2.9428
X6.9488Y-2.9822
X6.9488Y-3.0216
X6.9488Y-3.0609
X6.9488Y-3.1003
X5.4134Y-4.2725
X5.4134Y-4.3119
X5.4134Y-4.3906
X0.4724Y-1.7706
X5.4134Y-4.43
X2.7756Y-5.6022
X2.7756Y-5.6416
X2.7756Y-5.6809
X2.7756Y-5.7203
X2.7756Y-5.7597
X3.1102Y-5.6022
X3.1102Y-5.6416
X3.1102Y-5.6809
X4.6949Y-4.9374
X4.6949Y-5.0555
X4.311Y-4.2725
X4.311Y-4.3119
X4.311Y-4.3513
X4.311Y-4.3906
X4.311Y-4.43
X4.6457Y-4.3513
X0.8071Y-1.6131
X0.8071Y-1.6525
X0.8071Y-1.6919
X0.8071Y-1.7313
X0.8071Y-1.7706
X4.6949Y-4.9767
X4.6949Y-5.0161
X4.6457Y-4.2725
X5.0295Y-4.9374
X5.0295Y-4.9767
X5.0295Y-5.0555
X5.0295Y-5.0948
X5.0787Y-0.4016
X5.4134Y-0.2835
X5.4134Y-0.3228
X5.4134Y-0.4016
X5.4134Y-0.4409
X8.9173Y-0.4016
X8.9173Y-0.4409
X9.252Y-0.2835
X9.252Y-0.3228
X9.252Y-0.4016
X9.252Y-0.4409
X4.6457Y-4.3119
X4.6949Y-5.0948
X5.0295Y-5.0161
X5.0787Y-0.2835
X5.0787Y-0.3228
X5.0787Y-0.3622
X5.0787Y-0.4409
X4.6457Y-4.3906
X5.4134Y-0.3622
X4.6457Y-4.43
X3.5433Y-1.6131
X3.5433Y-1.6525
X3.5433Y-1.6919
X3.5433Y-1.7313
X6.998Y-4.9374
X6.998Y-4.9767
X6.998Y-5.0161
X6.998Y-5.0555
X6.998Y-5.0948
X3.5433Y-1.7706
X3.878Y-1.6131
X3.878Y-1.6525
X3.878Y-1.6919
X0.8563Y-0.9483
X0.8563Y-0.9877
X0.8563Y-1.027
X0.8563Y-1.0664
X0.8563Y-1.1058
X1.1909Y-0.9483
X1.1909Y-0.9877
X1.1909Y-1.027
X2.7756Y-4.3119
X2.7756Y-4.3513
X3.1102Y-4.3513
X3.878Y-1.7313
X7.3819Y-2.9428
X7.3819Y-2.9822
X7.3819Y-3.0216
X7.3819Y-3.0609
X7.3819Y-3.1003
X7.7165Y-2.9428
X7.7165Y-2.9822
X7.7165Y-3.0216
X7.7165Y-3.0609
X7.7165Y-3.1003
X5.0787Y-4.2725
X5.0787Y-4.3119
X5.0787Y-4.3513
X5.0787Y-4.3906
X5.0787Y-4.43
X5.4134Y-4.3513
X3.1102Y-5.7203
X3.1102Y-5.7597
X1.1909Y-1.0664
X1.1909Y-1.1058
X2.7756Y-4.2725
X2.7756Y-4.3906
X2.7756Y-4.43
X3.1102Y-4.2725
X3.1102Y-4.3119
X3.1102Y-4.3906
X3.1102Y-4.43
X7.3327Y-4.9374
X7.3327Y-4.9767
X3.878Y-1.7706
X2.0276Y-4.2725
X2.0276Y-4.3119
X2.0276Y-4.3513
X2.0276Y-4.3906
X2.0276Y-4.43
X2.3622Y-4.2725
X2.3622Y-4.3119
X2.3622Y-4.3513
X2.3622Y-4.3906
X2.3622Y-4.43
X3.878Y-0.3622
X8.1004Y-6.267
X3.5433Y-0.3622
X7.3327Y-5.0161
X7.3327Y-5.0555
X7.3327Y-5.0948
X7.7657Y-6.267
X7.7657Y-6.3064
X7.7657Y-6.3458
X7.7657Y-6.3852
X7.7657Y-6.4245
X3.878Y-0.4016
X3.878Y-0.4409
X8.1004Y-6.3458
X8.1004Y-6.3852
X3.5433Y-0.2835
X3.5433Y-0.4016
X3.5433Y-0.4409
X3.878Y-0.2835
X3.878Y-0.3228
X8.1004Y-6.3064
X6.2303Y-6.267
X6.2303Y-6.3064
X6.2303Y-6.3458
X6.2303Y-6.3852
X6.2303Y-6.4245
X6.565Y-6.267
X6.565Y-6.3064
X6.565Y-6.3458
X6.565Y-6.3852
X6.565Y-6.4245
X8.9173Y-0.2835
X8.9173Y-0.3228
X8.9173Y-0.3622
X9.252Y-0.3622
X3.5433Y-0.3228
X8.1004Y-6.4245
X7.3819Y-4.2725
X7.3819Y-4.3119
X7.3819Y-4.3513
X7.3819Y-4.3906
X7.3819Y-4.43
X7.7165Y-4.2725
X7.7165Y-4.3119
X7.7165Y-4.3513
X7.7165Y-4.3906
X7.7165Y-4.43
X4.311Y-5.6022
X4.311Y-5.6416
X4.311Y-5.6809
X4.311Y-5.7203
X4.311Y-5.7597
X4.6457Y-5.6022
X4.6457Y-5.6416
X4.6457Y-5.6809
X4.6457Y-5.7203
X4.6457Y-5.7597
T0
M30
