G04 #@! TF.GenerationSoftware,KiCad,Pcbnew,6.0.0-rc1-unknown-55b5c71~66~ubuntu18.10.1*
G04 #@! TF.CreationDate,2019-02-02T07:43:02-05:00
G04 #@! TF.ProjectId,Pack,5061636b-2e6b-4696-9361-645f70636258,rev?*
G04 #@! TF.SameCoordinates,Original*
G04 #@! TF.FileFunction,Copper,L1,Top*
G04 #@! TF.FilePolarity,Positive*
%FSLAX46Y46*%
G04 Gerber Fmt 4.6, Leading zero omitted, Abs format (unit mm)*
G04 Created by KiCad (PCBNEW 6.0.0-rc1-unknown-55b5c71~66~ubuntu18.10.1) date 2019-02-02 07:43:02*
%MOMM*%
%LPD*%
G04 APERTURE LIST*
%ADD10C,1.600000*%
%ADD11O,1.600000X1.600000*%
%ADD12R,1.700000X1.700000*%
%ADD13O,1.700000X1.700000*%
%ADD14C,2.000000*%
%ADD15C,3.000000*%
%ADD16C,0.250000*%
G04 APERTURE END LIST*
D10*
X88000000Y-69000000D03*
D11*
X93080000Y-69000000D03*
D10*
X87884000Y-2286000D03*
D11*
X92964000Y-2286000D03*
D10*
X88000000Y-35000000D03*
D11*
X93080000Y-35000000D03*
D12*
X10000000Y-38000000D03*
X10000000Y-5000000D03*
X10000000Y-66000000D03*
X10000000Y-73000000D03*
X89000000Y-73000000D03*
D13*
X91540000Y-73000000D03*
D12*
X89000000Y-39000000D03*
D13*
X91540000Y-39000000D03*
D12*
X89000000Y-6000000D03*
D13*
X91540000Y-6000000D03*
D14*
X10000000Y-24151000D02*
X10000000Y-21761002D01*
X20000000Y-11761002D02*
X20000000Y-9184000D01*
X10000000Y-21761002D02*
X20000000Y-11761002D01*
X40000000Y-11573998D02*
X40000000Y-9184000D01*
X30000000Y-24151000D02*
X30000000Y-21573998D01*
X30000000Y-21573998D02*
X40000000Y-11573998D01*
X50000000Y-24151000D02*
X50000000Y-21761002D01*
X60000000Y-11761002D02*
X60000000Y-9184000D01*
X50000000Y-21761002D02*
X60000000Y-11761002D01*
X80000000Y-11573998D02*
X80000000Y-9184000D01*
X70000000Y-24151000D02*
X70000000Y-21573998D01*
X70000000Y-21573998D02*
X80000000Y-11573998D01*
X90000000Y-21573998D02*
X98699990Y-12874008D01*
X90000000Y-24151000D02*
X90000000Y-21573998D01*
D15*
X5750001Y-17944999D02*
X1800010Y-17944999D01*
X10000000Y-13695000D02*
X5750001Y-17944999D01*
X64055000Y-19640000D02*
X70000000Y-13695000D01*
X60000000Y-19640000D02*
X64055000Y-19640000D01*
X84055000Y-19640000D02*
X90000000Y-13695000D01*
X80000000Y-19640000D02*
X84055000Y-19640000D01*
X97970000Y-21670000D02*
X98199990Y-21440010D01*
X98199990Y-40716990D02*
X97970000Y-40487000D01*
X24055000Y-19640000D02*
X30000000Y-13695000D01*
X20000000Y-19640000D02*
X24055000Y-19640000D01*
X44055000Y-19640000D02*
X50000000Y-13695000D01*
X40000000Y-19640000D02*
X44055000Y-19640000D01*
X20000000Y-32000000D02*
X20000000Y-19640000D01*
X1800010Y-31800010D02*
X1800010Y-21440010D01*
X20000000Y-32000000D02*
X40000000Y-32000000D01*
X40000000Y-42517000D02*
X40000000Y-32000000D01*
X40000000Y-32000000D02*
X40000000Y-19640000D01*
X40000000Y-32000000D02*
X60000000Y-32000000D01*
X60000000Y-42517000D02*
X60000000Y-32000000D01*
X60000000Y-32000000D02*
X60000000Y-19640000D01*
X79000000Y-32000000D02*
X80000000Y-31000000D01*
X80000000Y-42517000D02*
X80000000Y-31000000D01*
X80000000Y-31000000D02*
X80000000Y-19640000D01*
D14*
X10000000Y-54906998D02*
X10000000Y-57484000D01*
X20000000Y-42517000D02*
X20000000Y-44906998D01*
X20000000Y-44906998D02*
X10000000Y-54906998D01*
X40000000Y-42517000D02*
X40000000Y-44906998D01*
X30000000Y-54906998D02*
X30000000Y-57484000D01*
X40000000Y-44906998D02*
X30000000Y-54906998D01*
X50000000Y-54906998D02*
X50000000Y-57484000D01*
X60000000Y-42517000D02*
X60000000Y-44906998D01*
X60000000Y-44906998D02*
X50000000Y-54906998D01*
X70000000Y-54906998D02*
X70000000Y-57484000D01*
X80000000Y-42517000D02*
X80000000Y-44906998D01*
X80000000Y-44906998D02*
X70000000Y-54906998D01*
X90000000Y-55094002D02*
X98699990Y-46394012D01*
X90000000Y-57484000D02*
X90000000Y-55094002D01*
D15*
X97940000Y-32000000D02*
X97970000Y-32030000D01*
X97970000Y-32030000D02*
X97970000Y-21670000D01*
X77000000Y-32000000D02*
X97940000Y-32000000D01*
X97970000Y-40487000D02*
X97970000Y-32030000D01*
X60000000Y-32000000D02*
X77000000Y-32000000D01*
X77000000Y-32000000D02*
X79000000Y-32000000D01*
X1800010Y-40716990D02*
X1800010Y-31800010D01*
X20000000Y-42517000D02*
X20000000Y-32000000D01*
X1800010Y-31800010D02*
X19800010Y-31800010D01*
X19800010Y-31800010D02*
X20000000Y-32000000D01*
X97790000Y-64620000D02*
X97790000Y-55183000D01*
X97790000Y-55183000D02*
X98199990Y-54773010D01*
X97770000Y-64640000D02*
X97790000Y-64620000D01*
X98199990Y-74049990D02*
X97770000Y-73620000D01*
X40000000Y-66162000D02*
X40000000Y-52973000D01*
X40000000Y-75850000D02*
X40000000Y-66162000D01*
X20000000Y-75850000D02*
X20000000Y-66482000D01*
X20000000Y-66482000D02*
X20000000Y-52973000D01*
X80000000Y-66000000D02*
X80000000Y-52973000D01*
X80000000Y-75850000D02*
X80000000Y-66000000D01*
X60000000Y-75850000D02*
X60000000Y-66000000D01*
X60000000Y-66000000D02*
X60000000Y-52973000D01*
X60000000Y-66000000D02*
X80000000Y-66000000D01*
X40162000Y-66000000D02*
X40000000Y-66162000D01*
X20320000Y-66162000D02*
X20000000Y-66482000D01*
X40000000Y-66162000D02*
X20320000Y-66162000D01*
X97770000Y-73620000D02*
X97770000Y-66310000D01*
X97460000Y-66000000D02*
X97770000Y-66310000D01*
X80000000Y-66000000D02*
X97460000Y-66000000D01*
X97770000Y-66310000D02*
X97770000Y-64640000D01*
X59838000Y-66162000D02*
X60000000Y-66000000D01*
X40000000Y-66162000D02*
X59838000Y-66162000D01*
X1838000Y-66162000D02*
X1800010Y-66199990D01*
X1800010Y-74049990D02*
X1800010Y-66199990D01*
X1800010Y-66199990D02*
X1800010Y-54773010D01*
X5750001Y-51277999D02*
X1800010Y-51277999D01*
X10000000Y-47028000D02*
X5750001Y-51277999D01*
X24055000Y-52973000D02*
X30000000Y-47028000D01*
X20000000Y-52973000D02*
X24055000Y-52973000D01*
X44055000Y-52973000D02*
X50000000Y-47028000D01*
X40000000Y-52973000D02*
X44055000Y-52973000D01*
X64055000Y-52973000D02*
X70000000Y-47028000D01*
X60000000Y-52973000D02*
X64055000Y-52973000D01*
X84055000Y-52973000D02*
X90000000Y-47028000D01*
X80000000Y-52973000D02*
X84055000Y-52973000D01*
D14*
X20000000Y-78427002D02*
X20000000Y-75850000D01*
X10000000Y-90817000D02*
X10000000Y-88427002D01*
X10000000Y-88427002D02*
X20000000Y-78427002D01*
X40000000Y-78427002D02*
X40000000Y-75850000D01*
X30000000Y-90817000D02*
X30000000Y-88427002D01*
X30000000Y-88427002D02*
X40000000Y-78427002D01*
X50000000Y-90817000D02*
X50000000Y-88427002D01*
X60000000Y-78427002D02*
X60000000Y-75850000D01*
X50000000Y-88427002D02*
X60000000Y-78427002D01*
X80000000Y-78427002D02*
X80000000Y-75850000D01*
X70000000Y-90817000D02*
X70000000Y-88427002D01*
X70000000Y-88427002D02*
X80000000Y-78427002D01*
X90000000Y-88427002D02*
X98699990Y-79727012D01*
X90000000Y-90817000D02*
X90000000Y-88427002D01*
D15*
X20320000Y-66162000D02*
X9838000Y-66162000D01*
X9838000Y-66162000D02*
X1838000Y-66162000D01*
X5750001Y-84610999D02*
X1800010Y-84610999D01*
X10000000Y-80361000D02*
X5750001Y-84610999D01*
X24055000Y-86306000D02*
X30000000Y-80361000D01*
X20000000Y-86306000D02*
X24055000Y-86306000D01*
X44055000Y-86306000D02*
X50000000Y-80361000D01*
X40000000Y-86306000D02*
X44055000Y-86306000D01*
X64055000Y-86306000D02*
X70000000Y-80361000D01*
X60000000Y-86306000D02*
X64055000Y-86306000D01*
X84055000Y-86306000D02*
X90000000Y-80361000D01*
X80000000Y-86306000D02*
X84055000Y-86306000D01*
D16*
X10000000Y-80361000D02*
X10000000Y-73000000D01*
M02*
