G04 #@! TF.GenerationSoftware,KiCad,Pcbnew,5.1.0-rc2-unknown-d2d2101~82~ubuntu18.10.1*
G04 #@! TF.CreationDate,2019-03-08T07:56:29-05:00*
G04 #@! TF.ProjectId,Pack,5061636b-2e6b-4696-9361-645f70636258,rev?*
G04 #@! TF.SameCoordinates,Original*
G04 #@! TF.FileFunction,Legend,Top*
G04 #@! TF.FilePolarity,Positive*
%FSLAX46Y46*%
G04 Gerber Fmt 4.6, Leading zero omitted, Abs format (unit mm)*
G04 Created by KiCad (PCBNEW 5.1.0-rc2-unknown-d2d2101~82~ubuntu18.10.1) date 2019-03-08 07:56:29*
%MOMM*%
%LPD*%
G04 APERTURE LIST*
%ADD10C,0.150000*%
G04 APERTURE END LIST*
D10*
X8706285Y-37981371D02*
X8849142Y-38028990D01*
X8896761Y-38076609D01*
X8944380Y-38171847D01*
X8944380Y-38314704D01*
X8896761Y-38409942D01*
X8849142Y-38457561D01*
X8753904Y-38505180D01*
X8372952Y-38505180D01*
X8372952Y-37505180D01*
X8706285Y-37505180D01*
X8801523Y-37552800D01*
X8849142Y-37600419D01*
X8896761Y-37695657D01*
X8896761Y-37790895D01*
X8849142Y-37886133D01*
X8801523Y-37933752D01*
X8706285Y-37981371D01*
X8372952Y-37981371D01*
X9230095Y-37505180D02*
X9801523Y-37505180D01*
X9515809Y-38505180D02*
X9515809Y-37505180D01*
X10658666Y-38505180D02*
X10087238Y-38505180D01*
X10372952Y-38505180D02*
X10372952Y-37505180D01*
X10277714Y-37648038D01*
X10182476Y-37743276D01*
X10087238Y-37790895D01*
X19414285Y-6828571D02*
X19557142Y-6876190D01*
X19604761Y-6923809D01*
X19652380Y-7019047D01*
X19652380Y-7161904D01*
X19604761Y-7257142D01*
X19557142Y-7304761D01*
X19461904Y-7352380D01*
X19080952Y-7352380D01*
X19080952Y-6352380D01*
X19414285Y-6352380D01*
X19509523Y-6400000D01*
X19557142Y-6447619D01*
X19604761Y-6542857D01*
X19604761Y-6638095D01*
X19557142Y-6733333D01*
X19509523Y-6780952D01*
X19414285Y-6828571D01*
X19080952Y-6828571D01*
X19938095Y-6352380D02*
X20509523Y-6352380D01*
X20223809Y-7352380D02*
X20223809Y-6352380D01*
X21271428Y-6685714D02*
X21271428Y-7352380D01*
X21033333Y-6304761D02*
X20795238Y-7019047D01*
X21414285Y-7019047D01*
X19722285Y-28543771D02*
X19865142Y-28591390D01*
X19912761Y-28639009D01*
X19960380Y-28734247D01*
X19960380Y-28877104D01*
X19912761Y-28972342D01*
X19865142Y-29019961D01*
X19769904Y-29067580D01*
X19388952Y-29067580D01*
X19388952Y-28067580D01*
X19722285Y-28067580D01*
X19817523Y-28115200D01*
X19865142Y-28162819D01*
X19912761Y-28258057D01*
X19912761Y-28353295D01*
X19865142Y-28448533D01*
X19817523Y-28496152D01*
X19722285Y-28543771D01*
X19388952Y-28543771D01*
X20246095Y-28067580D02*
X20817523Y-28067580D01*
X20531809Y-29067580D02*
X20531809Y-28067580D01*
X21627047Y-28067580D02*
X21150857Y-28067580D01*
X21103238Y-28543771D01*
X21150857Y-28496152D01*
X21246095Y-28448533D01*
X21484190Y-28448533D01*
X21579428Y-28496152D01*
X21627047Y-28543771D01*
X21674666Y-28639009D01*
X21674666Y-28877104D01*
X21627047Y-28972342D01*
X21579428Y-29019961D01*
X21484190Y-29067580D01*
X21246095Y-29067580D01*
X21150857Y-29019961D01*
X21103238Y-28972342D01*
X19722285Y-61876771D02*
X19865142Y-61924390D01*
X19912761Y-61972009D01*
X19960380Y-62067247D01*
X19960380Y-62210104D01*
X19912761Y-62305342D01*
X19865142Y-62352961D01*
X19769904Y-62400580D01*
X19388952Y-62400580D01*
X19388952Y-61400580D01*
X19722285Y-61400580D01*
X19817523Y-61448200D01*
X19865142Y-61495819D01*
X19912761Y-61591057D01*
X19912761Y-61686295D01*
X19865142Y-61781533D01*
X19817523Y-61829152D01*
X19722285Y-61876771D01*
X19388952Y-61876771D01*
X20246095Y-61400580D02*
X20817523Y-61400580D01*
X20531809Y-62400580D02*
X20531809Y-61400580D01*
X21579428Y-61400580D02*
X21388952Y-61400580D01*
X21293714Y-61448200D01*
X21246095Y-61495819D01*
X21150857Y-61638676D01*
X21103238Y-61829152D01*
X21103238Y-62210104D01*
X21150857Y-62305342D01*
X21198476Y-62352961D01*
X21293714Y-62400580D01*
X21484190Y-62400580D01*
X21579428Y-62352961D01*
X21627047Y-62305342D01*
X21674666Y-62210104D01*
X21674666Y-61972009D01*
X21627047Y-61876771D01*
X21579428Y-61829152D01*
X21484190Y-61781533D01*
X21293714Y-61781533D01*
X21198476Y-61829152D01*
X21150857Y-61876771D01*
X21103238Y-61972009D01*
X28706285Y-104647371D02*
X28849142Y-104694990D01*
X28896761Y-104742609D01*
X28944380Y-104837847D01*
X28944380Y-104980704D01*
X28896761Y-105075942D01*
X28849142Y-105123561D01*
X28753904Y-105171180D01*
X28372952Y-105171180D01*
X28372952Y-104171180D01*
X28706285Y-104171180D01*
X28801523Y-104218800D01*
X28849142Y-104266419D01*
X28896761Y-104361657D01*
X28896761Y-104456895D01*
X28849142Y-104552133D01*
X28801523Y-104599752D01*
X28706285Y-104647371D01*
X28372952Y-104647371D01*
X29230095Y-104171180D02*
X29801523Y-104171180D01*
X29515809Y-105171180D02*
X29515809Y-104171180D01*
X30182476Y-105171180D02*
X30372952Y-105171180D01*
X30468190Y-105123561D01*
X30515809Y-105075942D01*
X30611047Y-104933085D01*
X30658666Y-104742609D01*
X30658666Y-104361657D01*
X30611047Y-104266419D01*
X30563428Y-104218800D01*
X30468190Y-104171180D01*
X30277714Y-104171180D01*
X30182476Y-104218800D01*
X30134857Y-104266419D01*
X30087238Y-104361657D01*
X30087238Y-104599752D01*
X30134857Y-104694990D01*
X30182476Y-104742609D01*
X30277714Y-104790228D01*
X30468190Y-104790228D01*
X30563428Y-104742609D01*
X30611047Y-104694990D01*
X30658666Y-104599752D01*
X39238095Y-9528571D02*
X39380952Y-9576190D01*
X39428571Y-9623809D01*
X39476190Y-9719047D01*
X39476190Y-9861904D01*
X39428571Y-9957142D01*
X39380952Y-10004761D01*
X39285714Y-10052380D01*
X38904761Y-10052380D01*
X38904761Y-9052380D01*
X39238095Y-9052380D01*
X39333333Y-9100000D01*
X39380952Y-9147619D01*
X39428571Y-9242857D01*
X39428571Y-9338095D01*
X39380952Y-9433333D01*
X39333333Y-9480952D01*
X39238095Y-9528571D01*
X38904761Y-9528571D01*
X39761904Y-9052380D02*
X40333333Y-9052380D01*
X40047619Y-10052380D02*
X40047619Y-9052380D01*
X41190476Y-10052380D02*
X40619047Y-10052380D01*
X40904761Y-10052380D02*
X40904761Y-9052380D01*
X40809523Y-9195238D01*
X40714285Y-9290476D01*
X40619047Y-9338095D01*
X41809523Y-9052380D02*
X41904761Y-9052380D01*
X42000000Y-9100000D01*
X42047619Y-9147619D01*
X42095238Y-9242857D01*
X42142857Y-9433333D01*
X42142857Y-9671428D01*
X42095238Y-9861904D01*
X42047619Y-9957142D01*
X42000000Y-10004761D01*
X41904761Y-10052380D01*
X41809523Y-10052380D01*
X41714285Y-10004761D01*
X41666666Y-9957142D01*
X41619047Y-9861904D01*
X41571428Y-9671428D01*
X41571428Y-9433333D01*
X41619047Y-9242857D01*
X41666666Y-9147619D01*
X41714285Y-9100000D01*
X41809523Y-9052380D01*
X39246095Y-28543771D02*
X39388952Y-28591390D01*
X39436571Y-28639009D01*
X39484190Y-28734247D01*
X39484190Y-28877104D01*
X39436571Y-28972342D01*
X39388952Y-29019961D01*
X39293714Y-29067580D01*
X38912761Y-29067580D01*
X38912761Y-28067580D01*
X39246095Y-28067580D01*
X39341333Y-28115200D01*
X39388952Y-28162819D01*
X39436571Y-28258057D01*
X39436571Y-28353295D01*
X39388952Y-28448533D01*
X39341333Y-28496152D01*
X39246095Y-28543771D01*
X38912761Y-28543771D01*
X39769904Y-28067580D02*
X40341333Y-28067580D01*
X40055619Y-29067580D02*
X40055619Y-28067580D01*
X41198476Y-29067580D02*
X40627047Y-29067580D01*
X40912761Y-29067580D02*
X40912761Y-28067580D01*
X40817523Y-28210438D01*
X40722285Y-28305676D01*
X40627047Y-28353295D01*
X42150857Y-29067580D02*
X41579428Y-29067580D01*
X41865142Y-29067580D02*
X41865142Y-28067580D01*
X41769904Y-28210438D01*
X41674666Y-28305676D01*
X41579428Y-28353295D01*
X39246095Y-61876771D02*
X39388952Y-61924390D01*
X39436571Y-61972009D01*
X39484190Y-62067247D01*
X39484190Y-62210104D01*
X39436571Y-62305342D01*
X39388952Y-62352961D01*
X39293714Y-62400580D01*
X38912761Y-62400580D01*
X38912761Y-61400580D01*
X39246095Y-61400580D01*
X39341333Y-61448200D01*
X39388952Y-61495819D01*
X39436571Y-61591057D01*
X39436571Y-61686295D01*
X39388952Y-61781533D01*
X39341333Y-61829152D01*
X39246095Y-61876771D01*
X38912761Y-61876771D01*
X39769904Y-61400580D02*
X40341333Y-61400580D01*
X40055619Y-62400580D02*
X40055619Y-61400580D01*
X41198476Y-62400580D02*
X40627047Y-62400580D01*
X40912761Y-62400580D02*
X40912761Y-61400580D01*
X40817523Y-61543438D01*
X40722285Y-61638676D01*
X40627047Y-61686295D01*
X41579428Y-61495819D02*
X41627047Y-61448200D01*
X41722285Y-61400580D01*
X41960380Y-61400580D01*
X42055619Y-61448200D01*
X42103238Y-61495819D01*
X42150857Y-61591057D01*
X42150857Y-61686295D01*
X42103238Y-61829152D01*
X41531809Y-62400580D01*
X42150857Y-62400580D01*
X48230095Y-37981371D02*
X48372952Y-38028990D01*
X48420571Y-38076609D01*
X48468190Y-38171847D01*
X48468190Y-38314704D01*
X48420571Y-38409942D01*
X48372952Y-38457561D01*
X48277714Y-38505180D01*
X47896761Y-38505180D01*
X47896761Y-37505180D01*
X48230095Y-37505180D01*
X48325333Y-37552800D01*
X48372952Y-37600419D01*
X48420571Y-37695657D01*
X48420571Y-37790895D01*
X48372952Y-37886133D01*
X48325333Y-37933752D01*
X48230095Y-37981371D01*
X47896761Y-37981371D01*
X48753904Y-37505180D02*
X49325333Y-37505180D01*
X49039619Y-38505180D02*
X49039619Y-37505180D01*
X50182476Y-38505180D02*
X49611047Y-38505180D01*
X49896761Y-38505180D02*
X49896761Y-37505180D01*
X49801523Y-37648038D01*
X49706285Y-37743276D01*
X49611047Y-37790895D01*
X50515809Y-37505180D02*
X51134857Y-37505180D01*
X50801523Y-37886133D01*
X50944380Y-37886133D01*
X51039619Y-37933752D01*
X51087238Y-37981371D01*
X51134857Y-38076609D01*
X51134857Y-38314704D01*
X51087238Y-38409942D01*
X51039619Y-38457561D01*
X50944380Y-38505180D01*
X50658666Y-38505180D01*
X50563428Y-38457561D01*
X50515809Y-38409942D01*
X48230095Y-71314371D02*
X48372952Y-71361990D01*
X48420571Y-71409609D01*
X48468190Y-71504847D01*
X48468190Y-71647704D01*
X48420571Y-71742942D01*
X48372952Y-71790561D01*
X48277714Y-71838180D01*
X47896761Y-71838180D01*
X47896761Y-70838180D01*
X48230095Y-70838180D01*
X48325333Y-70885800D01*
X48372952Y-70933419D01*
X48420571Y-71028657D01*
X48420571Y-71123895D01*
X48372952Y-71219133D01*
X48325333Y-71266752D01*
X48230095Y-71314371D01*
X47896761Y-71314371D01*
X48753904Y-70838180D02*
X49325333Y-70838180D01*
X49039619Y-71838180D02*
X49039619Y-70838180D01*
X50182476Y-71838180D02*
X49611047Y-71838180D01*
X49896761Y-71838180D02*
X49896761Y-70838180D01*
X49801523Y-70981038D01*
X49706285Y-71076276D01*
X49611047Y-71123895D01*
X51039619Y-71171514D02*
X51039619Y-71838180D01*
X50801523Y-70790561D02*
X50563428Y-71504847D01*
X51182476Y-71504847D01*
X48230095Y-104647371D02*
X48372952Y-104694990D01*
X48420571Y-104742609D01*
X48468190Y-104837847D01*
X48468190Y-104980704D01*
X48420571Y-105075942D01*
X48372952Y-105123561D01*
X48277714Y-105171180D01*
X47896761Y-105171180D01*
X47896761Y-104171180D01*
X48230095Y-104171180D01*
X48325333Y-104218800D01*
X48372952Y-104266419D01*
X48420571Y-104361657D01*
X48420571Y-104456895D01*
X48372952Y-104552133D01*
X48325333Y-104599752D01*
X48230095Y-104647371D01*
X47896761Y-104647371D01*
X48753904Y-104171180D02*
X49325333Y-104171180D01*
X49039619Y-105171180D02*
X49039619Y-104171180D01*
X50182476Y-105171180D02*
X49611047Y-105171180D01*
X49896761Y-105171180D02*
X49896761Y-104171180D01*
X49801523Y-104314038D01*
X49706285Y-104409276D01*
X49611047Y-104456895D01*
X51087238Y-104171180D02*
X50611047Y-104171180D01*
X50563428Y-104647371D01*
X50611047Y-104599752D01*
X50706285Y-104552133D01*
X50944380Y-104552133D01*
X51039619Y-104599752D01*
X51087238Y-104647371D01*
X51134857Y-104742609D01*
X51134857Y-104980704D01*
X51087238Y-105075942D01*
X51039619Y-105123561D01*
X50944380Y-105171180D01*
X50706285Y-105171180D01*
X50611047Y-105123561D01*
X50563428Y-105075942D01*
X59246095Y4789228D02*
X59388952Y4741609D01*
X59436571Y4693990D01*
X59484190Y4598752D01*
X59484190Y4455895D01*
X59436571Y4360657D01*
X59388952Y4313038D01*
X59293714Y4265419D01*
X58912761Y4265419D01*
X58912761Y5265419D01*
X59246095Y5265419D01*
X59341333Y5217800D01*
X59388952Y5170180D01*
X59436571Y5074942D01*
X59436571Y4979704D01*
X59388952Y4884466D01*
X59341333Y4836847D01*
X59246095Y4789228D01*
X58912761Y4789228D01*
X59769904Y5265419D02*
X60341333Y5265419D01*
X60055619Y4265419D02*
X60055619Y5265419D01*
X61198476Y4265419D02*
X60627047Y4265419D01*
X60912761Y4265419D02*
X60912761Y5265419D01*
X60817523Y5122561D01*
X60722285Y5027323D01*
X60627047Y4979704D01*
X62055619Y5265419D02*
X61865142Y5265419D01*
X61769904Y5217800D01*
X61722285Y5170180D01*
X61627047Y5027323D01*
X61579428Y4836847D01*
X61579428Y4455895D01*
X61627047Y4360657D01*
X61674666Y4313038D01*
X61769904Y4265419D01*
X61960380Y4265419D01*
X62055619Y4313038D01*
X62103238Y4360657D01*
X62150857Y4455895D01*
X62150857Y4693990D01*
X62103238Y4789228D01*
X62055619Y4836847D01*
X61960380Y4884466D01*
X61769904Y4884466D01*
X61674666Y4836847D01*
X61627047Y4789228D01*
X61579428Y4693990D01*
X59246095Y-28543771D02*
X59388952Y-28591390D01*
X59436571Y-28639009D01*
X59484190Y-28734247D01*
X59484190Y-28877104D01*
X59436571Y-28972342D01*
X59388952Y-29019961D01*
X59293714Y-29067580D01*
X58912761Y-29067580D01*
X58912761Y-28067580D01*
X59246095Y-28067580D01*
X59341333Y-28115200D01*
X59388952Y-28162819D01*
X59436571Y-28258057D01*
X59436571Y-28353295D01*
X59388952Y-28448533D01*
X59341333Y-28496152D01*
X59246095Y-28543771D01*
X58912761Y-28543771D01*
X59769904Y-28067580D02*
X60341333Y-28067580D01*
X60055619Y-29067580D02*
X60055619Y-28067580D01*
X61198476Y-29067580D02*
X60627047Y-29067580D01*
X60912761Y-29067580D02*
X60912761Y-28067580D01*
X60817523Y-28210438D01*
X60722285Y-28305676D01*
X60627047Y-28353295D01*
X61531809Y-28067580D02*
X62198476Y-28067580D01*
X61769904Y-29067580D01*
X68230095Y-37981371D02*
X68372952Y-38028990D01*
X68420571Y-38076609D01*
X68468190Y-38171847D01*
X68468190Y-38314704D01*
X68420571Y-38409942D01*
X68372952Y-38457561D01*
X68277714Y-38505180D01*
X67896761Y-38505180D01*
X67896761Y-37505180D01*
X68230095Y-37505180D01*
X68325333Y-37552800D01*
X68372952Y-37600419D01*
X68420571Y-37695657D01*
X68420571Y-37790895D01*
X68372952Y-37886133D01*
X68325333Y-37933752D01*
X68230095Y-37981371D01*
X67896761Y-37981371D01*
X68753904Y-37505180D02*
X69325333Y-37505180D01*
X69039619Y-38505180D02*
X69039619Y-37505180D01*
X70182476Y-38505180D02*
X69611047Y-38505180D01*
X69896761Y-38505180D02*
X69896761Y-37505180D01*
X69801523Y-37648038D01*
X69706285Y-37743276D01*
X69611047Y-37790895D01*
X70658666Y-38505180D02*
X70849142Y-38505180D01*
X70944380Y-38457561D01*
X70992000Y-38409942D01*
X71087238Y-38267085D01*
X71134857Y-38076609D01*
X71134857Y-37695657D01*
X71087238Y-37600419D01*
X71039619Y-37552800D01*
X70944380Y-37505180D01*
X70753904Y-37505180D01*
X70658666Y-37552800D01*
X70611047Y-37600419D01*
X70563428Y-37695657D01*
X70563428Y-37933752D01*
X70611047Y-38028990D01*
X70658666Y-38076609D01*
X70753904Y-38124228D01*
X70944380Y-38124228D01*
X71039619Y-38076609D01*
X71087238Y-38028990D01*
X71134857Y-37933752D01*
X68230095Y-71314371D02*
X68372952Y-71361990D01*
X68420571Y-71409609D01*
X68468190Y-71504847D01*
X68468190Y-71647704D01*
X68420571Y-71742942D01*
X68372952Y-71790561D01*
X68277714Y-71838180D01*
X67896761Y-71838180D01*
X67896761Y-70838180D01*
X68230095Y-70838180D01*
X68325333Y-70885800D01*
X68372952Y-70933419D01*
X68420571Y-71028657D01*
X68420571Y-71123895D01*
X68372952Y-71219133D01*
X68325333Y-71266752D01*
X68230095Y-71314371D01*
X67896761Y-71314371D01*
X68753904Y-70838180D02*
X69325333Y-70838180D01*
X69039619Y-71838180D02*
X69039619Y-70838180D01*
X69611047Y-70933419D02*
X69658666Y-70885800D01*
X69753904Y-70838180D01*
X69992000Y-70838180D01*
X70087238Y-70885800D01*
X70134857Y-70933419D01*
X70182476Y-71028657D01*
X70182476Y-71123895D01*
X70134857Y-71266752D01*
X69563428Y-71838180D01*
X70182476Y-71838180D01*
X70801523Y-70838180D02*
X70896761Y-70838180D01*
X70992000Y-70885800D01*
X71039619Y-70933419D01*
X71087238Y-71028657D01*
X71134857Y-71219133D01*
X71134857Y-71457228D01*
X71087238Y-71647704D01*
X71039619Y-71742942D01*
X70992000Y-71790561D01*
X70896761Y-71838180D01*
X70801523Y-71838180D01*
X70706285Y-71790561D01*
X70658666Y-71742942D01*
X70611047Y-71647704D01*
X70563428Y-71457228D01*
X70563428Y-71219133D01*
X70611047Y-71028657D01*
X70658666Y-70933419D01*
X70706285Y-70885800D01*
X70801523Y-70838180D01*
X68230095Y-104647371D02*
X68372952Y-104694990D01*
X68420571Y-104742609D01*
X68468190Y-104837847D01*
X68468190Y-104980704D01*
X68420571Y-105075942D01*
X68372952Y-105123561D01*
X68277714Y-105171180D01*
X67896761Y-105171180D01*
X67896761Y-104171180D01*
X68230095Y-104171180D01*
X68325333Y-104218800D01*
X68372952Y-104266419D01*
X68420571Y-104361657D01*
X68420571Y-104456895D01*
X68372952Y-104552133D01*
X68325333Y-104599752D01*
X68230095Y-104647371D01*
X67896761Y-104647371D01*
X68753904Y-104171180D02*
X69325333Y-104171180D01*
X69039619Y-105171180D02*
X69039619Y-104171180D01*
X69611047Y-104266419D02*
X69658666Y-104218800D01*
X69753904Y-104171180D01*
X69992000Y-104171180D01*
X70087238Y-104218800D01*
X70134857Y-104266419D01*
X70182476Y-104361657D01*
X70182476Y-104456895D01*
X70134857Y-104599752D01*
X69563428Y-105171180D01*
X70182476Y-105171180D01*
X71134857Y-105171180D02*
X70563428Y-105171180D01*
X70849142Y-105171180D02*
X70849142Y-104171180D01*
X70753904Y-104314038D01*
X70658666Y-104409276D01*
X70563428Y-104456895D01*
X79246095Y4789228D02*
X79388952Y4741609D01*
X79436571Y4693990D01*
X79484190Y4598752D01*
X79484190Y4455895D01*
X79436571Y4360657D01*
X79388952Y4313038D01*
X79293714Y4265419D01*
X78912761Y4265419D01*
X78912761Y5265419D01*
X79246095Y5265419D01*
X79341333Y5217800D01*
X79388952Y5170180D01*
X79436571Y5074942D01*
X79436571Y4979704D01*
X79388952Y4884466D01*
X79341333Y4836847D01*
X79246095Y4789228D01*
X78912761Y4789228D01*
X79769904Y5265419D02*
X80341333Y5265419D01*
X80055619Y4265419D02*
X80055619Y5265419D01*
X80627047Y5170180D02*
X80674666Y5217800D01*
X80769904Y5265419D01*
X81008000Y5265419D01*
X81103238Y5217800D01*
X81150857Y5170180D01*
X81198476Y5074942D01*
X81198476Y4979704D01*
X81150857Y4836847D01*
X80579428Y4265419D01*
X81198476Y4265419D01*
X81579428Y5170180D02*
X81627047Y5217800D01*
X81722285Y5265419D01*
X81960380Y5265419D01*
X82055619Y5217800D01*
X82103238Y5170180D01*
X82150857Y5074942D01*
X82150857Y4979704D01*
X82103238Y4836847D01*
X81531809Y4265419D01*
X82150857Y4265419D01*
X79246095Y-28543771D02*
X79388952Y-28591390D01*
X79436571Y-28639009D01*
X79484190Y-28734247D01*
X79484190Y-28877104D01*
X79436571Y-28972342D01*
X79388952Y-29019961D01*
X79293714Y-29067580D01*
X78912761Y-29067580D01*
X78912761Y-28067580D01*
X79246095Y-28067580D01*
X79341333Y-28115200D01*
X79388952Y-28162819D01*
X79436571Y-28258057D01*
X79436571Y-28353295D01*
X79388952Y-28448533D01*
X79341333Y-28496152D01*
X79246095Y-28543771D01*
X78912761Y-28543771D01*
X79769904Y-28067580D02*
X80341333Y-28067580D01*
X80055619Y-29067580D02*
X80055619Y-28067580D01*
X80627047Y-28162819D02*
X80674666Y-28115200D01*
X80769904Y-28067580D01*
X81008000Y-28067580D01*
X81103238Y-28115200D01*
X81150857Y-28162819D01*
X81198476Y-28258057D01*
X81198476Y-28353295D01*
X81150857Y-28496152D01*
X80579428Y-29067580D01*
X81198476Y-29067580D01*
X81531809Y-28067580D02*
X82150857Y-28067580D01*
X81817523Y-28448533D01*
X81960380Y-28448533D01*
X82055619Y-28496152D01*
X82103238Y-28543771D01*
X82150857Y-28639009D01*
X82150857Y-28877104D01*
X82103238Y-28972342D01*
X82055619Y-29019961D01*
X81960380Y-29067580D01*
X81674666Y-29067580D01*
X81579428Y-29019961D01*
X81531809Y-28972342D01*
X79246095Y-61876771D02*
X79388952Y-61924390D01*
X79436571Y-61972009D01*
X79484190Y-62067247D01*
X79484190Y-62210104D01*
X79436571Y-62305342D01*
X79388952Y-62352961D01*
X79293714Y-62400580D01*
X78912761Y-62400580D01*
X78912761Y-61400580D01*
X79246095Y-61400580D01*
X79341333Y-61448200D01*
X79388952Y-61495819D01*
X79436571Y-61591057D01*
X79436571Y-61686295D01*
X79388952Y-61781533D01*
X79341333Y-61829152D01*
X79246095Y-61876771D01*
X78912761Y-61876771D01*
X79769904Y-61400580D02*
X80341333Y-61400580D01*
X80055619Y-62400580D02*
X80055619Y-61400580D01*
X80627047Y-61495819D02*
X80674666Y-61448200D01*
X80769904Y-61400580D01*
X81008000Y-61400580D01*
X81103238Y-61448200D01*
X81150857Y-61495819D01*
X81198476Y-61591057D01*
X81198476Y-61686295D01*
X81150857Y-61829152D01*
X80579428Y-62400580D01*
X81198476Y-62400580D01*
X82055619Y-61733914D02*
X82055619Y-62400580D01*
X81817523Y-61352961D02*
X81579428Y-62067247D01*
X82198476Y-62067247D01*
X88230095Y-37981371D02*
X88372952Y-38028990D01*
X88420571Y-38076609D01*
X88468190Y-38171847D01*
X88468190Y-38314704D01*
X88420571Y-38409942D01*
X88372952Y-38457561D01*
X88277714Y-38505180D01*
X87896761Y-38505180D01*
X87896761Y-37505180D01*
X88230095Y-37505180D01*
X88325333Y-37552800D01*
X88372952Y-37600419D01*
X88420571Y-37695657D01*
X88420571Y-37790895D01*
X88372952Y-37886133D01*
X88325333Y-37933752D01*
X88230095Y-37981371D01*
X87896761Y-37981371D01*
X88753904Y-37505180D02*
X89325333Y-37505180D01*
X89039619Y-38505180D02*
X89039619Y-37505180D01*
X89611047Y-37600419D02*
X89658666Y-37552800D01*
X89753904Y-37505180D01*
X89992000Y-37505180D01*
X90087238Y-37552800D01*
X90134857Y-37600419D01*
X90182476Y-37695657D01*
X90182476Y-37790895D01*
X90134857Y-37933752D01*
X89563428Y-38505180D01*
X90182476Y-38505180D01*
X91087238Y-37505180D02*
X90611047Y-37505180D01*
X90563428Y-37981371D01*
X90611047Y-37933752D01*
X90706285Y-37886133D01*
X90944380Y-37886133D01*
X91039619Y-37933752D01*
X91087238Y-37981371D01*
X91134857Y-38076609D01*
X91134857Y-38314704D01*
X91087238Y-38409942D01*
X91039619Y-38457561D01*
X90944380Y-38505180D01*
X90706285Y-38505180D01*
X90611047Y-38457561D01*
X90563428Y-38409942D01*
X88230095Y-71314371D02*
X88372952Y-71361990D01*
X88420571Y-71409609D01*
X88468190Y-71504847D01*
X88468190Y-71647704D01*
X88420571Y-71742942D01*
X88372952Y-71790561D01*
X88277714Y-71838180D01*
X87896761Y-71838180D01*
X87896761Y-70838180D01*
X88230095Y-70838180D01*
X88325333Y-70885800D01*
X88372952Y-70933419D01*
X88420571Y-71028657D01*
X88420571Y-71123895D01*
X88372952Y-71219133D01*
X88325333Y-71266752D01*
X88230095Y-71314371D01*
X87896761Y-71314371D01*
X88753904Y-70838180D02*
X89325333Y-70838180D01*
X89039619Y-71838180D02*
X89039619Y-70838180D01*
X89611047Y-70933419D02*
X89658666Y-70885800D01*
X89753904Y-70838180D01*
X89992000Y-70838180D01*
X90087238Y-70885800D01*
X90134857Y-70933419D01*
X90182476Y-71028657D01*
X90182476Y-71123895D01*
X90134857Y-71266752D01*
X89563428Y-71838180D01*
X90182476Y-71838180D01*
X91039619Y-70838180D02*
X90849142Y-70838180D01*
X90753904Y-70885800D01*
X90706285Y-70933419D01*
X90611047Y-71076276D01*
X90563428Y-71266752D01*
X90563428Y-71647704D01*
X90611047Y-71742942D01*
X90658666Y-71790561D01*
X90753904Y-71838180D01*
X90944380Y-71838180D01*
X91039619Y-71790561D01*
X91087238Y-71742942D01*
X91134857Y-71647704D01*
X91134857Y-71409609D01*
X91087238Y-71314371D01*
X91039619Y-71266752D01*
X90944380Y-71219133D01*
X90753904Y-71219133D01*
X90658666Y-71266752D01*
X90611047Y-71314371D01*
X90563428Y-71409609D01*
X88230095Y-104647371D02*
X88372952Y-104694990D01*
X88420571Y-104742609D01*
X88468190Y-104837847D01*
X88468190Y-104980704D01*
X88420571Y-105075942D01*
X88372952Y-105123561D01*
X88277714Y-105171180D01*
X87896761Y-105171180D01*
X87896761Y-104171180D01*
X88230095Y-104171180D01*
X88325333Y-104218800D01*
X88372952Y-104266419D01*
X88420571Y-104361657D01*
X88420571Y-104456895D01*
X88372952Y-104552133D01*
X88325333Y-104599752D01*
X88230095Y-104647371D01*
X87896761Y-104647371D01*
X88753904Y-104171180D02*
X89325333Y-104171180D01*
X89039619Y-105171180D02*
X89039619Y-104171180D01*
X89611047Y-104266419D02*
X89658666Y-104218800D01*
X89753904Y-104171180D01*
X89992000Y-104171180D01*
X90087238Y-104218800D01*
X90134857Y-104266419D01*
X90182476Y-104361657D01*
X90182476Y-104456895D01*
X90134857Y-104599752D01*
X89563428Y-105171180D01*
X90182476Y-105171180D01*
X90515809Y-104171180D02*
X91182476Y-104171180D01*
X90753904Y-105171180D01*
X99246095Y4789228D02*
X99388952Y4741609D01*
X99436571Y4693990D01*
X99484190Y4598752D01*
X99484190Y4455895D01*
X99436571Y4360657D01*
X99388952Y4313038D01*
X99293714Y4265419D01*
X98912761Y4265419D01*
X98912761Y5265419D01*
X99246095Y5265419D01*
X99341333Y5217800D01*
X99388952Y5170180D01*
X99436571Y5074942D01*
X99436571Y4979704D01*
X99388952Y4884466D01*
X99341333Y4836847D01*
X99246095Y4789228D01*
X98912761Y4789228D01*
X99769904Y5265419D02*
X100341333Y5265419D01*
X100055619Y4265419D02*
X100055619Y5265419D01*
X100627047Y5170180D02*
X100674666Y5217800D01*
X100769904Y5265419D01*
X101008000Y5265419D01*
X101103238Y5217800D01*
X101150857Y5170180D01*
X101198476Y5074942D01*
X101198476Y4979704D01*
X101150857Y4836847D01*
X100579428Y4265419D01*
X101198476Y4265419D01*
X101769904Y4836847D02*
X101674666Y4884466D01*
X101627047Y4932085D01*
X101579428Y5027323D01*
X101579428Y5074942D01*
X101627047Y5170180D01*
X101674666Y5217800D01*
X101769904Y5265419D01*
X101960380Y5265419D01*
X102055619Y5217800D01*
X102103238Y5170180D01*
X102150857Y5074942D01*
X102150857Y5027323D01*
X102103238Y4932085D01*
X102055619Y4884466D01*
X101960380Y4836847D01*
X101769904Y4836847D01*
X101674666Y4789228D01*
X101627047Y4741609D01*
X101579428Y4646371D01*
X101579428Y4455895D01*
X101627047Y4360657D01*
X101674666Y4313038D01*
X101769904Y4265419D01*
X101960380Y4265419D01*
X102055619Y4313038D01*
X102103238Y4360657D01*
X102150857Y4455895D01*
X102150857Y4646371D01*
X102103238Y4741609D01*
X102055619Y4789228D01*
X101960380Y4836847D01*
X99246095Y-28543771D02*
X99388952Y-28591390D01*
X99436571Y-28639009D01*
X99484190Y-28734247D01*
X99484190Y-28877104D01*
X99436571Y-28972342D01*
X99388952Y-29019961D01*
X99293714Y-29067580D01*
X98912761Y-29067580D01*
X98912761Y-28067580D01*
X99246095Y-28067580D01*
X99341333Y-28115200D01*
X99388952Y-28162819D01*
X99436571Y-28258057D01*
X99436571Y-28353295D01*
X99388952Y-28448533D01*
X99341333Y-28496152D01*
X99246095Y-28543771D01*
X98912761Y-28543771D01*
X99769904Y-28067580D02*
X100341333Y-28067580D01*
X100055619Y-29067580D02*
X100055619Y-28067580D01*
X100627047Y-28162819D02*
X100674666Y-28115200D01*
X100769904Y-28067580D01*
X101008000Y-28067580D01*
X101103238Y-28115200D01*
X101150857Y-28162819D01*
X101198476Y-28258057D01*
X101198476Y-28353295D01*
X101150857Y-28496152D01*
X100579428Y-29067580D01*
X101198476Y-29067580D01*
X101674666Y-29067580D02*
X101865142Y-29067580D01*
X101960380Y-29019961D01*
X102008000Y-28972342D01*
X102103238Y-28829485D01*
X102150857Y-28639009D01*
X102150857Y-28258057D01*
X102103238Y-28162819D01*
X102055619Y-28115200D01*
X101960380Y-28067580D01*
X101769904Y-28067580D01*
X101674666Y-28115200D01*
X101627047Y-28162819D01*
X101579428Y-28258057D01*
X101579428Y-28496152D01*
X101627047Y-28591390D01*
X101674666Y-28639009D01*
X101769904Y-28686628D01*
X101960380Y-28686628D01*
X102055619Y-28639009D01*
X102103238Y-28591390D01*
X102150857Y-28496152D01*
X99246095Y-61876771D02*
X99388952Y-61924390D01*
X99436571Y-61972009D01*
X99484190Y-62067247D01*
X99484190Y-62210104D01*
X99436571Y-62305342D01*
X99388952Y-62352961D01*
X99293714Y-62400580D01*
X98912761Y-62400580D01*
X98912761Y-61400580D01*
X99246095Y-61400580D01*
X99341333Y-61448200D01*
X99388952Y-61495819D01*
X99436571Y-61591057D01*
X99436571Y-61686295D01*
X99388952Y-61781533D01*
X99341333Y-61829152D01*
X99246095Y-61876771D01*
X98912761Y-61876771D01*
X99769904Y-61400580D02*
X100341333Y-61400580D01*
X100055619Y-62400580D02*
X100055619Y-61400580D01*
X100579428Y-61400580D02*
X101198476Y-61400580D01*
X100865142Y-61781533D01*
X101008000Y-61781533D01*
X101103238Y-61829152D01*
X101150857Y-61876771D01*
X101198476Y-61972009D01*
X101198476Y-62210104D01*
X101150857Y-62305342D01*
X101103238Y-62352961D01*
X101008000Y-62400580D01*
X100722285Y-62400580D01*
X100627047Y-62352961D01*
X100579428Y-62305342D01*
X101817523Y-61400580D02*
X101912761Y-61400580D01*
X102008000Y-61448200D01*
X102055619Y-61495819D01*
X102103238Y-61591057D01*
X102150857Y-61781533D01*
X102150857Y-62019628D01*
X102103238Y-62210104D01*
X102055619Y-62305342D01*
X102008000Y-62352961D01*
X101912761Y-62400580D01*
X101817523Y-62400580D01*
X101722285Y-62352961D01*
X101674666Y-62305342D01*
X101627047Y-62210104D01*
X101579428Y-62019628D01*
X101579428Y-61781533D01*
X101627047Y-61591057D01*
X101674666Y-61495819D01*
X101722285Y-61448200D01*
X101817523Y-61400580D01*
X59246095Y-61876771D02*
X59388952Y-61924390D01*
X59436571Y-61972009D01*
X59484190Y-62067247D01*
X59484190Y-62210104D01*
X59436571Y-62305342D01*
X59388952Y-62352961D01*
X59293714Y-62400580D01*
X58912761Y-62400580D01*
X58912761Y-61400580D01*
X59246095Y-61400580D01*
X59341333Y-61448200D01*
X59388952Y-61495819D01*
X59436571Y-61591057D01*
X59436571Y-61686295D01*
X59388952Y-61781533D01*
X59341333Y-61829152D01*
X59246095Y-61876771D01*
X58912761Y-61876771D01*
X59769904Y-61400580D02*
X60341333Y-61400580D01*
X60055619Y-62400580D02*
X60055619Y-61400580D01*
X61198476Y-62400580D02*
X60627047Y-62400580D01*
X60912761Y-62400580D02*
X60912761Y-61400580D01*
X60817523Y-61543438D01*
X60722285Y-61638676D01*
X60627047Y-61686295D01*
X61769904Y-61829152D02*
X61674666Y-61781533D01*
X61627047Y-61733914D01*
X61579428Y-61638676D01*
X61579428Y-61591057D01*
X61627047Y-61495819D01*
X61674666Y-61448200D01*
X61769904Y-61400580D01*
X61960380Y-61400580D01*
X62055619Y-61448200D01*
X62103238Y-61495819D01*
X62150857Y-61591057D01*
X62150857Y-61638676D01*
X62103238Y-61733914D01*
X62055619Y-61781533D01*
X61960380Y-61829152D01*
X61769904Y-61829152D01*
X61674666Y-61876771D01*
X61627047Y-61924390D01*
X61579428Y-62019628D01*
X61579428Y-62210104D01*
X61627047Y-62305342D01*
X61674666Y-62352961D01*
X61769904Y-62400580D01*
X61960380Y-62400580D01*
X62055619Y-62352961D01*
X62103238Y-62305342D01*
X62150857Y-62210104D01*
X62150857Y-62019628D01*
X62103238Y-61924390D01*
X62055619Y-61876771D01*
X61960380Y-61829152D01*
X28706285Y-37981371D02*
X28849142Y-38028990D01*
X28896761Y-38076609D01*
X28944380Y-38171847D01*
X28944380Y-38314704D01*
X28896761Y-38409942D01*
X28849142Y-38457561D01*
X28753904Y-38505180D01*
X28372952Y-38505180D01*
X28372952Y-37505180D01*
X28706285Y-37505180D01*
X28801523Y-37552800D01*
X28849142Y-37600419D01*
X28896761Y-37695657D01*
X28896761Y-37790895D01*
X28849142Y-37886133D01*
X28801523Y-37933752D01*
X28706285Y-37981371D01*
X28372952Y-37981371D01*
X29230095Y-37505180D02*
X29801523Y-37505180D01*
X29515809Y-38505180D02*
X29515809Y-37505180D01*
X30039619Y-37505180D02*
X30706285Y-37505180D01*
X30277714Y-38505180D01*
X28706285Y-71314371D02*
X28849142Y-71361990D01*
X28896761Y-71409609D01*
X28944380Y-71504847D01*
X28944380Y-71647704D01*
X28896761Y-71742942D01*
X28849142Y-71790561D01*
X28753904Y-71838180D01*
X28372952Y-71838180D01*
X28372952Y-70838180D01*
X28706285Y-70838180D01*
X28801523Y-70885800D01*
X28849142Y-70933419D01*
X28896761Y-71028657D01*
X28896761Y-71123895D01*
X28849142Y-71219133D01*
X28801523Y-71266752D01*
X28706285Y-71314371D01*
X28372952Y-71314371D01*
X29230095Y-70838180D02*
X29801523Y-70838180D01*
X29515809Y-71838180D02*
X29515809Y-70838180D01*
X30277714Y-71266752D02*
X30182476Y-71219133D01*
X30134857Y-71171514D01*
X30087238Y-71076276D01*
X30087238Y-71028657D01*
X30134857Y-70933419D01*
X30182476Y-70885800D01*
X30277714Y-70838180D01*
X30468190Y-70838180D01*
X30563428Y-70885800D01*
X30611047Y-70933419D01*
X30658666Y-71028657D01*
X30658666Y-71076276D01*
X30611047Y-71171514D01*
X30563428Y-71219133D01*
X30468190Y-71266752D01*
X30277714Y-71266752D01*
X30182476Y-71314371D01*
X30134857Y-71361990D01*
X30087238Y-71457228D01*
X30087238Y-71647704D01*
X30134857Y-71742942D01*
X30182476Y-71790561D01*
X30277714Y-71838180D01*
X30468190Y-71838180D01*
X30563428Y-71790561D01*
X30611047Y-71742942D01*
X30658666Y-71647704D01*
X30658666Y-71457228D01*
X30611047Y-71361990D01*
X30563428Y-71314371D01*
X30468190Y-71266752D01*
X9214285Y-56912571D02*
X9357142Y-56960190D01*
X9404761Y-57007809D01*
X9452380Y-57103047D01*
X9452380Y-57245904D01*
X9404761Y-57341142D01*
X9357142Y-57388761D01*
X9261904Y-57436380D01*
X8880952Y-57436380D01*
X8880952Y-56436380D01*
X9214285Y-56436380D01*
X9309523Y-56484000D01*
X9357142Y-56531619D01*
X9404761Y-56626857D01*
X9404761Y-56722095D01*
X9357142Y-56817333D01*
X9309523Y-56864952D01*
X9214285Y-56912571D01*
X8880952Y-56912571D01*
X9738095Y-56436380D02*
X10309523Y-56436380D01*
X10023809Y-57436380D02*
X10023809Y-56436380D01*
X10595238Y-56531619D02*
X10642857Y-56484000D01*
X10738095Y-56436380D01*
X10976190Y-56436380D01*
X11071428Y-56484000D01*
X11119047Y-56531619D01*
X11166666Y-56626857D01*
X11166666Y-56722095D01*
X11119047Y-56864952D01*
X10547619Y-57436380D01*
X11166666Y-57436380D01*
X9214285Y-90245571D02*
X9357142Y-90293190D01*
X9404761Y-90340809D01*
X9452380Y-90436047D01*
X9452380Y-90578904D01*
X9404761Y-90674142D01*
X9357142Y-90721761D01*
X9261904Y-90769380D01*
X8880952Y-90769380D01*
X8880952Y-89769380D01*
X9214285Y-89769380D01*
X9309523Y-89817000D01*
X9357142Y-89864619D01*
X9404761Y-89959857D01*
X9404761Y-90055095D01*
X9357142Y-90150333D01*
X9309523Y-90197952D01*
X9214285Y-90245571D01*
X8880952Y-90245571D01*
X9738095Y-89769380D02*
X10309523Y-89769380D01*
X10023809Y-90769380D02*
X10023809Y-89769380D01*
X10547619Y-89769380D02*
X11166666Y-89769380D01*
X10833333Y-90150333D01*
X10976190Y-90150333D01*
X11071428Y-90197952D01*
X11119047Y-90245571D01*
X11166666Y-90340809D01*
X11166666Y-90578904D01*
X11119047Y-90674142D01*
X11071428Y-90721761D01*
X10976190Y-90769380D01*
X10690476Y-90769380D01*
X10595238Y-90721761D01*
X10547619Y-90674142D01*
X-1261904Y-9612571D02*
X-1119047Y-9660190D01*
X-1071428Y-9707809D01*
X-1023809Y-9803047D01*
X-1023809Y-9945904D01*
X-1071428Y-10041142D01*
X-1119047Y-10088761D01*
X-1214285Y-10136380D01*
X-1595238Y-10136380D01*
X-1595238Y-9136380D01*
X-1261904Y-9136380D01*
X-1166666Y-9184000D01*
X-1119047Y-9231619D01*
X-1071428Y-9326857D01*
X-1071428Y-9422095D01*
X-1119047Y-9517333D01*
X-1166666Y-9564952D01*
X-1261904Y-9612571D01*
X-1595238Y-9612571D01*
X-738095Y-9136380D02*
X-166666Y-9136380D01*
X-452380Y-10136380D02*
X-452380Y-9136380D01*
X71428Y-9136380D02*
X690476Y-9136380D01*
X357142Y-9517333D01*
X499999Y-9517333D01*
X595238Y-9564952D01*
X642857Y-9612571D01*
X690476Y-9707809D01*
X690476Y-9945904D01*
X642857Y-10041142D01*
X595238Y-10088761D01*
X499999Y-10136380D01*
X214285Y-10136380D01*
X119047Y-10088761D01*
X71428Y-10041142D01*
X1642857Y-10136380D02*
X1071428Y-10136380D01*
X1357142Y-10136380D02*
X1357142Y-9136380D01*
X1261904Y-9279238D01*
X1166666Y-9374476D01*
X1071428Y-9422095D01*
X-1261904Y-42945571D02*
X-1119047Y-42993190D01*
X-1071428Y-43040809D01*
X-1023809Y-43136047D01*
X-1023809Y-43278904D01*
X-1071428Y-43374142D01*
X-1119047Y-43421761D01*
X-1214285Y-43469380D01*
X-1595238Y-43469380D01*
X-1595238Y-42469380D01*
X-1261904Y-42469380D01*
X-1166666Y-42517000D01*
X-1119047Y-42564619D01*
X-1071428Y-42659857D01*
X-1071428Y-42755095D01*
X-1119047Y-42850333D01*
X-1166666Y-42897952D01*
X-1261904Y-42945571D01*
X-1595238Y-42945571D01*
X-738095Y-42469380D02*
X-166666Y-42469380D01*
X-452380Y-43469380D02*
X-452380Y-42469380D01*
X71428Y-42469380D02*
X690476Y-42469380D01*
X357142Y-42850333D01*
X499999Y-42850333D01*
X595238Y-42897952D01*
X642857Y-42945571D01*
X690476Y-43040809D01*
X690476Y-43278904D01*
X642857Y-43374142D01*
X595238Y-43421761D01*
X499999Y-43469380D01*
X214285Y-43469380D01*
X119047Y-43421761D01*
X71428Y-43374142D01*
X1071428Y-42564619D02*
X1119047Y-42517000D01*
X1214285Y-42469380D01*
X1452380Y-42469380D01*
X1547619Y-42517000D01*
X1595238Y-42564619D01*
X1642857Y-42659857D01*
X1642857Y-42755095D01*
X1595238Y-42897952D01*
X1023809Y-43469380D01*
X1642857Y-43469380D01*
X-1261904Y-76278571D02*
X-1119047Y-76326190D01*
X-1071428Y-76373809D01*
X-1023809Y-76469047D01*
X-1023809Y-76611904D01*
X-1071428Y-76707142D01*
X-1119047Y-76754761D01*
X-1214285Y-76802380D01*
X-1595238Y-76802380D01*
X-1595238Y-75802380D01*
X-1261904Y-75802380D01*
X-1166666Y-75850000D01*
X-1119047Y-75897619D01*
X-1071428Y-75992857D01*
X-1071428Y-76088095D01*
X-1119047Y-76183333D01*
X-1166666Y-76230952D01*
X-1261904Y-76278571D01*
X-1595238Y-76278571D01*
X-738095Y-75802380D02*
X-166666Y-75802380D01*
X-452380Y-76802380D02*
X-452380Y-75802380D01*
X71428Y-75802380D02*
X690476Y-75802380D01*
X357142Y-76183333D01*
X499999Y-76183333D01*
X595238Y-76230952D01*
X642857Y-76278571D01*
X690476Y-76373809D01*
X690476Y-76611904D01*
X642857Y-76707142D01*
X595238Y-76754761D01*
X499999Y-76802380D01*
X214285Y-76802380D01*
X119047Y-76754761D01*
X71428Y-76707142D01*
X1023809Y-75802380D02*
X1642857Y-75802380D01*
X1309523Y-76183333D01*
X1452380Y-76183333D01*
X1547619Y-76230952D01*
X1595238Y-76278571D01*
X1642857Y-76373809D01*
X1642857Y-76611904D01*
X1595238Y-76707142D01*
X1547619Y-76754761D01*
X1452380Y-76802380D01*
X1166666Y-76802380D01*
X1071428Y-76754761D01*
X1023809Y-76707142D01*
M02*
