M48
; DRILL file {KiCad 6.0.0-rc1-unknown-55b5c71~66~ubuntu18.10.1} date Sat 02 Feb 2019 07:43:11 AM EST
; FORMAT={2:4/ absolute / inch / suppress leading zeros}
; #@! TF.CreationDate,2019-02-02T07:43:11-05:00
; #@! TF.GenerationSoftware,Kicad,Pcbnew,6.0.0-rc1-unknown-55b5c71~66~ubuntu18.10.1
FMAT,2
INCH,TZ
T1C0.0315
T2C0.0394
T3C0.1436
T4C0.1969
%
G90
G05
T1
X34646Y-13780
X34646Y-27165
X36646Y-27165
X34600Y-900
X36600Y-900
X36646Y-13780
T2
X3937Y-14961
X3937Y-28740
X35039Y-28740
X36039Y-28740
X3937Y-1969
X35039Y-15354
X36039Y-15354
X35039Y-2362
X36039Y-2362
X3937Y-25984
T3
X7874Y-7732
X35433Y-31638
X27559Y-18515
X11811Y-31638
X23622Y-33979
X15748Y-7732
X3937Y-5392
X19685Y-5392
X23622Y-7732
X0Y-20856
X35433Y-18515
X39370Y-20856
X11811Y-5392
X31496Y-20856
X27559Y-5392
X7874Y-20856
X3937Y-31638
X0Y-7732
X27559Y-31638
X15748Y-20856
X39370Y-7732
X11811Y-18515
X23622Y-20856
X19685Y-18515
X0Y-33979
X15748Y-33979
X3937Y-18515
X19685Y-31638
X39370Y-33979
X31496Y-33979
X35433Y-5392
X7874Y-33979
X31496Y-7732
T4
X27559Y-35755
X15748Y-16739
X39370Y-3616
X11811Y-22631
X23622Y-16739
X19685Y-22631
X0Y-29862
X15748Y-29862
X3937Y-22631
X19685Y-35755
X39370Y-29862
X31496Y-29862
X35433Y-9508
X7874Y-29862
X31496Y-3616
X7874Y-3616
X35433Y-35755
X27559Y-22631
X11811Y-35755
X23622Y-29862
X15748Y-3616
X3937Y-9508
X19685Y-9508
X23622Y-3616
X0Y-16739
X35433Y-22631
X39370Y-16739
X11811Y-9508
X31496Y-16739
X27559Y-9508
X7874Y-16739
X3937Y-35755
X0Y-3616
T0
M30
