G04 #@! TF.GenerationSoftware,KiCad,Pcbnew,5.1.0-unknown-c054944~86~ubuntu19.04.1*
G04 #@! TF.CreationDate,2019-05-13T16:05:13-04:00*
G04 #@! TF.ProjectId,pack,7061636b-2e6b-4696-9361-645f70636258,rev?*
G04 #@! TF.SameCoordinates,Original*
G04 #@! TF.FileFunction,Legend,Bot*
G04 #@! TF.FilePolarity,Positive*
%FSLAX46Y46*%
G04 Gerber Fmt 4.6, Leading zero omitted, Abs format (unit mm)*
G04 Created by KiCad (PCBNEW 5.1.0-unknown-c054944~86~ubuntu19.04.1) date 2019-05-13 16:05:13*
%MOMM*%
%LPD*%
G04 APERTURE LIST*
%ADD10C,0.010000*%
G04 APERTURE END LIST*
D10*
G36*
X132681064Y-91733912D02*
G01*
X132899855Y-91712571D01*
X133112168Y-91676158D01*
X133333147Y-91622975D01*
X133428124Y-91596404D01*
X133805030Y-91460464D01*
X134158493Y-91278550D01*
X134485917Y-91053265D01*
X134784705Y-90787212D01*
X135052262Y-90482995D01*
X135285989Y-90143217D01*
X135483292Y-89770482D01*
X135636765Y-89381855D01*
X135738482Y-89010945D01*
X135807851Y-88610382D01*
X135844936Y-88191283D01*
X135849803Y-87764764D01*
X135822516Y-87341941D01*
X135763140Y-86933933D01*
X135671739Y-86551855D01*
X135619315Y-86388881D01*
X135449699Y-85976736D01*
X135244187Y-85603121D01*
X135003377Y-85268567D01*
X134727870Y-84973611D01*
X134418265Y-84718784D01*
X134075161Y-84504622D01*
X133699158Y-84331658D01*
X133290854Y-84200426D01*
X133116498Y-84159285D01*
X132974513Y-84135994D01*
X132794563Y-84116848D01*
X132590704Y-84102378D01*
X132376994Y-84093117D01*
X132167490Y-84089595D01*
X131976248Y-84092345D01*
X131817324Y-84101897D01*
X131763268Y-84108111D01*
X131320255Y-84192585D01*
X130910168Y-84318345D01*
X130533106Y-84485318D01*
X130189170Y-84693434D01*
X129878458Y-84942622D01*
X129601070Y-85232812D01*
X129357105Y-85563933D01*
X129146663Y-85935914D01*
X129122162Y-85986451D01*
X128998036Y-86268532D01*
X128901083Y-86540812D01*
X128828538Y-86815705D01*
X128777635Y-87105624D01*
X128745608Y-87422984D01*
X128730594Y-87743913D01*
X128730583Y-87754973D01*
X130130994Y-87754973D01*
X130164119Y-87383099D01*
X130231772Y-87023259D01*
X130333226Y-86682591D01*
X130467751Y-86368233D01*
X130634620Y-86087326D01*
X130684981Y-86018331D01*
X130835281Y-85853236D01*
X131024081Y-85695239D01*
X131237075Y-85553914D01*
X131459958Y-85438834D01*
X131662642Y-85364024D01*
X131950982Y-85304220D01*
X132258008Y-85282766D01*
X132565773Y-85299905D01*
X132827947Y-85348368D01*
X133126435Y-85451419D01*
X133401583Y-85600724D01*
X133650225Y-85793675D01*
X133869196Y-86027666D01*
X134055328Y-86300088D01*
X134113692Y-86407076D01*
X134237166Y-86697818D01*
X134330078Y-87022124D01*
X134392284Y-87370319D01*
X134423638Y-87732732D01*
X134423993Y-88099689D01*
X134393204Y-88461519D01*
X134331126Y-88808549D01*
X134237612Y-89131106D01*
X134157707Y-89327827D01*
X133991205Y-89631844D01*
X133792387Y-89895192D01*
X133563331Y-90116510D01*
X133306117Y-90294438D01*
X133022824Y-90427617D01*
X132715533Y-90514686D01*
X132386321Y-90554286D01*
X132278668Y-90556711D01*
X131943308Y-90532194D01*
X131628724Y-90459846D01*
X131337507Y-90341469D01*
X131072249Y-90178869D01*
X130835542Y-89973850D01*
X130629977Y-89728215D01*
X130458146Y-89443768D01*
X130358347Y-89220018D01*
X130246075Y-88871402D01*
X130171244Y-88506263D01*
X130133126Y-88131740D01*
X130130994Y-87754973D01*
X128730583Y-87754973D01*
X128730172Y-88159716D01*
X128753621Y-88536903D01*
X128802811Y-88884928D01*
X128879616Y-89213241D01*
X128985906Y-89531294D01*
X129123554Y-89848540D01*
X129163438Y-89929534D01*
X129357910Y-90261769D01*
X129593567Y-90572426D01*
X129863681Y-90854947D01*
X130161525Y-91102776D01*
X130480373Y-91309354D01*
X130686499Y-91414225D01*
X130934964Y-91519900D01*
X131168038Y-91600921D01*
X131399717Y-91660356D01*
X131643995Y-91701275D01*
X131914867Y-91726748D01*
X132163468Y-91738168D01*
X132440649Y-91741879D01*
X132681064Y-91733912D01*
X132681064Y-91733912D01*
G37*
X132681064Y-91733912D02*
X132899855Y-91712571D01*
X133112168Y-91676158D01*
X133333147Y-91622975D01*
X133428124Y-91596404D01*
X133805030Y-91460464D01*
X134158493Y-91278550D01*
X134485917Y-91053265D01*
X134784705Y-90787212D01*
X135052262Y-90482995D01*
X135285989Y-90143217D01*
X135483292Y-89770482D01*
X135636765Y-89381855D01*
X135738482Y-89010945D01*
X135807851Y-88610382D01*
X135844936Y-88191283D01*
X135849803Y-87764764D01*
X135822516Y-87341941D01*
X135763140Y-86933933D01*
X135671739Y-86551855D01*
X135619315Y-86388881D01*
X135449699Y-85976736D01*
X135244187Y-85603121D01*
X135003377Y-85268567D01*
X134727870Y-84973611D01*
X134418265Y-84718784D01*
X134075161Y-84504622D01*
X133699158Y-84331658D01*
X133290854Y-84200426D01*
X133116498Y-84159285D01*
X132974513Y-84135994D01*
X132794563Y-84116848D01*
X132590704Y-84102378D01*
X132376994Y-84093117D01*
X132167490Y-84089595D01*
X131976248Y-84092345D01*
X131817324Y-84101897D01*
X131763268Y-84108111D01*
X131320255Y-84192585D01*
X130910168Y-84318345D01*
X130533106Y-84485318D01*
X130189170Y-84693434D01*
X129878458Y-84942622D01*
X129601070Y-85232812D01*
X129357105Y-85563933D01*
X129146663Y-85935914D01*
X129122162Y-85986451D01*
X128998036Y-86268532D01*
X128901083Y-86540812D01*
X128828538Y-86815705D01*
X128777635Y-87105624D01*
X128745608Y-87422984D01*
X128730594Y-87743913D01*
X128730583Y-87754973D01*
X130130994Y-87754973D01*
X130164119Y-87383099D01*
X130231772Y-87023259D01*
X130333226Y-86682591D01*
X130467751Y-86368233D01*
X130634620Y-86087326D01*
X130684981Y-86018331D01*
X130835281Y-85853236D01*
X131024081Y-85695239D01*
X131237075Y-85553914D01*
X131459958Y-85438834D01*
X131662642Y-85364024D01*
X131950982Y-85304220D01*
X132258008Y-85282766D01*
X132565773Y-85299905D01*
X132827947Y-85348368D01*
X133126435Y-85451419D01*
X133401583Y-85600724D01*
X133650225Y-85793675D01*
X133869196Y-86027666D01*
X134055328Y-86300088D01*
X134113692Y-86407076D01*
X134237166Y-86697818D01*
X134330078Y-87022124D01*
X134392284Y-87370319D01*
X134423638Y-87732732D01*
X134423993Y-88099689D01*
X134393204Y-88461519D01*
X134331126Y-88808549D01*
X134237612Y-89131106D01*
X134157707Y-89327827D01*
X133991205Y-89631844D01*
X133792387Y-89895192D01*
X133563331Y-90116510D01*
X133306117Y-90294438D01*
X133022824Y-90427617D01*
X132715533Y-90514686D01*
X132386321Y-90554286D01*
X132278668Y-90556711D01*
X131943308Y-90532194D01*
X131628724Y-90459846D01*
X131337507Y-90341469D01*
X131072249Y-90178869D01*
X130835542Y-89973850D01*
X130629977Y-89728215D01*
X130458146Y-89443768D01*
X130358347Y-89220018D01*
X130246075Y-88871402D01*
X130171244Y-88506263D01*
X130133126Y-88131740D01*
X130130994Y-87754973D01*
X128730583Y-87754973D01*
X128730172Y-88159716D01*
X128753621Y-88536903D01*
X128802811Y-88884928D01*
X128879616Y-89213241D01*
X128985906Y-89531294D01*
X129123554Y-89848540D01*
X129163438Y-89929534D01*
X129357910Y-90261769D01*
X129593567Y-90572426D01*
X129863681Y-90854947D01*
X130161525Y-91102776D01*
X130480373Y-91309354D01*
X130686499Y-91414225D01*
X130934964Y-91519900D01*
X131168038Y-91600921D01*
X131399717Y-91660356D01*
X131643995Y-91701275D01*
X131914867Y-91726748D01*
X132163468Y-91738168D01*
X132440649Y-91741879D01*
X132681064Y-91733912D01*
G36*
X142678643Y-91652603D02*
G01*
X142938576Y-91644878D01*
X143171003Y-91630916D01*
X143367896Y-91610411D01*
X143401206Y-91605663D01*
X143850314Y-91523683D01*
X144255748Y-91418204D01*
X144622204Y-91287056D01*
X144954378Y-91128065D01*
X145256965Y-90939058D01*
X145534663Y-90717863D01*
X145731359Y-90527515D01*
X145978304Y-90233431D01*
X146184550Y-89910108D01*
X146350718Y-89555966D01*
X146477431Y-89169424D01*
X146565311Y-88748902D01*
X146614979Y-88292819D01*
X146615792Y-88280050D01*
X146626683Y-87779246D01*
X146595133Y-87307222D01*
X146521512Y-86864727D01*
X146406192Y-86452512D01*
X146249542Y-86071326D01*
X146051934Y-85721918D01*
X145813739Y-85405039D01*
X145535326Y-85121437D01*
X145217068Y-84871863D01*
X144859334Y-84657066D01*
X144811900Y-84632719D01*
X144493231Y-84488968D01*
X144160236Y-84373144D01*
X143806629Y-84284048D01*
X143426122Y-84220479D01*
X143012426Y-84181235D01*
X142559256Y-84165116D01*
X142362181Y-84164901D01*
X142187011Y-84166620D01*
X142023480Y-84168875D01*
X141881228Y-84171482D01*
X141769897Y-84174258D01*
X141699128Y-84177019D01*
X141688034Y-84177753D01*
X141360702Y-84205641D01*
X141075316Y-84233823D01*
X140834213Y-84262010D01*
X140639733Y-84289910D01*
X140494216Y-84317231D01*
X140425963Y-84334857D01*
X140419390Y-84338911D01*
X140413469Y-84348586D01*
X140408166Y-84366507D01*
X140403447Y-84395301D01*
X140399279Y-84437592D01*
X140395627Y-84496006D01*
X140392458Y-84573168D01*
X140389737Y-84671705D01*
X140387431Y-84794240D01*
X140385505Y-84943400D01*
X140383927Y-85121810D01*
X140382661Y-85332095D01*
X140381674Y-85576881D01*
X140380932Y-85858794D01*
X140380401Y-86180458D01*
X140380047Y-86544500D01*
X140379837Y-86953544D01*
X140379735Y-87410216D01*
X140379709Y-87913631D01*
X140379736Y-88420214D01*
X140379837Y-88876561D01*
X140380049Y-89285296D01*
X140380404Y-89649045D01*
X140380936Y-89970434D01*
X140381679Y-90252086D01*
X140382457Y-90444823D01*
X141754111Y-90444823D01*
X141754111Y-85349844D01*
X142342196Y-85349999D01*
X142606437Y-85352533D01*
X142837926Y-85359787D01*
X143030099Y-85371464D01*
X143176390Y-85387267D01*
X143181484Y-85388024D01*
X143551471Y-85465299D01*
X143884205Y-85579997D01*
X144179743Y-85732181D01*
X144438142Y-85921916D01*
X144659458Y-86149268D01*
X144843746Y-86414300D01*
X144991063Y-86717077D01*
X145101465Y-87057665D01*
X145175008Y-87436127D01*
X145204011Y-87715400D01*
X145209514Y-88006850D01*
X145187798Y-88311403D01*
X145141312Y-88615153D01*
X145072506Y-88904193D01*
X144983831Y-89164614D01*
X144925972Y-89293639D01*
X144761314Y-89571932D01*
X144563133Y-89811828D01*
X144330172Y-90014142D01*
X144061171Y-90179693D01*
X143754871Y-90309298D01*
X143410016Y-90403774D01*
X143146423Y-90449250D01*
X143060583Y-90457409D01*
X142938451Y-90464265D01*
X142789735Y-90469735D01*
X142624142Y-90473734D01*
X142451379Y-90476180D01*
X142281154Y-90476987D01*
X142123173Y-90476073D01*
X141987145Y-90473353D01*
X141882777Y-90468743D01*
X141819776Y-90462160D01*
X141813580Y-90460760D01*
X141754111Y-90444823D01*
X140382457Y-90444823D01*
X140382667Y-90496628D01*
X140383935Y-90706685D01*
X140385515Y-90884881D01*
X140387443Y-91033843D01*
X140389751Y-91156194D01*
X140392475Y-91254561D01*
X140395647Y-91331568D01*
X140399301Y-91389841D01*
X140403473Y-91432005D01*
X140408194Y-91460684D01*
X140413501Y-91478505D01*
X140419426Y-91488092D01*
X140425963Y-91492059D01*
X140572225Y-91526670D01*
X140763227Y-91557803D01*
X140990940Y-91585151D01*
X141247338Y-91608409D01*
X141524394Y-91627269D01*
X141814079Y-91641425D01*
X142108367Y-91650570D01*
X142399231Y-91654399D01*
X142678643Y-91652603D01*
X142678643Y-91652603D01*
G37*
X142678643Y-91652603D02*
X142938576Y-91644878D01*
X143171003Y-91630916D01*
X143367896Y-91610411D01*
X143401206Y-91605663D01*
X143850314Y-91523683D01*
X144255748Y-91418204D01*
X144622204Y-91287056D01*
X144954378Y-91128065D01*
X145256965Y-90939058D01*
X145534663Y-90717863D01*
X145731359Y-90527515D01*
X145978304Y-90233431D01*
X146184550Y-89910108D01*
X146350718Y-89555966D01*
X146477431Y-89169424D01*
X146565311Y-88748902D01*
X146614979Y-88292819D01*
X146615792Y-88280050D01*
X146626683Y-87779246D01*
X146595133Y-87307222D01*
X146521512Y-86864727D01*
X146406192Y-86452512D01*
X146249542Y-86071326D01*
X146051934Y-85721918D01*
X145813739Y-85405039D01*
X145535326Y-85121437D01*
X145217068Y-84871863D01*
X144859334Y-84657066D01*
X144811900Y-84632719D01*
X144493231Y-84488968D01*
X144160236Y-84373144D01*
X143806629Y-84284048D01*
X143426122Y-84220479D01*
X143012426Y-84181235D01*
X142559256Y-84165116D01*
X142362181Y-84164901D01*
X142187011Y-84166620D01*
X142023480Y-84168875D01*
X141881228Y-84171482D01*
X141769897Y-84174258D01*
X141699128Y-84177019D01*
X141688034Y-84177753D01*
X141360702Y-84205641D01*
X141075316Y-84233823D01*
X140834213Y-84262010D01*
X140639733Y-84289910D01*
X140494216Y-84317231D01*
X140425963Y-84334857D01*
X140419390Y-84338911D01*
X140413469Y-84348586D01*
X140408166Y-84366507D01*
X140403447Y-84395301D01*
X140399279Y-84437592D01*
X140395627Y-84496006D01*
X140392458Y-84573168D01*
X140389737Y-84671705D01*
X140387431Y-84794240D01*
X140385505Y-84943400D01*
X140383927Y-85121810D01*
X140382661Y-85332095D01*
X140381674Y-85576881D01*
X140380932Y-85858794D01*
X140380401Y-86180458D01*
X140380047Y-86544500D01*
X140379837Y-86953544D01*
X140379735Y-87410216D01*
X140379709Y-87913631D01*
X140379736Y-88420214D01*
X140379837Y-88876561D01*
X140380049Y-89285296D01*
X140380404Y-89649045D01*
X140380936Y-89970434D01*
X140381679Y-90252086D01*
X140382457Y-90444823D01*
X141754111Y-90444823D01*
X141754111Y-85349844D01*
X142342196Y-85349999D01*
X142606437Y-85352533D01*
X142837926Y-85359787D01*
X143030099Y-85371464D01*
X143176390Y-85387267D01*
X143181484Y-85388024D01*
X143551471Y-85465299D01*
X143884205Y-85579997D01*
X144179743Y-85732181D01*
X144438142Y-85921916D01*
X144659458Y-86149268D01*
X144843746Y-86414300D01*
X144991063Y-86717077D01*
X145101465Y-87057665D01*
X145175008Y-87436127D01*
X145204011Y-87715400D01*
X145209514Y-88006850D01*
X145187798Y-88311403D01*
X145141312Y-88615153D01*
X145072506Y-88904193D01*
X144983831Y-89164614D01*
X144925972Y-89293639D01*
X144761314Y-89571932D01*
X144563133Y-89811828D01*
X144330172Y-90014142D01*
X144061171Y-90179693D01*
X143754871Y-90309298D01*
X143410016Y-90403774D01*
X143146423Y-90449250D01*
X143060583Y-90457409D01*
X142938451Y-90464265D01*
X142789735Y-90469735D01*
X142624142Y-90473734D01*
X142451379Y-90476180D01*
X142281154Y-90476987D01*
X142123173Y-90476073D01*
X141987145Y-90473353D01*
X141882777Y-90468743D01*
X141819776Y-90462160D01*
X141813580Y-90460760D01*
X141754111Y-90444823D01*
X140382457Y-90444823D01*
X140382667Y-90496628D01*
X140383935Y-90706685D01*
X140385515Y-90884881D01*
X140387443Y-91033843D01*
X140389751Y-91156194D01*
X140392475Y-91254561D01*
X140395647Y-91331568D01*
X140399301Y-91389841D01*
X140403473Y-91432005D01*
X140408194Y-91460684D01*
X140413501Y-91478505D01*
X140419426Y-91488092D01*
X140425963Y-91492059D01*
X140572225Y-91526670D01*
X140763227Y-91557803D01*
X140990940Y-91585151D01*
X141247338Y-91608409D01*
X141524394Y-91627269D01*
X141814079Y-91641425D01*
X142108367Y-91650570D01*
X142399231Y-91654399D01*
X142678643Y-91652603D01*
G36*
X111887305Y-90424557D02*
G01*
X108504163Y-90424557D01*
X108504163Y-88653694D01*
X111517274Y-88653694D01*
X111517274Y-87517169D01*
X108504163Y-87517169D01*
X108504163Y-85402705D01*
X112125183Y-85402705D01*
X112125183Y-84239750D01*
X107129761Y-84239750D01*
X107129761Y-91587513D01*
X111887305Y-91587513D01*
X111887305Y-90424557D01*
X111887305Y-90424557D01*
G37*
X111887305Y-90424557D02*
X108504163Y-90424557D01*
X108504163Y-88653694D01*
X111517274Y-88653694D01*
X111517274Y-87517169D01*
X108504163Y-87517169D01*
X108504163Y-85402705D01*
X112125183Y-85402705D01*
X112125183Y-84239750D01*
X107129761Y-84239750D01*
X107129761Y-91587513D01*
X111887305Y-91587513D01*
X111887305Y-90424557D01*
G36*
X114774419Y-91237305D02*
G01*
X115060459Y-90903691D01*
X115368074Y-90529784D01*
X115692911Y-90121358D01*
X116030617Y-89684187D01*
X116376840Y-89224044D01*
X116727225Y-88746702D01*
X117077421Y-88257936D01*
X117423074Y-87763518D01*
X117707290Y-87347231D01*
X118098544Y-86767615D01*
X118098544Y-91587513D01*
X119446514Y-91587513D01*
X119446514Y-84239750D01*
X118282258Y-84239750D01*
X118210224Y-84360997D01*
X118137512Y-84481093D01*
X118040322Y-84638167D01*
X117923242Y-84825043D01*
X117790857Y-85034546D01*
X117647756Y-85259499D01*
X117498524Y-85492725D01*
X117347748Y-85727050D01*
X117200016Y-85955296D01*
X117059914Y-86170289D01*
X116932029Y-86364851D01*
X116860399Y-86472804D01*
X116460187Y-87063900D01*
X116063731Y-87631069D01*
X115675449Y-88168203D01*
X115299754Y-88669190D01*
X114942660Y-89125930D01*
X114702186Y-89426367D01*
X114695448Y-86833058D01*
X114688711Y-84239750D01*
X113340999Y-84239750D01*
X113340999Y-91587513D01*
X114466636Y-91587513D01*
X114774419Y-91237305D01*
X114774419Y-91237305D01*
G37*
X114774419Y-91237305D02*
X115060459Y-90903691D01*
X115368074Y-90529784D01*
X115692911Y-90121358D01*
X116030617Y-89684187D01*
X116376840Y-89224044D01*
X116727225Y-88746702D01*
X117077421Y-88257936D01*
X117423074Y-87763518D01*
X117707290Y-87347231D01*
X118098544Y-86767615D01*
X118098544Y-91587513D01*
X119446514Y-91587513D01*
X119446514Y-84239750D01*
X118282258Y-84239750D01*
X118210224Y-84360997D01*
X118137512Y-84481093D01*
X118040322Y-84638167D01*
X117923242Y-84825043D01*
X117790857Y-85034546D01*
X117647756Y-85259499D01*
X117498524Y-85492725D01*
X117347748Y-85727050D01*
X117200016Y-85955296D01*
X117059914Y-86170289D01*
X116932029Y-86364851D01*
X116860399Y-86472804D01*
X116460187Y-87063900D01*
X116063731Y-87631069D01*
X115675449Y-88168203D01*
X115299754Y-88669190D01*
X114942660Y-89125930D01*
X114702186Y-89426367D01*
X114695448Y-86833058D01*
X114688711Y-84239750D01*
X113340999Y-84239750D01*
X113340999Y-91587513D01*
X114466636Y-91587513D01*
X114774419Y-91237305D01*
G36*
X122504273Y-91356243D02*
G01*
X122723371Y-91108125D01*
X122956494Y-90832993D01*
X123206251Y-90527589D01*
X123475246Y-90188654D01*
X123766087Y-89812932D01*
X124081380Y-89397163D01*
X124226500Y-89203414D01*
X124351840Y-89034006D01*
X124491773Y-88842273D01*
X124642288Y-88633921D01*
X124799379Y-88414651D01*
X124959034Y-88190169D01*
X125117246Y-87966176D01*
X125270006Y-87748378D01*
X125413304Y-87542477D01*
X125543132Y-87354178D01*
X125655481Y-87189183D01*
X125746341Y-87053196D01*
X125811705Y-86951921D01*
X125829999Y-86922097D01*
X125908845Y-86790322D01*
X125915593Y-89188917D01*
X125922340Y-91587513D01*
X127270032Y-91587513D01*
X127270032Y-84239750D01*
X126119238Y-84239750D01*
X126002580Y-84431373D01*
X125821190Y-84725783D01*
X125615852Y-85052911D01*
X125393286Y-85402421D01*
X125160212Y-85763975D01*
X124923349Y-86127235D01*
X124689419Y-86481864D01*
X124465141Y-86817525D01*
X124257234Y-87123880D01*
X124168429Y-87252861D01*
X124062622Y-87403536D01*
X123934940Y-87581822D01*
X123790658Y-87780641D01*
X123635053Y-87992913D01*
X123473398Y-88211561D01*
X123310970Y-88429505D01*
X123153043Y-88639665D01*
X123004893Y-88834963D01*
X122871795Y-89008321D01*
X122759025Y-89152658D01*
X122673686Y-89258682D01*
X122512487Y-89453993D01*
X122512487Y-84239750D01*
X121164517Y-84239750D01*
X121164517Y-91587513D01*
X122295321Y-91587513D01*
X122504273Y-91356243D01*
X122504273Y-91356243D01*
G37*
X122504273Y-91356243D02*
X122723371Y-91108125D01*
X122956494Y-90832993D01*
X123206251Y-90527589D01*
X123475246Y-90188654D01*
X123766087Y-89812932D01*
X124081380Y-89397163D01*
X124226500Y-89203414D01*
X124351840Y-89034006D01*
X124491773Y-88842273D01*
X124642288Y-88633921D01*
X124799379Y-88414651D01*
X124959034Y-88190169D01*
X125117246Y-87966176D01*
X125270006Y-87748378D01*
X125413304Y-87542477D01*
X125543132Y-87354178D01*
X125655481Y-87189183D01*
X125746341Y-87053196D01*
X125811705Y-86951921D01*
X125829999Y-86922097D01*
X125908845Y-86790322D01*
X125915593Y-89188917D01*
X125922340Y-91587513D01*
X127270032Y-91587513D01*
X127270032Y-84239750D01*
X126119238Y-84239750D01*
X126002580Y-84431373D01*
X125821190Y-84725783D01*
X125615852Y-85052911D01*
X125393286Y-85402421D01*
X125160212Y-85763975D01*
X124923349Y-86127235D01*
X124689419Y-86481864D01*
X124465141Y-86817525D01*
X124257234Y-87123880D01*
X124168429Y-87252861D01*
X124062622Y-87403536D01*
X123934940Y-87581822D01*
X123790658Y-87780641D01*
X123635053Y-87992913D01*
X123473398Y-88211561D01*
X123310970Y-88429505D01*
X123153043Y-88639665D01*
X123004893Y-88834963D01*
X122871795Y-89008321D01*
X122759025Y-89152658D01*
X122673686Y-89258682D01*
X122512487Y-89453993D01*
X122512487Y-84239750D01*
X121164517Y-84239750D01*
X121164517Y-91587513D01*
X122295321Y-91587513D01*
X122504273Y-91356243D01*
G36*
X138635276Y-84239750D02*
G01*
X137287305Y-84239750D01*
X137287305Y-91587513D01*
X138635276Y-91587513D01*
X138635276Y-84239750D01*
X138635276Y-84239750D01*
G37*
X138635276Y-84239750D02*
X137287305Y-84239750D01*
X137287305Y-91587513D01*
X138635276Y-91587513D01*
X138635276Y-84239750D01*
M02*
