G04 #@! TF.GenerationSoftware,KiCad,Pcbnew,6.0.0-rc1-unknown-5edf350~66~ubuntu18.10.1*
G04 #@! TF.CreationDate,2019-02-07T09:33:03-05:00
G04 #@! TF.ProjectId,Pack,5061636b-2e6b-4696-9361-645f70636258,rev?*
G04 #@! TF.SameCoordinates,Original*
G04 #@! TF.FileFunction,Legend,Top*
G04 #@! TF.FilePolarity,Positive*
%FSLAX46Y46*%
G04 Gerber Fmt 4.6, Leading zero omitted, Abs format (unit mm)*
G04 Created by KiCad (PCBNEW 6.0.0-rc1-unknown-5edf350~66~ubuntu18.10.1) date 2019-02-07 09:33:03*
%MOMM*%
%LPD*%
G04 APERTURE LIST*
%ADD10C,0.120000*%
%ADD11C,0.150000*%
G04 APERTURE END LIST*
D10*
X89410000Y-65750000D02*
G75*
G03X89410000Y-65750000I-1660000J0D01*
G01*
X89410000Y-65750000D02*
X91730000Y-65750000D01*
X89660000Y-32250000D02*
G75*
G03X89660000Y-32250000I-1660000J0D01*
G01*
X89660000Y-32250000D02*
X91980000Y-32250000D01*
X67130000Y-64420000D02*
X67130000Y-67080000D01*
X69730000Y-64420000D02*
X67130000Y-64420000D01*
X69730000Y-67080000D02*
X67130000Y-67080000D01*
X69730000Y-64420000D02*
X69730000Y-67080000D01*
X71000000Y-64420000D02*
X72330000Y-64420000D01*
X72330000Y-64420000D02*
X72330000Y-65750000D01*
X67380000Y-30920000D02*
X67380000Y-33580000D01*
X69980000Y-30920000D02*
X67380000Y-30920000D01*
X69980000Y-33580000D02*
X67380000Y-33580000D01*
X69980000Y-30920000D02*
X69980000Y-33580000D01*
X71250000Y-30920000D02*
X72580000Y-30920000D01*
X72580000Y-30920000D02*
X72580000Y-32250000D01*
D11*
X89004285Y-62542380D02*
X89575714Y-62542380D01*
X89290000Y-63542380D02*
X89290000Y-62542380D01*
X89909047Y-63542380D02*
X89909047Y-62542380D01*
X89909047Y-63018571D02*
X90480476Y-63018571D01*
X90480476Y-63542380D02*
X90480476Y-62542380D01*
X91480476Y-63542380D02*
X90909047Y-63542380D01*
X91194761Y-63542380D02*
X91194761Y-62542380D01*
X91099523Y-62685238D01*
X91004285Y-62780476D01*
X90909047Y-62828095D01*
X89254285Y-29042380D02*
X89825714Y-29042380D01*
X89540000Y-30042380D02*
X89540000Y-29042380D01*
X90159047Y-30042380D02*
X90159047Y-29042380D01*
X90159047Y-29518571D02*
X90730476Y-29518571D01*
X90730476Y-30042380D02*
X90730476Y-29042380D01*
X91111428Y-29042380D02*
X91730476Y-29042380D01*
X91397142Y-29423333D01*
X91540000Y-29423333D01*
X91635238Y-29470952D01*
X91682857Y-29518571D01*
X91730476Y-29613809D01*
X91730476Y-29851904D01*
X91682857Y-29947142D01*
X91635238Y-29994761D01*
X91540000Y-30042380D01*
X91254285Y-30042380D01*
X91159047Y-29994761D01*
X91111428Y-29947142D01*
X72782380Y-66083333D02*
X73496666Y-66083333D01*
X73639523Y-66130952D01*
X73734761Y-66226190D01*
X73782380Y-66369047D01*
X73782380Y-66464285D01*
X72782380Y-65702380D02*
X72782380Y-65035714D01*
X73782380Y-65464285D01*
X73032380Y-32583333D02*
X73746666Y-32583333D01*
X73889523Y-32630952D01*
X73984761Y-32726190D01*
X74032380Y-32869047D01*
X74032380Y-32964285D01*
X73460952Y-31964285D02*
X73413333Y-32059523D01*
X73365714Y-32107142D01*
X73270476Y-32154761D01*
X73222857Y-32154761D01*
X73127619Y-32107142D01*
X73080000Y-32059523D01*
X73032380Y-31964285D01*
X73032380Y-31773809D01*
X73080000Y-31678571D01*
X73127619Y-31630952D01*
X73222857Y-31583333D01*
X73270476Y-31583333D01*
X73365714Y-31630952D01*
X73413333Y-31678571D01*
X73460952Y-31773809D01*
X73460952Y-31964285D01*
X73508571Y-32059523D01*
X73556190Y-32107142D01*
X73651428Y-32154761D01*
X73841904Y-32154761D01*
X73937142Y-32107142D01*
X73984761Y-32059523D01*
X74032380Y-31964285D01*
X74032380Y-31773809D01*
X73984761Y-31678571D01*
X73937142Y-31630952D01*
X73841904Y-31583333D01*
X73651428Y-31583333D01*
X73556190Y-31630952D01*
X73508571Y-31678571D01*
X73460952Y-31773809D01*
M02*
