G04 #@! TF.GenerationSoftware,KiCad,Pcbnew,(5.1.0-1152-gc9ccd8a64)*
G04 #@! TF.CreationDate,2019-07-16T09:28:44-04:00*
G04 #@! TF.ProjectId,Pack,5061636b-2e6b-4696-9361-645f70636258,rev?*
G04 #@! TF.SameCoordinates,Original*
G04 #@! TF.FileFunction,Copper,L2,Bot*
G04 #@! TF.FilePolarity,Positive*
%FSLAX46Y46*%
G04 Gerber Fmt 4.6, Leading zero omitted, Abs format (unit mm)*
G04 Created by KiCad (PCBNEW (5.1.0-1152-gc9ccd8a64)) date 2019-07-16 09:28:44*
%MOMM*%
%LPD*%
G04 APERTURE LIST*
%ADD10C,6.000000*%
%ADD11R,2.000000X2.600000*%
%ADD12O,2.000000X2.600000*%
%ADD13R,1.700000X1.700000*%
%ADD14O,1.700000X1.700000*%
%ADD15C,0.800000*%
%ADD16C,0.250000*%
%ADD17C,0.254000*%
G04 APERTURE END LIST*
D10*
X240500000Y-59861000D03*
X240500000Y-93635000D03*
X240500000Y-127409000D03*
X240500000Y-161183000D03*
X240500000Y-26097000D03*
X5500000Y-110532000D03*
X5500000Y-76758000D03*
X5500000Y-42984000D03*
X5500000Y-9210000D03*
X5500000Y-144296000D03*
D11*
X157500000Y-178500000D03*
D12*
X154960000Y-178500000D03*
X152420000Y-178500000D03*
X149880000Y-178500000D03*
X147340000Y-178500000D03*
X144800000Y-178500000D03*
X142260000Y-178500000D03*
X139720000Y-178500000D03*
X137180000Y-178500000D03*
X134640000Y-178500000D03*
X132100000Y-178500000D03*
X129560000Y-178500000D03*
X127020000Y-178500000D03*
D13*
X102000000Y-184000000D03*
D14*
X104540000Y-184000000D03*
X107080000Y-184000000D03*
X109620000Y-184000000D03*
D11*
X84100000Y-184000000D03*
D12*
X86640000Y-184000000D03*
X89180000Y-184000000D03*
X91720000Y-184000000D03*
D13*
X127000000Y-184000000D03*
D14*
X129540000Y-184000000D03*
X132080000Y-184000000D03*
X134620000Y-184000000D03*
X137160000Y-184000000D03*
X139700000Y-184000000D03*
X142240000Y-184000000D03*
X144780000Y-184000000D03*
X147320000Y-184000000D03*
X149860000Y-184000000D03*
X152400000Y-184000000D03*
X154940000Y-184000000D03*
X157480000Y-184000000D03*
D15*
X169686204Y-172867514D03*
X169495583Y-173849190D03*
X150266400Y-173399179D03*
X172895253Y-172793661D03*
X172262800Y-173964600D03*
X118371335Y-181871335D03*
X103682800Y-176758600D03*
X122631200Y-186309000D03*
X121793032Y-186309000D03*
X86109892Y-172713379D03*
X95808800Y-184886600D03*
X95859600Y-183870600D03*
X118211600Y-185293000D03*
X118033800Y-177419000D03*
X118186200Y-183515000D03*
X116433600Y-180340000D03*
X98831400Y-176592390D03*
X98867224Y-179006840D03*
X98362716Y-178143420D03*
X97586676Y-177418410D03*
X102874738Y-177303590D03*
X116105821Y-176693990D03*
X116408200Y-175590200D03*
X116382800Y-173964600D03*
X87749677Y-170778998D03*
X85260465Y-174632335D03*
X90907527Y-173170579D03*
X88830421Y-172665767D03*
X88757011Y-170763143D03*
X92974571Y-181481599D03*
X93289530Y-179560472D03*
X93358251Y-180558120D03*
X93345000Y-178562000D03*
X133044556Y-172276610D03*
X134233660Y-172378210D03*
X148336000Y-172821600D03*
X105765600Y-177012600D03*
X107162600Y-177038000D03*
X100135384Y-172892324D03*
X101212581Y-172892324D03*
D16*
X126212200Y-173224167D02*
X133387703Y-173224167D01*
X167905901Y-171087211D02*
X169286205Y-172467515D01*
X133833661Y-172778209D02*
X134233660Y-172378210D01*
X126585000Y-174124189D02*
X168654899Y-174124189D01*
X169286205Y-172467515D02*
X169686204Y-172867514D01*
X118186200Y-183515000D02*
X119354600Y-182346600D01*
X119354600Y-182346600D02*
X119354600Y-181354589D01*
X168929898Y-173849190D02*
X169495583Y-173849190D01*
X100412812Y-178594012D02*
X118933123Y-178594012D01*
X99237210Y-177418410D02*
X100412812Y-178594012D01*
X118933123Y-178594012D02*
X126439924Y-171087211D01*
X168654899Y-174124189D02*
X168929898Y-173849190D01*
X118371335Y-181871335D02*
X118771334Y-181471336D01*
X133387703Y-173224167D02*
X133833661Y-172778209D01*
X119096368Y-180340000D02*
X126212200Y-173224167D01*
X126398600Y-173674178D02*
X149425716Y-173674178D01*
X118771334Y-181301444D02*
X126398600Y-173674178D01*
X116433600Y-180340000D02*
X119096368Y-180340000D01*
X118211600Y-185293000D02*
X119804611Y-183699989D01*
X118771334Y-181471336D02*
X118771334Y-181301444D01*
X149700715Y-173399179D02*
X150266400Y-173399179D01*
X119354600Y-181354589D02*
X126585000Y-174124189D01*
X126439924Y-171087211D02*
X167905901Y-171087211D01*
X97586676Y-177418410D02*
X99237210Y-177418410D01*
X149425716Y-173674178D02*
X149700715Y-173399179D01*
X119804611Y-183699989D02*
X119804611Y-181540989D01*
X119804611Y-181540989D02*
X126771400Y-174574200D01*
X126771400Y-174574200D02*
X171653200Y-174574200D01*
X171653200Y-174574200D02*
X171862801Y-174364599D01*
X171862801Y-174364599D02*
X172262800Y-173964600D01*
X118746723Y-178144001D02*
X126253524Y-170637200D01*
X126253524Y-170637200D02*
X170738792Y-170637200D01*
X100948696Y-178144001D02*
X118746723Y-178144001D01*
X99397085Y-176592390D02*
X100948696Y-178144001D01*
X170738792Y-170637200D02*
X172495254Y-172393662D01*
X172495254Y-172393662D02*
X172895253Y-172793661D01*
X98831400Y-176592390D02*
X99397085Y-176592390D01*
X133044556Y-172276610D02*
X126523347Y-172276610D01*
X126523347Y-172276610D02*
X119298157Y-179501800D01*
X119298157Y-179501800D02*
X99362184Y-179501800D01*
X99362184Y-179501800D02*
X99267223Y-179406839D01*
X99267223Y-179406839D02*
X98867224Y-179006840D01*
X99276420Y-178143420D02*
X98928401Y-178143420D01*
X98928401Y-178143420D02*
X98362716Y-178143420D01*
X119118946Y-179044600D02*
X100177600Y-179044600D01*
X126611946Y-171551600D02*
X119118946Y-179044600D01*
X100177600Y-179044600D02*
X99276420Y-178143420D01*
X147066000Y-171551600D02*
X126611946Y-171551600D01*
X148336000Y-172821600D02*
X147066000Y-171551600D01*
X92792566Y-180558120D02*
X86109892Y-173875446D01*
X93358251Y-180558120D02*
X92792566Y-180558120D01*
X86109892Y-173279064D02*
X86109892Y-172713379D01*
X86109892Y-173875446D02*
X86109892Y-173279064D01*
X97586809Y-177418543D02*
X97586676Y-177418410D01*
X97586809Y-177603667D02*
X97586809Y-177418543D01*
X87349678Y-174186305D02*
X87349678Y-171178997D01*
X93289530Y-179560472D02*
X92723845Y-179560472D01*
X87349678Y-171178997D02*
X87749677Y-170778998D01*
X92723845Y-179560472D02*
X87349678Y-174186305D01*
X92974571Y-181481599D02*
X92109729Y-181481599D01*
X85660464Y-175032334D02*
X85260465Y-174632335D01*
X92109729Y-181481599D02*
X85660464Y-175032334D01*
X132100000Y-178500000D02*
X132100000Y-178200000D01*
X134640000Y-178200000D02*
X134640000Y-178500000D01*
X129560000Y-178200000D02*
X129560000Y-178500000D01*
X126193000Y-177673000D02*
X127020000Y-178500000D01*
X114985800Y-177419000D02*
X110859123Y-173292323D01*
X118033800Y-177419000D02*
X114985800Y-177419000D01*
X110859123Y-173292323D02*
X101612580Y-173292323D01*
X101612580Y-173292323D02*
X101212581Y-172892324D01*
X115705822Y-176293991D02*
X116105821Y-176693990D01*
X111928631Y-172516800D02*
X115705822Y-176293991D01*
X108305600Y-172516800D02*
X111928631Y-172516800D01*
X107956122Y-172167322D02*
X108305600Y-172516800D01*
X93897678Y-172167322D02*
X107956122Y-172167322D01*
X93709015Y-171717311D02*
X91530737Y-173895589D01*
X90060243Y-173895589D02*
X89230420Y-173065766D01*
X91719400Y-174345600D02*
X93897678Y-172167322D01*
X89230420Y-173065766D02*
X88830421Y-172665767D01*
X116382800Y-173964600D02*
X113685500Y-171267300D01*
X92810806Y-171267300D02*
X91307526Y-172770580D01*
X116408200Y-175590200D02*
X112535311Y-171717311D01*
X91530737Y-173895589D02*
X90060243Y-173895589D01*
X112535311Y-171717311D02*
X93709015Y-171717311D01*
X88105411Y-173754211D02*
X88696800Y-174345600D01*
X88757011Y-170763143D02*
X88757011Y-171328828D01*
X113685500Y-171267300D02*
X92810806Y-171267300D01*
X88757011Y-171328828D02*
X88105411Y-171980428D01*
X88105411Y-171980428D02*
X88105411Y-173754211D01*
X91307526Y-172770580D02*
X90907527Y-173170579D01*
X88696800Y-174345600D02*
X91719400Y-174345600D01*
X99735385Y-173292323D02*
X100135384Y-172892324D01*
X94677677Y-173292323D02*
X99735385Y-173292323D01*
X93345000Y-178562000D02*
X93345000Y-174625000D01*
X93345000Y-174625000D02*
X94677677Y-173292323D01*
D17*
G36*
X86939695Y-170136582D02*
G01*
X86919513Y-170162885D01*
X86801026Y-170368111D01*
X86788338Y-170398741D01*
X86727004Y-170627641D01*
X86722677Y-170660511D01*
X86722677Y-170753137D01*
X86706513Y-170784861D01*
X86683113Y-170817068D01*
X86665073Y-170852473D01*
X86652771Y-170890337D01*
X86634703Y-170925796D01*
X86622423Y-170963588D01*
X86616196Y-171002903D01*
X86603895Y-171040762D01*
X86597679Y-171080008D01*
X86597679Y-171809126D01*
X86520779Y-171764728D01*
X86490149Y-171752040D01*
X86261249Y-171690706D01*
X86228379Y-171686379D01*
X85991405Y-171686379D01*
X85958535Y-171690706D01*
X85729635Y-171752040D01*
X85699005Y-171764728D01*
X85493779Y-171883215D01*
X85467476Y-171903397D01*
X85299910Y-172070963D01*
X85279728Y-172097266D01*
X85161241Y-172302492D01*
X85148553Y-172333122D01*
X85087219Y-172562022D01*
X85082892Y-172594892D01*
X85082892Y-172831866D01*
X85087219Y-172864736D01*
X85148553Y-173093636D01*
X85161241Y-173124266D01*
X85279728Y-173329492D01*
X85299910Y-173355795D01*
X85357892Y-173413777D01*
X85357892Y-173605335D01*
X85141978Y-173605335D01*
X85109108Y-173609662D01*
X84880208Y-173670996D01*
X84849578Y-173683684D01*
X84644352Y-173802171D01*
X84618049Y-173822353D01*
X84450483Y-173989919D01*
X84430301Y-174016222D01*
X84311814Y-174221448D01*
X84299126Y-174252078D01*
X84237792Y-174480978D01*
X84233465Y-174513848D01*
X84233465Y-174750822D01*
X84237792Y-174783692D01*
X84299126Y-175012592D01*
X84311814Y-175043222D01*
X84430301Y-175248448D01*
X84450483Y-175274751D01*
X84618049Y-175442317D01*
X84644352Y-175462499D01*
X84849578Y-175580986D01*
X84880208Y-175593674D01*
X85109108Y-175655008D01*
X85141978Y-175659335D01*
X85223976Y-175659335D01*
X91612762Y-182048122D01*
X91612770Y-182048129D01*
X91647981Y-182083340D01*
X91680127Y-182106695D01*
X91715595Y-182124767D01*
X91747800Y-182148165D01*
X91783202Y-182166203D01*
X91821060Y-182178504D01*
X91852837Y-182194695D01*
X91847000Y-182212475D01*
X91847000Y-183746000D01*
X91867161Y-183814661D01*
X91921242Y-183861523D01*
X91974000Y-183873000D01*
X93228000Y-183873000D01*
X93296661Y-183852839D01*
X93343523Y-183798758D01*
X93355000Y-183746000D01*
X93355000Y-183639038D01*
X93354591Y-183628853D01*
X93340034Y-183447930D01*
X93336777Y-183427821D01*
X93278893Y-183192159D01*
X93272463Y-183172830D01*
X93262773Y-183150000D01*
X100515287Y-183150000D01*
X100515287Y-184850000D01*
X100519614Y-184882870D01*
X100587635Y-185136727D01*
X100613020Y-185185491D01*
X100726360Y-185320565D01*
X100760148Y-185348916D01*
X100912852Y-185437079D01*
X100954299Y-185452165D01*
X101127947Y-185482784D01*
X101150000Y-185484713D01*
X102850000Y-185484713D01*
X102882870Y-185480386D01*
X103136727Y-185412365D01*
X103185491Y-185386980D01*
X103320565Y-185273640D01*
X103348916Y-185239852D01*
X103437079Y-185087148D01*
X103452165Y-185045701D01*
X103458872Y-185007665D01*
X103579120Y-185127913D01*
X103596079Y-185142142D01*
X103789578Y-185277632D01*
X103808750Y-185288701D01*
X104022837Y-185388531D01*
X104043639Y-185396103D01*
X104271810Y-185457241D01*
X104293611Y-185461085D01*
X104469998Y-185476517D01*
X104481067Y-185477000D01*
X104598933Y-185477000D01*
X104610002Y-185476517D01*
X104786389Y-185461085D01*
X104808190Y-185457241D01*
X105036361Y-185396103D01*
X105057163Y-185388531D01*
X105271250Y-185288701D01*
X105290422Y-185277632D01*
X105483921Y-185142142D01*
X105500880Y-185127913D01*
X105667913Y-184960880D01*
X105682142Y-184943921D01*
X105810000Y-184761322D01*
X105937858Y-184943921D01*
X105952087Y-184960880D01*
X106119120Y-185127913D01*
X106136079Y-185142142D01*
X106329578Y-185277632D01*
X106348750Y-185288701D01*
X106562837Y-185388531D01*
X106583639Y-185396103D01*
X106811810Y-185457241D01*
X106833611Y-185461085D01*
X107009998Y-185476517D01*
X107021067Y-185477000D01*
X107138933Y-185477000D01*
X107150002Y-185476517D01*
X107326389Y-185461085D01*
X107348190Y-185457241D01*
X107576361Y-185396103D01*
X107597163Y-185388531D01*
X107811250Y-185288701D01*
X107830422Y-185277632D01*
X108023921Y-185142142D01*
X108040880Y-185127913D01*
X108207913Y-184960880D01*
X108222142Y-184943921D01*
X108347282Y-184765204D01*
X108410209Y-184868905D01*
X108422862Y-184886257D01*
X108573906Y-185060320D01*
X108589302Y-185075292D01*
X108767515Y-185221417D01*
X108785213Y-185233580D01*
X108985498Y-185347589D01*
X109004993Y-185356597D01*
X109221624Y-185435230D01*
X109248269Y-185441750D01*
X109349313Y-185455143D01*
X109420028Y-185444179D01*
X109473589Y-185396724D01*
X109493000Y-185329244D01*
X109493000Y-184254000D01*
X109747000Y-184254000D01*
X109747000Y-185337100D01*
X109767161Y-185405761D01*
X109821242Y-185452623D01*
X109905905Y-185460027D01*
X110104610Y-185408454D01*
X110124866Y-185401321D01*
X110334992Y-185306666D01*
X110353757Y-185296222D01*
X110544930Y-185167517D01*
X110561666Y-185154060D01*
X110728420Y-184994984D01*
X110742650Y-184978901D01*
X110880218Y-184794003D01*
X110891534Y-184775751D01*
X110995982Y-184570317D01*
X111004062Y-184550420D01*
X111072403Y-184330326D01*
X111077014Y-184309353D01*
X111082139Y-184270688D01*
X111071175Y-184199973D01*
X111023720Y-184146411D01*
X110956240Y-184127000D01*
X109874000Y-184127000D01*
X109805339Y-184147161D01*
X109758477Y-184201242D01*
X109747000Y-184254000D01*
X109493000Y-184254000D01*
X109493000Y-182670756D01*
X109747000Y-182670756D01*
X109747000Y-183746000D01*
X109767161Y-183814661D01*
X109821242Y-183861523D01*
X109874000Y-183873000D01*
X110954306Y-183873000D01*
X111022967Y-183852839D01*
X111069829Y-183798758D01*
X111078599Y-183719921D01*
X111049718Y-183582275D01*
X111043547Y-183561705D01*
X110958896Y-183347354D01*
X110949348Y-183328119D01*
X110829791Y-183131095D01*
X110817138Y-183113743D01*
X110666094Y-182939680D01*
X110650698Y-182924708D01*
X110472485Y-182778583D01*
X110454787Y-182766420D01*
X110254502Y-182652411D01*
X110235007Y-182643403D01*
X110018376Y-182564770D01*
X109991731Y-182558250D01*
X109890687Y-182544857D01*
X109819972Y-182555821D01*
X109766411Y-182603276D01*
X109747000Y-182670756D01*
X109493000Y-182670756D01*
X109493000Y-182662900D01*
X109472839Y-182594239D01*
X109418758Y-182547377D01*
X109334095Y-182539973D01*
X109135390Y-182591546D01*
X109115134Y-182598679D01*
X108905008Y-182693334D01*
X108886243Y-182703778D01*
X108695070Y-182832483D01*
X108678334Y-182845940D01*
X108511580Y-183005016D01*
X108497350Y-183021099D01*
X108359782Y-183205997D01*
X108348466Y-183224249D01*
X108344861Y-183231339D01*
X108222142Y-183056079D01*
X108207913Y-183039120D01*
X108040880Y-182872087D01*
X108023921Y-182857858D01*
X107830422Y-182722368D01*
X107811250Y-182711299D01*
X107597163Y-182611469D01*
X107576361Y-182603897D01*
X107348190Y-182542759D01*
X107326389Y-182538915D01*
X107150002Y-182523483D01*
X107138933Y-182523000D01*
X107021067Y-182523000D01*
X107009998Y-182523483D01*
X106833611Y-182538915D01*
X106811810Y-182542759D01*
X106583639Y-182603897D01*
X106562837Y-182611469D01*
X106348750Y-182711299D01*
X106329578Y-182722368D01*
X106136079Y-182857858D01*
X106119120Y-182872087D01*
X105952087Y-183039120D01*
X105937858Y-183056079D01*
X105810000Y-183238678D01*
X105682142Y-183056079D01*
X105667913Y-183039120D01*
X105500880Y-182872087D01*
X105483921Y-182857858D01*
X105290422Y-182722368D01*
X105271250Y-182711299D01*
X105057163Y-182611469D01*
X105036361Y-182603897D01*
X104808190Y-182542759D01*
X104786389Y-182538915D01*
X104610002Y-182523483D01*
X104598933Y-182523000D01*
X104481067Y-182523000D01*
X104469998Y-182523483D01*
X104293611Y-182538915D01*
X104271810Y-182542759D01*
X104043639Y-182603897D01*
X104022837Y-182611469D01*
X103808750Y-182711299D01*
X103789578Y-182722368D01*
X103596079Y-182857858D01*
X103579120Y-182872087D01*
X103449467Y-183001740D01*
X103412365Y-182863274D01*
X103386980Y-182814511D01*
X103273640Y-182679436D01*
X103239852Y-182651084D01*
X103087148Y-182562921D01*
X103045701Y-182547835D01*
X102872053Y-182517216D01*
X102850000Y-182515287D01*
X101150000Y-182515287D01*
X101117130Y-182519614D01*
X100863274Y-182587635D01*
X100814511Y-182613020D01*
X100679436Y-182726360D01*
X100651084Y-182760148D01*
X100562921Y-182912852D01*
X100547835Y-182954299D01*
X100517216Y-183127947D01*
X100515287Y-183150000D01*
X93262773Y-183150000D01*
X93177646Y-182949454D01*
X93168208Y-182931401D01*
X93038896Y-182726058D01*
X93026694Y-182709748D01*
X92866216Y-182527721D01*
X92851562Y-182513570D01*
X92843492Y-182506941D01*
X92856084Y-182508599D01*
X93093058Y-182508599D01*
X93125928Y-182504272D01*
X93354828Y-182442938D01*
X93385458Y-182430250D01*
X93590684Y-182311763D01*
X93616987Y-182291581D01*
X93784553Y-182124015D01*
X93804735Y-182097712D01*
X93923222Y-181892486D01*
X93935910Y-181861856D01*
X93997244Y-181632956D01*
X94001571Y-181600086D01*
X94001571Y-181367198D01*
X94168233Y-181200536D01*
X94188415Y-181174233D01*
X94306902Y-180969007D01*
X94319590Y-180938377D01*
X94380924Y-180709477D01*
X94385251Y-180676607D01*
X94385251Y-180439633D01*
X94380924Y-180406763D01*
X94319590Y-180177863D01*
X94306902Y-180147233D01*
X94221771Y-179999782D01*
X94238181Y-179971359D01*
X94250869Y-179940729D01*
X94312203Y-179711829D01*
X94316530Y-179678959D01*
X94316530Y-179441985D01*
X94312203Y-179409115D01*
X94250869Y-179180215D01*
X94238181Y-179149585D01*
X94214908Y-179109275D01*
X94293651Y-178972887D01*
X94306339Y-178942257D01*
X94367673Y-178713357D01*
X94372000Y-178680487D01*
X94372000Y-178443513D01*
X94367673Y-178410643D01*
X94306339Y-178181743D01*
X94293651Y-178151113D01*
X94175164Y-177945887D01*
X94154982Y-177919584D01*
X94097000Y-177861602D01*
X94097000Y-174936489D01*
X94989167Y-174044323D01*
X99784569Y-174044323D01*
X99784581Y-174044322D01*
X99834374Y-174044322D01*
X99873620Y-174038106D01*
X99911472Y-174025807D01*
X99950795Y-174019579D01*
X99988585Y-174007300D01*
X100024054Y-173989227D01*
X100061909Y-173976928D01*
X100097314Y-173958888D01*
X100129517Y-173935491D01*
X100161247Y-173919324D01*
X100253871Y-173919324D01*
X100286741Y-173914997D01*
X100515641Y-173853663D01*
X100546271Y-173840975D01*
X100673983Y-173767241D01*
X100801694Y-173840975D01*
X100832324Y-173853663D01*
X101061224Y-173914997D01*
X101094094Y-173919324D01*
X101186718Y-173919324D01*
X101218446Y-173935490D01*
X101250650Y-173958888D01*
X101286053Y-173976927D01*
X101323911Y-173989228D01*
X101359382Y-174007301D01*
X101397169Y-174019578D01*
X101436481Y-174025805D01*
X101474345Y-174038107D01*
X101513589Y-174044322D01*
X101563384Y-174044322D01*
X101563396Y-174044323D01*
X110547634Y-174044323D01*
X113895311Y-177392001D01*
X101260185Y-177392001D01*
X99858833Y-175990649D01*
X99826686Y-175967294D01*
X99791217Y-175949222D01*
X99759014Y-175925825D01*
X99723609Y-175907785D01*
X99685754Y-175895486D01*
X99650285Y-175877413D01*
X99612495Y-175865134D01*
X99573172Y-175858906D01*
X99539312Y-175847904D01*
X99473816Y-175782408D01*
X99447513Y-175762226D01*
X99242287Y-175643739D01*
X99211657Y-175631051D01*
X98982757Y-175569717D01*
X98949887Y-175565390D01*
X98712913Y-175565390D01*
X98680043Y-175569717D01*
X98451143Y-175631051D01*
X98420513Y-175643739D01*
X98215287Y-175762226D01*
X98188984Y-175782408D01*
X98021418Y-175949974D01*
X98001236Y-175976277D01*
X97882749Y-176181503D01*
X97870061Y-176212133D01*
X97815315Y-176416445D01*
X97738033Y-176395737D01*
X97705163Y-176391410D01*
X97468189Y-176391410D01*
X97435319Y-176395737D01*
X97206419Y-176457071D01*
X97175789Y-176469759D01*
X96970563Y-176588246D01*
X96944260Y-176608428D01*
X96776694Y-176775994D01*
X96756512Y-176802297D01*
X96638025Y-177007523D01*
X96625337Y-177038153D01*
X96564003Y-177267053D01*
X96559676Y-177299923D01*
X96559676Y-177536897D01*
X96564003Y-177569767D01*
X96625337Y-177798667D01*
X96638025Y-177829297D01*
X96756512Y-178034523D01*
X96776694Y-178060826D01*
X96944260Y-178228392D01*
X96970563Y-178248574D01*
X97175789Y-178367061D01*
X97206419Y-178379749D01*
X97374908Y-178424896D01*
X97401377Y-178523677D01*
X97414065Y-178554307D01*
X97532552Y-178759533D01*
X97552734Y-178785836D01*
X97720300Y-178953402D01*
X97746603Y-178973584D01*
X97840224Y-179027636D01*
X97840224Y-179125327D01*
X97844551Y-179158197D01*
X97905885Y-179387097D01*
X97918573Y-179417727D01*
X98037060Y-179622953D01*
X98057242Y-179649256D01*
X98224808Y-179816822D01*
X98251111Y-179837004D01*
X98456337Y-179955491D01*
X98486967Y-179968179D01*
X98715867Y-180029513D01*
X98748737Y-180033840D01*
X98830735Y-180033840D01*
X98900436Y-180103541D01*
X98932582Y-180126896D01*
X98968058Y-180144972D01*
X99000256Y-180168365D01*
X99035658Y-180186403D01*
X99073512Y-180198703D01*
X99108985Y-180216777D01*
X99146774Y-180229056D01*
X99186096Y-180235284D01*
X99223948Y-180247583D01*
X99263194Y-180253799D01*
X99312988Y-180253799D01*
X99313000Y-180253800D01*
X115406600Y-180253800D01*
X115406600Y-180458487D01*
X115410927Y-180491357D01*
X115472261Y-180720257D01*
X115484949Y-180750887D01*
X115603436Y-180956113D01*
X115623618Y-180982416D01*
X115791184Y-181149982D01*
X115817487Y-181170164D01*
X116022713Y-181288651D01*
X116053343Y-181301339D01*
X116282243Y-181362673D01*
X116315113Y-181367000D01*
X116552087Y-181367000D01*
X116584957Y-181362673D01*
X116813857Y-181301339D01*
X116844487Y-181288651D01*
X117049713Y-181170164D01*
X117076016Y-181149982D01*
X117133998Y-181092000D01*
X117698272Y-181092000D01*
X117561353Y-181228919D01*
X117541171Y-181255222D01*
X117422684Y-181460448D01*
X117409996Y-181491078D01*
X117348662Y-181719978D01*
X117344335Y-181752848D01*
X117344335Y-181989822D01*
X117348662Y-182022692D01*
X117409996Y-182251592D01*
X117422684Y-182282222D01*
X117541171Y-182487448D01*
X117561353Y-182513751D01*
X117673014Y-182625412D01*
X117570087Y-182684836D01*
X117543784Y-182705018D01*
X117376218Y-182872584D01*
X117356036Y-182898887D01*
X117237549Y-183104113D01*
X117224861Y-183134743D01*
X117163527Y-183363643D01*
X117159200Y-183396513D01*
X117159200Y-183633487D01*
X117163527Y-183666357D01*
X117224861Y-183895257D01*
X117237549Y-183925887D01*
X117356036Y-184131113D01*
X117376218Y-184157416D01*
X117543784Y-184324982D01*
X117570087Y-184345164D01*
X117684694Y-184411332D01*
X117595487Y-184462836D01*
X117569184Y-184483018D01*
X117401618Y-184650584D01*
X117381436Y-184676887D01*
X117262949Y-184882113D01*
X117250261Y-184912743D01*
X117188927Y-185141643D01*
X117184600Y-185174513D01*
X117184600Y-185411487D01*
X117188927Y-185444357D01*
X117250261Y-185673257D01*
X117262949Y-185703887D01*
X117381436Y-185909113D01*
X117401618Y-185935416D01*
X117569184Y-186102982D01*
X117595487Y-186123164D01*
X117800713Y-186241651D01*
X117831343Y-186254339D01*
X118060243Y-186315673D01*
X118093113Y-186320000D01*
X118330087Y-186320000D01*
X118362957Y-186315673D01*
X118591857Y-186254339D01*
X118622487Y-186241651D01*
X118827713Y-186123164D01*
X118854016Y-186102982D01*
X119021582Y-185935416D01*
X119041764Y-185909113D01*
X119160251Y-185703887D01*
X119172939Y-185673257D01*
X119234273Y-185444357D01*
X119238600Y-185411487D01*
X119238600Y-185329489D01*
X120371134Y-184196956D01*
X120371145Y-184196942D01*
X120406350Y-184161738D01*
X120429707Y-184129591D01*
X120447779Y-184094123D01*
X120471177Y-184061918D01*
X120489216Y-184026514D01*
X120501516Y-183988656D01*
X120519588Y-183953189D01*
X120531866Y-183915399D01*
X120538093Y-183876082D01*
X120550394Y-183838224D01*
X120556610Y-183798979D01*
X120556610Y-183749185D01*
X120556611Y-183749173D01*
X120556611Y-181852478D01*
X123571000Y-178838089D01*
X123571000Y-187373000D01*
X80627000Y-187373000D01*
X80627000Y-182700000D01*
X82465287Y-182700000D01*
X82465287Y-185300000D01*
X82469614Y-185332870D01*
X82537635Y-185586727D01*
X82563020Y-185635491D01*
X82676360Y-185770565D01*
X82710148Y-185798916D01*
X82862852Y-185887079D01*
X82904299Y-185902165D01*
X83077947Y-185932784D01*
X83100000Y-185934713D01*
X85100000Y-185934713D01*
X85132870Y-185930386D01*
X85386727Y-185862365D01*
X85435491Y-185836980D01*
X85570565Y-185723640D01*
X85598916Y-185689852D01*
X85653935Y-185594555D01*
X85728357Y-185653330D01*
X85745692Y-185664847D01*
X85961632Y-185784052D01*
X85980615Y-185792583D01*
X86213125Y-185874920D01*
X86233248Y-185880237D01*
X86476084Y-185923492D01*
X86496803Y-185925451D01*
X86743441Y-185928465D01*
X86764203Y-185927013D01*
X87008023Y-185889703D01*
X87028269Y-185884879D01*
X87262721Y-185808248D01*
X87281907Y-185800183D01*
X87500695Y-185686289D01*
X87518306Y-185675199D01*
X87715555Y-185527101D01*
X87731119Y-185513283D01*
X87901530Y-185334957D01*
X87911115Y-185323120D01*
X88059565Y-185486263D01*
X88074786Y-185500457D01*
X88268357Y-185653330D01*
X88285692Y-185664847D01*
X88501632Y-185784052D01*
X88520615Y-185792583D01*
X88753125Y-185874920D01*
X88773248Y-185880237D01*
X89016084Y-185923492D01*
X89036803Y-185925451D01*
X89283441Y-185928465D01*
X89304203Y-185927013D01*
X89548023Y-185889703D01*
X89568269Y-185884879D01*
X89802721Y-185808248D01*
X89821907Y-185800183D01*
X90040695Y-185686289D01*
X90058306Y-185675199D01*
X90255555Y-185527101D01*
X90271119Y-185513283D01*
X90441530Y-185334957D01*
X90446887Y-185328342D01*
X90573784Y-185472279D01*
X90588438Y-185486430D01*
X90775956Y-185640458D01*
X90792682Y-185652084D01*
X91002412Y-185774150D01*
X91020783Y-185782952D01*
X91247332Y-185869916D01*
X91266874Y-185875667D01*
X91440029Y-185911841D01*
X91511362Y-185906147D01*
X91568293Y-185862792D01*
X91593000Y-185787525D01*
X91593000Y-184254000D01*
X91847000Y-184254000D01*
X91847000Y-185788704D01*
X91867161Y-185857365D01*
X91921242Y-185904227D01*
X91988598Y-185914862D01*
X92028456Y-185910250D01*
X92048437Y-185906294D01*
X92281935Y-185840221D01*
X92301029Y-185833120D01*
X92520960Y-185730564D01*
X92538672Y-185720502D01*
X92739377Y-185584103D01*
X92755252Y-185571339D01*
X92931568Y-185404606D01*
X92945199Y-185389467D01*
X93092588Y-185196689D01*
X93103622Y-185179567D01*
X93218295Y-184965704D01*
X93226451Y-184947037D01*
X93305455Y-184717590D01*
X93311373Y-184692160D01*
X93353999Y-184354743D01*
X93355000Y-184338826D01*
X93355000Y-184254000D01*
X93334839Y-184185339D01*
X93280758Y-184138477D01*
X93228000Y-184127000D01*
X91974000Y-184127000D01*
X91905339Y-184147161D01*
X91858477Y-184201242D01*
X91847000Y-184254000D01*
X91593000Y-184254000D01*
X91593000Y-182211296D01*
X91572839Y-182142635D01*
X91518758Y-182095773D01*
X91451402Y-182085138D01*
X91411544Y-182089750D01*
X91391563Y-182093706D01*
X91158065Y-182159779D01*
X91138971Y-182166880D01*
X90919040Y-182269436D01*
X90901328Y-182279498D01*
X90700623Y-182415897D01*
X90684748Y-182428661D01*
X90508432Y-182595395D01*
X90494801Y-182610534D01*
X90446272Y-182674008D01*
X90300435Y-182513737D01*
X90285214Y-182499543D01*
X90091643Y-182346670D01*
X90074308Y-182335153D01*
X89858368Y-182215948D01*
X89839385Y-182207417D01*
X89606875Y-182125080D01*
X89586752Y-182119763D01*
X89343916Y-182076508D01*
X89323197Y-182074549D01*
X89076559Y-182071535D01*
X89055797Y-182072987D01*
X88811977Y-182110297D01*
X88791731Y-182115121D01*
X88557279Y-182191752D01*
X88538093Y-182199817D01*
X88319305Y-182313711D01*
X88301694Y-182324801D01*
X88104445Y-182472899D01*
X88088881Y-182486717D01*
X87918470Y-182665044D01*
X87908885Y-182676881D01*
X87760435Y-182513737D01*
X87745214Y-182499543D01*
X87551643Y-182346670D01*
X87534308Y-182335153D01*
X87318368Y-182215948D01*
X87299385Y-182207417D01*
X87066875Y-182125080D01*
X87046752Y-182119763D01*
X86803916Y-182076508D01*
X86783197Y-182074549D01*
X86536559Y-182071535D01*
X86515797Y-182072987D01*
X86271977Y-182110297D01*
X86251731Y-182115121D01*
X86017279Y-182191752D01*
X85998093Y-182199817D01*
X85779305Y-182313711D01*
X85761694Y-182324801D01*
X85657164Y-182403284D01*
X85636980Y-182364511D01*
X85523640Y-182229436D01*
X85489852Y-182201084D01*
X85337148Y-182112921D01*
X85295701Y-182097835D01*
X85122053Y-182067216D01*
X85100000Y-182065287D01*
X83100000Y-182065287D01*
X83067130Y-182069614D01*
X82813274Y-182137635D01*
X82764511Y-182163020D01*
X82629436Y-182276360D01*
X82601084Y-182310148D01*
X82512921Y-182462852D01*
X82497835Y-182504299D01*
X82467216Y-182677947D01*
X82465287Y-182700000D01*
X80627000Y-182700000D01*
X80627000Y-170103800D01*
X86972477Y-170103800D01*
X86939695Y-170136582D01*
X86939695Y-170136582D01*
G37*
X86939695Y-170136582D02*
X86919513Y-170162885D01*
X86801026Y-170368111D01*
X86788338Y-170398741D01*
X86727004Y-170627641D01*
X86722677Y-170660511D01*
X86722677Y-170753137D01*
X86706513Y-170784861D01*
X86683113Y-170817068D01*
X86665073Y-170852473D01*
X86652771Y-170890337D01*
X86634703Y-170925796D01*
X86622423Y-170963588D01*
X86616196Y-171002903D01*
X86603895Y-171040762D01*
X86597679Y-171080008D01*
X86597679Y-171809126D01*
X86520779Y-171764728D01*
X86490149Y-171752040D01*
X86261249Y-171690706D01*
X86228379Y-171686379D01*
X85991405Y-171686379D01*
X85958535Y-171690706D01*
X85729635Y-171752040D01*
X85699005Y-171764728D01*
X85493779Y-171883215D01*
X85467476Y-171903397D01*
X85299910Y-172070963D01*
X85279728Y-172097266D01*
X85161241Y-172302492D01*
X85148553Y-172333122D01*
X85087219Y-172562022D01*
X85082892Y-172594892D01*
X85082892Y-172831866D01*
X85087219Y-172864736D01*
X85148553Y-173093636D01*
X85161241Y-173124266D01*
X85279728Y-173329492D01*
X85299910Y-173355795D01*
X85357892Y-173413777D01*
X85357892Y-173605335D01*
X85141978Y-173605335D01*
X85109108Y-173609662D01*
X84880208Y-173670996D01*
X84849578Y-173683684D01*
X84644352Y-173802171D01*
X84618049Y-173822353D01*
X84450483Y-173989919D01*
X84430301Y-174016222D01*
X84311814Y-174221448D01*
X84299126Y-174252078D01*
X84237792Y-174480978D01*
X84233465Y-174513848D01*
X84233465Y-174750822D01*
X84237792Y-174783692D01*
X84299126Y-175012592D01*
X84311814Y-175043222D01*
X84430301Y-175248448D01*
X84450483Y-175274751D01*
X84618049Y-175442317D01*
X84644352Y-175462499D01*
X84849578Y-175580986D01*
X84880208Y-175593674D01*
X85109108Y-175655008D01*
X85141978Y-175659335D01*
X85223976Y-175659335D01*
X91612762Y-182048122D01*
X91612770Y-182048129D01*
X91647981Y-182083340D01*
X91680127Y-182106695D01*
X91715595Y-182124767D01*
X91747800Y-182148165D01*
X91783202Y-182166203D01*
X91821060Y-182178504D01*
X91852837Y-182194695D01*
X91847000Y-182212475D01*
X91847000Y-183746000D01*
X91867161Y-183814661D01*
X91921242Y-183861523D01*
X91974000Y-183873000D01*
X93228000Y-183873000D01*
X93296661Y-183852839D01*
X93343523Y-183798758D01*
X93355000Y-183746000D01*
X93355000Y-183639038D01*
X93354591Y-183628853D01*
X93340034Y-183447930D01*
X93336777Y-183427821D01*
X93278893Y-183192159D01*
X93272463Y-183172830D01*
X93262773Y-183150000D01*
X100515287Y-183150000D01*
X100515287Y-184850000D01*
X100519614Y-184882870D01*
X100587635Y-185136727D01*
X100613020Y-185185491D01*
X100726360Y-185320565D01*
X100760148Y-185348916D01*
X100912852Y-185437079D01*
X100954299Y-185452165D01*
X101127947Y-185482784D01*
X101150000Y-185484713D01*
X102850000Y-185484713D01*
X102882870Y-185480386D01*
X103136727Y-185412365D01*
X103185491Y-185386980D01*
X103320565Y-185273640D01*
X103348916Y-185239852D01*
X103437079Y-185087148D01*
X103452165Y-185045701D01*
X103458872Y-185007665D01*
X103579120Y-185127913D01*
X103596079Y-185142142D01*
X103789578Y-185277632D01*
X103808750Y-185288701D01*
X104022837Y-185388531D01*
X104043639Y-185396103D01*
X104271810Y-185457241D01*
X104293611Y-185461085D01*
X104469998Y-185476517D01*
X104481067Y-185477000D01*
X104598933Y-185477000D01*
X104610002Y-185476517D01*
X104786389Y-185461085D01*
X104808190Y-185457241D01*
X105036361Y-185396103D01*
X105057163Y-185388531D01*
X105271250Y-185288701D01*
X105290422Y-185277632D01*
X105483921Y-185142142D01*
X105500880Y-185127913D01*
X105667913Y-184960880D01*
X105682142Y-184943921D01*
X105810000Y-184761322D01*
X105937858Y-184943921D01*
X105952087Y-184960880D01*
X106119120Y-185127913D01*
X106136079Y-185142142D01*
X106329578Y-185277632D01*
X106348750Y-185288701D01*
X106562837Y-185388531D01*
X106583639Y-185396103D01*
X106811810Y-185457241D01*
X106833611Y-185461085D01*
X107009998Y-185476517D01*
X107021067Y-185477000D01*
X107138933Y-185477000D01*
X107150002Y-185476517D01*
X107326389Y-185461085D01*
X107348190Y-185457241D01*
X107576361Y-185396103D01*
X107597163Y-185388531D01*
X107811250Y-185288701D01*
X107830422Y-185277632D01*
X108023921Y-185142142D01*
X108040880Y-185127913D01*
X108207913Y-184960880D01*
X108222142Y-184943921D01*
X108347282Y-184765204D01*
X108410209Y-184868905D01*
X108422862Y-184886257D01*
X108573906Y-185060320D01*
X108589302Y-185075292D01*
X108767515Y-185221417D01*
X108785213Y-185233580D01*
X108985498Y-185347589D01*
X109004993Y-185356597D01*
X109221624Y-185435230D01*
X109248269Y-185441750D01*
X109349313Y-185455143D01*
X109420028Y-185444179D01*
X109473589Y-185396724D01*
X109493000Y-185329244D01*
X109493000Y-184254000D01*
X109747000Y-184254000D01*
X109747000Y-185337100D01*
X109767161Y-185405761D01*
X109821242Y-185452623D01*
X109905905Y-185460027D01*
X110104610Y-185408454D01*
X110124866Y-185401321D01*
X110334992Y-185306666D01*
X110353757Y-185296222D01*
X110544930Y-185167517D01*
X110561666Y-185154060D01*
X110728420Y-184994984D01*
X110742650Y-184978901D01*
X110880218Y-184794003D01*
X110891534Y-184775751D01*
X110995982Y-184570317D01*
X111004062Y-184550420D01*
X111072403Y-184330326D01*
X111077014Y-184309353D01*
X111082139Y-184270688D01*
X111071175Y-184199973D01*
X111023720Y-184146411D01*
X110956240Y-184127000D01*
X109874000Y-184127000D01*
X109805339Y-184147161D01*
X109758477Y-184201242D01*
X109747000Y-184254000D01*
X109493000Y-184254000D01*
X109493000Y-182670756D01*
X109747000Y-182670756D01*
X109747000Y-183746000D01*
X109767161Y-183814661D01*
X109821242Y-183861523D01*
X109874000Y-183873000D01*
X110954306Y-183873000D01*
X111022967Y-183852839D01*
X111069829Y-183798758D01*
X111078599Y-183719921D01*
X111049718Y-183582275D01*
X111043547Y-183561705D01*
X110958896Y-183347354D01*
X110949348Y-183328119D01*
X110829791Y-183131095D01*
X110817138Y-183113743D01*
X110666094Y-182939680D01*
X110650698Y-182924708D01*
X110472485Y-182778583D01*
X110454787Y-182766420D01*
X110254502Y-182652411D01*
X110235007Y-182643403D01*
X110018376Y-182564770D01*
X109991731Y-182558250D01*
X109890687Y-182544857D01*
X109819972Y-182555821D01*
X109766411Y-182603276D01*
X109747000Y-182670756D01*
X109493000Y-182670756D01*
X109493000Y-182662900D01*
X109472839Y-182594239D01*
X109418758Y-182547377D01*
X109334095Y-182539973D01*
X109135390Y-182591546D01*
X109115134Y-182598679D01*
X108905008Y-182693334D01*
X108886243Y-182703778D01*
X108695070Y-182832483D01*
X108678334Y-182845940D01*
X108511580Y-183005016D01*
X108497350Y-183021099D01*
X108359782Y-183205997D01*
X108348466Y-183224249D01*
X108344861Y-183231339D01*
X108222142Y-183056079D01*
X108207913Y-183039120D01*
X108040880Y-182872087D01*
X108023921Y-182857858D01*
X107830422Y-182722368D01*
X107811250Y-182711299D01*
X107597163Y-182611469D01*
X107576361Y-182603897D01*
X107348190Y-182542759D01*
X107326389Y-182538915D01*
X107150002Y-182523483D01*
X107138933Y-182523000D01*
X107021067Y-182523000D01*
X107009998Y-182523483D01*
X106833611Y-182538915D01*
X106811810Y-182542759D01*
X106583639Y-182603897D01*
X106562837Y-182611469D01*
X106348750Y-182711299D01*
X106329578Y-182722368D01*
X106136079Y-182857858D01*
X106119120Y-182872087D01*
X105952087Y-183039120D01*
X105937858Y-183056079D01*
X105810000Y-183238678D01*
X105682142Y-183056079D01*
X105667913Y-183039120D01*
X105500880Y-182872087D01*
X105483921Y-182857858D01*
X105290422Y-182722368D01*
X105271250Y-182711299D01*
X105057163Y-182611469D01*
X105036361Y-182603897D01*
X104808190Y-182542759D01*
X104786389Y-182538915D01*
X104610002Y-182523483D01*
X104598933Y-182523000D01*
X104481067Y-182523000D01*
X104469998Y-182523483D01*
X104293611Y-182538915D01*
X104271810Y-182542759D01*
X104043639Y-182603897D01*
X104022837Y-182611469D01*
X103808750Y-182711299D01*
X103789578Y-182722368D01*
X103596079Y-182857858D01*
X103579120Y-182872087D01*
X103449467Y-183001740D01*
X103412365Y-182863274D01*
X103386980Y-182814511D01*
X103273640Y-182679436D01*
X103239852Y-182651084D01*
X103087148Y-182562921D01*
X103045701Y-182547835D01*
X102872053Y-182517216D01*
X102850000Y-182515287D01*
X101150000Y-182515287D01*
X101117130Y-182519614D01*
X100863274Y-182587635D01*
X100814511Y-182613020D01*
X100679436Y-182726360D01*
X100651084Y-182760148D01*
X100562921Y-182912852D01*
X100547835Y-182954299D01*
X100517216Y-183127947D01*
X100515287Y-183150000D01*
X93262773Y-183150000D01*
X93177646Y-182949454D01*
X93168208Y-182931401D01*
X93038896Y-182726058D01*
X93026694Y-182709748D01*
X92866216Y-182527721D01*
X92851562Y-182513570D01*
X92843492Y-182506941D01*
X92856084Y-182508599D01*
X93093058Y-182508599D01*
X93125928Y-182504272D01*
X93354828Y-182442938D01*
X93385458Y-182430250D01*
X93590684Y-182311763D01*
X93616987Y-182291581D01*
X93784553Y-182124015D01*
X93804735Y-182097712D01*
X93923222Y-181892486D01*
X93935910Y-181861856D01*
X93997244Y-181632956D01*
X94001571Y-181600086D01*
X94001571Y-181367198D01*
X94168233Y-181200536D01*
X94188415Y-181174233D01*
X94306902Y-180969007D01*
X94319590Y-180938377D01*
X94380924Y-180709477D01*
X94385251Y-180676607D01*
X94385251Y-180439633D01*
X94380924Y-180406763D01*
X94319590Y-180177863D01*
X94306902Y-180147233D01*
X94221771Y-179999782D01*
X94238181Y-179971359D01*
X94250869Y-179940729D01*
X94312203Y-179711829D01*
X94316530Y-179678959D01*
X94316530Y-179441985D01*
X94312203Y-179409115D01*
X94250869Y-179180215D01*
X94238181Y-179149585D01*
X94214908Y-179109275D01*
X94293651Y-178972887D01*
X94306339Y-178942257D01*
X94367673Y-178713357D01*
X94372000Y-178680487D01*
X94372000Y-178443513D01*
X94367673Y-178410643D01*
X94306339Y-178181743D01*
X94293651Y-178151113D01*
X94175164Y-177945887D01*
X94154982Y-177919584D01*
X94097000Y-177861602D01*
X94097000Y-174936489D01*
X94989167Y-174044323D01*
X99784569Y-174044323D01*
X99784581Y-174044322D01*
X99834374Y-174044322D01*
X99873620Y-174038106D01*
X99911472Y-174025807D01*
X99950795Y-174019579D01*
X99988585Y-174007300D01*
X100024054Y-173989227D01*
X100061909Y-173976928D01*
X100097314Y-173958888D01*
X100129517Y-173935491D01*
X100161247Y-173919324D01*
X100253871Y-173919324D01*
X100286741Y-173914997D01*
X100515641Y-173853663D01*
X100546271Y-173840975D01*
X100673983Y-173767241D01*
X100801694Y-173840975D01*
X100832324Y-173853663D01*
X101061224Y-173914997D01*
X101094094Y-173919324D01*
X101186718Y-173919324D01*
X101218446Y-173935490D01*
X101250650Y-173958888D01*
X101286053Y-173976927D01*
X101323911Y-173989228D01*
X101359382Y-174007301D01*
X101397169Y-174019578D01*
X101436481Y-174025805D01*
X101474345Y-174038107D01*
X101513589Y-174044322D01*
X101563384Y-174044322D01*
X101563396Y-174044323D01*
X110547634Y-174044323D01*
X113895311Y-177392001D01*
X101260185Y-177392001D01*
X99858833Y-175990649D01*
X99826686Y-175967294D01*
X99791217Y-175949222D01*
X99759014Y-175925825D01*
X99723609Y-175907785D01*
X99685754Y-175895486D01*
X99650285Y-175877413D01*
X99612495Y-175865134D01*
X99573172Y-175858906D01*
X99539312Y-175847904D01*
X99473816Y-175782408D01*
X99447513Y-175762226D01*
X99242287Y-175643739D01*
X99211657Y-175631051D01*
X98982757Y-175569717D01*
X98949887Y-175565390D01*
X98712913Y-175565390D01*
X98680043Y-175569717D01*
X98451143Y-175631051D01*
X98420513Y-175643739D01*
X98215287Y-175762226D01*
X98188984Y-175782408D01*
X98021418Y-175949974D01*
X98001236Y-175976277D01*
X97882749Y-176181503D01*
X97870061Y-176212133D01*
X97815315Y-176416445D01*
X97738033Y-176395737D01*
X97705163Y-176391410D01*
X97468189Y-176391410D01*
X97435319Y-176395737D01*
X97206419Y-176457071D01*
X97175789Y-176469759D01*
X96970563Y-176588246D01*
X96944260Y-176608428D01*
X96776694Y-176775994D01*
X96756512Y-176802297D01*
X96638025Y-177007523D01*
X96625337Y-177038153D01*
X96564003Y-177267053D01*
X96559676Y-177299923D01*
X96559676Y-177536897D01*
X96564003Y-177569767D01*
X96625337Y-177798667D01*
X96638025Y-177829297D01*
X96756512Y-178034523D01*
X96776694Y-178060826D01*
X96944260Y-178228392D01*
X96970563Y-178248574D01*
X97175789Y-178367061D01*
X97206419Y-178379749D01*
X97374908Y-178424896D01*
X97401377Y-178523677D01*
X97414065Y-178554307D01*
X97532552Y-178759533D01*
X97552734Y-178785836D01*
X97720300Y-178953402D01*
X97746603Y-178973584D01*
X97840224Y-179027636D01*
X97840224Y-179125327D01*
X97844551Y-179158197D01*
X97905885Y-179387097D01*
X97918573Y-179417727D01*
X98037060Y-179622953D01*
X98057242Y-179649256D01*
X98224808Y-179816822D01*
X98251111Y-179837004D01*
X98456337Y-179955491D01*
X98486967Y-179968179D01*
X98715867Y-180029513D01*
X98748737Y-180033840D01*
X98830735Y-180033840D01*
X98900436Y-180103541D01*
X98932582Y-180126896D01*
X98968058Y-180144972D01*
X99000256Y-180168365D01*
X99035658Y-180186403D01*
X99073512Y-180198703D01*
X99108985Y-180216777D01*
X99146774Y-180229056D01*
X99186096Y-180235284D01*
X99223948Y-180247583D01*
X99263194Y-180253799D01*
X99312988Y-180253799D01*
X99313000Y-180253800D01*
X115406600Y-180253800D01*
X115406600Y-180458487D01*
X115410927Y-180491357D01*
X115472261Y-180720257D01*
X115484949Y-180750887D01*
X115603436Y-180956113D01*
X115623618Y-180982416D01*
X115791184Y-181149982D01*
X115817487Y-181170164D01*
X116022713Y-181288651D01*
X116053343Y-181301339D01*
X116282243Y-181362673D01*
X116315113Y-181367000D01*
X116552087Y-181367000D01*
X116584957Y-181362673D01*
X116813857Y-181301339D01*
X116844487Y-181288651D01*
X117049713Y-181170164D01*
X117076016Y-181149982D01*
X117133998Y-181092000D01*
X117698272Y-181092000D01*
X117561353Y-181228919D01*
X117541171Y-181255222D01*
X117422684Y-181460448D01*
X117409996Y-181491078D01*
X117348662Y-181719978D01*
X117344335Y-181752848D01*
X117344335Y-181989822D01*
X117348662Y-182022692D01*
X117409996Y-182251592D01*
X117422684Y-182282222D01*
X117541171Y-182487448D01*
X117561353Y-182513751D01*
X117673014Y-182625412D01*
X117570087Y-182684836D01*
X117543784Y-182705018D01*
X117376218Y-182872584D01*
X117356036Y-182898887D01*
X117237549Y-183104113D01*
X117224861Y-183134743D01*
X117163527Y-183363643D01*
X117159200Y-183396513D01*
X117159200Y-183633487D01*
X117163527Y-183666357D01*
X117224861Y-183895257D01*
X117237549Y-183925887D01*
X117356036Y-184131113D01*
X117376218Y-184157416D01*
X117543784Y-184324982D01*
X117570087Y-184345164D01*
X117684694Y-184411332D01*
X117595487Y-184462836D01*
X117569184Y-184483018D01*
X117401618Y-184650584D01*
X117381436Y-184676887D01*
X117262949Y-184882113D01*
X117250261Y-184912743D01*
X117188927Y-185141643D01*
X117184600Y-185174513D01*
X117184600Y-185411487D01*
X117188927Y-185444357D01*
X117250261Y-185673257D01*
X117262949Y-185703887D01*
X117381436Y-185909113D01*
X117401618Y-185935416D01*
X117569184Y-186102982D01*
X117595487Y-186123164D01*
X117800713Y-186241651D01*
X117831343Y-186254339D01*
X118060243Y-186315673D01*
X118093113Y-186320000D01*
X118330087Y-186320000D01*
X118362957Y-186315673D01*
X118591857Y-186254339D01*
X118622487Y-186241651D01*
X118827713Y-186123164D01*
X118854016Y-186102982D01*
X119021582Y-185935416D01*
X119041764Y-185909113D01*
X119160251Y-185703887D01*
X119172939Y-185673257D01*
X119234273Y-185444357D01*
X119238600Y-185411487D01*
X119238600Y-185329489D01*
X120371134Y-184196956D01*
X120371145Y-184196942D01*
X120406350Y-184161738D01*
X120429707Y-184129591D01*
X120447779Y-184094123D01*
X120471177Y-184061918D01*
X120489216Y-184026514D01*
X120501516Y-183988656D01*
X120519588Y-183953189D01*
X120531866Y-183915399D01*
X120538093Y-183876082D01*
X120550394Y-183838224D01*
X120556610Y-183798979D01*
X120556610Y-183749185D01*
X120556611Y-183749173D01*
X120556611Y-181852478D01*
X123571000Y-178838089D01*
X123571000Y-187373000D01*
X80627000Y-187373000D01*
X80627000Y-182700000D01*
X82465287Y-182700000D01*
X82465287Y-185300000D01*
X82469614Y-185332870D01*
X82537635Y-185586727D01*
X82563020Y-185635491D01*
X82676360Y-185770565D01*
X82710148Y-185798916D01*
X82862852Y-185887079D01*
X82904299Y-185902165D01*
X83077947Y-185932784D01*
X83100000Y-185934713D01*
X85100000Y-185934713D01*
X85132870Y-185930386D01*
X85386727Y-185862365D01*
X85435491Y-185836980D01*
X85570565Y-185723640D01*
X85598916Y-185689852D01*
X85653935Y-185594555D01*
X85728357Y-185653330D01*
X85745692Y-185664847D01*
X85961632Y-185784052D01*
X85980615Y-185792583D01*
X86213125Y-185874920D01*
X86233248Y-185880237D01*
X86476084Y-185923492D01*
X86496803Y-185925451D01*
X86743441Y-185928465D01*
X86764203Y-185927013D01*
X87008023Y-185889703D01*
X87028269Y-185884879D01*
X87262721Y-185808248D01*
X87281907Y-185800183D01*
X87500695Y-185686289D01*
X87518306Y-185675199D01*
X87715555Y-185527101D01*
X87731119Y-185513283D01*
X87901530Y-185334957D01*
X87911115Y-185323120D01*
X88059565Y-185486263D01*
X88074786Y-185500457D01*
X88268357Y-185653330D01*
X88285692Y-185664847D01*
X88501632Y-185784052D01*
X88520615Y-185792583D01*
X88753125Y-185874920D01*
X88773248Y-185880237D01*
X89016084Y-185923492D01*
X89036803Y-185925451D01*
X89283441Y-185928465D01*
X89304203Y-185927013D01*
X89548023Y-185889703D01*
X89568269Y-185884879D01*
X89802721Y-185808248D01*
X89821907Y-185800183D01*
X90040695Y-185686289D01*
X90058306Y-185675199D01*
X90255555Y-185527101D01*
X90271119Y-185513283D01*
X90441530Y-185334957D01*
X90446887Y-185328342D01*
X90573784Y-185472279D01*
X90588438Y-185486430D01*
X90775956Y-185640458D01*
X90792682Y-185652084D01*
X91002412Y-185774150D01*
X91020783Y-185782952D01*
X91247332Y-185869916D01*
X91266874Y-185875667D01*
X91440029Y-185911841D01*
X91511362Y-185906147D01*
X91568293Y-185862792D01*
X91593000Y-185787525D01*
X91593000Y-184254000D01*
X91847000Y-184254000D01*
X91847000Y-185788704D01*
X91867161Y-185857365D01*
X91921242Y-185904227D01*
X91988598Y-185914862D01*
X92028456Y-185910250D01*
X92048437Y-185906294D01*
X92281935Y-185840221D01*
X92301029Y-185833120D01*
X92520960Y-185730564D01*
X92538672Y-185720502D01*
X92739377Y-185584103D01*
X92755252Y-185571339D01*
X92931568Y-185404606D01*
X92945199Y-185389467D01*
X93092588Y-185196689D01*
X93103622Y-185179567D01*
X93218295Y-184965704D01*
X93226451Y-184947037D01*
X93305455Y-184717590D01*
X93311373Y-184692160D01*
X93353999Y-184354743D01*
X93355000Y-184338826D01*
X93355000Y-184254000D01*
X93334839Y-184185339D01*
X93280758Y-184138477D01*
X93228000Y-184127000D01*
X91974000Y-184127000D01*
X91905339Y-184147161D01*
X91858477Y-184201242D01*
X91847000Y-184254000D01*
X91593000Y-184254000D01*
X91593000Y-182211296D01*
X91572839Y-182142635D01*
X91518758Y-182095773D01*
X91451402Y-182085138D01*
X91411544Y-182089750D01*
X91391563Y-182093706D01*
X91158065Y-182159779D01*
X91138971Y-182166880D01*
X90919040Y-182269436D01*
X90901328Y-182279498D01*
X90700623Y-182415897D01*
X90684748Y-182428661D01*
X90508432Y-182595395D01*
X90494801Y-182610534D01*
X90446272Y-182674008D01*
X90300435Y-182513737D01*
X90285214Y-182499543D01*
X90091643Y-182346670D01*
X90074308Y-182335153D01*
X89858368Y-182215948D01*
X89839385Y-182207417D01*
X89606875Y-182125080D01*
X89586752Y-182119763D01*
X89343916Y-182076508D01*
X89323197Y-182074549D01*
X89076559Y-182071535D01*
X89055797Y-182072987D01*
X88811977Y-182110297D01*
X88791731Y-182115121D01*
X88557279Y-182191752D01*
X88538093Y-182199817D01*
X88319305Y-182313711D01*
X88301694Y-182324801D01*
X88104445Y-182472899D01*
X88088881Y-182486717D01*
X87918470Y-182665044D01*
X87908885Y-182676881D01*
X87760435Y-182513737D01*
X87745214Y-182499543D01*
X87551643Y-182346670D01*
X87534308Y-182335153D01*
X87318368Y-182215948D01*
X87299385Y-182207417D01*
X87066875Y-182125080D01*
X87046752Y-182119763D01*
X86803916Y-182076508D01*
X86783197Y-182074549D01*
X86536559Y-182071535D01*
X86515797Y-182072987D01*
X86271977Y-182110297D01*
X86251731Y-182115121D01*
X86017279Y-182191752D01*
X85998093Y-182199817D01*
X85779305Y-182313711D01*
X85761694Y-182324801D01*
X85657164Y-182403284D01*
X85636980Y-182364511D01*
X85523640Y-182229436D01*
X85489852Y-182201084D01*
X85337148Y-182112921D01*
X85295701Y-182097835D01*
X85122053Y-182067216D01*
X85100000Y-182065287D01*
X83100000Y-182065287D01*
X83067130Y-182069614D01*
X82813274Y-182137635D01*
X82764511Y-182163020D01*
X82629436Y-182276360D01*
X82601084Y-182310148D01*
X82512921Y-182462852D01*
X82497835Y-182504299D01*
X82467216Y-182677947D01*
X82465287Y-182700000D01*
X80627000Y-182700000D01*
X80627000Y-170103800D01*
X86972477Y-170103800D01*
X86939695Y-170136582D01*
M02*
