M48
; DRILL file {KiCad 5.1.0-rc2-unknown-d2d2101~82~ubuntu18.10.1} date Fri 08 Mar 2019 07:56:32 AM EST
; FORMAT={3:3/ absolute / metric / suppress leading zeros}
; #@! TF.CreationDate,2019-03-08T07:56:32-05:00
; #@! TF.GenerationSoftware,Kicad,Pcbnew,5.1.0-rc2-unknown-d2d2101~82~ubuntu18.10.1
FMAT,2
METRIC,TZ
T1C0.400
T2C1.000
T3C2.000
T4C5.000
T5C8.000
%
G90
G05
T1
X0Y-21000
X0Y-22000
X0Y-54500
X0Y-55500
X0Y-87700
X0Y-88700
X1000Y-21000
X1000Y-22000
X1000Y-33300
X1000Y-54500
X1000Y-55500
X1000Y-66600
X1000Y-87700
X1000Y-88700
X1000Y-98500
X1000Y-99500
X2000Y-21000
X2000Y-22000
X2000Y-33300
X2000Y-54500
X2000Y-55500
X2000Y-66600
X2000Y-87700
X2000Y-88700
X2000Y-98500
X2000Y-99500
X3000Y-33300
X3000Y-66600
X3000Y-98500
X3000Y-99500
X4000Y-33300
X4000Y-66600
X4000Y-98500
X4000Y-99500
X5000Y-33300
X5000Y-66600
X5000Y-98500
X5000Y-99500
X6000Y-33300
X6000Y-66600
X6000Y-98500
X6000Y-99500
X7000Y-33300
X7000Y-66600
X7000Y-98500
X7000Y-99500
X8000Y-11300
X8000Y-12300
X8000Y-33300
X8000Y-44500
X8000Y-45500
X8000Y-66600
X8000Y-78000
X8000Y-79000
X8000Y-98500
X8000Y-99500
X9000Y-11300
X9000Y-12300
X9000Y-33300
X9000Y-44500
X9000Y-45500
X9000Y-66600
X9000Y-78000
X9000Y-79000
X9000Y-98500
X9000Y-99500
X10000Y-11300
X10000Y-12300
X10000Y-33300
X10000Y-44500
X10000Y-45500
X10000Y-66600
X10000Y-78000
X10000Y-79000
X10000Y-98500
X10000Y-99500
X11000Y-11300
X11000Y-12300
X11000Y-33300
X11000Y-44500
X11000Y-45500
X11000Y-66600
X11000Y-78000
X11000Y-79000
X11000Y-98500
X11000Y-99500
X12000Y-11300
X12000Y-12300
X12000Y-33300
X12000Y-44500
X12000Y-45500
X12000Y-66600
X12000Y-78000
X12000Y-79000
X12000Y-98500
X12000Y-99500
X13000Y-33300
X13000Y-66600
X13000Y-98500
X13000Y-99500
X14000Y-33300
X14000Y-66600
X14000Y-98500
X14000Y-99500
X15000Y-33300
X15000Y-66600
X15000Y-98500
X15000Y-99500
X16000Y-33300
X16000Y-66600
X16000Y-98500
X16000Y-99500
X17000Y-33300
X17000Y-66600
X17000Y-98500
X17000Y-99500
X18000Y-21000
X18000Y-22000
X18000Y-33300
X18000Y-54500
X18000Y-55500
X18000Y-66600
X18000Y-87700
X18000Y-88700
X18000Y-98500
X18000Y-99500
X19000Y-21000
X19000Y-22000
X19000Y-33300
X19000Y-54500
X19000Y-55500
X19000Y-66600
X19000Y-87700
X19000Y-88700
X19000Y-98500
X19000Y-99500
X20000Y-21000
X20000Y-22000
X20000Y-33300
X20000Y-54500
X20000Y-55500
X20000Y-66600
X20000Y-87700
X20000Y-88700
X20000Y-98500
X20000Y-99500
X21000Y-21000
X21000Y-22000
X21000Y-33300
X21000Y-54500
X21000Y-55500
X21000Y-66600
X21000Y-87700
X21000Y-88700
X21000Y-98500
X21000Y-99500
X22000Y-21000
X22000Y-22000
X22000Y-33300
X22000Y-54500
X22000Y-55500
X22000Y-66600
X22000Y-87700
X22000Y-88700
X22000Y-98500
X22000Y-99500
X23000Y-33300
X23000Y-66600
X23000Y-98500
X23000Y-99500
X24000Y-33300
X24000Y-66600
X24000Y-98500
X24000Y-99500
X25000Y-33300
X25000Y-66600
X25000Y-98500
X25000Y-99500
X26000Y-33300
X26000Y-66600
X26000Y-98500
X26000Y-99500
X27000Y-33300
X27000Y-66600
X27000Y-98500
X27000Y-99500
X28000Y-11300
X28000Y-12300
X28000Y-33300
X28000Y-44500
X28000Y-45500
X28000Y-66600
X28000Y-78000
X28000Y-79000
X28000Y-98500
X28000Y-99500
X29000Y-11300
X29000Y-12300
X29000Y-33300
X29000Y-44500
X29000Y-45500
X29000Y-66600
X29000Y-78000
X29000Y-79000
X29000Y-98500
X29000Y-99500
X30000Y-11300
X30000Y-12300
X30000Y-33300
X30000Y-44500
X30000Y-45500
X30000Y-66600
X30000Y-78000
X30000Y-79000
X30000Y-98500
X30000Y-99500
X31000Y-11300
X31000Y-12300
X31000Y-33300
X31000Y-44500
X31000Y-45500
X31000Y-66600
X31000Y-78000
X31000Y-79000
X31000Y-98500
X31000Y-99500
X32000Y-11300
X32000Y-12300
X32000Y-33300
X32000Y-44500
X32000Y-45500
X32000Y-66600
X32000Y-78000
X32000Y-79000
X32000Y-98500
X32000Y-99500
X33000Y-33300
X33000Y-66600
X33000Y-98500
X33000Y-99500
X34000Y-33300
X34000Y-66600
X34000Y-98500
X34000Y-99500
X35000Y-33300
X35000Y-66600
X35000Y-98500
X35000Y-99500
X36000Y-33300
X36000Y-66600
X36000Y-98500
X36000Y-99500
X37000Y-33300
X37000Y-66600
X37000Y-98500
X37000Y-99500
X38000Y-21000
X38000Y-22000
X38000Y-33300
X38000Y-54500
X38000Y-55500
X38000Y-66600
X38000Y-87700
X38000Y-88700
X38000Y-98500
X38000Y-99500
X39000Y-21000
X39000Y-22000
X39000Y-33300
X39000Y-54500
X39000Y-55500
X39000Y-66600
X39000Y-87700
X39000Y-88700
X39000Y-98500
X39000Y-99500
X40000Y-21000
X40000Y-22000
X40000Y-33300
X40000Y-54500
X40000Y-55500
X40000Y-66600
X40000Y-87700
X40000Y-88700
X40000Y-98500
X40000Y-99500
X41000Y-21000
X41000Y-22000
X41000Y-33300
X41000Y-54500
X41000Y-55500
X41000Y-66600
X41000Y-87700
X41000Y-88700
X41000Y-98500
X41000Y-99500
X42000Y-21000
X42000Y-22000
X42000Y-33300
X42000Y-54500
X42000Y-55500
X42000Y-66600
X42000Y-87700
X42000Y-88700
X42000Y-98500
X42000Y-99500
X43000Y-33300
X43000Y-66600
X43000Y-98500
X43000Y-99500
X44000Y-33300
X44000Y-66600
X44000Y-98500
X44000Y-99500
X45000Y-33300
X45000Y-66600
X45000Y-98500
X45000Y-99500
X46000Y-33300
X46000Y-66600
X46000Y-98500
X46000Y-99500
X47000Y-33300
X47000Y-66600
X47000Y-98500
X47000Y-99500
X47987Y-44513
X48000Y-11300
X48000Y-12300
X48000Y-33300
X48000Y-45500
X48000Y-66600
X48000Y-78000
X48000Y-79000
X48000Y-98500
X48000Y-99500
X49000Y-11300
X49000Y-12300
X49000Y-45500
X49000Y-78000
X49000Y-79000
X49020Y-44541
X50000Y-11300
X50000Y-12300
X50000Y-44500
X50000Y-45500
X50000Y-78000
X50000Y-79000
X51000Y-11300
X51000Y-12300
X51000Y-44500
X51000Y-45500
X51000Y-78000
X51000Y-79000
X52000Y-11300
X52000Y-12300
X52000Y-33300
X52000Y-44500
X52000Y-45500
X52000Y-66600
X52000Y-78000
X52000Y-79000
X52000Y-98500
X52000Y-99500
X53000Y-33300
X53000Y-66600
X53000Y-98500
X53000Y-99500
X54000Y-33300
X54000Y-66600
X54000Y-98500
X54000Y-99500
X55000Y-33300
X55000Y-66600
X55000Y-98500
X55000Y-99500
X56000Y-33300
X56000Y-66600
X56000Y-98500
X56000Y-99500
X57000Y-33300
X57000Y-66600
X57000Y-98500
X57000Y-99500
X58000Y-21000
X58000Y-22000
X58000Y-33300
X58000Y-54500
X58000Y-55500
X58000Y-66600
X58000Y-87700
X58000Y-88700
X58000Y-98500
X58000Y-99500
X59000Y-21000
X59000Y-22000
X59000Y-33300
X59000Y-54500
X59000Y-55500
X59000Y-66600
X59000Y-87700
X59000Y-88700
X59000Y-98500
X59000Y-99500
X60000Y-21000
X60000Y-22000
X60000Y-33300
X60000Y-54500
X60000Y-55500
X60000Y-66600
X60000Y-87700
X60000Y-88700
X60000Y-98500
X60000Y-99500
X61000Y-21000
X61000Y-22000
X61000Y-33300
X61000Y-54500
X61000Y-55500
X61000Y-66600
X61000Y-87700
X61000Y-88700
X61000Y-98500
X61000Y-99500
X62000Y-21000
X62000Y-22000
X62000Y-33300
X62000Y-54500
X62000Y-55500
X62000Y-66600
X62000Y-87700
X62000Y-88700
X62000Y-98500
X62000Y-99500
X63000Y-33300
X63000Y-66600
X63000Y-98500
X63000Y-99500
X64000Y-33300
X64000Y-66600
X64000Y-98500
X64000Y-99500
X65000Y-33300
X65000Y-66600
X65000Y-98500
X65000Y-99500
X66000Y-33300
X66000Y-66600
X66000Y-98500
X66000Y-99500
X67000Y-33300
X67000Y-66600
X67000Y-98500
X67000Y-99500
X68000Y-11300
X68000Y-12300
X68000Y-33300
X68000Y-44500
X68000Y-45500
X68000Y-66600
X68000Y-78000
X68000Y-79000
X68000Y-98500
X68000Y-99500
X69000Y-11300
X69000Y-12300
X69000Y-33300
X69000Y-44500
X69000Y-45500
X69000Y-66600
X69000Y-78000
X69000Y-79000
X69000Y-98500
X69000Y-99500
X70000Y-11300
X70000Y-12300
X70000Y-33300
X70000Y-44500
X70000Y-45500
X70000Y-66600
X70000Y-78000
X70000Y-79000
X70000Y-98500
X70000Y-99500
X71000Y-11300
X71000Y-12300
X71000Y-33300
X71000Y-44500
X71000Y-45500
X71000Y-66600
X71000Y-78000
X71000Y-79000
X71000Y-98500
X71000Y-99500
X72000Y-11300
X72000Y-12300
X72000Y-33300
X72000Y-44500
X72000Y-45500
X72000Y-66600
X72000Y-78000
X72000Y-79000
X72000Y-98500
X72000Y-99500
X73000Y-33300
X73000Y-66600
X73000Y-98500
X73000Y-99500
X74000Y-33300
X74000Y-66600
X74000Y-98500
X74000Y-99500
X75000Y-33300
X75000Y-66600
X75000Y-98500
X75000Y-99500
X76000Y-33300
X76000Y-66600
X76000Y-98500
X76000Y-99500
X77000Y-33300
X77000Y-66600
X77000Y-98500
X77000Y-99500
X78000Y-21000
X78000Y-22000
X78000Y-33300
X78000Y-54500
X78000Y-55500
X78000Y-66600
X78000Y-87700
X78000Y-88700
X78000Y-98500
X78000Y-99500
X79000Y-21000
X79000Y-22000
X79000Y-33300
X79000Y-54500
X79000Y-55500
X79000Y-66600
X79000Y-87700
X79000Y-88700
X79000Y-98500
X79000Y-99500
X80000Y-21000
X80000Y-22000
X80000Y-33300
X80000Y-54500
X80000Y-55500
X80000Y-66600
X80000Y-87700
X80000Y-88700
X80000Y-98500
X80000Y-99500
X81000Y-21000
X81000Y-22000
X81000Y-33300
X81000Y-54500
X81000Y-55500
X81000Y-66600
X81000Y-87700
X81000Y-88700
X81000Y-98500
X81000Y-99500
X82000Y-21000
X82000Y-22000
X82000Y-33300
X82000Y-54500
X82000Y-55500
X82000Y-66600
X82000Y-87700
X82000Y-88700
X82000Y-98500
X82000Y-99500
X83000Y-33300
X83000Y-66600
X83000Y-98500
X83000Y-99500
X84000Y-33300
X84000Y-66600
X84000Y-98500
X84000Y-99500
X85000Y-33300
X85000Y-66600
X85000Y-98500
X85000Y-99500
X86000Y-33300
X86000Y-66600
X86000Y-98500
X86000Y-99500
X87000Y-33300
X87000Y-66600
X87000Y-98500
X87000Y-99500
X88000Y-11300
X88000Y-12300
X88000Y-33300
X88000Y-44500
X88000Y-45500
X88000Y-66600
X88000Y-78000
X88000Y-79000
X88000Y-98500
X88000Y-99500
X89000Y-11300
X89000Y-12300
X89000Y-33300
X89000Y-44500
X89000Y-45500
X89000Y-66600
X89000Y-78000
X89000Y-79000
X89000Y-98500
X89000Y-99500
X90000Y-11300
X90000Y-12300
X90000Y-33300
X90000Y-44500
X90000Y-45500
X90000Y-66600
X90000Y-78000
X90000Y-79000
X90000Y-98500
X90000Y-99500
X91000Y-11300
X91000Y-12300
X91000Y-33300
X91000Y-44500
X91000Y-45500
X91000Y-66600
X91000Y-78000
X91000Y-79000
X91000Y-98500
X91000Y-99500
X92000Y-11300
X92000Y-12300
X92000Y-33300
X92000Y-44500
X92000Y-45500
X92000Y-66600
X92000Y-78000
X92000Y-79000
X92000Y-98500
X92000Y-99500
X93000Y-33300
X93000Y-66600
X93000Y-98500
X93000Y-99500
X94000Y-33300
X94000Y-66600
X94000Y-98500
X94000Y-99500
X95000Y-33300
X95000Y-66600
X95000Y-98500
X95000Y-99500
X96000Y-33300
X96000Y-66600
X96000Y-98500
X96000Y-99500
X97000Y-33300
X97000Y-66600
X97000Y-98500
X97000Y-99500
X98000Y-21000
X98000Y-22000
X98000Y-33300
X98000Y-54500
X98000Y-55500
X98000Y-66600
X98000Y-87700
X98000Y-88700
X98000Y-98500
X98000Y-99500
X99000Y-21000
X99000Y-22000
X99000Y-33300
X99000Y-54500
X99000Y-55500
X99000Y-66600
X99000Y-87700
X99000Y-88700
X99000Y-98500
X99000Y-99500
X100000Y-21000
X100000Y-22000
X100000Y-54500
X100000Y-55500
X100000Y-87700
X100000Y-88700
T2
X50000Y-66600
X50000Y-98700
X50000Y-33300
X50000Y-1300
T3
X40000Y-94959
X0Y-94959
X80000Y-28293
X70000Y-71708
X40000Y-61626
X60000Y-94959
X50000Y-71708
X30000Y-5042
X10000Y-71708
X80000Y-94959
X30000Y-71708
X0Y-28293
X90000Y-5042
X90000Y-38375
X70000Y-38375
X10000Y-5042
X100000Y-28293
X30000Y-38375
X50000Y-38375
X80000Y-61626
X90000Y-71708
X20000Y-94959
X40000Y-28293
X10000Y-38375
X0Y-61626
X20000Y-28293
X100000Y-61626
X20000Y-61626
X60000Y-61626
X60000Y-28293
X100000Y-94959
X70000Y-5042
X50000Y-5042
T4
X8500Y-15151
X9000Y-15151
X10000Y-15151
X11000Y-15151
X11500Y-15151
X98500Y-18184
X99000Y-18184
X100000Y-18184
X28500Y-48484
X29000Y-48484
X30000Y-48484
X31000Y-48484
X31500Y-48484
X48500Y-48484
X49000Y-48484
X50000Y-48484
X51000Y-48484
X51500Y-48484
X78500Y-51517
X79000Y-51517
X80000Y-51517
X81000Y-51517
X81500Y-51517
X88500Y-81817
X89000Y-81817
X90000Y-81817
X91000Y-81817
X91500Y-81817
X18500Y-84850
X19000Y-84850
X20000Y-84850
X21000Y-84850
X21500Y-84850
X38500Y-18184
X39000Y-18184
X40000Y-18184
X41000Y-18184
X41500Y-18184
X8500Y-48484
X9000Y-48484
X10000Y-48484
X11000Y-48484
X11500Y-48484
X0Y-51517
X1000Y-51517
X1500Y-51517
X18500Y-18184
X19000Y-18184
X20000Y-18184
X21000Y-18184
X21500Y-18184
X98500Y-51517
X99000Y-51517
X100000Y-51517
X18500Y-51517
X19000Y-51517
X20000Y-51517
X21000Y-51517
X21500Y-51517
X58500Y-51517
X59000Y-51517
X60000Y-51517
X61000Y-51517
X61500Y-51517
X58500Y-18184
X59000Y-18184
X60000Y-18184
X61000Y-18184
X61500Y-18184
X98500Y-84850
X99000Y-84850
X100000Y-84850
X68500Y-15151
X69000Y-15151
X70000Y-15151
X71000Y-15151
X71500Y-15151
X48500Y-15151
X49000Y-15151
X50000Y-15151
X51000Y-15151
X51500Y-15151
X38500Y-84850
X39000Y-84850
X40000Y-84850
X41000Y-84850
X41500Y-84850
X0Y-84850
X1000Y-84850
X1500Y-84850
X78500Y-18184
X79000Y-18184
X80000Y-18184
X81000Y-18184
X81500Y-18184
X68500Y-81817
X69000Y-81817
X70000Y-81817
X71000Y-81817
X71500Y-81817
X38500Y-51517
X39000Y-51517
X40000Y-51517
X41000Y-51517
X41500Y-51517
X58500Y-84850
X59000Y-84850
X60000Y-84850
X61000Y-84850
X61500Y-84850
X48500Y-81817
X49000Y-81817
X50000Y-81817
X51000Y-81817
X51500Y-81817
X28500Y-15151
X29000Y-15151
X30000Y-15151
X31000Y-15151
X31500Y-15151
X8500Y-81817
X9000Y-81817
X10000Y-81817
X11000Y-81817
X11500Y-81817
X78500Y-84850
X79000Y-84850
X80000Y-84850
X81000Y-84850
X81500Y-84850
X28500Y-81817
X29000Y-81817
X30000Y-81817
X31000Y-81817
X31500Y-81817
X0Y-18184
X1000Y-18184
X1500Y-18184
X88500Y-15151
X89000Y-15151
X90000Y-15151
X91000Y-15151
X91500Y-15151
X88500Y-48484
X89000Y-48484
X90000Y-48484
X91000Y-48484
X91500Y-48484
X68500Y-48484
X69000Y-48484
X70000Y-48484
X71000Y-48484
X71500Y-48484
T5
X20000Y-75850
X40000Y-9184
X10000Y-57484
X0Y-42517
X20000Y-9184
X100000Y-42517
X20000Y-42517
X60000Y-42517
X60000Y-9184
X100000Y-75850
X70000Y-24151
X50000Y-24151
X40000Y-75850
X0Y-75850
X80000Y-9184
X70000Y-90817
X40000Y-42517
X60000Y-75850
X50000Y-90817
X30000Y-24151
X10000Y-90817
X80000Y-75850
X30000Y-90817
X0Y-9184
X90000Y-24151
X90000Y-57484
X70000Y-57484
X10000Y-24151
X100000Y-9184
X30000Y-57484
X50000Y-57484
X80000Y-42517
X90000Y-90817
T0
M30
