G04 #@! TF.GenerationSoftware,KiCad,Pcbnew,5.1.0-unknown-c054944~86~ubuntu19.04.1*
G04 #@! TF.CreationDate,2019-05-13T16:05:13-04:00*
G04 #@! TF.ProjectId,pack,7061636b-2e6b-4696-9361-645f70636258,rev?*
G04 #@! TF.SameCoordinates,Original*
G04 #@! TF.FileFunction,Legend,Top*
G04 #@! TF.FilePolarity,Positive*
%FSLAX46Y46*%
G04 Gerber Fmt 4.6, Leading zero omitted, Abs format (unit mm)*
G04 Created by KiCad (PCBNEW 5.1.0-unknown-c054944~86~ubuntu19.04.1) date 2019-05-13 16:05:13*
%MOMM*%
%LPD*%
G04 APERTURE LIST*
%ADD10C,0.120000*%
%ADD11C,0.150000*%
G04 APERTURE END LIST*
D10*
X158870000Y-185520000D02*
X158870000Y-179520000D01*
X158870000Y-179520000D02*
X125650000Y-179520000D01*
X125650000Y-179520000D02*
X125650000Y-185520000D01*
X125650000Y-185520000D02*
X158870000Y-185520000D01*
X157500000Y-179520000D02*
X157500000Y-180520000D01*
X157500000Y-180520000D02*
X152420000Y-180520000D01*
X152420000Y-180520000D02*
X152420000Y-179520000D01*
X157500000Y-180520000D02*
X157250000Y-180950000D01*
X157250000Y-180950000D02*
X152420000Y-180950000D01*
X152420000Y-180950000D02*
X152420000Y-180520000D01*
X157250000Y-179520000D02*
X157250000Y-180520000D01*
X127020000Y-179520000D02*
X127020000Y-180520000D01*
X127020000Y-180520000D02*
X132100000Y-180520000D01*
X132100000Y-180520000D02*
X132100000Y-179520000D01*
X127020000Y-180520000D02*
X127270000Y-180950000D01*
X127270000Y-180950000D02*
X132100000Y-180950000D01*
X132100000Y-180950000D02*
X132100000Y-180520000D01*
X127270000Y-179520000D02*
X127270000Y-180520000D01*
X158300000Y-185520000D02*
X158300000Y-184900000D01*
X158300000Y-184900000D02*
X156700000Y-184900000D01*
X156700000Y-184900000D02*
X156700000Y-185520000D01*
X155760000Y-185520000D02*
X155760000Y-184900000D01*
X155760000Y-184900000D02*
X154160000Y-184900000D01*
X154160000Y-184900000D02*
X154160000Y-185520000D01*
X153220000Y-185520000D02*
X153220000Y-184900000D01*
X153220000Y-184900000D02*
X151620000Y-184900000D01*
X151620000Y-184900000D02*
X151620000Y-185520000D01*
X150680000Y-185520000D02*
X150680000Y-184900000D01*
X150680000Y-184900000D02*
X149080000Y-184900000D01*
X149080000Y-184900000D02*
X149080000Y-185520000D01*
X148140000Y-185520000D02*
X148140000Y-184900000D01*
X148140000Y-184900000D02*
X146540000Y-184900000D01*
X146540000Y-184900000D02*
X146540000Y-185520000D01*
X145600000Y-185520000D02*
X145600000Y-184900000D01*
X145600000Y-184900000D02*
X144000000Y-184900000D01*
X144000000Y-184900000D02*
X144000000Y-185520000D01*
X143060000Y-185520000D02*
X143060000Y-184900000D01*
X143060000Y-184900000D02*
X141460000Y-184900000D01*
X141460000Y-184900000D02*
X141460000Y-185520000D01*
X140520000Y-185520000D02*
X140520000Y-184900000D01*
X140520000Y-184900000D02*
X138920000Y-184900000D01*
X138920000Y-184900000D02*
X138920000Y-185520000D01*
X137980000Y-185520000D02*
X137980000Y-184900000D01*
X137980000Y-184900000D02*
X136380000Y-184900000D01*
X136380000Y-184900000D02*
X136380000Y-185520000D01*
X135440000Y-185520000D02*
X135440000Y-184900000D01*
X135440000Y-184900000D02*
X133840000Y-184900000D01*
X133840000Y-184900000D02*
X133840000Y-185520000D01*
X132900000Y-185520000D02*
X132900000Y-184900000D01*
X132900000Y-184900000D02*
X131300000Y-184900000D01*
X131300000Y-184900000D02*
X131300000Y-185520000D01*
X130360000Y-185520000D02*
X130360000Y-184900000D01*
X130360000Y-184900000D02*
X128760000Y-184900000D01*
X128760000Y-184900000D02*
X128760000Y-185520000D01*
X127820000Y-185520000D02*
X127820000Y-184900000D01*
X127820000Y-184900000D02*
X126220000Y-184900000D01*
X126220000Y-184900000D02*
X126220000Y-185520000D01*
X110950000Y-189330000D02*
X110950000Y-186670000D01*
X103270000Y-189330000D02*
X110950000Y-189330000D01*
X103270000Y-186670000D02*
X110950000Y-186670000D01*
X103270000Y-189330000D02*
X103270000Y-186670000D01*
X102000000Y-189330000D02*
X100670000Y-189330000D01*
X100670000Y-189330000D02*
X100670000Y-188000000D01*
X102047800Y-183248000D02*
X102747800Y-183248000D01*
X102747800Y-184448000D02*
X102047800Y-184448000D01*
X102047800Y-181848000D02*
X102747800Y-181848000D01*
X102747800Y-183048000D02*
X102047800Y-183048000D01*
D11*
X107905800Y-179871600D02*
X107905800Y-175471600D01*
X102380800Y-181446600D02*
X102380800Y-175471600D01*
D10*
X226718000Y-18791000D02*
X225518000Y-18791000D01*
X225518000Y-17031000D02*
X226718000Y-17031000D01*
X207457600Y-35750200D02*
X206257600Y-35750200D01*
X206257600Y-33990200D02*
X207457600Y-33990200D01*
X176770600Y-52939600D02*
X175570600Y-52939600D01*
X175570600Y-51179600D02*
X176770600Y-51179600D01*
X106897800Y-186028000D02*
X105897800Y-186028000D01*
X105897800Y-184668000D02*
X106897800Y-184668000D01*
X101697800Y-184668000D02*
X102697800Y-184668000D01*
X102697800Y-186028000D02*
X101697800Y-186028000D01*
X113991800Y-179159600D02*
X112991800Y-179159600D01*
X112991800Y-177799600D02*
X113991800Y-177799600D01*
X113991800Y-180759600D02*
X112991800Y-180759600D01*
X112991800Y-179399600D02*
X113991800Y-179399600D01*
X113991800Y-182359600D02*
X112991800Y-182359600D01*
X112991800Y-180999600D02*
X113991800Y-180999600D01*
X113991800Y-183959600D02*
X112991800Y-183959600D01*
X112991800Y-182599600D02*
X113991800Y-182599600D01*
X113991800Y-185559600D02*
X112991800Y-185559600D01*
X112991800Y-184199600D02*
X113991800Y-184199600D01*
X113991800Y-187159600D02*
X112991800Y-187159600D01*
X112991800Y-185799600D02*
X113991800Y-185799600D01*
X113991800Y-188759600D02*
X112991800Y-188759600D01*
X112991800Y-187399600D02*
X113991800Y-187399600D01*
X113991800Y-190359600D02*
X112991800Y-190359600D01*
X112991800Y-188999600D02*
X113991800Y-188999600D01*
X82730000Y-184980000D02*
X82730000Y-190980000D01*
X82730000Y-190980000D02*
X93090000Y-190980000D01*
X93090000Y-190980000D02*
X93090000Y-184980000D01*
X93090000Y-184980000D02*
X82730000Y-184980000D01*
X84100000Y-190980000D02*
X84100000Y-189980000D01*
X84100000Y-189980000D02*
X91720000Y-189980000D01*
X91720000Y-189980000D02*
X91720000Y-190980000D01*
X84100000Y-189980000D02*
X84350000Y-189550000D01*
X84350000Y-189550000D02*
X91470000Y-189550000D01*
X91470000Y-189550000D02*
X91720000Y-189980000D01*
X84350000Y-190980000D02*
X84350000Y-189980000D01*
X91470000Y-190980000D02*
X91470000Y-189980000D01*
X83300000Y-184980000D02*
X83300000Y-185600000D01*
X83300000Y-185600000D02*
X84900000Y-185600000D01*
X84900000Y-185600000D02*
X84900000Y-184980000D01*
X85840000Y-184980000D02*
X85840000Y-185600000D01*
X85840000Y-185600000D02*
X87440000Y-185600000D01*
X87440000Y-185600000D02*
X87440000Y-184980000D01*
X88380000Y-184980000D02*
X88380000Y-185600000D01*
X88380000Y-185600000D02*
X89980000Y-185600000D01*
X89980000Y-185600000D02*
X89980000Y-184980000D01*
X90920000Y-184980000D02*
X90920000Y-185600000D01*
X90920000Y-185600000D02*
X92520000Y-185600000D01*
X92520000Y-185600000D02*
X92520000Y-184980000D01*
X105847800Y-183248000D02*
X106547800Y-183248000D01*
X106547800Y-184448000D02*
X105847800Y-184448000D01*
X105847800Y-181848000D02*
X106547800Y-181848000D01*
X106547800Y-183048000D02*
X105847800Y-183048000D01*
X120740800Y-177879600D02*
X121440800Y-177879600D01*
X121440800Y-179079600D02*
X120740800Y-179079600D01*
X120740800Y-179479600D02*
X121440800Y-179479600D01*
X121440800Y-180679600D02*
X120740800Y-180679600D01*
X120740800Y-181079600D02*
X121440800Y-181079600D01*
X121440800Y-182279600D02*
X120740800Y-182279600D01*
X120740800Y-182679600D02*
X121440800Y-182679600D01*
X121440800Y-183879600D02*
X120740800Y-183879600D01*
X120740800Y-184179600D02*
X121440800Y-184179600D01*
X121440800Y-185379600D02*
X120740800Y-185379600D01*
X120740800Y-185879600D02*
X121440800Y-185879600D01*
X121440800Y-187079600D02*
X120740800Y-187079600D01*
X120740800Y-187479600D02*
X121440800Y-187479600D01*
X121440800Y-188679600D02*
X120740800Y-188679600D01*
X120740800Y-189079600D02*
X121440800Y-189079600D01*
X121440800Y-190279600D02*
X120740800Y-190279600D01*
X158810000Y-189330000D02*
X158810000Y-186670000D01*
X128270000Y-189330000D02*
X158810000Y-189330000D01*
X128270000Y-186670000D02*
X158810000Y-186670000D01*
X128270000Y-189330000D02*
X128270000Y-186670000D01*
X127000000Y-189330000D02*
X125670000Y-189330000D01*
X125670000Y-189330000D02*
X125670000Y-188000000D01*
X147564400Y-70410000D02*
X146364400Y-70410000D01*
X146364400Y-68650000D02*
X147564400Y-68650000D01*
X116523200Y-84917400D02*
X117723200Y-84917400D01*
X117723200Y-86677400D02*
X116523200Y-86677400D01*
X87852800Y-106018800D02*
X86652800Y-106018800D01*
X86652800Y-104258800D02*
X87852800Y-104258800D01*
X57292800Y-122185400D02*
X56092800Y-122185400D01*
X56092800Y-120425400D02*
X57292800Y-120425400D01*
X27700000Y-140580000D02*
X26500000Y-140580000D01*
X26500000Y-138820000D02*
X27700000Y-138820000D01*
D11*
X156166666Y-186452380D02*
X156166666Y-187166666D01*
X156119047Y-187309523D01*
X156023809Y-187404761D01*
X155880952Y-187452380D01*
X155785714Y-187452380D01*
X156547619Y-186452380D02*
X157166666Y-186452380D01*
X156833333Y-186833333D01*
X156976190Y-186833333D01*
X157071428Y-186880952D01*
X157119047Y-186928571D01*
X157166666Y-187023809D01*
X157166666Y-187261904D01*
X157119047Y-187357142D01*
X157071428Y-187404761D01*
X156976190Y-187452380D01*
X156690476Y-187452380D01*
X156595238Y-187404761D01*
X156547619Y-187357142D01*
X99122380Y-188333333D02*
X99836666Y-188333333D01*
X99979523Y-188380952D01*
X100074761Y-188476190D01*
X100122380Y-188619047D01*
X100122380Y-188714285D01*
X99455714Y-187428571D02*
X100122380Y-187428571D01*
X99074761Y-187666666D02*
X99789047Y-187904761D01*
X99789047Y-187285714D01*
X73830371Y-45535904D02*
X73877990Y-45393047D01*
X73925609Y-45345428D01*
X74020847Y-45297809D01*
X74163704Y-45297809D01*
X74258942Y-45345428D01*
X74306561Y-45393047D01*
X74354180Y-45488285D01*
X74354180Y-45869238D01*
X73354180Y-45869238D01*
X73354180Y-45535904D01*
X73401800Y-45440666D01*
X73449419Y-45393047D01*
X73544657Y-45345428D01*
X73639895Y-45345428D01*
X73735133Y-45393047D01*
X73782752Y-45440666D01*
X73830371Y-45535904D01*
X73830371Y-45869238D01*
X73354180Y-45012095D02*
X73354180Y-44440666D01*
X74354180Y-44726380D02*
X73354180Y-44726380D01*
X73354180Y-44202571D02*
X73354180Y-43583523D01*
X73735133Y-43916857D01*
X73735133Y-43774000D01*
X73782752Y-43678761D01*
X73830371Y-43631142D01*
X73925609Y-43583523D01*
X74163704Y-43583523D01*
X74258942Y-43631142D01*
X74306561Y-43678761D01*
X74354180Y-43774000D01*
X74354180Y-44059714D01*
X74306561Y-44154952D01*
X74258942Y-44202571D01*
X73687514Y-42726380D02*
X74354180Y-42726380D01*
X73306561Y-42964476D02*
X74020847Y-43202571D01*
X74020847Y-42583523D01*
X98454942Y-184255142D02*
X98407323Y-184302761D01*
X98264466Y-184350380D01*
X98169228Y-184350380D01*
X98026371Y-184302761D01*
X97931133Y-184207523D01*
X97883514Y-184112285D01*
X97835895Y-183921809D01*
X97835895Y-183778952D01*
X97883514Y-183588476D01*
X97931133Y-183493238D01*
X98026371Y-183398000D01*
X98169228Y-183350380D01*
X98264466Y-183350380D01*
X98407323Y-183398000D01*
X98454942Y-183445619D01*
X99407323Y-184350380D02*
X98835895Y-184350380D01*
X99121609Y-184350380D02*
X99121609Y-183350380D01*
X99026371Y-183493238D01*
X98931133Y-183588476D01*
X98835895Y-183636095D01*
X99788276Y-183445619D02*
X99835895Y-183398000D01*
X99931133Y-183350380D01*
X100169228Y-183350380D01*
X100264466Y-183398000D01*
X100312085Y-183445619D01*
X100359704Y-183540857D01*
X100359704Y-183636095D01*
X100312085Y-183778952D01*
X99740657Y-184350380D01*
X100359704Y-184350380D01*
X98654942Y-182705142D02*
X98607323Y-182752761D01*
X98464466Y-182800380D01*
X98369228Y-182800380D01*
X98226371Y-182752761D01*
X98131133Y-182657523D01*
X98083514Y-182562285D01*
X98035895Y-182371809D01*
X98035895Y-182228952D01*
X98083514Y-182038476D01*
X98131133Y-181943238D01*
X98226371Y-181848000D01*
X98369228Y-181800380D01*
X98464466Y-181800380D01*
X98607323Y-181848000D01*
X98654942Y-181895619D01*
X99607323Y-182800380D02*
X99035895Y-182800380D01*
X99321609Y-182800380D02*
X99321609Y-181800380D01*
X99226371Y-181943238D01*
X99131133Y-182038476D01*
X99035895Y-182086095D01*
X100559704Y-182800380D02*
X99988276Y-182800380D01*
X100273990Y-182800380D02*
X100273990Y-181800380D01*
X100178752Y-181943238D01*
X100083514Y-182038476D01*
X99988276Y-182086095D01*
X101083180Y-178433504D02*
X101892704Y-178433504D01*
X101987942Y-178385885D01*
X102035561Y-178338266D01*
X102083180Y-178243028D01*
X102083180Y-178052552D01*
X102035561Y-177957314D01*
X101987942Y-177909695D01*
X101892704Y-177862076D01*
X101083180Y-177862076D01*
X102083180Y-176862076D02*
X102083180Y-177433504D01*
X102083180Y-177147790D02*
X101083180Y-177147790D01*
X101226038Y-177243028D01*
X101321276Y-177338266D01*
X101368895Y-177433504D01*
X224832285Y-15663380D02*
X225403714Y-15663380D01*
X225118000Y-16663380D02*
X225118000Y-15663380D01*
X225737047Y-16663380D02*
X225737047Y-15663380D01*
X225737047Y-16139571D02*
X226308476Y-16139571D01*
X226308476Y-16663380D02*
X226308476Y-15663380D01*
X226927523Y-16091952D02*
X226832285Y-16044333D01*
X226784666Y-15996714D01*
X226737047Y-15901476D01*
X226737047Y-15853857D01*
X226784666Y-15758619D01*
X226832285Y-15711000D01*
X226927523Y-15663380D01*
X227118000Y-15663380D01*
X227213238Y-15711000D01*
X227260857Y-15758619D01*
X227308476Y-15853857D01*
X227308476Y-15901476D01*
X227260857Y-15996714D01*
X227213238Y-16044333D01*
X227118000Y-16091952D01*
X226927523Y-16091952D01*
X226832285Y-16139571D01*
X226784666Y-16187190D01*
X226737047Y-16282428D01*
X226737047Y-16472904D01*
X226784666Y-16568142D01*
X226832285Y-16615761D01*
X226927523Y-16663380D01*
X227118000Y-16663380D01*
X227213238Y-16615761D01*
X227260857Y-16568142D01*
X227308476Y-16472904D01*
X227308476Y-16282428D01*
X227260857Y-16187190D01*
X227213238Y-16139571D01*
X227118000Y-16091952D01*
X205571885Y-32622580D02*
X206143314Y-32622580D01*
X205857600Y-33622580D02*
X205857600Y-32622580D01*
X206476647Y-33622580D02*
X206476647Y-32622580D01*
X206476647Y-33098771D02*
X207048076Y-33098771D01*
X207048076Y-33622580D02*
X207048076Y-32622580D01*
X207429028Y-32622580D02*
X208095695Y-32622580D01*
X207667123Y-33622580D01*
X174884885Y-49811980D02*
X175456314Y-49811980D01*
X175170600Y-50811980D02*
X175170600Y-49811980D01*
X175789647Y-50811980D02*
X175789647Y-49811980D01*
X175789647Y-50288171D02*
X176361076Y-50288171D01*
X176361076Y-50811980D02*
X176361076Y-49811980D01*
X177265838Y-49811980D02*
X177075361Y-49811980D01*
X176980123Y-49859600D01*
X176932504Y-49907219D01*
X176837266Y-50050076D01*
X176789647Y-50240552D01*
X176789647Y-50621504D01*
X176837266Y-50716742D01*
X176884885Y-50764361D01*
X176980123Y-50811980D01*
X177170600Y-50811980D01*
X177265838Y-50764361D01*
X177313457Y-50716742D01*
X177361076Y-50621504D01*
X177361076Y-50383409D01*
X177313457Y-50288171D01*
X177265838Y-50240552D01*
X177170600Y-50192933D01*
X176980123Y-50192933D01*
X176884885Y-50240552D01*
X176837266Y-50288171D01*
X176789647Y-50383409D01*
X109157142Y-185852380D02*
X108823809Y-185376190D01*
X108585714Y-185852380D02*
X108585714Y-184852380D01*
X108966666Y-184852380D01*
X109061904Y-184900000D01*
X109109523Y-184947619D01*
X109157142Y-185042857D01*
X109157142Y-185185714D01*
X109109523Y-185280952D01*
X109061904Y-185328571D01*
X108966666Y-185376190D01*
X108585714Y-185376190D01*
X110109523Y-185852380D02*
X109538095Y-185852380D01*
X109823809Y-185852380D02*
X109823809Y-184852380D01*
X109728571Y-184995238D01*
X109633333Y-185090476D01*
X109538095Y-185138095D01*
X110728571Y-184852380D02*
X110823809Y-184852380D01*
X110919047Y-184900000D01*
X110966666Y-184947619D01*
X111014285Y-185042857D01*
X111061904Y-185233333D01*
X111061904Y-185471428D01*
X111014285Y-185661904D01*
X110966666Y-185757142D01*
X110919047Y-185804761D01*
X110823809Y-185852380D01*
X110728571Y-185852380D01*
X110633333Y-185804761D01*
X110585714Y-185757142D01*
X110538095Y-185661904D01*
X110490476Y-185471428D01*
X110490476Y-185233333D01*
X110538095Y-185042857D01*
X110585714Y-184947619D01*
X110633333Y-184900000D01*
X110728571Y-184852380D01*
X99031133Y-185900380D02*
X98697800Y-185424190D01*
X98459704Y-185900380D02*
X98459704Y-184900380D01*
X98840657Y-184900380D01*
X98935895Y-184948000D01*
X98983514Y-184995619D01*
X99031133Y-185090857D01*
X99031133Y-185233714D01*
X98983514Y-185328952D01*
X98935895Y-185376571D01*
X98840657Y-185424190D01*
X98459704Y-185424190D01*
X99507323Y-185900380D02*
X99697800Y-185900380D01*
X99793038Y-185852761D01*
X99840657Y-185805142D01*
X99935895Y-185662285D01*
X99983514Y-185471809D01*
X99983514Y-185090857D01*
X99935895Y-184995619D01*
X99888276Y-184948000D01*
X99793038Y-184900380D01*
X99602561Y-184900380D01*
X99507323Y-184948000D01*
X99459704Y-184995619D01*
X99412085Y-185090857D01*
X99412085Y-185328952D01*
X99459704Y-185424190D01*
X99507323Y-185471809D01*
X99602561Y-185519428D01*
X99793038Y-185519428D01*
X99888276Y-185471809D01*
X99935895Y-185424190D01*
X99983514Y-185328952D01*
X116233333Y-178952380D02*
X115900000Y-178476190D01*
X115661904Y-178952380D02*
X115661904Y-177952380D01*
X116042857Y-177952380D01*
X116138095Y-178000000D01*
X116185714Y-178047619D01*
X116233333Y-178142857D01*
X116233333Y-178285714D01*
X116185714Y-178380952D01*
X116138095Y-178428571D01*
X116042857Y-178476190D01*
X115661904Y-178476190D01*
X116804761Y-178380952D02*
X116709523Y-178333333D01*
X116661904Y-178285714D01*
X116614285Y-178190476D01*
X116614285Y-178142857D01*
X116661904Y-178047619D01*
X116709523Y-178000000D01*
X116804761Y-177952380D01*
X116995238Y-177952380D01*
X117090476Y-178000000D01*
X117138095Y-178047619D01*
X117185714Y-178142857D01*
X117185714Y-178190476D01*
X117138095Y-178285714D01*
X117090476Y-178333333D01*
X116995238Y-178380952D01*
X116804761Y-178380952D01*
X116709523Y-178428571D01*
X116661904Y-178476190D01*
X116614285Y-178571428D01*
X116614285Y-178761904D01*
X116661904Y-178857142D01*
X116709523Y-178904761D01*
X116804761Y-178952380D01*
X116995238Y-178952380D01*
X117090476Y-178904761D01*
X117138095Y-178857142D01*
X117185714Y-178761904D01*
X117185714Y-178571428D01*
X117138095Y-178476190D01*
X117090476Y-178428571D01*
X116995238Y-178380952D01*
X116233333Y-180531980D02*
X115900000Y-180055790D01*
X115661904Y-180531980D02*
X115661904Y-179531980D01*
X116042857Y-179531980D01*
X116138095Y-179579600D01*
X116185714Y-179627219D01*
X116233333Y-179722457D01*
X116233333Y-179865314D01*
X116185714Y-179960552D01*
X116138095Y-180008171D01*
X116042857Y-180055790D01*
X115661904Y-180055790D01*
X116566666Y-179531980D02*
X117233333Y-179531980D01*
X116804761Y-180531980D01*
X116233333Y-182152380D02*
X115900000Y-181676190D01*
X115661904Y-182152380D02*
X115661904Y-181152380D01*
X116042857Y-181152380D01*
X116138095Y-181200000D01*
X116185714Y-181247619D01*
X116233333Y-181342857D01*
X116233333Y-181485714D01*
X116185714Y-181580952D01*
X116138095Y-181628571D01*
X116042857Y-181676190D01*
X115661904Y-181676190D01*
X117090476Y-181152380D02*
X116900000Y-181152380D01*
X116804761Y-181200000D01*
X116757142Y-181247619D01*
X116661904Y-181390476D01*
X116614285Y-181580952D01*
X116614285Y-181961904D01*
X116661904Y-182057142D01*
X116709523Y-182104761D01*
X116804761Y-182152380D01*
X116995238Y-182152380D01*
X117090476Y-182104761D01*
X117138095Y-182057142D01*
X117185714Y-181961904D01*
X117185714Y-181723809D01*
X117138095Y-181628571D01*
X117090476Y-181580952D01*
X116995238Y-181533333D01*
X116804761Y-181533333D01*
X116709523Y-181580952D01*
X116661904Y-181628571D01*
X116614285Y-181723809D01*
X116233333Y-183731980D02*
X115900000Y-183255790D01*
X115661904Y-183731980D02*
X115661904Y-182731980D01*
X116042857Y-182731980D01*
X116138095Y-182779600D01*
X116185714Y-182827219D01*
X116233333Y-182922457D01*
X116233333Y-183065314D01*
X116185714Y-183160552D01*
X116138095Y-183208171D01*
X116042857Y-183255790D01*
X115661904Y-183255790D01*
X117138095Y-182731980D02*
X116661904Y-182731980D01*
X116614285Y-183208171D01*
X116661904Y-183160552D01*
X116757142Y-183112933D01*
X116995238Y-183112933D01*
X117090476Y-183160552D01*
X117138095Y-183208171D01*
X117185714Y-183303409D01*
X117185714Y-183541504D01*
X117138095Y-183636742D01*
X117090476Y-183684361D01*
X116995238Y-183731980D01*
X116757142Y-183731980D01*
X116661904Y-183684361D01*
X116614285Y-183636742D01*
X116233333Y-185331980D02*
X115900000Y-184855790D01*
X115661904Y-185331980D02*
X115661904Y-184331980D01*
X116042857Y-184331980D01*
X116138095Y-184379600D01*
X116185714Y-184427219D01*
X116233333Y-184522457D01*
X116233333Y-184665314D01*
X116185714Y-184760552D01*
X116138095Y-184808171D01*
X116042857Y-184855790D01*
X115661904Y-184855790D01*
X117090476Y-184665314D02*
X117090476Y-185331980D01*
X116852380Y-184284361D02*
X116614285Y-184998647D01*
X117233333Y-184998647D01*
X116233333Y-186952380D02*
X115900000Y-186476190D01*
X115661904Y-186952380D02*
X115661904Y-185952380D01*
X116042857Y-185952380D01*
X116138095Y-186000000D01*
X116185714Y-186047619D01*
X116233333Y-186142857D01*
X116233333Y-186285714D01*
X116185714Y-186380952D01*
X116138095Y-186428571D01*
X116042857Y-186476190D01*
X115661904Y-186476190D01*
X116566666Y-185952380D02*
X117185714Y-185952380D01*
X116852380Y-186333333D01*
X116995238Y-186333333D01*
X117090476Y-186380952D01*
X117138095Y-186428571D01*
X117185714Y-186523809D01*
X117185714Y-186761904D01*
X117138095Y-186857142D01*
X117090476Y-186904761D01*
X116995238Y-186952380D01*
X116709523Y-186952380D01*
X116614285Y-186904761D01*
X116566666Y-186857142D01*
X116233333Y-188531980D02*
X115900000Y-188055790D01*
X115661904Y-188531980D02*
X115661904Y-187531980D01*
X116042857Y-187531980D01*
X116138095Y-187579600D01*
X116185714Y-187627219D01*
X116233333Y-187722457D01*
X116233333Y-187865314D01*
X116185714Y-187960552D01*
X116138095Y-188008171D01*
X116042857Y-188055790D01*
X115661904Y-188055790D01*
X116614285Y-187627219D02*
X116661904Y-187579600D01*
X116757142Y-187531980D01*
X116995238Y-187531980D01*
X117090476Y-187579600D01*
X117138095Y-187627219D01*
X117185714Y-187722457D01*
X117185714Y-187817695D01*
X117138095Y-187960552D01*
X116566666Y-188531980D01*
X117185714Y-188531980D01*
X116233333Y-190131980D02*
X115900000Y-189655790D01*
X115661904Y-190131980D02*
X115661904Y-189131980D01*
X116042857Y-189131980D01*
X116138095Y-189179600D01*
X116185714Y-189227219D01*
X116233333Y-189322457D01*
X116233333Y-189465314D01*
X116185714Y-189560552D01*
X116138095Y-189608171D01*
X116042857Y-189655790D01*
X115661904Y-189655790D01*
X117185714Y-190131980D02*
X116614285Y-190131980D01*
X116900000Y-190131980D02*
X116900000Y-189131980D01*
X116804761Y-189274838D01*
X116709523Y-189370076D01*
X116614285Y-189417695D01*
X84766666Y-182952380D02*
X84766666Y-183666666D01*
X84719047Y-183809523D01*
X84623809Y-183904761D01*
X84480952Y-183952380D01*
X84385714Y-183952380D01*
X85195238Y-183047619D02*
X85242857Y-183000000D01*
X85338095Y-182952380D01*
X85576190Y-182952380D01*
X85671428Y-183000000D01*
X85719047Y-183047619D01*
X85766666Y-183142857D01*
X85766666Y-183238095D01*
X85719047Y-183380952D01*
X85147619Y-183952380D01*
X85766666Y-183952380D01*
X108854942Y-184205142D02*
X108807323Y-184252761D01*
X108664466Y-184300380D01*
X108569228Y-184300380D01*
X108426371Y-184252761D01*
X108331133Y-184157523D01*
X108283514Y-184062285D01*
X108235895Y-183871809D01*
X108235895Y-183728952D01*
X108283514Y-183538476D01*
X108331133Y-183443238D01*
X108426371Y-183348000D01*
X108569228Y-183300380D01*
X108664466Y-183300380D01*
X108807323Y-183348000D01*
X108854942Y-183395619D01*
X109807323Y-184300380D02*
X109235895Y-184300380D01*
X109521609Y-184300380D02*
X109521609Y-183300380D01*
X109426371Y-183443238D01*
X109331133Y-183538476D01*
X109235895Y-183586095D01*
X110426371Y-183300380D02*
X110521609Y-183300380D01*
X110616847Y-183348000D01*
X110664466Y-183395619D01*
X110712085Y-183490857D01*
X110759704Y-183681333D01*
X110759704Y-183919428D01*
X110712085Y-184109904D01*
X110664466Y-184205142D01*
X110616847Y-184252761D01*
X110521609Y-184300380D01*
X110426371Y-184300380D01*
X110331133Y-184252761D01*
X110283514Y-184205142D01*
X110235895Y-184109904D01*
X110188276Y-183919428D01*
X110188276Y-183681333D01*
X110235895Y-183490857D01*
X110283514Y-183395619D01*
X110331133Y-183348000D01*
X110426371Y-183300380D01*
X108931133Y-182905142D02*
X108883514Y-182952761D01*
X108740657Y-183000380D01*
X108645419Y-183000380D01*
X108502561Y-182952761D01*
X108407323Y-182857523D01*
X108359704Y-182762285D01*
X108312085Y-182571809D01*
X108312085Y-182428952D01*
X108359704Y-182238476D01*
X108407323Y-182143238D01*
X108502561Y-182048000D01*
X108645419Y-182000380D01*
X108740657Y-182000380D01*
X108883514Y-182048000D01*
X108931133Y-182095619D01*
X109407323Y-183000380D02*
X109597800Y-183000380D01*
X109693038Y-182952761D01*
X109740657Y-182905142D01*
X109835895Y-182762285D01*
X109883514Y-182571809D01*
X109883514Y-182190857D01*
X109835895Y-182095619D01*
X109788276Y-182048000D01*
X109693038Y-182000380D01*
X109502561Y-182000380D01*
X109407323Y-182048000D01*
X109359704Y-182095619D01*
X109312085Y-182190857D01*
X109312085Y-182428952D01*
X109359704Y-182524190D01*
X109407323Y-182571809D01*
X109502561Y-182619428D01*
X109693038Y-182619428D01*
X109788276Y-182571809D01*
X109835895Y-182524190D01*
X109883514Y-182428952D01*
X123924133Y-178836742D02*
X123876514Y-178884361D01*
X123733657Y-178931980D01*
X123638419Y-178931980D01*
X123495561Y-178884361D01*
X123400323Y-178789123D01*
X123352704Y-178693885D01*
X123305085Y-178503409D01*
X123305085Y-178360552D01*
X123352704Y-178170076D01*
X123400323Y-178074838D01*
X123495561Y-177979600D01*
X123638419Y-177931980D01*
X123733657Y-177931980D01*
X123876514Y-177979600D01*
X123924133Y-178027219D01*
X124495561Y-178360552D02*
X124400323Y-178312933D01*
X124352704Y-178265314D01*
X124305085Y-178170076D01*
X124305085Y-178122457D01*
X124352704Y-178027219D01*
X124400323Y-177979600D01*
X124495561Y-177931980D01*
X124686038Y-177931980D01*
X124781276Y-177979600D01*
X124828895Y-178027219D01*
X124876514Y-178122457D01*
X124876514Y-178170076D01*
X124828895Y-178265314D01*
X124781276Y-178312933D01*
X124686038Y-178360552D01*
X124495561Y-178360552D01*
X124400323Y-178408171D01*
X124352704Y-178455790D01*
X124305085Y-178551028D01*
X124305085Y-178741504D01*
X124352704Y-178836742D01*
X124400323Y-178884361D01*
X124495561Y-178931980D01*
X124686038Y-178931980D01*
X124781276Y-178884361D01*
X124828895Y-178836742D01*
X124876514Y-178741504D01*
X124876514Y-178551028D01*
X124828895Y-178455790D01*
X124781276Y-178408171D01*
X124686038Y-178360552D01*
X123924133Y-180436742D02*
X123876514Y-180484361D01*
X123733657Y-180531980D01*
X123638419Y-180531980D01*
X123495561Y-180484361D01*
X123400323Y-180389123D01*
X123352704Y-180293885D01*
X123305085Y-180103409D01*
X123305085Y-179960552D01*
X123352704Y-179770076D01*
X123400323Y-179674838D01*
X123495561Y-179579600D01*
X123638419Y-179531980D01*
X123733657Y-179531980D01*
X123876514Y-179579600D01*
X123924133Y-179627219D01*
X124257466Y-179531980D02*
X124924133Y-179531980D01*
X124495561Y-180531980D01*
X123924133Y-182036742D02*
X123876514Y-182084361D01*
X123733657Y-182131980D01*
X123638419Y-182131980D01*
X123495561Y-182084361D01*
X123400323Y-181989123D01*
X123352704Y-181893885D01*
X123305085Y-181703409D01*
X123305085Y-181560552D01*
X123352704Y-181370076D01*
X123400323Y-181274838D01*
X123495561Y-181179600D01*
X123638419Y-181131980D01*
X123733657Y-181131980D01*
X123876514Y-181179600D01*
X123924133Y-181227219D01*
X124781276Y-181131980D02*
X124590800Y-181131980D01*
X124495561Y-181179600D01*
X124447942Y-181227219D01*
X124352704Y-181370076D01*
X124305085Y-181560552D01*
X124305085Y-181941504D01*
X124352704Y-182036742D01*
X124400323Y-182084361D01*
X124495561Y-182131980D01*
X124686038Y-182131980D01*
X124781276Y-182084361D01*
X124828895Y-182036742D01*
X124876514Y-181941504D01*
X124876514Y-181703409D01*
X124828895Y-181608171D01*
X124781276Y-181560552D01*
X124686038Y-181512933D01*
X124495561Y-181512933D01*
X124400323Y-181560552D01*
X124352704Y-181608171D01*
X124305085Y-181703409D01*
X123924133Y-183636742D02*
X123876514Y-183684361D01*
X123733657Y-183731980D01*
X123638419Y-183731980D01*
X123495561Y-183684361D01*
X123400323Y-183589123D01*
X123352704Y-183493885D01*
X123305085Y-183303409D01*
X123305085Y-183160552D01*
X123352704Y-182970076D01*
X123400323Y-182874838D01*
X123495561Y-182779600D01*
X123638419Y-182731980D01*
X123733657Y-182731980D01*
X123876514Y-182779600D01*
X123924133Y-182827219D01*
X124828895Y-182731980D02*
X124352704Y-182731980D01*
X124305085Y-183208171D01*
X124352704Y-183160552D01*
X124447942Y-183112933D01*
X124686038Y-183112933D01*
X124781276Y-183160552D01*
X124828895Y-183208171D01*
X124876514Y-183303409D01*
X124876514Y-183541504D01*
X124828895Y-183636742D01*
X124781276Y-183684361D01*
X124686038Y-183731980D01*
X124447942Y-183731980D01*
X124352704Y-183684361D01*
X124305085Y-183636742D01*
X123924133Y-185136742D02*
X123876514Y-185184361D01*
X123733657Y-185231980D01*
X123638419Y-185231980D01*
X123495561Y-185184361D01*
X123400323Y-185089123D01*
X123352704Y-184993885D01*
X123305085Y-184803409D01*
X123305085Y-184660552D01*
X123352704Y-184470076D01*
X123400323Y-184374838D01*
X123495561Y-184279600D01*
X123638419Y-184231980D01*
X123733657Y-184231980D01*
X123876514Y-184279600D01*
X123924133Y-184327219D01*
X124781276Y-184565314D02*
X124781276Y-185231980D01*
X124543180Y-184184361D02*
X124305085Y-184898647D01*
X124924133Y-184898647D01*
X123924133Y-186836742D02*
X123876514Y-186884361D01*
X123733657Y-186931980D01*
X123638419Y-186931980D01*
X123495561Y-186884361D01*
X123400323Y-186789123D01*
X123352704Y-186693885D01*
X123305085Y-186503409D01*
X123305085Y-186360552D01*
X123352704Y-186170076D01*
X123400323Y-186074838D01*
X123495561Y-185979600D01*
X123638419Y-185931980D01*
X123733657Y-185931980D01*
X123876514Y-185979600D01*
X123924133Y-186027219D01*
X124257466Y-185931980D02*
X124876514Y-185931980D01*
X124543180Y-186312933D01*
X124686038Y-186312933D01*
X124781276Y-186360552D01*
X124828895Y-186408171D01*
X124876514Y-186503409D01*
X124876514Y-186741504D01*
X124828895Y-186836742D01*
X124781276Y-186884361D01*
X124686038Y-186931980D01*
X124400323Y-186931980D01*
X124305085Y-186884361D01*
X124257466Y-186836742D01*
X123924133Y-188436742D02*
X123876514Y-188484361D01*
X123733657Y-188531980D01*
X123638419Y-188531980D01*
X123495561Y-188484361D01*
X123400323Y-188389123D01*
X123352704Y-188293885D01*
X123305085Y-188103409D01*
X123305085Y-187960552D01*
X123352704Y-187770076D01*
X123400323Y-187674838D01*
X123495561Y-187579600D01*
X123638419Y-187531980D01*
X123733657Y-187531980D01*
X123876514Y-187579600D01*
X123924133Y-187627219D01*
X124305085Y-187627219D02*
X124352704Y-187579600D01*
X124447942Y-187531980D01*
X124686038Y-187531980D01*
X124781276Y-187579600D01*
X124828895Y-187627219D01*
X124876514Y-187722457D01*
X124876514Y-187817695D01*
X124828895Y-187960552D01*
X124257466Y-188531980D01*
X124876514Y-188531980D01*
X123824133Y-190136742D02*
X123776514Y-190184361D01*
X123633657Y-190231980D01*
X123538419Y-190231980D01*
X123395561Y-190184361D01*
X123300323Y-190089123D01*
X123252704Y-189993885D01*
X123205085Y-189803409D01*
X123205085Y-189660552D01*
X123252704Y-189470076D01*
X123300323Y-189374838D01*
X123395561Y-189279600D01*
X123538419Y-189231980D01*
X123633657Y-189231980D01*
X123776514Y-189279600D01*
X123824133Y-189327219D01*
X124776514Y-190231980D02*
X124205085Y-190231980D01*
X124490800Y-190231980D02*
X124490800Y-189231980D01*
X124395561Y-189374838D01*
X124300323Y-189470076D01*
X124205085Y-189517695D01*
X145678685Y-67282380D02*
X146250114Y-67282380D01*
X145964400Y-68282380D02*
X145964400Y-67282380D01*
X146583447Y-68282380D02*
X146583447Y-67282380D01*
X146583447Y-67758571D02*
X147154876Y-67758571D01*
X147154876Y-68282380D02*
X147154876Y-67282380D01*
X148107257Y-67282380D02*
X147631066Y-67282380D01*
X147583447Y-67758571D01*
X147631066Y-67710952D01*
X147726304Y-67663333D01*
X147964400Y-67663333D01*
X148059638Y-67710952D01*
X148107257Y-67758571D01*
X148154876Y-67853809D01*
X148154876Y-68091904D01*
X148107257Y-68187142D01*
X148059638Y-68234761D01*
X147964400Y-68282380D01*
X147726304Y-68282380D01*
X147631066Y-68234761D01*
X147583447Y-68187142D01*
X115837485Y-83627380D02*
X116408914Y-83627380D01*
X116123200Y-84627380D02*
X116123200Y-83627380D01*
X116742247Y-84627380D02*
X116742247Y-83627380D01*
X116742247Y-84103571D02*
X117313676Y-84103571D01*
X117313676Y-84627380D02*
X117313676Y-83627380D01*
X118218438Y-83960714D02*
X118218438Y-84627380D01*
X117980342Y-83579761D02*
X117742247Y-84294047D01*
X118361295Y-84294047D01*
X85967085Y-102891180D02*
X86538514Y-102891180D01*
X86252800Y-103891180D02*
X86252800Y-102891180D01*
X86871847Y-103891180D02*
X86871847Y-102891180D01*
X86871847Y-103367371D02*
X87443276Y-103367371D01*
X87443276Y-103891180D02*
X87443276Y-102891180D01*
X87824228Y-102891180D02*
X88443276Y-102891180D01*
X88109942Y-103272133D01*
X88252800Y-103272133D01*
X88348038Y-103319752D01*
X88395657Y-103367371D01*
X88443276Y-103462609D01*
X88443276Y-103700704D01*
X88395657Y-103795942D01*
X88348038Y-103843561D01*
X88252800Y-103891180D01*
X87967085Y-103891180D01*
X87871847Y-103843561D01*
X87824228Y-103795942D01*
X55407085Y-119057780D02*
X55978514Y-119057780D01*
X55692800Y-120057780D02*
X55692800Y-119057780D01*
X56311847Y-120057780D02*
X56311847Y-119057780D01*
X56311847Y-119533971D02*
X56883276Y-119533971D01*
X56883276Y-120057780D02*
X56883276Y-119057780D01*
X57311847Y-119153019D02*
X57359466Y-119105400D01*
X57454704Y-119057780D01*
X57692800Y-119057780D01*
X57788038Y-119105400D01*
X57835657Y-119153019D01*
X57883276Y-119248257D01*
X57883276Y-119343495D01*
X57835657Y-119486352D01*
X57264228Y-120057780D01*
X57883276Y-120057780D01*
X25814285Y-137452380D02*
X26385714Y-137452380D01*
X26100000Y-138452380D02*
X26100000Y-137452380D01*
X26719047Y-138452380D02*
X26719047Y-137452380D01*
X26719047Y-137928571D02*
X27290476Y-137928571D01*
X27290476Y-138452380D02*
X27290476Y-137452380D01*
X28290476Y-138452380D02*
X27719047Y-138452380D01*
X28004761Y-138452380D02*
X28004761Y-137452380D01*
X27909523Y-137595238D01*
X27814285Y-137690476D01*
X27719047Y-137738095D01*
M02*
