M48
; DRILL file {KiCad (5.1.0-1152-gc9ccd8a64)} date 2019-07-16 9:28:46 AM
; FORMAT={-:-/ absolute / inch / decimal}
; #@! TF.CreationDate,2019-07-16T09:28:46-04:00
; #@! TF.GenerationSoftware,Kicad,Pcbnew,(5.1.0-1152-gc9ccd8a64)
FMAT,2
INCH
T1C0.0157
T2C0.0394
T3C0.0472
T4C0.1969
%
G90
G05
T1
X3.3567Y-6.8753
X3.3902Y-6.7997
X3.4547Y-6.7236
X3.4944Y-6.723
X3.4973Y-6.7979
X3.579Y-6.8177
X3.6604Y-7.1449
X3.6728Y-7.0693
X3.675Y-7.03
X3.6755Y-7.1086
X3.772Y-7.279
X3.774Y-7.239
X3.842Y-6.985
X3.8725Y-7.0135
X3.891Y-6.9525
X3.8924Y-7.0475
X3.9423Y-6.8068
X3.9847Y-6.8068
X4.0502Y-6.9805
X4.082Y-6.959
X4.164Y-6.969
X4.219Y-6.97
X4.5711Y-6.9565
X4.582Y-6.849
X4.583Y-6.913
X4.584Y-7.1
X4.647Y-6.985
X4.653Y-7.225
X4.654Y-7.295
X4.6603Y-7.1603
X4.795Y-7.335
X4.828Y-7.335
X5.238Y-6.7825
X5.2848Y-6.7865
X5.84Y-6.804
X5.916Y-6.8267
X6.6731Y-6.8445
X6.6806Y-6.8058
X6.782Y-6.849
X6.8069Y-6.8029
T2
X5.0Y-7.2441
X5.1Y-7.2441
X5.2Y-7.2441
X5.3Y-7.2441
X5.4Y-7.2441
X5.5Y-7.2441
X5.6Y-7.2441
X5.7Y-7.2441
X5.8Y-7.2441
X5.9Y-7.2441
X6.0Y-7.2441
X6.1Y-7.2441
X6.2Y-7.2441
X4.0157Y-7.2441
X4.1157Y-7.2441
X4.2157Y-7.2441
X4.3157Y-7.2441
T3
X5.0008Y-7.0276
X5.1008Y-7.0276
X5.2008Y-7.0276
X5.3008Y-7.0276
X5.4008Y-7.0276
X5.5008Y-7.0276
X5.6008Y-7.0276
X5.7008Y-7.0276
X5.8008Y-7.0276
X5.9008Y-7.0276
X6.0008Y-7.0276
X6.1008Y-7.0276
X6.2008Y-7.0276
X3.311Y-7.2441
X3.411Y-7.2441
X3.511Y-7.2441
X3.611Y-7.2441
T4
X6.998Y-0.9483
X0.8071Y-4.3906
X0.8071Y-4.43
X7.3327Y-0.9483
X4.311Y-0.2835
X6.998Y-0.9877
X6.998Y-1.027
X6.998Y-1.0664
X6.998Y-1.1058
X7.3327Y-0.9877
X0.8071Y-4.2725
X0.8071Y-4.3119
X0.8071Y-4.3513
X7.3327Y-1.0664
X7.3327Y-1.1058
X0.4724Y-4.2725
X0.4724Y-4.3119
X0.4724Y-4.3513
X7.3327Y-1.027
X0.4724Y-4.3906
X0.4724Y-4.43
X4.311Y-4.2725
X4.311Y-4.3119
X4.311Y-4.3513
X4.311Y-4.3906
X4.311Y-4.43
X4.6457Y-4.2725
X4.6457Y-4.3119
X4.6457Y-4.3513
X4.6457Y-4.3906
X4.6457Y-4.43
X4.6457Y-0.3622
X7.3819Y-0.3622
X7.7165Y-0.3622
X4.311Y-0.3228
X4.311Y-0.3622
X4.311Y-0.4016
X4.311Y-0.4409
X4.6457Y-0.2835
X4.6457Y-0.3228
X7.3819Y-0.2835
X7.3819Y-0.3228
X7.3819Y-0.4016
X7.3819Y-0.4409
X7.7165Y-0.2835
X7.7165Y-0.3228
X4.6457Y-0.4016
X7.7165Y-0.4016
X7.7165Y-0.4409
X4.6457Y-0.4409
X2.0276Y-5.6416
X6.6142Y-0.3622
X2.0276Y-5.6022
X6.6142Y-0.2835
X6.6142Y-0.3228
X6.6142Y-0.4016
X6.6142Y-0.4409
X6.9488Y-0.2835
X6.9488Y-0.3228
X6.9488Y-0.3622
X6.9488Y-0.4016
X6.9488Y-0.4409
X2.0276Y-5.6809
X2.0276Y-5.7203
X2.0276Y-5.7597
X2.3622Y-5.6022
X2.3622Y-5.6416
X2.3622Y-5.6809
X2.3622Y-5.7203
X2.3622Y-5.7597
X8.9173Y-1.6131
X8.9173Y-1.6525
X8.9173Y-1.6919
X8.9173Y-1.7313
X8.9173Y-1.7706
X9.252Y-1.6131
X9.252Y-1.6525
X9.252Y-1.6919
X1.2402Y-0.3228
X1.2402Y-0.3622
X1.5748Y-0.3622
X2.3917Y-0.9483
X2.3917Y-0.9877
X2.3917Y-1.027
X2.3917Y-1.0664
X9.252Y-1.7313
X9.252Y-1.7706
X1.2402Y-0.2835
X1.2402Y-0.4016
X1.2402Y-0.4409
X1.5748Y-0.2835
X1.5748Y-0.3228
X1.5748Y-0.4016
X1.5748Y-0.4409
X2.3917Y-1.1058
X2.7264Y-1.0664
X7.7657Y-3.6864
X2.7264Y-0.9483
X2.7264Y-0.9877
X7.7657Y-3.6077
X7.7657Y-3.647
X7.7657Y-3.7258
X7.7657Y-3.7652
X8.1004Y-3.647
X2.7264Y-1.027
X8.1004Y-3.6077
X2.7264Y-1.1058
X1.1909Y-1.1058
X5.4626Y-0.9877
X5.4626Y-1.027
X5.7972Y-1.027
X8.1004Y-3.6864
X1.1909Y-0.9483
X1.1909Y-1.0664
X5.4626Y-0.9483
X5.4626Y-1.0664
X5.4626Y-1.1058
X5.7972Y-0.9483
X5.7972Y-0.9877
X5.7972Y-1.0664
X8.1004Y-3.7258
X8.1004Y-3.7652
X0.8563Y-0.9483
X0.8563Y-0.9877
X0.8563Y-1.027
X0.8563Y-1.0664
X0.8563Y-1.1058
X1.1909Y-0.9877
X1.1909Y-1.027
X5.7972Y-1.1058
X7.7657Y-0.9877
X7.7657Y-1.027
X8.1004Y-0.9877
X8.9173Y-2.9822
X8.9173Y-3.0216
X9.252Y-3.0216
X7.7657Y-0.9483
X7.7657Y-1.0664
X7.7657Y-1.1058
X8.1004Y-0.9483
X8.1004Y-1.0664
X8.1004Y-1.1058
X1.5748Y-1.6919
X9.252Y-2.9428
X9.252Y-2.9822
X9.252Y-3.0609
X8.1004Y-1.027
X8.9173Y-2.9428
X8.9173Y-3.0609
X8.9173Y-3.1003
X8.5335Y-3.6077
X9.252Y-3.1003
X7.3819Y-1.6525
X6.6142Y-1.6131
X6.6142Y-1.6525
X6.6142Y-1.6919
X6.6142Y-1.7313
X6.6142Y-1.7706
X6.9488Y-1.6131
X6.9488Y-1.6525
X6.9488Y-1.6919
X6.9488Y-1.7313
X6.9488Y-1.7706
X8.5335Y-3.647
X8.5335Y-3.6864
X8.5335Y-3.7258
X8.5335Y-3.7652
X8.8681Y-3.6077
X8.8681Y-3.647
X8.8681Y-3.6864
X8.8681Y-3.7258
X8.8681Y-3.7652
X8.1496Y-0.2835
X8.1496Y-0.3228
X8.1496Y-0.3622
X8.1496Y-0.4016
X8.1496Y-0.4409
X8.4843Y-0.2835
X3.1594Y-4.9767
X3.4941Y-5.0948
X6.1811Y-4.3513
X6.1811Y-4.43
X3.1594Y-4.9374
X3.1594Y-5.0555
X3.1594Y-5.0948
X3.4941Y-4.9374
X3.4941Y-4.9767
X3.4941Y-5.0555
X5.8465Y-4.2725
X5.8465Y-4.3119
X5.8465Y-4.3513
X5.8465Y-4.3906
X5.8465Y-4.43
X6.1811Y-4.2725
X6.1811Y-4.3119
X6.1811Y-4.3906
X3.1594Y-5.0161
X3.4941Y-5.0161
X1.2402Y-1.6131
X1.2402Y-1.6525
X1.2402Y-1.6919
X1.2402Y-1.7313
X1.2402Y-1.7706
X1.5748Y-1.6131
X1.5748Y-1.6525
X1.5748Y-1.7313
X1.5748Y-1.7706
X8.4843Y-0.3228
X3.878Y-1.7706
X8.4843Y-0.3622
X3.5433Y-1.6131
X3.5433Y-1.6525
X3.5433Y-1.6919
X3.5433Y-1.7313
X3.5433Y-1.7706
X3.878Y-1.6131
X3.878Y-1.6525
X3.878Y-1.6919
X3.878Y-1.7313
X7.3819Y-1.6131
X7.3819Y-1.6919
X7.3819Y-1.7706
X7.7165Y-1.6131
X7.7165Y-1.6525
X7.7165Y-1.6919
X7.7165Y-1.7313
X7.7165Y-1.7706
X8.4843Y-0.4016
X8.4843Y-0.4409
X7.3819Y-1.7313
X8.9173Y-4.2725
X8.9173Y-4.3119
X8.9173Y-4.3513
X8.9173Y-4.3906
X8.9173Y-4.43
X9.252Y-4.2725
X9.252Y-4.3119
X9.252Y-4.3513
X9.252Y-4.3906
X9.252Y-4.43
X2.7756Y-2.9428
X2.7756Y-2.9822
X2.7756Y-3.0216
X2.7756Y-3.0609
X2.7756Y-3.1003
X3.1102Y-2.9428
X3.1102Y-2.9822
X3.1102Y-3.0216
X3.1102Y-3.0609
X3.1102Y-3.1003
X3.1594Y-2.278
X3.1594Y-2.3174
X3.1594Y-2.3567
X3.1594Y-2.3961
X3.1594Y-2.4355
X3.4941Y-2.278
X3.4941Y-2.3174
X3.4941Y-2.3567
X3.4941Y-2.3961
X6.6142Y-3.0609
X6.9488Y-2.9428
X6.9488Y-3.0609
X3.4941Y-2.4355
X6.6142Y-2.9428
X6.6142Y-2.9822
X6.6142Y-3.0216
X6.6142Y-3.1003
X6.9488Y-2.9822
X6.9488Y-3.0216
X6.9488Y-3.1003
X1.2402Y-4.2725
X1.2402Y-4.3119
X1.2402Y-4.3513
X1.2402Y-4.3906
X1.2402Y-4.43
X1.5748Y-4.2725
X1.5748Y-4.3119
X1.5748Y-4.3513
X1.5748Y-4.3906
X1.5748Y-4.43
X6.2303Y-6.4245
X4.6949Y-0.9483
X6.2303Y-6.267
X6.2303Y-6.3064
X6.2303Y-6.3458
X6.2303Y-6.3852
X4.6949Y-0.9877
X6.565Y-6.3064
X6.565Y-6.3458
X0.4724Y-3.0216
X0.8071Y-3.0216
X6.565Y-6.267
X6.565Y-6.3852
X6.565Y-6.4245
X2.3917Y-6.267
X2.3917Y-6.3852
X2.3917Y-6.4245
X2.7264Y-6.267
X2.7264Y-6.3064
X2.7264Y-6.3458
X2.7264Y-6.3852
X2.7264Y-6.4245
X1.624Y-3.6077
X4.6949Y-1.027
X2.3917Y-6.3064
X2.3917Y-6.3458
X7.7657Y-6.267
X7.7657Y-6.3064
X7.7657Y-6.3458
X7.7657Y-6.3852
X7.7657Y-6.4245
X8.1004Y-6.267
X8.1004Y-6.3064
X8.1004Y-6.3458
X8.1004Y-6.3852
X8.1004Y-6.4245
X1.2402Y-5.7203
X1.5748Y-5.6022
X1.5748Y-5.6416
X1.5748Y-5.7203
X1.5748Y-5.7597
X0.4724Y-2.9428
X1.624Y-3.647
X1.624Y-3.6864
X1.624Y-3.7258
X1.624Y-3.7652
X1.9587Y-3.6077
X1.9587Y-3.647
X1.9587Y-3.6864
X1.9587Y-3.7258
X1.9587Y-3.7652
X2.0276Y-4.2725
X2.0276Y-4.3119
X2.0276Y-4.3513
X2.0276Y-4.3906
X2.0276Y-4.43
X2.3622Y-4.2725
X2.3622Y-4.3119
X2.3622Y-4.3513
X2.3622Y-4.3906
X2.0276Y-2.9428
X2.0276Y-2.9822
X2.0276Y-3.0216
X2.0276Y-3.0609
X2.0276Y-3.1003
X2.3622Y-2.9428
X2.3622Y-2.9822
X2.3622Y-3.0216
X2.3622Y-3.0609
X2.3622Y-3.1003
X0.4724Y-2.9822
X0.4724Y-3.1003
X2.3622Y-4.43
X0.4724Y-3.0609
X0.8071Y-2.9428
X0.8071Y-2.9822
X0.8071Y-3.0609
X0.8071Y-3.1003
X0.4232Y-3.3518
X1.9587Y-6.4245
X0.3445Y-3.3518
X0.3839Y-3.3518
X1.9587Y-0.9483
X1.9587Y-1.0664
X1.9587Y-1.1058
X8.4843Y-4.2725
X8.4843Y-4.3906
X8.4843Y-4.43
X0.3445Y-3.6864
X0.3839Y-3.6864
X1.624Y-0.9483
X1.624Y-0.9877
X1.624Y-1.027
X1.624Y-1.0664
X1.624Y-1.1058
X1.9587Y-0.9877
X0.4626Y-3.3518
X0.502Y-3.3518
X1.624Y-6.267
X1.624Y-6.3064
X1.624Y-6.3458
X1.624Y-6.3852
X1.624Y-6.4245
X1.9587Y-6.267
X1.9587Y-6.3064
X1.9587Y-6.3852
X8.4843Y-5.6809
X0.4626Y-3.6864
X0.502Y-3.6864
X3.4941Y-0.9483
X8.1496Y-5.6022
X8.1496Y-5.6416
X8.1496Y-5.6809
X8.1496Y-5.7203
X8.1496Y-5.7597
X8.4843Y-5.6022
X8.4843Y-5.6416
X3.1594Y-0.9483
X3.1594Y-0.9877
X3.1594Y-1.027
X3.1594Y-1.0664
X3.1594Y-1.1058
X3.4941Y-0.9877
X3.4941Y-1.027
X8.4843Y-5.7203
X8.4843Y-5.7597
X0.4232Y-3.6864
X3.5433Y-2.9428
X3.5433Y-2.9822
X3.5433Y-3.0216
X3.5433Y-3.1003
X3.878Y-3.0216
X1.2402Y-5.6022
X3.5433Y-3.0609
X3.878Y-2.9428
X3.878Y-2.9822
X3.878Y-3.0609
X3.878Y-3.1003
X2.3917Y-2.3567
X4.6949Y-1.0664
X5.0295Y-0.9483
X5.0295Y-0.9877
X5.0295Y-1.0664
X5.0295Y-1.1058
X4.311Y-5.6809
X1.2402Y-5.6416
X1.2402Y-5.6809
X1.2402Y-5.7597
X1.5748Y-5.6809
X2.3917Y-2.278
X2.3917Y-2.3174
X4.6457Y-5.6809
X2.7264Y-2.278
X1.9587Y-6.3458
X4.6457Y-5.6022
X4.6457Y-5.7203
X4.6457Y-5.7597
X2.3917Y-2.3961
X2.3917Y-2.4355
X2.7264Y-2.3174
X2.7264Y-2.3567
X2.7264Y-2.3961
X4.6949Y-1.1058
X5.0295Y-1.027
X3.4941Y-1.0664
X4.311Y-5.6022
X4.311Y-5.7203
X4.311Y-5.7597
X4.6457Y-5.6416
X2.7264Y-2.4355
X1.1909Y-3.6864
X4.311Y-5.6416
X0.8563Y-3.6077
X0.8563Y-3.647
X0.8563Y-3.6864
X0.8563Y-3.7258
X0.8563Y-3.7652
X1.1909Y-3.6077
X1.1909Y-3.647
X1.1909Y-3.7258
X1.1909Y-3.7652
X1.9587Y-1.027
X2.3917Y-3.6077
X2.3917Y-3.647
X2.3917Y-3.6864
X2.3917Y-3.7258
X2.3917Y-3.7652
X2.7264Y-3.6077
X2.7264Y-3.647
X2.7264Y-3.6864
X2.7264Y-3.7258
X8.1496Y-4.3119
X8.1496Y-4.3513
X8.4843Y-4.3513
X2.7264Y-3.7652
X8.1496Y-4.2725
X8.1496Y-4.3906
X8.1496Y-4.43
X8.4843Y-4.3119
X2.7756Y-5.6022
X2.7756Y-5.6416
X2.7756Y-5.6809
X2.7756Y-5.7203
X2.7756Y-5.7597
X3.1102Y-5.6416
X9.4685Y-5.0161
X3.1102Y-5.6022
X3.4941Y-1.1058
X3.1102Y-5.7203
X3.1102Y-5.7597
X3.9272Y-2.278
X3.9272Y-2.3174
X3.9272Y-2.3567
X9.4685Y-1.0274
X3.1102Y-5.6809
X3.9272Y-2.3961
X3.9272Y-2.4355
X4.2618Y-2.278
X9.4685Y-2.3567
X9.4685Y-3.6864
X4.2618Y-2.3174
X4.2618Y-2.3567
X4.2618Y-2.4355
X5.4134Y-5.6022
X5.4134Y-5.7597
X9.4685Y-6.3458
X4.2618Y-2.3961
X5.0787Y-5.6022
X5.0787Y-5.6416
X5.0787Y-5.6809
X5.0787Y-5.7203
X5.0787Y-5.7597
X5.4134Y-5.6416
X5.4134Y-5.6809
X5.4134Y-5.7203
X0.8563Y-2.4355
X4.311Y-3.0609
X4.311Y-3.1003
X4.6457Y-2.9822
X0.8563Y-2.278
X0.8563Y-2.3174
X0.8563Y-2.3567
X0.8563Y-2.3961
X1.1909Y-2.3567
X4.311Y-2.9428
X4.311Y-2.9822
X4.311Y-3.0216
X2.3917Y-5.0555
X4.6457Y-3.0216
X1.1909Y-2.278
X1.1909Y-2.3174
X1.1909Y-2.3961
X1.1909Y-2.4355
X4.6457Y-2.9428
X2.3917Y-4.9374
X2.3917Y-4.9767
X2.3917Y-5.0161
X3.9272Y-4.9374
X3.9272Y-4.9767
X3.9272Y-5.0161
X3.9272Y-5.0555
X3.9272Y-5.0948
X4.2618Y-4.9374
X4.2618Y-4.9767
X4.2618Y-5.0161
X4.2618Y-5.0555
X4.2618Y-5.0948
X4.6949Y-4.9374
X4.6949Y-4.9767
X4.6949Y-5.0161
X4.6949Y-5.0555
X4.6949Y-5.0948
X5.0295Y-4.9374
X5.0295Y-4.9767
X5.0295Y-5.0161
X5.0295Y-5.0555
X4.6457Y-3.0609
X4.6457Y-3.1003
X2.3917Y-5.0948
X2.7264Y-4.9374
X2.7264Y-4.9767
X2.7264Y-5.0161
X2.7264Y-5.0555
X2.7264Y-5.0948
X8.5335Y-6.267
X8.5335Y-6.3064
X8.5335Y-6.3458
X8.5335Y-6.3852
X1.2402Y-2.9428
X1.2402Y-2.9822
X1.2402Y-3.0216
X1.2402Y-3.0609
X1.2402Y-3.1003
X1.5748Y-2.9428
X1.5748Y-2.9822
X1.5748Y-3.0216
X1.5748Y-3.0609
X1.5748Y-3.1003
X5.0295Y-5.0948
X3.1594Y-3.6077
X3.1594Y-3.647
X3.1594Y-3.6864
X3.1594Y-3.7258
X3.1594Y-3.7652
X3.4941Y-3.6077
X3.4941Y-3.647
X3.4941Y-3.6864
X3.4941Y-3.7258
X3.4941Y-3.7652
X1.624Y-5.0948
X3.1594Y-6.267
X3.1594Y-6.3064
X3.1594Y-6.3458
X3.1594Y-6.3852
X3.1594Y-6.4245
X3.4941Y-6.267
X3.4941Y-6.3064
X3.4941Y-6.3458
X3.4941Y-6.3852
X3.4941Y-6.4245
X3.9272Y-3.6077
X3.9272Y-3.647
X3.9272Y-3.6864
X3.9272Y-3.7258
X3.9272Y-3.7652
X4.2618Y-3.6077
X4.2618Y-3.647
X4.2618Y-3.6864
X4.2618Y-3.7258
X4.2618Y-3.7652
X8.9173Y-5.6022
X8.9173Y-5.6416
X8.9173Y-5.6809
X8.9173Y-5.7203
X8.9173Y-5.7597
X9.252Y-5.6022
X9.252Y-5.6416
X9.252Y-5.6809
X9.252Y-5.7203
X9.252Y-5.7597
X5.4626Y-4.9374
X5.4626Y-4.9767
X5.4626Y-5.0161
X5.4626Y-5.0555
X5.4626Y-5.0948
X5.7972Y-4.9374
X5.7972Y-4.9767
X5.7972Y-5.0161
X5.7972Y-5.0555
X5.7972Y-5.0948
X3.5433Y-0.3228
X1.624Y-4.9374
X1.624Y-4.9767
X1.624Y-5.0161
X1.624Y-5.0555
X3.5433Y-0.2835
X8.5335Y-0.9483
X8.5335Y-0.9877
X8.5335Y-1.027
X8.5335Y-1.0664
X8.5335Y-1.1058
X8.8681Y-0.9483
X8.8681Y-0.9877
X8.8681Y-1.027
X8.8681Y-1.0664
X8.8681Y-1.1058
X2.7756Y-0.2835
X2.7756Y-0.3228
X2.7756Y-0.3622
X2.7756Y-0.4016
X2.7756Y-0.4409
X3.1102Y-0.2835
X3.1102Y-0.3228
X3.1102Y-0.3622
X3.1102Y-0.4016
X3.1102Y-0.4409
X1.9587Y-4.9374
X3.5433Y-0.4016
X3.5433Y-0.4409
X3.878Y-0.2835
X3.878Y-0.3228
X1.9587Y-5.0555
X3.878Y-0.4409
X5.0295Y-3.6077
X1.9587Y-4.9767
X1.9587Y-5.0161
X4.6949Y-3.6077
X4.6949Y-3.647
X4.6949Y-3.6864
X4.6949Y-3.7258
X4.6949Y-3.7652
X1.9587Y-5.0948
X0.502Y-2.0221
X3.878Y-0.4016
X0.3445Y-2.0221
X0.3445Y-2.3567
X0.3839Y-2.0221
X0.3839Y-2.3567
X0.4232Y-2.0221
X0.4232Y-2.3567
X0.4626Y-2.0221
X0.4626Y-2.3567
X0.502Y-2.3567
X5.0787Y-1.6131
X5.0787Y-1.6525
X5.0787Y-1.6919
X5.0787Y-1.7313
X5.0787Y-1.7706
X5.4134Y-1.6131
X5.4134Y-1.6525
X5.4134Y-1.6919
X5.4134Y-1.7313
X5.4134Y-1.7706
X0.8071Y-1.6919
X8.5335Y-6.4245
X8.8681Y-6.267
X8.8681Y-6.3064
X8.8681Y-6.3458
X8.8681Y-6.3852
X8.8681Y-6.4245
X6.565Y-4.9374
X2.7756Y-4.43
X6.2303Y-4.9374
X6.2303Y-4.9767
X6.2303Y-5.0161
X6.2303Y-5.0555
X6.2303Y-5.0948
X2.7756Y-4.2725
X2.7756Y-4.3119
X2.7756Y-4.3513
X6.565Y-4.9767
X6.565Y-5.0161
X6.565Y-5.0948
X3.1102Y-4.3513
X6.565Y-5.0555
X2.7756Y-4.3906
X3.1102Y-4.2725
X3.1102Y-4.3119
X3.5433Y-0.3622
X3.878Y-0.3622
X3.1102Y-4.3906
X3.1102Y-4.43
X2.3622Y-1.6525
X5.4626Y-3.6077
X5.4626Y-3.647
X5.4626Y-3.6864
X5.4626Y-3.7258
X5.4626Y-3.7652
X5.7972Y-3.6077
X5.7972Y-3.647
X5.7972Y-3.6864
X5.7972Y-3.7258
X5.7972Y-3.7652
X0.4724Y-5.6809
X5.0295Y-2.278
X5.0295Y-2.3961
X5.0295Y-2.4355
X5.0787Y-2.9428
X5.0787Y-2.9822
X5.0787Y-3.0216
X5.0787Y-3.0609
X5.0787Y-3.1003
X5.4134Y-2.9428
X5.4134Y-2.9822
X5.4134Y-3.0216
X5.4134Y-3.0609
X5.4134Y-3.1003
X4.6949Y-2.3961
X6.2303Y-2.3567
X6.565Y-2.3567
X4.6949Y-2.278
X4.6949Y-2.3174
X4.6949Y-2.3567
X0.8071Y-5.6809
X6.2303Y-2.278
X6.2303Y-2.3174
X6.2303Y-2.3961
X6.2303Y-2.4355
X6.565Y-2.278
X6.565Y-2.3174
X6.565Y-2.3961
X4.6949Y-2.4355
X5.0295Y-2.3174
X5.0295Y-2.3567
X6.565Y-2.4355
X3.9272Y-6.267
X3.9272Y-6.3064
X3.9272Y-6.3458
X3.9272Y-6.3852
X3.9272Y-6.4245
X4.2618Y-6.267
X4.2618Y-6.3064
X4.2618Y-6.3458
X4.2618Y-6.3852
X4.2618Y-6.4245
X5.8465Y-5.7203
X5.8465Y-5.7597
X6.1811Y-5.6416
X2.0079Y-0.2835
X2.0079Y-0.3228
X2.0079Y-0.3622
X2.0079Y-0.4016
X2.0079Y-0.4409
X2.3425Y-0.2835
X2.3425Y-0.3228
X2.3425Y-0.3622
X2.3425Y-0.4016
X2.3425Y-0.4409
X0.4724Y-1.6131
X0.4724Y-1.6525
X6.1811Y-5.7597
X0.4724Y-1.6919
X0.4724Y-1.7313
X0.4724Y-1.7706
X0.8071Y-1.6525
X2.0276Y-1.6131
X5.0295Y-3.647
X5.0295Y-3.6864
X5.0295Y-3.7258
X5.0295Y-3.7652
X5.0787Y-0.4016
X5.0787Y-0.4409
X5.4134Y-0.2835
X0.8563Y-4.9374
X0.8563Y-4.9767
X0.8563Y-5.0161
X0.8563Y-5.0555
X0.8563Y-5.0948
X1.1909Y-4.9374
X1.1909Y-4.9767
X1.1909Y-5.0161
X1.1909Y-5.0555
X1.1909Y-5.0948
X5.0787Y-0.2835
X2.0276Y-1.7313
X5.0787Y-0.3228
X2.0276Y-1.7706
X5.0787Y-0.3622
X2.0276Y-1.6525
X2.0276Y-1.6919
X5.4134Y-0.3622
X0.4724Y-5.6022
X0.4724Y-5.6416
X0.4724Y-5.7203
X0.4724Y-5.7597
X0.8071Y-5.6416
X6.1811Y-5.6022
X0.8071Y-1.6131
X0.8071Y-1.7313
X0.8071Y-1.7706
X5.4134Y-0.3228
X5.4134Y-0.4016
X6.1811Y-5.7203
X2.3622Y-1.6919
X2.3622Y-1.7706
X5.4134Y-0.4409
X0.8071Y-5.6022
X0.8071Y-5.7203
X0.8071Y-5.7597
X2.3622Y-1.6131
X2.3622Y-1.7313
X5.8465Y-2.9428
X5.8465Y-2.9822
X5.8465Y-3.0216
X5.8465Y-3.0609
X5.8465Y-3.1003
X6.1811Y-2.9428
X6.1811Y-2.9822
X6.1811Y-3.0216
X6.1811Y-3.0609
X6.1811Y-3.1003
X0.4724Y-0.2835
X0.4724Y-0.3228
X0.4724Y-0.3622
X0.4724Y-0.4016
X0.4724Y-0.4409
X0.8071Y-0.2835
X0.8071Y-0.3228
X0.8071Y-0.3622
X0.8071Y-0.4016
X0.8071Y-0.4409
X8.5335Y-2.278
X8.5335Y-2.3174
X8.5335Y-2.3567
X8.5335Y-2.3961
X8.5335Y-2.4355
X8.8681Y-2.278
X8.8681Y-2.3174
X8.8681Y-2.3567
X8.8681Y-2.3961
X8.8681Y-2.4355
X1.624Y-2.278
X1.624Y-2.3174
X1.624Y-2.3567
X1.624Y-2.3961
X1.624Y-2.4355
X1.9587Y-2.278
X1.9587Y-2.3174
X0.3445Y-0.7065
X0.3445Y-1.0412
X0.3839Y-0.7065
X0.3839Y-1.0412
X0.4232Y-0.7065
X0.4232Y-1.0412
X0.4626Y-0.7065
X0.4626Y-1.0412
X0.502Y-0.7065
X0.502Y-1.0412
X9.252Y-0.4016
X1.9587Y-2.3567
X1.9587Y-2.3961
X1.9587Y-2.4355
X8.1496Y-1.6525
X8.1496Y-1.6919
X8.1496Y-1.7313
X8.1496Y-1.7706
X9.252Y-0.4409
X8.1496Y-1.6131
X5.8465Y-5.6022
X8.4843Y-1.6919
X5.8465Y-1.6131
X5.8465Y-1.6525
X5.8465Y-1.6919
X5.8465Y-1.7313
X5.8465Y-1.7706
X6.1811Y-1.6131
X6.1811Y-1.6525
X6.1811Y-1.6919
X8.4843Y-1.6131
X8.4843Y-1.6525
X8.4843Y-1.7313
X8.4843Y-1.7706
X6.1811Y-1.7313
X6.1811Y-1.7706
X0.3445Y-6.0111
X0.3445Y-6.3458
X0.3839Y-6.0111
X0.3839Y-6.3458
X0.4232Y-6.0111
X0.4232Y-6.3458
X0.4626Y-6.0111
X0.4626Y-6.3458
X0.502Y-6.0111
X0.502Y-6.3458
X0.8563Y-6.267
X0.8563Y-6.3064
X0.8563Y-6.3458
X0.8563Y-6.4245
X8.1004Y-2.3961
X1.1909Y-6.3458
X7.7657Y-2.278
X7.7657Y-2.3174
X7.7657Y-2.3567
X7.7657Y-2.3961
X7.7657Y-2.4355
X8.1004Y-2.278
X8.1004Y-2.3174
X8.1004Y-2.3567
X5.4626Y-6.267
X5.4626Y-6.3064
X5.4626Y-6.3458
X5.4626Y-6.3852
X5.4626Y-6.4245
X5.7972Y-6.267
X5.7972Y-6.3064
X5.7972Y-6.3458
X5.7972Y-6.3852
X5.7972Y-6.4245
X5.8465Y-5.6416
X0.8563Y-6.3852
X1.1909Y-6.3064
X8.1004Y-2.4355
X4.311Y-1.6131
X4.311Y-1.6525
X4.311Y-1.6919
X4.311Y-1.7313
X4.311Y-1.7706
X4.6457Y-1.6131
X4.6457Y-1.6525
X4.6457Y-1.6919
X4.6457Y-1.7313
X4.6457Y-1.7706
X5.8465Y-5.6809
X6.1811Y-5.6809
X6.6142Y-4.3119
X0.3445Y-4.6815
X0.3445Y-5.0161
X0.3839Y-4.6815
X0.3839Y-5.0161
X0.4232Y-4.6815
X0.4232Y-5.0161
X0.4626Y-4.6815
X0.4626Y-5.0161
X0.502Y-4.6815
X0.502Y-5.0161
X1.1909Y-6.267
X1.1909Y-6.3852
X1.1909Y-6.4245
X4.6949Y-6.267
X4.6949Y-6.3064
X4.6949Y-6.3458
X4.6949Y-6.3852
X4.6949Y-6.4245
X6.6142Y-4.2725
X6.6142Y-4.3513
X6.6142Y-4.3906
X6.6142Y-4.43
X5.0295Y-6.267
X6.9488Y-4.3119
X8.1496Y-2.9428
X8.1496Y-2.9822
X8.1496Y-3.0216
X8.1496Y-3.0609
X8.1496Y-3.1003
X8.4843Y-2.9428
X8.4843Y-2.9822
X8.4843Y-3.0216
X8.4843Y-3.0609
X8.4843Y-3.1003
X5.0295Y-6.3852
X5.0295Y-6.4245
X3.878Y-4.3513
X6.9488Y-4.2725
X5.0295Y-6.3064
X5.0295Y-6.3458
X3.5433Y-4.2725
X3.5433Y-4.3119
X3.5433Y-4.3513
X3.5433Y-4.3906
X3.5433Y-4.43
X3.878Y-4.2725
X3.878Y-4.3119
X3.878Y-4.3906
X3.878Y-4.43
X6.9488Y-4.3513
X6.6142Y-5.6022
X6.9488Y-4.3906
X6.9488Y-4.43
X6.2303Y-0.9483
X6.2303Y-1.0664
X6.2303Y-1.1058
X6.565Y-0.9483
X6.6142Y-5.6416
X6.2303Y-0.9877
X6.6142Y-5.7203
X6.6142Y-5.7597
X6.9488Y-5.6022
X6.9488Y-5.6416
X6.9488Y-5.7203
X6.9488Y-5.7597
X6.2303Y-1.027
X6.6142Y-5.6809
X6.565Y-0.9877
X6.565Y-1.027
X6.565Y-1.0664
X6.565Y-1.1058
X6.2303Y-3.6077
X6.2303Y-3.647
X6.2303Y-3.6864
X6.2303Y-3.7258
X6.2303Y-3.7652
X6.565Y-3.6077
X6.565Y-3.647
X6.565Y-3.6864
X6.565Y-3.7258
X6.565Y-3.7652
X5.8465Y-0.2835
X5.8465Y-0.3228
X5.8465Y-0.3622
X5.8465Y-0.4016
X5.8465Y-0.4409
X6.1811Y-0.2835
X6.1811Y-0.3228
X6.1811Y-0.3622
X6.1811Y-0.4016
X6.1811Y-0.4409
X5.4626Y-2.278
X5.4626Y-2.3174
X5.4626Y-2.3567
X5.4626Y-2.3961
X5.4626Y-2.4355
X5.7972Y-2.278
X5.7972Y-2.3174
X5.7972Y-2.3567
X5.7972Y-2.3961
X5.7972Y-2.4355
X8.9173Y-0.2835
X8.9173Y-0.3228
X8.9173Y-0.3622
X8.9173Y-0.4016
X8.9173Y-0.4409
X9.252Y-0.3228
X9.252Y-0.3622
X2.7756Y-1.6131
X2.7756Y-1.6525
X2.7756Y-1.6919
X2.7756Y-1.7313
X2.7756Y-1.7706
X3.1102Y-1.6131
X3.1102Y-1.6525
X3.1102Y-1.6919
X3.1102Y-1.7313
X3.1102Y-1.7706
X6.998Y-2.278
X6.998Y-2.3174
X6.998Y-2.3567
X6.998Y-2.3961
X6.998Y-2.4355
X7.3327Y-2.278
X7.3327Y-2.3174
X7.3327Y-2.3567
X7.3327Y-2.3961
X7.3327Y-2.4355
X3.9272Y-0.9483
X3.9272Y-0.9877
X3.9272Y-1.027
X3.9272Y-1.1058
X4.2618Y-1.027
X0.2165Y-0.3626
X0.2165Y-1.6923
X0.2165Y-3.022
X0.2165Y-4.3517
X0.2165Y-5.6809
X7.7165Y-5.6022
X7.7165Y-5.7203
X7.7165Y-5.7597
X6.9488Y-5.6809
X8.5335Y-4.9374
X8.5335Y-4.9767
X8.5335Y-5.0161
X7.7657Y-4.9374
X7.7657Y-4.9767
X7.7657Y-5.0161
X7.7657Y-5.0555
X7.7657Y-5.0948
X8.1004Y-4.9374
X8.1004Y-4.9767
X8.1004Y-5.0161
X8.1004Y-5.0555
X8.5335Y-5.0555
X8.5335Y-5.0948
X8.8681Y-4.9374
X8.8681Y-4.9767
X8.8681Y-5.0161
X8.8681Y-5.0555
X8.8681Y-5.0948
X8.1004Y-5.0948
X7.3819Y-2.9428
X7.3819Y-2.9822
X7.3819Y-3.0216
X7.3819Y-3.0609
X7.3819Y-3.1003
X7.7165Y-2.9428
X7.7165Y-2.9822
X7.7165Y-3.0216
X7.7165Y-3.0609
X7.7165Y-3.1003
X7.3327Y-6.3852
X9.252Y-0.2835
X4.2618Y-0.9877
X3.5433Y-5.6022
X3.5433Y-5.6416
X3.5433Y-5.6809
X3.5433Y-5.7203
X3.5433Y-5.7597
X3.878Y-5.6022
X3.878Y-5.6416
X3.878Y-5.6809
X3.878Y-5.7203
X3.878Y-5.7597
X4.2618Y-0.9483
X7.3327Y-6.4245
X3.9272Y-1.0664
X7.3327Y-3.7652
X4.2618Y-1.1058
X6.998Y-4.9374
X6.998Y-4.9767
X6.998Y-5.0161
X6.998Y-5.0555
X6.998Y-5.0948
X7.3327Y-4.9374
X7.3327Y-4.9767
X7.3327Y-5.0161
X7.3327Y-5.0555
X7.3327Y-5.0948
X5.4134Y-4.43
X6.998Y-3.6077
X6.998Y-3.647
X6.998Y-3.6864
X6.998Y-3.7258
X6.998Y-3.7652
X7.3327Y-3.6077
X7.3327Y-3.647
X7.3327Y-3.6864
X7.3327Y-3.7258
X6.998Y-6.267
X6.998Y-6.3852
X6.998Y-6.4245
X7.3327Y-6.3064
X4.2618Y-1.0664
X7.3819Y-5.6022
X7.3819Y-5.6416
X7.3819Y-5.6809
X7.3819Y-5.7203
X7.3819Y-5.7597
X7.7165Y-5.6809
X6.998Y-6.3064
X6.998Y-6.3458
X7.7165Y-5.6416
X7.3327Y-6.267
X7.3327Y-6.3458
X7.3819Y-4.2725
X7.3819Y-4.3119
X7.3819Y-4.3513
X7.3819Y-4.3906
X7.3819Y-4.43
X7.7165Y-4.2725
X7.7165Y-4.3119
X7.7165Y-4.3513
X5.0787Y-4.2725
X5.0787Y-4.3119
X5.0787Y-4.3513
X5.0787Y-4.3906
X5.0787Y-4.43
X5.4134Y-4.2725
X5.4134Y-4.3119
X5.4134Y-4.3513
X5.4134Y-4.3906
X7.7165Y-4.3906
X7.7165Y-4.43
T0
M30
