G04 #@! TF.GenerationSoftware,KiCad,Pcbnew,6.0.0-rc1-unknown-55b5c71~66~ubuntu18.10.1*
G04 #@! TF.CreationDate,2019-02-02T07:43:02-05:00
G04 #@! TF.ProjectId,Pack,5061636b-2e6b-4696-9361-645f70636258,rev?*
G04 #@! TF.SameCoordinates,Original*
G04 #@! TF.FileFunction,Legend,Top*
G04 #@! TF.FilePolarity,Positive*
%FSLAX46Y46*%
G04 Gerber Fmt 4.6, Leading zero omitted, Abs format (unit mm)*
G04 Created by KiCad (PCBNEW 6.0.0-rc1-unknown-55b5c71~66~ubuntu18.10.1) date 2019-02-02 07:43:02*
%MOMM*%
%LPD*%
G04 APERTURE LIST*
%ADD10C,0.120000*%
%ADD11C,0.150000*%
G04 APERTURE END LIST*
D10*
X89660000Y-69000000D02*
G75*
G03X89660000Y-69000000I-1660000J0D01*
G01*
X89660000Y-69000000D02*
X91980000Y-69000000D01*
X89544000Y-2286000D02*
G75*
G03X89544000Y-2286000I-1660000J0D01*
G01*
X89544000Y-2286000D02*
X91864000Y-2286000D01*
X89660000Y-35000000D02*
G75*
G03X89660000Y-35000000I-1660000J0D01*
G01*
X89660000Y-35000000D02*
X91980000Y-35000000D01*
X8670000Y-39330000D02*
X11330000Y-39330000D01*
X8670000Y-39270000D02*
X8670000Y-39330000D01*
X11330000Y-39270000D02*
X11330000Y-39330000D01*
X8670000Y-39270000D02*
X11330000Y-39270000D01*
X8670000Y-38000000D02*
X8670000Y-36670000D01*
X8670000Y-36670000D02*
X10000000Y-36670000D01*
X8670000Y-6330000D02*
X11330000Y-6330000D01*
X8670000Y-6270000D02*
X8670000Y-6330000D01*
X11330000Y-6270000D02*
X11330000Y-6330000D01*
X8670000Y-6270000D02*
X11330000Y-6270000D01*
X8670000Y-5000000D02*
X8670000Y-3670000D01*
X8670000Y-3670000D02*
X10000000Y-3670000D01*
X8670000Y-67330000D02*
X11330000Y-67330000D01*
X8670000Y-67270000D02*
X8670000Y-67330000D01*
X11330000Y-67270000D02*
X11330000Y-67330000D01*
X8670000Y-67270000D02*
X11330000Y-67270000D01*
X8670000Y-66000000D02*
X8670000Y-64670000D01*
X8670000Y-64670000D02*
X10000000Y-64670000D01*
X8670000Y-74330000D02*
X11330000Y-74330000D01*
X8670000Y-74270000D02*
X8670000Y-74330000D01*
X11330000Y-74270000D02*
X11330000Y-74330000D01*
X8670000Y-74270000D02*
X11330000Y-74270000D01*
X8670000Y-73000000D02*
X8670000Y-71670000D01*
X8670000Y-71670000D02*
X10000000Y-71670000D01*
X92870000Y-74330000D02*
X92870000Y-71670000D01*
X90270000Y-74330000D02*
X92870000Y-74330000D01*
X90270000Y-71670000D02*
X92870000Y-71670000D01*
X90270000Y-74330000D02*
X90270000Y-71670000D01*
X89000000Y-74330000D02*
X87670000Y-74330000D01*
X87670000Y-74330000D02*
X87670000Y-73000000D01*
X92870000Y-40330000D02*
X92870000Y-37670000D01*
X90270000Y-40330000D02*
X92870000Y-40330000D01*
X90270000Y-37670000D02*
X92870000Y-37670000D01*
X90270000Y-40330000D02*
X90270000Y-37670000D01*
X89000000Y-40330000D02*
X87670000Y-40330000D01*
X87670000Y-40330000D02*
X87670000Y-39000000D01*
X92870000Y-7330000D02*
X92870000Y-4670000D01*
X90270000Y-7330000D02*
X92870000Y-7330000D01*
X90270000Y-4670000D02*
X92870000Y-4670000D01*
X90270000Y-7330000D02*
X90270000Y-4670000D01*
X89000000Y-7330000D02*
X87670000Y-7330000D01*
X87670000Y-7330000D02*
X87670000Y-6000000D01*
D11*
X19722285Y-28543771D02*
X19865142Y-28591390D01*
X19912761Y-28639009D01*
X19960380Y-28734247D01*
X19960380Y-28877104D01*
X19912761Y-28972342D01*
X19865142Y-29019961D01*
X19769904Y-29067580D01*
X19388952Y-29067580D01*
X19388952Y-28067580D01*
X19722285Y-28067580D01*
X19817523Y-28115200D01*
X19865142Y-28162819D01*
X19912761Y-28258057D01*
X19912761Y-28353295D01*
X19865142Y-28448533D01*
X19817523Y-28496152D01*
X19722285Y-28543771D01*
X19388952Y-28543771D01*
X20246095Y-28067580D02*
X20817523Y-28067580D01*
X20531809Y-29067580D02*
X20531809Y-28067580D01*
X21627047Y-28067580D02*
X21150857Y-28067580D01*
X21103238Y-28543771D01*
X21150857Y-28496152D01*
X21246095Y-28448533D01*
X21484190Y-28448533D01*
X21579428Y-28496152D01*
X21627047Y-28543771D01*
X21674666Y-28639009D01*
X21674666Y-28877104D01*
X21627047Y-28972342D01*
X21579428Y-29019961D01*
X21484190Y-29067580D01*
X21246095Y-29067580D01*
X21150857Y-29019961D01*
X21103238Y-28972342D01*
X19722285Y-61876771D02*
X19865142Y-61924390D01*
X19912761Y-61972009D01*
X19960380Y-62067247D01*
X19960380Y-62210104D01*
X19912761Y-62305342D01*
X19865142Y-62352961D01*
X19769904Y-62400580D01*
X19388952Y-62400580D01*
X19388952Y-61400580D01*
X19722285Y-61400580D01*
X19817523Y-61448200D01*
X19865142Y-61495819D01*
X19912761Y-61591057D01*
X19912761Y-61686295D01*
X19865142Y-61781533D01*
X19817523Y-61829152D01*
X19722285Y-61876771D01*
X19388952Y-61876771D01*
X20246095Y-61400580D02*
X20817523Y-61400580D01*
X20531809Y-62400580D02*
X20531809Y-61400580D01*
X21579428Y-61400580D02*
X21388952Y-61400580D01*
X21293714Y-61448200D01*
X21246095Y-61495819D01*
X21150857Y-61638676D01*
X21103238Y-61829152D01*
X21103238Y-62210104D01*
X21150857Y-62305342D01*
X21198476Y-62352961D01*
X21293714Y-62400580D01*
X21484190Y-62400580D01*
X21579428Y-62352961D01*
X21627047Y-62305342D01*
X21674666Y-62210104D01*
X21674666Y-61972009D01*
X21627047Y-61876771D01*
X21579428Y-61829152D01*
X21484190Y-61781533D01*
X21293714Y-61781533D01*
X21198476Y-61829152D01*
X21150857Y-61876771D01*
X21103238Y-61972009D01*
X89254285Y-65792380D02*
X89825714Y-65792380D01*
X89540000Y-66792380D02*
X89540000Y-65792380D01*
X90159047Y-66792380D02*
X90159047Y-65792380D01*
X90159047Y-66268571D02*
X90730476Y-66268571D01*
X90730476Y-66792380D02*
X90730476Y-65792380D01*
X91730476Y-66792380D02*
X91159047Y-66792380D01*
X91444761Y-66792380D02*
X91444761Y-65792380D01*
X91349523Y-65935238D01*
X91254285Y-66030476D01*
X91159047Y-66078095D01*
X89138285Y921619D02*
X89709714Y921619D01*
X89424000Y-78380D02*
X89424000Y921619D01*
X90043047Y-78380D02*
X90043047Y921619D01*
X90043047Y445428D02*
X90614476Y445428D01*
X90614476Y-78380D02*
X90614476Y921619D01*
X91043047Y826380D02*
X91090666Y874000D01*
X91185904Y921619D01*
X91424000Y921619D01*
X91519238Y874000D01*
X91566857Y826380D01*
X91614476Y731142D01*
X91614476Y635904D01*
X91566857Y493047D01*
X90995428Y-78380D01*
X91614476Y-78380D01*
X89254285Y-31792380D02*
X89825714Y-31792380D01*
X89540000Y-32792380D02*
X89540000Y-31792380D01*
X90159047Y-32792380D02*
X90159047Y-31792380D01*
X90159047Y-32268571D02*
X90730476Y-32268571D01*
X90730476Y-32792380D02*
X90730476Y-31792380D01*
X91111428Y-31792380D02*
X91730476Y-31792380D01*
X91397142Y-32173333D01*
X91540000Y-32173333D01*
X91635238Y-32220952D01*
X91682857Y-32268571D01*
X91730476Y-32363809D01*
X91730476Y-32601904D01*
X91682857Y-32697142D01*
X91635238Y-32744761D01*
X91540000Y-32792380D01*
X91254285Y-32792380D01*
X91159047Y-32744761D01*
X91111428Y-32697142D01*
X9666666Y-35122380D02*
X9666666Y-35836666D01*
X9619047Y-35979523D01*
X9523809Y-36074761D01*
X9380952Y-36122380D01*
X9285714Y-36122380D01*
X10666666Y-36122380D02*
X10095238Y-36122380D01*
X10380952Y-36122380D02*
X10380952Y-35122380D01*
X10285714Y-35265238D01*
X10190476Y-35360476D01*
X10095238Y-35408095D01*
X9666666Y-2122380D02*
X9666666Y-2836666D01*
X9619047Y-2979523D01*
X9523809Y-3074761D01*
X9380952Y-3122380D01*
X9285714Y-3122380D01*
X10095238Y-2217619D02*
X10142857Y-2170000D01*
X10238095Y-2122380D01*
X10476190Y-2122380D01*
X10571428Y-2170000D01*
X10619047Y-2217619D01*
X10666666Y-2312857D01*
X10666666Y-2408095D01*
X10619047Y-2550952D01*
X10047619Y-3122380D01*
X10666666Y-3122380D01*
X9666666Y-63122380D02*
X9666666Y-63836666D01*
X9619047Y-63979523D01*
X9523809Y-64074761D01*
X9380952Y-64122380D01*
X9285714Y-64122380D01*
X10047619Y-63122380D02*
X10666666Y-63122380D01*
X10333333Y-63503333D01*
X10476190Y-63503333D01*
X10571428Y-63550952D01*
X10619047Y-63598571D01*
X10666666Y-63693809D01*
X10666666Y-63931904D01*
X10619047Y-64027142D01*
X10571428Y-64074761D01*
X10476190Y-64122380D01*
X10190476Y-64122380D01*
X10095238Y-64074761D01*
X10047619Y-64027142D01*
X9666666Y-70122380D02*
X9666666Y-70836666D01*
X9619047Y-70979523D01*
X9523809Y-71074761D01*
X9380952Y-71122380D01*
X9285714Y-71122380D01*
X10571428Y-70455714D02*
X10571428Y-71122380D01*
X10333333Y-70074761D02*
X10095238Y-70789047D01*
X10714285Y-70789047D01*
X86122380Y-73333333D02*
X86836666Y-73333333D01*
X86979523Y-73380952D01*
X87074761Y-73476190D01*
X87122380Y-73619047D01*
X87122380Y-73714285D01*
X86122380Y-72952380D02*
X86122380Y-72285714D01*
X87122380Y-72714285D01*
X86122380Y-39333333D02*
X86836666Y-39333333D01*
X86979523Y-39380952D01*
X87074761Y-39476190D01*
X87122380Y-39619047D01*
X87122380Y-39714285D01*
X86550952Y-38714285D02*
X86503333Y-38809523D01*
X86455714Y-38857142D01*
X86360476Y-38904761D01*
X86312857Y-38904761D01*
X86217619Y-38857142D01*
X86170000Y-38809523D01*
X86122380Y-38714285D01*
X86122380Y-38523809D01*
X86170000Y-38428571D01*
X86217619Y-38380952D01*
X86312857Y-38333333D01*
X86360476Y-38333333D01*
X86455714Y-38380952D01*
X86503333Y-38428571D01*
X86550952Y-38523809D01*
X86550952Y-38714285D01*
X86598571Y-38809523D01*
X86646190Y-38857142D01*
X86741428Y-38904761D01*
X86931904Y-38904761D01*
X87027142Y-38857142D01*
X87074761Y-38809523D01*
X87122380Y-38714285D01*
X87122380Y-38523809D01*
X87074761Y-38428571D01*
X87027142Y-38380952D01*
X86931904Y-38333333D01*
X86741428Y-38333333D01*
X86646190Y-38380952D01*
X86598571Y-38428571D01*
X86550952Y-38523809D01*
X86122380Y-6333333D02*
X86836666Y-6333333D01*
X86979523Y-6380952D01*
X87074761Y-6476190D01*
X87122380Y-6619047D01*
X87122380Y-6714285D01*
X87122380Y-5809523D02*
X87122380Y-5619047D01*
X87074761Y-5523809D01*
X87027142Y-5476190D01*
X86884285Y-5380952D01*
X86693809Y-5333333D01*
X86312857Y-5333333D01*
X86217619Y-5380952D01*
X86170000Y-5428571D01*
X86122380Y-5523809D01*
X86122380Y-5714285D01*
X86170000Y-5809523D01*
X86217619Y-5857142D01*
X86312857Y-5904761D01*
X86550952Y-5904761D01*
X86646190Y-5857142D01*
X86693809Y-5809523D01*
X86741428Y-5714285D01*
X86741428Y-5523809D01*
X86693809Y-5428571D01*
X86646190Y-5380952D01*
X86550952Y-5333333D01*
M02*
