G04 #@! TF.GenerationSoftware,KiCad,Pcbnew,6.0.0-rc1-unknown-5edf350~66~ubuntu18.10.1*
G04 #@! TF.CreationDate,2019-02-07T09:33:03-05:00
G04 #@! TF.ProjectId,Pack,5061636b-2e6b-4696-9361-645f70636258,rev?*
G04 #@! TF.SameCoordinates,Original*
G04 #@! TF.FileFunction,Copper,L1,Top*
G04 #@! TF.FilePolarity,Positive*
%FSLAX46Y46*%
G04 Gerber Fmt 4.6, Leading zero omitted, Abs format (unit mm)*
G04 Created by KiCad (PCBNEW 6.0.0-rc1-unknown-5edf350~66~ubuntu18.10.1) date 2019-02-07 09:33:03*
%MOMM*%
%LPD*%
G04 APERTURE LIST*
%ADD10C,6.000000*%
%ADD11C,1.600000*%
%ADD12O,1.600000X1.600000*%
%ADD13R,1.700000X1.700000*%
%ADD14O,1.700000X1.700000*%
%ADD15C,2.000000*%
%ADD16C,0.250000*%
G04 APERTURE END LIST*
D10*
X10000000Y-5042000D03*
X10000000Y-13695000D03*
X10000000Y-38375000D03*
X10000000Y-47028000D03*
X10000000Y-71708000D03*
X10000000Y-80361000D03*
X20000000Y-28293000D03*
X20000000Y-19640000D03*
X20000000Y-61626000D03*
X20000000Y-52973000D03*
X20000000Y-94959000D03*
X20000000Y-86306000D03*
X30000000Y-5042000D03*
X30000000Y-13695000D03*
X30000000Y-38375000D03*
X30000000Y-47028000D03*
X30000000Y-71708000D03*
X30000000Y-80361000D03*
X40000000Y-28293000D03*
X40000000Y-19640000D03*
X40000000Y-61626000D03*
X40000000Y-52973000D03*
X40000000Y-94959000D03*
X40000000Y-86306000D03*
X50000000Y-5042000D03*
X50000000Y-13695000D03*
X50000000Y-38375000D03*
X50000000Y-47028000D03*
X50000000Y-71708000D03*
X50000000Y-80361000D03*
X60000000Y-28293000D03*
X60000000Y-19640000D03*
X60000000Y-61626000D03*
X60000000Y-52973000D03*
X60000000Y-94959000D03*
X60000000Y-86306000D03*
X70000000Y-5042000D03*
X70000000Y-13695000D03*
X70000000Y-38375000D03*
X70000000Y-47028000D03*
X70000000Y-71708000D03*
X70000000Y-80361000D03*
X80000000Y-28293000D03*
X80000000Y-19640000D03*
X80000000Y-61626000D03*
X80000000Y-52973000D03*
X80000000Y-94959000D03*
X80000000Y-86306000D03*
X90000000Y-5042000D03*
X90000000Y-13695000D03*
X90000000Y-38375000D03*
X90000000Y-47028000D03*
X90000000Y-71708000D03*
X90000000Y-80361000D03*
D11*
X87750000Y-65750000D03*
D12*
X92830000Y-65750000D03*
D11*
X88000000Y-32250000D03*
D12*
X93080000Y-32250000D03*
D13*
X15500000Y-15000000D03*
X10000000Y-32000000D03*
X10000000Y-66000000D03*
X24500000Y-92000000D03*
X71000000Y-65750000D03*
D14*
X68460000Y-65750000D03*
D13*
X71250000Y-32250000D03*
D14*
X68710000Y-32250000D03*
D10*
X100000000Y-28293000D03*
X100000000Y-19640000D03*
X100000000Y-61626000D03*
X100000000Y-52973000D03*
X100000000Y-94959000D03*
X100000000Y-86306000D03*
X0Y-28293000D03*
X0Y-19640000D03*
X0Y-61626000D03*
X0Y-52973000D03*
X0Y-94959000D03*
X0Y-86306000D03*
D15*
X5355010Y-18339990D02*
X1300010Y-18339990D01*
X10000000Y-13695000D02*
X5355010Y-18339990D01*
X24055000Y-19640000D02*
X30000000Y-13695000D01*
X20000000Y-19640000D02*
X24055000Y-19640000D01*
X44055000Y-19640000D02*
X50000000Y-13695000D01*
X40000000Y-19640000D02*
X44055000Y-19640000D01*
X64055000Y-19640000D02*
X70000000Y-13695000D01*
X60000000Y-19640000D02*
X64055000Y-19640000D01*
X84055000Y-19640000D02*
X90000000Y-13695000D01*
X80000000Y-19640000D02*
X84055000Y-19640000D01*
X5355010Y-51672990D02*
X1300010Y-51672990D01*
X10000000Y-47028000D02*
X5355010Y-51672990D01*
X24055000Y-52973000D02*
X30000000Y-47028000D01*
X20000000Y-52973000D02*
X24055000Y-52973000D01*
X44055000Y-52973000D02*
X50000000Y-47028000D01*
X40000000Y-52973000D02*
X44055000Y-52973000D01*
X64055000Y-52973000D02*
X70000000Y-47028000D01*
X60000000Y-52973000D02*
X64055000Y-52973000D01*
X84055000Y-52973000D02*
X90000000Y-47028000D01*
X80000000Y-52973000D02*
X84055000Y-52973000D01*
X15945000Y-86306000D02*
X10000000Y-80361000D01*
X20000000Y-86306000D02*
X15945000Y-86306000D01*
X35945000Y-86306000D02*
X30000000Y-80361000D01*
X40000000Y-86306000D02*
X35945000Y-86306000D01*
X55945000Y-86306000D02*
X50000000Y-80361000D01*
X60000000Y-86306000D02*
X55945000Y-86306000D01*
X75945000Y-86306000D02*
X70000000Y-80361000D01*
X80000000Y-86306000D02*
X75945000Y-86306000D01*
X90000000Y-80361000D02*
X94644990Y-85005990D01*
X94644990Y-85005990D02*
X98699990Y-85005990D01*
X97000000Y-91959000D02*
X98699990Y-93658990D01*
X94644990Y-85005990D02*
X97000000Y-87361000D01*
X97000000Y-87361000D02*
X97000000Y-91959000D01*
D16*
X72100000Y-65750000D02*
X87750000Y-65750000D01*
X71000000Y-65750000D02*
X72100000Y-65750000D01*
X71250000Y-32250000D02*
X88000000Y-32250000D01*
X68460000Y-65960000D02*
X68460000Y-65750000D01*
X69425001Y-66925001D02*
X68460000Y-65960000D01*
X90523629Y-66925001D02*
X69425001Y-66925001D01*
X92830000Y-65750000D02*
X91698630Y-65750000D01*
X91698630Y-65750000D02*
X90523629Y-66925001D01*
X92280001Y-33049999D02*
X93080000Y-32250000D01*
X91904999Y-33425001D02*
X92280001Y-33049999D01*
X68710000Y-32250000D02*
X69885001Y-33425001D01*
X69885001Y-33425001D02*
X91904999Y-33425001D01*
M02*
