G04 #@! TF.GenerationSoftware,KiCad,Pcbnew,6.0.0-rc1-unknown-55b5c71~66~ubuntu18.10.1*
G04 #@! TF.CreationDate,2019-02-02T07:43:02-05:00
G04 #@! TF.ProjectId,Pack,5061636b-2e6b-4696-9361-645f70636258,rev?*
G04 #@! TF.SameCoordinates,Original*
G04 #@! TF.FileFunction,Copper,L2,Bot*
G04 #@! TF.FilePolarity,Positive*
%FSLAX46Y46*%
G04 Gerber Fmt 4.6, Leading zero omitted, Abs format (unit mm)*
G04 Created by KiCad (PCBNEW 6.0.0-rc1-unknown-55b5c71~66~ubuntu18.10.1) date 2019-02-02 07:43:02*
%MOMM*%
%LPD*%
G04 APERTURE LIST*
%ADD10C,8.500000*%
%ADD11C,10.000000*%
%ADD12C,1.600000*%
%ADD13O,1.600000X1.600000*%
%ADD14R,1.700000X1.700000*%
%ADD15O,1.700000X1.700000*%
%ADD16C,0.250000*%
%ADD17C,0.254000*%
G04 APERTURE END LIST*
D10*
X0Y-19640000D03*
D11*
X0Y-9184000D03*
D10*
X10000000Y-13695000D03*
D11*
X10000000Y-24151000D03*
D10*
X10000000Y-47028000D03*
D11*
X10000000Y-57484000D03*
D10*
X10000000Y-80361000D03*
D11*
X10000000Y-90817000D03*
D10*
X20000000Y-19640000D03*
D11*
X20000000Y-9184000D03*
D10*
X20000000Y-52973000D03*
D11*
X20000000Y-42517000D03*
D10*
X20000000Y-86306000D03*
D11*
X20000000Y-75850000D03*
D10*
X30000000Y-13695000D03*
D11*
X30000000Y-24151000D03*
D10*
X30000000Y-47028000D03*
D11*
X30000000Y-57484000D03*
D10*
X30000000Y-80361000D03*
D11*
X30000000Y-90817000D03*
D10*
X40000000Y-19640000D03*
D11*
X40000000Y-9184000D03*
D10*
X40000000Y-52973000D03*
D11*
X40000000Y-42517000D03*
D10*
X40000000Y-86306000D03*
D11*
X40000000Y-75850000D03*
D10*
X50000000Y-13695000D03*
D11*
X50000000Y-24151000D03*
D10*
X50000000Y-47028000D03*
D11*
X50000000Y-57484000D03*
D10*
X50000000Y-80361000D03*
D11*
X50000000Y-90817000D03*
D10*
X60000000Y-19640000D03*
D11*
X60000000Y-9184000D03*
D10*
X60000000Y-52973000D03*
D11*
X60000000Y-42517000D03*
D10*
X60000000Y-86306000D03*
D11*
X60000000Y-75850000D03*
D10*
X70000000Y-13695000D03*
D11*
X70000000Y-24151000D03*
D10*
X70000000Y-47028000D03*
D11*
X70000000Y-57484000D03*
D10*
X70000000Y-80361000D03*
D11*
X70000000Y-90817000D03*
D10*
X80000000Y-19640000D03*
D11*
X80000000Y-9184000D03*
D10*
X80000000Y-52973000D03*
D11*
X80000000Y-42517000D03*
D10*
X80000000Y-86306000D03*
D11*
X80000000Y-75850000D03*
D10*
X90000000Y-13695000D03*
D11*
X90000000Y-24151000D03*
D10*
X90000000Y-47028000D03*
D11*
X90000000Y-57484000D03*
D10*
X90000000Y-80361000D03*
D11*
X90000000Y-90817000D03*
D10*
X100000000Y-19640000D03*
D11*
X100000000Y-9184000D03*
D10*
X100000000Y-52973000D03*
D11*
X100000000Y-42517000D03*
D10*
X100000000Y-86306000D03*
D11*
X100000000Y-75850000D03*
D10*
X0Y-52973000D03*
D11*
X0Y-42517000D03*
D10*
X0Y-86306000D03*
D11*
X0Y-75850000D03*
D12*
X88000000Y-69000000D03*
D13*
X93080000Y-69000000D03*
D12*
X87884000Y-2286000D03*
D13*
X92964000Y-2286000D03*
D12*
X88000000Y-35000000D03*
D13*
X93080000Y-35000000D03*
D14*
X10000000Y-38000000D03*
X10000000Y-5000000D03*
X10000000Y-66000000D03*
X10000000Y-73000000D03*
X89000000Y-73000000D03*
D15*
X91540000Y-73000000D03*
D14*
X89000000Y-39000000D03*
D15*
X91540000Y-39000000D03*
D14*
X89000000Y-6000000D03*
D15*
X91540000Y-6000000D03*
D16*
X10000000Y-24151000D02*
X10000000Y-38000000D01*
X10000000Y-5000000D02*
X10000000Y-13695000D01*
X88000000Y-72000000D02*
X89000000Y-73000000D01*
X88000000Y-69000000D02*
X88000000Y-72000000D01*
X88000000Y-38000000D02*
X89000000Y-39000000D01*
X88000000Y-35000000D02*
X88000000Y-38000000D01*
X87900000Y-6000000D02*
X89000000Y-6000000D01*
X87884000Y-2286000D02*
X87884000Y-5984000D01*
X87884000Y-5984000D02*
X87900000Y-6000000D01*
X93080000Y-71460000D02*
X91540000Y-73000000D01*
X93080000Y-69000000D02*
X93080000Y-71460000D01*
X93080000Y-37460000D02*
X91540000Y-39000000D01*
X93080000Y-35000000D02*
X93080000Y-37460000D01*
X92964000Y-4576000D02*
X91540000Y-6000000D01*
X92964000Y-2286000D02*
X92964000Y-4576000D01*
D17*
G36*
X5240848Y-86911265D02*
G01*
X4570323Y-87914777D01*
X4108457Y-89029820D01*
X3873000Y-90213543D01*
X3873000Y-91420457D01*
X4108457Y-92604180D01*
X4570323Y-93719223D01*
X5240848Y-94722735D01*
X6094265Y-95576152D01*
X7097777Y-96246677D01*
X8212820Y-96708543D01*
X9396543Y-96944000D01*
X10603457Y-96944000D01*
X11787180Y-96708543D01*
X12902223Y-96246677D01*
X13905735Y-95576152D01*
X14759152Y-94722735D01*
X15429677Y-93719223D01*
X15891543Y-92604180D01*
X16127000Y-91420457D01*
X16127000Y-90213543D01*
X15891543Y-89029820D01*
X15429677Y-87914777D01*
X14759152Y-86911265D01*
X13974887Y-86127000D01*
X26025113Y-86127000D01*
X25240848Y-86911265D01*
X24570323Y-87914777D01*
X24108457Y-89029820D01*
X23873000Y-90213543D01*
X23873000Y-91420457D01*
X24108457Y-92604180D01*
X24570323Y-93719223D01*
X25240848Y-94722735D01*
X26094265Y-95576152D01*
X27097777Y-96246677D01*
X28212820Y-96708543D01*
X29396543Y-96944000D01*
X30603457Y-96944000D01*
X31787180Y-96708543D01*
X32902223Y-96246677D01*
X33905735Y-95576152D01*
X34759152Y-94722735D01*
X35429677Y-93719223D01*
X35891543Y-92604180D01*
X36127000Y-91420457D01*
X36127000Y-90213543D01*
X35891543Y-89029820D01*
X35429677Y-87914777D01*
X34759152Y-86911265D01*
X33974887Y-86127000D01*
X46025113Y-86127000D01*
X45240848Y-86911265D01*
X44570323Y-87914777D01*
X44108457Y-89029820D01*
X43873000Y-90213543D01*
X43873000Y-91420457D01*
X44108457Y-92604180D01*
X44570323Y-93719223D01*
X45240848Y-94722735D01*
X46094265Y-95576152D01*
X47097777Y-96246677D01*
X48212820Y-96708543D01*
X49396543Y-96944000D01*
X50603457Y-96944000D01*
X51787180Y-96708543D01*
X52902223Y-96246677D01*
X53905735Y-95576152D01*
X54759152Y-94722735D01*
X55429677Y-93719223D01*
X55891543Y-92604180D01*
X56127000Y-91420457D01*
X56127000Y-90213543D01*
X55891543Y-89029820D01*
X55429677Y-87914777D01*
X54759152Y-86911265D01*
X53974887Y-86127000D01*
X66025113Y-86127000D01*
X65240848Y-86911265D01*
X64570323Y-87914777D01*
X64108457Y-89029820D01*
X63873000Y-90213543D01*
X63873000Y-91420457D01*
X64108457Y-92604180D01*
X64570323Y-93719223D01*
X65240848Y-94722735D01*
X66094265Y-95576152D01*
X67097777Y-96246677D01*
X68212820Y-96708543D01*
X69396543Y-96944000D01*
X70603457Y-96944000D01*
X71787180Y-96708543D01*
X72902223Y-96246677D01*
X73905735Y-95576152D01*
X74759152Y-94722735D01*
X75429677Y-93719223D01*
X75891543Y-92604180D01*
X76127000Y-91420457D01*
X76127000Y-90213543D01*
X75891543Y-89029820D01*
X75429677Y-87914777D01*
X74759152Y-86911265D01*
X73974887Y-86127000D01*
X86025113Y-86127000D01*
X85240848Y-86911265D01*
X84570323Y-87914777D01*
X84108457Y-89029820D01*
X83873000Y-90213543D01*
X83873000Y-91420457D01*
X84108457Y-92604180D01*
X84570323Y-93719223D01*
X85240848Y-94722735D01*
X86094265Y-95576152D01*
X87097777Y-96246677D01*
X88212820Y-96708543D01*
X89396543Y-96944000D01*
X90603457Y-96944000D01*
X91787180Y-96708543D01*
X92902223Y-96246677D01*
X93905735Y-95576152D01*
X94759152Y-94722735D01*
X95429677Y-93719223D01*
X95891543Y-92604180D01*
X96127000Y-91420457D01*
X96127000Y-90213543D01*
X95891543Y-89029820D01*
X95429677Y-87914777D01*
X94759152Y-86911265D01*
X93974887Y-86127000D01*
X98773001Y-86127000D01*
X98773001Y-98773000D01*
X1227000Y-98773000D01*
X1227000Y-86127000D01*
X6025113Y-86127000D01*
X5240848Y-86911265D01*
X5240848Y-86911265D01*
G37*
X5240848Y-86911265D02*
X4570323Y-87914777D01*
X4108457Y-89029820D01*
X3873000Y-90213543D01*
X3873000Y-91420457D01*
X4108457Y-92604180D01*
X4570323Y-93719223D01*
X5240848Y-94722735D01*
X6094265Y-95576152D01*
X7097777Y-96246677D01*
X8212820Y-96708543D01*
X9396543Y-96944000D01*
X10603457Y-96944000D01*
X11787180Y-96708543D01*
X12902223Y-96246677D01*
X13905735Y-95576152D01*
X14759152Y-94722735D01*
X15429677Y-93719223D01*
X15891543Y-92604180D01*
X16127000Y-91420457D01*
X16127000Y-90213543D01*
X15891543Y-89029820D01*
X15429677Y-87914777D01*
X14759152Y-86911265D01*
X13974887Y-86127000D01*
X26025113Y-86127000D01*
X25240848Y-86911265D01*
X24570323Y-87914777D01*
X24108457Y-89029820D01*
X23873000Y-90213543D01*
X23873000Y-91420457D01*
X24108457Y-92604180D01*
X24570323Y-93719223D01*
X25240848Y-94722735D01*
X26094265Y-95576152D01*
X27097777Y-96246677D01*
X28212820Y-96708543D01*
X29396543Y-96944000D01*
X30603457Y-96944000D01*
X31787180Y-96708543D01*
X32902223Y-96246677D01*
X33905735Y-95576152D01*
X34759152Y-94722735D01*
X35429677Y-93719223D01*
X35891543Y-92604180D01*
X36127000Y-91420457D01*
X36127000Y-90213543D01*
X35891543Y-89029820D01*
X35429677Y-87914777D01*
X34759152Y-86911265D01*
X33974887Y-86127000D01*
X46025113Y-86127000D01*
X45240848Y-86911265D01*
X44570323Y-87914777D01*
X44108457Y-89029820D01*
X43873000Y-90213543D01*
X43873000Y-91420457D01*
X44108457Y-92604180D01*
X44570323Y-93719223D01*
X45240848Y-94722735D01*
X46094265Y-95576152D01*
X47097777Y-96246677D01*
X48212820Y-96708543D01*
X49396543Y-96944000D01*
X50603457Y-96944000D01*
X51787180Y-96708543D01*
X52902223Y-96246677D01*
X53905735Y-95576152D01*
X54759152Y-94722735D01*
X55429677Y-93719223D01*
X55891543Y-92604180D01*
X56127000Y-91420457D01*
X56127000Y-90213543D01*
X55891543Y-89029820D01*
X55429677Y-87914777D01*
X54759152Y-86911265D01*
X53974887Y-86127000D01*
X66025113Y-86127000D01*
X65240848Y-86911265D01*
X64570323Y-87914777D01*
X64108457Y-89029820D01*
X63873000Y-90213543D01*
X63873000Y-91420457D01*
X64108457Y-92604180D01*
X64570323Y-93719223D01*
X65240848Y-94722735D01*
X66094265Y-95576152D01*
X67097777Y-96246677D01*
X68212820Y-96708543D01*
X69396543Y-96944000D01*
X70603457Y-96944000D01*
X71787180Y-96708543D01*
X72902223Y-96246677D01*
X73905735Y-95576152D01*
X74759152Y-94722735D01*
X75429677Y-93719223D01*
X75891543Y-92604180D01*
X76127000Y-91420457D01*
X76127000Y-90213543D01*
X75891543Y-89029820D01*
X75429677Y-87914777D01*
X74759152Y-86911265D01*
X73974887Y-86127000D01*
X86025113Y-86127000D01*
X85240848Y-86911265D01*
X84570323Y-87914777D01*
X84108457Y-89029820D01*
X83873000Y-90213543D01*
X83873000Y-91420457D01*
X84108457Y-92604180D01*
X84570323Y-93719223D01*
X85240848Y-94722735D01*
X86094265Y-95576152D01*
X87097777Y-96246677D01*
X88212820Y-96708543D01*
X89396543Y-96944000D01*
X90603457Y-96944000D01*
X91787180Y-96708543D01*
X92902223Y-96246677D01*
X93905735Y-95576152D01*
X94759152Y-94722735D01*
X95429677Y-93719223D01*
X95891543Y-92604180D01*
X96127000Y-91420457D01*
X96127000Y-90213543D01*
X95891543Y-89029820D01*
X95429677Y-87914777D01*
X94759152Y-86911265D01*
X93974887Y-86127000D01*
X98773001Y-86127000D01*
X98773001Y-98773000D01*
X1227000Y-98773000D01*
X1227000Y-86127000D01*
X6025113Y-86127000D01*
X5240848Y-86911265D01*
G36*
X86176315Y-1373223D02*
G01*
X86031053Y-1723915D01*
X85957000Y-2096207D01*
X85957000Y-2475793D01*
X86031053Y-2848085D01*
X86176315Y-3198777D01*
X86387201Y-3514391D01*
X86632000Y-3759190D01*
X86632001Y-5922495D01*
X86625943Y-5984000D01*
X86650117Y-6229434D01*
X86721707Y-6465437D01*
X86837964Y-6682938D01*
X86837965Y-6682939D01*
X86994420Y-6873581D01*
X87003205Y-6880791D01*
X87010419Y-6889581D01*
X87022415Y-6899426D01*
X87039307Y-7070931D01*
X87103750Y-7283371D01*
X87208400Y-7479157D01*
X87349235Y-7650765D01*
X87520843Y-7791600D01*
X87716629Y-7896250D01*
X87929069Y-7960693D01*
X88150000Y-7982453D01*
X89850000Y-7982453D01*
X90070931Y-7960693D01*
X90283371Y-7896250D01*
X90479157Y-7791600D01*
X90565445Y-7720785D01*
X90779774Y-7835347D01*
X91152440Y-7948394D01*
X91442884Y-7977000D01*
X91637116Y-7977000D01*
X91927560Y-7948394D01*
X92300226Y-7835347D01*
X92643676Y-7651768D01*
X92944714Y-7404714D01*
X93191768Y-7103676D01*
X93375347Y-6760226D01*
X93488394Y-6387560D01*
X93526565Y-6000000D01*
X93507201Y-5803395D01*
X93805813Y-5504783D01*
X93853581Y-5465581D01*
X93988598Y-5301062D01*
X94010036Y-5274940D01*
X94126293Y-5057438D01*
X94126967Y-5055217D01*
X94197884Y-4821435D01*
X94216000Y-4637498D01*
X94216000Y-4637497D01*
X94222057Y-4576001D01*
X94216000Y-4514505D01*
X94216000Y-3751360D01*
X94333187Y-3655187D01*
X94573994Y-3361763D01*
X94752929Y-3026999D01*
X94863117Y-2663758D01*
X94900323Y-2286000D01*
X94863117Y-1908242D01*
X94752929Y-1545001D01*
X94582954Y-1227000D01*
X98773000Y-1227000D01*
X98773000Y-9873000D01*
X93782227Y-9873000D01*
X93427638Y-9518411D01*
X92546965Y-8929964D01*
X91568413Y-8524635D01*
X90529588Y-8318000D01*
X89470412Y-8318000D01*
X88431587Y-8524635D01*
X87453035Y-8929964D01*
X86572362Y-9518411D01*
X86217773Y-9873000D01*
X73782227Y-9873000D01*
X73427638Y-9518411D01*
X72546965Y-8929964D01*
X71568413Y-8524635D01*
X70529588Y-8318000D01*
X69470412Y-8318000D01*
X68431587Y-8524635D01*
X67453035Y-8929964D01*
X66572362Y-9518411D01*
X66217773Y-9873000D01*
X53782227Y-9873000D01*
X53427638Y-9518411D01*
X52546965Y-8929964D01*
X51568413Y-8524635D01*
X50529588Y-8318000D01*
X49470412Y-8318000D01*
X48431587Y-8524635D01*
X47453035Y-8929964D01*
X46572362Y-9518411D01*
X46217773Y-9873000D01*
X33782227Y-9873000D01*
X33427638Y-9518411D01*
X32546965Y-8929964D01*
X31568413Y-8524635D01*
X30529588Y-8318000D01*
X29470412Y-8318000D01*
X28431587Y-8524635D01*
X27453035Y-8929964D01*
X26572362Y-9518411D01*
X26217773Y-9873000D01*
X13782227Y-9873000D01*
X13427638Y-9518411D01*
X12546965Y-8929964D01*
X11568413Y-8524635D01*
X11252000Y-8461697D01*
X11252000Y-6905766D01*
X11283371Y-6896250D01*
X11479157Y-6791600D01*
X11650765Y-6650765D01*
X11791600Y-6479157D01*
X11896250Y-6283371D01*
X11960693Y-6070931D01*
X11982453Y-5850000D01*
X11982453Y-4150000D01*
X11960693Y-3929069D01*
X11896250Y-3716629D01*
X11791600Y-3520843D01*
X11650765Y-3349235D01*
X11479157Y-3208400D01*
X11283371Y-3103750D01*
X11070931Y-3039307D01*
X10850000Y-3017547D01*
X9150000Y-3017547D01*
X8929069Y-3039307D01*
X8716629Y-3103750D01*
X8520843Y-3208400D01*
X8349235Y-3349235D01*
X8208400Y-3520843D01*
X8103750Y-3716629D01*
X8039307Y-3929069D01*
X8017547Y-4150000D01*
X8017547Y-5850000D01*
X8039307Y-6070931D01*
X8103750Y-6283371D01*
X8208400Y-6479157D01*
X8349235Y-6650765D01*
X8520843Y-6791600D01*
X8716629Y-6896250D01*
X8748000Y-6905766D01*
X8748000Y-8461697D01*
X8431587Y-8524635D01*
X7453035Y-8929964D01*
X6572362Y-9518411D01*
X6217773Y-9873000D01*
X1227000Y-9873000D01*
X1227000Y-1227000D01*
X86274018Y-1227000D01*
X86176315Y-1373223D01*
X86176315Y-1373223D01*
G37*
X86176315Y-1373223D02*
X86031053Y-1723915D01*
X85957000Y-2096207D01*
X85957000Y-2475793D01*
X86031053Y-2848085D01*
X86176315Y-3198777D01*
X86387201Y-3514391D01*
X86632000Y-3759190D01*
X86632001Y-5922495D01*
X86625943Y-5984000D01*
X86650117Y-6229434D01*
X86721707Y-6465437D01*
X86837964Y-6682938D01*
X86837965Y-6682939D01*
X86994420Y-6873581D01*
X87003205Y-6880791D01*
X87010419Y-6889581D01*
X87022415Y-6899426D01*
X87039307Y-7070931D01*
X87103750Y-7283371D01*
X87208400Y-7479157D01*
X87349235Y-7650765D01*
X87520843Y-7791600D01*
X87716629Y-7896250D01*
X87929069Y-7960693D01*
X88150000Y-7982453D01*
X89850000Y-7982453D01*
X90070931Y-7960693D01*
X90283371Y-7896250D01*
X90479157Y-7791600D01*
X90565445Y-7720785D01*
X90779774Y-7835347D01*
X91152440Y-7948394D01*
X91442884Y-7977000D01*
X91637116Y-7977000D01*
X91927560Y-7948394D01*
X92300226Y-7835347D01*
X92643676Y-7651768D01*
X92944714Y-7404714D01*
X93191768Y-7103676D01*
X93375347Y-6760226D01*
X93488394Y-6387560D01*
X93526565Y-6000000D01*
X93507201Y-5803395D01*
X93805813Y-5504783D01*
X93853581Y-5465581D01*
X93988598Y-5301062D01*
X94010036Y-5274940D01*
X94126293Y-5057438D01*
X94126967Y-5055217D01*
X94197884Y-4821435D01*
X94216000Y-4637498D01*
X94216000Y-4637497D01*
X94222057Y-4576001D01*
X94216000Y-4514505D01*
X94216000Y-3751360D01*
X94333187Y-3655187D01*
X94573994Y-3361763D01*
X94752929Y-3026999D01*
X94863117Y-2663758D01*
X94900323Y-2286000D01*
X94863117Y-1908242D01*
X94752929Y-1545001D01*
X94582954Y-1227000D01*
X98773000Y-1227000D01*
X98773000Y-9873000D01*
X93782227Y-9873000D01*
X93427638Y-9518411D01*
X92546965Y-8929964D01*
X91568413Y-8524635D01*
X90529588Y-8318000D01*
X89470412Y-8318000D01*
X88431587Y-8524635D01*
X87453035Y-8929964D01*
X86572362Y-9518411D01*
X86217773Y-9873000D01*
X73782227Y-9873000D01*
X73427638Y-9518411D01*
X72546965Y-8929964D01*
X71568413Y-8524635D01*
X70529588Y-8318000D01*
X69470412Y-8318000D01*
X68431587Y-8524635D01*
X67453035Y-8929964D01*
X66572362Y-9518411D01*
X66217773Y-9873000D01*
X53782227Y-9873000D01*
X53427638Y-9518411D01*
X52546965Y-8929964D01*
X51568413Y-8524635D01*
X50529588Y-8318000D01*
X49470412Y-8318000D01*
X48431587Y-8524635D01*
X47453035Y-8929964D01*
X46572362Y-9518411D01*
X46217773Y-9873000D01*
X33782227Y-9873000D01*
X33427638Y-9518411D01*
X32546965Y-8929964D01*
X31568413Y-8524635D01*
X30529588Y-8318000D01*
X29470412Y-8318000D01*
X28431587Y-8524635D01*
X27453035Y-8929964D01*
X26572362Y-9518411D01*
X26217773Y-9873000D01*
X13782227Y-9873000D01*
X13427638Y-9518411D01*
X12546965Y-8929964D01*
X11568413Y-8524635D01*
X11252000Y-8461697D01*
X11252000Y-6905766D01*
X11283371Y-6896250D01*
X11479157Y-6791600D01*
X11650765Y-6650765D01*
X11791600Y-6479157D01*
X11896250Y-6283371D01*
X11960693Y-6070931D01*
X11982453Y-5850000D01*
X11982453Y-4150000D01*
X11960693Y-3929069D01*
X11896250Y-3716629D01*
X11791600Y-3520843D01*
X11650765Y-3349235D01*
X11479157Y-3208400D01*
X11283371Y-3103750D01*
X11070931Y-3039307D01*
X10850000Y-3017547D01*
X9150000Y-3017547D01*
X8929069Y-3039307D01*
X8716629Y-3103750D01*
X8520843Y-3208400D01*
X8349235Y-3349235D01*
X8208400Y-3520843D01*
X8103750Y-3716629D01*
X8039307Y-3929069D01*
X8017547Y-4150000D01*
X8017547Y-5850000D01*
X8039307Y-6070931D01*
X8103750Y-6283371D01*
X8208400Y-6479157D01*
X8349235Y-6650765D01*
X8520843Y-6791600D01*
X8716629Y-6896250D01*
X8748000Y-6905766D01*
X8748000Y-8461697D01*
X8431587Y-8524635D01*
X7453035Y-8929964D01*
X6572362Y-9518411D01*
X6217773Y-9873000D01*
X1227000Y-9873000D01*
X1227000Y-1227000D01*
X86274018Y-1227000D01*
X86176315Y-1373223D01*
M02*
